<?xml version="1.0" encoding="UTF-8" standalone="no"?>
<svg
   viewBox="0 0 128 128"
   version="1.1"
   id="svg4"
   sodipodi:docname="cplusplus.svg"
   xml:space="preserve"
   inkscape:export-filename="cplusplus.svg"
   inkscape:export-xdpi="96"
   inkscape:export-ydpi="96"
   inkscape:version="1.4 (86a8ad7, 2024-10-11)"
   xmlns:inkscape="http://www.inkscape.org/namespaces/inkscape"
   xmlns:sodipodi="http://sodipodi.sourceforge.net/DTD/sodipodi-0.dtd"
   xmlns="http://www.w3.org/2000/svg"
   xmlns:svg="http://www.w3.org/2000/svg"><defs
     id="defs4"><inkscape:path-effect
       effect="powerclip"
       message=""
       id="path-effect6"
       is_visible="true"
       lpeversion="1"
       inverse="true"
       flatten="false"
       hide_clip="false" /><clipPath
       clipPathUnits="userSpaceOnUse"
       id="clipPath6"><path
         fill="#3949ab"
         fill-rule="evenodd"
         d="m 42.83997,11.66317 c 0.58971,0.551999 0.57828,1.384 0.57828,2.038856 0,4.337139 -0.0366,16.673131 0.0103,21.010269 0.004,0.452572 -0.14514,0.929143 -0.36914,1.288 L 21.24913,24.000304 Z"
         clip-rule="evenodd"
         id="path6"
         style="display:none;stroke-width:1.14286" /><path
         id="lpe_path-effect6"
         style="stroke-width:1.14286"
         class="powerclip"
         d="M 0.7142814,3.0003158 H 42.714258 V 45.000292 H 0.7142814 Z M 42.83997,11.66317 21.24913,24.000304 43.05941,36.000295 c 0.224,-0.358857 0.37314,-0.835428 0.36914,-1.288 -0.0469,-4.337138 -0.0103,-16.67313 -0.0103,-21.010269 0,-0.654856 0.01143,-1.486857 -0.57828,-2.038856 z" /></clipPath></defs><sodipodi:namedview
     id="namedview4"
     pagecolor="#ffffff"
     bordercolor="#000000"
     borderopacity="0.25"
     inkscape:showpageshadow="2"
     inkscape:pageopacity="0.0"
     inkscape:pagecheckerboard="0"
     inkscape:deskcolor="#d1d1d1"
     inkscape:zoom="4"
     inkscape:cx="18.25"
     inkscape:cy="64.375"
     inkscape:window-width="2560"
     inkscape:window-height="1369"
     inkscape:window-x="-8"
     inkscape:window-y="-8"
     inkscape:window-maximized="1"
     inkscape:current-layer="svg4" /><path
     fill="#D26383"
     d="M115.4 30.7L67.1 2.9c-.8-.5-1.9-.7-3.1-.7-1.2 0-2.3.3-3.1.7l-48 27.9c-1.7 1-2.9 3.5-2.9 5.4v55.7c0 1.1.2 2.4 1 3.5l106.8-62c-.6-1.2-1.5-2.1-2.4-2.7z"
     id="path1" /><path
     fill="#9c033a"
     d="m 10.578757,94.737774 c 0.501258,0.802012 1.203018,1.503773 1.904779,1.904779 l 48.321242,27.970177 c 0.802012,0.50126 1.904779,0.70176 3.107797,0.70176 1.203019,0 2.305786,-0.30075 3.107798,-0.70176 L 115.14111,96.642553 c 1.70428,-1.002515 2.9073,-3.508804 2.9073,-5.413583 V 35.388863 c 0,-0.902263 -0.10025,-1.904779 -0.60151,-2.807043 z"
     id="path2"
     style="stroke-width:1.00252" /><path
     d="M82.1 61.8h5.2v-5.3h4.4v5.3H97v4.4h-5.3v5.2h-4.4v-5.2h-5.2v-4.4zm18.5 0h5.2v-5.3h4.4v5.3h5.3v4.4h-5.3v5.2h-4.4v-5.2h-5.2v-4.4z"
     fill="#fff"
     id="path4" /><g
     style="clip-rule:evenodd;fill-rule:evenodd"
     id="g4"
     transform="matrix(2.4353359,0,0,2.4353359,37.561478,103.957)"><path
       fill="#ffffff"
       fill-rule="evenodd"
       d="m 21.714269,8.0003158 c 8.830851,0 15.999989,7.1691372 15.999989,15.9999882 0,8.83085 -7.169138,15.999988 -15.999989,15.999988 -8.83085,0 -15.9999876,-7.169138 -15.9999876,-15.999988 0,-8.830851 7.1691376,-15.9999882 15.9999876,-15.9999882 z m 0,7.9999942 c 4.414854,0 7.999994,3.583997 7.999994,7.999994 0,4.414854 -3.58514,7.999993 -7.999994,7.999993 -4.414853,0 -7.999993,-3.585139 -7.999993,-7.999993 0,-4.415997 3.583997,-7.999994 7.999993,-7.999994 z"
       clip-rule="evenodd"
       id="path3-2"
       style="stroke-width:1.14286"
       clip-path="url(#clipPath6)"
       transform="translate(-10.858058,-40.407487)"
       inkscape:original-d="m 21.714269,8.0003158 c 8.830851,0 15.999989,7.1691372 15.999989,15.9999882 0,8.83085 -7.169138,15.999988 -15.999989,15.999988 -8.83085,0 -15.9999876,-7.169138 -15.9999876,-15.999988 0,-8.830851 7.1691376,-15.9999882 15.9999876,-15.9999882 z m 0,7.9999942 c 4.414854,0 7.999994,3.583997 7.999994,7.999994 0,4.414854 -3.58514,7.999993 -7.999994,7.999993 -4.414853,0 -7.999993,-3.585139 -7.999993,-7.999993 0,-4.415997 3.583997,-7.999994 7.999993,-7.999994 z"
       inkscape:path-effect="#path-effect6" /></g></svg>
