<?xml version="1.0" encoding="UTF-8" standalone="no"?>
<svg
   viewBox="0 0 43.428635 48"
   width="43.428635"
   height="48"
   fill-rule="evenodd"
   clip-rule="evenodd"
   version="1.1"
   id="svg4"
   sodipodi:docname="C.svg"
   xml:space="preserve"
   inkscape:export-filename="C.svg"
   inkscape:export-xdpi="227.6839"
   inkscape:export-ydpi="227.6839"
   inkscape:version="1.4 (86a8ad7, 2024-10-11)"
   xmlns:inkscape="http://www.inkscape.org/namespaces/inkscape"
   xmlns:sodipodi="http://sodipodi.sourceforge.net/DTD/sodipodi-0.dtd"
   xmlns="http://www.w3.org/2000/svg"
   xmlns:svg="http://www.w3.org/2000/svg"><sodipodi:namedview
     id="namedview1"
     pagecolor="#ffffff"
     bordercolor="#000000"
     borderopacity="0.25"
     inkscape:showpageshadow="2"
     inkscape:pageopacity="0.0"
     inkscape:pagecheckerboard="0"
     inkscape:deskcolor="#d1d1d1"
     inkscape:zoom="12.15625"
     inkscape:cx="11.928021"
     inkscape:cy="18.138817"
     inkscape:window-width="2560"
     inkscape:window-height="1369"
     inkscape:window-x="-8"
     inkscape:window-y="-8"
     inkscape:window-maximized="1"
     inkscape:current-layer="svg4" /><defs
     id="defs4"><inkscape:path-effect
       effect="powerclip"
       message=""
       id="path-effect6"
       is_visible="true"
       lpeversion="1"
       inverse="true"
       flatten="false"
       hide_clip="false" /><clipPath
       clipPathUnits="userSpaceOnUse"
       id="clipPath6"><path
         fill="#3949ab"
         fill-rule="evenodd"
         d="m 42.83997,11.66317 c 0.58971,0.551999 0.57828,1.384 0.57828,2.038856 0,4.337139 -0.0366,16.673131 0.0103,21.010269 0.004,0.452572 -0.14514,0.929143 -0.36914,1.288 L 21.24913,24.000304 Z"
         clip-rule="evenodd"
         id="path6"
         style="display:block;stroke-width:1.14286" /></clipPath></defs><path
     fill="#283593"
     fill-rule="evenodd"
     d="m 20.460556,0.32717878 c 0.776,-0.43542824 1.731427,-0.43542824 2.506284,0 3.834283,2.15199832 15.37256,8.62970772 19.207986,10.78170622 0.775998,0.434286 1.253713,1.238857 1.253713,2.109713 0,4.303996 0,17.258272 0,21.562269 0,0.870857 -0.477715,1.675428 -1.253713,2.110856 -3.834284,2.151998 -15.372561,8.629707 -19.207986,10.781706 -0.775999,0.435428 -1.731427,0.435428 -2.506284,0 C 16.626273,45.52143 5.0879961,39.043721 1.2525704,36.891723 0.47771391,36.456295 1.8760005e-8,35.652867 1.8760005e-8,34.78201 c 0,-4.303997 0,-17.258273 0,-21.56227 C 1.8760005e-8,12.348884 0.47771391,11.544314 1.2537133,11.108885 5.0868532,8.9568865 16.627416,2.4791771 20.460556,0.32717878 Z"
     clip-rule="evenodd"
     id="path1"
     style="stroke-width:1.14286;fill:#9c033a;fill-opacity:1" /><path
     fill="#5c6bc0"
     fill-rule="evenodd"
     d="M 0.34742821,35.89058 C 0.04342851,35.483724 1.8760005e-8,35.097438 1.8760005e-8,34.577439 c 0,-4.278854 0,-17.158845 0,-21.438841 C 1.8760005e-8,12.272313 0.47657101,11.472314 1.2502847,11.040314 5.0708532,8.9008866 16.570273,2.4608914 20.390842,0.32032164 c 0.773714,-0.43314253 1.821712,-0.42399968 2.595427,0.009143 3.820568,2.13942696 15.281131,8.52456496 19.1017,10.66399236 0.308571,0.173714 0.543999,0.382857 0.754285,0.658285 z"
     clip-rule="evenodd"
     id="path2"
     style="stroke-width:1.14286;fill:#d26383;fill-opacity:1" /><path
     fill="#ffffff"
     fill-rule="evenodd"
     d="m 21.714269,8.0003158 c 8.830851,0 15.999989,7.1691372 15.999989,15.9999882 0,8.83085 -7.169138,15.999988 -15.999989,15.999988 -8.83085,0 -15.9999876,-7.169138 -15.9999876,-15.999988 0,-8.830851 7.1691376,-15.9999882 15.9999876,-15.9999882 z m 0,7.9999942 c 4.414854,0 7.999994,3.583997 7.999994,7.999994 0,4.414854 -3.58514,7.999993 -7.999994,7.999993 -4.414853,0 -7.999993,-3.585139 -7.999993,-7.999993 0,-4.415997 3.583997,-7.999994 7.999993,-7.999994 z"
     clip-rule="evenodd"
     id="path3"
     style="stroke-width:1.14286" /><path
     fill="#3949ab"
     fill-rule="evenodd"
     d="m 42.839968,11.66317 c 0.589713,0.551999 0.578285,1.384 0.578285,2.038856 0,4.337139 -0.03657,16.673131 0.01028,21.010269 0.0045,0.452572 -0.145143,0.929143 -0.369143,1.288 L 21.249127,24.000304 Z"
     clip-rule="evenodd"
     id="path4"
     style="stroke-width:1.14286;fill:#b13c65;fill-opacity:1" /><path
     d="m 82.1,61.8 h 5.2 v -5.3 h 4.4 v 5.3 H 97 v 4.4 h -5.3 v 5.2 h -4.4 v -5.2 h -5.2 z m 18.5,0 h 5.2 v -5.3 h 4.4 v 5.3 h 5.3 v 4.4 h -5.3 v 5.2 h -4.4 v -5.2 h -5.2 z"
     fill="#ffffff"
     id="path4-4"
     transform="matrix(0.38862105,0,0,0.389881,-3.1668365,-0.88653537)" /></svg>
