<?xml version="1.0" encoding="UTF-8" standalone="no"?>
<svg
   viewBox="0 0 124.99997 124.75632"
   version="1.1"
   id="svg2"
   width="124.99997"
   height="124.75632"
   xmlns="http://www.w3.org/2000/svg"
   xmlns:svg="http://www.w3.org/2000/svg">
  <defs
     id="defs2" />
  <path
     d="M 124.81042,79.390034 79.569421,124.54101 c -0.18,0.18 -0.452,0.27 -0.633,0.18 l -61.801,-16.55799 c -0.271,-0.09 -0.452,-0.271 -0.452,-0.453 L 0.03541176,46.001046 c -0.09,-0.273 0,-0.453 0.18,-0.634 L 45.456421,0.21606178 c 0.181,-0.17999994 0.453,-0.2709999 0.634,-0.17999994 L 107.89142,16.593057 c 0.271,0.09 0.451,0.271999 0.451,0.452999 l 16.559,61.709978 c 0.181,0.271 0.09,0.452 -0.09,0.634 z"
     id="path1-8"
     style="fill:#ffffff;stroke-width:0.90483" />
  <path
     d="M 124.81031,79.389739 79.569307,124.54073 c -0.18,0.18 -0.452,0.27 -0.633,0.18 l -61.801,-16.558 c -0.271,-0.09 -0.452,-0.271 -0.452,-0.453 L 0.03530744,46.000739 c -0.09,-0.273 0,-0.453 0.18,-0.634 L 45.456307,0.21573832 c 0.181,-0.18 0.453,-0.271 0.634,-0.18 L 107.89131,16.592739 c 0.271,0.09 0.451,0.272 0.451,0.453 l 16.559,61.71 c 0.181,0.271 0.09,0.452 -0.09,0.634 z m -60.623003,-49.134 -60.7139996,16.196 c -0.09,0 -0.181,0.182 -0.09,0.272 l 44.4269996,44.338 c 0.09,0.09 0.271,0.09 0.271,-0.09 l 16.288,-60.624 c 0.09,0 -0.09,-0.181 -0.181,-0.09 z"
     id="path1"
     style="stroke-width:0.90483" />
</svg>
