<?xml version="1.0" encoding="UTF-8" standalone="no"?>
<svg
   viewBox="0 0 125 124.75586"
   version="1.1"
   id="svg2"
   width="125"
   height="124.75586"
   sodipodi:docname="Crystal.svg"
   inkscape:export-filename="Crystal.svg"
   inkscape:export-xdpi="96"
   inkscape:export-ydpi="96"
   inkscape:version="1.4 (86a8ad7, 2024-10-11)"
   xmlns:inkscape="http://www.inkscape.org/namespaces/inkscape"
   xmlns:sodipodi="http://sodipodi.sourceforge.net/DTD/sodipodi-0.dtd"
   xmlns="http://www.w3.org/2000/svg"
   xmlns:svg="http://www.w3.org/2000/svg">
  <sodipodi:namedview
     id="namedview1"
     pagecolor="#ffffff"
     bordercolor="#000000"
     borderopacity="0.25"
     inkscape:showpageshadow="2"
     inkscape:pageopacity="0.0"
     inkscape:pagecheckerboard="0"
     inkscape:deskcolor="#d1d1d1"
     inkscape:zoom="6.6144678"
     inkscape:cx="36.73765"
     inkscape:cy="85.796774"
     inkscape:window-width="2560"
     inkscape:window-height="1369"
     inkscape:window-x="-8"
     inkscape:window-y="-8"
     inkscape:window-maximized="1"
     inkscape:current-layer="svg2" />
  <defs
     id="defs2" />
  <path
     d="M 124.31122,79.072273 79.251122,124.0427 c -0.179279,0.17928 -0.450192,0.26893 -0.630468,0.17928 L 17.066785,107.73021 c -0.269917,-0.0896 -0.450192,-0.26991 -0.450192,-0.45119 L 0.03516618,45.816789 c -0.08963995,-0.271908 0,-0.451188 0.17928022,-0.631464 L 45.274535,0.21487557 C 45.45481,0.03559545 45.725723,-0.05504075 45.905999,0.03559545 L 107.45987,16.526386 c 0.26992,0.08964 0.4492,0.270914 0.4492,0.45119 l 16.49278,61.463231 c 0.18028,0.269917 0.0896,0.450194 -0.0896,0.631466 z"
     id="path1-8"
     style="fill:#ffffff;stroke-width:0.901212"
     sodipodi:nodetypes="cccccccccccccc" />
  <path
     d="M 120.11209,77.925669 78.100692,119.85348 c -0.167149,0.16715 -0.419733,0.25073 -0.587812,0.16715 L 20.12365,104.64466 c -0.251654,-0.0836 -0.419734,-0.25165 -0.419734,-0.42066 L 4.2443623,46.9202 c -0.083575,-0.253511 0,-0.420661 0.1671504,-0.58874 L 46.422907,4.4036399 C 46.590985,4.2364895 46.843569,4.1519858 47.011648,4.2364895 L 104.40089,19.611541 c 0.25165,0.08357 0.4188,0.252581 0.4188,0.420661 L 120.1966,77.33693 c 0.16808,0.251653 0.0836,0.419733 -0.0836,0.588739 z M 63.816762,32.299184 7.4369348,47.339005 c -0.083575,0 -0.1680789,0.169008 -0.083575,0.252583 L 48.608863,88.764445 c 0.08357,0.08358 0.251654,0.08358 0.251654,-0.08358 l 15.125254,-56.29625 c 0.08358,0 -0.08358,-0.168079 -0.16808,-0.08358 z"
     id="path1"
     style="stroke-width:0.840237" />
</svg>
