<?xml version="1.0" encoding="UTF-8" standalone="no"?>
<svg
   viewBox="0 0 125 124.75586"
   version="1.1"
   id="svg2"
   width="125"
   height="124.75586"
   sodipodi:docname="Crystal.svg"
   inkscape:export-filename="Crystal.svg"
   inkscape:export-xdpi="96"
   inkscape:export-ydpi="96"
   inkscape:version="1.4 (86a8ad7, 2024-10-11)"
   xmlns:inkscape="http://www.inkscape.org/namespaces/inkscape"
   xmlns:sodipodi="http://sodipodi.sourceforge.net/DTD/sodipodi-0.dtd"
   xmlns="http://www.w3.org/2000/svg"
   xmlns:svg="http://www.w3.org/2000/svg">
  <sodipodi:namedview
     id="namedview1"
     pagecolor="#ffffff"
     bordercolor="#000000"
     borderopacity="0.25"
     inkscape:showpageshadow="2"
     inkscape:pageopacity="0.0"
     inkscape:pagecheckerboard="0"
     inkscape:deskcolor="#d1d1d1"
     inkscape:zoom="3.3072339"
     inkscape:cx="34.167526"
     inkscape:cy="50.646554"
     inkscape:window-width="2560"
     inkscape:window-height="1369"
     inkscape:window-x="-8"
     inkscape:window-y="-8"
     inkscape:window-maximized="1"
     inkscape:current-layer="svg2" />
  <defs
     id="defs2" />
  <path
     d="M 129.33214,80.624162 80.808072,129.05168 c -0.193062,0.19306 -0.484801,0.28959 -0.678936,0.19306 L 13.843344,111.48517 c -0.290666,-0.0965 -0.4848,-0.29067 -0.4848,-0.48588 L -4.4975729,44.81218 c -0.096531,-0.292811 0,-0.485873 0.1930623,-0.680008 L 44.219551,-4.2953588 c 0.194134,-0.1930622 0.485873,-0.290666 0.680008,-0.1930622 l 66.285791,17.758513 c 0.29067,0.09653 0.48373,0.291739 0.48373,0.485874 l 17.76066,66.188188 c 0.19414,0.290666 0.0965,0.484801 -0.0965,0.680008 z"
     id="path1-8"
     style="fill:#ffffff;stroke-width:0.970492"
     sodipodi:nodetypes="cccccccccccccc" />
  <path
     d="M 124.81021,79.389415 79.569203,124.54041 c -0.18,0.18 -0.452,0.27 -0.633,0.18 l -61.801,-16.558 c -0.271,-0.09 -0.452,-0.271 -0.452,-0.453 L 0.03520312,46.000415 c -0.09,-0.273 0,-0.453 0.18,-0.634 L 45.456203,0.21541478 c 0.181,-0.18 0.453,-0.271 0.634,-0.18 L 107.89121,16.592415 c 0.271,0.09 0.451,0.272 0.451,0.453 l 16.559,61.71 c 0.181,0.271 0.09,0.452 -0.09,0.634 z m -60.623007,-49.134 -60.7139999,16.196 c -0.09,0 -0.181,0.182 -0.09,0.272 l 44.4269999,44.338 c 0.09,0.09 0.271,0.09 0.271,-0.09 l 16.288,-60.624 c 0.09,0 -0.09,-0.181 -0.181,-0.09 z"
     id="path1"
     style="stroke-width:0.90483" />
</svg>
