<?xml version="1.0" encoding="UTF-8" standalone="no"?>
<svg
   viewBox="0 0 124.99986 124.75604"
   version="1.1"
   id="svg2"
   width="124.99986"
   height="124.75603"
   xmlns="http://www.w3.org/2000/svg"
   xmlns:svg="http://www.w3.org/2000/svg">
  <defs
     id="defs2" />
  <path
     d="M 122.31801,78.70942 78.886611,122.0544 c -0.172801,0.1728 -0.433921,0.2592 -0.607681,0.1728 L 18.949908,106.33151 c -0.260161,-0.0864 -0.433921,-0.26016 -0.433921,-0.43488 L 2.5338816,46.655957 c -0.0864,-0.26208 0,-0.43488 0.1728002,-0.60864 L 46.138096,2.7023267 c 0.17376,-0.1728001 0.434881,-0.2601602 0.608641,-0.1728001 L 106.07576,18.424258 c 0.26016,0.0864 0.43296,0.26112 0.43296,0.43488 l 15.89665,59.241641 c 0.17376,0.26016 0.0864,0.43392 -0.0864,0.608641 z"
     id="path1-8"
     style="fill:#ffffff;stroke-width:0.868638" />
  <path
     d="M 124.81031,79.389739 79.569307,124.54073 c -0.18,0.18 -0.452,0.27 -0.633,0.18 l -61.801,-16.558 c -0.271,-0.09 -0.452,-0.271 -0.452,-0.453 L 0.03530744,46.000739 c -0.09,-0.273 0,-0.453 0.18,-0.634 L 45.456307,0.21573832 c 0.181,-0.18 0.453,-0.271 0.634,-0.18 L 107.89131,16.592739 c 0.271,0.09 0.451,0.272 0.451,0.453 l 16.559,61.71 c 0.181,0.271 0.09,0.452 -0.09,0.634 z m -60.623003,-49.134 -60.7139996,16.196 c -0.09,0 -0.181,0.182 -0.09,0.272 l 44.4269996,44.338 c 0.09,0.09 0.271,0.09 0.271,-0.09 l 16.288,-60.624 c 0.09,0 -0.09,-0.181 -0.181,-0.09 z"
     id="path1"
     style="stroke-width:0.90483" />
</svg>
