<?xml version="1.0" encoding="UTF-8" standalone="no"?>
<svg
   viewBox="0 0 125 124.75586"
   version="1.1"
   id="svg2"
   width="125"
   height="124.75586"
   xmlns="http://www.w3.org/2000/svg"
   xmlns:svg="http://www.w3.org/2000/svg">
  <defs
     id="defs2" />
  <path
     d="M 124.81021,79.389415 79.569203,124.54041 c -0.18,0.18 -0.452,0.27 -0.633,0.18 l -61.801,-16.558 c -0.271,-0.09 -0.452,-0.271 -0.452,-0.453 L 0.03520312,46.000415 c -0.09,-0.273 0,-0.453 0.18,-0.634 L 45.456203,0.21541478 c 0.181,-0.18 0.453,-0.271 0.634,-0.18 L 107.89121,16.592415 c 0.271,0.09 0.451,0.272 0.451,0.453 l 16.559,61.71 c 0.181,0.271 0.09,0.452 -0.09,0.634 z m -60.623007,-49.134 -60.7139999,16.196 c -0.09,0 -0.181,0.182 -0.09,0.272 l 44.4269999,44.338 c 0.09,0.09 0.271,0.09 0.271,-0.09 l 16.288,-60.624 c 0.09,0 -0.09,-0.181 -0.181,-0.09 z"
     id="path1"
     style="stroke-width:0.90483" />
</svg>
