<?xml version="1.0" encoding="UTF-8" standalone="no"?>
<svg
   viewBox="0 0 26690.243 28499.479"
   version="1.1"
   id="svg2"
   width="26690.242"
   height="28499.479"
   xmlns="http://www.w3.org/2000/svg"
   xmlns:svg="http://www.w3.org/2000/svg">
  <defs
     id="defs2" />
  <path
     d="m -5140.0207,-6959.7006 -50,49.9 c -0.2,0.2 -0.5,0.3 -0.7,0.2 l -68.3,-18.3 c -0.3,-0.1 -0.5,-0.3 -0.5,-0.5 l -18.4,-68.2 c -0.1,-0.3 0,-0.5 0.2,-0.7 l 50,-49.9 c 0.2,-0.2 0.5,-0.3 0.7,-0.2 l 68.3,18.3 c 0.3,0.1 0.5,0.3 0.5,0.5 l 18.3,68.2 c 0.2,0.3 0.1,0.5 -0.1,0.7 z m -67,-54.3 -67.1,17.9 c -0.1,0 -0.2,0.2 -0.1,0.3 l 49.1,49 c 0.1,0.1 0.3,0.1 0.3,-0.1 l 18,-67 c 0.1,0 -0.1,-0.2 -0.2,-0.1 z"
     id="path1" />
</svg>
