<?xml version="1.0" encoding="UTF-8" standalone="no"?>
<svg
   width="16"
   height="16"
   viewBox="0 0 16 16"
   version="1.1"
   id="svg16"
   sodipodi:docname="csharp.svg"
   inkscape:version="1.2.2 (b0a8486541, 2022-12-01)"
   xmlns:inkscape="http://www.inkscape.org/namespaces/inkscape"
   xmlns:sodipodi="http://sodipodi.sourceforge.net/DTD/sodipodi-0.dtd"
   xmlns="http://www.w3.org/2000/svg"
   xmlns:svg="http://www.w3.org/2000/svg">
  <defs
     id="defs20" />
  <sodipodi:namedview
     id="namedview18"
     pagecolor="#ffffff"
     bordercolor="#000000"
     borderopacity="0.25"
     inkscape:showpageshadow="2"
     inkscape:pageopacity="0.0"
     inkscape:pagecheckerboard="0"
     inkscape:deskcolor="#d1d1d1"
     showgrid="false"
     inkscape:zoom="64"
     inkscape:cx="7.640625"
     inkscape:cy="8.3671875"
     inkscape:window-width="2560"
     inkscape:window-height="1369"
     inkscape:window-x="0"
     inkscape:window-y="0"
     inkscape:window-maximized="1"
     inkscape:current-layer="svg16" />
  <g
     fill="none"
     fill-rule="evenodd"
     id="g14">
    <g
       transform="translate(1)"
       id="g10">
      <path
         fill="#A375E6"
         d="M7.73592008,0.266586306 L13.2009996,3.39915762 L13.2009996,3.39915762 C13.6951837,3.68242284 14,4.20848323 14,4.7780946 L14,11.1796509 L14,11.1796509 C14,11.7463882 13.6982262,12.2702492 13.2079683,12.5545699 L7.74295013,15.7239595 L7.74295013,15.7239595 C7.24606718,16.0121224 6.63236615,16.0097734 6.13770369,15.7178152 L0.781529831,12.5565103 L0.781529831,12.5565103 C0.297203441,12.2706526 -1.53171242e-16,11.7501292 -2.22044605e-16,11.1877355 L3.29225625e-16,4.77003304 L1.11022302e-15,4.77003304 C7.8995584e-16,4.20474315 0.300247095,3.68199251 0.788528177,3.39715178 L6.14464071,0.27264202 L6.14464071,0.27264202 C6.63579652,-0.0138756916 7.24259781,-0.0161849121 7.73592008,0.266586306 Z"
         id="path2" />
      <path
         fill="#7F31F2"
         d="M13.8203049,11.9636164 C13.6978965,12.1863096 13.5174502,12.3750886 13.2930032,12.5052547 L7.62830548,15.7904466 C7.20070249,16.0384313 6.67748196,16.0364015 6.25171459,15.7851064 L0.697869221,12.5071324 C0.442312446,12.3562984 0.244765587,12.1292027 0.126103184,11.8628958 C3.09447837,10.1574879 5.32075975,8.87843195 6.80494734,8.02572801 L13.8203049,11.9636164 Z"
         id="path4" />
      <path
         fill="#6247bc"
         d="M 13.706028,3.8494331 C 13.876749,4.04876 14,4.44355 14,4.6959157 v 6.5653373 c 0,0.250537 -0.06386,0.491634 -0.179695,0.702363 -0.469966,0.335215 -2.808418,-0.977415 -7.0153577,-3.937888 z"
         id="path6"
         sodipodi:nodetypes="cssccc" />
      <path
         fill="#ffffff"
         d="M 11.405204,5.2320353 C 10.509145,3.886547 8.9784162,3 7.2406235,3 c -2.7614238,0 -5,2.2385763 -5,5 0,2.761424 2.2385762,5 5,5 1.6557913,0 3.1235985,-0.804854 4.0335385,-2.044677 L 9.1457235,9.6189023 C 8.6871605,10.158004 8.0038307,10.5 7.2406235,10.5 c -1.3807119,0 -2.5,-1.1192881 -2.5,-2.5 0,-1.3807119 1.1192881,-2.5 2.5,-2.5 0.8258827,0 1.5582301,0.4004724 2.0134456,1.0178205 z"
         id="path8" />
    </g>
    <path
       fill="#FFFFFF"
       d="M11.4660175,8.38633213 L11.551919,7.61654757 L11.1304348,7.61654757 L11.173913,7.00071992 L11.6206402,7.00071992 L11.6792675,6.47534634 L12.0434783,6.47534634 L11.9843565,7.00071992 L12.4032489,7.00071992 L12.4618762,6.47534634 L12.826087,6.47534634 L12.7669652,7.00071992 L13,7.00071992 L12.9565217,7.61654757 L12.6976643,7.61654757 L12.6110382,8.38633213 L12.8695652,8.38633213 L12.826087,9.00215977 L12.5417374,9.00215977 L12.4782609,9.56623037 L12.1169594,9.56623037 L12.1799049,9.00215977 L11.7591287,9.00215977 L11.6956522,9.56623037 L11.3343507,9.56623037 L11.3972962,9.00215977 L11,9.00215977 L11.0434783,8.38633213 L11.4660175,8.38633213 Z M11.8284295,8.38633213 L12.2486262,8.38633213 L12.3345277,7.61654757 L11.9150556,7.61654757 L11.8284295,8.38633213 Z"
       id="path12" />
  </g>
</svg>
