<?xml version="1.0" encoding="UTF-8" standalone="no"?>
<!-- Created with Inkscape (http://www.inkscape.org/) -->

<svg
   width="50mm"
   height="50mm"
   viewBox="0 0 50 50"
   version="1.1"
   id="svg1"
   xml:space="preserve"
   xmlns="http://www.w3.org/2000/svg"
   xmlns:svg="http://www.w3.org/2000/svg"><defs
     id="defs1" /><g
     id="layer1"><rect
       style="font-variation-settings:normal;opacity:1;vector-effect:none;fill:#000000;fill-opacity:1;stroke:none;stroke-width:0.260698;stroke-linecap:butt;stroke-linejoin:miter;stroke-miterlimit:4;stroke-dasharray:none;stroke-dashoffset:0;stroke-opacity:1;-inkscape-stroke:none;stop-color:#000000;stop-opacity:1"
       id="rect1"
       width="50"
       height="50"
       x="0"
       y="0"
       rx="7.1983109"
       ry="7.1983109" /><rect
       style="font-variation-settings:normal;vector-effect:none;fill:#5865f2;fill-opacity:1;stroke:none;stroke-width:0.260698;stroke-linecap:butt;stroke-linejoin:miter;stroke-miterlimit:4;stroke-dasharray:none;stroke-dashoffset:0;stroke-opacity:1;-inkscape-stroke:none;stop-color:#000000"
       id="rect1-18"
       width="50"
       height="50"
       x="0"
       y="-4.4408921e-16"
       rx="7.1983109"
       ry="7.1983109" /><path
       fill="#ffffff"
       fill-rule="nonzero"
       d="M 36.025036,14.978662 A 26.318945,26.318945 0 0 0 29.470544,12.96333 18.25,18.25 0 0 0 28.63363,14.669873 24.446973,24.446973 0 0 0 24.996227,14.396436 c -1.215527,0 -2.437011,0.09238 -3.637695,0.271093 -0.245215,-0.578808 -0.52998,-1.152734 -0.839062,-1.704492 a 26.536133,26.536133 0 0 0 -6.555957,2.019629 C 9.8151729,21.119483 8.6909539,27.102979 9.2530629,33.001514 a 26.42793,26.42793 0 0 0 8.0378911,4.034375 c 0.648145,-0.874903 1.228711,-1.806348 1.72168,-2.775684 a 16.973437,16.973437 0 0 1 -2.71211,-1.294238 c 0.227344,-0.164844 0.449707,-0.334668 0.664551,-0.499707 2.512305,1.17998 5.257422,1.79541 8.034863,1.79541 2.777539,0 5.522559,-0.61543 8.035059,-1.795605 0.217383,0.177441 0.439746,0.347363 0.664551,0.499707 a 17.090039,17.090039 0 0 1 -2.71709,1.297754 19.320996,19.320996 0 0 0 1.721777,2.773437 26.319629,26.319629 0 0 0 8.043262,-4.033691 l -6.84e-4,6.83e-4 C 41.406384,26.163623 39.620056,20.235108 36.025036,14.978662 Z M 19.723474,29.373975 c -1.566407,0 -2.860547,-1.421582 -2.860547,-3.17041 0,-1.748829 1.249121,-3.182813 2.855566,-3.182813 1.606445,0 2.890527,1.433984 2.863086,3.182813 -0.02754,1.748828 -1.261621,3.17041 -2.858105,3.17041 z m 10.552929,0 c -1.568945,0 -2.858105,-1.421582 -2.858105,-3.17041 0,-1.748829 1.249121,-3.182813 2.858105,-3.182813 1.608887,0 2.883008,1.433984 2.855567,3.182813 -0.02744,1.748828 -1.25918,3.17041 -2.855567,3.17041 z"
       data-name="Discord Logo - Large - White"
       id="path2"
       style="clip-rule:evenodd;fill-rule:evenodd;stroke-width:0.0976562;image-rendering:optimizeQuality;shape-rendering:geometricPrecision;text-rendering:geometricPrecision" /></g></svg>
