<?xml version="1.0" encoding="UTF-8" standalone="no"?>
<!-- Created with Inkscape (http://www.inkscape.org/) -->

<svg
   width="50.00005mm"
   height="50mm"
   viewBox="0 0 50.00005 50"
   version="1.1"
   id="svg1"
   xml:space="preserve"
   sodipodi:docname="Discord.svg"
   inkscape:export-filename="Discord.png"
   inkscape:export-xdpi="1040.3829"
   inkscape:export-ydpi="1040.3829"
   xmlns:inkscape="http://www.inkscape.org/namespaces/inkscape"
   xmlns:sodipodi="http://sodipodi.sourceforge.net/DTD/sodipodi-0.dtd"
   xmlns:xlink="http://www.w3.org/1999/xlink"
   xmlns="http://www.w3.org/2000/svg"
   xmlns:svg="http://www.w3.org/2000/svg"><sodipodi:namedview
     id="namedview1"
     pagecolor="#ffffff"
     bordercolor="#000000"
     borderopacity="0.25"
     inkscape:showpageshadow="2"
     inkscape:pageopacity="0.0"
     inkscape:pagecheckerboard="0"
     inkscape:deskcolor="#d1d1d1"
     inkscape:document-units="mm"><inkscape:page
       x="0"
       y="0"
       width="50.00005"
       height="50"
       id="page2"
       margin="0"
       bleed="0" /></sodipodi:namedview><defs
     id="defs1"><linearGradient
       id="linearGradient8"
       inkscape:collect="always"><stop
         style="stop-color:#1b2058;stop-opacity:1;"
         offset="0"
         id="stop8" /><stop
         style="stop-color:#5c79f8;stop-opacity:1;"
         offset="1"
         id="stop9" /></linearGradient><linearGradient
       id="linearGradient6"
       inkscape:collect="always"><stop
         style="stop-color:#ffffff;stop-opacity:1;"
         offset="0"
         id="stop6" /><stop
         style="stop-color:#ffffff;stop-opacity:0;"
         offset="1"
         id="stop7" /></linearGradient><linearGradient
       inkscape:collect="always"
       xlink:href="#linearGradient6"
       id="linearGradient7"
       x1="25.000025"
       y1="-12.151158"
       x2="25.000025"
       y2="26.657347"
       gradientUnits="userSpaceOnUse" /><linearGradient
       inkscape:collect="always"
       xlink:href="#linearGradient8"
       id="linearGradient9"
       x1="25"
       y1="0.25422859"
       x2="25"
       y2="50.254227"
       gradientUnits="userSpaceOnUse" /><filter
       inkscape:collect="always"
       style="color-interpolation-filters:sRGB"
       id="filter9"
       x="-0.042189804"
       y="-0.055666088"
       width="1.0843796"
       height="1.1113322"><feGaussianBlur
         inkscape:collect="always"
         stdDeviation="0.55837555"
         id="feGaussianBlur9" /></filter></defs><g
     id="layer1"><rect
       style="font-variation-settings:normal;display:inline;opacity:1;vector-effect:none;fill:#3b49b6;fill-opacity:1;stroke:none;stroke-width:0.260698;stroke-linecap:butt;stroke-linejoin:miter;stroke-miterlimit:4;stroke-dasharray:none;stroke-dashoffset:0;stroke-opacity:1;-inkscape-stroke:none;stop-color:#000000"
       id="rect1-18"
       width="50"
       height="50"
       x="0"
       y="-4.4408921e-16"
       rx="7.1983109"
       ry="7.1983109"
       inkscape:label="Dark" /><rect
       style="font-variation-settings:normal;vector-effect:none;fill:#e0e2f3;fill-opacity:1;stroke:none;stroke-width:0.258966;stroke-linecap:butt;stroke-linejoin:miter;stroke-miterlimit:4;stroke-dasharray:none;stroke-dashoffset:0;stroke-opacity:1;-inkscape-stroke:none;stop-color:#000000"
       id="rect1"
       width="50"
       height="49.337749"
       x="0"
       y="-4.4408921e-16"
       rx="7.1983109"
       ry="7.1029692"
       inkscape:label="Light" /><rect
       style="font-variation-settings:normal;vector-effect:none;fill:url(#linearGradient9);fill-opacity:1;stroke:none;stroke-width:0.255875;stroke-linecap:butt;stroke-linejoin:miter;stroke-miterlimit:4;stroke-dasharray:none;stroke-dashoffset:0;stroke-opacity:1;-inkscape-stroke:none;stop-color:#000000"
       id="rect2"
       width="50"
       height="48.167042"
       x="0"
       y="1.1707066"
       rx="7.1983109"
       ry="6.9344268"
       inkscape:label="Base" /><path
       id="rect5"
       style="font-variation-settings:normal;vector-effect:none;fill:url(#linearGradient7);fill-opacity:1;stroke:none;stroke-width:0.255875;stroke-linecap:butt;stroke-linejoin:miter;stroke-miterlimit:4;stroke-dasharray:none;stroke-dashoffset:0;stroke-opacity:1;-inkscape-stroke:none;stop-color:#000000"
       inkscape:label="Top"
       d="M 7.198527,1.1704712 C 3.2106628,1.1704712 0,4.2632592 0,8.1049316 V 21.937162 c 15.025635,5.242235 31.02507,7.373724 50.000049,0 V 8.1049316 c 0,-3.8416724 -3.210663,-6.9344604 -7.198527,-6.9344604 z"
       sodipodi:nodetypes="ssccsss" /><path
       fill="#ffffff"
       fill-rule="nonzero"
       d="M 36.025036,14.978662 A 26.318945,26.318945 0 0 0 29.470544,12.96333 18.25,18.25 0 0 0 28.63363,14.669873 24.446973,24.446973 0 0 0 24.996227,14.396436 c -1.215527,0 -2.437011,0.09238 -3.637695,0.271093 -0.245215,-0.578808 -0.52998,-1.152734 -0.839062,-1.704492 a 26.536133,26.536133 0 0 0 -6.555957,2.019629 C 9.8151729,21.119483 8.6909539,27.102979 9.2530629,33.001514 a 26.42793,26.42793 0 0 0 8.0378911,4.034375 c 0.648145,-0.874903 1.228711,-1.806348 1.72168,-2.775684 a 16.973437,16.973437 0 0 1 -2.71211,-1.294238 c 0.227344,-0.164844 0.449707,-0.334668 0.664551,-0.499707 2.512305,1.17998 5.257422,1.79541 8.034863,1.79541 2.777539,0 5.522559,-0.61543 8.035059,-1.795605 0.217383,0.177441 0.439746,0.347363 0.664551,0.499707 a 17.090039,17.090039 0 0 1 -2.71709,1.297754 19.320996,19.320996 0 0 0 1.721777,2.773437 26.319629,26.319629 0 0 0 8.043262,-4.033691 l -6.84e-4,6.83e-4 C 41.406384,26.163623 39.620056,20.235108 36.025036,14.978662 Z M 19.723474,29.373975 c -1.566407,0 -2.860547,-1.421582 -2.860547,-3.17041 0,-1.748829 1.249121,-3.182813 2.855566,-3.182813 1.606445,0 2.890527,1.433984 2.863086,3.182813 -0.02754,1.748828 -1.261621,3.17041 -2.858105,3.17041 z m 10.552929,0 c -1.568945,0 -2.858105,-1.421582 -2.858105,-3.17041 0,-1.748829 1.249121,-3.182813 2.858105,-3.182813 1.608887,0 2.883008,1.433984 2.855567,3.182813 -0.02744,1.748828 -1.25918,3.17041 -2.855567,3.17041 z"
       data-name="Discord Logo - Large - White"
       id="path9"
       style="clip-rule:evenodd;mix-blend-mode:normal;fill:#000000;fill-opacity:1;fill-rule:evenodd;stroke-width:0.0976562;filter:url(#filter9);image-rendering:optimizeQuality;shape-rendering:geometricPrecision;text-rendering:geometricPrecision"
       inkscape:label="Shadow"
       transform="matrix(1.0161472,0,0,1.0161472,-0.38044519,-0.38563254)" /><path
       fill="#ffffff"
       fill-rule="nonzero"
       d="M 36.025036,14.978662 A 26.318945,26.318945 0 0 0 29.470544,12.96333 18.25,18.25 0 0 0 28.63363,14.669873 24.446973,24.446973 0 0 0 24.996227,14.396436 c -1.215527,0 -2.437011,0.09238 -3.637695,0.271093 -0.245215,-0.578808 -0.52998,-1.152734 -0.839062,-1.704492 a 26.536133,26.536133 0 0 0 -6.555957,2.019629 C 9.8151729,21.119483 8.6909539,27.102979 9.2530629,33.001514 a 26.42793,26.42793 0 0 0 8.0378911,4.034375 c 0.648145,-0.874903 1.228711,-1.806348 1.72168,-2.775684 a 16.973437,16.973437 0 0 1 -2.71211,-1.294238 c 0.227344,-0.164844 0.449707,-0.334668 0.664551,-0.499707 2.512305,1.17998 5.257422,1.79541 8.034863,1.79541 2.777539,0 5.522559,-0.61543 8.035059,-1.795605 0.217383,0.177441 0.439746,0.347363 0.664551,0.499707 a 17.090039,17.090039 0 0 1 -2.71709,1.297754 19.320996,19.320996 0 0 0 1.721777,2.773437 26.319629,26.319629 0 0 0 8.043262,-4.033691 l -6.84e-4,6.83e-4 C 41.406384,26.163623 39.620056,20.235108 36.025036,14.978662 Z M 19.723474,29.373975 c -1.566407,0 -2.860547,-1.421582 -2.860547,-3.17041 0,-1.748829 1.249121,-3.182813 2.855566,-3.182813 1.606445,0 2.890527,1.433984 2.863086,3.182813 -0.02754,1.748828 -1.261621,3.17041 -2.858105,3.17041 z m 10.552929,0 c -1.568945,0 -2.858105,-1.421582 -2.858105,-3.17041 0,-1.748829 1.249121,-3.182813 2.858105,-3.182813 1.608887,0 2.883008,1.433984 2.855567,3.182813 -0.02744,1.748828 -1.25918,3.17041 -2.855567,3.17041 z"
       data-name="Discord Logo - Large - White"
       id="path2"
       style="clip-rule:evenodd;fill-rule:evenodd;stroke-width:0.0976562;image-rendering:optimizeQuality;shape-rendering:geometricPrecision;text-rendering:geometricPrecision"
       inkscape:label="Icon" /></g></svg>
