<?xml version="1.0" encoding="UTF-8" standalone="no"?>
<svg
   viewBox="0 0 998.18456 1325.4355"
   version="1.1"
   id="svg25"
   width="998.18457"
   height="1325.4355"
   xmlns="http://www.w3.org/2000/svg"
   xmlns:svg="http://www.w3.org/2000/svg">
  <defs
     id="defs25" />
  <g
     fill="none"
     stroke-width="2"
     id="g11"
     transform="matrix(9.999551,0,0,9.999551,-500.08266,-343.0976)">
    <path
       stroke="#808080"
       d="m 141.82,110.57 q 5.29,-0.06 6.83,-5.31 c 1.28,-4.36 -4.25,-7.8 -7.68,-8.62 q -0.52,-0.12 -0.51,-0.65 c 0.19,-12.27 0.27,-22.07 -1.84,-33.27 q -0.09,-0.48 0.3,-0.77 c 5.73,-4.09 6.38,-10.76 2.28,-16.26 q -4.96,-6.65 -14.29,-3.75 -0.45,0.14 -0.85,-0.12 c -14.35,-9.44 -40.05,-8.31 -54.1,1.44 q -0.42,0.29 -0.9,0.13 C 58.12,39.33 47.03,55.04 59.17,63.36 q 0.4,0.28 0.33,0.75 C 57.91,74.75 59,85.62 60,96.3 q 0.04,0.51 -0.46,0.61 -6.13,1.25 -8.44,7.05 -0.2,0.5 0.01,1 c 1.55,3.65 3.52,6.85 8.14,6.04 q 0.73,-0.13 0.61,0.6 c -2.18,12.84 -2.23,28.4 5.85,39.01 q 0.32,0.43 -0.04,0.82 c -1.16,1.27 -2.66,2.35 -3.24,3.92 -1.66,4.45 0.9,8.72 5.1,10.34 2.93,1.13 8.33,-3.77 10.4,-5.61 a 0.75,0.75 0 0 1 0.77,-0.15 q 21.86,7.67 43.39,-0.78 0.48,-0.18 0.78,0.23 c 7.83,10.87 19.92,1.57 11.12,-8.55 q -0.3,-0.35 -0.05,-0.74 c 7.69,-11.92 8.26,-25.24 7.45,-39.06 q -0.03,-0.45 0.43,-0.46"
       vector-effect="non-scaling-stroke"
       id="path1" />
    <path
       stroke="#366c73"
       d="M 133.26,56.99 C 127.86,41.44 110.83,38.33 96.64,39.43 58.93,42.35 60.88,68.18 63.77,97.25 c 1.08,10.91 -2.61,26.62 -0.35,39.55 3.96,22.63 31.76,25.51 49.33,21.48 25.35,-5.81 26.24,-28.06 24.84,-49.21 Q 136.75,96.3 136.69,83.53 C 136.63,73.47 136.11,65.2 133.26,56.99"
       vector-effect="non-scaling-stroke"
       id="path2" />
    <path
       stroke="#366c73"
       d="m 137.36,46.72 q -4.25,-3.44 -9.38,-1.16 -0.5,0.22 -0.34,0.75 c 1.24,4 8.78,2.42 5.72,7.57 q -0.29,0.49 -0.1,1.03 l 1.56,4.58 a 0.45,0.45 0 0 0 0.64,0.25 q 7.91,-4.44 2.68,-12.17 a 4.13,4.13 0 0 0 -0.78,-0.85 m -75.12,7.66 c 0.03,-3.25 2.16,-3.29 4.62,-2.91 q 0.58,0.08 0.95,-0.37 l 2.62,-3.19 A 0.56,0.55 30.4 0 0 70.2,47.04 C 60.76,43.46 52.41,54.9 62.02,60.93 q 0.54,0.34 0.95,-0.15 2.64,-3.15 -0.32,-5.53 -0.42,-0.34 -0.41,-0.87"
       vector-effect="non-scaling-stroke"
       id="path3" />
    <path
       stroke="#7a6c57"
       d="m 142.84,103.91 1.02,0.53 q 0.56,0.29 0.81,-0.29 c 0.96,-2.14 -4.39,-4.17 -5.85,-4.31 q -0.46,-0.04 -0.58,0.4 c -1.71,6.32 5.26,8.1 5.46,5.68 q 0.04,-0.57 -0.5,-0.78 -0.57,-0.23 -0.8,-0.83 -0.3,-0.79 0.44,-0.4 m -85.68,0.81 q -0.98,1.07 -0.7,2.33 0.17,0.76 0.92,0.56 2.83,-0.74 5.17,-2.5 Q 63,104.77 63,104.2 v -3.24 q 0,-0.63 -0.62,-0.66 -4.83,-0.23 -7.22,3.77 a 0.66,0.65 -88.1 0 0 0.86,0.92 l 0.97,-0.49 q 0.7,-0.36 0.17,0.22 m 73.56,51.61 q 1.17,0.98 1.42,2.47 0.08,0.5 0.56,0.37 c 3.5,-0.94 -1.89,-6.45 -3.55,-7.59 q -0.42,-0.28 -0.82,0.02 l -4.05,3.03 q -0.45,0.34 -0.1,0.78 c 1.41,1.78 4.42,5.86 7.02,5.29 a 0.84,0.83 70.4 0 0 0.56,-1.19 l -1.44,-2.86 q -0.57,-1.14 0.4,-0.32 m -61.92,0.95 q -0.58,1.32 -1.46,2.49 -0.31,0.41 -0.12,0.88 0.51,1.3 2,1.1 0.5,-0.07 0.91,-0.37 l 6.79,-4.89 q 0.36,-0.26 -0.01,-0.49 l -5.7,-3.61 q -0.38,-0.24 -0.76,0.01 -3.07,2.02 -5.12,5.08 -0.87,1.31 0.45,2.16 0.17,0.11 0.37,0.13 0.47,0.04 0.66,-0.38 0.58,-1.28 1.38,-2.46 2.24,-3.3 0.61,0.35"
       vector-effect="non-scaling-stroke"
       id="path4" />
    <path
       stroke="#366c73"
       d="m 124.654,53.91 a 12.1,11.06 -11.1 0 0 -14.003,-8.523 12.1,11.06 -11.1 0 0 -9.745,13.182 12.1,11.06 -11.1 0 0 14.003,8.524 12.1,11.06 -11.1 0 0 9.745,-13.183 M 95.657,55.639 A 12,11.1 -8.2 0 0 82.197,46.363 12,11.1 -8.2 0 0 71.903,59.062 12,11.1 -8.2 0 0 85.363,68.337 12,11.1 -8.2 0 0 95.657,55.638 M 93.22,76.73 q -0.05,3 1.6,5.5 0.29,0.43 0.8,0.5 1.72,0.25 2.94,-0.9 0.41,-0.39 0.84,-0.02 2.27,1.93 4.58,0.13 0.47,-0.36 0.47,-0.95 v -4.22 q 0,-0.52 0.52,-0.52 H 106 q 0.43,0 0.82,-0.19 c 5.2,-2.65 1.2,-6.23 -1.55,-8.22 q -0.4,-0.3 -0.56,-0.77 c -1.69,-4.94 -8.38,-3.96 -10.55,0.04 q -0.23,0.43 -0.68,0.64 c -3.44,1.58 -4.8,6.26 -0.78,8.15 q 0.52,0.25 0.52,0.83"
       vector-effect="non-scaling-stroke"
       id="path5" />
    <path
       stroke="#808080"
       d="m 123.898,54.418 a 11.27,10.3 -9.1 0 0 -12.757,-8.388 11.27,10.3 -9.1 0 0 -9.5,11.952 11.27,10.3 -9.1 0 0 12.759,8.388 11.27,10.3 -9.1 0 0 9.5,-11.952"
       vector-effect="non-scaling-stroke"
       id="path6" />
    <path
       stroke="#808080"
       d="m 107.457,60.674 a 3.69,3.41 83.2 0 0 2.949,-4.068 3.69,3.41 83.2 0 0 -3.823,-3.26 3.69,3.41 83.2 0 0 -2.949,4.068 3.69,3.41 83.2 0 0 3.823,3.26 M 94.954,55.94 a 11.24,10.29 -7.1 0 0 -12.426,-8.821 11.24,10.29 -7.1 0 0 -9.882,11.6 11.24,10.29 -7.1 0 0 12.426,8.822 11.24,10.29 -7.1 0 0 9.882,-11.6"
       vector-effect="non-scaling-stroke"
       id="path7" />
    <path
       stroke="#808080"
       d="m 81.69,57.91 a 3.53,3.53 0 0 0 -3.53,-3.53 3.53,3.53 0 0 0 -3.53,3.53 3.53,3.53 0 0 0 3.53,3.53 3.53,3.53 0 0 0 3.53,-3.53 m 26.835,0.89 a 0.91,0.74 81.5 0 0 0.597,-1.01 0.91,0.74 81.5 0 0 -0.867,-0.79 0.91,0.74 81.5 0 0 -0.597,1.01 0.91,0.74 81.5 0 0 0.867,0.79"
       vector-effect="non-scaling-stroke"
       id="path8" />
    <path
       stroke="#808080"
       d="m 79.016,59.47 a 0.91,0.82 131.6 0 0 1.217,-0.136 0.91,0.82 131.6 0 0 -0.009,-1.225 0.91,0.82 131.6 0 0 -1.217,0.137 0.91,0.82 131.6 0 0 0.009,1.224"
       vector-effect="non-scaling-stroke"
       id="path9" />
    <path
       stroke="#7a6c57"
       d="m 96.36,69.56 c -4.12,-3.21 -7.95,3.67 -3.12,5.87 q 0.45,0.2 0.88,-0.02 4.59,-2.37 9.15,-0.59 c 2.82,1.09 5.22,0.89 5.27,-2.72 q 0,-0.56 -0.42,-0.93 l -3.1,-2.7 q -0.49,-0.43 -1.02,-0.05 -3.07,2.15 -6.86,1.49 -0.43,-0.08 -0.78,-0.35"
       vector-effect="non-scaling-stroke"
       id="path10" />
    <path
       stroke="#808080"
       d="m 97.77,74.95 -3.27,1.09 q -0.51,0.17 -0.52,0.71 -0.02,2.53 1.3,4.72 0.31,0.51 0.91,0.5 c 2.91,-0.07 2.58,-4.49 2.42,-6.46 Q 98.54,74.7 97.77,74.95 m 5.04,6.8 c 1.9,-1.99 1.63,-7.2 -2.49,-6.94 q -0.41,0.03 -0.5,0.42 -0.71,3 0.19,5.87 a 1.67,1.67 0 0 0 2.8,0.65"
       vector-effect="non-scaling-stroke"
       id="path11" />
  </g>
  <path
     d="m 913.75434,767.1524 c 8.099,138.194 2.4,271.388 -74.497,390.582 q -2.5,3.9 0.496,7.4 c 87.996,101.196 -32.898,194.191 -111.194,85.496 q -3,-4.1 -7.8,-2.3 -215.29,84.496 -433.881,7.8 a 7.4996632,7.4996632 0 0 0 -7.7,1.5 c -20.699,18.399 -74.696,67.397 -103.995,56.097 -41.997,-16.199 -67.597,-58.897 -50.998,-103.395 5.8,-15.699 20.799,-26.499 32.399,-39.198 q 3.6,-3.9 0.397,-8.2 C 76.185334,1056.8394 76.684334,901.2464 98.484334,772.8514 q 1.2,-7.299 -6.1,-5.999 c -46.198,8.1 -65.897,-23.899 -81.397,-60.398 q -2.0999994,-4.999 -0.1,-9.999 23.099,-57.997 84.396,-70.497 5.000006,-1 4.601,-6.1 c -10.001,-106.795 -20.9,-215.49 -5,-321.885 q 0.7,-4.7 -3.3,-7.5 c -121.395,-83.196 -10.5,-240.288993 118.894006,-199.690993 q 4.8,1.6 9,-1.3 c 140.493,-97.4950007 397.482,-108.795 540.975,-14.399 q 4,2.6 8.5,1.2 93.296,-28.999 142.894,37.497993 c 40.998,54.998 34.498,121.695 -22.8,162.592 q -3.899,2.901 -2.999,7.7 c 21.098,111.995 20.299,209.991 18.399,332.686 q -0.1,5.299 5.1,6.499 c 34.298,8.2 89.596,42.598 76.796,86.196 q -15.399,52.498 -68.297,53.098 -4.599,0.1 -4.3,4.6 z m -81.297,-540.376 c -53.998,-155.492993 -224.29,-186.591993 -366.184,-175.591993 -377.083006,29.198 -357.583,287.486993 -328.684,578.173993 10.799,109.095 -26.099,266.188 -3.501,395.482 39.599,226.29 317.587,255.089 493.279,214.79 253.488,-58.097 262.388,-280.587 248.388,-492.077 q -8.399,-127.695 -9,-255.389 c -0.602,-100.595 -5.799,-183.292 -34.298,-265.388 z m 40.999,-102.696 q -42.499,-34.397993 -93.796,-11.599 -5,2.2 -3.4,7.5 c 12.399,39.998 87.796,24.198 57.197,75.696 q -2.9,4.9 -1,10.3 l 15.6,45.798 a 4.4997983,4.4997983 0 0 0 6.399,2.5 q 79.097,-44.398 26.799,-121.695 a 41.298146,41.298146 0 0 0 -7.799,-8.5 z m -751.167,76.597 c 0.298,-32.498 21.599,-32.898 46.198,-29.099 q 5.8,0.8 9.499,-3.699 l 26.199,-31.899 a 5.599749,5.4997534 30.4 0 0 -2.299,-8.7 c -94.396,-35.797993 -177.893006,78.597 -81.797,138.894 q 5.4,3.4 9.5,-1.5 26.398,-31.498 -3.2,-55.297 -4.2,-3.4 -4.1,-8.7 z m 805.964,495.278 10.2,5.3 q 5.599,2.899 8.099,-2.9 c 9.6,-21.399 -43.898,-41.698 -58.497,-43.098 q -4.6,-0.4 -5.801,4 c -17.098,63.197 52.599,80.996 54.599,56.797 q 0.397,-5.699 -5,-7.8 -5.7,-2.3 -8,-8.3 -3,-7.899 4.4,-3.999 z m -856.762006,8.1 q -9.799,10.699 -6.999,23.298 1.7,7.6 9.199,5.6 28.299006,-7.399 51.698006,-24.999 4.499,-3.4 4.499,-9.099 v -32.398 q 0,-6.301 -6.199,-6.6 -48.298006,-2.3 -72.196006,37.698 a 6.4997084,6.5997042 1.9 0 0 8.599,9.199 l 9.7,-4.899 q 6.999,-3.6 1.699,2.2 z m 735.568006,516.076 q 11.699,9.8 14.198,24.699 0.801,5 5.6,3.7 c 34.999,-9.399 -18.899,-64.497 -35.497,-75.897 q -4.2,-2.8 -8.2,0.2 l -40.499,30.299 q -4.5,3.4 -0.999,7.8 c 14.099,17.799 44.198,58.597 70.196,52.897 a 8.3996228,8.2996276 70.4 0 0 5.6,-11.899 l -14.399,-28.599 q -5.7,-11.399 4,-3.2 z m -619.173,9.5 q -5.8,13.199 -14.599,24.899 -3.1,4.1 -1.2,8.8 5.1,12.999 19.998,10.999 5,-0.7 9.101,-3.7 l 67.896,-48.898 q 3.6,-2.6 -0.1,-4.899 l -56.997,-36.099 q -3.8,-2.4 -7.6,0.1 -30.699,20.199 -51.198,50.798 -8.699,13.099 4.5,21.599 1.7,1.1 3.7,1.3 4.7,0.4 6.599,-3.8 5.8,-12.799 13.8,-24.599 22.399,-32.998 6.1,3.5 z"
     id="path13"
     style="stroke-width:9.99952" />
  <path
     fill="#6bd7e5"
     d="m 466.27334,51.184407 c 141.894,-11 312.186,20.099 366.184,175.591993 28.499,82.096 33.699,164.793 34.298,265.388 q 0.603,127.694 9,255.389 c 14,211.49 5.1,433.98 -248.388,492.077 -175.692,40.299 -453.68,11.5 -493.279,-214.79 -22.598,-129.294 14.3,-286.387 3.501,-395.482 -28.899,-290.687 -48.399006,-548.975993 328.684,-578.173993 z m 280.128,144.792993 a 110.59503,120.99457 78.9 0 0 -140.023,-85.226 110.59503,120.99457 78.9 0 0 -97.446,131.814 110.59503,120.99457 78.9 0 0 140.024,85.237 110.59503,120.99457 78.9 0 0 97.445,-131.825 z m -289.957,17.3 a 110.99502,119.99462 81.8 0 0 -134.594,-92.756 110.99502,119.99462 81.8 0 0 -102.935,126.984 110.99502,119.99462 81.8 0 0 134.594,92.746 110.99502,119.99462 81.8 0 0 102.935,-126.984 z m -24.369,210.89 q -0.496,29.999 16,54.998 2.899,4.299 7.999,5 17.199,2.499 29.399,-9 4.1,-3.9 8.399,-0.2 22.699,19.299 45.798,1.3 4.7,-3.6 4.7,-9.5 v -42.198 q 0,-5.199 5.2,-5.199 h 10.299 q 4.3,0 8.2,-1.901 c 51.998,-26.498 12,-62.296 -15.499,-82.196 q -4,-3 -5.6,-7.699 c -16.899,-49.399 -83.796,-39.598 -105.495,0.4 q -2.301,4.299 -6.8,6.399 c -34.399,15.8 -47.998,62.597 -7.799,81.497 q 5.199,2.5 5.199,8.299 z"
     id="path14"
     style="stroke-width:9.99952" />
  <path
     fill="#6bd7e5"
     d="m 873.45634,124.0804 a 41.298146,41.298146 0 0 1 7.799,8.5 q 52.298,77.297 -26.799,121.695 a 4.4997983,4.4997983 0 0 1 -6.399,-2.5 l -15.6,-45.798 q -1.9,-5.4 1,-10.3 c 30.599,-51.498 -44.798,-35.698 -57.197,-75.696 q -1.6,-5.3 3.4,-7.5 51.297,-22.798993 93.796,11.599 z"
     id="path15"
     style="stroke-width:9.99952" />
  <path
     d="m 746.40134,195.9774 a 110.59503,120.99457 78.9 0 1 -97.445,131.825 110.59503,120.99457 78.9 0 1 -140.024,-85.237 110.59503,120.99457 78.9 0 1 97.446,-131.814 110.59503,120.99457 78.9 0 1 140.023,85.226 z m -7.56,5.08 a 102.99538,112.69495 80.9 0 0 -127.564,-83.876 102.99538,112.69495 80.9 0 0 -94.996,119.515 102.99538,112.69495 80.9 0 0 127.585,83.876 102.99538,112.69495 80.9 0 0 94.996,-119.515 z"
     id="path16"
     style="stroke-width:9.99952" />
  <path
     fill="#ffffff"
     d="m 738.84134,201.0574 a 102.99538,112.69495 80.9 0 1 -94.975,119.515 102.99538,112.69495 80.9 0 1 -127.564,-83.876 102.99538,112.69495 80.9 0 1 94.985,-119.515 102.99538,112.69495 80.9 0 1 127.564,83.876 z m -164.402,62.558 a 36.898346,34.098469 83.2 0 0 29.488,-40.679 36.898346,34.098469 83.2 0 0 -38.228,-32.598 36.898346,34.098469 83.2 0 0 -29.488,40.678 36.898346,34.098469 83.2 0 0 38.228,32.599 z"
     id="path17"
     style="stroke-width:9.99952" />
  <path
     fill="#6bd7e5"
     d="m 168.48734,171.5784 c -24.599,-3.799 -45.898,-3.399 -46.198,29.099 q -0.1,5.3 4.1,8.7 29.598,23.799 3.2,55.297 -4.1,4.9 -9.5,1.5 c -96.096006,-60.297 -12.599,-174.691993 81.797,-138.894 a 5.599749,5.4997534 30.4 0 1 2.299,8.7 l -26.199,31.899 q -3.699,4.499 -9.499,3.699 z"
     id="path18"
     style="stroke-width:9.99952" />
  <path
     d="m 456.44434,213.2674 a 110.99502,119.99462 81.8 0 1 -102.935,126.964 110.99502,119.99462 81.8 0 1 -134.594,-92.736 110.99502,119.99462 81.8 0 1 102.935,-126.974 110.99502,119.99462 81.8 0 1 134.594,92.746 z m -7.03,3.02 a 102.89539,112.39496 82.9 0 0 -124.254,-88.217 102.89539,112.39496 82.9 0 0 -98.815,115.995 102.89539,112.39496 82.9 0 0 124.254,88.216 102.89539,112.39496 82.9 0 0 98.815,-115.994 z"
     id="path19"
     style="stroke-width:9.99952" />
  <path
     fill="#ffffff"
     d="m 449.41434,216.2764 a 102.89539,112.39496 82.9 0 1 -98.815,116.005 102.89539,112.39496 82.9 0 1 -124.254,-88.216 102.89539,112.39496 82.9 0 1 98.815,-115.995 102.89539,112.39496 82.9 0 1 124.254,88.217 z m -132.634,19.699 a 35.298416,35.298416 0 0 0 -35.298,-35.298 35.298416,35.298416 0 0 0 -35.298,35.298 35.298416,35.298416 0 0 0 35.298,35.299 35.298416,35.298416 0 0 0 35.298,-35.299 z"
     id="path20"
     style="stroke-width:9.99952" />
  <path
     d="m 574.43934,263.6154 a 36.898346,34.098469 83.2 0 1 -38.228,-32.599 36.898346,34.098469 83.2 0 1 29.498,-40.678 36.898346,34.098469 83.2 0 1 38.218,32.598 36.898346,34.098469 83.2 0 1 -29.498,40.679 z m 10.68,-18.74 a 9.099592,7.3996686 81.5 0 0 5.969,-10.099 9.099592,7.3996686 81.5 0 0 -8.669,-7.9 9.099592,7.3996686 81.5 0 0 -5.97,10.099 9.099592,7.3996686 81.5 0 0 8.67,7.9 z m -268.339,-8.9 a 35.298416,35.298416 0 0 1 -35.298,35.299 35.298416,35.298416 0 0 1 -35.298,-35.299 35.298416,35.298416 0 0 1 35.298,-35.298 35.298416,35.298416 0 0 1 35.298,35.298 z m -26.739,15.6 a 8.1996318,9.099592 41.6 0 0 12.17,-1.36 8.1996318,9.099592 41.6 0 0 -0.09,-12.25 8.1996318,9.099592 41.6 0 0 -12.17,1.37 8.1996318,9.099592 41.6 0 0 0.09,12.24 z"
     id="path21"
     style="stroke-width:9.99952" />
  <path
     d="m 426.87634,415.8674 c -40.199,-18.899 -26.6,-65.696 7.799,-81.496 q 4.499,-2.1 6.8,-6.399 c 21.699,-39.998 88.596,-49.799 105.495,-0.4 q 1.6,4.699 5.6,7.699 c 27.499,19.9 67.497,55.698 15.499,82.196 q -3.9,1.901 -8.2,1.901 h -10.299 q -5.2,0 -5.2,5.199 v 42.198 q 0,5.9 -4.7,9.5 -23.099,17.999 -45.798,-1.3 -4.299,-3.7 -8.399,0.2 -12.2,11.499 -29.399,9 -5.1,-0.701 -7.999,-5 -16.5,-24.999 -16,-54.998 0,-5.799 -5.199,-8.3 z m 36.597,-63.397 c -41.198,-32.098 -79.496,36.699 -31.198,58.698 q 4.5,2 8.8,-0.2 45.898,-23.699 91.496,-5.9 c 28.199,10.9 52.197,8.9 52.697,-27.199 q 0,-5.599 -4.2,-9.3 l -30.998,-26.998 q -4.9,-4.3 -10.2,-0.5 -30.699,21.499 -68.597,14.899 -4.299,-0.799 -7.8,-3.5 z m 14.1,53.898 -32.698,10.899 q -5.1,1.701 -5.2,7.1 -0.198,25.299 12.999,47.198 3.1,5.1 9.1,5 c 29.099,-0.7 25.799,-44.898 24.199,-64.597 q -0.7,-8.1 -8.4,-5.6 z m 50.398,67.997 c 18.999,-19.899 16.3,-71.997 -24.899,-69.397 q -4.099,0.3 -5,4.2 -7.099,29.998 1.901,58.697 a 16.699251,16.699251 0 0 0 27.998,6.5 z"
     id="path22"
     style="stroke-width:9.99952" />
  <path
     fill="#f3d8ae"
     d="m 471.27334,355.9704 q 37.898,6.6 68.597,-14.899 5.3,-3.8 10.2,0.5 l 30.998,26.998 q 4.2,3.701 4.2,9.3 c -0.496,36.099 -24.498,38.099 -52.697,27.199 q -45.598,-17.799 -91.496,5.9 -4.3,2.2 -8.8,0.2 c -48.298,-21.999 -10,-90.796 31.198,-58.698 q 3.501,2.701 7.8,3.5 z"
     id="path23"
     style="stroke-width:9.99952" />
  <path
     fill="#ffffff"
     d="m 485.97334,411.9684 c 1.6,19.699 4.9,63.897 -24.199,64.597 q -6,0.1 -9.1,-5 -13.199,-21.899 -12.999,-47.198 0.1,-5.399 5.2,-7.1 l 32.698,-10.899 q 7.7,-2.5 8.4,5.6 z m 17.099,-7 c 41.199,-2.6 43.898,49.498 24.899,69.397 a 16.699251,16.699251 0 0 1 -27.998,-6.5 q -9,-28.699 -1.901,-58.697 0.901,-3.9 5,-4.2 z"
     id="path24"
     style="stroke-width:9.99952" />
  <path
     fill="#f3d8ae"
     d="m 923.85334,699.9544 q 2.3,6 8,8.3 5.399,2.101 5,7.8 c -2,24.199 -71.697,6.4 -54.599,-56.797 q 1.201,-4.4 5.801,-4 c 14.599,1.4 68.097,21.699 58.497,43.098 q -2.5,5.799 -8.099,2.9 l -10.2,-5.3 q -7.4,-3.9 -4.4,3.999 z m -854.061006,1.901 -9.7,4.899 a 6.4997084,6.5997042 1.9 0 1 -8.599,-9.199 q 23.898,-39.998 72.196006,-37.698 6.199,0.299 6.199,6.6 v 32.398 q 0,5.699 -4.499,9.099 -23.399,17.6 -51.698006,24.999 -7.499,2 -9.199,-5.6 -2.8,-12.599 6.999,-23.298 5.3,-5.8 -1.699,-2.2 z m 733.267006,521.476 14.399,28.599 a 8.3996228,8.2996276 70.4 0 1 -5.6,11.899 c -25.998,5.7 -56.097,-35.098 -70.196,-52.897 q -3.501,-4.4 0.999,-7.8 l 40.499,-30.299 q 4,-3 8.2,-0.2 c 16.598,11.4 70.496,66.498 35.497,75.897 q -4.799,1.3 -5.6,-3.7 -2.499,-14.899 -14.198,-24.699 -9.7,-8.199 -4,3.2 z m -621.273,2.8 q -7.999,11.8 -13.799,24.599 -1.9,4.2 -6.6,3.8 -2,-0.2 -3.699,-1.3 -13.2,-8.5 -4.501,-21.599 20.5,-30.599 51.198,-50.798 3.8,-2.5 7.6,-0.1 l 56.997,36.099 q 3.7,2.299 0.1,4.899 l -67.897,48.898 q -4.1,3 -9.1,3.7 -14.899,2 -19.999,-10.999 -1.9,-4.7 1.2,-8.8 8.799,-11.7 14.599,-24.899 16.299,-36.498 -6.099,-3.5 z"
     id="path25"
     style="stroke-width:9.99952" />
</svg>
