<?xml version="1.0" encoding="UTF-8" standalone="no"?>
<svg
   viewBox="0 0 30160.988 40249.414"
   version="1.1"
   id="svg25"
   width="30160.988"
   height="40249.414"
   sodipodi:docname="Go.svg"
   inkscape:export-filename="Go.svg"
   inkscape:export-xdpi="96"
   inkscape:export-ydpi="96"
   inkscape:version="1.4 (86a8ad7, 2024-10-11)"
   xmlns:inkscape="http://www.inkscape.org/namespaces/inkscape"
   xmlns:sodipodi="http://sodipodi.sourceforge.net/DTD/sodipodi-0.dtd"
   xmlns="http://www.w3.org/2000/svg"
   xmlns:svg="http://www.w3.org/2000/svg">
  <sodipodi:namedview
     id="namedview1"
     pagecolor="#ffffff"
     bordercolor="#000000"
     borderopacity="0.25"
     inkscape:showpageshadow="2"
     inkscape:pageopacity="0.0"
     inkscape:pagecheckerboard="0"
     inkscape:deskcolor="#d1d1d1"
     inkscape:zoom="0.020502003"
     inkscape:cx="8243.097"
     inkscape:cy="22119.79"
     inkscape:window-width="2560"
     inkscape:window-height="1369"
     inkscape:window-x="-8"
     inkscape:window-y="-8"
     inkscape:window-maximized="1"
     inkscape:current-layer="svg25">
    <inkscape:page
       x="0"
       y="0"
       width="30160.988"
       height="40249.414"
       id="page2"
       margin="0"
       bleed="0" />
  </sodipodi:namedview>
  <defs
     id="defs25" />
  <g
     fill="none"
     stroke-width="2"
     id="g11"
     transform="matrix(301.4047,0,0,301.4047,-15118.034,-10214.011)">
    <path
       stroke="#808080"
       d="m 141.82,110.57 q 5.29,-0.06 6.83,-5.31 c 1.28,-4.36 -4.25,-7.8 -7.68,-8.62 q -0.52,-0.12 -0.51,-0.65 c 0.19,-12.27 0.27,-22.07 -1.84,-33.27 q -0.09,-0.48 0.3,-0.77 c 5.73,-4.09 6.38,-10.76 2.28,-16.26 q -4.96,-6.65 -14.29,-3.75 -0.45,0.14 -0.85,-0.12 c -14.35,-9.44 -40.05,-8.31 -54.1,1.44 q -0.42,0.29 -0.9,0.13 C 58.12,39.33 47.03,55.04 59.17,63.36 q 0.4,0.28 0.33,0.75 C 57.91,74.75 59,85.62 60,96.3 q 0.04,0.51 -0.46,0.61 -6.13,1.25 -8.44,7.05 -0.2,0.5 0.01,1 c 1.55,3.65 3.52,6.85 8.14,6.04 q 0.73,-0.13 0.61,0.6 c -2.18,12.84 -2.23,28.4 5.85,39.01 q 0.32,0.43 -0.04,0.82 c -1.16,1.27 -2.66,2.35 -3.24,3.92 -1.66,4.45 0.9,8.72 5.1,10.34 2.93,1.13 8.33,-3.77 10.4,-5.61 a 0.75,0.75 0 0 1 0.77,-0.15 q 21.86,7.67 43.39,-0.78 0.48,-0.18 0.78,0.23 c 7.83,10.87 19.92,1.57 11.12,-8.55 q -0.3,-0.35 -0.05,-0.74 c 7.69,-11.92 8.26,-25.24 7.45,-39.06 q -0.03,-0.45 0.43,-0.46"
       vector-effect="non-scaling-stroke"
       id="path1" />
    <path
       stroke="#366c73"
       d="M 133.26,56.99 C 127.86,41.44 110.83,38.33 96.64,39.43 58.93,42.35 60.88,68.18 63.77,97.25 c 1.08,10.91 -2.61,26.62 -0.35,39.55 3.96,22.63 31.76,25.51 49.33,21.48 25.35,-5.81 26.24,-28.06 24.84,-49.21 Q 136.75,96.3 136.69,83.53 C 136.63,73.47 136.11,65.2 133.26,56.99"
       vector-effect="non-scaling-stroke"
       id="path2" />
    <path
       stroke="#366c73"
       d="m 137.36,46.72 q -4.25,-3.44 -9.38,-1.16 -0.5,0.22 -0.34,0.75 c 1.24,4 8.78,2.42 5.72,7.57 q -0.29,0.49 -0.1,1.03 l 1.56,4.58 a 0.45,0.45 0 0 0 0.64,0.25 q 7.91,-4.44 2.68,-12.17 a 4.13,4.13 0 0 0 -0.78,-0.85 m -75.12,7.66 c 0.03,-3.25 2.16,-3.29 4.62,-2.91 q 0.58,0.08 0.95,-0.37 l 2.62,-3.19 A 0.56,0.55 30.4 0 0 70.2,47.04 C 60.76,43.46 52.41,54.9 62.02,60.93 q 0.54,0.34 0.95,-0.15 2.64,-3.15 -0.32,-5.53 -0.42,-0.34 -0.41,-0.87"
       vector-effect="non-scaling-stroke"
       id="path3" />
    <path
       stroke="#7a6c57"
       d="m 142.84,103.91 1.02,0.53 q 0.56,0.29 0.81,-0.29 c 0.96,-2.14 -4.39,-4.17 -5.85,-4.31 q -0.46,-0.04 -0.58,0.4 c -1.71,6.32 5.26,8.1 5.46,5.68 q 0.04,-0.57 -0.5,-0.78 -0.57,-0.23 -0.8,-0.83 -0.3,-0.79 0.44,-0.4 m -85.68,0.81 q -0.98,1.07 -0.7,2.33 0.17,0.76 0.92,0.56 2.83,-0.74 5.17,-2.5 Q 63,104.77 63,104.2 v -3.24 q 0,-0.63 -0.62,-0.66 -4.83,-0.23 -7.22,3.77 a 0.66,0.65 -88.1 0 0 0.86,0.92 l 0.97,-0.49 q 0.7,-0.36 0.17,0.22 m 73.56,51.61 q 1.17,0.98 1.42,2.47 0.08,0.5 0.56,0.37 c 3.5,-0.94 -1.89,-6.45 -3.55,-7.59 q -0.42,-0.28 -0.82,0.02 l -4.05,3.03 q -0.45,0.34 -0.1,0.78 c 1.41,1.78 4.42,5.86 7.02,5.29 a 0.84,0.83 70.4 0 0 0.56,-1.19 l -1.44,-2.86 q -0.57,-1.14 0.4,-0.32 m -61.92,0.95 q -0.58,1.32 -1.46,2.49 -0.31,0.41 -0.12,0.88 0.51,1.3 2,1.1 0.5,-0.07 0.91,-0.37 l 6.79,-4.89 q 0.36,-0.26 -0.01,-0.49 l -5.7,-3.61 q -0.38,-0.24 -0.76,0.01 -3.07,2.02 -5.12,5.08 -0.87,1.31 0.45,2.16 0.17,0.11 0.37,0.13 0.47,0.04 0.66,-0.38 0.58,-1.28 1.38,-2.46 2.24,-3.3 0.61,0.35"
       vector-effect="non-scaling-stroke"
       id="path4" />
    <path
       stroke="#366c73"
       d="m 124.654,53.91 a 12.1,11.06 -11.1 0 0 -14.003,-8.523 12.1,11.06 -11.1 0 0 -9.745,13.182 12.1,11.06 -11.1 0 0 14.003,8.524 12.1,11.06 -11.1 0 0 9.745,-13.183 M 95.657,55.639 A 12,11.1 -8.2 0 0 82.197,46.363 12,11.1 -8.2 0 0 71.903,59.062 12,11.1 -8.2 0 0 85.363,68.337 12,11.1 -8.2 0 0 95.657,55.638 M 93.22,76.73 q -0.05,3 1.6,5.5 0.29,0.43 0.8,0.5 1.72,0.25 2.94,-0.9 0.41,-0.39 0.84,-0.02 2.27,1.93 4.58,0.13 0.47,-0.36 0.47,-0.95 v -4.22 q 0,-0.52 0.52,-0.52 H 106 q 0.43,0 0.82,-0.19 c 5.2,-2.65 1.2,-6.23 -1.55,-8.22 q -0.4,-0.3 -0.56,-0.77 c -1.69,-4.94 -8.38,-3.96 -10.55,0.04 q -0.23,0.43 -0.68,0.64 c -3.44,1.58 -4.8,6.26 -0.78,8.15 q 0.52,0.25 0.52,0.83"
       vector-effect="non-scaling-stroke"
       id="path5" />
    <path
       stroke="#808080"
       d="m 123.898,54.418 a 11.27,10.3 -9.1 0 0 -12.757,-8.388 11.27,10.3 -9.1 0 0 -9.5,11.952 11.27,10.3 -9.1 0 0 12.759,8.388 11.27,10.3 -9.1 0 0 9.5,-11.952"
       vector-effect="non-scaling-stroke"
       id="path6" />
    <path
       stroke="#808080"
       d="m 107.457,60.674 a 3.69,3.41 83.2 0 0 2.949,-4.068 3.69,3.41 83.2 0 0 -3.823,-3.26 3.69,3.41 83.2 0 0 -2.949,4.068 3.69,3.41 83.2 0 0 3.823,3.26 M 94.954,55.94 a 11.24,10.29 -7.1 0 0 -12.426,-8.821 11.24,10.29 -7.1 0 0 -9.882,11.6 11.24,10.29 -7.1 0 0 12.426,8.822 11.24,10.29 -7.1 0 0 9.882,-11.6"
       vector-effect="non-scaling-stroke"
       id="path7" />
    <path
       stroke="#808080"
       d="m 81.69,57.91 a 3.53,3.53 0 0 0 -3.53,-3.53 3.53,3.53 0 0 0 -3.53,3.53 3.53,3.53 0 0 0 3.53,3.53 3.53,3.53 0 0 0 3.53,-3.53 m 26.835,0.89 a 0.91,0.74 81.5 0 0 0.597,-1.01 0.91,0.74 81.5 0 0 -0.867,-0.79 0.91,0.74 81.5 0 0 -0.597,1.01 0.91,0.74 81.5 0 0 0.867,0.79"
       vector-effect="non-scaling-stroke"
       id="path8" />
    <path
       stroke="#808080"
       d="m 79.016,59.47 a 0.91,0.82 131.6 0 0 1.217,-0.136 0.91,0.82 131.6 0 0 -0.009,-1.225 0.91,0.82 131.6 0 0 -1.217,0.137 0.91,0.82 131.6 0 0 0.009,1.224"
       vector-effect="non-scaling-stroke"
       id="path9" />
    <path
       stroke="#7a6c57"
       d="m 96.36,69.56 c -4.12,-3.21 -7.95,3.67 -3.12,5.87 q 0.45,0.2 0.88,-0.02 4.59,-2.37 9.15,-0.59 c 2.82,1.09 5.22,0.89 5.27,-2.72 q 0,-0.56 -0.42,-0.93 l -3.1,-2.7 q -0.49,-0.43 -1.02,-0.05 -3.07,2.15 -6.86,1.49 -0.43,-0.08 -0.78,-0.35"
       vector-effect="non-scaling-stroke"
       id="path10" />
    <path
       stroke="#808080"
       d="m 97.77,74.95 -3.27,1.09 q -0.51,0.17 -0.52,0.71 -0.02,2.53 1.3,4.72 0.31,0.51 0.91,0.5 c 2.91,-0.07 2.58,-4.49 2.42,-6.46 Q 98.54,74.7 97.77,74.95 m 5.04,6.8 c 1.9,-1.99 1.63,-7.2 -2.49,-6.94 q -0.41,0.03 -0.5,0.42 -0.71,3 0.19,5.87 a 1.67,1.67 0 0 0 2.8,0.65"
       vector-effect="non-scaling-stroke"
       id="path11" />
  </g>
  <path
     d="m 27497.574,23250.955 c 244.141,4165.412 72.343,8180.124 -2245.465,11772.867 q -75.355,117.547 14.963,223.04 c 2652.366,3050.216 -991.604,5853.278 -3351.609,2577.01 q -90.418,-123.577 -235.103,-69.323 -6489.244,2546.869 -13077.9451,235.096 a 226.05352,226.05352 0 0 0 -232.0902,45.211 c -623.907,554.584 -2251.4908,2031.467 -3134.6014,1690.88 -1265.8919,-488.276 -2037.4974,-1775.273 -1537.1659,-3116.525 174.8108,-473.206 626.9208,-798.722 976.5423,-1181.507 q 108.5136,-117.547 11.9704,-247.151 C 2251.7307,31982.648 2266.7937,27292.791 2923.8604,23422.755 q 36.1712,-220.026 -183.8686,-180.843 c -1392.481,244.14 -1986.24315,-720.357 -2453.43503,-1820.484 q -63.2846,-150.703 -2.9926,-301.405 696.24946,-1748.146 2543.85303,-2124.902 150.71,-30.141 138.6596,-183.858 c -301.42,-3219.002 -629.9333,-6495.271 -150.71,-9702.2172 q 21.1082,-141.66 -99.4558,-226.054 C -943.14383,6375.3038 2399.428,1640.2364 6299.6098,2863.9397 q 144.6648,48.2249 271.254,-39.1827 C 10805.605,-113.9388 18551.703,-454.5259 22876.861,2390.7337 q 120.564,78.3654 256.191,36.169 2812.115,-874.0739 4307.084,1130.2671 c 1235.765,1657.7265 1039.846,3668.0966 -687.213,4900.841 q -117.531,87.408 -90.418,232.082 c 635.959,3375.7332 611.858,6329.5002 554.599,10027.7352 q -2.993,159.744 153.702,195.913 c 1033.821,247.151 2700.589,1283.983 2314.796,2598.108 q -464.161,1582.375 -2058.605,1600.46 -138.639,3.013 -129.601,138.646 z M 25047.152,6963.0435 C 23419.569,2276.2005 18286.654,1338.832 14009.717,1670.3768 2643.7476,2550.4782 3231.4845,10335.763 4102.5458,19097.598 c 325.5208,3288.325 -786.6685,8023.393 -105.501,11920.557 1193.5684,6820.788 9572.6322,7688.832 14868.3072,6474.171 7640.598,-1751.159 7908.859,-8457.415 7486.896,-14832.124 q -253.179,-3848.939 -271.274,-7697.877 c -18.156,-3032.131 -174.811,-5524.7482 -1033.822,-7999.2815 z m 1235.766,-3095.4259 q -1280.975,-1036.8332 -2827.177,-349.6294 -150.69,66.3083 -102.469,226.0528 c 373.743,1205.6187 2646.322,729.3991 1724.026,2281.6335 q -87.405,147.6885 -30.146,310.4466 l 470.206,1380.4346 a 135.63212,135.63212 0 0 0 192.886,75.3521 q 2384.125,-1338.2381 807.777,-3668.097 a 1244.8014,1244.8014 0 0 0 -235.103,-256.1932 z M 3641.398,6176.3767 c 8.9778,-979.5649 651.0416,-991.6209 1392.48,-877.0876 q 174.8308,24.113 286.337,-111.5195 l 789.6811,-961.4805 a 168.78664,165.77259 30.4 0 0 -69.3098,-262.2228 C 3195.3133,2885.0378 678.59368,6333.1074 3575.0809,8150.5788 q 162.7603,102.477 286.3369,-45.211 795.7063,-949.4245 -96.4432,-1666.7677 -126.5892,-102.479 -123.5766,-262.2234 z m 24293.223,14928.5763 307.426,159.745 q 168.785,87.408 244.14,-87.408 c 289.35,-645.005 -1323.171,-1256.857 -1763.211,-1299.054 q -138.658,-12.056 -174.829,120.561 c -515.395,1904.878 1585.406,2441.378 1645.678,1711.98 q 11.97,-171.8 -150.71,-235.097 -171.798,-69.322 -241.108,-250.166 -90.438,-238.108 132.614,-120.561 z m -25824.3625,244.138 q -295.3748,322.502 -210.982,702.273 51.2342,229.068 277.2992,168.786 852.9646,-223.038 1558.2529,-753.511 135.627,-102.477 135.627,-274.279 v -976.55 q 0,-189.886 -186.8612,-198.927 -1455.7845,-69.324 -2176.1358,1136.296 a 195.91306,198.92711 1.9 0 0 259.2035,277.292 l 292.3622,-147.69 q 210.9809,-108.504 51.2342,66.31 z M 24281.592,36904.588 q 352.634,295.376 427.989,744.47 24.121,150.701 168.785,111.519 c 1054.93,-283.32 -569.641,-1944.06 -1069.971,-2287.662 q -126.589,-84.393 -247.153,6.025 l -1220.703,913.256 q -135.627,102.478 -30.126,235.096 c 424.976,536.499 1332.209,1766.231 2115.844,1594.431 a 253.17995,250.16591 70.4 0 0 168.805,-358.671 l -434.034,-862.019 q -171.797,-343.601 120.564,-96.45 z m -18662.9897,286.335 q -174.8108,397.854 -440.0395,750.497 -93.4306,123.576 -36.1712,265.236 153.7226,391.825 602.7999,331.546 150.71,-21.098 274.2866,-111.52 l 2046.534,-1473.869 q 108.5136,-78.366 -2.9926,-147.689 L 6345.0188,35717.053 q -114.5387,-72.337 -229.0775,3.013 -925.3081,608.837 -1543.19,1531.134 -262.2161,394.841 135.647,651.036 51.2342,33.154 111.5062,39.182 141.6711,12.05 198.9305,-114.534 174.8108,-385.798 415.9387,-741.455 675.1424,-994.635 183.8486,105.491 z"
     id="path13"
     style="stroke-width:301.403" />
  <path
     fill="#6bd7e5"
     d="m 14009.717,1670.3768 c 4276.937,-331.5448 9409.852,605.8237 11037.435,5292.6667 859.011,2474.5333 1015.746,4967.1505 1033.822,7999.2815 q 18.155,3848.938 271.274,7697.877 c 421.963,6374.709 153.702,13080.965 -7486.896,14832.124 -5295.675,1214.661 -13674.7388,346.617 -14868.3072,-6474.171 -681.1675,-3897.164 431.0218,-8632.232 105.501,-11920.557 C 3231.4845,10335.763 2643.7476,2550.4782 14009.717,1670.3768 Z m 8443.545,4364.3399 A 3333.536,3646.9969 78.9 0 0 18232.706,3465.845 3333.536,3646.9969 78.9 0 0 15295.52,7438.962 a 3333.536,3646.9969 78.9 0 0 4220.555,2569.174 3333.536,3646.9969 78.9 0 0 2937.187,-3973.4193 z m -8739.818,521.4314 A 3345.5923,3616.8565 81.8 0 0 9656.5269,3760.3175 3345.5923,3616.8565 81.8 0 0 6553.8661,7587.8562 3345.5923,3616.8565 81.8 0 0 10610.783,10383.384 3345.5923,3616.8565 81.8 0 0 13713.444,6555.8459 Z m -734.535,6356.6249 q -14.965,904.215 482.254,1657.726 87.406,129.604 241.128,150.703 518.407,75.351 886.125,-271.265 123.576,-117.548 253.178,-6.026 684.2,581.71 1380.43,39.182 141.672,-108.506 141.672,-286.334 V 12924.83 q 0,-156.73 156.715,-156.73 h 310.458 q 129.601,0 247.153,-57.266 c 1567.311,-798.724 361.692,-1877.752 -467.173,-2477.547 q -120.564,-90.422 -168.786,-232.083 c -509.388,-1488.9382 -2525.777,-1193.5612 -3179.831,12.057 q -69.329,129.604 -204.956,192.899 c -1036.834,476.22 -1446.748,1886.794 -235.083,2456.449 q 156.716,75.35 156.716,250.165 z"
     id="path14"
     style="stroke-width:301.403" />
  <path
     fill="#6bd7e5"
     d="m 26282.918,3867.6176 a 1244.8014,1244.8014 0 0 1 235.103,256.1932 q 1576.348,2329.8589 -807.777,3668.097 a 135.63212,135.63212 0 0 1 -192.886,-75.3521 l -470.206,-1380.4346 q -57.259,-162.7581 30.146,-310.4466 C 25999.594,4473.4401 23727.015,4949.6597 23353.272,3744.041 q -48.221,-159.7445 102.469,-226.0528 1546.202,-687.2038 2827.177,349.6294 z"
     id="path15"
     style="stroke-width:301.403" />
  <path
     d="M 22453.262,6034.7167 A 3333.536,3646.9969 78.9 0 1 19516.075,10008.136 3333.536,3646.9969 78.9 0 1 15295.52,7438.962 3333.536,3646.9969 78.9 0 1 18232.706,3465.845 3333.536,3646.9969 78.9 0 1 22453.262,6034.7167 Z m -227.86,153.1136 A 3104.4684,3396.8311 80.9 0 0 18380.384,3659.6482 3104.4684,3396.8311 80.9 0 0 15517.035,7262.0376 3104.4684,3396.8311 80.9 0 0 19362.671,9790.2198 3104.4684,3396.8311 80.9 0 0 22226.02,6187.8303 Z"
     id="path16"
     style="stroke-width:301.403" />
  <path
     fill="#ffffff"
     d="M 22225.402,6187.8303 A 3104.4684,3396.8311 80.9 0 1 19362.671,9790.2198 3104.4684,3396.8311 80.9 0 1 15517.654,7262.0376 3104.4684,3396.8311 80.9 0 1 18380.683,3659.6482 3104.4684,3396.8311 80.9 0 1 22225.701,6187.8303 Z M 17270.01,8073.4188 a 1112.1834,1027.79 83.2 0 0 888.837,-1226.1142 1112.1834,1027.79 83.2 0 0 -1152.27,-982.5803 1112.1834,1027.79 83.2 0 0 -888.836,1226.1152 1112.1834,1027.79 83.2 0 0 1152.269,982.5793 z"
     id="path17"
     style="stroke-width:301.403" />
  <path
     fill="#6bd7e5"
     d="m 5033.878,5299.2891 c -741.4384,-114.5333 -1383.4422,-102.4773 -1392.48,877.0876 q -2.9926,159.7444 123.5766,262.2234 892.1495,717.3432 96.4432,1666.7677 -123.5766,147.688 -286.3369,45.211 C 678.59368,6333.1074 3195.3133,2885.0378 6040.5863,3964.0663 a 168.78664,165.77259 30.4 0 1 69.3098,262.2228 l -789.6811,961.4805 q -111.5062,135.6325 -286.337,111.5195 z"
     id="path18"
     style="stroke-width:301.403" />
  <path
     d="M 13713.444,6555.8459 A 3345.5923,3616.8565 81.8 0 1 10610.783,10382.782 3345.5923,3616.8565 81.8 0 1 6553.8661,7587.5551 3345.5923,3616.8565 81.8 0 1 9656.5269,3760.3175 3345.5923,3616.8565 81.8 0 1 13713.444,6555.8459 Z m -211.899,91.0247 A 3101.4544,3387.7888 82.9 0 0 9756.3016,3987.8771 3101.4544,3387.7888 82.9 0 0 6777.8164,7484.1732 3101.4544,3387.7888 82.9 0 0 10523.079,10143.165 3101.4544,3387.7888 82.9 0 0 13501.545,6646.8706 Z"
     id="path19"
     style="stroke-width:301.403" />
  <path
     fill="#ffffff"
     d="M 13501.545,6646.5695 A 3101.4544,3387.7888 82.9 0 1 10523.079,10143.165 3101.4544,3387.7888 82.9 0 1 6777.8164,7484.1732 3101.4544,3387.7888 82.9 0 1 9756.3016,3987.8771 3101.4544,3387.7888 82.9 0 1 13501.545,6646.8706 Z M 9503.7222,7240.336 A 1063.9586,1063.9586 0 0 0 8439.7545,6176.3767 1063.9586,1063.9586 0 0 0 7375.8079,7240.336 1063.9586,1063.9586 0 0 0 8439.7545,8304.2948 1063.9586,1063.9586 0 0 0 9503.7222,7240.336 Z"
     id="path20"
     style="stroke-width:301.403" />
  <path
     d="m 17270.01,8073.4188 a 1112.1834,1027.79 83.2 0 1 -1152.269,-982.5793 1112.1834,1027.79 83.2 0 1 889.155,-1226.1152 1112.1834,1027.79 83.2 0 1 1151.951,982.5803 1112.1834,1027.79 83.2 0 1 -889.136,1226.1142 z m 321.91,-564.8325 a 274.27828,223.03949 81.5 0 0 179.938,-304.4181 274.27828,223.03949 81.5 0 0 -261.319,-238.1098 274.27828,223.03949 81.5 0 0 -179.938,304.4181 274.27828,223.03949 81.5 0 0 261.319,238.1098 z M 9503.7222,7240.336 A 1063.9586,1063.9586 0 0 1 8439.7545,8304.2948 1063.9586,1063.9586 0 0 1 7375.8079,7240.336 1063.9586,1063.9586 0 0 1 8439.7545,6176.3767 1063.9586,1063.9586 0 0 1 9503.7222,7240.336 Z m -805.9609,470.1911 a 247.15185,274.27828 41.6 0 0 366.8192,-40.9906 247.15185,274.27828 41.6 0 0 -2.7937,-369.2207 247.15185,274.27828 41.6 0 0 -366.8192,41.2929 247.15185,274.27828 41.6 0 0 2.7937,368.9184 z"
     id="path21"
     style="stroke-width:301.403" />
  <path
     d="m 12822.193,12662.607 c -1211.665,-569.654 -801.751,-1980.229 235.083,-2456.448 q 135.627,-63.295 204.956,-192.899 c 654.054,-1205.6192 2670.443,-1500.9962 3179.831,-12.057 q 48.222,141.661 168.786,232.082 c 828.865,599.796 2034.484,1678.824 467.173,2477.547 q -117.552,57.266 -247.153,57.266 h -310.458 q -156.715,0 -156.715,156.731 v 1271.928 q 0,177.829 -141.672,286.335 -696.23,542.528 -1380.43,-39.184 -129.602,-111.519 -253.178,6.028 -367.718,346.615 -886.125,271.264 -153.722,-21.098 -241.128,-150.702 -497.317,-753.511 -482.254,-1657.726 0,-174.815 -156.716,-250.166 z m 1103.131,-1910.905 c -1241.79,-967.5092 -2396.176,1106.155 -940.39,1769.246 q 135.647,60.28 265.247,-6.028 1383.444,-714.329 2757.848,-177.829 c 849.973,328.531 1573.337,268.25 1588.4,-819.821 q 0,-168.786 -126.589,-280.307 l -934.346,-813.792 q -147.697,-129.604 -307.445,-15.071 -925.307,648.02 -2067.622,449.094 -129.602,-24.113 -235.103,-105.492 z m 424.976,1624.571 -985.58,328.531 q -153.722,51.239 -156.735,213.997 -5.985,762.554 391.818,1422.63 93.451,153.717 274.287,150.702 c 877.086,-21.098 777.63,-1353.306 729.389,-1947.074 q -21.089,-244.137 -253.179,-168.786 z m 1519.091,2049.552 c 572.672,-599.795 491.292,-2170.114 -750.498,-2091.749 q -123.576,9.041 -150.71,126.59 -213.994,904.214 57.28,1769.246 a 503.34586,503.34586 0 0 0 843.928,195.913 z"
     id="path22"
     style="stroke-width:301.403" />
  <path
     fill="#f3d8ae"
     d="m 14160.427,10857.194 q 1142.315,198.926 2067.622,-449.094 159.748,-114.534 307.445,15.071 l 934.346,813.792 q 126.589,111.521 126.589,280.307 c -14.963,1088.071 -738.427,1148.352 -1588.4,819.821 q -1374.404,-536.5 -2757.848,177.829 -129.6,66.308 -265.247,6.028 c -1455.786,-663.091 -301.4,-2736.7552 940.39,-1769.246 q 105.501,81.379 235.103,105.492 z"
     id="path23"
     style="stroke-width:301.403" />
  <path
     fill="#ffffff"
     d="m 14603.479,12545.059 c 48.241,593.768 147.697,1925.976 -729.389,1947.074 q -180.836,3.015 -274.287,-150.702 -397.843,-660.076 -391.818,-1422.63 2.994,-162.758 156.735,-213.997 l 985.58,-328.531 q 232.09,-75.351 253.179,168.786 z m 515.414,-210.983 c 1241.79,-78.365 1323.17,1491.954 750.498,2091.749 a 503.34586,503.34586 0 0 1 -843.928,-195.913 q -271.274,-865.032 -57.28,-1769.246 27.134,-117.547 150.71,-126.59 z"
     id="path24"
     style="stroke-width:301.403" />
  <path
     fill="#f3d8ae"
     d="m 27802.007,21225.514 q 69.31,180.844 241.108,250.166 162.76,63.297 150.71,235.097 c -60.272,729.398 -2161.073,192.898 -1645.678,-1711.98 q 36.171,-132.617 174.829,-120.561 c 440.04,42.197 2052.561,654.049 1763.211,1299.054 q -75.355,174.816 -244.14,87.408 l -307.426,-159.745 q -223.052,-117.547 -132.614,120.561 z m -25742.9827,57.267 -292.3622,147.69 a 195.91306,198.92711 1.9 0 1 -259.2035,-277.292 q 720.3513,-1205.62 2176.1358,-1136.296 186.8612,9.038 186.8612,198.927 v 976.55 q 0,171.802 -135.627,274.279 -705.2883,530.473 -1558.2529,753.511 -226.065,60.282 -277.2992,-168.786 -84.3928,-379.771 210.982,-702.273 159.7467,-174.814 -51.2342,-66.31 z m 22102.0037,15718.256 434.034,862.019 a 253.17995,250.16591 70.4 0 1 -168.805,358.671 c -783.635,171.801 -1690.868,-1057.932 -2115.844,-1594.431 q -105.501,-132.618 30.126,-235.096 l 1220.703,-913.255 q 120.564,-90.423 247.153,-6.025 c 500.33,343.602 2124.901,2004.342 1069.971,2287.662 q -144.664,39.181 -168.785,-111.521 -75.355,-449.093 -427.989,-744.47 -292.361,-247.151 -120.564,96.45 z m -18726.2743,84.395 q -241.1279,355.656 -415.9387,741.455 -57.2594,126.589 -198.9305,114.533 -60.272,-6.025 -111.5062,-39.183 -397.8631,-256.194 -135.647,-651.035 617.8819,-922.296 1543.19,-1531.134 114.5388,-75.352 229.0775,-3.012 l 1718.0007,1088.069 q 111.5262,69.325 2.9926,147.69 l -2046.534,1473.869 q -123.5766,90.421 -274.2666,111.519 -449.0973,60.28 -602.8199,-331.546 -57.2594,-141.659 36.1712,-265.236 265.2287,-352.642 440.0395,-750.496 491.2938,-1100.127 -183.8486,-105.491 z"
     id="path25"
     style="stroke-width:301.403" />
</svg>
