<?xml version="1.0" encoding="UTF-8" standalone="no"?>
<svg
   viewBox="0 0 171.85568 229.31206"
   version="1.1"
   id="svg25"
   width="171.85568"
   height="229.31207"
   xmlns="http://www.w3.org/2000/svg"
   xmlns:svg="http://www.w3.org/2000/svg">
  <defs
     id="defs25" />
  <path
     d="m 158.77306,133.00444 c 1.4227,24.27578 0.42159,47.67324 -13.08648,68.61139 q -0.43916,0.68509 0.0871,1.29992 c 15.45777,17.77654 -5.77901,34.11247 -19.53284,15.01861 q -0.527,-0.72022 -1.37019,-0.40403 -37.818812,14.84295 -76.217492,1.37019 a 1.3174246,1.3174246 0 0 0 -1.35261,0.26349 c -3.63608,3.23205 -13.12144,11.83926 -18.26823,9.85425 -7.37739,-2.84558 -11.8744,-10.34611 -8.95854,-18.16283 1.01885,-2.75775 3.65364,-4.65493 5.69135,-6.88569 q 0.63239,-0.6851 0.0697,-1.44045 c -14.19292,-18.63713 -14.10526,-45.9693 -10.27578,-68.52374 q 0.2108,-1.28218 -1.07155,-1.05381 C 6.3721479,134.37462 2.9117279,128.75353 0.18893786,122.34195 q -0.3689,-0.87814 -0.0176,-1.75647 4.05767004,-10.18801 14.82538014,-12.38382 0.87832,-0.17566 0.80823,-1.07155 c -1.75682,-18.760086 -3.67139,-37.853936 -0.87832,-56.543766 q 0.12297,-0.82562 -0.57969,-1.31748 C -6.9778621,34.654274 12.502458,7.0586137 35.232388,14.190244 q 0.84319,0.28106 1.58098,-0.22837 c 24.67964,-17.1264103 69.823482,-19.1114203 95.030112,-2.52939 q 0.70266,0.45673 1.49315,0.2108 16.38879,-5.0941003 25.1014,6.58706 c 7.2019,9.6612 6.06008,21.3775 -4.00515,28.56165 q -0.68491,0.5096 -0.52682,1.35261 c 3.70617,19.67355 3.56582,36.88797 3.23206,58.441126 q -0.0176,0.93084 0.89588,1.14164 c 6.02495,1.44045 15.73884,7.48296 13.49034,15.14158 q -2.70506,9.22203 -11.99736,9.32743 -0.80788,0.0176 -0.75536,0.80806 z m -14.281,-94.924886 C 135.00653,10.764954 105.09227,5.3019637 80.166528,7.2342737 13.926428,12.363334 17.351888,57.735534 22.428408,108.79892 c 1.897,19.16412 -4.58466,46.75979 -0.615,69.47215 6.95614,39.75112 55.78877,44.81009 86.651612,37.73098 44.52885,-10.20558 46.09226,-49.28917 43.63296,-86.44046 Q 150.62257,107.13011 150.517,84.698814 c -0.10575,-17.67097 -1.01868,-32.1979 -6.02494,-46.61926 z m 7.20207,-18.04004 q -7.46557,-6.0425 -16.47663,-2.03753 -0.87832,0.38646 -0.59726,1.31748 c 2.17806,7.02623 15.42264,4.25073 10.04748,13.2971 q -0.50942,0.86076 -0.17566,1.80935 l 2.74036,8.04508 a 0.79045485,0.79045485 0 0 0 1.12408,0.43916 q 13.89454,-7.79915 4.70763,-21.37749 a 7.2546184,7.2546184 0 0 0 -1.37,-1.49315 z M 19.740748,33.494894 c 0.0523,-5.70875 3.79417,-5.77901 8.11535,-5.11167 q 1.01885,0.14054 1.66863,-0.64978 l 4.60224,-5.60352 a 0.98367714,0.96611146 30.4 0 0 -0.40386,-1.52828 c -16.58202,-6.28844 -31.2494801,13.8067 -14.36883,24.39874 q 0.94859,0.59726 1.66882,-0.26349 4.63719,-5.53308 -0.56213,-9.71372 -0.73779,-0.59726 -0.72022,-1.52828 z m 141.579262,87.002756 1.79178,0.93102 q 0.98355,0.50925 1.42271,-0.50942 c 1.68638,-3.75905 -7.71132,-7.32486 -10.27585,-7.57079 q -0.80805,-0.0703 -1.01903,0.70266 c -3.00351,11.10147 9.23978,14.22812 9.59111,9.97721 q 0.0697,-1.00111 -0.87832,-1.37018 -1.00129,-0.40403 -1.40532,-1.45802 -0.52699,-1.38757 0.77292,-0.70248 z m -150.502672,1.42288 q -1.7213401,1.87944 -1.2294801,4.09264 0.29863,1.33505 1.6159401,0.98372 4.97113,-1.29974 9.08151,-4.39144 0.79031,-0.59726 0.79031,-1.59837 v -5.69118 q 0,-1.10686 -1.08894,-1.15939 -8.48425,-0.40402 -12.6822801,6.6222 a 1.1417681,1.1593338 1.9 0 0 1.51054,1.61594 l 1.7039501,-0.86058 q 1.22947,-0.63239 0.29845,0.38646 z m 129.213192,90.65624 q 2.0551,1.72151 2.49409,4.33874 0.1407,0.87832 0.98372,0.64996 c 6.14808,-1.65107 -3.31989,-11.32984 -6.23557,-13.33241 q -0.73779,-0.49186 -1.44045,0.0351 l -7.11423,5.32246 q -0.79049,0.59726 -0.17549,1.37018 c 2.47669,3.12665 7.76402,10.29342 12.33094,9.29213 a 1.4755156,1.45795 70.4 0 0 0.98373,-2.09023 l -2.5294,-5.02383 q -1.00129,-2.0024 0.70266,-0.56213 z m -108.766722,1.66881 q -1.01885,2.3186 -2.56452,4.37387 -0.54456,0.72023 -0.2108,1.54585 0.89589,2.28346 3.51294,1.93213 0.87832,-0.12296 1.59872,-0.64995 l 11.92692,-8.58965 q 0.63239,-0.45672 -0.0176,-0.86058 l -10.01235,-6.34131 q -0.66752,-0.4216 -1.33505,0.0176 -5.39272,3.54824 -8.99367,8.9234 -1.52811,2.30103 0.79049,3.79418 0.29863,0.19323 0.64996,0.22836 0.82562,0.0703 1.15921,-0.66752 1.01885,-2.24833 2.42417,-4.32117 3.93471,-5.79658 1.07155,0.61482 z"
     id="path13"
     style="stroke-width:1.75656" />
  <path
     fill="#6bd7e5"
     d="m 80.166528,7.2342737 c 24.925742,-1.93231 54.840002,3.5306803 64.325532,30.8452803 5.00626,14.42136 5.91972,28.94829 6.02494,46.61926 q 0.10592,22.431296 1.58098,44.862776 c 2.4593,37.15129 0.89589,76.23488 -43.63296,86.44046 -30.862842,7.07911 -79.695472,2.02014 -86.651612,-37.73098 -3.96966,-22.71236 2.512,-50.30803 0.615,-69.47215 C 17.351888,57.735534 13.926428,12.363334 80.166528,7.2342737 Z M 129.37507,32.669264 a 19.427621,21.254451 78.9 0 0 -24.59707,-14.97118 19.427621,21.254451 78.9 0 0 -17.117802,23.15504 19.427621,21.254451 78.9 0 0 24.597252,14.97312 19.427621,21.254451 78.9 0 0 17.11762,-23.15698 z m -50.935152,3.039 a 19.497885,21.078796 81.8 0 0 -23.64339,-16.29394 19.497885,21.078796 81.8 0 0 -18.08202,22.30658 19.497885,21.078796 81.8 0 0 23.64338,16.29218 19.497885,21.078796 81.8 0 0 18.08203,-22.30658 z m -4.28077,37.04589 q -0.0871,5.26976 2.81063,9.66119 0.50926,0.75519 1.40514,0.87833 3.02126,0.43898 5.16436,-1.58098 0.72023,-0.6851 1.47541,-0.0351 3.98741,3.39015 8.04508,0.22837 0.82563,-0.6324 0.82563,-1.66882 v -7.41269 q 0,-0.91328 0.91345,-0.91328 h 1.80917 q 0.75536,0 1.44045,-0.33394 c 9.134202,-4.65475 2.107972,-10.94319 -2.72262,-14.43892 q -0.70266,-0.52699 -0.98373,-1.35244 c -2.96855,-8.67765 -14.71998,-6.95596 -18.53172,0.0703 q -0.40421,0.75518 -1.19452,1.12408 c -6.04268,2.7755 -8.43155,10.99607 -1.37001,14.31613 q 0.91328,0.43916 0.91328,1.45784 z"
     id="path14"
     style="stroke-width:1.75656" />
  <path
     fill="#6bd7e5"
     d="m 151.69413,20.039514 a 7.2546184,7.2546184 0 0 1 1.37,1.49315 q 9.18691,13.57834 -4.70763,21.37749 a 0.79045485,0.79045485 0 0 1 -1.12408,-0.43916 l -2.74036,-8.04508 q -0.33376,-0.94859 0.17566,-1.80935 c 5.37516,-9.04637 -7.86942,-6.27087 -10.04748,-13.2971 q -0.28106,-0.93102 0.59726,-1.31748 9.01106,-4.00497 16.47663,2.03753 z"
     id="path15"
     style="stroke-width:1.75656" />
  <path
     d="m 129.37507,32.669264 a 19.427621,21.254451 78.9 0 1 -17.11762,23.15698 19.427621,21.254451 78.9 0 1 -24.597252,-14.97312 19.427621,21.254451 78.9 0 1 17.117802,-23.15504 19.427621,21.254451 78.9 0 1 24.59707,14.97118 z m -1.32802,0.89238 a 18.092633,19.796503 80.9 0 0 -22.40847,-14.73404 18.092633,19.796503 80.9 0 0 -16.687422,20.99455 18.092633,19.796503 80.9 0 0 22.412152,14.73403 18.092633,19.796503 80.9 0 0 16.68743,-20.99454 z"
     id="path16"
     style="stroke-width:1.75656" />
  <path
     fill="#ffffff"
     d="m 128.04705,33.561644 a 18.092633,19.796503 80.9 0 1 -16.68374,20.99454 18.092633,19.796503 80.9 0 1 -22.408462,-14.73403 18.092633,19.796503 80.9 0 1 16.685492,-20.99455 18.092633,19.796503 80.9 0 1 22.40847,14.73404 z m -28.879602,10.98922 a 6.4817297,5.9898907 83.2 0 0 5.180002,-7.14586 6.4817297,5.9898907 83.2 0 0 -6.715302,-5.72631 6.4817297,5.9898907 83.2 0 0 -5.18,7.14568 6.4817297,5.9898907 83.2 0 0 6.7153,5.72649 z"
     id="path17"
     style="stroke-width:1.75656" />
  <path
     fill="#6bd7e5"
     d="m 27.856098,28.383224 c -4.32118,-0.66734 -8.06265,-0.59708 -8.11535,5.11167 q -0.0176,0.93102 0.72022,1.52828 5.19932,4.18064 0.56213,9.71372 -0.72023,0.86075 -1.66882,0.26349 c -16.8806501,-10.59204 -2.21319,-30.68718 14.36883,-24.39874 a 0.98367714,0.96611146 30.4 0 1 0.40386,1.52828 l -4.60224,5.60352 q -0.64978,0.79032 -1.66863,0.64978 z"
     id="path18"
     style="stroke-width:1.75656" />
  <path
     d="m 78.439918,35.706504 a 19.497885,21.078796 81.8 0 1 -18.08203,22.30307 19.497885,21.078796 81.8 0 1 -23.64338,-16.29042 19.497885,21.078796 81.8 0 1 18.08202,-22.30483 19.497885,21.078796 81.8 0 1 23.64339,16.29218 z m -1.23492,0.53051 a 18.075068,19.743805 82.9 0 0 -21.82702,-15.4966 18.075068,19.743805 82.9 0 0 -17.35829,20.37621 18.075068,19.743805 82.9 0 0 21.82702,15.49642 18.075068,19.743805 82.9 0 0 17.35829,-20.37603 z"
     id="path19"
     style="stroke-width:1.75656" />
  <path
     fill="#ffffff"
     d="m 77.204998,36.235084 a 18.075068,19.743805 82.9 0 1 -17.35829,20.37796 18.075068,19.743805 82.9 0 1 -21.82702,-15.49642 18.075068,19.743805 82.9 0 1 17.35829,-20.37621 18.075068,19.743805 82.9 0 1 21.82702,15.4966 z m -23.29909,3.46041 a 6.2006788,6.2006788 0 0 0 -6.2006,-6.2006 6.2006788,6.2006788 0 0 0 -6.20061,6.2006 6.2006788,6.2006788 0 0 0 6.20061,6.20078 6.2006788,6.2006788 0 0 0 6.2006,-6.20078 z"
     id="path20"
     style="stroke-width:1.75656" />
  <path
     d="m 99.167448,44.550864 a 6.4817297,5.9898907 83.2 0 1 -6.7153,-5.72649 6.4817297,5.9898907 83.2 0 1 5.18175,-7.14568 6.4817297,5.9898907 83.2 0 1 6.713552,5.72631 6.4817297,5.9898907 83.2 0 1 -5.181752,7.14586 z m 1.876102,-3.29195 a 1.5984753,1.2998591 81.5 0 0 1.04854,-1.77404 1.5984753,1.2998591 81.5 0 0 -1.52283,-1.38775 1.5984753,1.2998591 81.5 0 0 -1.048722,1.77404 1.5984753,1.2998591 81.5 0 0 1.523012,1.38775 z m -47.137642,-1.56342 a 6.2006788,6.2006788 0 0 1 -6.2006,6.20078 6.2006788,6.2006788 0 0 1 -6.20061,-6.20078 6.2006788,6.2006788 0 0 1 6.20061,-6.2006 6.2006788,6.2006788 0 0 1 6.2006,6.2006 z m -4.69709,2.74037 a 1.4403843,1.5984753 41.6 0 0 2.13784,-0.23891 1.4403843,1.5984753 41.6 0 0 -0.0158,-2.15189 1.4403843,1.5984753 41.6 0 0 -2.13784,0.24066 1.4403843,1.5984753 41.6 0 0 0.0158,2.15014 z"
     id="path21"
     style="stroke-width:1.75656" />
  <path
     d="m 73.245868,71.296134 c -7.06154,-3.31988 -4.67267,-11.54045 1.37001,-14.31595 q 0.79031,-0.3689 1.19452,-1.12408 c 3.81174,-7.02623 15.56317,-8.74792 18.53172,-0.0703 q 0.28107,0.82545 0.98373,1.35244 c 4.830592,3.49573 11.856822,9.78417 2.72262,14.43892 q -0.68509,0.33394 -1.44045,0.33394 h -1.80917 q -0.91345,0 -0.91345,0.91328 v 7.41269 q 0,1.03642 -0.82563,1.66882 -4.05767,3.16178 -8.04508,-0.22837 -0.75518,-0.64996 -1.47541,0.0351 -2.1431,2.01996 -5.16436,1.58098 -0.89588,-0.12314 -1.40514,-0.87833 -2.89846,-4.39143 -2.81063,-9.66119 0,-1.01868 -0.91328,-1.45802 z m 6.4288,-11.1366 c -7.23703,-5.63848 -13.96463,6.44671 -5.48039,10.31115 q 0.79049,0.35133 1.54585,-0.0351 8.06265,-4.16307 16.0726,-1.03642 c 4.95357,1.91474 9.169162,1.56341 9.256992,-4.7779 q 0,-0.98354 -0.73779,-1.63368 l -5.445252,-4.74259 q -0.86075,-0.75536 -1.79177,-0.0878 -5.39273,3.77661 -12.05006,2.61722 -0.75518,-0.14035 -1.37018,-0.61482 z m 2.47687,9.46796 -5.74388,1.91457 q -0.89589,0.29881 -0.91346,1.24722 -0.0348,4.44414 2.28346,8.29101 0.54456,0.89589 1.59855,0.87833 c 5.11166,-0.12297 4.53197,-7.88699 4.25091,-11.3474 q -0.12297,-1.42289 -1.47558,-0.98373 z m 8.85314,11.94466 c 3.33744,-3.49554 2.86333,-12.64731 -4.37388,-12.19059 q -0.72004,0.0527 -0.87832,0.73779 -1.24704,5.26959 0.33394,10.31098 a 2.9334657,2.9334657 0 0 0 4.91826,1.14182 z"
     id="path22"
     style="stroke-width:1.75656" />
  <path
     fill="#f3d8ae"
     d="m 81.044848,60.774354 q 6.65733,1.15939 12.05006,-2.61722 0.93102,-0.66753 1.79177,0.0878 l 5.445252,4.74259 q 0.73779,0.65014 0.73779,1.63368 c -0.0871,6.34131 -4.303422,6.69264 -9.256992,4.7779 q -8.00995,-3.12665 -16.0726,1.03642 -0.75536,0.38646 -1.54585,0.0351 c -8.48424,-3.86444 -1.75664,-15.94963 5.48039,-10.31115 q 0.615,0.47447 1.37018,0.61482 z"
     id="path23"
     style="stroke-width:1.75656" />
  <path
     fill="#ffffff"
     d="m 83.627118,70.611224 c 0.28106,3.46041 0.86075,11.22443 -4.25091,11.3474 q -1.05399,0.0176 -1.59855,-0.87833 -2.31859,-3.84687 -2.28346,-8.29101 0.0176,-0.94841 0.91346,-1.24722 l 5.74388,-1.91457 q 1.35261,-0.43916 1.47558,0.98373 z m 3.00368,-1.22966 c 7.23721,-0.45672 7.71132,8.69505 4.37388,12.19059 a 2.9334657,2.9334657 0 0 1 -4.91826,-1.14182 q -1.58098,-5.04139 -0.33394,-10.31098 0.15828,-0.68509 0.87832,-0.73779 z"
     id="path24"
     style="stroke-width:1.75656" />
  <path
     fill="#f3d8ae"
     d="m 160.54709,121.20013 q 0.40403,1.05399 1.40532,1.45802 0.94841,0.36907 0.87832,1.37018 c -0.35133,4.25091 -12.59462,1.12426 -9.59111,-9.97721 q 0.21098,-0.77293 1.01903,-0.70266 c 2.56453,0.24593 11.96223,3.81174 10.27585,7.57079 q -0.43916,1.01867 -1.42271,0.50942 l -1.79178,-0.93102 q -1.29991,-0.68509 -0.77292,0.70248 z m -150.028202,0.33394 -1.7039501,0.86058 a 1.1417681,1.1593338 1.9 0 1 -1.51054,-1.61594 q 4.1980301,-7.02622 12.6822801,-6.6222 1.08894,0.0525 1.08894,1.15939 v 5.69118 q 0,1.00111 -0.79031,1.59837 -4.11038,3.0917 -9.08151,4.39144 -1.3173101,0.35133 -1.6159401,-0.98372 -0.49186,-2.2132 1.2294801,-4.09264 0.93102,-1.01885 -0.29845,-0.38646 z m 128.808982,91.60483 2.5294,5.02383 a 1.4755156,1.45795 70.4 0 1 -0.98373,2.09023 c -4.56692,1.00129 -9.85425,-6.16548 -12.33094,-9.29213 q -0.615,-0.77292 0.17549,-1.37018 l 7.11423,-5.32246 q 0.70266,-0.52699 1.44045,-0.0351 c 2.91568,2.00257 12.38365,11.68134 6.23557,13.33241 q -0.84302,0.22836 -0.98372,-0.64996 -0.43899,-2.61723 -2.49409,-4.33874 -1.70395,-1.44027 -0.70266,0.56213 z m -109.135612,0.49186 q -1.40514,2.07284 -2.424,4.32117 -0.33376,0.73779 -1.15938,0.66752 -0.35133,-0.0351 -0.64979,-0.22836 -2.31877,-1.49315 -0.79066,-3.79418 3.60112,-5.37516 8.99367,-8.9234 0.66753,-0.43917 1.33505,-0.0176 l 10.01235,6.34131 q 0.64996,0.40386 0.0176,0.86058 l -11.9271,8.58965 q -0.72022,0.52699 -1.59854,0.64995 -2.61723,0.35133 -3.51312,-1.93213 -0.33376,-0.82562 0.2108,-1.54585 1.54567,-2.05527 2.56453,-4.37387 2.86315,-6.4114 -1.07138,-0.61482 z"
     id="path25"
     style="stroke-width:1.75656" />
</svg>
