<?xml version="1.0" encoding="UTF-8" standalone="no"?>
<svg
   viewBox="0 0 19964.59 26642.465"
   version="1.1"
   id="svg25"
   width="19964.59"
   height="26642.465"
   xmlns="http://www.w3.org/2000/svg"
   xmlns:svg="http://www.w3.org/2000/svg">
  <defs
     id="defs25" />
  <g
     fill="none"
     stroke-width="2"
     id="g11"
     transform="translate(-10002.119,-6896.564)">
    <path
       stroke="#808080"
       d="m 141.82,110.57 q 5.29,-0.06 6.83,-5.31 c 1.28,-4.36 -4.25,-7.8 -7.68,-8.62 q -0.52,-0.12 -0.51,-0.65 c 0.19,-12.27 0.27,-22.07 -1.84,-33.27 q -0.09,-0.48 0.3,-0.77 c 5.73,-4.09 6.38,-10.76 2.28,-16.26 q -4.96,-6.65 -14.29,-3.75 -0.45,0.14 -0.85,-0.12 c -14.35,-9.44 -40.05,-8.31 -54.1,1.44 q -0.42,0.29 -0.9,0.13 C 58.12,39.33 47.03,55.04 59.17,63.36 q 0.4,0.28 0.33,0.75 C 57.91,74.75 59,85.62 60,96.3 q 0.04,0.51 -0.46,0.61 -6.13,1.25 -8.44,7.05 -0.2,0.5 0.01,1 c 1.55,3.65 3.52,6.85 8.14,6.04 q 0.73,-0.13 0.61,0.6 c -2.18,12.84 -2.23,28.4 5.85,39.01 q 0.32,0.43 -0.04,0.82 c -1.16,1.27 -2.66,2.35 -3.24,3.92 -1.66,4.45 0.9,8.72 5.1,10.34 2.93,1.13 8.33,-3.77 10.4,-5.61 a 0.75,0.75 0 0 1 0.77,-0.15 q 21.86,7.67 43.39,-0.78 0.48,-0.18 0.78,0.23 c 7.83,10.87 19.92,1.57 11.12,-8.55 q -0.3,-0.35 -0.05,-0.74 c 7.69,-11.92 8.26,-25.24 7.45,-39.06 q -0.03,-0.45 0.43,-0.46"
       vector-effect="non-scaling-stroke"
       id="path1" />
    <path
       stroke="#366c73"
       d="M 133.26,56.99 C 127.86,41.44 110.83,38.33 96.64,39.43 58.93,42.35 60.88,68.18 63.77,97.25 c 1.08,10.91 -2.61,26.62 -0.35,39.55 3.96,22.63 31.76,25.51 49.33,21.48 25.35,-5.81 26.24,-28.06 24.84,-49.21 Q 136.75,96.3 136.69,83.53 C 136.63,73.47 136.11,65.2 133.26,56.99"
       vector-effect="non-scaling-stroke"
       id="path2" />
    <path
       stroke="#366c73"
       d="m 137.36,46.72 q -4.25,-3.44 -9.38,-1.16 -0.5,0.22 -0.34,0.75 c 1.24,4 8.78,2.42 5.72,7.57 q -0.29,0.49 -0.1,1.03 l 1.56,4.58 a 0.45,0.45 0 0 0 0.64,0.25 q 7.91,-4.44 2.68,-12.17 a 4.13,4.13 0 0 0 -0.78,-0.85 m -75.12,7.66 c 0.03,-3.25 2.16,-3.29 4.62,-2.91 q 0.58,0.08 0.95,-0.37 l 2.62,-3.19 A 0.56,0.55 30.4 0 0 70.2,47.04 C 60.76,43.46 52.41,54.9 62.02,60.93 q 0.54,0.34 0.95,-0.15 2.64,-3.15 -0.32,-5.53 -0.42,-0.34 -0.41,-0.87"
       vector-effect="non-scaling-stroke"
       id="path3" />
    <path
       stroke="#7a6c57"
       d="m 142.84,103.91 1.02,0.53 q 0.56,0.29 0.81,-0.29 c 0.96,-2.14 -4.39,-4.17 -5.85,-4.31 q -0.46,-0.04 -0.58,0.4 c -1.71,6.32 5.26,8.1 5.46,5.68 q 0.04,-0.57 -0.5,-0.78 -0.57,-0.23 -0.8,-0.83 -0.3,-0.79 0.44,-0.4 m -85.68,0.81 q -0.98,1.07 -0.7,2.33 0.17,0.76 0.92,0.56 2.83,-0.74 5.17,-2.5 Q 63,104.77 63,104.2 v -3.24 q 0,-0.63 -0.62,-0.66 -4.83,-0.23 -7.22,3.77 a 0.66,0.65 -88.1 0 0 0.86,0.92 l 0.97,-0.49 q 0.7,-0.36 0.17,0.22 m 73.56,51.61 q 1.17,0.98 1.42,2.47 0.08,0.5 0.56,0.37 c 3.5,-0.94 -1.89,-6.45 -3.55,-7.59 q -0.42,-0.28 -0.82,0.02 l -4.05,3.03 q -0.45,0.34 -0.1,0.78 c 1.41,1.78 4.42,5.86 7.02,5.29 a 0.84,0.83 70.4 0 0 0.56,-1.19 l -1.44,-2.86 q -0.57,-1.14 0.4,-0.32 m -61.92,0.95 q -0.58,1.32 -1.46,2.49 -0.31,0.41 -0.12,0.88 0.51,1.3 2,1.1 0.5,-0.07 0.91,-0.37 l 6.79,-4.89 q 0.36,-0.26 -0.01,-0.49 l -5.7,-3.61 q -0.38,-0.24 -0.76,0.01 -3.07,2.02 -5.12,5.08 -0.87,1.31 0.45,2.16 0.17,0.11 0.37,0.13 0.47,0.04 0.66,-0.38 0.58,-1.28 1.38,-2.46 2.24,-3.3 0.61,0.35"
       vector-effect="non-scaling-stroke"
       id="path4" />
    <path
       stroke="#366c73"
       d="m 124.654,53.91 a 12.1,11.06 -11.1 0 0 -14.003,-8.523 12.1,11.06 -11.1 0 0 -9.745,13.182 12.1,11.06 -11.1 0 0 14.003,8.524 12.1,11.06 -11.1 0 0 9.745,-13.183 M 95.657,55.639 A 12,11.1 -8.2 0 0 82.197,46.363 12,11.1 -8.2 0 0 71.903,59.062 12,11.1 -8.2 0 0 85.363,68.337 12,11.1 -8.2 0 0 95.657,55.638 M 93.22,76.73 q -0.05,3 1.6,5.5 0.29,0.43 0.8,0.5 1.72,0.25 2.94,-0.9 0.41,-0.39 0.84,-0.02 2.27,1.93 4.58,0.13 0.47,-0.36 0.47,-0.95 v -4.22 q 0,-0.52 0.52,-0.52 H 106 q 0.43,0 0.82,-0.19 c 5.2,-2.65 1.2,-6.23 -1.55,-8.22 q -0.4,-0.3 -0.56,-0.77 c -1.69,-4.94 -8.38,-3.96 -10.55,0.04 q -0.23,0.43 -0.68,0.64 c -3.44,1.58 -4.8,6.26 -0.78,8.15 q 0.52,0.25 0.52,0.83"
       vector-effect="non-scaling-stroke"
       id="path5" />
    <path
       stroke="#808080"
       d="m 123.898,54.418 a 11.27,10.3 -9.1 0 0 -12.757,-8.388 11.27,10.3 -9.1 0 0 -9.5,11.952 11.27,10.3 -9.1 0 0 12.759,8.388 11.27,10.3 -9.1 0 0 9.5,-11.952"
       vector-effect="non-scaling-stroke"
       id="path6" />
    <path
       stroke="#808080"
       d="m 107.457,60.674 a 3.69,3.41 83.2 0 0 2.949,-4.068 3.69,3.41 83.2 0 0 -3.823,-3.26 3.69,3.41 83.2 0 0 -2.949,4.068 3.69,3.41 83.2 0 0 3.823,3.26 M 94.954,55.94 a 11.24,10.29 -7.1 0 0 -12.426,-8.821 11.24,10.29 -7.1 0 0 -9.882,11.6 11.24,10.29 -7.1 0 0 12.426,8.822 11.24,10.29 -7.1 0 0 9.882,-11.6"
       vector-effect="non-scaling-stroke"
       id="path7" />
    <path
       stroke="#808080"
       d="m 81.69,57.91 a 3.53,3.53 0 0 0 -3.53,-3.53 3.53,3.53 0 0 0 -3.53,3.53 3.53,3.53 0 0 0 3.53,3.53 3.53,3.53 0 0 0 3.53,-3.53 m 26.835,0.89 a 0.91,0.74 81.5 0 0 0.597,-1.01 0.91,0.74 81.5 0 0 -0.867,-0.79 0.91,0.74 81.5 0 0 -0.597,1.01 0.91,0.74 81.5 0 0 0.867,0.79"
       vector-effect="non-scaling-stroke"
       id="path8" />
    <path
       stroke="#808080"
       d="m 79.016,59.47 a 0.91,0.82 131.6 0 0 1.217,-0.136 0.91,0.82 131.6 0 0 -0.009,-1.225 0.91,0.82 131.6 0 0 -1.217,0.137 0.91,0.82 131.6 0 0 0.009,1.224"
       vector-effect="non-scaling-stroke"
       id="path9" />
    <path
       stroke="#7a6c57"
       d="m 96.36,69.56 c -4.12,-3.21 -7.95,3.67 -3.12,5.87 q 0.45,0.2 0.88,-0.02 4.59,-2.37 9.15,-0.59 c 2.82,1.09 5.22,0.89 5.27,-2.72 q 0,-0.56 -0.42,-0.93 l -3.1,-2.7 q -0.49,-0.43 -1.02,-0.05 -3.07,2.15 -6.86,1.49 -0.43,-0.08 -0.78,-0.35"
       vector-effect="non-scaling-stroke"
       id="path10" />
    <path
       stroke="#808080"
       d="m 97.77,74.95 -3.27,1.09 q -0.51,0.17 -0.52,0.71 -0.02,2.53 1.3,4.72 0.31,0.51 0.91,0.5 c 2.91,-0.07 2.58,-4.49 2.42,-6.46 Q 98.54,74.7 97.77,74.95 m 5.04,6.8 c 1.9,-1.99 1.63,-7.2 -2.49,-6.94 q -0.41,0.03 -0.5,0.42 -0.71,3 0.19,5.87 a 1.67,1.67 0 0 0 2.8,0.65"
       vector-effect="non-scaling-stroke"
       id="path11" />
  </g>
  <path
     d="m -9860.729,-6785.534 c 0.81,13.82 0.24,27.14 -7.45,39.06 q -0.25,0.39 0.05,0.74 c 8.8,10.12 -3.29,19.42 -11.12,8.55 q -0.3,-0.41 -0.78,-0.23 -21.53,8.45 -43.39,0.78 a 0.75,0.75 0 0 0 -0.77,0.15 c -2.07,1.84 -7.47,6.74 -10.4,5.61 -4.2,-1.62 -6.76,-5.89 -5.1,-10.34 0.58,-1.57 2.08,-2.65 3.24,-3.92 q 0.36,-0.39 0.04,-0.82 c -8.08,-10.61 -8.03,-26.17 -5.85,-39.01 q 0.12,-0.73 -0.61,-0.6 c -4.62,0.81 -6.59,-2.39 -8.14,-6.04 q -0.21,-0.5 -0.01,-1 2.31,-5.8 8.44,-7.05 0.5,-0.1 0.46,-0.61 c -1,-10.68 -2.09,-21.55 -0.5,-32.19 q 0.07,-0.47 -0.33,-0.75 c -12.14,-8.32 -1.05,-24.03 11.89,-19.97 q 0.48,0.16 0.9,-0.13 c 14.05,-9.75 39.75,-10.88 54.1,-1.44 q 0.4,0.26 0.85,0.12 9.33,-2.9 14.29,3.75 c 4.1,5.5 3.45,12.17 -2.28,16.26 q -0.39,0.29 -0.3,0.77 c 2.11,11.2 2.03,21 1.84,33.27 q -0.01,0.53 0.51,0.65 c 3.43,0.82 8.96,4.26 7.68,8.62 q -1.54,5.25 -6.83,5.31 -0.46,0.01 -0.43,0.46 z m -8.13,-54.04 c -5.4,-15.55 -22.43,-18.66 -36.62,-17.56 -37.71,2.92 -35.76,28.75 -32.87,57.82 1.08,10.91 -2.61,26.62 -0.35,39.55 3.96,22.63 31.76,25.51 49.33,21.48 25.35,-5.81 26.24,-28.06 24.84,-49.21 q -0.84,-12.77 -0.9,-25.54 c -0.06,-10.06 -0.58,-18.33 -3.43,-26.54 z m 4.1,-10.27 q -4.25,-3.44 -9.38,-1.16 -0.5,0.22 -0.34,0.75 c 1.24,4 8.78,2.42 5.72,7.57 q -0.29,0.49 -0.1,1.03 l 1.56,4.58 a 0.45,0.45 0 0 0 0.64,0.25 q 7.91,-4.44 2.68,-12.17 a 4.13,4.13 0 0 0 -0.78,-0.85 z m -75.12,7.66 c 0.03,-3.25 2.16,-3.29 4.62,-2.91 q 0.58,0.08 0.95,-0.37 l 2.62,-3.19 a 0.56,0.55 30.4 0 0 -0.23,-0.87 c -9.44,-3.58 -17.79,7.86 -8.18,13.89 q 0.54,0.34 0.95,-0.15 2.64,-3.15 -0.32,-5.53 -0.42,-0.34 -0.41,-0.87 z m 80.6,49.53 1.02,0.53 q 0.56,0.29 0.81,-0.29 c 0.96,-2.14 -4.39,-4.17 -5.85,-4.31 q -0.46,-0.04 -0.58,0.4 c -1.71,6.32 5.26,8.1 5.46,5.68 q 0.04,-0.57 -0.5,-0.78 -0.57,-0.23 -0.8,-0.83 -0.3,-0.79 0.44,-0.4 z m -85.68,0.81 q -0.98,1.07 -0.7,2.33 0.17,0.76 0.92,0.56 2.83,-0.74 5.17,-2.5 0.45,-0.34 0.45,-0.91 v -3.24 q 0,-0.63 -0.62,-0.66 -4.83,-0.23 -7.22,3.77 a 0.65,0.66 1.9 0 0 0.86,0.92 l 0.97,-0.49 q 0.7,-0.36 0.17,0.22 z m 73.56,51.61 q 1.17,0.98 1.42,2.47 0.08,0.5 0.56,0.37 c 3.5,-0.94 -1.89,-6.45 -3.55,-7.59 q -0.42,-0.28 -0.82,0.02 l -4.05,3.03 q -0.45,0.34 -0.1,0.78 c 1.41,1.78 4.42,5.86 7.02,5.29 a 0.84,0.83 70.4 0 0 0.56,-1.19 l -1.44,-2.86 q -0.57,-1.14 0.4,-0.32 z m -61.92,0.95 q -0.58,1.32 -1.46,2.49 -0.31,0.41 -0.12,0.88 0.51,1.3 2,1.1 0.5,-0.07 0.91,-0.37 l 6.79,-4.89 q 0.36,-0.26 -0.01,-0.49 l -5.7,-3.61 q -0.38,-0.24 -0.76,0.01 -3.07,2.02 -5.12,5.08 -0.87,1.31 0.45,2.16 0.17,0.11 0.37,0.13 0.47,0.04 0.66,-0.38 0.58,-1.28 1.38,-2.46 2.24,-3.3 0.61,0.35 z"
     id="path13" />
  <path
     fill="#6bd7e5"
     d="m -9905.479,-6857.134 c 14.19,-1.1 31.22,2.01 36.62,17.56 2.85,8.21 3.37,16.48 3.43,26.54 q 0.06,12.77 0.9,25.54 c 1.4,21.15 0.51,43.4 -24.84,49.21 -17.57,4.03 -45.37,1.15 -49.33,-21.48 -2.26,-12.93 1.43,-28.64 0.35,-39.55 -2.89,-29.07 -4.84,-54.9 32.87,-57.82 z m 28.014,14.48 a 11.06,12.1 78.9 0 0 -14.003,-8.523 11.06,12.1 78.9 0 0 -9.745,13.182 11.06,12.1 78.9 0 0 14.003,8.524 11.06,12.1 78.9 0 0 9.745,-13.183 z m -28.997,1.73 a 11.1,12 81.8 0 0 -13.46,-9.276 11.1,12 81.8 0 0 -10.294,12.699 11.1,12 81.8 0 0 13.46,9.275 11.1,12 81.8 0 0 10.294,-12.699 z m -2.437,21.09 q -0.05,3 1.6,5.5 0.29,0.43 0.8,0.5 1.72,0.25 2.94,-0.9 0.41,-0.39 0.84,-0.02 2.27,1.93 4.58,0.13 0.47,-0.36 0.47,-0.95 v -4.22 q 0,-0.52 0.52,-0.52 h 1.03 q 0.43,0 0.82,-0.19 c 5.2,-2.65 1.2,-6.23 -1.55,-8.22 q -0.4,-0.3 -0.56,-0.77 c -1.69,-4.94 -8.38,-3.96 -10.55,0.04 q -0.23,0.43 -0.68,0.64 c -3.44,1.58 -4.8,6.26 -0.78,8.15 q 0.52,0.25 0.52,0.83 z"
     id="path14" />
  <path
     fill="#6bd7e5"
     d="m -9864.759,-6849.844 a 4.13,4.13 0 0 1 0.78,0.85 q 5.23,7.73 -2.68,12.17 a 0.45,0.45 0 0 1 -0.64,-0.25 l -1.56,-4.58 q -0.19,-0.54 0.1,-1.03 c 3.06,-5.15 -4.48,-3.57 -5.72,-7.57 q -0.16,-0.53 0.34,-0.75 5.13,-2.28 9.38,1.16 z"
     id="path15" />
  <path
     d="m -9877.465,-6842.654 a 11.06,12.1 78.9 0 1 -9.745,13.183 11.06,12.1 78.9 0 1 -14.003,-8.524 11.06,12.1 78.9 0 1 9.745,-13.182 11.06,12.1 78.9 0 1 14.003,8.523 z m -0.756,0.508 a 10.3,11.27 80.9 0 0 -12.757,-8.388 10.3,11.27 80.9 0 0 -9.5,11.952 10.3,11.27 80.9 0 0 12.759,8.388 10.3,11.27 80.9 0 0 9.5,-11.952 z"
     id="path16" />
  <path
     fill="#ffffff"
     d="m -9878.221,-6842.146 a 10.3,11.27 80.9 0 1 -9.498,11.952 10.3,11.27 80.9 0 1 -12.757,-8.388 10.3,11.27 80.9 0 1 9.499,-11.952 10.3,11.27 80.9 0 1 12.757,8.388 z m -16.441,6.256 a 3.69,3.41 83.2 0 0 2.949,-4.068 3.69,3.41 83.2 0 0 -3.823,-3.26 3.69,3.41 83.2 0 0 -2.949,4.068 3.69,3.41 83.2 0 0 3.823,3.26 z"
     id="path17" />
  <path
     fill="#6bd7e5"
     d="m -9935.259,-6845.094 c -2.46,-0.38 -4.59,-0.34 -4.62,2.91 q -0.01,0.53 0.41,0.87 2.96,2.38 0.32,5.53 -0.41,0.49 -0.95,0.15 c -9.61,-6.03 -1.26,-17.47 8.18,-13.89 a 0.56,0.55 30.4 0 1 0.23,0.87 l -2.62,3.19 q -0.37,0.45 -0.95,0.37 z"
     id="path18" />
  <path
     d="m -9906.462,-6840.925 a 11.1,12 81.8 0 1 -10.294,12.697 11.1,12 81.8 0 1 -13.46,-9.274 11.1,12 81.8 0 1 10.294,-12.698 11.1,12 81.8 0 1 13.46,9.275 z m -0.703,0.302 a 10.29,11.24 82.9 0 0 -12.426,-8.822 10.29,11.24 82.9 0 0 -9.882,11.6 10.29,11.24 82.9 0 0 12.426,8.822 10.29,11.24 82.9 0 0 9.882,-11.6 z"
     id="path19" />
  <path
     fill="#ffffff"
     d="m -9907.165,-6840.624 a 10.29,11.24 82.9 0 1 -9.882,11.601 10.29,11.24 82.9 0 1 -12.426,-8.822 10.29,11.24 82.9 0 1 9.882,-11.6 10.29,11.24 82.9 0 1 12.426,8.822 z m -13.264,1.97 a 3.53,3.53 0 0 0 -3.53,-3.53 3.53,3.53 0 0 0 -3.53,3.53 3.53,3.53 0 0 0 3.53,3.53 3.53,3.53 0 0 0 3.53,-3.53 z"
     id="path20" />
  <path
     d="m -9894.662,-6835.89 a 3.69,3.41 83.2 0 1 -3.823,-3.26 3.69,3.41 83.2 0 1 2.95,-4.068 3.69,3.41 83.2 0 1 3.822,3.26 3.69,3.41 83.2 0 1 -2.95,4.068 z m 1.068,-1.874 a 0.91,0.74 81.5 0 0 0.597,-1.01 0.91,0.74 81.5 0 0 -0.867,-0.79 0.91,0.74 81.5 0 0 -0.597,1.01 0.91,0.74 81.5 0 0 0.867,0.79 z m -26.835,-0.89 a 3.53,3.53 0 0 1 -3.53,3.53 3.53,3.53 0 0 1 -3.53,-3.53 3.53,3.53 0 0 1 3.53,-3.53 3.53,3.53 0 0 1 3.53,3.53 z m -2.674,1.56 a 0.82,0.91 41.6 0 0 1.217,-0.136 0.82,0.91 41.6 0 0 -0.01,-1.225 0.82,0.91 41.6 0 0 -1.217,0.137 0.82,0.91 41.6 0 0 0.01,1.224 z"
     id="path21" />
  <path
     d="m -9909.419,-6820.664 c -4.02,-1.89 -2.66,-6.57 0.78,-8.15 q 0.45,-0.21 0.68,-0.64 c 2.17,-4 8.86,-4.98 10.55,-0.04 q 0.16,0.47 0.56,0.77 c 2.75,1.99 6.75,5.57 1.55,8.22 q -0.39,0.19 -0.82,0.19 h -1.03 q -0.52,0 -0.52,0.52 v 4.22 q 0,0.59 -0.47,0.95 -2.31,1.8 -4.58,-0.13 -0.43,-0.37 -0.84,0.02 -1.22,1.15 -2.94,0.9 -0.51,-0.07 -0.8,-0.5 -1.65,-2.5 -1.6,-5.5 0,-0.58 -0.52,-0.83 z m 3.66,-6.34 c -4.12,-3.21 -7.95,3.67 -3.12,5.87 q 0.45,0.2 0.88,-0.02 4.59,-2.37 9.15,-0.59 c 2.82,1.09 5.22,0.89 5.27,-2.72 q 0,-0.56 -0.42,-0.93 l -3.1,-2.7 q -0.49,-0.43 -1.02,-0.05 -3.07,2.15 -6.86,1.49 -0.43,-0.08 -0.78,-0.35 z m 1.41,5.39 -3.27,1.09 q -0.51,0.17 -0.52,0.71 -0.02,2.53 1.3,4.72 0.31,0.51 0.91,0.5 c 2.91,-0.07 2.58,-4.49 2.42,-6.46 q -0.07,-0.81 -0.84,-0.56 z m 5.04,6.8 c 1.9,-1.99 1.63,-7.2 -2.49,-6.94 q -0.41,0.03 -0.5,0.42 -0.71,3 0.19,5.87 a 1.67,1.67 0 0 0 2.8,0.65 z"
     id="path22" />
  <path
     fill="#f3d8ae"
     d="m -9904.979,-6826.654 q 3.79,0.66 6.86,-1.49 0.53,-0.38 1.02,0.05 l 3.1,2.7 q 0.42,0.37 0.42,0.93 c -0.05,3.61 -2.45,3.81 -5.27,2.72 q -4.56,-1.78 -9.15,0.59 -0.43,0.22 -0.88,0.02 c -4.83,-2.2 -1,-9.08 3.12,-5.87 q 0.35,0.27 0.78,0.35 z"
     id="path23" />
  <path
     fill="#ffffff"
     d="m -9903.509,-6821.054 c 0.16,1.97 0.49,6.39 -2.42,6.46 q -0.6,0.01 -0.91,-0.5 -1.32,-2.19 -1.3,-4.72 0.01,-0.54 0.52,-0.71 l 3.27,-1.09 q 0.77,-0.25 0.84,0.56 z m 1.71,-0.7 c 4.12,-0.26 4.39,4.95 2.49,6.94 a 1.67,1.67 0 0 1 -2.8,-0.65 q -0.9,-2.87 -0.19,-5.87 0.09,-0.39 0.5,-0.42 z"
     id="path24" />
  <path
     fill="#f3d8ae"
     d="m -9859.719,-6792.254 q 0.23,0.6 0.8,0.83 0.54,0.21 0.5,0.78 c -0.2,2.42 -7.17,0.64 -5.46,-5.68 q 0.12,-0.44 0.58,-0.4 c 1.46,0.14 6.81,2.17 5.85,4.31 q -0.25,0.58 -0.81,0.29 l -1.02,-0.53 q -0.74,-0.39 -0.44,0.4 z m -85.41,0.19 -0.97,0.49 a 0.65,0.66 1.9 0 1 -0.86,-0.92 q 2.39,-4 7.22,-3.77 0.62,0.03 0.62,0.66 v 3.24 q 0,0.57 -0.45,0.91 -2.34,1.76 -5.17,2.5 -0.75,0.2 -0.92,-0.56 -0.28,-1.26 0.7,-2.33 0.53,-0.58 -0.17,-0.22 z m 73.33,52.15 1.44,2.86 a 0.84,0.83 70.4 0 1 -0.56,1.19 c -2.6,0.57 -5.61,-3.51 -7.02,-5.29 q -0.35,-0.44 0.1,-0.78 l 4.05,-3.03 q 0.4,-0.3 0.82,-0.02 c 1.66,1.14 7.05,6.65 3.55,7.59 q -0.48,0.13 -0.56,-0.37 -0.25,-1.49 -1.42,-2.47 -0.97,-0.82 -0.4,0.32 z m -62.13,0.28 q -0.8,1.18 -1.38,2.46 -0.19,0.42 -0.66,0.38 -0.2,-0.02 -0.37,-0.13 -1.32,-0.85 -0.45,-2.16 2.05,-3.06 5.12,-5.08 0.38,-0.25 0.76,-0.01 l 5.7,3.61 q 0.37,0.23 0.01,0.49 l -6.79,4.89 q -0.41,0.3 -0.91,0.37 -1.49,0.2 -2,-1.1 -0.19,-0.47 0.12,-0.88 0.88,-1.17 1.46,-2.49 1.63,-3.65 -0.61,-0.35 z"
     id="path25" />
</svg>
