<svg xmlns="http://www.w3.org/2000/svg" viewBox="0 0 200 201"><g fill="none" stroke-width="2"><path stroke="gray" d="M141.82 110.57q5.29-.06 6.83-5.31c1.28-4.36-4.25-7.8-7.68-8.62q-.52-.12-.51-.65c.19-12.27.27-22.07-1.84-33.27q-.09-.48.3-.77c5.73-4.09 6.38-10.76 2.28-16.26q-4.96-6.65-14.29-3.75-.45.14-.85-.12c-14.35-9.44-40.05-8.31-54.1 1.44q-.42.29-.9.13c-12.94-4.06-24.03 11.65-11.89 19.97q.4.28.33.75c-1.59 10.64-.5 21.51.5 32.19q.04.51-.46.61-6.13 1.25-8.44 7.05-.2.5.01 1c1.55 3.65 3.52 6.85 8.14 6.04q.73-.13.61.6c-2.18 12.84-2.23 28.4 5.85 39.01q.32.43-.04.82c-1.16 1.27-2.66 2.35-3.24 3.92-1.66 4.45.9 8.72 5.1 10.34 2.93 1.13 8.33-3.77 10.4-5.61a.75.75 0 0 1 .77-.15q21.86 7.67 43.39-.78.48-.18.78.23c7.83 10.87 19.92 1.57 11.12-8.55q-.3-.35-.05-.74c7.69-11.92 8.26-25.24 7.45-39.06q-.03-.45.43-.46" vector-effect="non-scaling-stroke"/><path stroke="#366c73" d="M133.26 56.99c-5.4-15.55-22.43-18.66-36.62-17.56-37.71 2.92-35.76 28.75-32.87 57.82 1.08 10.91-2.61 26.62-.35 39.55 3.96 22.63 31.76 25.51 49.33 21.48 25.35-5.81 26.24-28.06 24.84-49.21q-.84-12.77-.9-25.54c-.06-10.06-.58-18.33-3.43-26.54" vector-effect="non-scaling-stroke"/><path stroke="#366c73" d="M137.36 46.72q-4.25-3.44-9.38-1.16-.5.22-.34.75c1.24 4 8.78 2.42 5.72 7.57q-.29.49-.1 1.03l1.56 4.58a.45.45 0 0 0 .64.25q7.91-4.44 2.68-12.17a4.13 4.13 0 0 0-.78-.85M62.24 54.38c.03-3.25 2.16-3.29 4.62-2.91q.58.08.95-.37l2.62-3.19a.56.55 30.4 0 0-.23-.87c-9.44-3.58-17.79 7.86-8.18 13.89q.54.34.95-.15 2.64-3.15-.32-5.53-.42-.34-.41-.87" vector-effect="non-scaling-stroke"/><path stroke="#7a6c57" d="m142.84 103.91 1.02.53q.56.29.81-.29c.96-2.14-4.39-4.17-5.85-4.31q-.46-.04-.58.4c-1.71 6.32 5.26 8.1 5.46 5.68q.04-.57-.5-.78-.57-.23-.8-.83-.3-.79.44-.4M57.16 104.72q-.98 1.07-.7 2.33.17.76.92.56 2.83-.74 5.17-2.5.45-.34.45-.91v-3.24q0-.63-.62-.66-4.83-.23-7.22 3.77a.66.65-88.1 0 0 .86.92l.97-.49q.7-.36.17.22M130.72 156.33q1.17.98 1.42 2.47.08.5.56.37c3.5-.94-1.89-6.45-3.55-7.59q-.42-.28-.82.02l-4.05 3.03q-.45.34-.1.78c1.41 1.78 4.42 5.86 7.02 5.29a.84.83 70.4 0 0 .56-1.19l-1.44-2.86q-.57-1.14.4-.32M68.8 157.28q-.58 1.32-1.46 2.49-.31.41-.12.88.51 1.3 2 1.1.5-.07.91-.37l6.79-4.89q.36-.26-.01-.49l-5.7-3.61q-.38-.24-.76.01-3.07 2.02-5.12 5.08-.87 1.31.45 2.16.17.11.37.13.47.04.66-.38.58-1.28 1.38-2.46 2.24-3.3.61.35" vector-effect="non-scaling-stroke"/><path stroke="#366c73" d="M124.654 53.91a12.1 11.06-11.1 0 0-14.003-8.523 12.1 11.06-11.1 0 0-9.745 13.182 12.1 11.06-11.1 0 0 14.003 8.524 12.1 11.06-11.1 0 0 9.745-13.183M95.657 55.639a12 11.1-8.2 0 0-13.46-9.276 12 11.1-8.2 0 0-10.294 12.699 12 11.1-8.2 0 0 13.46 9.275 12 11.1-8.2 0 0 10.294-12.699M93.22 76.73q-.05 3 1.6 5.5.29.43.8.5 1.72.25 2.94-.9.41-.39.84-.02 2.27 1.93 4.58.13.47-.36.47-.95v-4.22q0-.52.52-.52H106q.43 0 .82-.19c5.2-2.65 1.2-6.23-1.55-8.22q-.4-.3-.56-.77c-1.69-4.94-8.38-3.96-10.55.04q-.23.43-.68.64c-3.44 1.58-4.8 6.26-.78 8.15q.52.25.52.83" vector-effect="non-scaling-stroke"/><path stroke="gray" d="M123.898 54.418a11.27 10.3-9.1 0 0-12.757-8.388 11.27 10.3-9.1 0 0-9.5 11.952A11.27 10.3-9.1 0 0 114.4 66.37a11.27 10.3-9.1 0 0 9.5-11.952" vector-effect="non-scaling-stroke"/><path stroke="gray" d="M107.457 60.674a3.69 3.41 83.2 0 0 2.949-4.068 3.69 3.41 83.2 0 0-3.823-3.26 3.69 3.41 83.2 0 0-2.949 4.068 3.69 3.41 83.2 0 0 3.823 3.26M94.954 55.94a11.24 10.29-7.1 0 0-12.426-8.821 11.24 10.29-7.1 0 0-9.882 11.6 11.24 10.29-7.1 0 0 12.426 8.822 11.24 10.29-7.1 0 0 9.882-11.6" vector-effect="non-scaling-stroke"/><path stroke="gray" d="M81.69 57.91a3.53 3.53 0 0 0-3.53-3.53 3.53 3.53 0 0 0-3.53 3.53 3.53 3.53 0 0 0 3.53 3.53 3.53 3.53 0 0 0 3.53-3.53M108.525 58.8a.91.74 81.5 0 0 .597-1.01.91.74 81.5 0 0-.867-.79.91.74 81.5 0 0-.597 1.01.91.74 81.5 0 0 .867.79" vector-effect="non-scaling-stroke"/><path stroke="gray" d="M79.016 59.47a.91.82 131.6 0 0 1.217-.136.91.82 131.6 0 0-.009-1.225.91.82 131.6 0 0-1.217.137.91.82 131.6 0 0 .009 1.224" vector-effect="non-scaling-stroke"/><path stroke="#7a6c57" d="M96.36 69.56c-4.12-3.21-7.95 3.67-3.12 5.87q.45.2.88-.02 4.59-2.37 9.15-.59c2.82 1.09 5.22.89 5.27-2.72q0-.56-.42-.93l-3.1-2.7q-.49-.43-1.02-.05-3.07 2.15-6.86 1.49-.43-.08-.78-.35" vector-effect="non-scaling-stroke"/><path stroke="gray" d="m97.77 74.95-3.27 1.09q-.51.17-.52.71-.02 2.53 1.3 4.72.31.51.91.5c2.91-.07 2.58-4.49 2.42-6.46q-.07-.81-.84-.56M102.81 81.75c1.9-1.99 1.63-7.2-2.49-6.94q-.41.03-.5.42-.71 3 .19 5.87a1.67 1.67 0 0 0 2.8.65" vector-effect="non-scaling-stroke"/></g><path fill="#fff" d="M0 0h200v201H0V0Zm141.82 110.57q5.29-.06 6.83-5.31c1.28-4.36-4.25-7.8-7.68-8.62q-.52-.12-.51-.65c.19-12.27.27-22.07-1.84-33.27q-.09-.48.3-.77c5.73-4.09 6.38-10.76 2.28-16.26q-4.96-6.65-14.29-3.75-.45.14-.85-.12c-14.35-9.44-40.05-8.31-54.1 1.44q-.42.29-.9.13c-12.94-4.06-24.03 11.65-11.89 19.97q.4.28.33.75c-1.59 10.64-.5 21.51.5 32.19q.04.51-.46.61-6.13 1.25-8.44 7.05-.2.5.01 1c1.55 3.65 3.52 6.85 8.14 6.04q.73-.13.61.6c-2.18 12.84-2.23 28.4 5.85 39.01q.32.43-.04.82c-1.16 1.27-2.66 2.35-3.24 3.92-1.66 4.45.9 8.72 5.1 10.34 2.93 1.13 8.33-3.77 10.4-5.61a.75.75 0 0 1 .77-.15q21.86 7.67 43.39-.78.48-.18.78.23c7.83 10.87 19.92 1.57 11.12-8.55q-.3-.35-.05-.74c7.69-11.92 8.26-25.24 7.45-39.06q-.03-.45.43-.46Z"/><path d="M141.39 111.03c.81 13.82.24 27.14-7.45 39.06q-.25.39.05.74c8.8 10.12-3.29 19.42-11.12 8.55q-.3-.41-.78-.23-21.53 8.45-43.39.78a.75.75 0 0 0-.77.15c-2.07 1.84-7.47 6.74-10.4 5.61-4.2-1.62-6.76-5.89-5.1-10.34.58-1.57 2.08-2.65 3.24-3.92q.36-.39.04-.82c-8.08-10.61-8.03-26.17-5.85-39.01q.12-.73-.61-.6c-4.62.81-6.59-2.39-8.14-6.04q-.21-.5-.01-1 2.31-5.8 8.44-7.05.5-.1.46-.61c-1-10.68-2.09-21.55-.5-32.19q.07-.47-.33-.75c-12.14-8.32-1.05-24.03 11.89-19.97q.48.16.9-.13c14.05-9.75 39.75-10.88 54.1-1.44q.4.26.85.12 9.33-2.9 14.29 3.75c4.1 5.5 3.45 12.17-2.28 16.26q-.39.29-.3.77c2.11 11.2 2.03 21 1.84 33.27q-.01.53.51.65c3.43.82 8.96 4.26 7.68 8.62q-1.54 5.25-6.83 5.31-.46.01-.43.46Zm-8.13-54.04c-5.4-15.55-22.43-18.66-36.62-17.56-37.71 2.92-35.76 28.75-32.87 57.82 1.08 10.91-2.61 26.62-.35 39.55 3.96 22.63 31.76 25.51 49.33 21.48 25.35-5.81 26.24-28.06 24.84-49.21q-.84-12.77-.9-25.54c-.06-10.06-.58-18.33-3.43-26.54Zm4.1-10.27q-4.25-3.44-9.38-1.16-.5.22-.34.75c1.24 4 8.78 2.42 5.72 7.57q-.29.49-.1 1.03l1.56 4.58a.45.45 0 0 0 .64.25q7.91-4.44 2.68-12.17a4.13 4.13 0 0 0-.78-.85Zm-75.12 7.66c.03-3.25 2.16-3.29 4.62-2.91q.58.08.95-.37l2.62-3.19a.56.55 30.4 0 0-.23-.87c-9.44-3.58-17.79 7.86-8.18 13.89q.54.34.95-.15 2.64-3.15-.32-5.53-.42-.34-.41-.87Zm80.6 49.53 1.02.53q.56.29.81-.29c.96-2.14-4.39-4.17-5.85-4.31q-.46-.04-.58.4c-1.71 6.32 5.26 8.1 5.46 5.68q.04-.57-.5-.78-.57-.23-.8-.83-.3-.79.44-.4Zm-85.68.81q-.98 1.07-.7 2.33.17.76.92.56 2.83-.74 5.17-2.5.45-.34.45-.91v-3.24q0-.63-.62-.66-4.83-.23-7.22 3.77a.66.65-88.1 0 0 .86.92l.97-.49q.7-.36.17.22Zm73.56 51.61q1.17.98 1.42 2.47.08.5.56.37c3.5-.94-1.89-6.45-3.55-7.59q-.42-.28-.82.02l-4.05 3.03q-.45.34-.1.78c1.41 1.78 4.42 5.86 7.02 5.29a.84.83 70.4 0 0 .56-1.19l-1.44-2.86q-.57-1.14.4-.32Zm-61.92.95q-.58 1.32-1.46 2.49-.31.41-.12.88.51 1.3 2 1.1.5-.07.91-.37l6.79-4.89q.36-.26-.01-.49l-5.7-3.61q-.38-.24-.76.01-3.07 2.02-5.12 5.08-.87 1.31.45 2.16.17.11.37.13.47.04.66-.38.58-1.28 1.38-2.46 2.24-3.3.61.35Z"/><path fill="#6bd7e5" d="M96.64 39.43c14.19-1.1 31.22 2.01 36.62 17.56 2.85 8.21 3.37 16.48 3.43 26.54q.06 12.77.9 25.54c1.4 21.15.51 43.4-24.84 49.21-17.57 4.03-45.37 1.15-49.33-21.48-2.26-12.93 1.43-28.64.35-39.55-2.89-29.07-4.84-54.9 32.87-57.82Zm28.014 14.48a12.1 11.06-11.1 0 0-14.003-8.523 12.1 11.06-11.1 0 0-9.745 13.182 12.1 11.06-11.1 0 0 14.003 8.524 12.1 11.06-11.1 0 0 9.745-13.183ZM95.657 55.64a12 11.1-8.2 0 0-13.46-9.276 12 11.1-8.2 0 0-10.294 12.699 12 11.1-8.2 0 0 13.46 9.275 12 11.1-8.2 0 0 10.294-12.699ZM93.22 76.73q-.05 3 1.6 5.5.29.43.8.5 1.72.25 2.94-.9.41-.39.84-.02 2.27 1.93 4.58.13.47-.36.47-.95v-4.22q0-.52.52-.52H106q.43 0 .82-.19c5.2-2.65 1.2-6.23-1.55-8.22q-.4-.3-.56-.77c-1.69-4.94-8.38-3.96-10.55.04q-.23.43-.68.64c-3.44 1.58-4.8 6.26-.78 8.15q.52.25.52.83Z"/><path fill="#6bd7e5" d="M137.36 46.72a4.13 4.13 0 0 1 .78.85q5.23 7.73-2.68 12.17a.45.45 0 0 1-.64-.25l-1.56-4.58q-.19-.54.1-1.03c3.06-5.15-4.48-3.57-5.72-7.57q-.16-.53.34-.75 5.13-2.28 9.38 1.16Z"/><path d="M124.654 53.91a12.1 11.06-11.1 0 1-9.745 13.183 12.1 11.06-11.1 0 1-14.003-8.524 12.1 11.06-11.1 0 1 9.745-13.182 12.1 11.06-11.1 0 1 14.003 8.523Zm-.756.508a11.27 10.3-9.1 0 0-12.757-8.388 11.27 10.3-9.1 0 0-9.5 11.952A11.27 10.3-9.1 0 0 114.4 66.37a11.27 10.3-9.1 0 0 9.5-11.952Z"/><path fill="#fff" d="M123.898 54.418A11.27 10.3-9.1 0 1 114.4 66.37a11.27 10.3-9.1 0 1-12.757-8.388 11.27 10.3-9.1 0 1 9.499-11.952 11.27 10.3-9.1 0 1 12.757 8.388Zm-16.441 6.256a3.69 3.41 83.2 0 0 2.949-4.068 3.69 3.41 83.2 0 0-3.823-3.26 3.69 3.41 83.2 0 0-2.949 4.068 3.69 3.41 83.2 0 0 3.823 3.26Z"/><path fill="#6bd7e5" d="M66.86 51.47c-2.46-.38-4.59-.34-4.62 2.91q-.01.53.41.87 2.96 2.38.32 5.53-.41.49-.95.15c-9.61-6.03-1.26-17.47 8.18-13.89a.56.55 30.4 0 1 .23.87l-2.62 3.19q-.37.45-.95.37Z"/><path d="M95.657 55.639a12 11.1-8.2 0 1-10.294 12.697 12 11.1-8.2 0 1-13.46-9.274 12 11.1-8.2 0 1 10.294-12.698 12 11.1-8.2 0 1 13.46 9.275Zm-.703.302a11.24 10.29-7.1 0 0-12.426-8.822 11.24 10.29-7.1 0 0-9.882 11.6 11.24 10.29-7.1 0 0 12.426 8.822 11.24 10.29-7.1 0 0 9.882-11.6Z"/><path fill="#fff" d="M94.954 55.94a11.24 10.29-7.1 0 1-9.882 11.601 11.24 10.29-7.1 0 1-12.426-8.822 11.24 10.29-7.1 0 1 9.882-11.6 11.24 10.29-7.1 0 1 12.426 8.822ZM81.69 57.91a3.53 3.53 0 0 0-3.53-3.53 3.53 3.53 0 0 0-3.53 3.53 3.53 3.53 0 0 0 3.53 3.53 3.53 3.53 0 0 0 3.53-3.53Z"/><path d="M107.457 60.674a3.69 3.41 83.2 0 1-3.823-3.26 3.69 3.41 83.2 0 1 2.95-4.068 3.69 3.41 83.2 0 1 3.822 3.26 3.69 3.41 83.2 0 1-2.95 4.068Zm1.068-1.874a.91.74 81.5 0 0 .597-1.01.91.74 81.5 0 0-.867-.79.91.74 81.5 0 0-.597 1.01.91.74 81.5 0 0 .867.79ZM81.69 57.91a3.53 3.53 0 0 1-3.53 3.53 3.53 3.53 0 0 1-3.53-3.53 3.53 3.53 0 0 1 3.53-3.53 3.53 3.53 0 0 1 3.53 3.53Zm-2.674 1.56a.91.82 131.6 0 0 1.217-.136.91.82 131.6 0 0-.009-1.225.91.82 131.6 0 0-1.217.137.91.82 131.6 0 0 .009 1.224Z"/><ellipse fill="#fff" rx=".91" ry=".74" transform="rotate(81.5 20.597 91.846)"/><ellipse fill="#fff" rx=".91" ry=".82" transform="rotate(131.6 26.6 47.286)"/><path d="M92.7 75.9c-4.02-1.89-2.66-6.57.78-8.15q.45-.21.68-.64c2.17-4 8.86-4.98 10.55-.04q.16.47.56.77c2.75 1.99 6.75 5.57 1.55 8.22q-.39.19-.82.19h-1.03q-.52 0-.52.52v4.22q0 .59-.47.95-2.31 1.8-4.58-.13-.43-.37-.84.02-1.22 1.15-2.94.9-.51-.07-.8-.5-1.65-2.5-1.6-5.5 0-.58-.52-.83Zm3.66-6.34c-4.12-3.21-7.95 3.67-3.12 5.87q.45.2.88-.02 4.59-2.37 9.15-.59c2.82 1.09 5.22.89 5.27-2.72q0-.56-.42-.93l-3.1-2.7q-.49-.43-1.02-.05-3.07 2.15-6.86 1.49-.43-.08-.78-.35Zm1.41 5.39-3.27 1.09q-.51.17-.52.71-.02 2.53 1.3 4.72.31.51.91.5c2.91-.07 2.58-4.49 2.42-6.46q-.07-.81-.84-.56Zm5.04 6.8c1.9-1.99 1.63-7.2-2.49-6.94q-.41.03-.5.42-.71 3 .19 5.87a1.67 1.67 0 0 0 2.8.65Z"/><path fill="#f3d8ae" d="M97.14 69.91q3.79.66 6.86-1.49.53-.38 1.02.05l3.1 2.7q.42.37.42.93c-.05 3.61-2.45 3.81-5.27 2.72q-4.56-1.78-9.15.59-.43.22-.88.02c-4.83-2.2-1-9.08 3.12-5.87q.35.27.78.35Z"/><path fill="#fff" d="M98.61 75.51c.16 1.97.49 6.39-2.42 6.46q-.6.01-.91-.5-1.32-2.19-1.3-4.72.01-.54.52-.71l3.27-1.09q.77-.25.84.56ZM100.32 74.81c4.12-.26 4.39 4.95 2.49 6.94a1.67 1.67 0 0 1-2.8-.65q-.9-2.87-.19-5.87.09-.39.5-.42Z"/><path fill="#f3d8ae" d="M142.4 104.31q.23.6.8.83.54.21.5.78c-.2 2.42-7.17.64-5.46-5.68q.12-.44.58-.4c1.46.14 6.81 2.17 5.85 4.31q-.25.58-.81.29l-1.02-.53q-.74-.39-.44.4ZM56.99 104.5l-.97.49a.66.65-88.1 0 1-.86-.92q2.39-4 7.22-3.77.62.03.62.66v3.24q0 .57-.45.91-2.34 1.76-5.17 2.5-.75.2-.92-.56-.28-1.26.7-2.33.53-.58-.17-.22ZM130.32 156.65l1.44 2.86a.84.83 70.4 0 1-.56 1.19c-2.6.57-5.61-3.51-7.02-5.29q-.35-.44.1-.78l4.05-3.03q.4-.3.82-.02c1.66 1.14 7.05 6.65 3.55 7.59q-.48.13-.56-.37-.25-1.49-1.42-2.47-.97-.82-.4.32ZM68.19 156.93q-.8 1.18-1.38 2.46-.19.42-.66.38-.2-.02-.37-.13-1.32-.85-.45-2.16 2.05-3.06 5.12-5.08.38-.25.76-.01l5.7 3.61q.37.23.01.49l-6.79 4.89q-.41.3-.91.37-1.49.2-2-1.1-.19-.47.12-.88.88-1.17 1.46-2.49 1.63-3.65-.61-.35Z"/></svg>