<?xml version="1.0" encoding="UTF-8" standalone="no"?>
<!-- Generator: Adobe Illustrator 16.0.0, SVG Export Plug-In . SVG Version: 6.00 Build 0)  -->

<svg
   version="1.1"
   id="svg2"
   inkscape:export-ydpi="90"
   inkscape:export-xdpi="90"
   inkscape:export-filename="logo-flat.svg"
   sodipodi:docname="Nim.svg"
   inkscape:version="1.1.2 (0a00cf5339, 2022-02-04)"
   x="0px"
   y="0px"
   width="237.89352"
   height="192.40083"
   viewBox="0 0 237.89352 192.40083"
   enable-background="new 0 0 290 201"
   xml:space="preserve"
   xmlns:inkscape="http://www.inkscape.org/namespaces/inkscape"
   xmlns:sodipodi="http://sodipodi.sourceforge.net/DTD/sodipodi-0.dtd"
   xmlns="http://www.w3.org/2000/svg"
   xmlns:svg="http://www.w3.org/2000/svg"><defs
   id="defs23" />
<sodipodi:namedview
   guidetolerance="3"
   showguides="false"
   fit-margin-left="0"
   fit-margin-top="0"
   showgrid="false"
   inkscape:cy="65.435494"
   inkscape:cx="109.37345"
   inkscape:zoom="2.6514662"
   borderopacity="1.0"
   bordercolor="#666666"
   pagecolor="#222430"
   id="base"
   inkscape:snap-from-guide="true"
   inkscape:guide-bbox="true"
   inkscape:window-maximized="1"
   inkscape:window-y="840"
   inkscape:window-x="1080"
   inkscape:window-height="1052"
   inkscape:window-width="1920"
   fit-margin-bottom="0"
   fit-margin-right="0"
   inkscape:current-layer="layer2"
   inkscape:document-units="px"
   inkscape:pageshadow="2"
   inkscape:pageopacity="0"
   inkscape:pagecheckerboard="0"
   inkscape:showpageshadow="2"
   inkscape:deskcolor="#222430">
	<sodipodi:guide
   position="-148.79799,117.16951"
   orientation="0,1"
   id="guide3914"
   inkscape:locked="false" />
	<sodipodi:guide
   position="114.95201,156.41951"
   orientation="0,1"
   id="guide3918"
   inkscape:locked="false" />
	
		<inkscape:grid
   type="xygrid"
   color="#ffb400"
   originy="-30.000001"
   originx="-684.36097"
   spacingy="0.5"
   spacingx="0.5"
   empopacity="0.4627451"
   empcolor="#ff6700"
   opacity="0.2"
   enabled="true"
   visible="true"
   empspacing="7"
   id="grid3936"
   snapvisiblegridlinesonly="true">
		</inkscape:grid>
	<sodipodi:guide
   position="172.20201,112.41951"
   orientation="0,1"
   id="guide4407"
   inkscape:locked="false" />
	<sodipodi:guide
   position="176.70201,168.66951"
   orientation="0,1"
   id="guide4409"
   inkscape:locked="false" />
	<sodipodi:guide
   position="178.20201,173.66951"
   orientation="0,1"
   id="guide4411"
   inkscape:locked="false" />
</sodipodi:namedview>

<g
   id="layer2"
   transform="translate(-659.27528,-577.38123)"
   inkscape:label="Layer"
   inkscape:groupmode="layer">
	
	
	<path
   id="path3054"
   sodipodi:nodetypes="ccccccccccccccccc"
   inkscape:connector-curvature="0"
   fill="#f3d400"
   d="m 779.16559,577.38123 c 0,0 -9.11479,8.50042 -18.40868,16.94407 -9.56118,-0.35957 -28.30933,2.1669 -38.46925,6.52593 -9.35804,-6.9959 -17.58274,-14.7204 -17.58274,-14.7204 0,0 -7.02721,14.2662 -11.44562,22.63731 -6.5541,4.113 -13.13493,8.74013 -18.9994,14.85918 -6.8214,-3.19515 -14.72802,-7.09368 -14.98462,-7.223 9.03193,21.49866 15.1049,43.02887 31.62647,55.97033 26.29926,-49.01228 148.50971,-44.49554 175.35158,-0.27757 17.34752,-10.67678 24.09407,-33.64843 30.91547,-54.85691 -0.74843,0.29018 -10.02895,3.95846 -16.04846,6.66787 -3.59246,-4.61452 -12.0604,-11.71135 -16.8744,-15.13675 -4.56542,-9.86617 -11.2104,-23.19559 -11.2104,-23.19559 0,0 -7.87187,6.90758 -16.99201,14.44283 -12.32235,-2.68417 -27.22945,-5.94556 -39.76564,-5.1381 -8.53476,-8.27963 -17.1123,-17.4992 -17.1123,-17.4992 z"
   style="stroke-width:2.9036"
   inkscape:export-filename="/home/kraptor/repos/out/nim-assets/Art/l.png"
   inkscape:export-xdpi="90"
   inkscape:export-ydpi="90" /><path
   id="path3051"
   sodipodi:nodetypes="cccccccccc"
   inkscape:connector-curvature="0"
   fill="#ffe953"
   d="m 668.6146,662.09529 c 0,0 12.80349,36.58178 21.69643,62.00105 37.67805,58.65765 133.89396,62.73597 175.84073,1.13549 9.9247,-26.39705 23.31624,-63.49296 23.31624,-63.49296 -10.76134,18.81132 -28.27458,31.79694 -39.05998,38.79284 -7.66605,4.95516 -25.34769,7.9516 -25.34769,7.9516 L 778.631,680.09284 731.93437,707.91557 c 0,0 -17.44908,-3.3087 -25.34768,-7.66458 -15.94154,-10.04595 -26.66546,-21.91185 -37.97209,-38.1557 z"
   style="stroke-width:2.9036"
   inkscape:export-filename="/home/kraptor/repos/out/nim-assets/Art/l.png"
   inkscape:export-xdpi="90"
   inkscape:export-ydpi="90" />
</g>
</svg>
