<?xml version="1.0" encoding="UTF-8" standalone="no"?>
<svg
   viewBox="0 0 256 255"
   version="1.1"
   id="svg5"
   sodipodi:docname="Python.svg"
   inkscape:export-filename="Python2.svg"
   inkscape:export-xdpi="96"
   inkscape:export-ydpi="96"
   inkscape:version="1.4 (86a8ad7, 2024-10-11)"
   xmlns:inkscape="http://www.inkscape.org/namespaces/inkscape"
   xmlns:sodipodi="http://sodipodi.sourceforge.net/DTD/sodipodi-0.dtd"
   xmlns="http://www.w3.org/2000/svg"
   xmlns:svg="http://www.w3.org/2000/svg">
  <sodipodi:namedview
     id="namedview5"
     pagecolor="#ffffff"
     bordercolor="#000000"
     borderopacity="0.25"
     inkscape:showpageshadow="2"
     inkscape:pageopacity="0.0"
     inkscape:pagecheckerboard="0"
     inkscape:deskcolor="#d1d1d1"
     inkscape:zoom="1.6180267"
     inkscape:cx="34.610059"
     inkscape:cy="77.563615"
     inkscape:window-width="2560"
     inkscape:window-height="1369"
     inkscape:window-x="-8"
     inkscape:window-y="-8"
     inkscape:window-maximized="1"
     inkscape:current-layer="svg5" />
  <defs
     id="defs4">
    <linearGradient
       x1="12.959%"
       y1="12.039%"
       x2="79.639%"
       y2="78.201%"
       id="a">
      <stop
         stop-color="#387EB8"
         offset="0%"
         id="stop1" />
      <stop
         stop-color="#366994"
         offset="1"
         id="stop2"
         style="stop-color:#000080;stop-opacity:1;" />
    </linearGradient>
    <linearGradient
       x1="19.128%"
       y1="20.579%"
       x2="90.742%"
       y2="88.429%"
       id="b">
      <stop
         stop-color="#FFE052"
         offset="0"
         id="stop3"
         style="stop-color:#bf8800;stop-opacity:1;" />
      <stop
         stop-color="#FFC331"
         offset="100%"
         id="stop4" />
    </linearGradient>
  </defs>
  <path
     d="M126.916.072c-64.832 0-60.784 28.115-60.784 28.115l.072 29.128h61.868v8.745H41.631S.145 61.355.145 126.77c0 65.417 36.21 63.097 36.21 63.097h21.61v-30.356s-1.165-36.21 35.632-36.21h61.362s34.475.557 34.475-33.319V33.97S194.67.072 126.916.072zM92.802 19.66a11.12 11.12 0 0111.13 11.13 11.12 11.12 0 01-11.13 11.13 11.12 11.12 0 01-11.13-11.13 11.12 11.12 0 0111.13-11.13z"
     fill="url(#a)"
     id="path4" />
  <path
     d="M128.757 254.126c64.832 0 60.784-28.115 60.784-28.115l-.072-29.127H127.6v-8.745h86.441s41.486 4.705 41.486-60.712c0-65.416-36.21-63.096-36.21-63.096h-21.61v30.355s1.165 36.21-35.632 36.21h-61.362s-34.475-.557-34.475 33.32v56.013s-5.235 33.897 62.518 33.897zm34.114-19.586a11.12 11.12 0 01-11.13-11.13 11.12 11.12 0 0111.13-11.131 11.12 11.12 0 0111.13 11.13 11.12 11.12 0 01-11.13 11.13z"
     fill="url(#b)"
     id="path5" />
</svg>
