<?xml version="1.0" encoding="UTF-8" standalone="no"?>
<!-- Created with Inkscape (http://www.inkscape.org/) -->

<svg
   width="49.999996mm"
   height="50.000004mm"
   viewBox="0 0 49.999998 50.000005"
   version="1.1"
   id="svg5"
   xml:space="preserve"
   xmlns="http://www.w3.org/2000/svg"
   xmlns:svg="http://www.w3.org/2000/svg"><defs
     id="defs2" /><g
     id="layer1"
     transform="matrix(4.6784936,0,0,4.6339035,-435.91724,-209.92284)"><path
       id="rect1017"
       style="fill:#2cde85;fill-opacity:1;stroke-width:0.269928"
       d="m 94.715691,45.301512 c 0,0 -1.536691,1.567346 -1.540991,1.567346 v 9.222693 h 9.40356 c 0,0 1.28464,-1.26429 1.28364,-1.26969 v -9.520349 z m 1.380278,5.249809 c 0.386305,0 0.70418,0.07677 0.953947,0.22996 0.249766,0.149859 0.4346,0.362829 0.554488,0.639237 0.123218,0.273078 0.185001,0.594628 0.185001,0.964283 0,0.399625 -0.07177,0.746154 -0.214974,1.039213 -0.143199,0.289729 -0.364323,0.502699 -0.664042,0.639237 l 0.858863,0.959115 h -0.968934 l -0.654223,-0.799435 h -0.05529 c -0.386306,0 -0.706018,-0.07625 -0.959115,-0.229443 -0.249765,-0.15319 -0.43592,-0.367997 -0.559139,-0.644405 -0.119887,-0.276408 -0.179833,-0.599796 -0.179833,-0.96945 0,-0.369654 0.05995,-0.690688 0.179833,-0.963766 0.123219,-0.273078 0.309374,-0.484727 0.559139,-0.634586 0.253097,-0.153191 0.574647,-0.22996 0.964283,-0.22996 z m 2.722314,0.314709 h 0.474907 v 0.57981 h 0.76429 v 0.559139 h -0.76429 v 1.314131 c 0,0.103237 0.02997,0.181328 0.08992,0.234611 0.05995,0.04995 0.138037,0.07493 0.234611,0.07493 0.08326,0 0.163183,-0.0082 0.239778,-0.0248 0.07659,-0.01665 0.153361,-0.03664 0.229961,-0.05994 v 0.554488 c -0.0799,0.0333 -0.179836,0.06144 -0.299724,0.08475 -0.116557,0.02664 -0.24512,0.03979 -0.384989,0.03979 -0.163181,0 -0.309372,-0.0263 -0.43925,-0.07958 -0.126549,-0.05329 -0.228296,-0.145043 -0.304891,-0.274919 -0.07327,-0.133209 -0.110071,-0.316205 -0.110071,-0.549321 v -1.314131 h -0.3545 v -0.31471 l 0.409794,-0.249597 z m -2.722314,0.31471 c -0.319701,0 -0.551332,0.106743 -0.694532,0.319877 -0.143199,0.213134 -0.214457,0.507869 -0.214457,0.884184 0,0.372983 0.07126,0.667719 0.214457,0.884183 0.1432,0.213134 0.372993,0.319877 0.689364,0.319877 0.323031,0 0.554662,-0.106743 0.694531,-0.319877 0.139869,-0.216464 0.209807,-0.5112 0.209807,-0.884183 0,-0.376315 -0.06994,-0.67105 -0.209807,-0.884184 C 96.645463,51.287483 96.41567,51.18074 96.095969,51.18074 Z" /></g></svg>
