<?xml version="1.0" encoding="UTF-8" standalone="no"?>
<!-- Created with Inkscape (http://www.inkscape.org/) -->

<svg
   width="49.999996mm"
   height="50.000004mm"
   viewBox="0 0 49.999998 50.000005"
   version="1.1"
   id="svg5"
   xml:space="preserve"
   sodipodi:docname="Qt.svg"
   inkscape:version="1.4.2 (ebf0e940d0, 2025-05-08)"
   xmlns:inkscape="http://www.inkscape.org/namespaces/inkscape"
   xmlns:sodipodi="http://sodipodi.sourceforge.net/DTD/sodipodi-0.dtd"
   xmlns="http://www.w3.org/2000/svg"
   xmlns:svg="http://www.w3.org/2000/svg"><sodipodi:namedview
     id="namedview1"
     pagecolor="#ffffff"
     bordercolor="#000000"
     borderopacity="0.25"
     inkscape:showpageshadow="2"
     inkscape:pageopacity="0.0"
     inkscape:pagecheckerboard="0"
     inkscape:deskcolor="#d1d1d1"
     inkscape:document-units="mm"
     inkscape:zoom="1.5927915"
     inkscape:cx="52.737598"
     inkscape:cy="87.268168"
     inkscape:window-width="2560"
     inkscape:window-height="1408"
     inkscape:window-x="0"
     inkscape:window-y="0"
     inkscape:window-maximized="1"
     inkscape:current-layer="layer1" /><defs
     id="defs2" /><g
     id="layer1"
     transform="matrix(4.6784936,0,0,4.6339035,-435.91724,-209.92284)"><path
       id="rect1017"
       style="fill:#2cde85;fill-opacity:1;stroke-width:0.269928"
       inkscape:label="rect1017"
       d="m 94.715662,45.301513 c 0,0 -1.536661,1.567388 -1.540961,1.567388 v 9.222662 h 9.403609 c 0,0 1.2846,-1.264346 1.2836,-1.269746 v -9.520304 z"
       sodipodi:nodetypes="ccccccc" /><path
       id="rect1017-7"
       style="fill:#ffffff;fill-opacity:1;stroke-width:0.229577"
       inkscape:label="rect1017"
       d="m 96.552718,49.589698 c 0.346569,0.0043 0.710255,0.06576 0.997494,0.274584 0.208677,0.1481 0.344251,0.376876 0.434678,0.61338 0.146279,0.388324 0.189333,0.807424 0.194181,1.220122 6.14e-4,0.415586 -0.01801,0.84028 -0.154256,1.236244 -0.09125,0.269348 -0.264912,0.508486 -0.494049,0.674557 0.164896,0.26976 0.333005,0.537679 0.497901,0.807438 -0.207245,0.09646 -0.413988,0.193617 -0.621438,0.289665 -0.176558,-0.294133 -0.3522,-0.589025 -0.529372,-0.882747 -0.23957,0.03967 -0.48473,0.03663 -0.725527,0.0098 -0.288467,-0.0349 -0.582321,-0.123711 -0.80491,-0.319731 -0.171035,-0.149545 -0.278557,-0.35899 -0.352007,-0.571742 -0.120297,-0.359818 -0.152391,-0.742759 -0.157919,-1.120341 -0.0029,-0.408152 0.02265,-0.822612 0.144579,-1.21424 0.09431,-0.294546 0.250442,-0.588284 0.514154,-0.760963 0.309538,-0.206758 0.692533,-0.259311 1.056491,-0.255994 z m 2.458316,0.242621 c 0.216626,-2.06e-4 0.43331,-2.06e-4 0.649909,0 6.1e-4,0.289589 -2.4e-4,0.57893 3.8e-4,0.86852 0.27721,4.12e-4 0.554457,-1.6e-5 0.831677,1.9e-4 -0.005,0.187965 -0.01,0.375999 -0.0151,0.563964 -0.27701,6.19e-4 -0.553817,-2.4e-4 -0.830827,3.79e-4 6.1e-4,0.474663 -0.002,0.949287 0.002,1.423949 0.005,0.129923 0.003,0.267065 0.0591,0.387074 0.0413,0.09254 0.15259,0.116314 0.24322,0.119413 0.170817,-6.2e-4 0.341437,-0.01074 0.512267,-0.01385 0.0105,0.17268 0.0204,0.34557 0.0303,0.518249 -0.33982,0.05763 -0.696377,0.1266 -1.03394,0.01878 -0.142204,-0.04256 -0.274782,-0.137707 -0.332472,-0.27961 -0.103321,-0.241462 -0.111715,-0.510179 -0.116215,-0.769405 -4.08e-4,-0.468258 1.7e-5,-0.936341 -1.87e-4,-1.4046 -0.151191,-4.12e-4 -0.302369,1.46e-4 -0.453558,-4.74e-4 -4.09e-4,-0.187758 -4.09e-4,-0.375715 0,-0.56368 0.151189,-6.19e-4 0.302181,2.4e-4 0.453371,-3.79e-4 6.12e-4,-0.289587 -2.38e-4,-0.578934 3.74e-4,-0.86852 z m -2.574994,0.337657 c -0.05343,0.002 -0.106887,0.0069 -0.159516,0.01375 -0.163669,0.02334 -0.327546,0.08574 -0.445388,0.20658 -0.135435,0.141077 -0.202186,0.332911 -0.248011,0.52005 -0.111299,0.496143 -0.09186,1.012742 -0.01043,1.511777 0.027,0.157395 0.06559,0.314524 0.135561,0.458493 0.05769,0.120215 0.156497,0.218256 0.272906,0.280844 0.199472,0.105549 0.432615,0.122076 0.653567,0.105755 0.209496,-0.01653 0.427725,-0.08739 0.569299,-0.25201 0.139532,-0.164004 0.187574,-0.383091 0.221331,-0.591091 0.04808,-0.349489 0.05123,-0.704289 0.0279,-1.055844 -0.02148,-0.264184 -0.06392,-0.531765 -0.175017,-0.774053 -0.07242,-0.159874 -0.209471,-0.286113 -0.37089,-0.350557 -0.149449,-0.06027 -0.311019,-0.07948 -0.471315,-0.0737 z"
       sodipodi:nodetypes="cccccccccccccccccccccccccccccccccccccccccccccccccccc" /></g></svg>
