<?xml version="1.0" encoding="UTF-8" standalone="no"?>
<!-- Created with Inkscape (http://www.inkscape.org/) -->

<svg
   width="49.999996mm"
   height="50.000004mm"
   viewBox="0 0 49.999998 50.000005"
   version="1.1"
   id="svg5"
   xml:space="preserve"
   sodipodi:docname="Qt.svg"
   inkscape:version="1.4.2 (ebf0e940d0, 2025-05-08)"
   xmlns:inkscape="http://www.inkscape.org/namespaces/inkscape"
   xmlns:sodipodi="http://sodipodi.sourceforge.net/DTD/sodipodi-0.dtd"
   xmlns="http://www.w3.org/2000/svg"
   xmlns:svg="http://www.w3.org/2000/svg"><sodipodi:namedview
     id="namedview1"
     pagecolor="#ffffff"
     bordercolor="#000000"
     borderopacity="0.25"
     inkscape:showpageshadow="2"
     inkscape:pageopacity="0.0"
     inkscape:pagecheckerboard="0"
     inkscape:deskcolor="#d1d1d1"
     inkscape:document-units="mm"
     inkscape:zoom="1.5927915"
     inkscape:cx="52.737599"
     inkscape:cy="87.26817"
     inkscape:window-width="2560"
     inkscape:window-height="1408"
     inkscape:window-x="0"
     inkscape:window-y="0"
     inkscape:window-maximized="1"
     inkscape:current-layer="layer1" /><defs
     id="defs2" /><g
     id="layer1"
     transform="matrix(4.6784936,0,0,4.6339035,-435.91724,-209.92284)"><path
       id="rect1017"
       style="fill:#2cde85;fill-opacity:1;stroke-width:0.269928"
       inkscape:label="rect1017"
       d="M 94.715662 45.301513 C 94.715662 45.301513 93.179001 46.868901 93.174701 46.868901 L 93.174701 56.091563 L 102.57831 56.091563 C 102.57831 56.091563 103.86291 54.827217 103.86191 54.821817 L 103.86191 45.301513 L 94.715662 45.301513 z M 96.552754 49.58972 C 96.899323 49.59402 97.262927 49.655454 97.550166 49.864278 C 97.758843 50.012378 97.894491 50.241124 97.984918 50.477628 C 98.131197 50.865952 98.17425 51.28505 98.179098 51.697748 C 98.179712 52.113334 98.161038 52.538074 98.024792 52.934038 C 97.933542 53.203386 97.759862 53.44254 97.530725 53.608611 C 97.695621 53.878371 97.863762 54.146244 98.028658 54.416003 C 97.821413 54.512463 97.614686 54.609679 97.407236 54.705727 C 97.230678 54.411594 97.054996 54.116671 96.877824 53.822949 C 96.638254 53.862619 96.393151 53.859593 96.152354 53.832763 C 95.863887 53.797863 95.570055 53.70906 95.347466 53.51304 C 95.176431 53.363495 95.068895 53.154039 94.995445 52.941287 C 94.875148 52.581469 94.843022 52.198557 94.837494 51.820975 C 94.834594 51.412823 94.860151 50.998282 94.98208 50.606654 C 95.07639 50.312108 95.232538 50.018445 95.49625 49.845766 C 95.805788 49.639008 96.188796 49.586403 96.552754 49.58972 z M 99.011378 49.832272 C 99.227894 49.832067 99.444477 49.832066 99.660966 49.832272 C 99.661576 50.121861 99.660677 50.411297 99.661297 50.700887 C 99.938507 50.701299 100.21581 50.700793 100.49303 50.700999 C 100.48803 50.888964 100.48299 51.076981 100.47789 51.264946 C 100.20088 51.265565 99.924059 51.264773 99.647049 51.265392 C 99.647659 51.740055 99.645037 52.214705 99.649037 52.689367 C 99.654037 52.81929 99.65203 52.956438 99.70813 53.076447 C 99.74943 53.168987 99.860723 53.192672 99.951353 53.195771 C 100.12217 53.195151 100.29281 53.185053 100.46364 53.181943 C 100.47414 53.354623 100.48401 53.527489 100.49391 53.700168 C 100.15409 53.757798 99.797611 53.826834 99.460048 53.719014 C 99.317844 53.676454 99.185267 53.58123 99.127577 53.439327 C 99.024256 53.197865 99.015878 52.929189 99.011378 52.669963 C 99.01097 52.201705 99.011362 51.733651 99.011158 51.265392 C 98.859967 51.26498 98.708817 51.265566 98.557628 51.264946 C 98.557219 51.077188 98.557219 50.889187 98.557628 50.701222 C 98.708817 50.700603 98.859747 50.701506 99.010937 50.700887 C 99.011549 50.4113 99.010766 50.121858 99.011378 49.832272 z M 96.436003 50.169949 C 96.382573 50.171949 96.329135 50.176927 96.276506 50.183777 C 96.112837 50.207117 95.948992 50.269469 95.83115 50.390309 C 95.695715 50.531386 95.629003 50.723179 95.583178 50.910318 C 95.471879 51.406461 95.491255 51.923135 95.572685 52.42217 C 95.599685 52.579565 95.638242 52.736652 95.708213 52.880621 C 95.765903 53.000836 95.864739 53.098835 95.981148 53.161423 C 96.18062 53.266972 96.41376 53.283575 96.634712 53.267254 C 96.844208 53.250724 97.062425 53.179843 97.203999 53.015223 C 97.343531 52.851219 97.391594 52.632177 97.425351 52.424177 C 97.473431 52.074688 97.476626 51.719878 97.453296 51.368323 C 97.431816 51.104139 97.389322 50.836564 97.278225 50.594276 C 97.205805 50.434402 97.068735 50.308107 96.907316 50.243663 C 96.757867 50.183393 96.596299 50.164169 96.436003 50.169949 z " /></g></svg>
