<?xml version="1.0" encoding="UTF-8" standalone="no"?>
<!-- Created with Inkscape (http://www.inkscape.org/) -->

<svg
   width="49.999996mm"
   height="50.000004mm"
   viewBox="0 0 49.999998 50.000005"
   version="1.1"
   id="svg5"
   xml:space="preserve"
   sodipodi:docname="Qt.svg"
   inkscape:version="1.4.2 (ebf0e940d0, 2025-05-08)"
   xmlns:inkscape="http://www.inkscape.org/namespaces/inkscape"
   xmlns:sodipodi="http://sodipodi.sourceforge.net/DTD/sodipodi-0.dtd"
   xmlns="http://www.w3.org/2000/svg"
   xmlns:svg="http://www.w3.org/2000/svg"><sodipodi:namedview
     id="namedview1"
     pagecolor="#ffffff"
     bordercolor="#000000"
     borderopacity="0.25"
     inkscape:showpageshadow="2"
     inkscape:pageopacity="0.0"
     inkscape:pagecheckerboard="0"
     inkscape:deskcolor="#d1d1d1"
     inkscape:document-units="mm"
     inkscape:zoom="3.1855831"
     inkscape:cx="35.472313"
     inkscape:cy="77.85074"
     inkscape:window-width="2560"
     inkscape:window-height="1408"
     inkscape:window-x="0"
     inkscape:window-y="0"
     inkscape:window-maximized="1"
     inkscape:current-layer="layer1" /><defs
     id="defs2" /><g
     id="layer1"
     transform="matrix(4.6784936,0,0,4.6339035,-435.91724,-209.92284)"><path
       id="rect1017"
       style="fill:#2cde85;fill-opacity:1;stroke-width:0.269928"
       inkscape:label="rect1017"
       d="M 94.715662 45.301513 C 94.715662 45.301513 93.179001 46.868901 93.174701 46.868901 L 93.174701 56.091563 L 102.57831 56.091563 C 102.57831 56.091563 103.86291 54.827217 103.86191 54.821817 L 103.86191 45.301513 L 94.715662 45.301513 z M 96.911624 48.171767 C 97.388184 48.171767 97.780292 48.26638 98.088414 48.455358 C 98.396535 48.640229 98.624566 48.903027 98.772464 49.244014 C 98.924471 49.580894 99.000664 49.977557 99.000664 50.433578 C 99.000664 50.92657 98.912121 51.354062 98.735461 51.715591 C 98.558806 52.073012 98.28607 52.335698 97.916325 52.504136 L 98.975812 53.687343 L 97.780465 53.687343 L 96.973479 52.701188 L 96.905217 52.701188 C 96.428655 52.701188 96.034249 52.607135 95.72202 52.418155 C 95.4139 52.229174 95.184234 51.964129 95.032227 51.623142 C 94.884329 51.282154 94.810433 50.883241 94.810433 50.427222 C 94.810433 49.971203 94.884337 49.575095 95.032227 49.238215 C 95.184234 48.901336 95.4139 48.640229 95.72202 48.455358 C 96.034249 48.266375 96.430953 48.171767 96.911624 48.171767 z M 100.26991 48.559962 L 100.85576 48.559962 L 100.85576 49.275239 L 101.79861 49.275239 L 101.79861 49.964979 L 100.85576 49.964979 L 100.85576 51.586118 C 100.85576 51.713475 100.89274 51.809887 100.96677 51.875619 C 101.04077 51.937239 101.13702 51.968068 101.25616 51.968068 C 101.35887 51.968068 101.45747 51.95789 101.55196 51.9374 C 101.64646 51.91686 101.74112 51.892204 101.83561 51.863464 L 101.83561 52.547516 C 101.73701 52.588596 101.61382 52.623369 101.46592 52.65212 C 101.32213 52.68499 101.16351 52.701188 100.99096 52.701188 C 100.78966 52.701188 100.60928 52.668661 100.44906 52.602941 C 100.29294 52.537201 100.16745 52.424033 100.07296 52.263814 C 99.982564 52.099482 99.937215 51.873811 99.937215 51.58623 L 99.937215 49.964979 L 99.499812 49.964979 L 99.499812 49.576784 L 100.00537 49.268883 L 100.26991 48.559962 z M 96.911624 48.948156 C 96.51723 48.948156 96.231479 49.079889 96.054822 49.342819 C 95.878165 49.60575 95.790282 49.969341 95.790282 50.433578 C 95.790282 50.893704 95.878169 51.2573 96.054822 51.524337 C 96.231479 51.787267 96.51493 51.918888 96.905217 51.918888 C 97.303721 51.918888 97.589472 51.787267 97.762019 51.524337 C 97.934566 51.2573 98.020815 50.893704 98.020815 50.433578 C 98.020815 49.969341 97.934565 49.60575 97.762019 49.342819 C 97.589472 49.079889 97.30602 48.948156 96.911624 48.948156 z " /></g></svg>
