<?xml version="1.0" encoding="UTF-8" standalone="no"?>
<!-- Created with Inkscape (http://www.inkscape.org/) -->

<svg
   width="49.999996mm"
   height="50.000004mm"
   viewBox="0 0 49.999998 50.000005"
   version="1.1"
   id="svg5"
   xml:space="preserve"
   sodipodi:docname="Qt.svg"
   inkscape:version="1.4.2 (ebf0e940d0, 2025-05-08)"
   xmlns:inkscape="http://www.inkscape.org/namespaces/inkscape"
   xmlns:sodipodi="http://sodipodi.sourceforge.net/DTD/sodipodi-0.dtd"
   xmlns="http://www.w3.org/2000/svg"
   xmlns:svg="http://www.w3.org/2000/svg"><sodipodi:namedview
     id="namedview1"
     pagecolor="#ffffff"
     bordercolor="#000000"
     borderopacity="0.25"
     inkscape:showpageshadow="2"
     inkscape:pageopacity="0.0"
     inkscape:pagecheckerboard="0"
     inkscape:deskcolor="#d1d1d1"
     inkscape:document-units="mm"
     inkscape:zoom="1.1262737"
     inkscape:cx="-54.160902"
     inkscape:cy="-3.5515346"
     inkscape:window-width="2560"
     inkscape:window-height="1408"
     inkscape:window-x="0"
     inkscape:window-y="0"
     inkscape:window-maximized="1"
     inkscape:current-layer="layer1" /><defs
     id="defs2" /><g
     id="layer1"
     transform="matrix(4.6784936,0,0,4.6339035,-435.91724,-209.92284)"><path
       id="rect1017"
       style="fill:#2cde85;fill-opacity:1;stroke-width:0.269928"
       inkscape:label="rect1017"
       d="m 94.715662,45.301513 c 0,0 -1.536661,1.567388 -1.540961,1.567388 v 9.222662 h 9.403609 c 0,0 1.2846,-1.264346 1.2836,-1.269746 v -9.520304 z m 1.996543,3.659372 c 0.407482,0.0051 0.83509,0.07732 1.172814,0.322845 0.245354,0.17413 0.404757,0.443115 0.511077,0.721188 0.171989,0.456575 0.222611,0.949337 0.228311,1.43457 7.22e-4,0.48863 -0.02117,0.987968 -0.181368,1.453527 -0.107283,0.316688 -0.311474,0.597858 -0.580884,0.793117 0.193879,0.317173 0.391534,0.632181 0.585413,0.949354 -0.243671,0.113415 -0.486751,0.227647 -0.730662,0.340576 -0.20759,-0.34583 -0.414103,-0.692553 -0.622415,-1.037899 -0.281677,0.04664 -0.569926,0.04307 -0.853046,0.01149 -0.339168,-0.04104 -0.68467,-0.145455 -0.946381,-0.375927 -0.201096,-0.175829 -0.327516,-0.422086 -0.413876,-0.672232 -0.14144,-0.423059 -0.179175,-0.873307 -0.185675,-1.317252 -0.0034,-0.479889 0.02663,-0.967194 0.16999,-1.427655 0.110891,-0.346315 0.29446,-0.691681 0.604522,-0.89471 0.363943,-0.243098 0.814253,-0.304888 1.24218,-0.300988 z m 2.890391,0.285264 c 0.2547,-2.42e-4 0.509464,-2.43e-4 0.764134,0 7.2e-4,0.340487 -2.8e-4,0.680683 4.4e-4,1.021171 0.32594,4.85e-4 0.65192,-1.9e-5 0.97786,2.23e-4 -0.006,0.221002 -0.0116,0.442085 -0.0178,0.663087 -0.3257,7.28e-4 -0.65116,-2.82e-4 -0.97686,4.46e-4 7.2e-4,0.558089 -0.002,1.116134 0.002,1.674222 0.006,0.152759 0.003,0.314004 0.0695,0.455106 0.0486,0.108799 0.17941,0.136758 0.28597,0.140401 0.20084,-7.29e-4 0.40145,-0.01263 0.60231,-0.01628 0.0123,0.20303 0.024,0.406307 0.0356,0.609336 -0.39955,0.06776 -0.81878,0.148851 -1.21567,0.02208 -0.167194,-0.05004 -0.323074,-0.161911 -0.390904,-0.328755 -0.12148,-0.283901 -0.13135,-0.599848 -0.13664,-0.904635 -4.8e-4,-0.55056 2e-5,-1.100913 -2.2e-4,-1.651473 -0.177765,-4.85e-4 -0.355514,1.71e-4 -0.533276,-5.57e-4 -4.81e-4,-0.220759 -4.81e-4,-0.441751 0,-0.662753 0.177762,-7.28e-4 0.355293,2.82e-4 0.533056,-4.46e-4 7.2e-4,-0.340485 -2.8e-4,-0.680687 4.4e-4,-1.021171 z m -3.027576,0.397004 c -0.06282,0.0023 -0.125673,0.0081 -0.187553,0.01617 -0.192435,0.02744 -0.385115,0.100814 -0.523669,0.242887 -0.159239,0.165873 -0.237722,0.391424 -0.291602,0.611454 -0.13086,0.583346 -0.108,1.190742 -0.01226,1.777488 0.03175,0.185058 0.07712,0.369805 0.159387,0.539078 0.06783,0.141344 0.184003,0.256616 0.320872,0.330206 0.234531,0.1241 0.508651,0.143532 0.768438,0.124342 0.246317,-0.01943 0.502902,-0.102746 0.669359,-0.296303 0.164056,-0.19283 0.220542,-0.450423 0.260232,-0.694981 0.05653,-0.410916 0.06023,-0.828076 0.0328,-1.24142 -0.02526,-0.310617 -0.07516,-0.625228 -0.205778,-0.9101 -0.08515,-0.187974 -0.246287,-0.336401 -0.436077,-0.412171 -0.175716,-0.07086 -0.365684,-0.09345 -0.554154,-0.08665 z"
       sodipodi:nodetypes="cccccccccccccccccccccccccccccccccccccccccccccccccccccccc" /></g></svg>
