<?xml version="1.0" encoding="UTF-8" standalone="no"?>
<svg
   role="img"
   viewBox="0 0 24 24"
   id="Raylib--Streamline-Simple-Icons"
   height="24"
   width="24"
   version="1.1"
   xmlns="http://www.w3.org/2000/svg"
   xmlns:svg="http://www.w3.org/2000/svg">
  <defs
     id="defs1">
    <linearGradient
       id="swatch1">
      <stop
         style="stop-color:#ffffff;stop-opacity:1;"
         offset="0"
         id="stop1" />
    </linearGradient>
  </defs>
  <desc
     id="desc1">Raylib Streamline Icon: https://streamlinehq.com</desc>
  <title
     id="title1">Raylib</title>
  <rect
     style="mix-blend-mode:normal;fill:#ffffff;fill-opacity:1;stroke:none;stroke-width:0.87748;stroke-opacity:0;paint-order:fill markers stroke"
     id="rect1"
     width="24"
     height="24"
     x="-24"
     y="0"
     transform="scale(-1,1)" />
  <path
     d="M 0,0 V 24 H 24 V 0 Z m 1.5,1.5 h 21 v 21 H 1.5 Z M 16.313,16.969 V 20.25 H 17.25 V 19.781 H 16.781 V 16.97 h -0.468 z m 1.406,0 v 0.468 h 0.468 v -0.468 z m 0.937,0 V 20.25 H 21 V 17.906 H 19.125 V 16.969 Z M 7.875,17.906 v 2.344 h 0.469 v -1.875 h 1.875 v -0.469 z m 2.813,0 v 0.469 h 1.874 v 0.469 h -1.874 v 1.406 h 2.343 v -2.344 h -2.344 z m 2.812,0 v 2.344 h 1.875 v 0.469 H 13.5 v 0.468 h 2.344 v -3.28 h -0.469 v 1.874 h -1.406 v -1.875 z m 4.219,0 v 2.344 h 0.468 v -2.344 z m 1.406,0.469 h 1.406 v 1.406 h -1.406 z m -7.969,0.938 h 1.406 v 0.468 h -1.406 z"
     fill="#000000"
     stroke-width="1"
     id="path1" />
</svg>
