<?xml version="1.0" encoding="UTF-8" standalone="no"?>
<svg
   role="img"
   viewBox="0 0 50 50"
   id="Raylib--Streamline-Simple-Icons"
   height="50"
   width="50"
   version="1.1"
   xmlns="http://www.w3.org/2000/svg"
   xmlns:svg="http://www.w3.org/2000/svg">
  <defs
     id="defs1" />
  <desc
     id="desc1">Raylib Streamline Icon: https://streamlinehq.com</desc>
  <title
     id="title1">Raylib</title>
  <rect
     style="mix-blend-mode:normal;fill:#ffffff;fill-opacity:1;stroke:none;stroke-width:1.82808;stroke-opacity:0;paint-order:fill markers stroke"
     id="rect1"
     width="50"
     height="50"
     x="-50"
     y="0"
     transform="scale(-1,1)" />
  <path
     d="M 0,0 V 50 H 50 V 0 Z m 3.125,3.125 h 43.75 v 43.75 H 3.125 Z M 33.985417,35.352083 V 42.1875 H 35.9375 v -0.977083 h -0.977083 v -5.85625 h -0.975 z m 2.929166,0 v 0.975 h 0.975 v -0.975 z m 1.952084,0 V 42.1875 H 43.75 V 37.304167 H 39.84375 V 35.352083 Z M 16.40625,37.304167 V 42.1875 h 0.977083 v -3.90625 h 3.90625 v -0.977083 z m 5.860417,0 v 0.977083 h 3.904166 v 0.977083 H 22.266667 V 42.1875 h 4.88125 v -4.883333 h -4.883334 z m 5.858333,0 V 42.1875 h 3.90625 v 0.977083 H 28.125 v 0.975 h 4.883333 V 37.30625 H 32.03125 v 3.904167 h -2.929167 v -3.90625 z m 8.789583,0 V 42.1875 h 0.975 v -4.883333 z m 2.929167,0.977083 h 2.929167 v 2.929167 H 39.84375 Z m -16.602083,1.954167 h 2.929166 v 0.975 h -2.929166 z"
     fill="#000000"
     stroke-width="2.08334"
     id="path1" />
</svg>
