<?xml version="1.0" encoding="UTF-8" standalone="no"?>
<svg
   viewBox="0 0 32 32"
   version="1.1"
   id="svg2"
   sodipodi:docname="Svelte.svg"
   xml:space="preserve"
   inkscape:export-filename="Svelte.svg"
   inkscape:export-xdpi="96"
   inkscape:export-ydpi="96"
   inkscape:version="1.4 (86a8ad7, 2024-10-11)"
   xmlns:inkscape="http://www.inkscape.org/namespaces/inkscape"
   xmlns:sodipodi="http://sodipodi.sourceforge.net/DTD/sodipodi-0.dtd"
   xmlns="http://www.w3.org/2000/svg"
   xmlns:svg="http://www.w3.org/2000/svg"><defs
     id="defs2" /><sodipodi:namedview
     id="namedview2"
     pagecolor="#ffffff"
     bordercolor="#000000"
     borderopacity="0.25"
     inkscape:showpageshadow="2"
     inkscape:pageopacity="0.0"
     inkscape:pagecheckerboard="0"
     inkscape:deskcolor="#d1d1d1"
     inkscape:zoom="18.234375"
     inkscape:cx="11.023136"
     inkscape:cy="17.412168"
     inkscape:window-width="2560"
     inkscape:window-height="1369"
     inkscape:window-x="-8"
     inkscape:window-y="-8"
     inkscape:window-maximized="1"
     inkscape:current-layer="svg2" /><path
     d="M 27.976716,4.2190531 A 10.264678,10.264678 0 0 0 14.486095,1.4117958 L 6.802171,6.1637709 a 8.5350231,8.5350231 0 0 0 -3.9820956,5.7300541 8.7924122,8.7924122 0 0 0 0.9151612,5.786107 8.4171961,8.4171961 0 0 0 -1.3166883,3.203065 8.9102393,8.9102393 0 0 0 1.6015323,6.89574 10.269254,10.269254 0 0 0 13.4917664,2.811833 l 7.685067,-4.75083 a 8.5430308,8.5430308 0 0 0 3.982095,-5.730055 8.7775409,8.7775409 0 0 0 -0.915161,-5.790682 8.4057566,8.4057566 0 0 0 1.317833,-3.203065 8.9056635,8.9056635 0 0 0 -1.604965,-6.8968849"
     fill="#ff3e00"
     id="path1"
     style="stroke-width:1.14395;fill:#de3423;fill-opacity:1" /><path
     d="M 13.736807,28.173401 A 6.1922102,6.1922102 0 0 1 7.1911145,25.818004 5.3514058,5.3514058 0 0 1 6.2210436,21.67118 4.9269997,4.9269997 0 0 1 6.4029319,20.973369 l 0.1452818,-0.428982 0.3935194,0.27226 a 10.021016,10.021016 0 0 0 3.0063052,1.457395 l 0.2802667,0.08351 -0.02859,0.271117 a 1.6484344,1.6484344 0 0 0 0.310011,1.107345 1.8646412,1.8646412 0 0 0 1.993909,0.727554 1.7296549,1.7296549 0 0 0 0.470163,-0.200192 l 7.664477,-4.751975 a 1.5626379,1.5626379 0 0 0 0.724121,-1.039852 1.60954,1.60954 0 0 0 -0.279124,-1.248051 1.8692169,1.8692169 0 0 0 -1.97446,-0.711538 1.726223,1.726223 0 0 0 -0.472453,0.201335 l -2.942243,1.81202 A 5.6442573,5.6442573 0 0 1 14.133757,19.191093 6.1944981,6.1944981 0 0 1 7.582346,16.834552 5.3514058,5.3514058 0 0 1 6.6317222,12.684296 5.15579,5.15579 0 0 1 9.0214372,9.2410008 L 16.695066,4.4890257 a 5.6419695,5.6419695 0 0 1 1.560349,-0.664636 6.1922102,6.1922102 0 0 1 6.552556,2.3553965 5.3525497,5.3525497 0 0 1 0.97007,4.1468248 4.8869614,4.8869614 0 0 1 -0.181888,0.697811 l -0.145282,0.428982 -0.393519,-0.271117 A 9.9672506,9.9672506 0 0 0 22.051047,9.7248922 l -0.280268,-0.084652 0.02859,-0.2711166 A 1.6450024,1.6450024 0 0 0 21.488222,8.2617781 1.8634972,1.8634972 0 0 0 19.514906,7.5502402 1.6976243,1.6976243 0 0 0 19.044742,7.7515757 l -7.689644,4.7359603 a 1.5477666,1.5477666 0 0 0 -0.721833,1.038708 1.5946685,1.5946685 0 0 0 0.279124,1.249195 1.8692169,1.8692169 0 0 0 1.974461,0.710394 1.7593976,1.7593976 0 0 0 0.472452,-0.200192 l 2.930804,-1.813163 a 5.605363,5.605363 0 0 1 1.560351,-0.664636 6.1967861,6.1967861 0 0 1 6.552554,2.355396 5.3548376,5.3548376 0 0 1 0.964352,4.146826 5.1477824,5.1477824 0 0 1 -2.389715,3.446726 l -7.672484,4.751974 a 5.605363,5.605363 0 0 1 -1.56035,0.664637"
     fill="#ffffff"
     id="path2"
     style="stroke-width:1.14395" /></svg>
