<?xml version="1.0" encoding="UTF-8" standalone="no"?>
<svg
   viewBox="0 0 188784.28 226824.12"
   version="1.1"
   id="svg2"
   width="188784.28"
   height="226824.12"
   xmlns="http://www.w3.org/2000/svg"
   xmlns:svg="http://www.w3.org/2000/svg">
  <defs
     id="defs2" />
  <path
     d="m -36275.448,-17566.834 c -41.1,-58.9 -122.4,-76.3 -181.2,-38.9 l -103.2,65.8 c -28.2,17.7 -47.6,46.5 -53.5,79.3 -4.9,27.3 -0.6,55.5 12.3,80 -8.8,13.4 -14.9,28.5 -17.7,44.2 -5.9,33.4 1.8,67.8 21.6,95.4 41.2,58.9 122.4,76.3 181.2,38.9 l 103.2,-65.8 c 28.2,-17.7 47.6,-46.5 53.5,-79.3 4.9,-27.3 0.6,-55.5 -12.3,-80 8.8,-13.4 14.9,-28.4 17.7,-44.2 5.8,-33.4 -1.9,-67.8 -21.6,-95.4"
     style="fill:#000000;fill-opacity:1"
     id="path1" />
  <path
     d="m -36466.748,-17235.434 c -33.3,8.6 -68.4,-4.4 -88,-32.6 -11.9,-16.6 -16.5,-37.3 -13,-57.4 0.6,-3.3 1.4,-6.5 2.5,-9.6 l 1.9,-5.9 5.3,3.9 c 12.2,9 25.9,15.8 40.4,20.2 l 3.8,1.2 -0.4,3.8 c -0.5,5.4 1,10.9 4.2,15.3 5.9,8.5 16.5,12.4 26.5,9.8 2.2,-0.6 4.4,-1.5 6.3,-2.8 l 103.2,-65.8 c 5.1,-3.2 8.6,-8.4 9.7,-14.4 1.1,-6.1 -0.3,-12.3 -3.9,-17.3 -5.9,-8.5 -16.5,-12.4 -26.5,-9.8 -2.2,0.6 -4.4,1.5 -6.3,2.8 l -39.3,25.1 c -6.5,4.1 -13.5,7.2 -21,9.2 -33.3,8.6 -68.4,-4.4 -88,-32.6 -11.9,-16.6 -16.5,-37.3 -13,-57.4 3.5,-19.7 15.2,-37 32.2,-47.7 l 103.2,-65.8 c 6.5,-4.1 13.5,-7.2 21,-9.2 33.3,-8.6 68.4,4.4 88,32.6 11.9,16.6 16.5,37.3 13,57.4 -0.6,3.3 -1.4,6.5 -2.5,9.6 l -1.9,5.9 -5.3,-3.9 c -12.2,-9 -25.9,-15.8 -40.4,-20.2 l -3.8,-1.2 0.4,-3.8 c 0.5,-5.4 -1,-10.9 -4.2,-15.3 -5.9,-8.5 -16.5,-12.4 -26.5,-9.8 -2.2,0.6 -4.4,1.5 -6.3,2.8 l -103.2,65.8 c -5.1,3.2 -8.6,8.4 -9.7,14.4 -1.1,6.1 0.3,12.3 3.9,17.3 5.9,8.5 16.5,12.4 26.5,9.8 2.2,-0.6 4.4,-1.5 6.3,-2.8 l 39.3,-25.1 c 6.5,-4.1 13.5,-7.2 21,-9.2 33.3,-8.6 68.4,4.4 88,32.6 11.9,16.6 16.5,37.3 13,57.4 -3.5,19.7 -15.2,37 -32.2,47.7 l -103.2,65.8 c -6.5,4.1 -13.6,7.2 -21,9.2"
     style="fill:#ffffff"
     id="path2" />
</svg>
