<?xml version="1.0" encoding="UTF-8" standalone="no"?>
<svg
   viewBox="0 0 187.26623 225"
   version="1.1"
   id="svg2"
   width="187.26624"
   height="225"
   sodipodi:docname="Svelte.svg"
   xml:space="preserve"
   inkscape:export-filename="Svelte.svg"
   inkscape:export-xdpi="96"
   inkscape:export-ydpi="96"
   inkscape:version="1.4 (86a8ad7, 2024-10-11)"
   xmlns:inkscape="http://www.inkscape.org/namespaces/inkscape"
   xmlns:sodipodi="http://sodipodi.sourceforge.net/DTD/sodipodi-0.dtd"
   xmlns:xlink="http://www.w3.org/1999/xlink"
   xmlns="http://www.w3.org/2000/svg"
   xmlns:svg="http://www.w3.org/2000/svg"><sodipodi:namedview
     id="namedview1"
     pagecolor="#ffffff"
     bordercolor="#000000"
     borderopacity="0.25"
     inkscape:showpageshadow="2"
     inkscape:pageopacity="0.0"
     inkscape:pagecheckerboard="0"
     inkscape:deskcolor="#d1d1d1"
     inkscape:zoom="1.8337636"
     inkscape:cx="70.347127"
     inkscape:cy="95.704812"
     inkscape:window-width="2560"
     inkscape:window-height="1369"
     inkscape:window-x="-8"
     inkscape:window-y="-8"
     inkscape:window-maximized="1"
     inkscape:current-layer="svg2" /><defs
     id="defs2"><linearGradient
       id="linearGradient1"><stop
         style="stop-color:#007acc;stop-opacity:1;"
         offset="0"
         id="stop1" /><stop
         style="stop-color:#a800ff;stop-opacity:1;"
         offset="1"
         id="stop2" /></linearGradient><linearGradient
       xlink:href="#linearGradient1"
       id="linearGradient2"
       x1="-21842.883"
       y1="-5137.8906"
       x2="-21699.43"
       y2="-5017.5186"
       gradientUnits="userSpaceOnUse"
       gradientTransform="translate(21864.789,5190.2045)" /></defs><path
     d="m 175.33853,29.765493 c -20.874,-29.91400003 -62.164,-38.751 -92.028007,-19.756 l -52.413,33.418 c -14.323,8.99 -24.1759995,23.617 -27.1719995,40.275 -2.489,13.866 -0.305,28.187997 6.247,40.630997 -4.469,6.806 -7.568,14.475 -8.98999999,22.448 -2.99600001,16.964 0.91499999,34.435 10.97099949,48.452 20.924,29.915 62.164,38.752 92.028007,19.757 l 52.413,-33.419 c 14.323,-8.989 24.176,-23.616 27.172,-40.275 2.489,-13.865 0.305,-28.187 -6.247,-40.63 4.47,-6.805997 7.568,-14.423997 8.99,-22.448997 2.945,-16.963 -0.965,-34.434 -10.971,-48.452"
     style="fill:url(#linearGradient2);stroke-width:0.50788"
     id="path1" /><path
     d="m 80.026423,204.21169 c -17.5145,4.5234 -35.9755,-2.3134 -46.2835,-17.1458 -6.2589,-8.7298 -8.678,-19.6177 -6.8378,-30.1887 0.3159,-1.7357 0.7363,-3.4184 1.3152,-5.0495 l 0.9993,-3.1025 2.7877,2.0514 c 6.4164,4.7336 13.6218,8.3094 21.2477,10.6239 l 1.9987,0.6306 -0.2102,1.9987 c -0.2631,2.8405 0.526,5.7329 2.2088,8.0473 3.1036,4.4706 8.678,6.522 13.9377,5.154 1.1567,-0.3158 2.3144,-0.7891 3.3138,-1.4725 l 54.276907,-34.6075 c 2.6821,-1.6828 4.5234,-4.4177 5.1023,-7.5731 0.5778,-3.2082 -0.1585,-6.4692 -2.0515,-9.0995 -3.1036,-4.4705 -8.678,-6.5209 -13.9376,-5.154 -1.1568,0.3159 -2.3145,0.7891 -3.3138,1.4726 l -20.668907,13.2014 c -3.4194,2.156 -7.1008,3.787 -11.0453,4.8391 -17.5134,4.5223 -35.9744,-2.3144 -46.2834,-17.1458 -6.2579,-8.7308 -8.6781,-19.6177 -6.8368,-30.189797 1.8412,-10.3608 7.9945,-19.4592 16.9356,-25.0875 l 54.277007,-34.6065 c 3.4184,-2.1571 7.1008,-3.787 11.0453,-4.8392 17.5134,-4.5233 35.9744,2.3145 46.2824,17.1459 6.259,8.7308 8.678,19.6177 6.8378,30.1887 -0.3158,1.7366 -0.7363,3.4194 -1.3151,5.0494 l -0.9994,3.1036 -2.7877,-2.0515 c -6.4163,-4.7335 -13.6218,-8.3104 -21.2477,-10.6238 l -1.9986,-0.6317 0.2102,-1.9986 c 0.263,-2.8395 -0.5261,-5.7329 -2.2089,-8.0464 -3.1025,-4.4705 -8.678,-6.5219 -13.9376,-5.155 -1.1567,0.3159 -2.3134,0.7891 -3.3128,1.4736 l -54.278007,34.6065 c -2.6821,1.6828 -4.5233,4.4177 -5.1012,7.5741 -0.5788,3.208197 0.1574,6.469097 2.0504,9.098397 3.1036,4.4706 8.6781,6.522 13.9377,5.154 1.1578,-0.3148 2.3145,-0.7891 3.3138,-1.4725 l 20.6698,-13.201397 c 3.418407,-2.156 7.099907,-3.786 11.044307,-4.8381 17.5145,-4.5234 35.9745,2.3144 46.2835,17.145797 6.2589,8.7308 8.678,19.6177 6.8368,30.1887 -1.8402,10.3619 -7.9935,19.4603 -16.9346,25.0876 l -54.278007,34.6075 c -3.4184,2.156 -7.1526,3.787 -11.0443,4.8381"
     style="fill:#ffffff;stroke-width:0.525942"
     id="path2" /></svg>
