<?xml version="1.0" encoding="UTF-8" standalone="no"?>
<svg
   viewBox="0 0 191760.45 230400"
   version="1.1"
   id="svg2"
   width="191760.45"
   height="230400"
   sodipodi:docname="Svelte.svg"
   inkscape:export-filename="Svelte.svg"
   inkscape:export-xdpi="96"
   inkscape:export-ydpi="96"
   inkscape:version="1.4 (86a8ad7, 2024-10-11)"
   xmlns:inkscape="http://www.inkscape.org/namespaces/inkscape"
   xmlns:sodipodi="http://sodipodi.sourceforge.net/DTD/sodipodi-0.dtd"
   xmlns:xlink="http://www.w3.org/1999/xlink"
   xmlns="http://www.w3.org/2000/svg"
   xmlns:svg="http://www.w3.org/2000/svg">
  <sodipodi:namedview
     id="namedview1"
     pagecolor="#ffffff"
     bordercolor="#000000"
     borderopacity="0.25"
     inkscape:showpageshadow="2"
     inkscape:pageopacity="0.0"
     inkscape:pagecheckerboard="0"
     inkscape:deskcolor="#d1d1d1"
     inkscape:zoom="1.8101934"
     inkscape:cx="-21951.246"
     inkscape:cy="-5125.6955"
     inkscape:window-width="2560"
     inkscape:window-height="1369"
     inkscape:window-x="-8"
     inkscape:window-y="-8"
     inkscape:window-maximized="1"
     inkscape:current-layer="svg2" />
  <defs
     id="defs2">
    <linearGradient
       id="linearGradient1"
       inkscape:collect="always">
      <stop
         style="stop-color:#ff3e00;stop-opacity:1;"
         offset="0"
         id="stop1" />
      <stop
         style="stop-color:#a800ff;stop-opacity:1;"
         offset="1"
         id="stop2" />
    </linearGradient>
    <linearGradient
       inkscape:collect="always"
       xlink:href="#linearGradient1"
       id="linearGradient2"
       x1="-21864.789"
       y1="-5077.7045"
       x2="-21677.522"
       y2="-5077.7045"
       gradientUnits="userSpaceOnUse" />
  </defs>
  <path
     d="m -21689.45,-5160.439 c -20.874,-29.914 -62.164,-38.751 -92.028,-19.756 l -52.413,33.418 c -14.323,8.99 -24.176,23.617 -27.172,40.275 -2.489,13.866 -0.305,28.188 6.247,40.631 -4.469,6.806 -7.568,14.475 -8.99,22.448 -2.996,16.964 0.915,34.435 10.971,48.452 20.924,29.915 62.164,38.752 92.028,19.757 l 52.413,-33.419 c 14.323,-8.989 24.176,-23.616 27.172,-40.275 2.489,-13.865 0.305,-28.187 -6.247,-40.63 4.47,-6.806 7.568,-14.424 8.99,-22.449 2.945,-16.963 -0.965,-34.434 -10.971,-48.452"
     style="fill:url(#linearGradient2);stroke-width:0.50788"
     id="path1" />
  <path
     d="m -21786.607,-4992.127 c -16.913,4.368 -34.74,-2.234 -44.694,-16.557 -6.044,-8.43 -8.38,-18.944 -6.603,-29.152 0.305,-1.676 0.711,-3.301 1.27,-4.876 l 0.965,-2.996 2.692,1.981 c 6.196,4.571 13.154,8.024 20.518,10.259 l 1.93,0.609 -0.203,1.93 c -0.254,2.743 0.508,5.536 2.133,7.771 2.997,4.317 8.38,6.298 13.459,4.977 1.117,-0.305 2.235,-0.762 3.2,-1.422 l 52.413,-33.419 c 2.59,-1.625 4.368,-4.266 4.927,-7.313 0.558,-3.098 -0.153,-6.247 -1.981,-8.787 -2.997,-4.317 -8.38,-6.297 -13.459,-4.977 -1.117,0.305 -2.235,0.762 -3.2,1.422 l -19.959,12.748 c -3.302,2.082 -6.857,3.657 -10.666,4.673 -16.912,4.367 -34.739,-2.235 -44.694,-16.557 -6.043,-8.431 -8.38,-18.944 -6.602,-29.153 1.778,-10.005 7.72,-18.791 16.354,-24.226 l 52.413,-33.418 c 3.301,-2.083 6.857,-3.657 10.666,-4.673 16.912,-4.368 34.739,2.235 44.693,16.557 6.044,8.431 8.38,18.944 6.603,29.152 -0.305,1.677 -0.711,3.302 -1.27,4.876 l -0.965,2.997 -2.692,-1.981 c -6.196,-4.571 -13.154,-8.025 -20.518,-10.259 l -1.93,-0.61 0.203,-1.93 c 0.254,-2.742 -0.508,-5.536 -2.133,-7.77 -2.996,-4.317 -8.38,-6.298 -13.459,-4.978 -1.117,0.305 -2.234,0.762 -3.199,1.423 l -52.414,33.418 c -2.59,1.625 -4.368,4.266 -4.926,7.314 -0.559,3.098 0.152,6.247 1.98,8.786 2.997,4.317 8.38,6.298 13.459,4.977 1.118,-0.304 2.235,-0.762 3.2,-1.422 l 19.96,-12.748 c 3.301,-2.082 6.856,-3.656 10.665,-4.672 16.913,-4.368 34.739,2.235 44.694,16.557 6.044,8.431 8.38,18.944 6.602,29.152 -1.777,10.006 -7.719,18.792 -16.353,24.226 l -52.414,33.419 c -3.301,2.082 -6.907,3.657 -10.665,4.672"
     style="fill:#ffffff;stroke-width:0.50788"
     id="path2" />
</svg>
