<?xml version="1.0" encoding="UTF-8" standalone="no"?>
<!-- Created with Inkscape (http://www.inkscape.org/) -->

<svg
   width="50mm"
   height="50mm"
   viewBox="0 0 50 50"
   version="1.1"
   id="svg1"
   xml:space="preserve"
   xmlns="http://www.w3.org/2000/svg"
   xmlns:svg="http://www.w3.org/2000/svg"><defs
     id="defs1" /><g
     id="layer1"><rect
       style="font-variation-settings:normal;opacity:1;vector-effect:none;fill:#000000;fill-opacity:1;stroke:none;stroke-width:0.260698;stroke-linecap:butt;stroke-linejoin:miter;stroke-miterlimit:4;stroke-dasharray:none;stroke-dashoffset:0;stroke-opacity:1;-inkscape-stroke:none;stop-color:#000000;stop-opacity:1"
       id="rect1"
       width="50"
       height="50"
       x="0"
       y="0"
       rx="7.1983109"
       ry="7.1983109" /><rect
       style="font-variation-settings:normal;vector-effect:none;fill:#1d9bf0;fill-opacity:1;stroke:none;stroke-width:0.260698;stroke-linecap:butt;stroke-linejoin:miter;stroke-miterlimit:4;stroke-dasharray:none;stroke-dashoffset:0;stroke-opacity:1;-inkscape-stroke:none;stop-color:#000000"
       id="rect1-18"
       width="50"
       height="50"
       x="0"
       y="-4.4408921e-16"
       rx="7.1983109"
       ry="7.1983109" /></g><path
     fill="#1d9bf0"
     d="m 36.22825,19.113421 c 0.0176,0.254361 0.0176,0.508722 0.0176,0.765427 0,7.821893 -5.954631,16.842916 -16.84292,16.842916 v -0.0047 c -3.216437,0.0047 -6.366058,-0.916638 -9.073772,-2.653795 0.467696,0.05626 0.937736,0.0844 1.408949,0.08557 2.665515,0.0023 5.25484,-0.892022 7.351853,-2.538921 -2.533061,-0.04806 -4.754323,-1.699647 -5.5303,-4.110801 0.887333,0.171136 1.801626,0.135971 2.672548,-0.101979 -2.761638,-0.557953 -4.748467,-2.984346 -4.748467,-5.802244 v -0.07502 c 0.822864,0.458318 1.74419,0.712679 2.686615,0.740811 -2.601046,-1.738328 -3.402811,-5.198576 -1.832102,-7.903945 3.005444,3.698198 7.439765,5.946421 12.199949,6.184371 -0.477073,-2.055987 0.174653,-4.210436 1.71254,-5.655722 2.384195,-2.241189 6.133968,-2.126317 8.375157,0.256705 1.32573,-0.261394 2.59636,-0.747844 3.75915,-1.43708 -0.44191,1.370267 -1.36675,2.534232 -2.60222,3.273871 1.17335,-0.138316 2.31973,-0.452457 3.3993,-0.931875 -0.79474,1.190925 -1.79577,2.228296 -2.95387,3.066398 z"
     id="path1-8"
     style="fill:#ffffff;fill-opacity:1;stroke:none;stroke-width:0.443025;stroke-dasharray:none;stroke-opacity:1" /></svg>
