<?xml version="1.0" encoding="UTF-8" standalone="no"?>
<!-- Created with Inkscape (http://www.inkscape.org/) -->

<svg
   width="50.00005mm"
   height="50mm"
   viewBox="0 0 50.00005 50"
   version="1.1"
   id="svg1"
   xml:space="preserve"
   sodipodi:docname="Discord.svg"
   inkscape:export-filename="Twitter.png"
   inkscape:export-xdpi="1040.3829"
   inkscape:export-ydpi="1040.3829"
   xmlns:inkscape="http://www.inkscape.org/namespaces/inkscape"
   xmlns:sodipodi="http://sodipodi.sourceforge.net/DTD/sodipodi-0.dtd"
   xmlns:xlink="http://www.w3.org/1999/xlink"
   xmlns="http://www.w3.org/2000/svg"
   xmlns:svg="http://www.w3.org/2000/svg"><sodipodi:namedview
     id="namedview1"
     pagecolor="#ffffff"
     bordercolor="#000000"
     borderopacity="0.25"
     inkscape:showpageshadow="2"
     inkscape:pageopacity="0.0"
     inkscape:pagecheckerboard="0"
     inkscape:deskcolor="#d1d1d1"
     inkscape:document-units="mm"><inkscape:page
       x="0"
       y="0"
       width="50.00005"
       height="50"
       id="page1"
       margin="0"
       bleed="0" /></sodipodi:namedview><defs
     id="defs1"><linearGradient
       id="linearGradient8"
       inkscape:collect="always"><stop
         style="stop-color:#05283f;stop-opacity:1;"
         offset="0"
         id="stop8" /><stop
         style="stop-color:#1789d8;stop-opacity:1;"
         offset="1"
         id="stop9" /></linearGradient><linearGradient
       id="linearGradient6"
       inkscape:collect="always"><stop
         style="stop-color:#ffffff;stop-opacity:1;"
         offset="0"
         id="stop6" /><stop
         style="stop-color:#ffffff;stop-opacity:0;"
         offset="1"
         id="stop7" /></linearGradient><linearGradient
       inkscape:collect="always"
       xlink:href="#linearGradient6"
       id="linearGradient7"
       x1="25.000025"
       y1="-12.151158"
       x2="25.000025"
       y2="26.657347"
       gradientUnits="userSpaceOnUse" /><linearGradient
       inkscape:collect="always"
       xlink:href="#linearGradient8"
       id="linearGradient9"
       x1="25"
       y1="0.25422859"
       x2="25"
       y2="50.254227"
       gradientUnits="userSpaceOnUse" /><filter
       inkscape:collect="always"
       style="color-interpolation-filters:sRGB"
       id="filter1"
       x="-0.043501548"
       y="-0.053536118"
       width="1.0870031"
       height="1.1070722"><feGaussianBlur
         inkscape:collect="always"
         stdDeviation="0.52297872"
         id="feGaussianBlur1" /></filter></defs><g
     id="layer1"><rect
       style="font-variation-settings:normal;display:inline;opacity:1;vector-effect:none;fill:#08568a;fill-opacity:1;stroke:none;stroke-width:0.260698;stroke-linecap:butt;stroke-linejoin:miter;stroke-miterlimit:4;stroke-dasharray:none;stroke-dashoffset:0;stroke-opacity:1;-inkscape-stroke:none;stop-color:#000000"
       id="rect1-18"
       width="50"
       height="50"
       x="0"
       y="-4.4408921e-16"
       rx="7.1983109"
       ry="7.1983109"
       inkscape:label="Dark" /><rect
       style="font-variation-settings:normal;vector-effect:none;fill:#d2e3fc;fill-opacity:1;stroke:none;stroke-width:0.258966;stroke-linecap:butt;stroke-linejoin:miter;stroke-miterlimit:4;stroke-dasharray:none;stroke-dashoffset:0;stroke-opacity:1;-inkscape-stroke:none;stop-color:#000000"
       id="rect1"
       width="50"
       height="49.337749"
       x="0"
       y="-4.4408921e-16"
       rx="7.1983109"
       ry="7.1029692"
       inkscape:label="Light" /><rect
       style="font-variation-settings:normal;vector-effect:none;fill:url(#linearGradient9);fill-opacity:1;stroke:none;stroke-width:0.255875;stroke-linecap:butt;stroke-linejoin:miter;stroke-miterlimit:4;stroke-dasharray:none;stroke-dashoffset:0;stroke-opacity:1;-inkscape-stroke:none;stop-color:#000000"
       id="rect2"
       width="50"
       height="48.167042"
       x="0"
       y="1.1707066"
       rx="7.1983109"
       ry="6.9344268"
       inkscape:label="Base" /><path
       id="rect5"
       style="font-variation-settings:normal;vector-effect:none;fill:url(#linearGradient7);fill-opacity:1;stroke:none;stroke-width:0.255875;stroke-linecap:butt;stroke-linejoin:miter;stroke-miterlimit:4;stroke-dasharray:none;stroke-dashoffset:0;stroke-opacity:1;-inkscape-stroke:none;stop-color:#000000"
       inkscape:label="Top"
       d="M 7.198527,1.1704712 C 3.2106628,1.1704712 0,4.2632592 0,8.1049316 V 21.937162 c 15.025635,5.242235 31.02507,7.373724 50.000049,0 V 8.1049316 c 0,-3.8416724 -3.210663,-6.9344604 -7.198527,-6.9344604 z"
       sodipodi:nodetypes="ssccsss" /><path
       fill="#1d9bf0"
       d="m 36.47263,19.113421 c 0.0176,0.254361 0.0176,0.508722 0.0176,0.765427 0,7.821893 -5.954631,16.842916 -16.84292,16.842916 v -0.0047 c -3.216437,0.0047 -6.366058,-0.916638 -9.073772,-2.653795 0.467696,0.05626 0.937736,0.0844 1.408949,0.08557 2.665515,0.0023 5.25484,-0.892022 7.351853,-2.538921 -2.533061,-0.04806 -4.754323,-1.699647 -5.5303,-4.110801 0.887333,0.171136 1.801626,0.135971 2.672548,-0.101979 -2.761638,-0.557953 -4.748467,-2.984346 -4.748467,-5.802244 v -0.07502 c 0.822864,0.458318 1.74419,0.712679 2.686615,0.740811 -2.601046,-1.738328 -3.402811,-5.198576 -1.832102,-7.903945 3.005444,3.698198 7.439765,5.946421 12.199949,6.184371 -0.477073,-2.055987 0.174653,-4.210436 1.71254,-5.655722 2.384195,-2.241189 6.133968,-2.126317 8.375157,0.256705 1.32573,-0.261394 2.59636,-0.747844 3.75915,-1.43708 -0.44191,1.370267 -1.36675,2.534232 -2.60222,3.273871 1.17335,-0.138316 2.31973,-0.452457 3.3993,-0.931875 -0.79474,1.190925 -1.79577,2.228296 -2.95387,3.066398 z"
       id="path1-8"
       style="fill:#000000;fill-opacity:1;stroke:none;stroke-width:0.443025;stroke-dasharray:none;stroke-opacity:1;filter:url(#filter1)"
       inkscape:label="Shadow" /><path
       fill="#1d9bf0"
       d="m 36.47263,19.113421 c 0.0176,0.254361 0.0176,0.508722 0.0176,0.765427 0,7.821893 -5.954631,16.842916 -16.84292,16.842916 v -0.0047 c -3.216437,0.0047 -6.366058,-0.916638 -9.073772,-2.653795 0.467696,0.05626 0.937736,0.0844 1.408949,0.08557 2.665515,0.0023 5.25484,-0.892022 7.351853,-2.538921 -2.533061,-0.04806 -4.754323,-1.699647 -5.5303,-4.110801 0.887333,0.171136 1.801626,0.135971 2.672548,-0.101979 -2.761638,-0.557953 -4.748467,-2.984346 -4.748467,-5.802244 v -0.07502 c 0.822864,0.458318 1.74419,0.712679 2.686615,0.740811 -2.601046,-1.738328 -3.402811,-5.198576 -1.832102,-7.903945 3.005444,3.698198 7.439765,5.946421 12.199949,6.184371 -0.477073,-2.055987 0.174653,-4.210436 1.71254,-5.655722 2.384195,-2.241189 6.133968,-2.126317 8.375157,0.256705 1.32573,-0.261394 2.59636,-0.747844 3.75915,-1.43708 -0.44191,1.370267 -1.36675,2.534232 -2.60222,3.273871 1.17335,-0.138316 2.31973,-0.452457 3.3993,-0.931875 -0.79474,1.190925 -1.79577,2.228296 -2.95387,3.066398 z"
       id="path1"
       style="fill:#ffffff;fill-opacity:1;stroke:none;stroke-width:0.443025;stroke-dasharray:none;stroke-opacity:1"
       inkscape:label="Icon" /></g></svg>
