<?xml version="1.0" encoding="UTF-8" standalone="no"?>
<svg
   fill="#FFFFFF"
   viewBox="0 0 32 32"
   width="32px"
   height="32px"
   version="1.1"
   id="svg1"
   sodipodi:docname="Unreal-Engine.svg"
   inkscape:export-filename="Unreal-Engine.svg"
   inkscape:export-xdpi="96"
   inkscape:export-ydpi="96"
   inkscape:version="1.4 (86a8ad7, 2024-10-11)"
   xmlns:inkscape="http://www.inkscape.org/namespaces/inkscape"
   xmlns:sodipodi="http://sodipodi.sourceforge.net/DTD/sodipodi-0.dtd"
   xmlns="http://www.w3.org/2000/svg"
   xmlns:svg="http://www.w3.org/2000/svg">
  <defs
     id="defs1" />
  <sodipodi:namedview
     id="namedview1"
     pagecolor="#ffffff"
     bordercolor="#000000"
     borderopacity="0.25"
     inkscape:showpageshadow="2"
     inkscape:pageopacity="0.0"
     inkscape:pagecheckerboard="0"
     inkscape:deskcolor="#d1d1d1"
     inkscape:zoom="12.89365"
     inkscape:cx="11.517297"
     inkscape:cy="21.289549"
     inkscape:window-width="2560"
     inkscape:window-height="1369"
     inkscape:window-x="-8"
     inkscape:window-y="-8"
     inkscape:window-maximized="1"
     inkscape:current-layer="svg1" />
  <path
     d="M 16,3.5 C 9.107722,3.5 3.5,9.1077221 3.5,16 3.5,22.892278 9.107722,28.5 16,28.5 22.892278,28.5 28.5,22.892278 28.5,16 28.5,9.1077221 22.892278,3.5 16,3.5 Z"
     id="path1-2"
     sodipodi:nodetypes="sssss"
     style="fill:#000000;fill-opacity:1;stroke-width:0.961539" />
  <path
     d="M 16,3.0000001 C 8.832031,3.0000001 3,8.8320309 3,16 3,23.167969 8.832031,29 16,29 23.167969,29 29,23.167969 29,16 29,8.8320309 23.167969,3.0000001 16,3.0000001 Z m 0,2 C 22.085938,5.0000001 27,9.9140629 27,16 27,22.085938 22.085938,27 16,27 9.914063,27 5,22.085938 5,16 5,9.9140629 9.914063,5.0000001 16,5.0000001 Z m 0,2.9999998 C 11.242188,8.8398439 7,13.226563 7,18 c 2.328125,-4.109375 3.882813,-4.40625 4.3125,-4.40625 0.429688,0 0.65625,0.222656 0.65625,0.71875 v 6.125 c 0,0.761719 -1.480469,0.636719 -1.96875,0.5625 1.808594,2.691406 6,3 6,3 l 2,-2 2,1 c 3.15625,-1.445312 5,-4.539062 5,-5 -1.371094,1.511719 -2.734375,2 -3,2 -0.265625,0 -1,-0.136719 -1,-0.5 V 12.25 C 21,11.621094 22.453125,9.6992189 23,8.9999999 19.390625,9.9453129 18.34375,11.59375 18.34375,11.59375 18.34375,11.59375 18.070313,11 17,11 c 0.398438,0.34375 1,1.273438 1,2 v 6.125 C 18,19.125 16.695313,20 16,20 15.304688,20 14.96875,19.71875 14.96875,19.1875 14.96875,18.65625 15,12 15,12 c 0,0 -1,0.367188 -1,-1.6875 0,-1.0273441 2,-2.3125001 2,-2.3125001 z"
     id="path1" />
</svg>
