<?xml version="1.0" encoding="UTF-8" standalone="no"?>
<svg
   fill="#ffffff"
   viewBox="0 0 32 32"
   version="1.1"
   id="svg1"
   width="32"
   height="32"
   xmlns="http://www.w3.org/2000/svg"
   xmlns:svg="http://www.w3.org/2000/svg">
  <defs
     id="defs1" />
  <path
     d="M 0,16.000041 C 0,7.1630412 7.163,4.1210938e-5 16,4.1210938e-5 c 8.837,0 16,7.162999989062 16,15.999999789062 0,8.837 -7.163,16 -16,16 -8.837,0 -16,-7.163 -16,-16 z m 18.523,7.129 1.57,1.766 c 3.912,-1.847 5.139,-5.261 5.416,-6.591 -1.431,1.465 -3.013,2.95 -4.078,1.922 0,0 -0.058,-5.485 -0.058,-7.735 0,-3.0259998 2.868,-5.2799998 2.868,-5.2799998 -1.577,0.281 -3.472,0.843 -5.482,2.8159998 -0.181588,0.18 -0.353814,0.3693 -0.516,0.567 -0.862,-0.6599998 -1.979,-0.461 -1.979,-0.461 0.604,0.331 1.207,1.297 1.207,2.096 v 7.855 c 0,0 -1.316,1.157 -2.33,1.157 -0.46406,0 -0.901388,-0.2167 -1.173,-0.593 -0.08028,-0.1051 -0.146813,-0.2201 -0.198,-0.342 v -9.706 c -0.3,0.248 -1.313,0.452 -1.313,-1.2299998 0,-1.045 0.754,-2.29 2.094,-3.054 -1.840746,0.2807 -3.564677,1.0759 -4.973,2.294 -2.165278,1.8716998 -3.3977344,4.6009998 -3.37,7.4629998 0,0 0.981,-3.063 2.208,-3.345 0.7684247,-0.2028 1.5149884,0.3927 1.488,1.187 v 7.193 c 0,0.729 -0.47,0.888 -0.904,0.88 -0.2944326,-0.021 -0.5854338,-0.076 -0.867,-0.164 1.8168828,2.4602 4.679873,3.9291 7.738,3.97 z"
     fill-rule="evenodd"
     id="path1" />
</svg>
