<?xml version="1.0" encoding="UTF-8" standalone="no"?>
<svg
   width="545.79736"
   height="306.94122"
   version="1.1"
   viewBox="0 0 545.79737 306.94122"
   xml:space="preserve"
   style="clip-rule:evenodd;fill-rule:evenodd;stroke-linejoin:round;stroke-miterlimit:2"
   id="svg23"
   sodipodi:docname="Wails.svg"
   xmlns:inkscape="http://www.inkscape.org/namespaces/inkscape"
   xmlns:sodipodi="http://sodipodi.sourceforge.net/DTD/sodipodi-0.dtd"
   xmlns="http://www.w3.org/2000/svg"
   xmlns:svg="http://www.w3.org/2000/svg"><sodipodi:namedview
     id="namedview1"
     pagecolor="#ffffff"
     bordercolor="#000000"
     borderopacity="0.25"
     inkscape:showpageshadow="2"
     inkscape:pageopacity="0.0"
     inkscape:pagecheckerboard="0"
     inkscape:deskcolor="#d1d1d1"><inkscape:page
       x="0"
       y="0"
       width="545.79736"
       height="306.94122"
       id="page2"
       margin="0"
       bleed="0" /></sodipodi:namedview><g
     id="g6"
     transform="translate(0.07419651,-0.09424176)"><path
       d="M 0.883,-0.081 0.121,0.081 0.256,-0.063 Z"
       transform="matrix(-166.599,4.57132,4.57132,166.599,147.403,167.564)"
       style="fill:url(#_Linear1);fill-rule:nonzero"
       id="path6" /></g><g
     id="g7"
     transform="translate(0.07419651,-0.09424176)"><path
       d="M 0.878,-0.285 -0.073,0.71 -1.186,0.542 0.015,0.207 -0.846,0.077 0.355,-0.258 -0.505,-0.388 0.649,-0.71 Z"
       transform="matrix(-106.443,-16.0669,-16.0669,106.443,428.19,187.949)"
       style="fill:url(#_Linear2);fill-rule:nonzero"
       id="path7" /></g><g
     id="g8"
     transform="translate(0.07419651,-0.09424176)"><path
       d="M 0.44,-0.04 0.265,-0.056 0.177,0.437 -0.311,-0.255 0.262,-0.437 h 0.306 z"
       transform="matrix(-114.484,-162.408,-162.408,114.484,333.291,285.72)"
       style="fill:url(#_Linear3);fill-rule:nonzero"
       id="path8" /></g><g
     id="g9"
     transform="translate(0.07419651,-0.09424176)"><path
       d="m 0.622,-0.115 h 0.139 l 0.045,0.102 0.02,0.195 z"
       transform="matrix(238.126,298.893,298.893,-238.126,113.516,-150.62)"
       style="fill:url(#_Linear4);fill-rule:nonzero"
       id="path9" /></g><g
     id="g10"
     transform="translate(0.07419651,-0.09424176)"><path
       d="M 0.467,0.005 0.49,0.062 0.271,-0.062 Z"
       transform="matrix(-369.529,-97.4118,-97.4118,369.529,582.38,93.9429)"
       style="fill:url(#_Linear5);fill-rule:nonzero"
       id="path10" /></g><g
     id="g11"
     transform="translate(0.07419651,-0.09424176)"><path
       d="m 269.095,104.527 18.669,6.892 -24.132,-4.669 z"
       transform="matrix(0.436503,-1.22916,4.88651,1.73532,-368.043,253.619)"
       style="fill:#ffffff"
       id="path11" /></g><g
     id="g12"
     transform="translate(0.07419651,-0.09424176)"><path
       d="M 0.2,0.001 0.219,-0.018 0.614,0.012 0.519,0.089 0.282,0.068 0.2,0.135 0.463,0.194 0.374,0.266 0.138,0.186 0.047,0.033 -0.131,-0.266 Z"
       transform="matrix(-496.156,-53.9751,-53.9751,496.156,367.888,125.001)"
       style="fill:url(#_Linear6);fill-rule:nonzero"
       id="path12" /></g><defs
     id="defs23"><linearGradient
       id="_Linear1"
       x1="0"
       x2="1"
       y1="0"
       y2="0"
       gradientUnits="userSpaceOnUse"><stop
         offset="0"
         style="stop-color:#e33232;stop-opacity:1"
         id="stop12" /><stop
         offset="1"
         style="stop-color:#6b000d;stop-opacity:1"
         id="stop13" /></linearGradient><linearGradient
       id="_Linear2"
       x1="0"
       x2="1"
       y1="0"
       y2="0"
       gradientUnits="userSpaceOnUse"><stop
         offset="0"
         style="stop-color:#e33232;stop-opacity:1"
         id="stop14" /><stop
         offset="1"
         style="stop-color:#6b000d;stop-opacity:1"
         id="stop15" /></linearGradient><linearGradient
       id="_Linear3"
       x1="0"
       x2="1"
       y1="0"
       y2="0"
       gradientUnits="userSpaceOnUse"><stop
         offset="0"
         style="stop-color:#e33232;stop-opacity:1"
         id="stop16" /><stop
         offset="1"
         style="stop-color:#6b000d;stop-opacity:1"
         id="stop17" /></linearGradient><linearGradient
       id="_Linear4"
       x1="0"
       x2="1"
       y1="0"
       y2="0"
       gradientTransform="rotate(-143.31181,0.7489321,1.410817e-8)"
       gradientUnits="userSpaceOnUse"><stop
         offset="0"
         style="stop-color:#e33232;stop-opacity:1"
         id="stop18" /><stop
         offset="1"
         style="stop-color:#6b000d;stop-opacity:1"
         id="stop19" /></linearGradient><linearGradient
       id="_Linear5"
       x1="0"
       x2="1"
       y1="0"
       y2="0"
       gradientUnits="userSpaceOnUse"><stop
         offset="0"
         style="stop-color:#e33232;stop-opacity:1"
         id="stop20" /><stop
         offset="1"
         style="stop-color:#6b000d;stop-opacity:1"
         id="stop21" /></linearGradient><linearGradient
       id="_Linear6"
       x1="0"
       x2="1"
       y1="0"
       y2="0"
       gradientUnits="userSpaceOnUse"><stop
         offset="0"
         style="stop-color:#e33232;stop-opacity:1"
         id="stop22" /><stop
         offset="1"
         style="stop-color:#6b000d;stop-opacity:1"
         id="stop23" /></linearGradient></defs></svg>
