<?xml version="1.0" encoding="UTF-8" standalone="no"?>
<svg
   viewBox="0 0 23409 19600"
   version="1.1"
   id="svg12"
   xml:space="preserve"
   width="23409"
   height="19600"
   xmlns:xlink="http://www.w3.org/1999/xlink"
   xmlns="http://www.w3.org/2000/svg"
   xmlns:svg="http://www.w3.org/2000/svg"><defs
     id="defs12"><linearGradient
       id="linearGradient46"><stop
         style="stop-color:#9c033a;stop-opacity:1;"
         offset="0"
         id="stop46" /><stop
         style="stop-color:#00e4ff;stop-opacity:1;"
         offset="1"
         id="stop47" /></linearGradient><linearGradient
       xlink:href="#linearGradient46"
       id="linearGradient47"
       x1="0"
       y1="70"
       x2="153"
       y2="70"
       gradientUnits="userSpaceOnUse" /><linearGradient
       xlink:href="#linearGradient46"
       id="linearGradient2"
       gradientUnits="userSpaceOnUse"
       x1="0"
       y1="70"
       x2="153"
       y2="70" /><linearGradient
       xlink:href="#linearGradient46"
       id="linearGradient3"
       gradientUnits="userSpaceOnUse"
       x1="0"
       y1="70"
       x2="153"
       y2="70" /><linearGradient
       xlink:href="#linearGradient46"
       id="linearGradient4"
       gradientUnits="userSpaceOnUse"
       x1="0"
       y1="70"
       x2="153"
       y2="70" /><linearGradient
       xlink:href="#linearGradient46"
       id="linearGradient5"
       gradientUnits="userSpaceOnUse"
       x1="0"
       y1="70"
       x2="153"
       y2="70" /><linearGradient
       xlink:href="#linearGradient46"
       id="linearGradient6"
       gradientUnits="userSpaceOnUse"
       x1="0"
       y1="70"
       x2="153"
       y2="70" /><linearGradient
       xlink:href="#linearGradient46"
       id="linearGradient7"
       gradientUnits="userSpaceOnUse"
       x1="0"
       y1="70"
       x2="153"
       y2="70" /><linearGradient
       xlink:href="#linearGradient46"
       id="linearGradient8"
       gradientUnits="userSpaceOnUse"
       x1="0"
       y1="70"
       x2="153"
       y2="70" /><linearGradient
       xlink:href="#linearGradient46"
       id="linearGradient9"
       gradientUnits="userSpaceOnUse"
       x1="0"
       y1="70"
       x2="153"
       y2="70" /><linearGradient
       xlink:href="#linearGradient46"
       id="linearGradient10"
       gradientUnits="userSpaceOnUse"
       x1="0"
       y1="70"
       x2="153"
       y2="70" /><linearGradient
       xlink:href="#linearGradient46"
       id="linearGradient11"
       gradientUnits="userSpaceOnUse"
       x1="0"
       y1="70"
       x2="153"
       y2="70" /><linearGradient
       xlink:href="#linearGradient46"
       id="linearGradient12"
       gradientUnits="userSpaceOnUse"
       x1="0"
       y1="70"
       x2="153"
       y2="70" /><linearGradient
       xlink:href="#linearGradient46"
       id="linearGradient13"
       gradientUnits="userSpaceOnUse"
       x1="0"
       y1="70"
       x2="153"
       y2="70" /><linearGradient
       xlink:href="#linearGradient46"
       id="linearGradient14"
       gradientUnits="userSpaceOnUse"
       x1="0"
       y1="70"
       x2="153"
       y2="70" /><linearGradient
       xlink:href="#linearGradient46"
       id="linearGradient15"
       gradientUnits="userSpaceOnUse"
       x1="0"
       y1="70"
       x2="153"
       y2="70" /></defs><g
     fill="#f7a41d"
     id="g12"
     style="fill:url(#linearGradient47)"><g
       id="g3"
       style="fill:url(#linearGradient5)"><polygon
         points="28,44 19,30 46,22 "
         id="polygon1"
         style="fill:url(#linearGradient2)" /><polygon
         points="22,95 31,95 20,100 12,117 0,117 0,22 46,22 33,33 28,44 22,44 "
         shape-rendering="crispEdges"
         id="polygon2"
         style="fill:url(#linearGradient3)" /><polygon
         points="12,117 4,106 31,95 "
         id="polygon3"
         style="fill:url(#linearGradient4)" /></g><g
       id="g8"
       style="fill:url(#linearGradient11)"><polygon
         points="62,36 37,44 56,22 "
         id="polygon4"
         style="fill:url(#linearGradient6)" /><polygon
         points="56,32 56,22 111,22 111,44 37,44 "
         shape-rendering="crispEdges"
         id="polygon5"
         style="fill:url(#linearGradient7)" /><polygon
         points="97,117 90,104 116,95 "
         id="polygon6"
         style="fill:url(#linearGradient8)" /><polygon
         points="42,95 116,95 100,104 97,117 42,117 "
         shape-rendering="crispEdges"
         id="polygon7"
         style="fill:url(#linearGradient9)" /><polygon
         points="150,0 52,117 3,140 101,22 "
         id="polygon8"
         style="fill:url(#linearGradient10)" /></g><g
       id="g11"
       style="fill:url(#linearGradient15)"><polygon
         points="140,40 122,45 141,22 "
         id="polygon9"
         style="fill:url(#linearGradient12)" /><polygon
         points="125,95 131,95 131,45 122,45 132,36 141,22 153,22 153,117 106,117 120,105 "
         shape-rendering="crispEdges"
         id="polygon10"
         style="fill:url(#linearGradient13)" /><polygon
         points="130,110 106,117 125,95 "
         id="polygon11"
         style="fill:url(#linearGradient14)" /></g></g></svg>
