<?xml version="1.0" encoding="UTF-8" standalone="no"?>
<svg
   height="50"
   width="50"
   version="1.1"
   id="svg83"
   xml:space="preserve"
   sodipodi:docname="Android_Box.svg"
   inkscape:version="1.2.2 (b0a8486541, 2022-12-01)"
   xmlns:inkscape="http://www.inkscape.org/namespaces/inkscape"
   xmlns:sodipodi="http://sodipodi.sourceforge.net/DTD/sodipodi-0.dtd"
   xmlns:xlink="http://www.w3.org/1999/xlink"
   xmlns="http://www.w3.org/2000/svg"
   xmlns:svg="http://www.w3.org/2000/svg"><sodipodi:namedview
     id="namedview39"
     pagecolor="#ffffff"
     bordercolor="#000000"
     borderopacity="0.25"
     inkscape:showpageshadow="2"
     inkscape:pageopacity="0.0"
     inkscape:pagecheckerboard="0"
     inkscape:deskcolor="#d1d1d1"
     showgrid="false"
     inkscape:zoom="14.934095"
     inkscape:cx="21.427478"
     inkscape:cy="21.661841"
     inkscape:window-width="2560"
     inkscape:window-height="1369"
     inkscape:window-x="0"
     inkscape:window-y="0"
     inkscape:window-maximized="1"
     inkscape:current-layer="g79" /><defs
     id="defs87"><linearGradient
       xlink:href="#h"
       id="linearGradient1792"
       x1="8.0006123"
       y1="23.965569"
       x2="39.999386"
       y2="23.965569"
       gradientUnits="userSpaceOnUse" /><clipPath
       clipPathUnits="userSpaceOnUse"
       id="clipPath1918"><path
         id="path1920"
         d="m 38.461405,18.921562 c -0.313658,0 -0.639396,0.09095 -0.941717,0.272344 -0.806192,0.483715 -0.966061,1.451308 -0.482345,2.2575 l 1.83422,2.962968 c -4.211091,2.316954 -6.690959,6.274367 -6.995625,10.742814 H 64.124062 C 63.816217,30.642147 61.285344,26.651904 56.993906,24.345469 l 1.968749,-2.894063 c 0.483715,-0.806192 0.32385,-1.773785 -0.482343,-2.2575 -0.806192,-0.483715 -1.773785,-0.323848 -2.2575,0.482344 l -2.313281,3.402657 C 52.137604,22.549395 50.162229,22.258594 48,22.258594 c -2.235066,0 -4.269408,0.312122 -6.086719,0.876094 -0.0131,-0.02397 -0.02515,-0.04847 -0.03938,-0.07219 L 39.777186,19.67625 c -0.302321,-0.50387 -0.793014,-0.754688 -1.315781,-0.754688 z m 3.087657,9.141562 c 0.967431,0 1.614376,0.643665 1.614376,1.611095 0,0.806191 -0.646945,1.611095 -1.614376,1.611095 -0.96743,0 -1.611093,-0.643666 -1.611093,-1.611095 0,-0.96743 0.643663,-1.611095 1.611093,-1.611095 z m 12.901876,0 c 0.967431,0 1.611093,0.643665 1.611093,1.611095 0,0.806191 -0.643662,1.611095 -1.611093,1.611095 -0.967432,0 -1.614375,-0.643666 -1.614375,-1.611095 0,-0.96743 0.646943,-1.611095 1.614375,-1.611095 z M 25.425,38.382655 c -1.773623,0 -3.222188,1.448566 -3.222188,3.22219 v 14.512967 c 0,1.773623 1.448565,3.225469 3.222188,3.225469 1.773623,0 3.225469,-1.451846 3.225469,-3.225469 V 41.604845 c 0,-1.773624 -1.451846,-3.22219 -3.225469,-3.22219 z m 6.450938,0 v 24.182814 c 0,1.773623 1.451846,3.225468 3.225469,3.225468 h 3.225467 v 8.062031 c 0,1.773623 1.448565,3.225469 3.222188,3.225469 1.773623,0 3.225469,-1.451846 3.225469,-3.225469 v -8.062031 h 6.450938 v 8.062031 c 0,1.773623 1.451846,3.225469 3.225469,3.225469 1.773621,0 3.222186,-1.451846 3.222186,-3.225469 v -8.062031 h 3.22547 c 1.773622,0 3.225468,-1.451845 3.225468,-3.225468 V 38.382655 Z m 38.699061,0 c -1.773623,0 -3.225468,1.448566 -3.225468,3.22219 v 14.512967 c 0,1.773623 1.451845,3.225469 3.225468,3.225469 1.773624,0 3.222187,-1.451846 3.222187,-3.225469 V 41.604845 c 0,-1.773624 -1.448563,-3.22219 -3.222187,-3.22219 z"
         style="fill:url(#linearGradient1922);fill-opacity:1;stroke-width:1.61239" /></clipPath><linearGradient
       xlink:href="#h"
       id="linearGradient1922"
       gradientUnits="userSpaceOnUse"
       x1="8.0006123"
       y1="23.965569"
       x2="39.999386"
       y2="23.965569"
       gradientTransform="matrix(1.6123859,0,0,1.6123859,9.3027385,9.3581644)" /><filter
       style="color-interpolation-filters:sRGB"
       id="filter1924"
       x="-0.0030564403"
       y="-0.0029456063"
       width="1.0061129"
       height="1.0058912"><feGaussianBlur
         stdDeviation="0.083958984"
         id="feGaussianBlur1926" /></filter><clipPath
       clipPathUnits="userSpaceOnUse"
       id="clipPath936"><path
         id="path938"
         d="m 38.461405,18.921562 c -0.313658,0 -0.639396,0.09095 -0.941717,0.272344 -0.806192,0.483715 -0.966061,1.451308 -0.482345,2.2575 l 1.83422,2.962968 c -4.211091,2.316954 -6.690959,6.274367 -6.995625,10.742814 H 64.124062 C 63.816217,30.642147 61.285344,26.651904 56.993906,24.345469 l 1.968749,-2.894063 c 0.483715,-0.806192 0.32385,-1.773785 -0.482343,-2.2575 -0.806192,-0.483715 -1.773785,-0.323848 -2.2575,0.482344 l -2.313281,3.402657 C 52.137604,22.549395 50.162229,22.258594 48,22.258594 c -2.235066,0 -4.269408,0.312122 -6.086719,0.876094 -0.0131,-0.02397 -0.02513,-0.04847 -0.03938,-0.07219 L 39.777186,19.67625 c -0.302321,-0.50387 -0.793014,-0.754688 -1.315781,-0.754688 z m 3.087657,9.141562 c 0.967431,0 1.614376,0.643665 1.614376,1.611095 0,0.806191 -0.646945,1.611095 -1.614376,1.611095 -0.96743,0 -1.611093,-0.643666 -1.611093,-1.611095 0,-0.96743 0.643663,-1.611095 1.611093,-1.611095 z m 12.901876,0 c 0.967431,0 1.611093,0.643665 1.611093,1.611095 0,0.806191 -0.643662,1.611095 -1.611093,1.611095 -0.967432,0 -1.614375,-0.643666 -1.614375,-1.611095 0,-0.96743 0.646943,-1.611095 1.614375,-1.611095 z M 25.425,38.382655 c -1.773623,0 -3.222188,1.448566 -3.222188,3.22219 v 14.512967 c 0,1.773623 1.448565,3.225469 3.222188,3.225469 1.773623,0 3.225469,-1.451846 3.225469,-3.225469 V 41.604845 c 0,-1.773624 -1.451846,-3.22219 -3.225469,-3.22219 z m 6.450938,0 v 24.182814 c 0,1.773623 1.451846,3.225468 3.225469,3.225468 h 3.225467 v 8.062031 c 0,1.773623 1.448565,3.225469 3.222188,3.225469 1.773623,0 3.225469,-1.451846 3.225469,-3.225469 v -8.062031 h 6.450938 v 8.062031 c 0,1.773623 1.451846,3.225469 3.225469,3.225469 1.773621,0 3.222186,-1.451846 3.222186,-3.225469 v -8.062031 h 3.22547 c 1.773622,0 3.225468,-1.451845 3.225468,-3.225468 V 38.382655 Z m 38.699061,0 c -1.773623,0 -3.225468,1.448566 -3.225468,3.22219 v 14.512967 c 0,1.773623 1.451845,3.225469 3.225468,3.225469 1.773624,0 3.222187,-1.451846 3.222187,-3.225469 V 41.604845 c 0,-1.773624 -1.448563,-3.22219 -3.222187,-3.22219 z"
         style="fill:url(#linearGradient940);fill-opacity:1;stroke-width:1.61239" /></clipPath><linearGradient
       inkscape:collect="always"
       xlink:href="#h"
       id="linearGradient940"
       gradientUnits="userSpaceOnUse"
       x1="8.0006123"
       y1="23.965569"
       x2="39.999386"
       y2="23.965569"
       gradientTransform="matrix(1.6123859,0,0,1.6123859,9.3027385,9.3581644)" /><filter
       inkscape:collect="always"
       style="color-interpolation-filters:sRGB"
       id="filter942"
       x="-0.027267543"
       y="-0.026737655"
       width="1.0545351"
       height="1.0534753"><feGaussianBlur
         inkscape:collect="always"
         stdDeviation="0.80323155"
         id="feGaussianBlur944" /></filter></defs><linearGradient
     id="a"
     gradientUnits="userSpaceOnUse"
     x1="48"
     x2="48"
     y1="90"
     y2="5.9877172"><stop
       offset="0"
       stop-color="#ebebeb"
       id="stop2"
       style="stop-color:#585858;stop-opacity:1;" /><stop
       offset="1"
       stop-color="#fafafa"
       id="stop4"
       style="stop-color:#818181;stop-opacity:1;" /></linearGradient><linearGradient
     id="b"
     gradientTransform="matrix(1.0058652,0,0,0.994169,100,0)"
     gradientUnits="userSpaceOnUse"
     x1="45.447727"
     x2="45.447727"
     y1="92.539597"
     y2="7.0165401"><stop
       offset="0"
       id="stop7" /><stop
       offset="1"
       stop-opacity=".588235"
       id="stop9" /></linearGradient><linearGradient
     id="c"
     gradientTransform="matrix(1.0238095,0,0,1.0119048,-1.142857,-98.071429)"
     gradientUnits="userSpaceOnUse"
     x1="32.251034"
     x2="32.251034"
     xlink:href="#b"
     y1="6.1317081"
     y2="90.238609" /><linearGradient
     id="d"
     gradientTransform="translate(0,-97)"
     gradientUnits="userSpaceOnUse"
     x1="32.251034"
     x2="32.251034"
     xlink:href="#b"
     y1="6.1317081"
     y2="90.238609" /><linearGradient
     id="e"><stop
       offset="0"
       stop-color="#fff"
       id="stop14" /><stop
       offset="1"
       stop-color="#fff"
       stop-opacity="0"
       id="stop16" /></linearGradient><radialGradient
     id="f"
     cx="48"
     cy="90.171875"
     gradientTransform="matrix(1.1573129,0,0,0.99590774,-7.551021,0.197132)"
     gradientUnits="userSpaceOnUse"
     r="42"
     xlink:href="#e" /><linearGradient
     id="g"
     gradientUnits="userSpaceOnUse"
     x1="36.357143"
     x2="36.357143"
     xlink:href="#e"
     y1="6"
     y2="63.893143"
     gradientTransform="matrix(0.91995739,0,0,0.98668795,0.48025569,1.1935087)" /><linearGradient
     id="h"
     gradientTransform="rotate(-90,48.000087,47.999896)"
     gradientUnits="userSpaceOnUse"
     x1="18.000002"
     x2="78.000175"
     y1="47.999897"
     y2="47.999897"><stop
       offset="0"
       stop-color="#bababa"
       id="stop21"
       style="stop-color:#818181;stop-opacity:1;" /><stop
       offset="1"
       stop-color="#d2d2d2"
       id="stop23"
       style="stop-color:#a7a7a7;stop-opacity:1;" /></linearGradient><clipPath
     id="i"><path
       d="m -88,6 c -3.324,0 -6,2.676 -6,6 v 72 c 0,3.324 2.676,6 6,6 h 72 c 3.324,0 6,-2.676 6,-6 V 12 c 0,-3.324 -2.676,-6 -6,-6 z m 31.84375,12 h 8.3125 c 1.180648,0 2.125,0.986683 2.125,2.1875 v 4.21875 c 2.111082,0.562476 4.123141,1.426616 5.96875,2.5 l 3,-3.03125 c 0.849111,-0.849025 2.196406,-0.866085 3.03125,-0.03125 l 5.875,5.875 c 0.834848,0.834847 0.817863,2.18214 -0.03125,3.03125 l -3.03125,3 c 1.073391,1.845617 1.937528,3.857672 2.5,5.96875 h 4.21875 c 1.200827,0 2.1875,0.944356 2.1875,2.125 v 8.3125 c 0,1.180653 -0.986672,2.125 -2.1875,2.125 h -4.21875 c -0.562472,2.111079 -1.426609,4.123134 -2.5,5.96875 l 3.03125,3 c 0.849106,0.849111 0.866094,2.196416 0.03125,3.03125 l -5.875,5.875 c -0.834844,0.834921 -2.182138,0.81786 -3.03125,-0.03125 l -3,-3.03125 c -1.84561,1.073389 -3.857669,1.937515 -5.96875,2.5 v 4.21875 c 0,1.200828 -0.944354,2.1875 -2.125,2.1875 h -8.3125 c -1.180646,0 -2.125,-0.986673 -2.125,-2.1875 v -4.21875 c -2.111081,-0.562485 -4.123141,-1.426613 -5.96875,-2.5 l -3,3.03125 c -0.849114,0.849022 -2.196407,0.866084 -3.03125,0.03125 l -5.875,-5.875 c -0.417421,-0.417418 -0.6298,-0.981833 -0.625,-1.53125 0.0047,-0.549422 0.231693,-1.075441 0.65625,-1.5 l 3.03125,-3 c -1.073391,-1.845614 -1.937528,-3.857673 -2.5,-5.96875 h -4.21875 c -1.200828,0 -2.1875,-0.944347 -2.1875,-2.125 v -8.3125 c 0,-1.180643 0.986672,-2.125 2.1875,-2.125 h 4.21875 c 0.562472,-2.111076 1.426609,-4.123135 2.5,-5.96875 l -3.03125,-3 c -0.849107,-0.84911 -0.866093,-2.196403 -0.03125,-3.03125 l 5.875,-5.875 c 0.834843,-0.834932 2.182137,-0.817858 3.03125,0.03125 l 3,3.03125 c 1.845609,-1.073383 3.85767,-1.937533 5.96875,-2.5 V 20.1875 c 0,-1.200817 0.944355,-2.1875 2.125,-2.1875 z M -52,38.9375 c -5.006511,0 -9.0625,4.055982 -9.0625,9.0625 0,5.006505 4.055989,9.0625 9.0625,9.0625 5.00651,0 9.0625,-4.055995 9.0625,-9.0625 0,-5.00652 -4.05599,-9.0625 -9.0625,-9.0625 z"
       id="path26" /></clipPath><filter
     id="j"
     color-interpolation-filters="sRGB"
     height="1.3213328"
     width="1.3213336"
     x="-0.16066687"
     y="-0.16066641"><feGaussianBlur
       stdDeviation="3.6000051"
       id="feGaussianBlur29" /></filter><clipPath
     id="k"><rect
       height="84"
       rx="6"
       width="84"
       x="6"
       y="6"
       id="rect32" /></clipPath><filter
     id="l"
     color-interpolation-filters="sRGB"
     height="1.3915758"
     width="1.3915758"
     x="-0.19578789"
     y="-0.19578789"><feGaussianBlur
       stdDeviation="5.28"
       id="feGaussianBlur35" /></filter><linearGradient
     id="m"
     gradientUnits="userSpaceOnUse"
     x1="48"
     x2="48"
     xlink:href="#e"
     y1="20.220806"
     y2="138.66119" /><g
     id="g79"
     transform="matrix(0.5952381,0,0,0.5952381,-3.5714286,-3.5714286)"><rect
       fill="url(#a)"
       height="84"
       rx="10.709455"
       width="84"
       x="6"
       y="6"
       id="rect53"
       style="fill:url(#a)"
       ry="10.709455" /><path
       id="path1766"
       d="m 18.084174,5.9312091 c -0.194531,0 -0.396553,0.056407 -0.584053,0.1689073 -0.499999,0.2999997 -0.599149,0.9000996 -0.299149,1.4000991 l 1.137581,1.83763 C 15.726839,10.774817 14.188828,13.2292 13.999874,16.000526 h 20.000252 c -0.190925,-2.800223 -1.76057,-5.274967 -4.422115,-6.7054161 l 1.221016,-1.7948944 c 0.3,-0.4999995 0.200851,-1.1000994 -0.299149,-1.4000991 C 29.999879,5.8001167 29.399779,5.899266 29.099779,6.3992655 L 27.665085,8.5095892 C 26.566138,8.1811871 25.341012,8.0008323 24,8.0008323 c -1.386185,0 -2.647882,0.193578 -3.774977,0.5433524 -0.0081,-0.014873 -0.01559,-0.030061 -0.02442,-0.044771 L 18.90022,6.3992655 C 18.71272,6.0867658 18.408393,5.9312091 18.084174,5.9312091 Z m 1.914961,5.6695869 c 0.6,0 1.001234,0.3992 1.001234,0.999199 0,0.499999 -0.401234,0.999199 -1.001234,0.999199 -0.599999,0 -0.999198,-0.3992 -0.999198,-0.999199 0,-0.599999 0.399199,-0.999199 0.999198,-0.999199 z m 8.001729,0 c 0.6,0 0.999199,0.3992 0.999199,0.999199 0,0.499999 -0.399199,0.999199 -0.999199,0.999199 -0.599999,0 -1.001233,-0.3992 -1.001233,-0.999199 0,-0.599999 0.401234,-0.999199 1.001233,-0.999199 z M 9.9990091,18.000958 c -1.0999989,0 -1.9983972,0.898399 -1.9983972,1.998398 v 9.000927 c 0,1.099999 0.8983983,2.000432 1.9983972,2.000432 1.0999989,0 2.0004319,-0.900433 2.0004319,-2.000432 v -9.000927 c 0,-1.099999 -0.900433,-1.998398 -2.0004319,-1.998398 z m 4.0008649,0 v 14.998155 c 0,1.099999 0.900433,2.000432 2.000432,2.000432 h 2.000432 v 5.000063 c 0,1.099999 0.898398,2.000432 1.998397,2.000432 1.099999,0 2.000432,-0.900433 2.000432,-2.000432 v -5.000063 h 4.000865 v 5.000063 c 0,1.099999 0.900433,2.000432 2.000432,2.000432 1.099999,0 1.998397,-0.900433 1.998397,-2.000432 v -5.000063 h 2.000433 c 1.099998,0 2.000432,-0.900433 2.000432,-2.000432 V 18.000958 Z m 24.001116,0 c -1.099999,0 -2.000432,0.898399 -2.000432,1.998398 v 9.000927 c 0,1.099999 0.900433,2.000432 2.000432,2.000432 1.099999,0 1.998397,-0.900433 1.998397,-2.000432 v -9.000927 c 0,-1.099999 -0.898398,-1.998398 -1.998397,-1.998398 z"
       transform="matrix(1.6123859,0,0,1.6123859,9.3027385,9.3581644)"
       style="fill:url(#linearGradient1792);fill-opacity:1" /><path
       id="rect874"
       style="fill:#000000;stroke-width:5.88;stop-color:#000000;filter:url(#filter942)"
       d="m 24.837657,13.669274 c -5.933033,0 -10.70672,4.776969 -10.70672,10.71 v 50.678907 c 0,5.933031 4.773687,10.71 10.70672,10.71 H 74.11875 c 5.933031,0 10.71,-4.776969 10.71,-10.71 V 24.379274 c 0,-5.933031 -4.776969,-10.71 -10.71,-10.71 z m 13.623748,6.270469 c 0.522766,0 1.01346,0.250818 1.315783,0.754688 l 2.096717,3.38625 c 0.01424,0.02372 0.02632,0.04821 0.03938,0.07219 1.81731,-0.563972 3.851655,-0.876095 6.086719,-0.876095 2.162226,0 4.137606,0.290803 5.909531,0.820314 l 2.313281,-3.402657 c 0.483716,-0.806192 1.45131,-0.966059 2.2575,-0.482344 0.806192,0.483715 0.966059,1.451309 0.482343,2.2575 l -1.96875,2.894063 c 4.291434,2.306433 6.822312,6.296682 7.130157,10.811719 H 31.875938 c 0.304666,-4.468444 2.784538,-8.425864 6.995624,-10.742814 l -1.834219,-2.962968 c -0.483716,-0.806191 -0.323847,-1.773785 0.482345,-2.2575 0.302321,-0.181394 0.62806,-0.272344 0.941717,-0.272344 z m 3.087657,9.141562 c -0.967428,0 -1.611093,0.643665 -1.611093,1.611095 0,0.967428 0.643665,1.611093 1.611093,1.611093 0.967431,0 1.614376,-0.804903 1.614376,-1.611093 0,-0.96743 -0.646945,-1.611095 -1.614376,-1.611095 z m 12.901876,0 c -0.96743,0 -1.614376,0.643665 -1.614376,1.611095 0,0.967428 0.646946,1.611093 1.614376,1.611093 0.96743,0 1.611093,-0.804903 1.611093,-1.611093 0,-0.96743 -0.643663,-1.611095 -1.611093,-1.611095 z M 25.425,39.400836 c 1.773621,0 3.225469,1.448567 3.225469,3.222188 v 14.512969 c 0,1.773621 -1.451848,3.225469 -3.225469,3.225469 -1.773621,0 -3.222188,-1.451848 -3.222188,-3.225469 V 42.623024 c 0,-1.773621 1.448567,-3.222188 3.222188,-3.222188 z m 6.450938,0 H 64.124062 V 63.58365 c 0,1.773619 -1.451849,3.225467 -3.225469,3.225467 h -3.225469 v 8.062033 c 0,1.773619 -1.448566,3.225467 -3.222186,3.225467 -1.773621,0 -3.225469,-1.451848 -3.225469,-3.225467 v -8.062033 h -6.450938 v 8.062033 c 0,1.773619 -1.451848,3.225467 -3.225469,3.225467 -1.773621,0 -3.222188,-1.451848 -3.222188,-3.225467 v -8.062033 h -3.225469 c -1.773619,0 -3.225467,-1.451848 -3.225467,-3.225467 z m 38.699062,0 c 1.773621,0 3.222186,1.448567 3.222186,3.222188 v 14.512969 c 0,1.773621 -1.448565,3.225469 -3.222186,3.225469 -1.773621,0 -3.225469,-1.451848 -3.225469,-3.225469 V 42.623024 c 0,-1.773621 1.451848,-3.222188 3.225469,-3.222188 z"
       clip-path="url(#clipPath936)" /></g></svg>
