<?xml version="1.0" encoding="UTF-8" standalone="no"?>
<svg
   height="50"
   width="50"
   version="1.1"
   id="svg83"
   sodipodi:docname="DaVinci_Resolve_Box.svg"
   inkscape:export-filename="Arch_Box.svg"
   inkscape:export-xdpi="96"
   inkscape:export-ydpi="96"
   inkscape:version="1.2.2 (b0a8486541, 2022-12-01)"
   xml:space="preserve"
   xmlns:inkscape="http://www.inkscape.org/namespaces/inkscape"
   xmlns:sodipodi="http://sodipodi.sourceforge.net/DTD/sodipodi-0.dtd"
   xmlns:xlink="http://www.w3.org/1999/xlink"
   xmlns="http://www.w3.org/2000/svg"
   xmlns:svg="http://www.w3.org/2000/svg"><defs
     id="defs87"><linearGradient
       inkscape:collect="always"
       xlink:href="#h"
       id="linearGradient964"
       x1="17.090357"
       y1="47.999996"
       x2="78.909637"
       y2="47.999996"
       gradientUnits="userSpaceOnUse"
       gradientTransform="matrix(0.94904762,0,0,0.94904762,2.4457139,2.445714)" /><clipPath
       clipPathUnits="userSpaceOnUse"
       id="clipPath1031"><path
         d="m 47.997102,18.660447 c -2.614912,6.398231 -4.18502,10.590976 -7.091551,16.807668 1.780614,1.890694 3.972582,4.094253 7.524151,6.577839 -3.821943,-1.579761 -6.4272,-3.157592 -8.379694,-4.797225 -3.721519,7.775213 -9.555827,18.829688 -21.384732,40.092751 9.304763,-5.370805 16.506393,-8.680968 23.225214,-9.947868 -0.281963,-1.237931 -0.451913,-2.574356 -0.442257,-3.984169 l 0.0097,-0.291617 c 0.150646,-5.965633 3.248363,-10.540765 6.91967,-10.229833 3.671306,0.310931 6.527625,5.392049 6.386642,11.35575 -0.0309,1.116263 -0.160288,2.191968 -0.382386,3.198151 6.649295,1.2978 13.779469,4.596374 22.952906,9.897657 -1.811511,-3.329476 -3.420245,-6.33643 -4.969106,-9.192751 -2.423717,-1.881037 -4.959449,-4.335655 -10.11975,-6.991125 3.55157,0.925068 6.08537,1.991117 8.066832,3.178837 C 54.630946,35.155254 53.373701,31.271509 47.993239,18.658516 Z"
         id="path1033"
         style="fill:url(#linearGradient1035);fill-opacity:1;stroke-width:1.93124"
         sodipodi:nodetypes="ccccccccscccccccc" /></clipPath><linearGradient
       inkscape:collect="always"
       xlink:href="#h"
       id="linearGradient1035"
       gradientUnits="userSpaceOnUse"
       gradientTransform="matrix(0.94904762,0,0,0.94904762,2.4457139,2.4457141)"
       x1="17.090357"
       y1="47.999996"
       x2="78.909637"
       y2="47.999996" /><filter
       inkscape:collect="always"
       style="color-interpolation-filters:sRGB"
       id="filter1037"
       x="-0.024545737"
       y="-0.02999958"
       width="1.0490915"
       height="1.0599992"><feGaussianBlur
         inkscape:collect="always"
         stdDeviation="1.0276321"
         id="feGaussianBlur1039" /></filter></defs><sodipodi:namedview
     id="namedview85"
     pagecolor="#ffffff"
     bordercolor="#000000"
     borderopacity="0.25"
     inkscape:showpageshadow="2"
     inkscape:pageopacity="0.0"
     inkscape:pagecheckerboard="0"
     inkscape:deskcolor="#d1d1d1"
     showgrid="false"
     inkscape:zoom="14.934095"
     inkscape:cx="14.530509"
     inkscape:cy="26.282142"
     inkscape:window-width="2560"
     inkscape:window-height="1369"
     inkscape:window-x="0"
     inkscape:window-y="0"
     inkscape:window-maximized="1"
     inkscape:current-layer="g79" /><linearGradient
     id="a"
     gradientUnits="userSpaceOnUse"
     x1="48"
     x2="48"
     y1="90"
     y2="5.9877172"><stop
       offset="0"
       stop-color="#ebebeb"
       id="stop2"
       style="stop-color:#585858;stop-opacity:1;" /><stop
       offset="1"
       stop-color="#fafafa"
       id="stop4"
       style="stop-color:#818181;stop-opacity:1;" /></linearGradient><linearGradient
     id="b"
     gradientTransform="matrix(1.0058652,0,0,0.994169,100,0)"
     gradientUnits="userSpaceOnUse"
     x1="45.447727"
     x2="45.447727"
     y1="92.539597"
     y2="7.0165401"><stop
       offset="0"
       id="stop7" /><stop
       offset="1"
       stop-opacity=".588235"
       id="stop9" /></linearGradient><linearGradient
     id="c"
     gradientTransform="matrix(1.0238095,0,0,1.0119048,-1.142857,-98.071429)"
     gradientUnits="userSpaceOnUse"
     x1="32.251034"
     x2="32.251034"
     xlink:href="#b"
     y1="6.1317081"
     y2="90.238609" /><linearGradient
     id="d"
     gradientTransform="translate(0,-97)"
     gradientUnits="userSpaceOnUse"
     x1="32.251034"
     x2="32.251034"
     xlink:href="#b"
     y1="6.1317081"
     y2="90.238609" /><linearGradient
     id="e"><stop
       offset="0"
       stop-color="#fff"
       id="stop14" /><stop
       offset="1"
       stop-color="#fff"
       stop-opacity="0"
       id="stop16" /></linearGradient><radialGradient
     id="f"
     cx="48"
     cy="90.171875"
     gradientTransform="matrix(1.1573129,0,0,0.99590774,-7.551021,0.197132)"
     gradientUnits="userSpaceOnUse"
     r="42"
     xlink:href="#e" /><linearGradient
     id="g"
     gradientUnits="userSpaceOnUse"
     x1="36.357143"
     x2="36.357143"
     xlink:href="#e"
     y1="6"
     y2="63.893143"
     gradientTransform="matrix(0.91995739,0,0,0.98668795,0.48025569,1.1935087)" /><linearGradient
     id="h"
     gradientTransform="rotate(-90,48.000087,47.999896)"
     gradientUnits="userSpaceOnUse"
     x1="18.000002"
     x2="78.000175"
     y1="47.999897"
     y2="47.999897"><stop
       offset="0"
       stop-color="#bababa"
       id="stop21"
       style="stop-color:#818181;stop-opacity:1;" /><stop
       offset="1"
       stop-color="#d2d2d2"
       id="stop23"
       style="stop-color:#a7a7a7;stop-opacity:1;" /></linearGradient><clipPath
     id="i"><path
       d="m -88,6 c -3.324,0 -6,2.676 -6,6 v 72 c 0,3.324 2.676,6 6,6 h 72 c 3.324,0 6,-2.676 6,-6 V 12 c 0,-3.324 -2.676,-6 -6,-6 z m 31.84375,12 h 8.3125 c 1.180648,0 2.125,0.986683 2.125,2.1875 v 4.21875 c 2.111082,0.562476 4.123141,1.426616 5.96875,2.5 l 3,-3.03125 c 0.849111,-0.849025 2.196406,-0.866085 3.03125,-0.03125 l 5.875,5.875 c 0.834848,0.834847 0.817863,2.18214 -0.03125,3.03125 l -3.03125,3 c 1.073391,1.845617 1.937528,3.857672 2.5,5.96875 h 4.21875 c 1.200827,0 2.1875,0.944356 2.1875,2.125 v 8.3125 c 0,1.180653 -0.986672,2.125 -2.1875,2.125 h -4.21875 c -0.562472,2.111079 -1.426609,4.123134 -2.5,5.96875 l 3.03125,3 c 0.849106,0.849111 0.866094,2.196416 0.03125,3.03125 l -5.875,5.875 c -0.834844,0.834921 -2.182138,0.81786 -3.03125,-0.03125 l -3,-3.03125 c -1.84561,1.073389 -3.857669,1.937515 -5.96875,2.5 v 4.21875 c 0,1.200828 -0.944354,2.1875 -2.125,2.1875 h -8.3125 c -1.180646,0 -2.125,-0.986673 -2.125,-2.1875 v -4.21875 c -2.111081,-0.562485 -4.123141,-1.426613 -5.96875,-2.5 l -3,3.03125 c -0.849114,0.849022 -2.196407,0.866084 -3.03125,0.03125 l -5.875,-5.875 c -0.417421,-0.417418 -0.6298,-0.981833 -0.625,-1.53125 0.0047,-0.549422 0.231693,-1.075441 0.65625,-1.5 l 3.03125,-3 c -1.073391,-1.845614 -1.937528,-3.857673 -2.5,-5.96875 h -4.21875 c -1.200828,0 -2.1875,-0.944347 -2.1875,-2.125 v -8.3125 c 0,-1.180643 0.986672,-2.125 2.1875,-2.125 h 4.21875 c 0.562472,-2.111076 1.426609,-4.123135 2.5,-5.96875 l -3.03125,-3 c -0.849107,-0.84911 -0.866093,-2.196403 -0.03125,-3.03125 l 5.875,-5.875 c 0.834843,-0.834932 2.182137,-0.817858 3.03125,0.03125 l 3,3.03125 c 1.845609,-1.073383 3.85767,-1.937533 5.96875,-2.5 V 20.1875 c 0,-1.200817 0.944355,-2.1875 2.125,-2.1875 z M -52,38.9375 c -5.006511,0 -9.0625,4.055982 -9.0625,9.0625 0,5.006505 4.055989,9.0625 9.0625,9.0625 5.00651,0 9.0625,-4.055995 9.0625,-9.0625 0,-5.00652 -4.05599,-9.0625 -9.0625,-9.0625 z"
       id="path26" /></clipPath><filter
     id="j"
     color-interpolation-filters="sRGB"
     height="1.3213328"
     width="1.3213336"
     x="-0.16066687"
     y="-0.16066641"><feGaussianBlur
       stdDeviation="3.6000051"
       id="feGaussianBlur29" /></filter><clipPath
     id="k"><rect
       height="84"
       rx="6"
       width="84"
       x="6"
       y="6"
       id="rect32" /></clipPath><filter
     id="l"
     color-interpolation-filters="sRGB"
     height="1.3915758"
     width="1.3915758"
     x="-0.19578789"
     y="-0.19578789"><feGaussianBlur
       stdDeviation="5.28"
       id="feGaussianBlur35" /></filter><linearGradient
     id="m"
     gradientUnits="userSpaceOnUse"
     x1="48"
     x2="48"
     xlink:href="#e"
     y1="20.220806"
     y2="138.66119" /><g
     id="g79"
     transform="matrix(0.5952381,0,0,0.5952381,-3.5714286,-3.5714286)"><rect
       fill="url(#a)"
       height="84"
       rx="10.709455"
       width="84"
       x="6"
       y="6"
       id="rect53"
       style="fill:url(#a)"
       ry="10.709455" /><path
       d="m 47.997102,18.660447 c -2.614912,6.398231 -4.185019,10.590976 -7.09155,16.807669 1.780612,1.890694 3.972581,4.094251 7.52415,6.577838 -3.821944,-1.579762 -6.4272,-3.157593 -8.379694,-4.797225 C 36.328489,45.023942 30.494182,56.078418 18.665276,77.34148 27.970038,71.970675 35.17167,68.660512 41.89049,67.393612 41.608527,66.15568 41.438577,64.819255 41.448233,63.409443 l 0.0097,-0.291618 c 0.150638,-5.965632 3.248363,-10.540764 6.91967,-10.229832 3.671306,0.310931 6.527625,5.39205 6.386643,11.35575 -0.0309,1.116263 -0.160293,2.191969 -0.382387,3.19815 6.649295,1.297801 13.77947,4.596375 22.952906,9.897658 C 75.523254,74.010075 73.914521,71.00312 72.36566,68.1468 69.941942,66.265762 67.406211,63.811144 62.245909,61.155674 c 3.55157,0.925069 6.08537,1.991119 8.066833,3.178838 C 54.630946,35.155254 53.373702,31.271509 47.99324,18.658516 Z"
       id="path267"
       style="fill:url(#linearGradient964);fill-opacity:1;stroke-width:1.93125"
       sodipodi:nodetypes="ccccccccscccccccc" /><path
       id="rect1018"
       style="fill:#000000;stroke-width:2.7252;-inkscape-stroke:none;filter:url(#filter1037);stop-color:#000000"
       d="m 10.455937,10.252405 c -5.9330314,0 -10.70999945,4.776968 -10.70999945,10.710001 v 60.791718 c 0,5.933032 4.77696805,10.71 10.70999945,10.71 h 79.058437 c 5.933032,0 10.709996,-4.776968 10.709996,-10.71 V 20.962406 c 0,-5.933033 -4.776964,-10.710001 -10.709996,-10.710001 z M 47.996718,20.55225 c 5.378842,12.609417 6.63586,16.495947 22.315781,45.671718 -1.981461,-1.187718 -4.513746,-2.254463 -8.065312,-3.179531 5.160297,2.655467 7.695659,5.111307 10.119375,6.992344 1.548859,2.856317 3.156303,5.864589 4.967812,9.194062 -9.173426,-5.301278 -16.303055,-8.601732 -22.952343,-9.899531 0.222094,-1.00618 0.349725,-2.082957 0.380625,-3.199219 0.140982,-5.963694 -2.71401,-11.042194 -6.385313,-11.353125 -3.671303,-0.310932 -6.769518,4.26203 -6.920156,10.227656 l -0.0098,0.292032 c -0.0097,1.40981 0.161006,2.745506 0.442969,3.983437 -6.718813,1.266899 -13.919934,4.57795 -23.224687,9.94875 C 30.494563,57.967802 36.32806,46.912455 40.049575,39.13725 c 1.952492,1.63963 4.558372,3.217427 8.380312,4.797187 -3.551565,-2.483585 -5.743296,-4.684933 -7.523906,-6.575625 2.906045,-6.215653 4.476654,-10.410135 7.090781,-16.806562 z"
       clip-path="url(#clipPath1031)" /></g></svg>
