<?xml version="1.0" encoding="UTF-8" standalone="no"?>
<svg
   inkscape:version="1.4.2 (ebf0e940d0, 2025-05-08)"
   sodipodi:docname="Arch_Box.svg"
   viewBox="0 0 500.49978 500.49979"
   height="500.49979"
   width="500.49979"
   id="svg10"
   version="1.1"
   xml:space="preserve"
   inkscape:export-filename="Arch_Box.svg"
   inkscape:export-xdpi="196.41167"
   inkscape:export-ydpi="196.41167"
   xmlns:inkscape="http://www.inkscape.org/namespaces/inkscape"
   xmlns:sodipodi="http://sodipodi.sourceforge.net/DTD/sodipodi-0.dtd"
   xmlns:xlink="http://www.w3.org/1999/xlink"
   xmlns="http://www.w3.org/2000/svg"
   xmlns:svg="http://www.w3.org/2000/svg"
   xmlns:rdf="http://www.w3.org/1999/02/22-rdf-syntax-ns#"
   xmlns:cc="http://creativecommons.org/ns#"
   xmlns:dc="http://purl.org/dc/elements/1.1/"><metadata
     id="metadata16"><rdf:RDF><cc:Work
         rdf:about=""><dc:format>image/svg+xml</dc:format><dc:type
           rdf:resource="http://purl.org/dc/dcmitype/StillImage" /><dc:title /></cc:Work></rdf:RDF></metadata><defs
     id="defs14"><linearGradient
       id="linearGradient5"
       inkscape:collect="always"><stop
         id="stop4"
         offset="0"
         style="stop-color:#001e87;stop-opacity:1;" /><stop
         id="stop5"
         offset="1"
         style="stop-color:#85aee8;stop-opacity:1;" /></linearGradient><linearGradient
       id="linearGradient14"
       inkscape:collect="always"><stop
         style="stop-color:#85aee8;stop-opacity:1;"
         offset="0"
         id="stop14" /><stop
         style="stop-color:#416fa4;stop-opacity:1;"
         offset="0.50015002"
         id="stop17" /><stop
         style="stop-color:#001e87;stop-opacity:1;"
         offset="1"
         id="stop15" /></linearGradient><linearGradient
       id="linearGradient857"
       inkscape:collect="always"><stop
         id="stop853"
         offset="0"
         style="stop-color:#ffffff;stop-opacity:0.50190115" /><stop
         id="stop855"
         offset="1"
         style="stop-color:#ffffff;stop-opacity:0;" /></linearGradient><radialGradient
       inkscape:collect="always"
       xlink:href="#linearGradient14"
       id="radialGradient17"
       gradientUnits="userSpaceOnUse"
       gradientTransform="matrix(2.138732,0,0,1.4723629,-57.074454,-46.405346)"
       cx="50.121059"
       cy="98.240883"
       fx="50.121059"
       fy="98.240883"
       r="51.06337" /><linearGradient
       inkscape:collect="always"
       xlink:href="#linearGradient5"
       id="linearGradient17"
       gradientUnits="userSpaceOnUse"
       x1="50.121063"
       y1="-8.828938e-07"
       x2="50.121063"
       y2="100" /><linearGradient
       inkscape:collect="always"
       xlink:href="#linearGradient857"
       id="linearGradient18"
       x1="50.121063"
       y1="-1.0633707"
       x2="50.121063"
       y2="37.052311"
       gradientUnits="userSpaceOnUse" /><linearGradient
       id="linearGradient655"><stop
         id="stop656"
         style="stop-color:#ffffff;stop-opacity:0.91759998"
         offset="0" /><stop
         id="stop657"
         style="stop-color:#ffffff;stop-opacity:0"
         offset="1" /></linearGradient><linearGradient
       id="linearGradient652"><stop
         id="stop653"
         style="stop-color:#ffffff;stop-opacity:0.74119997"
         offset="0" /><stop
         id="stop654"
         style="stop-color:#ffffff;stop-opacity:0"
         offset="1" /></linearGradient><linearGradient
       id="linearGradient643"><stop
         id="stop644"
         style="stop-color:#001e87;stop-opacity:1"
         offset="0" /><stop
         id="stop645"
         style="stop-color:#85aee8;stop-opacity:1"
         offset="1" /></linearGradient><linearGradient
       id="linearGradient639"><stop
         id="stop640"
         style="stop-color:#000000;stop-opacity:0.66670001"
         offset="0" /><stop
         id="stop641"
         style="stop-color:#ffffff;stop-opacity:0.66670001"
         offset="1" /></linearGradient><linearGradient
       x1="262.13797"
       y1="131.27525"
       x2="258.51834"
       y2="412.16269"
       id="linearGradient642"
       xlink:href="#linearGradient643"
       gradientUnits="userSpaceOnUse"
       gradientTransform="matrix(0.54976303,0,0,0.54672932,-12.778504,-9.9453842)" /><linearGradient
       x1="330.06006"
       y1="210.7088"
       x2="78.073174"
       y2="615.28638"
       id="linearGradient646"
       xlink:href="#linearGradient639"
       gradientUnits="userSpaceOnUse"
       gradientTransform="matrix(0.69551382,0,0,0.43215756,-12.778504,-9.9453842)" /><linearGradient
       x1="311.32385"
       y1="56.541351"
       x2="347.72528"
       y2="225.29604"
       id="linearGradient648"
       xlink:href="#linearGradient652"
       gradientUnits="userSpaceOnUse"
       gradientTransform="matrix(0.54666224,0,0,0.54983046,-5.0249849,-4.1302342)" /><linearGradient
       x1="307.68372"
       y1="52.872341"
       x2="304.04358"
       y2="181.27307"
       id="linearGradient659"
       xlink:href="#linearGradient652"
       gradientUnits="userSpaceOnUse"
       gradientTransform="matrix(0.54666224,0,0,0.54983046,-5.0249849,-4.1302342)" /><linearGradient
       x1="406.30573"
       y1="222.42775"
       x2="356.68286"
       y2="275.92722"
       id="linearGradient662"
       xlink:href="#linearGradient655"
       gradientUnits="userSpaceOnUse"
       gradientTransform="matrix(0.68606785,0,0,0.43810761,-5.0249849,-4.1302342)" /><filter
       height="3.3279595"
       y="-1.1639797"
       width="2.9436529"
       x="-0.97182644"
       id="filter5354"
       style="color-interpolation-filters:sRGB"
       inkscape:collect="always"><feGaussianBlur
         id="feGaussianBlur5356"
         stdDeviation="12.388762"
         inkscape:collect="always" /></filter><filter
       height="3.3780646"
       y="-1.1890323"
       width="2.910052"
       x="-0.95502601"
       id="filter5358"
       style="color-interpolation-filters:sRGB"
       inkscape:collect="always"><feGaussianBlur
         id="feGaussianBlur5360"
         stdDeviation="12.88927"
         inkscape:collect="always" /></filter><filter
       height="3.3757702"
       y="-1.1878851"
       width="2.9115349"
       x="-0.95576743"
       id="filter5362"
       style="color-interpolation-filters:sRGB"
       inkscape:collect="always"><feGaussianBlur
         id="feGaussianBlur5364"
         stdDeviation="12.822272"
         inkscape:collect="always" /></filter><filter
       height="3.3220523"
       y="-1.1610261"
       width="2.9477897"
       x="-0.97389483"
       id="filter5366"
       style="color-interpolation-filters:sRGB"
       inkscape:collect="always"><feGaussianBlur
         id="feGaussianBlur5368"
         stdDeviation="12.408512"
         inkscape:collect="always" /></filter></defs><sodipodi:namedview
     inkscape:current-layer="g18"
     inkscape:window-maximized="1"
     inkscape:window-y="0"
     inkscape:window-x="0"
     inkscape:cy="269.63206"
     inkscape:cx="246.37307"
     inkscape:zoom="2.3216824"
     showgrid="false"
     id="namedview12"
     inkscape:window-height="1412"
     inkscape:window-width="2560"
     inkscape:pageshadow="2"
     inkscape:pageopacity="0"
     guidetolerance="10"
     gridtolerance="10"
     objecttolerance="10"
     borderopacity="1"
     bordercolor="#666666"
     pagecolor="#ffffff"
     inkscape:showpageshadow="2"
     inkscape:pagecheckerboard="0"
     inkscape:deskcolor="#d1d1d1"><inkscape:page
       x="0"
       y="0"
       width="500.49979"
       height="500.49979"
       id="page2"
       margin="0"
       bleed="0" /></sodipodi:namedview><g
     id="g18"
     inkscape:label="Arch Linux"
     inkscape:groupmode="layer"
     transform="translate(0.00989297,0.80989602)"><rect
       style="clip-rule:evenodd;opacity:1;fill:url(#radialGradient17);fill-rule:evenodd;stroke:none;stroke-width:2.12674;stroke-linejoin:round;stroke-miterlimit:2;stroke-dasharray:none;stroke-opacity:1"
       id="rect8"
       width="100"
       height="100"
       x="0.12106147"
       y="0"
       ry="21.520769"
       transform="matrix(4.9007712,0,0,4.9007712,4.6081476,4.4014407)"
       inkscape:label="Background" /><rect
       style="clip-rule:evenodd;opacity:1;fill:url(#linearGradient18);fill-rule:evenodd;stroke:none;stroke-width:2.12674;stroke-linejoin:round;stroke-miterlimit:2;stroke-dasharray:none;stroke-opacity:1"
       id="rect18"
       width="100"
       height="100"
       x="0.12106147"
       y="0"
       ry="21.520769"
       inkscape:label="Light"
       transform="matrix(4.9007712,0,0,4.9007712,4.6081455,4.401437)" /><g
       id="g3"
       transform="translate(-56.457947,332.59639)"
       inkscape:label="Text"
       style="fill:#ffffff;fill-opacity:1"><path
         d="m 133.27777,48.677356 2.43137,-14.498 c 2.3518,-0.93438 8.43445,-2.66727 15.75985,-2.73816 24.55544,-0.2367 21.86946,18.6459 21.98033,23.57046 l -0.13016,34.80589 -11.56291,2.29096 -0.002,-5.43931 c -1.69134,1.14332 -5.07658,5.43931 -14.09923,5.72504 -8.46163,0 -20.87148,-5.15338 -20.58989,-23.19001 0.002,-16.0318 13.53604,-20.13048 23.12798,-20.05762 7.60325,0.0593 10.02103,4.4043 9.87157,4.14004 0.15931,-4.55002 -0.65062,-7.90139 -9.43854,-8.1499 -5.30757,-0.15183 -17.35411,3.59397 -17.3482,3.54061 m 16.49199,13.0847 c -4.98737,-0.0711 -10.20771,3.59574 -10.29514,8.58765 0.0177,5.58306 5.63997,9.16325 9.87157,9.16325 4.22983,0 10.73584,-3.15052 10.71832,-8.87752 0,-6.29669 -5.50173,-8.85566 -10.29475,-8.87338 z"
         id="path551"
         style="fill:#ffffff;fill-opacity:1;fill-rule:evenodd" /><path
         d="m 180.61226,34.742546 -0.15202,57.63554 13.4746,-3.02882 0.0644,-32.67837 c 0.009,-4.86568 6.29315,-10.6234 14.16796,-10.6234 1.67579,-3.36772 4.82847,-11.96167 5.59645,-13.91708 -17.59357,0.15576 -17.82475,5.80439 -20.88823,8.61699 -0.0252,-5.29792 0,-8.47875 0,-8.47875 l -12.26315,2.47389 z"
         id="path552"
         style="fill:#ffffff;fill-opacity:1;fill-rule:evenodd" /><path
         d="m 255.84925,42.301886 c -0.12997,-0.0662 -6.44911,-9.7156 -20.31224,-9.626 -12.98486,-0.0896 -27.55689,5.65237 -27.82076,29.76436 0.0866,21.196 13.9537,29.3203 27.81879,29.32227 14.83788,0 20.7553,-10.51234 21.10976,-10.77523 -1.76834,-1.67913 -8.39073,-8.56638 -8.39073,-8.56638 0,0 -4.15106,7.24171 -12.18734,7.41716 -8.03825,0.17723 -15.0151,-7.68222 -15.10175,-17.39782 -0.0906,-9.71561 4.94465,-16.4278 14.48145,-16.33821 10.68681,0 13.07348,4.67861 13.07348,4.67861 z"
         id="path553"
         style="fill:#ffffff;fill-opacity:1;fill-rule:evenodd" /><path
         d="m 260.70725,92.027576 12.53785,-2.64916 0.1851,-35.3293 c 0.0315,-3.70484 4.85013,-9.44898 12.88641,-9.36115 7.68379,0 9.38517,5.56494 9.36351,6.26991 l 0.17526,40.89227 12.36457,-2.56133 0.0886,-43.36597 c 0.0866,-4.1741 -8.23911,-12.89645 -21.63947,-12.80488 -9.67661,0.12859 -12.81354,3.87025 -13.24479,4.15086 v -23.7595 l -12.71902,3.44568 0.002,75.07257 z"
         id="path554"
         style="fill:#ffffff;fill-opacity:1;fill-rule:evenodd" /><path
         d="m 319.17063,22.342736 5.7402,-1.5019 0.0906,68.36035 -5.83078,1.05962 v -67.91807 z"
         id="path555"
         style="fill:#ffffff;fill-opacity:1;fill-rule:evenodd" /><path
         d="m 334.71347,42.566746 5.03326,-2.29647 -0.0866,49.01854 -4.858,1.05962 -0.0886,-47.78169 z m -1.14804,-17.66268 4.06244,-3.3561 3.3575,3.70859 -4.06444,3.44372 z"
         id="path556"
         style="fill:#ffffff;fill-opacity:1;fill-rule:evenodd" /><path
         d="m 349.1969,41.507126 5.7402,-1.23685 v 10.24748 c 0,0.44012 3.18023,-11.48433 18.3706,-11.39473 14.74927,-0.0876 17.13197,11.30514 17.04534,13.86647 l 0.0866,36.03427 -5.03127,1.14942 0.065,-35.59436 c 0.0611,-1.04013 -2.27243,-9.80323 -12.69537,-9.71561 -10.421,0.0896 -17.6617,7.77359 -17.6617,12.62962 v 31.35567 l -5.8308,1.58953 z"
         id="path567"
         style="fill:#ffffff;fill-opacity:1;fill-rule:evenodd" /><path
         d="m 440.49857,88.707116 -5.7402,1.23665 v -10.24728 c 0,-0.44032 -3.18223,11.48433 -18.37063,11.39473 -14.74924,0.0876 -17.13197,-11.30514 -17.04534,-13.86647 l -0.0866,-36.03447 6.0986,-1.30104 v 35.59416 c 0,0.97199 1.14017,9.95525 11.5631,9.86743 10.42097,-0.0896 17.7385,-6.48022 17.8153,-15.97784 v -28.08346 l 5.67717,-1.51332 z"
         id="path558"
         style="fill:#ffffff;fill-opacity:1;fill-rule:evenodd" /><path
         d="m 451.87064,39.921526 -4.03094,3.19443 15.36958,20.00996 -16.51171,23.51197 4.25937,3.11842 15.5212,-21.83698 15.90124,21.9888 3.9561,-3.19423 -17.0414,-23.51 13.69573,-19.32823 -4.1865,-3.50024 -12.4768,17.88284 z"
         id="path559"
         style="fill:#ffffff;fill-opacity:1;fill-rule:evenodd" /></g><g
       id="g2"
       transform="translate(100.24,81.049298)"
       inkscape:label="Arch Linux"><g
         id="g21383"
         transform="matrix(5.1173373,0,0,3.327634,959.17555,-113.22802)"
         style="opacity:0.649508;fill:#000000;fill-opacity:1;stroke-width:1.74258"
         inkscape:label="Dropshadow"
         inkscape:export-filename="Arch_Box.svg"
         inkscape:export-xdpi="196.41167"
         inkscape:export-ydpi="196.41167"><path
           id="path21375"
           d="m -173.67391,75.778288 c -1.092,0.027 -2.244,0.14 -3.425,0.336 -1.239,0.206 -2.553,0.509 -3.903,0.903 -1.408,0.408 -2.905,0.93 -4.445,1.549 l -0.011,0.002 c -0.052,0.022 -0.089,0.065 -0.107,0.122 l -6.138,20.796 c -0.034,0.11 0.027,0.223 0.097,0.283 l 0.411,0.305002 c 0,0 0.007,0.004 0.013,0.01 0.099,0.065 0.199,0.063 0.239,0.057 0.002,0 0.013,-0.004 0.013,-0.004 2.299,-0.863002 4.348,-1.482002 6.266,-1.896002 1.869,-0.401 3.552,-0.592 5.146,-0.584 1.333,0.009 2.586,0.146 3.833,0.417 1.125,0.247 2.219,0.599 3.343,1.078 1.576,0.686 3.021,1.549002 4.104,2.223002 l 0.01,0.006 c 0,0 0,0.003 0,0.003 0.034,0.017 0.134,0.063 0.23,0.021 0,0 0.271,-0.155 0.352,-0.203 v 0 l 0.028,-0.019 c 0.055,-0.037 0.13,-0.088 0.152,-0.183 l 0.004,-0.021 c 0,0 0.002,0.003 0.003,0.005 0.012,-0.039 6.109,-20.252002 6.109,-20.252002 l 0.21,-0.694 c 0.003,-0.017 0.006,-0.037 0.006,-0.057 0,-0.079 -0.035,-0.153 -0.094,-0.195 -0.002,0 -0.007,-0.001 -0.007,-0.001 v -10e-4 c -2.601,-1.706 -5.54,-3.353 -9.414,-3.853 -0.975,-0.128 -1.991,-0.177 -3.025,-0.153 z"
           inkscape:connector-curvature="0"
           style="opacity:1;fill:#000000;fill-opacity:1;stroke-width:1.74258;filter:url(#filter5366)" /><path
           id="path21377"
           d="m -158.41291,81.938288 v 0 c -0.071,0.004 -0.144,0.031 -0.254,0.098 0,0.002 -0.001,0.003 -0.001,0.003 h -0.003 l -0.001,0.003 c -0.028,0.019 -0.099,0.066 -0.18,0.128 -0.165,0.125 -0.266,0.227 -0.294,0.296 h -0.001 c 0,0 0,0 0,0 0,0.005 -0.006,0.018 -0.006,0.018 l 0.001,-0.005 -0.001,0.007 v 0.002 l -6.145,20.606002 c -0.106,0.309 0.177,0.478 0.209,0.495 1.577,1.024 3.08,1.831 4.596,2.462 0.888,0.373 1.796,0.688 2.702,0.94 0.981,0.275 1.989,0.488 3,0.63 1.084,0.149 2.202,0.226 3.323,0.223 1.192,-0.006 2.427,-0.099 3.668,-0.277 1.311,-0.189 2.669,-0.48 4.037,-0.866 1.438,-0.403 2.926,-0.924 4.428,-1.546 0.002,0 0.009,-0.005 0.009,-0.005 0.042,-0.026 0.142,-0.087 0.192,-0.188 0,-0.002 6.001,-20.271002 6.003,-20.277002 0,-0.001 -0.002,-0.004 -0.002,-0.004 v -0.002 c 0.008,-0.03 0.009,-0.061 0.009,-0.088 0,-0.167 -0.107,-0.268 -0.108,-0.27 0,0.002 -0.503,-0.386 -0.503,-0.386 v 0 l -10e-4,-0.004 c -0.033,-0.035 -0.121,-0.091 -0.336,-0.06 -1.54,0.505 -3.026,0.923 -4.424,1.251 -1.348,0.313 -2.654,0.549 -3.885,0.699 -2.321,0.284 -4.421,0.284 -6.418,0 -1.759,-0.25 -3.422,-0.723 -5.084,-1.444 -1.343,-0.582 -2.711,-1.336 -4.305,-2.377 l -0.005,-0.002 h 0.002 c -0.1,-0.042 -0.162,-0.06 -0.222,-0.06 z"
           inkscape:connector-curvature="0"
           style="opacity:1;fill:#000000;fill-opacity:1;stroke-width:1.74258;filter:url(#filter5362)" /><path
           id="path21379"
           d="m -151.39191,56.842288 c -0.001,0 -0.105,0.073 -0.105,0.073 -0.211,0.153 -0.337,0.271 -0.372,0.352 l -0.001,0.002 c 0,0 0,10e-4 -0.001,10e-4 0,0.003 -0.021,0.07 -0.021,0.07 0,0.004 -6.165,20.654 -6.165,20.654 -0.017,0.05 -0.024,0.096 -0.024,0.136 0,0.226 0.209,0.342 0.213,0.343 v 0 h 0.001 c 0.489,0.317 0.993,0.622 1.5,0.903 2.366,1.429 4.704,2.378 7.148,2.9 1.416,0.307 2.888,0.468 4.376,0.481 1.608,0.016 3.292,-0.142 5,-0.465 2.535,-0.389 5.111,-1.154 7.653,-2.268 0,-0.002 0.007,-0.004 0.007,-0.004 0.048,-0.023 0.152,-0.091 0.206,-0.19 0,-0.005 6.269,-20.843 6.269,-20.843 0.012,-0.038 0.018,-0.072 0.018,-0.107 0,-0.179 -0.157,-0.329 -0.309,-0.459 -0.084,-0.078 -0.2,-0.177 -0.281,-0.211 -0.17,-0.078 -0.344,-0.053 -0.396,-0.022 -0.001,0 -0.004,0.004 -0.004,0.004 l -10e-4,0.001 c -1.535,0.613 -3.026,1.127 -4.433,1.531 -1.346,0.385 -2.658,0.679 -3.898,0.874 -1.18,0.186 -2.334,0.287 -3.432,0.303 -1.034,0.014 -2.054,-0.046 -3.03,-0.183 -1.752,-0.246 -3.43,-0.734 -5.124,-1.493 -1.683,-0.753 -3.192,-1.692 -4.32,-2.426 -0.193,-0.085 -0.278,-0.079 -0.474,0.043 z"
           inkscape:connector-curvature="0"
           style="opacity:1;fill:#000000;fill-opacity:1;stroke-width:1.74258;filter:url(#filter5358)" /><path
           id="path21381"
           d="m -171.34591,51.064288 c -2.127,0.446 -4.451,1.172 -6.906,2.155 v 0 c -0.022,0.009 -0.091,0.035 -0.114,0.124 l -0.319,1.063 -5.911,19.8 c -0.007,0.021 -0.009,0.044 -0.009,0.07 0,0.096 0.043,0.215 0.091,0.25 0.009,0.007 0.021,0.012 0.028,0.016 l 10e-4,0.002 0.041,0.03 0.364,0.276 0.011,0.006 c 0.012,0.009 0.025,0.018 0.033,0.023 0.075,0.03 0.094,0.03 0.113,0.028 h 0.007 v 0 c 0,-0.002 0.003,-0.002 0.003,-0.002 v 0 -0.001 l 0.011,-0.003 c 0.054,-0.004 0.18,-0.059 0.181,-0.061 5.384,-2.067 9.69,-2.819 13.551,-2.361 1.647,0.195 3.24,0.617 4.872,1.287 1.299,0.535 2.641,1.235 4.217,2.202 l 0.022,0.01 h 0.005 l 0.019,0.01 h 0.001 0.002 l 0.005,0.003 0.006,0.004 h -0.002 c 0.001,0 0.125,0.06 0.228,0.033 0,-0.001 0.388,-0.17 0.388,-0.17 v 0 0 l 0.018,-0.012 c 0.051,-0.036 0.131,-0.091 0.154,-0.19 v 0 0 c 0,0 0,0 0,0 l 3.888,-13.001 2.089,-6.986 0.14,-0.461 c 0,-0.001 0.001,-0.01 0.001,-0.01 0,0 0.101,-0.339 0.101,-0.339 0.003,-0.01 0.004,-0.022 0.006,-0.035 0,-0.009 0,-0.018 0,-0.028 0,-0.079 -0.033,-0.146 -0.091,-0.185 -1.235,-0.81 -2.215,-1.395 -3.178,-1.893 l -0.065,-0.033 c -2.779,-1.434 -5.454,-2.13 -8.417,-2.19 -1.736,-0.036 -3.616,0.154 -5.585,0.569 z"
           inkscape:connector-curvature="0"
           style="opacity:1;fill:#000000;fill-opacity:1;stroke-width:1.74258;filter:url(#filter5354)" /></g><g
         id="g1"
         inkscape:label="Icon"><path
           d="m 216.09826,76.926076 c -0.89084,-5.77257 88.87404,17.27167 83.68513,56.621614 -3.33629,40.22779 -67.34515,77.48503 -183.03046,98.10965 -53.845848,7.4798 -77.721499,8.10359 -77.751088,4.18715 C 38.497814,232.39927 211.4213,212.77422 253.93171,137.35519 277.00736,93.612496 217.10566,83.454076 216.09826,76.926076 Z"
           id="path632"
           style="font-size:12px;fill:url(#linearGradient646);fill-rule:evenodd;stroke-width:2.2875" /><path
           d="m 215.29024,77.151116 c -0.89084,-5.77257 84.83611,21.89254 79.6472,61.242484 -20.78169,33.44349 -67.34515,77.48504 -183.03046,98.10965 -53.84585,7.4798 -77.721495,8.10359 -77.751084,4.18716 C 33.651868,237.24519 208.99832,220.0431 249.08576,142.2011 281.85332,131.41084 216.29769,83.679116 215.29024,77.151116 Z"
           id="path661"
           style="font-size:12px;fill:url(#linearGradient662);fill-rule:evenodd;stroke-width:2.2875" /><path
           d="m 255.97732,236.43961 c 1.42285,15.8038 0.91688,19.07237 -3.05312,18.82813 -5.14944,-0.33339 -4.2802,-6.99318 -5.79269,-11.46883 -16.14217,-54.85669 -52.84124,-140.20525 -107.95277,-140.20525 -54.798199,0 -78.421104,70.35808 -98.293926,128.43325 -2.940112,9.07662 -6.527202,22.93579 -24.8063,23.25722 C 2.9906175,255.31856 -0.5632645,243.09837 0.0695905,235.18814 10.100329,102.13007 58.146075,2.2245558 129.23672,0.02432583 189.66177,-1.8462842 244.09177,104.40594 255.97732,236.43961 Z"
           id="path630"
           style="font-size:12px;fill:url(#linearGradient642);fill-rule:evenodd" /><path
           d="m 255.97729,247.06089 c 1.42286,15.02381 0.91689,18.13104 -3.05311,17.89886 -5.14944,-0.31694 -4.2802,-6.64807 -5.79269,-10.90277 -16.14217,-52.1493 -52.84125,-142.0082 -107.95277,-142.0082 -54.798202,0 -78.421106,75.60828 -98.293907,130.81717 -2.940112,8.62865 -6.527202,21.80383 -24.8063,22.10937 C 2.9906175,265.00805 -0.5632655,253.39097 0.0695895,245.87115 10.100328,119.38011 58.146053,8.8986858 129.2367,6.8070558 189.66175,5.0287458 244.09175,121.54371 255.97729,247.06089 Z"
           id="path658"
           style="font-size:12px;fill:url(#linearGradient659);fill-rule:evenodd" /><path
           d="m 255.97729,247.06089 c 1.42286,15.02381 0.91689,18.13104 -3.05311,17.89886 -5.14944,-0.31694 -4.2802,-6.64807 -5.79269,-10.90277 -16.14217,-52.1493 -52.84125,-142.0082 -107.95277,-142.0082 -54.798202,0 -78.421106,75.60828 -98.293907,130.81717 -2.940112,8.62865 -6.527202,21.80383 -24.8063,22.10937 C 2.9906175,265.00805 -0.5632655,253.39097 0.0695895,245.87115 10.100328,119.38011 58.146053,8.8986858 129.2367,6.8070558 189.66175,5.0287458 244.09175,121.54371 255.97729,247.06089 Z"
           id="path663"
           style="font-size:12px;fill:url(#linearGradient648);fill-rule:evenodd" /></g></g><rect
       style="clip-rule:evenodd;opacity:1;fill:none;fill-rule:evenodd;stroke:url(#linearGradient17);stroke-width:2.12674;stroke-linejoin:round;stroke-miterlimit:2;stroke-dasharray:none;stroke-opacity:1"
       id="rect17"
       width="100"
       height="100"
       x="0.12106147"
       y="0"
       ry="21.520769"
       inkscape:label="Frame"
       transform="matrix(4.9007712,0,0,4.9007712,4.6081476,4.4014407)" /></g></svg>
