<?xml version="1.0" encoding="UTF-8" standalone="no"?>
<!-- Created with Inkscape (http://www.inkscape.org/) -->

<svg
   width="50mm"
   height="50mm"
   viewBox="0 0 50 50"
   version="1.1"
   id="svg1"
   xml:space="preserve"
   sodipodi:docname="Wails_Box.svg"
   inkscape:export-filename="Avalonia_Box.png"
   inkscape:export-xdpi="96"
   inkscape:export-ydpi="96"
   xmlns:inkscape="http://www.inkscape.org/namespaces/inkscape"
   xmlns:sodipodi="http://sodipodi.sourceforge.net/DTD/sodipodi-0.dtd"
   xmlns:xlink="http://www.w3.org/1999/xlink"
   xmlns="http://www.w3.org/2000/svg"
   xmlns:svg="http://www.w3.org/2000/svg"><sodipodi:namedview
     id="namedview1"
     pagecolor="#505050"
     bordercolor="#ffffff"
     borderopacity="1"
     inkscape:showpageshadow="0"
     inkscape:pageopacity="0"
     inkscape:pagecheckerboard="1"
     inkscape:deskcolor="#505050"
     inkscape:document-units="mm"><inkscape:page
       x="0"
       y="0"
       width="50"
       height="50"
       id="page2"
       margin="0"
       bleed="0" /></sodipodi:namedview><defs
     id="defs1"><linearGradient
       id="linearGradient2"><stop
         style="stop-color:#4b91e2;stop-opacity:1;"
         offset="0"
         id="stop2" /><stop
         style="stop-color:#4b91e2;stop-opacity:0;"
         offset="0.30000001"
         id="stop4" /><stop
         style="stop-color:#2d599f;stop-opacity:0;"
         offset="0.69999999"
         id="stop17" /><stop
         style="stop-color:#2d599f;stop-opacity:1;"
         offset="0.99775267"
         id="stop3" /></linearGradient><linearGradient
       xlink:href="#linearGradient2"
       id="linearGradient9"
       x1="25.000004"
       y1="2.3639462"
       x2="25.000004"
       y2="47.63604"
       gradientUnits="userSpaceOnUse" /><svg
       width="436"
       height="455"
       fill="none"
       id="svg-818509380_1006"
       version="1.1"><path
         d="m 218.906,155.606 c -37.976,0 -68.761,32.16 -68.761,71.831 0,39.671 30.785,71.831 68.761,71.831 37.975,0 68.76,-32.16 68.76,-71.831 0,-39.671 -30.785,-71.831 -68.76,-71.831 z"
         fill="#165bff"
         id="path1" /><path
         fill-rule="evenodd"
         clip-rule="evenodd"
         d="M 382.876,455 H 214.448 C 95.951,452.852 0.526,351.8 0.526,227.5 0.526,101.855 98.027,0 218.3,0 336.622,0 432.903,98.573 436,221.397 l -0.377,184.716 C 432.489,433.685 410.113,455 382.876,455 Z M 78.769,194.8 C 93.031,127.676 150.357,77.481 218.906,77.481 c 79.278,0 143.546,67.138 143.546,149.956 0,0.621 0.007,1.295 0.014,1.985 0.016,1.437 0.032,2.949 -0.014,4.23 v 142.725 h -74.683 v -17.334 c -20.444,11.698 -43.91,18.35 -68.863,18.35 -68.549,0 -125.875,-50.195 -140.137,-117.32 13.654,-3.998 23.667,-17.096 23.667,-32.636 0,-15.541 -10.013,-28.638 -23.667,-32.637 z m -9.473,56.534 c 12.687,0 22.971,-10.744 22.971,-23.997 0,-13.253 -10.284,-23.996 -22.97,-23.996 -12.687,0 -22.972,10.743 -22.972,23.996 0,13.253 10.285,23.997 22.971,23.997 z"
         fill="#165bff"
         id="path2" /></svg></defs><g
     id="layer1"
     inkscape:label="Avalonia"><rect
       style="font-variation-settings:normal;vector-effect:none;fill:#eceff4;fill-opacity:1;stroke:none;stroke-width:0.260698;stroke-linecap:butt;stroke-linejoin:miter;stroke-miterlimit:4;stroke-dasharray:none;stroke-dashoffset:0;stroke-opacity:1;-inkscape-stroke:none;stop-color:#000000"
       id="rect1-18"
       width="50"
       height="50"
       x="0"
       y="-4.4408921e-16"
       rx="7.1983109"
       ry="7.1983109" /><rect
       style="fill:none;fill-opacity:1;stroke:url(#linearGradient9);stroke-width:1;stroke-dasharray:none"
       id="rect1-1"
       width="45.037273"
       height="45.037273"
       x="2.4813633"
       y="2.4813633"
       rx="6.4838462"
       ry="6.4838462" /><use
       href="#svg-818509380_1006"
       id="use2"
       transform="matrix(0.06889045,0,0,0.06889045,9.9637637,9.3274226)"
       inkscape:label="Icon" /></g></svg>
