<?xml version="1.0" encoding="UTF-8" standalone="no"?>
<!-- Created with Inkscape (http://www.inkscape.org/) -->

<svg
   width="50mm"
   height="50mm"
   viewBox="0 0 50 50"
   version="1.1"
   id="svg1"
   xml:space="preserve"
   sodipodi:docname="Stride_Box.svg"
   inkscape:version="1.4.2 (f4327f4, 2025-05-13)"
   inkscape:export-filename="Cairo_Box.png"
   inkscape:export-xdpi="96"
   inkscape:export-ydpi="96"
   xmlns:inkscape="http://www.inkscape.org/namespaces/inkscape"
   xmlns:sodipodi="http://sodipodi.sourceforge.net/DTD/sodipodi-0.dtd"
   xmlns:xlink="http://www.w3.org/1999/xlink"
   xmlns="http://www.w3.org/2000/svg"
   xmlns:svg="http://www.w3.org/2000/svg"><sodipodi:namedview
     id="namedview1"
     pagecolor="#ffffff"
     bordercolor="#000000"
     borderopacity="0.25"
     inkscape:showpageshadow="2"
     inkscape:pageopacity="0.0"
     inkscape:pagecheckerboard="0"
     inkscape:deskcolor="#d1d1d1"
     inkscape:document-units="mm"
     inkscape:zoom="3.0929791"
     inkscape:cx="62.076074"
     inkscape:cy="92.305829"
     inkscape:window-width="2560"
     inkscape:window-height="1417"
     inkscape:window-x="2552"
     inkscape:window-y="-8"
     inkscape:window-maximized="1"
     inkscape:current-layer="layer1"><inkscape:page
       x="0"
       y="0"
       width="50"
       height="50"
       id="page1"
       margin="0"
       bleed="0" /></sodipodi:namedview><defs
     id="defs1"><linearGradient
       id="linearGradient5"><stop
         style="stop-color:#0b172d;stop-opacity:1;"
         offset="0.00462963"
         id="stop1" /><stop
         style="stop-color:#2d599d;stop-opacity:1;"
         offset="0.99834436"
         id="stop5" /></linearGradient><linearGradient
       xlink:href="#linearGradient5"
       id="linearGradient1"
       x1="25"
       y1="7.0902283e-06"
       x2="25"
       y2="50.000031"
       gradientUnits="userSpaceOnUse"
       gradientTransform="matrix(0.98039216,0,0,0.98039216,0.49019623,0.49019623)" /><filter
       inkscape:collect="always"
       style="color-interpolation-filters:sRGB"
       id="filter1"
       x="-0.06882552"
       y="-0.06882552"
       width="1.137651"
       height="1.137651"><feGaussianBlur
         inkscape:collect="always"
         stdDeviation="0.9600145"
         id="feGaussianBlur1" /></filter><svg
       width="436"
       height="455"
       fill="none"
       id="svg-818509380_1006"
       version="1.1"><path
         d="m 218.906,155.606 c -37.976,0 -68.761,32.16 -68.761,71.831 0,39.671 30.785,71.831 68.761,71.831 37.975,0 68.76,-32.16 68.76,-71.831 0,-39.671 -30.785,-71.831 -68.76,-71.831 z"
         fill="#165bff"
         id="path1-4" /><path
         fill-rule="evenodd"
         clip-rule="evenodd"
         d="M 382.876,455 H 214.448 C 95.951,452.852 0.526,351.8 0.526,227.5 0.526,101.855 98.027,0 218.3,0 336.622,0 432.903,98.573 436,221.397 l -0.377,184.716 C 432.489,433.685 410.113,455 382.876,455 Z M 78.769,194.8 C 93.031,127.676 150.357,77.481 218.906,77.481 c 79.278,0 143.546,67.138 143.546,149.956 0,0.621 0.007,1.295 0.014,1.985 0.016,1.437 0.032,2.949 -0.014,4.23 v 142.725 h -74.683 v -17.334 c -20.444,11.698 -43.91,18.35 -68.863,18.35 -68.549,0 -125.875,-50.195 -140.137,-117.32 13.654,-3.998 23.667,-17.096 23.667,-32.636 0,-15.541 -10.013,-28.638 -23.667,-32.637 z m -9.473,56.534 c 12.687,0 22.971,-10.744 22.971,-23.997 0,-13.253 -10.284,-23.996 -22.97,-23.996 -12.687,0 -22.972,10.743 -22.972,23.996 0,13.253 10.285,23.997 22.971,23.997 z"
         fill="#165bff"
         id="path2" /></svg><filter
       inkscape:collect="always"
       style="color-interpolation-filters:sRGB"
       id="filter4"
       x="-0.11042115"
       y="-0.10568274"
       width="1.2208423"
       height="1.2113655"><feGaussianBlur
         inkscape:collect="always"
         stdDeviation="1.100863"
         id="feGaussianBlur4" /></filter></defs><g
     id="layer1"
     inkscape:label="Avalonia"><rect
       style="font-variation-settings:normal;display:inline;fill:url(#linearGradient1);stroke:none;stroke-width:0.980392;stroke-linecap:butt;stroke-linejoin:miter;stroke-miterlimit:4;stroke-dasharray:none;stroke-dashoffset:0;stroke-opacity:1;stop-color:#000000"
       id="rect1-18"
       width="49.019608"
       height="49.019608"
       x="0.49019623"
       y="0.49019623"
       rx="7.0571675"
       ry="7.0571675"
       inkscape:label="Background" /><path
       id="path3"
       d="M 25.002068,12.499988 C 18.393662,12.499988 13.03639,18.09643 13.03639,25 c 0,6.82967 5.242981,12.381991 11.753805,12.500013 h 9.254215 c 1.496539,0 2.726334,-1.171196 2.898531,-2.686141 l 0.02067,-10.149251 C 36.793447,17.916049 31.503276,12.499988 25.002068,12.499988 Z m 0.03307,4.257105 c 4.355934,0 7.887374,3.688851 7.887374,8.23929 0,0.03412 1.1e-4,0.07113 4.94e-4,0.109038 8.79e-4,0.07896 0.002,0.162159 -4.94e-4,0.232544 v 7.841898 h -4.103626 v -0.952397 c -1.123296,0.642747 -2.412704,1.008207 -3.783748,1.008207 -3.766428,0 -6.916162,-2.757931 -7.699788,-6.446118 0.75022,-0.21967 1.300179,-0.939325 1.300179,-1.793172 0,-0.853901 -0.549959,-1.573447 -1.300179,-1.793172 0.783626,-3.688131 3.93336,-6.446118 7.699788,-6.446118 z m 0,4.292761 c -2.086593,0 -3.778064,1.766804 -3.778064,3.946529 0,2.179726 1.691471,3.947046 3.778064,3.947046 2.086539,0 3.778064,-1.76732 3.778064,-3.947046 0,-2.179725 -1.691525,-3.946529 -3.778064,-3.946529 z m -8.22017,2.622579 c 0.697033,0 1.261939,0.590596 1.261939,1.318783 0,0.728187 -0.564851,1.318266 -1.261939,1.318266 -0.697033,0 -1.262455,-0.590079 -1.262455,-1.318266 0,-0.728187 0.565367,-1.318783 1.262455,-1.318783 z"
       style="fill:#000000;fill-opacity:1;stroke-width:0.0549451;filter:url(#filter4)"
       inkscape:label="Shadow" /><use
       href="#svg-818509380_1006"
       id="use2"
       transform="matrix(0.05494505,0,0,0.05494505,13.007529,12.500002)"
       inkscape:label="Icon" /><rect
       style="font-variation-settings:normal;display:inline;fill:none;stroke:#000000;stroke-width:1.99928;stroke-linecap:butt;stroke-linejoin:miter;stroke-miterlimit:4;stroke-dasharray:none;stroke-dashoffset:0;stroke-opacity:1;stop-color:#000000;filter:url(#filter1)"
       id="rect1"
       width="48.000725"
       height="48.000725"
       x="0.99963778"
       y="0.99963778"
       rx="6.9104829"
       ry="6.9104829"
       inkscape:label="Shadow" /><rect
       style="font-variation-settings:normal;display:inline;fill:none;stroke:#0570fc;stroke-width:1.99928;stroke-linecap:butt;stroke-linejoin:miter;stroke-miterlimit:4;stroke-dasharray:none;stroke-dashoffset:0;stroke-opacity:1;stop-color:#000000"
       id="rect1-18-1"
       width="48.000725"
       height="48.000725"
       x="0.99963778"
       y="0.99963778"
       rx="6.9104829"
       ry="6.9104829"
       inkscape:label="Frame" /></g><style
     type="text/css"
     id="style1">
	.st0{fill:url(#ICON_00000088831890668800157600000002638584723837204667_);}
</style><style
     id="style1-7">.st10{fill:#333}</style><style
     type="text/css"
     id="style1-1">
	.st0{fill:url(#ICON_00000088831890668800157600000002638584723837204667_);}
</style><style
     id="style1-7-2">.st10{fill:#333}</style></svg>
