<?xml version="1.0" encoding="UTF-8" standalone="no"?>
<svg
   height="50"
   width="50"
   version="1.1"
   id="svg83"
   xml:space="preserve"
   sodipodi:docname="Bash_Box.svg"
   inkscape:version="1.2.2 (b0a8486541, 2022-12-01)"
   xmlns:inkscape="http://www.inkscape.org/namespaces/inkscape"
   xmlns:sodipodi="http://sodipodi.sourceforge.net/DTD/sodipodi-0.dtd"
   xmlns:xlink="http://www.w3.org/1999/xlink"
   xmlns="http://www.w3.org/2000/svg"
   xmlns:svg="http://www.w3.org/2000/svg"><sodipodi:namedview
     id="namedview49"
     pagecolor="#ffffff"
     bordercolor="#000000"
     borderopacity="0.25"
     inkscape:showpageshadow="2"
     inkscape:pageopacity="0.0"
     inkscape:pagecheckerboard="0"
     inkscape:deskcolor="#d1d1d1"
     showgrid="false"
     inkscape:zoom="29.86819"
     inkscape:cx="19.586054"
     inkscape:cy="27.370255"
     inkscape:window-width="2560"
     inkscape:window-height="1369"
     inkscape:window-x="0"
     inkscape:window-y="0"
     inkscape:window-maximized="1"
     inkscape:current-layer="svg83" /><defs
     id="defs87"><linearGradient
       id="linearGradient860"
       gradientTransform="rotate(-90,48.000087,47.999896)"
       gradientUnits="userSpaceOnUse"
       x1="18.000002"
       x2="78.000175"
       y1="47.999897"
       y2="47.999897"><stop
         offset="0"
         stop-color="#bababa"
         id="stop855"
         style="stop-color:#999999;stop-opacity:1;" /><stop
         offset="1"
         stop-color="#d2d2d2"
         id="stop858"
         style="stop-color:#a6a6a6;stop-opacity:1;" /></linearGradient><linearGradient
       id="linearGradient861"
       gradientTransform="rotate(-90,48.000087,47.999896)"
       gradientUnits="userSpaceOnUse"
       x1="18.000002"
       x2="78.000175"
       y1="47.999897"
       y2="47.999897"><stop
         offset="0.00393231"
         stop-color="#bababa"
         id="stop857"
         style="stop-color:#404040;stop-opacity:1;" /><stop
         offset="1"
         stop-color="#d2d2d2"
         id="stop859"
         style="stop-color:#595959;stop-opacity:1;" /></linearGradient><linearGradient
       xlink:href="#linearGradient860"
       id="linearGradient993"
       x1="-7.2134299e-11"
       y1="127.71869"
       x2="223.50359"
       y2="127.71869"
       gradientUnits="userSpaceOnUse" /><linearGradient
       xlink:href="#h"
       id="linearGradient1001"
       x1="129.60054"
       y1="177.03278"
       x2="155.58176"
       y2="177.03278"
       gradientUnits="userSpaceOnUse" /><linearGradient
       xlink:href="#h"
       id="linearGradient1009"
       x1="166.00053"
       y1="194.65845"
       x2="188.00876"
       y2="194.65845"
       gradientUnits="userSpaceOnUse" /><linearGradient
       xlink:href="#linearGradient861"
       id="linearGradient855"
       x1="3.9165116e-11"
       y1="128"
       x2="223.99586"
       y2="128"
       gradientUnits="userSpaceOnUse" /><clipPath
       clipPathUnits="userSpaceOnUse"
       id="clipPath1160"><path
         id="path1162"
         style="fill:url(#linearGradient1164);fill-opacity:1;stroke-width:0.205672"
         d="m 47.950781,21.674531 c -1.107058,0 -2.213642,0.294848 -3.199219,0.882656 l -16.586719,9.843751 c -1.995307,1.203708 -3.211224,3.36929 -3.199217,5.699531 V 57.79125 57.87 c -0.01092,2.334187 1.2071,4.503623 3.205781,5.709375 l 16.619531,9.863437 c 1.975695,1.17748 4.439148,1.17748 6.414843,0 l 16.619532,-9.863437 c 2.000978,-1.205537 3.220396,-3.376611 3.209062,-5.712656 V 38.136562 c 0.01203,-2.335373 -1.206078,-4.503015 -3.205782,-5.709374 l -16.61953,-9.870001 c -0.995594,-0.593783 -2.113729,-0.884091 -3.232032,-0.879375 -0.0087,-3.7e-5 -0.01744,-0.0033 -0.02626,-0.0033 z" /></clipPath><linearGradient
       xlink:href="#h"
       id="linearGradient1164"
       gradientUnits="userSpaceOnUse"
       x1="-7.2134299e-11"
       y1="127.71869"
       x2="223.50359"
       y2="127.71869"
       gradientTransform="matrix(0.20567198,0,0,0.20567198,24.965164,21.673987)" /><filter
       style="color-interpolation-filters:sRGB"
       id="filter1166"
       x="-0.047033634"
       y="-0.049006908"
       width="1.0940673"
       height="1.0980138"><feGaussianBlur
         stdDeviation="1.4644547"
         id="feGaussianBlur1168" /></filter></defs><linearGradient
     id="a"
     gradientUnits="userSpaceOnUse"
     x1="48"
     x2="48"
     y1="90"
     y2="5.9877172"><stop
       offset="0"
       stop-color="#ebebeb"
       id="stop2"
       style="stop-color:#585858;stop-opacity:1;" /><stop
       offset="1"
       stop-color="#fafafa"
       id="stop4"
       style="stop-color:#818181;stop-opacity:1;" /></linearGradient><linearGradient
     id="b"
     gradientTransform="matrix(1.0058652,0,0,0.994169,100,0)"
     gradientUnits="userSpaceOnUse"
     x1="45.447727"
     x2="45.447727"
     y1="92.539597"
     y2="7.0165401"><stop
       offset="0"
       id="stop7" /><stop
       offset="1"
       stop-opacity=".588235"
       id="stop9" /></linearGradient><linearGradient
     id="c"
     gradientTransform="matrix(1.0238095,0,0,1.0119048,-1.142857,-98.071429)"
     gradientUnits="userSpaceOnUse"
     x1="32.251034"
     x2="32.251034"
     xlink:href="#b"
     y1="6.1317081"
     y2="90.238609" /><linearGradient
     id="d"
     gradientTransform="translate(0,-97)"
     gradientUnits="userSpaceOnUse"
     x1="32.251034"
     x2="32.251034"
     xlink:href="#b"
     y1="6.1317081"
     y2="90.238609" /><linearGradient
     id="e"><stop
       offset="0"
       stop-color="#fff"
       id="stop14" /><stop
       offset="1"
       stop-color="#fff"
       stop-opacity="0"
       id="stop16" /></linearGradient><radialGradient
     id="f"
     cx="48"
     cy="90.171875"
     gradientTransform="matrix(1.1573129,0,0,0.99590774,-7.551021,0.197132)"
     gradientUnits="userSpaceOnUse"
     r="42"
     xlink:href="#e" /><linearGradient
     id="g"
     gradientUnits="userSpaceOnUse"
     x1="36.357143"
     x2="36.357143"
     xlink:href="#e"
     y1="6"
     y2="63.893143"
     gradientTransform="matrix(0.91995739,0,0,0.98668795,0.48025569,1.1935087)" /><linearGradient
     id="h"
     gradientTransform="rotate(-90,48.000087,47.999896)"
     gradientUnits="userSpaceOnUse"
     x1="18.000002"
     x2="78.000175"
     y1="47.999897"
     y2="47.999897"><stop
       offset="0"
       stop-color="#bababa"
       id="stop21"
       style="stop-color:#818181;stop-opacity:1;" /><stop
       offset="1"
       stop-color="#d2d2d2"
       id="stop23"
       style="stop-color:#a7a7a7;stop-opacity:1;" /></linearGradient><clipPath
     id="i"><path
       d="m -88,6 c -3.324,0 -6,2.676 -6,6 v 72 c 0,3.324 2.676,6 6,6 h 72 c 3.324,0 6,-2.676 6,-6 V 12 c 0,-3.324 -2.676,-6 -6,-6 z m 31.84375,12 h 8.3125 c 1.180648,0 2.125,0.986683 2.125,2.1875 v 4.21875 c 2.111082,0.562476 4.123141,1.426616 5.96875,2.5 l 3,-3.03125 c 0.849111,-0.849025 2.196406,-0.866085 3.03125,-0.03125 l 5.875,5.875 c 0.834848,0.834847 0.817863,2.18214 -0.03125,3.03125 l -3.03125,3 c 1.073391,1.845617 1.937528,3.857672 2.5,5.96875 h 4.21875 c 1.200827,0 2.1875,0.944356 2.1875,2.125 v 8.3125 c 0,1.180653 -0.986672,2.125 -2.1875,2.125 h -4.21875 c -0.562472,2.111079 -1.426609,4.123134 -2.5,5.96875 l 3.03125,3 c 0.849106,0.849111 0.866094,2.196416 0.03125,3.03125 l -5.875,5.875 c -0.834844,0.834921 -2.182138,0.81786 -3.03125,-0.03125 l -3,-3.03125 c -1.84561,1.073389 -3.857669,1.937515 -5.96875,2.5 v 4.21875 c 0,1.200828 -0.944354,2.1875 -2.125,2.1875 h -8.3125 c -1.180646,0 -2.125,-0.986673 -2.125,-2.1875 v -4.21875 c -2.111081,-0.562485 -4.123141,-1.426613 -5.96875,-2.5 l -3,3.03125 c -0.849114,0.849022 -2.196407,0.866084 -3.03125,0.03125 l -5.875,-5.875 c -0.417421,-0.417418 -0.6298,-0.981833 -0.625,-1.53125 0.0047,-0.549422 0.231693,-1.075441 0.65625,-1.5 l 3.03125,-3 c -1.073391,-1.845614 -1.937528,-3.857673 -2.5,-5.96875 h -4.21875 c -1.200828,0 -2.1875,-0.944347 -2.1875,-2.125 v -8.3125 c 0,-1.180643 0.986672,-2.125 2.1875,-2.125 h 4.21875 c 0.562472,-2.111076 1.426609,-4.123135 2.5,-5.96875 l -3.03125,-3 c -0.849107,-0.84911 -0.866093,-2.196403 -0.03125,-3.03125 l 5.875,-5.875 c 0.834843,-0.834932 2.182137,-0.817858 3.03125,0.03125 l 3,3.03125 c 1.845609,-1.073383 3.85767,-1.937533 5.96875,-2.5 V 20.1875 c 0,-1.200817 0.944355,-2.1875 2.125,-2.1875 z M -52,38.9375 c -5.006511,0 -9.0625,4.055982 -9.0625,9.0625 0,5.006505 4.055989,9.0625 9.0625,9.0625 5.00651,0 9.0625,-4.055995 9.0625,-9.0625 0,-5.00652 -4.05599,-9.0625 -9.0625,-9.0625 z"
       id="path26" /></clipPath><filter
     id="j"
     color-interpolation-filters="sRGB"
     height="1.3213328"
     width="1.3213336"
     x="-0.16066687"
     y="-0.16066641"><feGaussianBlur
       stdDeviation="3.6000051"
       id="feGaussianBlur29" /></filter><clipPath
     id="k"><rect
       height="84"
       rx="6"
       width="84"
       x="6"
       y="6"
       id="rect32" /></clipPath><filter
     id="l"
     color-interpolation-filters="sRGB"
     height="1.3915758"
     width="1.3915758"
     x="-0.19578789"
     y="-0.19578789"><feGaussianBlur
       stdDeviation="5.28"
       id="feGaussianBlur35" /></filter><linearGradient
     id="m"
     gradientUnits="userSpaceOnUse"
     x1="48"
     x2="48"
     xlink:href="#e"
     y1="20.220806"
     y2="138.66119" /><g
     id="g79"
     transform="matrix(0.5952381,0,0,0.5952381,-3.5714286,-3.5714286)"><rect
       fill="url(#a)"
       height="84"
       rx="10.709455"
       width="84"
       x="6"
       y="6"
       id="rect53"
       style="fill:url(#a)"
       ry="10.709455" /><g
       id="g979"
       transform="matrix(0.20567198,0,0,0.20567198,24.965164,21.673987)"><path
         d="M 207.9535,52.161792 127.31715,4.2869915 c -9.58397,-5.7159887 -21.5306,-5.7159887 -31.114579,0 L 15.550082,52.161792 C 5.848665,58.014362 -0.05794423,68.539535 4.2867948e-4,79.869434 V 175.60289 C -0.05224627,186.92704 5.8536257,197.44477 15.550082,203.29438 l 80.636342,47.85866 c 9.584946,5.71245 21.529636,5.71245 31.114586,0 l 80.63634,-47.85866 c 9.70761,-5.84857 15.62077,-16.37448 15.5658,-27.70764 V 79.869434 c 0.0584,-11.329899 -5.84824,-21.855072 -15.54965,-27.707642 z"
         fill="#ffffff"
         id="path971"
         style="fill:url(#linearGradient993);fill-opacity:1" /><path
         d="M 208.41153,52.276683 127.59758,4.296434 c -9.60508,-5.7285787 -21.57803,-5.7285787 -31.183115,0 L 15.584333,52.276683 C 5.8615472,58.142144 -0.05807185,68.690499 4.2962369e-4,80.045353 V 175.98967 C -0.05236135,187.33876 5.8665189,197.87966 15.584333,203.74216 l 80.81395,47.96406 c 9.606057,5.72504 21.577057,5.72504 31.183117,0 l 80.81395,-47.96406 c 9.72899,-5.86146 15.65518,-16.41055 15.60008,-27.76867 V 80.045353 c 0.0585,-11.354854 -5.86111,-21.903209 -15.5839,-27.76867 z M 99.23017,246.80301 18.416219,198.83895 C 10.430093,193.99964 5.5658593,185.32755 5.5996973,175.98967 V 80.045353 C 5.5626405,70.706641 10.427702,62.033071 18.416219,57.196074 L 99.23017,9.2158255 c 7.86518,-4.6922471 17.67035,-4.6922471 25.53552,0 l 80.74923,47.9802485 c 6.65664,4.031835 11.19758,10.792926 12.41175,18.480083 -2.68625,-5.71232 -8.72221,-7.281994 -15.76147,-3.236442 l -76.39621,47.316775 c -9.53132,5.5505 -16.5544,11.81302 -16.57058,23.30238 v 94.21282 c 0,6.87744 2.76716,11.32755 7.03926,12.63831 -1.399,0.25638 -2.81749,0.39173 -4.23974,0.40455 -4.49396,-0.003 -8.90417,-1.21624 -12.76776,-3.51154 z"
         fill="#2f3a3e"
         id="path973"
         style="fill:url(#linearGradient855);fill-opacity:1" /><path
         d="m 187.00732,185.05984 -20.08643,12.0131 c -0.53795,0.21621 -0.89847,0.72853 -0.92035,1.30788 v 5.27995 c 0,0.64587 0.43595,0.90422 0.96879,0.59743 l 20.39321,-12.40062 c 0.49942,-0.37439 0.73833,-1.00309 0.61358,-1.61467 v -4.63408 c -0.0162,-0.59743 -0.4844,-0.85578 -0.9688,-0.54899 z"
         fill="#3ab14a"
         id="path975"
         style="fill:url(#linearGradient1009);fill-opacity:1" /><path
         d="m 144.26295,140.83187 c 0.64587,-0.32294 1.17871,0 1.19485,0.92036 l 0.0646,7.00764 c 2.41548,-1.09736 5.11027,-1.42435 7.7181,-0.93651 0.50054,0.12918 0.71045,0.80734 0.51669,1.61467 l -1.53393,6.15187 c -0.11629,0.46428 -0.35623,0.88836 -0.69431,1.22714 -0.11873,0.11715 -0.25491,0.2152 -0.40366,0.29064 -0.18253,0.0987 -0.39306,0.13287 -0.59743,0.0969 -2.54286,-0.5631 -5.20474,-0.13582 -7.4436,1.19486 -3.27367,1.47469 -5.41355,4.69392 -5.50601,8.28322 0,3.22933 1.61466,4.1174 7.24984,4.21428 7.44361,0.12917 10.67294,3.37465 10.75367,10.88284 -0.17723,7.83711 -3.7908,15.20007 -9.88175,20.13486 l 0.12918,6.87847 c -0.0115,0.85431 -0.45524,1.64457 -1.17871,2.09907 l -4.06895,2.34126 c -0.64587,0.32293 -1.17871,0 -1.19486,-0.90421 v -6.76545 c -3.48767,1.4532 -7.02379,1.79228 -9.28431,0.88807 -0.41982,-0.16147 -0.61358,-0.79119 -0.43597,-1.51778 l 1.46935,-6.21646 c 0.11173,-0.49196 0.36419,-0.94078 0.7266,-1.29173 0.11494,-0.1101 0.24552,-0.2026 0.38752,-0.2745 0.21052,-0.0946 0.45149,-0.0946 0.66201,0 2.87841,0.78041 5.94861,0.39156 8.54158,-1.08182 3.74177,-1.80461 6.17348,-5.53613 6.31333,-9.68799 0,-3.48767 -1.92145,-4.94087 -6.45865,-4.97317 -5.86124,0 -11.30266,-1.13026 -11.41568,-9.68798 0.13486,-7.47628 3.60558,-14.50062 9.46193,-19.14992 l -0.29064,-7.03994 c -0.003,-0.86661 0.44329,-1.67289 1.17871,-2.13136 z"
         fill="#ffffff"
         id="path977"
         style="fill:url(#linearGradient1001);fill-opacity:1" /></g><path
       id="rect969"
       style="fill:#000000;fill-opacity:1;stroke-width:2.7252;-inkscape-stroke:none;filter:url(#filter1166);stop-color:#000000"
       d="m 22.882031,15.153457 c -5.933032,0 -10.71,4.776968 -10.71,10.71 v 50.29828 c 0,5.933032 4.776968,10.71 10.71,10.71 h 53.307187 c 5.933032,0 10.71,-4.776968 10.71,-10.71 v -50.29828 c 0,-5.933032 -4.776968,-10.71 -10.71,-10.71 z m 25.06875,7.894687 c 0.0088,0 0.01744,0.0032 0.02625,0.0033 1.118303,-0.0047 2.236438,0.285593 3.232031,0.879375 l 16.619531,9.87 c 1.999702,1.206359 3.217813,3.374005 3.205781,5.709375 V 59.24035 c 0.01133,2.336043 -1.208085,4.50712 -3.209062,5.712657 l -16.619531,9.863418 c -1.975693,1.177479 -4.43915,1.177479 -6.414844,0 L 28.171406,64.952988 c -1.998678,-1.205751 -3.216639,-3.37519 -3.205781,-5.709375 v -0.07875 -19.690782 c -0.01201,-2.330238 1.203913,-4.495823 3.199219,-5.699531 L 44.751562,23.9308 c 0.985576,-0.587808 2.092162,-0.882656 3.199219,-0.882656 z"
       clip-path="url(#clipPath1160)" /></g></svg>
