<?xml version="1.0" encoding="UTF-8" standalone="no"?>
<svg
   height="50"
   width="50"
   version="1.1"
   id="svg83"
   xml:space="preserve"
   sodipodi:docname="Bun_Box.svg"
   inkscape:version="1.2.2 (b0a8486541, 2022-12-01)"
   xmlns:inkscape="http://www.inkscape.org/namespaces/inkscape"
   xmlns:sodipodi="http://sodipodi.sourceforge.net/DTD/sodipodi-0.dtd"
   xmlns:xlink="http://www.w3.org/1999/xlink"
   xmlns="http://www.w3.org/2000/svg"
   xmlns:svg="http://www.w3.org/2000/svg"><sodipodi:namedview
     id="namedview39"
     pagecolor="#ffffff"
     bordercolor="#000000"
     borderopacity="0.25"
     inkscape:showpageshadow="2"
     inkscape:pageopacity="0.0"
     inkscape:pagecheckerboard="0"
     inkscape:deskcolor="#d1d1d1"
     showgrid="false"
     inkscape:zoom="21.12"
     inkscape:cx="23.674242"
     inkscape:cy="25.023674"
     inkscape:window-width="2560"
     inkscape:window-height="1369"
     inkscape:window-x="0"
     inkscape:window-y="0"
     inkscape:window-maximized="1"
     inkscape:current-layer="svg83" /><defs
     id="defs87"><linearGradient
       xlink:href="#h"
       id="linearGradient2193"
       x1="18.799515"
       y1="48"
       x2="77.200485"
       y2="48"
       gradientUnits="userSpaceOnUse" /><clipPath
       clipPathUnits="userSpaceOnUse"
       id="clipPath2214"><path
         d="m 48,73.784083 c 16.127863,0 29.200484,-10.556686 29.200484,-23.575623 0,-8.072473 -5.005029,-15.202995 -12.699256,-19.432013 -3.13089,-1.739926 -5.5907,-3.301709 -7.638103,-4.599943 C 53.007471,23.726454 50.62819,22.215917 48,22.215917 c -2.669675,0 -5.67855,1.910745 -9.651338,4.431562 a 121.47753,121.47753 0 0 1 -6.852329,4.128968 C 23.804544,35.005465 18.799514,42.135987 18.799514,50.20846 18.799514,63.227397 31.872138,73.781642 48,73.781642 Z M 44.590918,30.273749 a 14.361094,14.361094 0 0 0 1.212823,-5.864013 c 0,-0.351403 0.490498,-0.453894 0.558827,-0.06833 1.600828,6.771799 -2.196261,10.127196 -5.005031,11.249728 -0.302597,0.11713 -0.485618,-0.292835 -0.25135,-0.50758 a 14.026775,14.026775 0 0 0 3.484731,-4.809806 z m 5.007471,-0.248911 a 14.141469,14.141469 0 0 0 -1.903425,-5.612663 v -0.03661 c -0.165934,-0.300156 0.209865,-0.641796 0.451453,-0.41973 4.773204,5.136807 3.179695,9.895368 1.351919,12.291732 -0.200103,0.248909 -0.558825,-0.0072 -0.458773,-0.307477 a 14.243961,14.243961 0 0 0 0.558826,-5.915258 z m 4.321749,-1.364121 a 13.929164,13.929164 0 0 0 -3.921541,-4.394959 v -0.03416 c -0.273313,-0.207426 -0.05856,-0.66864 0.275751,-0.531983 6.315466,2.645272 6.749837,7.738154 5.983587,10.725066 a 0.28307341,0.28307341 0 0 1 -0.117129,0.17326 0.26843167,0.26843167 0 0 1 -0.373363,-0.06345 0.287954,0.287954 0 0 1 -0.05369,-0.202544 14.309849,14.309849 0 0 0 -1.793612,-5.671228 z m -12.377139,1.364121 c -1.503217,1.327518 -3.121129,1.849737 -5.022113,2.432968 -0.283074,0 -0.473416,-0.190343 -0.378246,-0.439253 4.263183,-2.213341 5.781043,-4.014273 7.296462,-6.762039 0,0 0.378245,-0.285512 0.458774,0.207427 0,0.739406 -0.849219,3.23338 -2.354877,4.560897 z m 12.03306,27.343428 a 7.1964093,7.1964093 0 0 1 -2.28167,3.780007 5.2710221,5.2710221 0 0 1 -3.128451,1.508097 5.2881042,5.2881042 0 0 1 -3.228499,-1.508097 7.1988497,7.1988497 0 0 1 -2.252386,-3.780007 0.59298998,0.59298998 0 0 1 0.156172,-0.480737 0.56126624,0.56126624 0 0 1 0.468537,-0.16838 h 9.648899 a 0.55150509,0.55150509 0 0 1 0.463655,0.170819 0.58322885,0.58322885 0 0 1 0.153736,0.478298 z M 40.293569,52.07284 a 4.5145328,4.5145328 0 0 1 -5.800563,-0.59543 4.8049271,4.8049271 0 0 1 -0.568587,-5.954302 c 0.505141,-0.776012 1.225026,-1.378764 2.064485,-1.735045 a 4.4901299,4.4901299 0 0 1 2.657472,-0.268432 c 0.890706,0.183021 1.710643,0.634474 2.352439,1.293352 0.644234,0.658879 1.081046,1.503218 1.256747,2.415887 a 4.8317702,4.8317702 0 0 1 -0.263551,2.728241 4.6926739,4.6926739 0 0 1 -1.698442,2.113288 z m 20.671683,0.01226 a 4.5120926,4.5120926 0 0 1 -5.793247,-0.614948 4.7732034,4.7732034 0 0 1 -1.332394,-3.323674 c 0,-0.934631 0.268432,-1.849739 0.77845,-2.625751 0.50514,-0.77601 1.225024,-1.381202 2.066925,-1.735043 a 4.4901299,4.4901299 0 0 1 2.659912,-0.263552 c 0.893147,0.185462 1.713085,0.636915 2.354878,1.300675 0.641797,0.663757 1.073729,1.505656 1.249428,2.423205 a 4.8317702,4.8317702 0 0 1 -0.275752,2.728242 4.6902335,4.6902335 0 0 1 -1.7082,2.110848 z"
         id="path2216"
         style="fill:url(#linearGradient2218);fill-opacity:1;stroke-width:2.44028" /></clipPath><linearGradient
       xlink:href="#h"
       id="linearGradient2218"
       gradientUnits="userSpaceOnUse"
       x1="18.799515"
       y1="48"
       x2="77.200485"
       y2="48" /><filter
       style="color-interpolation-filters:sRGB"
       id="filter2220"
       x="-0.020127634"
       y="-0.02043469"
       width="1.0402553"
       height="1.0408694"><feGaussianBlur
         stdDeviation="0.59885215"
         id="feGaussianBlur2222" /></filter></defs><linearGradient
     id="a"
     gradientUnits="userSpaceOnUse"
     x1="48"
     x2="48"
     y1="90"
     y2="5.9877172"><stop
       offset="0"
       stop-color="#ebebeb"
       id="stop2"
       style="stop-color:#585858;stop-opacity:1;" /><stop
       offset="1"
       stop-color="#fafafa"
       id="stop4"
       style="stop-color:#818181;stop-opacity:1;" /></linearGradient><linearGradient
     id="b"
     gradientTransform="matrix(1.0058652,0,0,0.994169,100,0)"
     gradientUnits="userSpaceOnUse"
     x1="45.447727"
     x2="45.447727"
     y1="92.539597"
     y2="7.0165401"><stop
       offset="0"
       id="stop7" /><stop
       offset="1"
       stop-opacity=".588235"
       id="stop9" /></linearGradient><linearGradient
     id="c"
     gradientTransform="matrix(1.0238095,0,0,1.0119048,-1.142857,-98.071429)"
     gradientUnits="userSpaceOnUse"
     x1="32.251034"
     x2="32.251034"
     xlink:href="#b"
     y1="6.1317081"
     y2="90.238609" /><linearGradient
     id="d"
     gradientTransform="translate(0,-97)"
     gradientUnits="userSpaceOnUse"
     x1="32.251034"
     x2="32.251034"
     xlink:href="#b"
     y1="6.1317081"
     y2="90.238609" /><linearGradient
     id="e"><stop
       offset="0"
       stop-color="#fff"
       id="stop14" /><stop
       offset="1"
       stop-color="#fff"
       stop-opacity="0"
       id="stop16" /></linearGradient><radialGradient
     id="f"
     cx="48"
     cy="90.171875"
     gradientTransform="matrix(1.1573129,0,0,0.99590774,-7.551021,0.197132)"
     gradientUnits="userSpaceOnUse"
     r="42"
     xlink:href="#e" /><linearGradient
     id="g"
     gradientUnits="userSpaceOnUse"
     x1="36.357143"
     x2="36.357143"
     xlink:href="#e"
     y1="6"
     y2="63.893143"
     gradientTransform="matrix(0.91995739,0,0,0.98668795,0.48025569,1.1935087)" /><linearGradient
     id="h"
     gradientTransform="rotate(-90,48.000087,47.999896)"
     gradientUnits="userSpaceOnUse"
     x1="18.000002"
     x2="78.000175"
     y1="47.999897"
     y2="47.999897"><stop
       offset="0"
       stop-color="#bababa"
       id="stop21"
       style="stop-color:#818181;stop-opacity:1;" /><stop
       offset="1"
       stop-color="#d2d2d2"
       id="stop23"
       style="stop-color:#a7a7a7;stop-opacity:1;" /></linearGradient><clipPath
     id="i"><path
       d="m -88,6 c -3.324,0 -6,2.676 -6,6 v 72 c 0,3.324 2.676,6 6,6 h 72 c 3.324,0 6,-2.676 6,-6 V 12 c 0,-3.324 -2.676,-6 -6,-6 z m 31.84375,12 h 8.3125 c 1.180648,0 2.125,0.986683 2.125,2.1875 v 4.21875 c 2.111082,0.562476 4.123141,1.426616 5.96875,2.5 l 3,-3.03125 c 0.849111,-0.849025 2.196406,-0.866085 3.03125,-0.03125 l 5.875,5.875 c 0.834848,0.834847 0.817863,2.18214 -0.03125,3.03125 l -3.03125,3 c 1.073391,1.845617 1.937528,3.857672 2.5,5.96875 h 4.21875 c 1.200827,0 2.1875,0.944356 2.1875,2.125 v 8.3125 c 0,1.180653 -0.986672,2.125 -2.1875,2.125 h -4.21875 c -0.562472,2.111079 -1.426609,4.123134 -2.5,5.96875 l 3.03125,3 c 0.849106,0.849111 0.866094,2.196416 0.03125,3.03125 l -5.875,5.875 c -0.834844,0.834921 -2.182138,0.81786 -3.03125,-0.03125 l -3,-3.03125 c -1.84561,1.073389 -3.857669,1.937515 -5.96875,2.5 v 4.21875 c 0,1.200828 -0.944354,2.1875 -2.125,2.1875 h -8.3125 c -1.180646,0 -2.125,-0.986673 -2.125,-2.1875 v -4.21875 c -2.111081,-0.562485 -4.123141,-1.426613 -5.96875,-2.5 l -3,3.03125 c -0.849114,0.849022 -2.196407,0.866084 -3.03125,0.03125 l -5.875,-5.875 c -0.417421,-0.417418 -0.6298,-0.981833 -0.625,-1.53125 0.0047,-0.549422 0.231693,-1.075441 0.65625,-1.5 l 3.03125,-3 c -1.073391,-1.845614 -1.937528,-3.857673 -2.5,-5.96875 h -4.21875 c -1.200828,0 -2.1875,-0.944347 -2.1875,-2.125 v -8.3125 c 0,-1.180643 0.986672,-2.125 2.1875,-2.125 h 4.21875 c 0.562472,-2.111076 1.426609,-4.123135 2.5,-5.96875 l -3.03125,-3 c -0.849107,-0.84911 -0.866093,-2.196403 -0.03125,-3.03125 l 5.875,-5.875 c 0.834843,-0.834932 2.182137,-0.817858 3.03125,0.03125 l 3,3.03125 c 1.845609,-1.073383 3.85767,-1.937533 5.96875,-2.5 V 20.1875 c 0,-1.200817 0.944355,-2.1875 2.125,-2.1875 z M -52,38.9375 c -5.006511,0 -9.0625,4.055982 -9.0625,9.0625 0,5.006505 4.055989,9.0625 9.0625,9.0625 5.00651,0 9.0625,-4.055995 9.0625,-9.0625 0,-5.00652 -4.05599,-9.0625 -9.0625,-9.0625 z"
       id="path26" /></clipPath><filter
     id="j"
     color-interpolation-filters="sRGB"
     height="1.3213328"
     width="1.3213336"
     x="-0.16066687"
     y="-0.16066641"><feGaussianBlur
       stdDeviation="3.6000051"
       id="feGaussianBlur29" /></filter><clipPath
     id="k"><rect
       height="84"
       rx="6"
       width="84"
       x="6"
       y="6"
       id="rect32" /></clipPath><filter
     id="l"
     color-interpolation-filters="sRGB"
     height="1.3915758"
     width="1.3915758"
     x="-0.19578789"
     y="-0.19578789"><feGaussianBlur
       stdDeviation="5.28"
       id="feGaussianBlur35" /></filter><linearGradient
     id="m"
     gradientUnits="userSpaceOnUse"
     x1="48"
     x2="48"
     xlink:href="#e"
     y1="20.220806"
     y2="138.66119" /><g
     id="g79"
     transform="matrix(0.5952381,0,0,0.5952381,-3.5714286,-3.5714286)"><rect
       fill="url(#a)"
       height="84"
       rx="10.709455"
       width="84"
       x="6"
       y="6"
       id="rect53"
       style="fill:url(#a)"
       ry="10.709455" /><path
       d="m 48,73.784083 c 16.127863,0 29.200485,-10.556686 29.200485,-23.575623 0,-8.072473 -5.00503,-15.202994 -12.699257,-19.432013 -3.13089,-1.739926 -5.5907,-3.30171 -7.638102,-4.599943 C 53.007471,23.726455 50.62819,22.215917 48,22.215917 c -2.669675,0 -5.67855,1.910745 -9.651339,4.431562 a 121.47753,121.47753 0 0 1 -6.852328,4.128968 C 23.804544,35.005466 18.799514,42.135987 18.799514,50.20846 18.799514,63.227397 31.872137,73.781643 48,73.781643 Z M 44.590918,30.273748 a 14.361094,14.361094 0 0 0 1.212823,-5.864013 c 0,-0.351401 0.490498,-0.453893 0.558826,-0.06833 1.600829,6.7718 -2.19626,10.127196 -5.005031,11.249728 -0.302595,0.117134 -0.485617,-0.292835 -0.251349,-0.50758 a 14.026775,14.026775 0 0 0 3.484731,-4.809806 z m 5.007471,-0.24891 a 14.141469,14.141469 0 0 0 -1.903425,-5.612663 v -0.03661 c -0.165939,-0.300156 0.209865,-0.641796 0.451453,-0.41973 4.773204,5.136806 3.179696,9.895367 1.35192,12.291731 -0.200104,0.248909 -0.558826,-0.0072 -0.458774,-0.307476 a 14.243961,14.243961 0 0 0 0.558826,-5.915259 z m 4.32175,-1.364121 a 13.929164,13.929164 0 0 0 -3.921543,-4.394959 v -0.03416 c -0.273312,-0.207426 -0.05856,-0.668639 0.275753,-0.531983 6.315465,2.645272 6.749836,7.738153 5.983586,10.725065 a 0.28307341,0.28307341 0 0 1 -0.117134,0.173261 0.26843168,0.26843168 0 0 1 -0.373364,-0.06345 0.28795399,0.28795399 0 0 1 -0.05369,-0.202544 14.309849,14.309849 0 0 0 -1.793612,-5.671229 z m -12.377141,1.364121 c -1.503217,1.327517 -3.121128,1.849738 -5.022113,2.432967 -0.283073,0 -0.473415,-0.190342 -0.378244,-0.439252 4.263183,-2.213341 5.781042,-4.014273 7.296461,-6.762038 0,0 0.378245,-0.285513 0.458774,0.207425 0,0.739407 -0.84922,3.233381 -2.354878,4.560898 z m 12.033061,27.343428 a 7.1964093,7.1964093 0 0 1 -2.28167,3.780006 5.2710221,5.2710221 0 0 1 -3.12845,1.508098 5.2881042,5.2881042 0 0 1 -3.228501,-1.508098 7.1988496,7.1988496 0 0 1 -2.252385,-3.780006 0.59298999,0.59298999 0 0 1 0.156178,-0.480737 0.56126624,0.56126624 0 0 1 0.468536,-0.16838 h 9.648898 a 0.55150509,0.55150509 0 0 1 0.463655,0.170819 0.58322884,0.58322884 0 0 1 0.153739,0.478298 z M 40.29357,52.072841 A 4.5145328,4.5145328 0 0 1 34.493006,51.47741 4.8049271,4.8049271 0 0 1 33.924419,45.523108 c 0.50514,-0.776012 1.225025,-1.378763 2.064484,-1.735045 a 4.4901299,4.4901299 0 0 1 2.657474,-0.268432 c 0.890705,0.183021 1.710642,0.634474 2.352437,1.293352 0.644236,0.658879 1.081047,1.503218 1.256748,2.415886 A 4.8317702,4.8317702 0 0 1 41.992011,49.95711 4.6926739,4.6926739 0 0 1 40.29357,52.0704 Z m 20.671681,0.0122 a 4.5120925,4.5120925 0 0 1 -5.793245,-0.61495 4.7732034,4.7732034 0 0 1 -1.332396,-3.323673 c 0,-0.934631 0.268432,-1.849739 0.778451,-2.62575 0.50514,-0.776011 1.225024,-1.381203 2.066925,-1.735044 a 4.4901299,4.4901299 0 0 1 2.659913,-0.263551 c 0.893146,0.185461 1.713083,0.636914 2.354878,1.300673 0.641796,0.663758 1.073727,1.505657 1.249427,2.423206 a 4.8317702,4.8317702 0 0 1 -0.275752,2.728242 4.6902336,4.6902336 0 0 1 -1.708201,2.110849 z"
       id="path2178"
       style="fill:url(#linearGradient2193);fill-opacity:1;stroke-width:2.44029" /><path
       id="rect2197"
       style="fill:#000000;fill-opacity:1;stroke:none;stroke-width:0.168;stroke-dasharray:none;filter:url(#filter2220);stop-color:#000000"
       d="m 22.996875,13.320106 c -5.933032,0 -10.71,4.776968 -10.71,10.71 v 48.913593 c 0,5.933032 4.776968,10.71 10.71,10.71 h 49.986562 c 5.933032,0 10.71,-4.776968 10.71,-10.71 V 24.030106 c 0,-5.933032 -4.776968,-10.71 -10.71,-10.71 z M 48,23.209793 c 2.628187,0 5.007005,1.510423 8.862656,3.960469 2.0474,1.298232 4.507863,2.860388 7.63875,4.600313 7.694219,4.229014 12.698437,11.359097 12.698437,19.431562 0,13.018924 -13.071996,23.575781 -29.199843,23.575781 v -0.0033 c -16.127847,0 -29.199844,-10.553576 -29.199844,-23.5725 0,-8.072465 5.003375,-15.202548 12.695156,-19.431562 a 121.47753,121.47753 0 0 0 6.854531,-4.127813 C 42.322629,25.121948 45.330327,23.209793 48,23.209793 Z m 2.050781,1.479844 c -0.188626,0.08179 -0.257484,0.379275 -0.0525,0.534844 v 0.03609 a 13.929164,13.929164 0 0 1 3.921094,4.393593 14.309849,14.309849 0 0 1 1.794843,5.67 0.28795399,0.28795399 0 0 0 0.0525,0.203438 0.26843168,0.26843168 0 0 0 0.374063,0.06563 0.28307341,0.28307341 0 0 0 0.118125,-0.173906 c 0.766249,-2.986909 0.330459,-8.081137 -5.985,-10.726407 -0.08358,-0.03416 -0.16025,-0.03054 -0.223125,-0.0033 z m -2.1,0.190313 c -0.199836,0.01647 -0.380392,0.263789 -0.255938,0.488906 v 0.03609 a 14.141469,14.141469 0 0 1 1.903125,5.614218 14.243961,14.243961 0 0 1 -0.557812,5.916094 c -0.100052,0.300276 0.259271,0.554065 0.459375,0.305156 1.827774,-2.396361 3.421324,-7.154761 -1.351875,-12.291562 -0.0604,-0.05552 -0.130263,-0.0744 -0.196875,-0.06891 z M 46.0575,25.093231 c -0.131166,0.02135 -0.252657,0.136018 -0.252657,0.311719 a 14.361094,14.361094 0 0 1 -1.214062,5.863593 14.026775,14.026775 0 0 1 -3.484688,4.810313 c -0.234267,0.214745 -0.04994,0.622446 0.252657,0.505312 2.808768,-1.122531 6.604733,-4.476331 5.003906,-11.248125 -0.03416,-0.192781 -0.173991,-0.264165 -0.305156,-0.242812 z m -2.418282,1.07625 c -0.104627,0.0098 -0.200156,0.08203 -0.200156,0.08203 -1.515417,2.747762 -3.034321,4.546036 -7.2975,6.759375 -0.09517,0.24891 0.09755,0.439688 0.380625,0.439688 1.900983,-0.583229 3.517097,-1.103891 5.020313,-2.431407 1.505656,-1.327515 2.355937,-3.821531 2.355937,-4.560937 -0.04026,-0.246469 -0.154591,-0.298511 -0.259219,-0.28875 z m -6.342656,18.276562 a 4.4901299,4.4901299 0 0 0 -1.309218,0.334688 c -0.839459,0.356281 -1.558767,0.95977 -2.063907,1.735781 a 4.8049271,4.8049271 0 0 0 0.570938,5.955469 4.5145328,4.5145328 0 0 0 5.797968,0.593906 4.6926739,4.6926739 0 0 0 1.699688,-2.116406 4.8317702,4.8317702 0 0 0 0.2625,-2.726719 C 42.07883,47.310095 41.642048,46.46664 40.997812,45.807762 40.356018,45.148885 39.53586,44.69797 38.645156,44.514949 a 4.4901299,4.4901299 0 0 0 -1.348594,-0.06891 z m 20.698125,0 a 4.4901299,4.4901299 0 0 0 -1.309219,0.334688 c -0.8419,0.35384 -1.562048,0.956489 -2.067187,1.7325 -0.510019,0.77601 -0.777656,1.693651 -0.777656,2.628281 a 4.7732034,4.7732034 0 0 0 1.332187,3.323906 4.5120925,4.5120925 0 0 0 5.791406,0.613594 4.6902336,4.6902336 0 0 0 1.709532,-2.109844 4.8317702,4.8317702 0 0 0 0.275625,-2.73 c -0.1757,-0.917548 -0.608361,-1.757805 -1.250157,-2.421562 -0.641794,-0.663759 -1.462792,-1.117196 -2.355937,-1.302657 a 4.4901299,4.4901299 0 0 0 -1.348594,-0.06891 z M 43.311093,57.712137 a 0.56126624,0.56126624 0 0 0 -0.469218,0.170625 0.59298999,0.59298999 0 0 0 -0.1575,0.479062 7.1988496,7.1988496 0 0 0 2.254218,3.78 5.2881042,5.2881042 0 0 0 3.22875,1.509375 5.2710221,5.2710221 0 0 0 3.127032,-1.509375 7.1964093,7.1964093 0 0 0 2.280468,-3.78 0.58322884,0.58322884 0 0 0 -0.150937,-0.479062 0.55150509,0.55150509 0 0 0 -0.465938,-0.170625 z"
       clip-path="url(#clipPath2214)" /></g></svg>
