<?xml version="1.0" encoding="UTF-8" standalone="no"?>
<!-- Created with Inkscape (http://www.inkscape.org/) -->

<svg
   width="50mm"
   height="50mm"
   viewBox="0 0 50 50"
   version="1.1"
   id="svg1"
   xml:space="preserve"
   sodipodi:docname="Tauri_Box.svg"
   inkscape:version="1.4.2 (ebf0e940d0, 2025-05-08)"
   inkscape:export-filename="Cairo_Box.png"
   inkscape:export-xdpi="96"
   inkscape:export-ydpi="96"
   xmlns:inkscape="http://www.inkscape.org/namespaces/inkscape"
   xmlns:sodipodi="http://sodipodi.sourceforge.net/DTD/sodipodi-0.dtd"
   xmlns:xlink="http://www.w3.org/1999/xlink"
   xmlns="http://www.w3.org/2000/svg"
   xmlns:svg="http://www.w3.org/2000/svg"><sodipodi:namedview
     id="namedview1"
     pagecolor="#ffffff"
     bordercolor="#000000"
     borderopacity="0.25"
     inkscape:showpageshadow="2"
     inkscape:pageopacity="0.0"
     inkscape:pagecheckerboard="0"
     inkscape:deskcolor="#d1d1d1"
     inkscape:document-units="mm"
     inkscape:zoom="2.1870665"
     inkscape:cx="40.465161"
     inkscape:cy="148.37226"
     inkscape:window-width="2560"
     inkscape:window-height="1378"
     inkscape:window-x="0"
     inkscape:window-y="0"
     inkscape:window-maximized="1"
     inkscape:current-layer="layer1"><inkscape:page
       x="0"
       y="0"
       width="50"
       height="50"
       id="page2"
       margin="0"
       bleed="0" /></sodipodi:namedview><defs
     id="defs1"><linearGradient
       id="linearGradient5"><stop
         style="stop-color:#ffffff;stop-opacity:1;"
         offset="0.00462963"
         id="stop1" /><stop
         style="stop-color:#2d5a7b;stop-opacity:1;"
         offset="1"
         id="stop5" /></linearGradient><linearGradient
       id="linearGradient2"><stop
         style="stop-color:#a1a8b2;stop-opacity:1;"
         offset="0"
         id="stop2" /><stop
         style="stop-color:#a1a8b2;stop-opacity:0;"
         offset="0.30000001"
         id="stop4" /><stop
         style="stop-color:#5d88bb;stop-opacity:0;"
         offset="0.69999999"
         id="stop17" /><stop
         style="stop-color:#5d88bb;stop-opacity:1;"
         offset="0.99775267"
         id="stop3" /></linearGradient><linearGradient
       xlink:href="#linearGradient2"
       id="linearGradient9"
       x1="25.000004"
       y1="2.3639462"
       x2="25.000004"
       y2="47.63604"
       gradientUnits="userSpaceOnUse" /><linearGradient
       xlink:href="#linearGradient5"
       id="linearGradient1"
       x1="8.9303026"
       y1="5.8488989"
       x2="41.069698"
       y2="44.151138"
       gradientUnits="userSpaceOnUse" /><radialGradient
       id="grd"
       r="60"
       gradientUnits="userSpaceOnUse"><stop
         offset="0"
         stop-color="#9a9a9a"
         id="stop26" /><stop
         offset="0.70"
         stop-color="#bababa"
         id="stop27" /><stop
         offset="0.95"
         stop-color="#fff"
         id="stop28" /></radialGradient><g
       id="cts"
       transform="translate(0,-82)"><g
         transform="scale(0.106)"
         id="g1544"><g
           transform="translate(-1139,-208.5)"
           id="g1542"><path
             transform="translate(65)"
             d="M 412,433 C 385,422 336,413 298,413 142,413 38,525 38,680 c 0,146 106,267 260,267 34,0 79,-3 118,-21 l -7,-84 c -29,19 -69,29 -101,29 -121,0 -170,-100 -170,-191 0,-97 59,-191 164,-191 30,0 66,7 102,22 l 8,-78"
             id="path1532" /><path
             transform="translate(492.25)"
             d="m 109,541 c 38,-32 95,-52 148,-52 94,0 126,45 126,133 -37,-2 -63,-2 -100,-2 -97,0 -237,40 -237,168 0,111 77,159 187,159 86,0 136,-47 158,-78 h 2 v 66 h 88 c -2,-15 -4,-42 -4,-100 V 624 c 0,-139 -59,-211 -205,-211 -65,0 -121,20 -168,48 l 5,80 m 274,196 c 0,76 -49,134 -142,134 -43,0 -95,-29 -95,-83 0,-90 126,-98 177,-98 20,0 40,2 60,2 v 45"
             id="path1534" /><path
             transform="translate(1000)"
             d="m 92,935 h 94 V 425 H 92 V 935 M 88,261 a 51,51 0 1 1 102,0 51,51 0 1 1 -102,0"
             id="path1536" /><path
             transform="translate(1228.75)"
             d="m 80,935 h 94 V 703 c 0,-128 55,-208 139,-208 16,0 35,2 52,9 v -84 c -20,-4 -34,-7 -62,-7 -54,0 -108,38 -133,91 h -2 V 425 H 80 v 510"
             id="path1538" /><path
             transform="translate(1610)"
             d="M 46,680 C 46,826 152,947 306,947 459,947 565,826 565,680 565,525 461,413 306,413 150,413 46,525 46,680 m 100,0 c 0,-97 59,-191 160,-191 100,0 159,94 159,191 0,91 -49,191 -159,191 C 195,871 146,771 146,680"
             id="path1540" /></g></g></g><radialGradient
       inkscape:collect="always"
       xlink:href="#grd"
       id="radialGradient29"
       gradientUnits="userSpaceOnUse"
       r="60" /></defs><g
     id="layer1"><rect
       style="font-variation-settings:normal;vector-effect:none;fill:url(#linearGradient1);stroke:none;stroke-width:0.260698;stroke-linecap:butt;stroke-linejoin:miter;stroke-miterlimit:4;stroke-dasharray:none;stroke-dashoffset:0;stroke-opacity:1;-inkscape-stroke:none;stop-color:#000000"
       id="rect1-18"
       width="50"
       height="50"
       x="0"
       y="-4.4408921e-16"
       rx="7.1983109"
       ry="7.1983109" /><rect
       style="fill:none;fill-opacity:1;stroke:url(#linearGradient9);stroke-width:1;stroke-dasharray:none"
       id="rect1-1"
       width="45.037273"
       height="45.037273"
       x="2.4813633"
       y="2.4813633"
       rx="6.4838462"
       ry="6.4838462" /><g
       id="g69"><g
         id="use59"
         transform="matrix(0.26458333,0,0,0.26458333,110.0772,19.798771)"><g
           transform="matrix(1.0703591,0,0,1.0703591,-352.76321,40.329841)"
           id="g13"><g
             id="use13"
             transform="scale(0.1944)"><g
               id="use15"
               transform="translate(150,-340)"><circle
                 r="60"
                 fill="url(#grd)"
                 id="circle17"
                 cx="0"
                 cy="0"
                 style="fill:url(#radialGradient29)" /><g
                 transform="translate(-61,-61)"
                 id="g27"><path
                   fill="#8a8a8a"
                   d="m 0,61 c 0,33.636 27.364,61 61,61 33.636,0 61,-27.364 61,-61 C 122,27.364 94.636,0 61,0 27.364,0 0,27.364 0,61 Z m 2,0 C 2,28.467 28.467,2 61,2 93.532,2 120,28.467 120,61 120,93.533 93.532,120 61,120 28.467,120 2,93.533 2,61 Z"
                   id="path27" /></g><g
                 id="use27"
                 transform="scale(9)"><g
                   fill="#ffffff"
                   id="g41"><rect
                     x="-2.95"
                     y="-3.05"
                     width="6"
                     height="0.1"
                     id="rect29" /><rect
                     x="2.95"
                     y="-2.95"
                     width="0.1"
                     height="6"
                     id="rect30" /><rect
                     x="-3.05"
                     y="2.95"
                     width="6"
                     height="0.1"
                     id="rect31" /><rect
                     x="-3.05"
                     y="-3.05"
                     width="0.1"
                     height="6"
                     id="rect32" /><rect
                     x="-1.05"
                     y="-2.95"
                     width="0.1"
                     height="5.9000001"
                     id="rect33" /><rect
                     x="0.94999999"
                     y="-2.95"
                     width="0.1"
                     height="5.9000001"
                     id="rect34" /><rect
                     x="-2.95"
                     y="-1.05"
                     width="1.9"
                     height="0.1"
                     id="rect35" /><rect
                     x="-0.94999999"
                     y="-1.05"
                     width="1.9"
                     height="0.1"
                     id="rect36" /><rect
                     x="1.05"
                     y="-1.05"
                     width="1.9"
                     height="0.1"
                     id="rect37" /><rect
                     x="-2.95"
                     y="0.94999999"
                     width="1.9"
                     height="0.1"
                     id="rect38" /><rect
                     x="-0.94999999"
                     y="0.94999999"
                     width="1.9"
                     height="0.1"
                     id="rect39" /><rect
                     x="1.05"
                     y="0.94999999"
                     width="1.9"
                     height="0.1"
                     id="rect40" /></g><g
                   fill="#ffffff"
                   id="g45"><circle
                     cy="-2"
                     r="0.69999999"
                     id="circle41"
                     cx="0" /><circle
                     cx="2"
                     r="0.69999999"
                     id="circle42"
                     cy="0" /><circle
                     cx="-2"
                     cy="2"
                     r="0.69999999"
                     id="circle43" /><circle
                     cy="2"
                     r="0.69999999"
                     id="circle44"
                     cx="0" /><circle
                     cx="2"
                     cy="2"
                     r="0.69999999"
                     id="circle45" /></g></g></g><g
               id="use16"
               fill="#3b80ae"
               transform="translate(150,-170)"><g
                 transform="translate(-150,-170)"
                 id="g62"><path
                   d="m 205.599,94.567 c 0,-11.668 -24.914,-21.129 -55.628,-21.129 -30.723,0 -55.624,9.46 -55.624,21.129 0,10.203 24.901,7.346 55.624,7.346 30.714,0 55.628,2.32 55.628,-7.346 z"
                   id="path47" /><path
                   d="m 136.423,161.506 c 0,0 12.751,12.577 13.547,13.362 2.262,-2.232 13.545,-13.362 13.545,-13.362 7.135,-7.036 87.111,-6.399 91.066,-6.363 -0.469,-6.298 -1.254,-12.472 -2.325,-18.519 -15.183,-19.279 -42.811,-32.225 -74.485,-32.225 h -55.518 c -31.745,0 -59.439,13.011 -74.598,32.37 -1.054,6 -1.829,12.128 -2.296,18.374 3.962,-0.037 83.929,-0.673 91.064,6.363 z"
                   id="path48" /><path
                   d="m 149.97,301.187 c 2.005,-24.729 8.386,-103.483 8.405,-103.721 -0.09,-0.219 -6.478,-15.578 -8.405,-20.214 -1.936,4.655 -8.316,19.995 -8.408,20.214 0.02,0.238 6.403,78.992 8.408,103.721 z"
                   id="path49" /><path
                   d="m 140.403,197.149 8.862,-21.31 -13.686,-13.499 c -5.65,-5.573 -67.074,-6.235 -90.259,-6.019 l -0.006,-0.622 c -0.154,2.144 -0.271,4.302 -0.35,6.475 -0.076,2.207 10.392,4.706 10.392,6.717 0,2.319 -10.457,5.084 -10.359,7.631 2.993,73.349 48.53,131.631 104.372,132.048 l -9.02,-111.29 z"
                   id="path55" /><path
                   d="m 244.585,168.891 c 0,-2.011 10.467,-4.506 10.391,-6.715 -0.079,-2.174 -0.195,-4.332 -0.351,-6.479 l -0.004,0.624 c -23.186,-0.216 -84.608,0.445 -90.26,6.017 l -13.688,13.502 8.915,21.438 -9.017,111.29 c 55.854,-0.417 101.378,-58.698 104.373,-132.049 0.096,-2.543 -10.359,-5.31 -10.359,-7.628 z"
                   id="path56" /><path
                   d="m 44.506,141.12 c -4.135,-0.856 -4.895,-1.54 -7.935,-2.92 -9.59,-3.364 -10.376,-5.481 -16.08,-11.86 C 13.065,118.034 7.83,106.198 3.391,96.877 -0.185,89.352 -0.593,80.468 0.531,72.604 1.522,65.669 7.675,59.735 12.605,53.684 18.449,46.493 22.961,38.862 30.529,32.33 38.265,25.648 53.732,22.521 56.697,12.682 57.86,8.819 54.334,1.766 61.482,0 c -0.366,4.703 3.639,8.477 2.397,13.575 -1.129,4.627 -4.368,5.811 -9.611,9.099 -7.564,4.746 -18.366,8.779 -24.748,13.965 -7.175,5.827 -4.369,13.771 -10.569,20.057 -2.001,2.03 -7.901,4.706 -9.137,6.83 -1.861,3.199 -0.297,9.572 -0.116,13.12 0.425,8.284 5.588,14.244 9.555,22.045 4.152,8.141 6.429,15.409 13.411,22.519 4.183,4.262 11.429,4.802 16.21,10.647 l -3.555,4.186 z"
                   id="path57" /><path
                   d="m 43.94,191.922 -0.809,-7.346 C 33.625,179.997 32.792,174.804 22.393,172.11 -1.335,165.959 1.032,183.36 6.861,198.483 c 5.676,14.726 8.237,30.23 14.345,44.795 2.805,6.688 6.919,13.213 14.298,15.127 0.372,-8.435 -0.917,-10.651 -6.113,-16.919 -4.395,-5.293 -3.326,-12.548 -6.072,-18.504 -3.581,-7.804 -4.196,-15.646 -7.279,-23.502 -1.363,-3.479 -8.33,-13.966 -6.452,-17.861 3.183,-6.603 9.178,-0.083 12.179,2.077 4.218,3.036 6.467,2.223 11.681,2.898 0.593,0.079 3.557,2.162 10.492,5.328 z"
                   id="path58" /><path
                   d="m 65.839,257.063 -2.771,-4.837 c -6.68,8.928 -6.993,16.228 -10.056,23.347 -5.277,12.263 -0.157,28.851 9.854,37.676 6.052,5.375 15.907,9.618 23.122,13.136 10.035,4.892 20.113,11.286 31.336,13.396 2.482,0.466 8.798,1.295 6.693,-3.522 -0.975,-2.237 -8.091,-4.591 -10.146,-5.734 -8.312,-4.623 -16.377,-10.524 -24.142,-16.176 -9.498,-6.862 -20.843,-11.186 -28.311,-20.684 -3.054,-3.885 -3.544,-4.922 -2.816,-9.39 0.693,-4.263 1.344,-9.174 2.241,-13.439 1.012,-4.807 2.431,-9.458 4.996,-13.773 z"
                   id="path59" /><path
                   d="m 255.487,141.12 c 4.134,-0.856 4.896,-1.54 7.936,-2.92 9.583,-3.364 10.369,-5.481 16.071,-11.86 7.428,-8.306 12.661,-20.142 17.115,-29.463 3.574,-7.525 3.983,-16.409 2.86,-24.273 -0.992,-6.935 -7.157,-12.869 -12.087,-18.92 C 281.539,46.493 277.026,38.862 269.463,32.33 261.728,25.648 246.261,22.521 243.296,12.682 242.135,8.819 245.66,1.766 238.511,0 c 0.366,4.703 -3.637,8.477 -2.396,13.575 1.131,4.627 4.368,5.811 9.611,9.099 7.563,4.746 18.367,8.779 24.747,13.965 7.17,5.827 4.362,13.771 10.563,20.057 2.001,2.03 7.901,4.706 9.139,6.83 1.859,3.199 0.295,9.572 0.113,13.12 -0.424,8.284 -5.588,14.244 -9.553,22.045 -4.152,8.141 -6.431,15.409 -13.404,22.519 -4.184,4.262 -11.429,4.802 -16.211,10.647 l 3.556,4.186 z"
                   id="path60" /><path
                   d="m 256.053,191.922 0.81,-7.346 c 9.507,-4.579 10.34,-9.772 20.73,-12.466 23.741,-6.151 21.374,11.25 15.534,26.373 -5.676,14.726 -8.238,30.23 -14.347,44.795 -2.804,6.688 -6.911,13.213 -14.291,15.127 -0.371,-8.435 0.918,-10.651 6.113,-16.919 4.39,-5.293 3.319,-12.548 6.066,-18.504 3.58,-7.804 4.197,-15.646 7.278,-23.502 1.363,-3.479 8.33,-13.966 6.453,-17.861 -3.184,-6.603 -9.179,-0.083 -12.181,2.077 -4.217,3.036 -6.458,2.223 -11.672,2.898 -0.595,0.079 -3.56,2.162 -10.493,5.328 z"
                   id="path61" /><path
                   d="m 234.155,257.063 2.771,-4.837 c 6.679,8.928 6.991,16.228 10.057,23.347 5.274,12.263 0.154,28.851 -9.854,37.676 -6.055,5.375 -15.903,9.618 -23.117,13.136 -10.034,4.892 -20.127,11.286 -31.351,13.396 -2.481,0.466 -8.789,1.295 -6.691,-3.522 0.976,-2.237 8.092,-4.591 10.146,-5.734 8.312,-4.623 16.392,-10.524 24.155,-16.176 9.498,-6.862 20.838,-11.186 28.305,-20.684 3.055,-3.885 3.543,-4.922 2.818,-9.39 -0.696,-4.263 -1.346,-9.174 -2.244,-13.439 -1.013,-4.807 -2.432,-9.458 -4.995,-13.773 z"
                   id="path62" /></g></g></g></g></g><use
         xlink:href="#cts"
         transform="matrix(0.13450456,0,0,0.13450456,25,42.428324)"
         id="use1565"
         style="fill:#102336;fill-opacity:1" /></g></g></svg>
