<?xml version="1.0" encoding="UTF-8" standalone="no"?>
<!-- Created with Inkscape (http://www.inkscape.org/) -->

<svg
   width="50mm"
   height="50mm"
   viewBox="0 0 50 50"
   version="1.1"
   id="svg1"
   xml:space="preserve"
   sodipodi:docname="Compose_Box.svg"
   inkscape:version="1.4.3 (0d15f75, 2025-12-25)"
   inkscape:export-filename="GTK_Box.png"
   inkscape:export-xdpi="96"
   inkscape:export-ydpi="96"
   xmlns:inkscape="http://www.inkscape.org/namespaces/inkscape"
   xmlns:sodipodi="http://sodipodi.sourceforge.net/DTD/sodipodi-0.dtd"
   xmlns:xlink="http://www.w3.org/1999/xlink"
   xmlns="http://www.w3.org/2000/svg"
   xmlns:svg="http://www.w3.org/2000/svg"><sodipodi:namedview
     id="namedview1"
     pagecolor="#ffffff"
     bordercolor="#000000"
     borderopacity="0.25"
     inkscape:showpageshadow="2"
     inkscape:pageopacity="0.0"
     inkscape:pagecheckerboard="0"
     inkscape:deskcolor="#d1d1d1"
     inkscape:document-units="mm"
     inkscape:zoom="0.25"
     inkscape:cx="-1550"
     inkscape:cy="598"
     inkscape:window-width="2560"
     inkscape:window-height="1369"
     inkscape:window-x="-8"
     inkscape:window-y="-8"
     inkscape:window-maximized="1"
     inkscape:current-layer="layer1"><inkscape:page
       x="0"
       y="0"
       width="50"
       height="50"
       id="page2"
       margin="0"
       bleed="0" /></sodipodi:namedview><defs
     id="defs1"><linearGradient
       id="linearGradient23"
       inkscape:collect="always"><stop
         style="stop-color:#ffffff;stop-opacity:0.44849786;"
         offset="0"
         id="stop22" /><stop
         style="stop-color:#ffffff;stop-opacity:0;"
         offset="1"
         id="stop23" /></linearGradient><linearGradient
       id="linearGradient21"
       inkscape:collect="always"><stop
         style="stop-color:#ffffff;stop-opacity:0.44635195;"
         offset="0"
         id="stop20" /><stop
         style="stop-color:#ffffff;stop-opacity:0;"
         offset="1"
         id="stop21" /></linearGradient><linearGradient
       id="linearGradient18"
       inkscape:collect="always"><stop
         style="stop-color:#ffffff;stop-opacity:0.1502146;"
         offset="0"
         id="stop17" /><stop
         style="stop-color:#ffffff;stop-opacity:0.04506438;"
         offset="1"
         id="stop18" /></linearGradient><linearGradient
       id="linearGradient4"
       inkscape:collect="always"><stop
         style="stop-color:#ffffff;stop-opacity:0.45064378;"
         offset="0"
         id="stop11" /><stop
         style="stop-color:#ffffff;stop-opacity:0;"
         offset="1"
         id="stop12" /></linearGradient><linearGradient
       id="linearGradient11"
       inkscape:collect="always"><stop
         style="stop-color:#ada1ff;stop-opacity:1;"
         offset="0"
         id="stop13" /><stop
         style="stop-color:#ada1ff;stop-opacity:0;"
         offset="0.50279099"
         id="stop14" /></linearGradient><linearGradient
       id="linearGradient8"
       inkscape:collect="always"><stop
         style="stop-color:#87d1fd;stop-opacity:1;"
         offset="0.00162602"
         id="stop9" /><stop
         style="stop-color:#87d1fd;stop-opacity:0;"
         offset="0.49942052"
         id="stop10" /></linearGradient><linearGradient
       id="linearGradient3"
       inkscape:collect="always"><stop
         style="stop-color:#b5a3fd;stop-opacity:1;"
         offset="0"
         id="stop4" /><stop
         style="stop-color:#b5a3fd;stop-opacity:0;"
         offset="0.4994418"
         id="stop7" /></linearGradient><linearGradient
       inkscape:collect="always"
       xlink:href="#linearGradient3"
       id="linearGradient7"
       x1="4.6314883"
       y1="36.759758"
       x2="45.368515"
       y2="13.240229"
       gradientUnits="userSpaceOnUse" /><linearGradient
       inkscape:collect="always"
       xlink:href="#linearGradient8"
       id="linearGradient10"
       x1="24.999998"
       y1="1.4804666"
       x2="24.999998"
       y2="48.519524"
       gradientUnits="userSpaceOnUse" /><linearGradient
       inkscape:collect="always"
       xlink:href="#linearGradient11"
       id="linearGradient14"
       x1="45.368523"
       y1="36.759766"
       x2="4.6314898"
       y2="13.24023"
       gradientUnits="userSpaceOnUse" /><radialGradient
       id="paint0_radial_657_7666"
       cx="0"
       cy="0"
       r="1"
       gradientUnits="userSpaceOnUse"
       gradientTransform="matrix(47.1872,0,0,48.1507,18.0681,16.5042)"><stop
         stop-color="#5383EC"
         id="stop5" /><stop
         offset="0.86699"
         stop-color="#7F52FF"
         id="stop6" /></radialGradient><linearGradient
       id="paint1_linear_657_7666"
       x1="41.6342"
       y1="0.430441"
       x2="11.6244"
       y2="33.7243"
       gradientUnits="userSpaceOnUse"><stop
         stop-color="#33C3FF"
         id="stop7-2" /><stop
         offset="0.87843"
         stop-color="#5383EC"
         id="stop8" /></linearGradient><clipPath
       id="clip0_657_7666"><rect
         width="56"
         height="64"
         fill="white"
         id="rect8" /></clipPath><linearGradient
       inkscape:collect="always"
       xlink:href="#linearGradient21"
       id="linearGradient13"
       gradientUnits="userSpaceOnUse"
       x1="27.994869"
       y1="0.0030272584"
       x2="28.125559"
       y2="31.776342"
       gradientTransform="matrix(0.22197508,0,0,0.22197508,18.784311,17.896427)" /><linearGradient
       inkscape:collect="always"
       xlink:href="#linearGradient4"
       id="linearGradient15"
       x1="18.969372"
       y1="28.508263"
       x2="24.999012"
       y2="25.02705"
       gradientUnits="userSpaceOnUse" /><linearGradient
       inkscape:collect="always"
       xlink:href="#linearGradient23"
       id="linearGradient16"
       gradientUnits="userSpaceOnUse"
       x1="18.969372"
       y1="28.508263"
       x2="25.000847"
       y2="24.958765"
       gradientTransform="matrix(-1,0,0,1,49.996368,0.00949416)" /><radialGradient
       inkscape:collect="always"
       xlink:href="#linearGradient18"
       id="radialGradient18"
       cx="25.000002"
       cy="25"
       fx="25.000002"
       fy="25"
       r="6.0288324"
       gradientTransform="matrix(1,0,0,1.1782668,0,-4.4566693)"
       gradientUnits="userSpaceOnUse" /><linearGradient
       inkscape:collect="always"
       xlink:href="#linearGradient23"
       id="linearGradient24"
       gradientUnits="userSpaceOnUse"
       x1="26.629299"
       y1="-5.33395"
       x2="26.629299"
       y2="39.488693" /><linearGradient
       inkscape:collect="always"
       xlink:href="#linearGradient23"
       id="linearGradient26"
       x1="0.84199488"
       y1="47.840275"
       x2="28.001499"
       y2="32.159725"
       gradientUnits="userSpaceOnUse" /><linearGradient
       inkscape:collect="always"
       xlink:href="#linearGradient23"
       id="linearGradient28"
       x1="55.161587"
       y1="47.841331"
       x2="27.998426"
       y2="32.158672"
       gradientUnits="userSpaceOnUse" /><filter
       inkscape:collect="always"
       style="color-interpolation-filters:sRGB"
       id="filter6"
       x="-0.0269991"
       y="-0.027001169"
       width="1.0539982"
       height="1.0540023"><feGaussianBlur
         inkscape:collect="always"
         stdDeviation="0.53538959"
         id="feGaussianBlur6" /></filter><filter
       inkscape:collect="always"
       style="color-interpolation-filters:sRGB"
       id="filter10"
       x="-0.052268625"
       y="-0.044375943"
       width="1.1045373"
       height="1.0887519"><feGaussianBlur
         inkscape:collect="always"
         stdDeviation="1.2034375"
         id="feGaussianBlur10" /></filter><filter
       inkscape:collect="always"
       style="color-interpolation-filters:sRGB"
       id="filter11"
       x="-0.029500016"
       y="-0.050285436"
       width="1.059"
       height="1.1005709"><feGaussianBlur
         inkscape:collect="always"
         stdDeviation="0.14778798"
         id="feGaussianBlur11" /></filter><filter
       inkscape:collect="always"
       style="color-interpolation-filters:sRGB"
       id="filter12"
       x="-0.058788804"
       y="-0.033272153"
       width="1.1175776"
       height="1.0665443"><feGaussianBlur
         inkscape:collect="always"
         stdDeviation="0.14778798"
         id="feGaussianBlur12" /></filter><filter
       inkscape:collect="always"
       style="color-interpolation-filters:sRGB"
       id="filter13"
       x="-0.058788862"
       y="-0.033301812"
       width="1.1175777"
       height="1.0666036"><feGaussianBlur
         inkscape:collect="always"
         stdDeviation="0.14778798"
         id="feGaussianBlur13" /></filter></defs><g
     id="layer1"
     inkscape:label="Compose"><rect
       style="font-variation-settings:normal;opacity:1;vector-effect:none;fill:#daeefe;fill-opacity:1;stroke:none;stroke-width:0.260698;stroke-linecap:butt;stroke-linejoin:miter;stroke-miterlimit:4;stroke-dasharray:none;stroke-dashoffset:0;stroke-opacity:1;-inkscape-stroke:none;stop-color:#000000;stop-opacity:1"
       id="rect1"
       width="50"
       height="50"
       x="0"
       y="0"
       rx="7.1983109"
       ry="7.1983109"
       inkscape:label="Background" /><g
       id="g25"
       inkscape:label="Border"
       style="display:inline"><path
         id="path6"
         style="baseline-shift:baseline;display:inline;overflow:visible;opacity:1;vector-effect:none;fill:#000000;fill-opacity:0.7527675;filter:url(#filter6);enable-background:accumulate;stop-color:#000000;stop-opacity:1"
         inkscape:label="BorderShadow"
         d="M 34.235298 1.2169423 C 25.681698 1.2235023 17.127449 1.2039389 8.5740587 1.2267919 C 5.0304541 1.3406753 1.8339209 4.1982972 1.3201098 7.7052168 C 1.0912047 9.8132225 1.2769588 11.947042 1.2169485 14.064928 C 1.2287005 23.222888 1.1931446 32.38175 1.2340556 41.539007 C 1.3978602 45.141245 4.4060103 48.337498 7.9913789 48.719862 C 10.576396 48.868194 13.174763 48.740417 15.764763 48.783107 C 24.356056 48.771347 32.948423 48.806401 41.539013 48.765481 C 45.141251 48.601676 48.337505 45.594044 48.719868 42.008676 C 48.868201 39.423659 48.740423 36.825292 48.783113 34.235292 C 48.771353 25.643999 48.806407 17.051631 48.765487 8.4610417 C 48.601682 4.8588028 45.59405 1.6620328 42.008682 1.2796685 C 39.423665 1.1313369 36.825298 1.2596373 34.235298 1.2169423 z M 8.9784094 3.7441345 C 19.796978 3.7570365 30.617024 3.7182223 41.434815 3.7633153 C 44.090128 3.8849938 46.33032 6.32607 46.255921 8.9784033 C 46.243021 19.796972 46.28183 30.617018 46.23674 41.434809 C 46.115062 44.090122 43.673986 46.330313 41.021652 46.255914 C 30.203086 46.243012 19.383037 46.281827 8.5652459 46.236734 C 5.9099324 46.115056 3.6697425 43.67398 3.7441407 41.021646 C 3.7570426 30.203078 3.7182287 19.383031 3.7633215 8.5652397 C 3.8979657 5.8939319 6.3091079 3.6826094 8.9784094 3.7441345 z "
         transform="matrix(0.99684782,0,0,0.99684782,0.07879837,0.07880452)" /><path
         style="baseline-shift:baseline;display:inline;overflow:visible;opacity:1;vector-effect:none;fill:url(#linearGradient10);enable-background:accumulate;stop-color:#000000;stop-opacity:1"
         d="m 8.9648438,1.4804687 c -4.1287536,0 -7.4843751,3.3556215 -7.4843751,7.4843751 V 41.035156 c 0,4.128754 3.3556215,7.484375 7.4843751,7.484375 H 41.035156 c 4.128754,0 7.484375,-3.355621 7.484375,-7.484375 V 8.9648438 c 0,-4.1287536 -3.355621,-7.4843751 -7.484375,-7.4843751 z m 0,2.0000001 H 41.035156 c 3.055348,0 5.484375,2.4290269 5.484375,5.484375 V 41.035156 c 0,3.055348 -2.429027,5.484375 -5.484375,5.484375 H 8.9648438 c -3.0553481,0 -5.484375,-2.429027 -5.484375,-5.484375 V 8.9648438 c 0,-3.0553481 2.4290269,-5.4843751 5.484375,-5.484375 z"
         id="path1"
         inkscape:label="pathTop" /><path
         style="baseline-shift:baseline;display:inline;overflow:visible;opacity:1;vector-effect:none;fill:url(#linearGradient7);fill-opacity:1;enable-background:accumulate;stop-color:#000000;stop-opacity:1"
         d="m 8.9648438,1.4804687 c -4.1287536,0 -7.4843751,3.3556215 -7.4843751,7.4843751 V 41.035156 c 0,4.128754 3.3556215,7.484375 7.4843751,7.484375 H 41.035156 c 4.128754,0 7.484375,-3.355621 7.484375,-7.484375 V 8.9648438 c 0,-4.1287536 -3.355621,-7.4843751 -7.484375,-7.4843751 z m 0,2.0000001 H 41.035156 c 3.055348,0 5.484375,2.4290269 5.484375,5.484375 V 41.035156 c 0,3.055348 -2.429027,5.484375 -5.484375,5.484375 H 8.9648438 c -3.0553481,0 -5.484375,-2.429027 -5.484375,-5.484375 V 8.9648438 c 0,-3.0553481 2.4290269,-5.4843751 5.484375,-5.484375 z"
         id="rect1-1"
         inkscape:label="pathLeft" /><path
         style="baseline-shift:baseline;display:inline;overflow:visible;opacity:1;vector-effect:none;fill:url(#linearGradient14);enable-background:accumulate;stop-color:#000000;stop-opacity:1"
         d="m 8.9648438,1.4804687 c -4.1287536,0 -7.4843751,3.3556215 -7.4843751,7.4843751 V 41.035156 c 0,4.128754 3.3556215,7.484375 7.4843751,7.484375 H 41.035156 c 4.128754,0 7.484375,-3.355621 7.484375,-7.484375 V 8.9648438 c 0,-4.1287536 -3.355621,-7.4843751 -7.484375,-7.4843751 z m 0,2.0000001 H 41.035156 c 3.055348,0 5.484375,2.4290269 5.484375,5.484375 V 41.035156 c 0,3.055348 -2.429027,5.484375 -5.484375,5.484375 H 8.9648438 c -3.0553481,0 -5.484375,-2.429027 -5.484375,-5.484375 V 8.9648438 c 0,-3.0553481 2.4290269,-5.4843751 5.484375,-5.484375 z"
         id="path2"
         inkscape:label="pathRight" /></g><g
       id="g13"
       inkscape:label="Center"><path
         d="m 25.000001,17.896427 6.028832,3.551787 v 7.103629 l -6.028832,3.55173 -6.028833,-3.55173 v -7.103629 z"
         fill="#000000"
         id="path5-8"
         style="fill:#000000;fill-opacity:1;stroke:none;stroke-width:0.565058"
         inkscape:label="Center" /><path
         d="m 25.000001,17.896427 6.028832,3.551787 v 7.103629 l -6.028832,3.55173 -6.028833,-3.55173 v -7.103629 z"
         fill="#000000"
         id="path3"
         style="display:inline;fill:url(#radialGradient18);fill-opacity:1;stroke:none;stroke-width:0.565058"
         inkscape:label="CenterLighting" /><path
         d="m 24.99999,24.919189 c -2.043749,-1.131578 -4.004734,-2.290531 -6.01218,-3.470975 l -0.02031,7.096563 6.033305,3.554243 z"
         fill="url(#paint0_radial_657_7666)"
         id="path16"
         style="fill:url(#linearGradient15);stroke-width:0.22214;filter:url(#filter13)"
         sodipodi:nodetypes="ccccc"
         inkscape:label="CenterLeftShadow" /><path
         d="m 24.995521,24.96826 c 2.021769,-1.155859 4.009225,-2.339602 6.016671,-3.520046 l 0.01664,7.106057 -6.033305,3.554243 z"
         fill="url(#paint0_radial_657_7666)"
         id="path13"
         style="fill:url(#linearGradient16);stroke-width:0.22214;filter:url(#filter12)"
         sodipodi:nodetypes="ccccc"
         inkscape:label="CenterRightShadow" /><path
         d="m 25.027484,24.949983 c 5.984708,-3.501769 0,0 5.983748,-3.501769 l -6.011242,-3.551787 -6.01218,3.551787 c 6.056316,3.501955 0.01085,0.03079 6.039674,3.501769 z"
         fill="url(#paint1_linear_657_7666)"
         id="path12"
         style="fill:url(#linearGradient13);stroke-width:0.221975;filter:url(#filter11)"
         sodipodi:nodetypes="ccccc"
         inkscape:label="CenterTopShadow" /></g><path
       id="path10"
       style="fill:#000000;fill-opacity:0.7527675;filter:url(#filter10)"
       inkscape:label="IconShadow"
       d="M 27.763672,-0.40429688 C 18.633603,4.9748446 9.5024218,10.352106 0.37304688,15.732422 c 0,10.845052 -1e-8,21.690104 0,32.535156 9.20904942,5.426118 18.41792912,10.852554 27.62890612,16.275391 9.210976,-5.42284 18.419858,-10.849271 27.628906,-16.275391 0,-10.845052 0,-21.690104 0,-32.535156 C 46.42181,10.306304 37.21293,4.8798685 28.001953,-0.54296875 c -0.07943,0.046224 -0.158854,0.0924479 -0.238281,0.13867187 z M 38.199219,25.982422 c 0,4.01237 0,8.024739 0,12.037109 C 34.799479,40.022135 31.39974,42.02474 28,44.027344 24.599609,42.02474 21.199219,40.022135 17.798828,38.019531 c 0,-4.01237 0,-8.024739 0,-12.037109 C 21.199219,23.979818 24.599609,21.977214 28,19.974609 c 3.39974,2.002605 6.799479,4.005209 10.199219,6.007813 z"
       transform="matrix(0.56505824,0,0,0.56505824,9.1773814,6.9181366)" /><g
       clip-path="url(#clip0_657_7666)"
       id="g5"
       style="fill:none"
       transform="matrix(0.56505824,0,0,0.56505824,9.1773814,6.9181366)"
       inkscape:label="Icon"><path
         id="path1-0"
         d="M 28.001791 -0.00037608356 L 0.84199489 16.000291 L 0.84199489 47.999795 L 28.001791 63.999547 L 55.161588 47.999795 L 55.161588 16.000291 L 28.001791 -0.00037608356 z M 27.999048 19.429789 L 38.668903 25.715373 L 38.668903 38.286542 L 27.999048 44.572126 L 17.330108 38.286542 L 17.330108 25.715373 L 27.999048 19.429789 z " /><path
         d="M 38.64,25.7143 V 38.2856 L 28,44.5715 V 64 L 55.16,48 V 16 Z"
         fill="#6b57ff"
         id="path2-9" /><path
         d="M 28.0017,44.5715 17.3618,38.2856 V 25.7143 L 0.841797,16 V 48 L 28.0017,64 Z"
         fill="url(#paint0_radial_657_7666)"
         id="path3-4"
         style="fill:url(#paint0_radial_657_7666)" /><path
         d="m 17.3618,25.7143 10.6399,-6.2857 10.64,6.2857 L 55.1617,16 28.0017,0 0.841797,16 Z"
         fill="url(#paint1_linear_657_7666)"
         id="path4-8"
         style="fill:url(#paint1_linear_657_7666)" /><path
         d="M 28.0017,44.5715 17.3618,38.2856 V 25.7143 L 0.841797,16 V 48 L 28.0017,64 Z"
         fill="url(#paint0_radial_657_7666)"
         id="path15"
         style="fill:url(#paint0_radial_657_7666)" /></g><g
       id="g24"
       inkscape:label="Lighting"><path
         d="M 38.64,25.7143 V 38.2856 L 28,44.5715 V 64 L 55.16,48 V 16 Z"
         fill="#6b57ff"
         id="path26"
         style="fill:url(#linearGradient28);stroke:none"
         transform="matrix(0.56505824,0,0,0.56505824,9.1773814,6.9181366)"
         inkscape:label="RightLight" /><path
         d="M 28.0017,44.5715 17.3618,38.2856 V 25.7143 L 0.841797,16 V 48 L 28.0017,64 Z"
         fill="url(#paint0_radial_657_7666)"
         id="path25"
         style="fill:url(#linearGradient26)"
         transform="matrix(0.56505824,0,0,0.56505824,9.1773814,6.9181366)"
         inkscape:label="LeftLight" /><path
         d="m 17.3618,25.7143 10.6399,-6.2857 10.64,6.2857 L 55.1617,16 28.0017,0 0.841797,16 Z"
         fill="url(#paint1_linear_657_7666)"
         id="path23"
         style="fill:url(#linearGradient24)"
         transform="matrix(0.56505824,0,0,0.56505824,9.1773814,6.9181366)"
         inkscape:label="TopLight" /></g></g><style
     type="text/css"
     id="style1">
	.st0{fill:none;}
	.st1{fill:#083042;}
	.st2{fill:#3DDB85;}
	.st3{fill:#3DDC84;}
	.st4{fill:#4285F4;}
	.st5{fill:#D6F0FF;}
	.st6{fill:#041619;}
	.st7{fill:#37BF6E;}
	.st8{fill:#3870B2;}
	.st9{opacity:0.1;}
</style></svg>
