<?xml version="1.0" encoding="UTF-8" standalone="no"?>
<!-- Created with Inkscape (http://www.inkscape.org/) -->

<svg
   width="50mm"
   height="50mm"
   viewBox="0 0 50 50"
   version="1.1"
   id="svg1"
   xml:space="preserve"
   sodipodi:docname="Crystal_Box.svg"
   inkscape:version="1.4.2 (f4327f4, 2025-05-13)"
   xmlns:inkscape="http://www.inkscape.org/namespaces/inkscape"
   xmlns:sodipodi="http://sodipodi.sourceforge.net/DTD/sodipodi-0.dtd"
   xmlns:xlink="http://www.w3.org/1999/xlink"
   xmlns="http://www.w3.org/2000/svg"
   xmlns:svg="http://www.w3.org/2000/svg"><sodipodi:namedview
     id="namedview1"
     pagecolor="#ffffff"
     bordercolor="#000000"
     borderopacity="0.25"
     inkscape:showpageshadow="2"
     inkscape:pageopacity="0.0"
     inkscape:pagecheckerboard="0"
     inkscape:deskcolor="#d1d1d1"
     inkscape:document-units="mm"
     inkscape:zoom="6.7069296"
     inkscape:cx="94.454548"
     inkscape:cy="94.454548"
     inkscape:window-width="2560"
     inkscape:window-height="1369"
     inkscape:window-x="-8"
     inkscape:window-y="-8"
     inkscape:window-maximized="1"
     inkscape:current-layer="svg1" /><defs
     id="defs1"><linearGradient
       id="linearGradient15"><stop
         style="stop-color:#ffffff;stop-opacity:1;"
         offset="0"
         id="stop15" /><stop
         style="stop-color:#000000;stop-opacity:1;"
         offset="1"
         id="stop16" /></linearGradient><linearGradient
       id="linearGradient2"><stop
         style="stop-color:#ffffff;stop-opacity:1;"
         offset="0"
         id="stop2" /><stop
         style="stop-color:#7f7f7f;stop-opacity:0;"
         offset="0.30000001"
         id="stop4" /><stop
         style="stop-color:#7f7f7f;stop-opacity:0;"
         offset="0.69999999"
         id="stop17" /><stop
         style="stop-color:#000000;stop-opacity:1;"
         offset="1"
         id="stop3" /></linearGradient><linearGradient
       xlink:href="#linearGradient2"
       id="linearGradient9"
       x1="25.000004"
       y1="2.3639462"
       x2="25.000004"
       y2="47.63604"
       gradientUnits="userSpaceOnUse" /><radialGradient
       xlink:href="#linearGradient15"
       id="radialGradient16"
       cx="25"
       cy="25"
       fx="25"
       fy="25"
       r="25"
       gradientUnits="userSpaceOnUse"
       gradientTransform="translate(-2.4265137e-6)" /></defs><g
     id="layer1"><rect
       style="font-variation-settings:normal;opacity:1;vector-effect:none;fill:#000000;fill-opacity:1;stroke:none;stroke-width:0.260698;stroke-linecap:butt;stroke-linejoin:miter;stroke-miterlimit:4;stroke-dasharray:none;stroke-dashoffset:0;stroke-opacity:1;-inkscape-stroke:none;stop-color:#000000;stop-opacity:1"
       id="rect1"
       width="50"
       height="50"
       x="0"
       y="0"
       rx="7.1983109"
       ry="7.1983109" /><rect
       style="font-variation-settings:normal;vector-effect:none;fill:url(#radialGradient16);stroke:none;stroke-width:0.260698;stroke-linecap:butt;stroke-linejoin:miter;stroke-miterlimit:4;stroke-dasharray:none;stroke-dashoffset:0;stroke-opacity:1;-inkscape-stroke:none;stop-color:#000000"
       id="rect1-18"
       width="50"
       height="50"
       x="0"
       y="-4.4408921e-16"
       rx="7.1983109"
       ry="7.1983109" /><rect
       style="fill:none;fill-opacity:1;stroke:url(#linearGradient9);stroke-width:1;stroke-dasharray:none"
       id="rect1-1"
       width="45.037273"
       height="45.037273"
       x="2.4813633"
       y="2.4813633"
       rx="6.4838462"
       ry="6.4838462" /></g><g
     id="g1"
     transform="matrix(0.32239814,0,0,0.32239814,4.9307157,4.9698632)"><path
       d="M 124.31122,79.072273 79.251122,124.0427 c -0.179279,0.17928 -0.450192,0.26893 -0.630468,0.17928 L 17.066785,107.73021 c -0.269917,-0.0896 -0.450192,-0.26991 -0.450192,-0.45119 L 0.03516618,45.816789 c -0.08963995,-0.271908 0,-0.451188 0.17928022,-0.631464 L 45.274535,0.21487557 C 45.45481,0.03559545 45.725723,-0.05504075 45.905999,0.03559545 L 107.45987,16.526386 c 0.26992,0.08964 0.4492,0.270914 0.4492,0.45119 l 16.49278,61.463231 c 0.18028,0.269917 0.0896,0.450194 -0.0896,0.631466 z"
       id="path1-8"
       style="fill:#ffffff;stroke-width:0.901212" /><path
       d="M 120.11209,77.925669 78.100692,119.85348 c -0.167149,0.16715 -0.419733,0.25073 -0.587812,0.16715 L 20.12365,104.64466 c -0.251654,-0.0836 -0.419734,-0.25165 -0.419734,-0.42066 L 4.2443623,46.9202 c -0.083575,-0.253511 0,-0.420661 0.1671504,-0.58874 L 46.422907,4.4036399 C 46.590985,4.2364895 46.843569,4.1519858 47.011648,4.2364895 L 104.40089,19.611541 c 0.25165,0.08357 0.4188,0.252581 0.4188,0.420661 L 120.1966,77.33693 c 0.16808,0.251653 0.0836,0.419733 -0.0836,0.588739 z M 63.816762,32.299184 7.4369348,47.339005 c -0.083575,0 -0.1680789,0.169008 -0.083575,0.252583 L 48.608863,88.764445 c 0.08357,0.08358 0.251654,0.08358 0.251654,-0.08358 l 15.125254,-56.29625 c 0.08358,0 -0.08358,-0.168079 -0.16808,-0.08358 z"
       id="path1"
       style="stroke-width:0.840237" /></g></svg>
