<?xml version="1.0" encoding="UTF-8" standalone="no"?>
<!-- Created with Inkscape (http://www.inkscape.org/) -->

<svg
   width="50mm"
   height="50mm"
   viewBox="0 0 50 50"
   version="1.1"
   id="svg1"
   xml:space="preserve"
   sodipodi:docname="D_Box.svg"
   inkscape:version="1.4.2 (f4327f4, 2025-05-13)"
   xmlns:inkscape="http://www.inkscape.org/namespaces/inkscape"
   xmlns:sodipodi="http://sodipodi.sourceforge.net/DTD/sodipodi-0.dtd"
   xmlns:xlink="http://www.w3.org/1999/xlink"
   xmlns="http://www.w3.org/2000/svg"
   xmlns:svg="http://www.w3.org/2000/svg"><sodipodi:namedview
     id="namedview1"
     pagecolor="#ffffff"
     bordercolor="#000000"
     borderopacity="0.25"
     inkscape:showpageshadow="2"
     inkscape:pageopacity="0.0"
     inkscape:pagecheckerboard="0"
     inkscape:deskcolor="#d1d1d1"
     inkscape:document-units="mm"
     inkscape:zoom="4.8319201"
     inkscape:cx="66.019303"
     inkscape:cy="92.820243"
     inkscape:window-width="2560"
     inkscape:window-height="1369"
     inkscape:window-x="-8"
     inkscape:window-y="-8"
     inkscape:window-maximized="1"
     inkscape:current-layer="layer1"
     showgrid="false"><inkscape:page
       x="0"
       y="0"
       width="50"
       height="50"
       id="page2"
       margin="0"
       bleed="0" /></sodipodi:namedview><defs
     id="defs1"><linearGradient
       id="linearGradient10"><stop
         id="stop8"
         style="stop-color:#f2f2f0;stop-opacity:0.13695653;"
         offset="0" /><stop
         id="stop9"
         style="stop-color:#eeeeec;stop-opacity:0.19782609;"
         offset="1" /></linearGradient><linearGradient
       id="linearGradient5"><stop
         style="stop-color:#8f2625;stop-opacity:1;"
         offset="0"
         id="stop1" /><stop
         style="stop-color:#a40000;stop-opacity:1;"
         offset="1"
         id="stop5" /></linearGradient><linearGradient
       id="linearGradient2"><stop
         style="stop-color:#d25352;stop-opacity:1;"
         offset="0"
         id="stop2" /><stop
         style="stop-color:#d25352;stop-opacity:0;"
         offset="0.30000001"
         id="stop4" /><stop
         style="stop-color:#a40000;stop-opacity:0;"
         offset="0.69999999"
         id="stop17" /><stop
         style="stop-color:#a40000;stop-opacity:1;"
         offset="0.99775267"
         id="stop3" /></linearGradient><linearGradient
       xlink:href="#linearGradient2"
       id="linearGradient9"
       x1="39.364796"
       y1="4.7022109"
       x2="14.015448"
       y2="48.608574"
       gradientUnits="userSpaceOnUse" /><linearGradient
       id="linearGradient3456"><stop
         id="stop3458"
         style="stop-color:#ffffff;stop-opacity:1"
         offset="0" /><stop
         id="stop3460"
         style="stop-color:#ffffff;stop-opacity:0.33333334"
         offset="1" /></linearGradient><linearGradient
       id="linearGradient3420"><stop
         id="stop3430"
         style="stop-color:#f2f2f0;stop-opacity:0.13541667"
         offset="0" /><stop
         id="stop3424"
         style="stop-color:#eeeeec;stop-opacity:0.39583334"
         offset="1" /></linearGradient><linearGradient
       x1="27.247862"
       y1="33.562527"
       x2="44.49588"
       y2="47.030663"
       id="linearGradient3426"
       xlink:href="#linearGradient3420"
       gradientUnits="userSpaceOnUse"
       gradientTransform="matrix(1,0,0,0.991763,-0.677924,0.501242)"
       spreadMethod="reflect" /><linearGradient
       x1="24.48222"
       y1="30.993589"
       x2="104.02448"
       y2="90.718597"
       id="linearGradient3462"
       xlink:href="#linearGradient3456"
       gradientUnits="userSpaceOnUse"
       gradientTransform="matrix(0.99719,0,0,0.988716,-0.49737,0.686728)" /><linearGradient
       x1="27.247862"
       y1="33.562527"
       x2="44.49588"
       y2="47.030663"
       id="linearGradient2213"
       xlink:href="#linearGradient3420"
       gradientUnits="userSpaceOnUse"
       gradientTransform="matrix(1,0,0,-0.991763,-0.677924,121.0142)"
       spreadMethod="reflect" /><linearGradient
       inkscape:collect="always"
       xlink:href="#linearGradient5"
       id="linearGradient1"
       x1="0.13674566"
       y1="49.876705"
       x2="49.975731"
       y2="0.037500426"
       gradientUnits="userSpaceOnUse" /><linearGradient
       x1="27.247862"
       y1="33.562527"
       x2="44.49588"
       y2="47.030663"
       id="linearGradient2213-8"
       xlink:href="#linearGradient10"
       gradientUnits="userSpaceOnUse"
       gradientTransform="matrix(0.67557553,0,0,-0.94017127,-18.40799,81.55451)"
       spreadMethod="reflect" /><linearGradient
       inkscape:collect="always"
       xlink:href="#linearGradient10"
       id="linearGradient6"
       gradientUnits="userSpaceOnUse"
       x1="0.13674566"
       y1="49.876705"
       x2="49.975731"
       y2="0.037500426" /></defs><g
     id="layer1"><rect
       style="font-variation-settings:normal;vector-effect:none;fill:url(#linearGradient1);stroke:none;stroke-width:0.260698;stroke-linecap:butt;stroke-linejoin:miter;stroke-miterlimit:4;stroke-dasharray:none;stroke-dashoffset:0;stroke-opacity:1;-inkscape-stroke:none;stop-color:#000000"
       id="rect1-18"
       width="50"
       height="50"
       x="0"
       y="-4.4408921e-16"
       rx="7.1983109"
       ry="7.1983109" /><path
       id="rect1"
       style="font-variation-settings:normal;vector-effect:none;fill:url(#linearGradient6);stroke:none;stroke-width:0.260698;stroke-linecap:butt;stroke-linejoin:miter;stroke-miterlimit:4;stroke-dasharray:none;stroke-dashoffset:0;stroke-opacity:1;-inkscape-stroke:none;stop-color:#000000"
       d="M 0 23.67194 L 0 42.801522 C 6.2665922e-16 46.789386 3.2106628 50.000049 7.198527 50.000049 L 42.801522 50.000049 C 46.789386 50.000049 50.000049 46.789386 50.000049 42.801522 L 50.000049 33.911625 C 24.829961 23.087468 17.048614 24.271042 0 23.67194 z " /><rect
       style="fill:none;fill-opacity:1;stroke:url(#linearGradient9);stroke-width:1;stroke-dasharray:none"
       id="rect1-1"
       width="45.037273"
       height="45.037273"
       x="2.4813633"
       y="2.4813633"
       rx="6.4838462"
       ry="6.4838462" /><g
       transform="matrix(0.42841849,0,0,0.42841849,-2.6725399,-1.507529)"
       id="g2225"
       style="display:inline"><rect
         width="80.581573"
         height="60.167591"
         rx="7.6942425"
         ry="8.5425425"
         x="25.996332"
         y="33.483997"
         id="rect3466"
         style="fill:#2e3436;fill-opacity:0.27451;fill-rule:nonzero;stroke:none" /><rect
         width="80.581573"
         height="60.167591"
         rx="7.6942425"
         ry="8.5425425"
         x="23.284639"
         y="30.772299"
         id="rect3297"
         style="fill:#a40000;fill-opacity:1;fill-rule:nonzero;stroke:none" /><rect
         width="74.010971"
         height="54.137524"
         rx="5.2214007"
         ry="5.6200938"
         x="26.569939"
         y="33.787331"
         id="rect3408"
         style="fill:url(#linearGradient3426);fill-opacity:1;fill-rule:nonzero;stroke:none" /><path
         d="m 32.333318,39.18804 c -0.810423,0.100191 -1.445546,0.747081 -1.448237,1.530008 l 0.05115,39.976517 c -0.0033,0.05702 -0.0032,0.117055 2.23e-4,0.174065 -0.0093,0.0949 -0.0092,0.175886 3.47e-4,0.270764 -8.2e-5,0.0095 -5.8e-5,0.02917 4.9e-5,0.03868 0.0087,0.03837 0.0298,0.07834 0.04158,0.115983 -8.1e-5,0.0095 -8.1e-5,0.0098 2.5e-5,0.01934 0.0087,0.03838 0.0091,0.07837 0.02087,0.116011 -8.3e-5,0.0095 -5.7e-5,0.02917 4.9e-5,0.03868 0.01873,0.03878 0.04021,0.07874 0.0623,0.115951 -8e-5,0.0095 -8.1e-5,0.0098 2.5e-5,0.01934 0.02872,0.03929 0.07126,0.07924 0.103734,0.115892 -8.2e-5,0.0095 -8.2e-5,0.0098 2.4e-5,0.01934 0.01873,0.03878 0.04021,0.07875 0.0623,0.115952 -8.2e-5,0.0095 -5.7e-5,0.02917 4.9e-5,0.03868 0.03935,0.03021 0.08223,0.05048 0.124402,0.07718 -8.3e-5,0.0095 -5.7e-5,0.02917 4.9e-5,0.03868 0.02939,0.02959 0.05119,0.04989 0.08297,0.07724 0.01007,0.0096 0.03115,0.02925 0.04148,0.03862 0.02939,0.02959 0.05119,0.04989 0.08297,0.07724 0.01018,7.1e-5 0.01053,7.3e-5 0.02072,-3e-5 0.07575,0.06385 0.161798,0.123919 0.248826,0.173699 0.01019,7e-5 0.03125,4.4e-5 0.04143,-6e-5 0.03991,0.02052 0.08278,0.04046 0.124377,0.05784 0.01018,7e-5 0.01053,7.1e-5 0.02072,-2.9e-5 0.03992,0.02052 0.08279,0.04046 0.124376,0.05784 0.06051,0.01261 0.124828,0.01286 0.186479,0.01907 0.100723,0.01817 0.208212,0.03772 0.310804,0.03823 l 0.165737,-2.42e-4 15.309845,-0.06107 c 4.376235,-0.0078 7.307373,-0.08265 9.052976,-0.303342 0.01019,7.1e-5 0.03125,4.2e-5 0.04143,-6.2e-5 1.670518,-0.232037 3.440036,-0.65958 5.36408,-1.284309 3.344758,-1.045783 6.310742,-2.590914 8.860956,-4.65465 2.496912,-1.999262 4.431819,-4.366287 5.791789,-7.029031 1.359852,-2.662676 2.045357,-5.47805 2.040248,-8.396714 -0.0072,-4.062678 -1.236199,-7.866897 -3.702086,-11.289377 -2.466138,-3.422627 -5.83233,-6.043726 -9.974869,-7.779593 -4.211418,-1.785447 -9.702531,-2.598978 -16.514823,-2.586807 l -16.532201,0.02417 c -0.07107,3.95e-4 -0.138489,-0.0082 -0.207171,3.03e-4 z m 8.898154,8.225996 7.126664,-0.01042 c 3.330616,-0.0059 5.700107,0.09523 7.044164,0.279807 1.362489,0.187177 2.854705,0.582181 4.434981,1.192619 1.56625,0.596782 2.931614,1.327683 4.104845,2.237482 -8e-5,0.0095 -5.6e-5,0.02917 5e-5,0.03868 3.227673,2.470818 4.74922,5.440832 4.756204,9.373135 0.0071,4.02642 -1.463298,7.162711 -4.607379,9.792976 -0.967178,0.798314 -2.042682,1.475215 -3.22926,2.035463 -1.121501,0.522301 -2.58442,0.97246 -4.431715,1.360307 -1.742195,0.348503 -4.387131,0.54682 -7.83035,0.552979 l -7.333833,0.01072 -0.03437,-26.863756 z"
         id="path2242"
         style="font-style:normal;font-variant:normal;font-weight:normal;font-stretch:normal;font-size:64px;line-height:125%;font-family:'Gill Sans MT';text-align:start;writing-mode:lr-tb;text-anchor:start;fill:#eeeeec;fill-opacity:1;stroke:none" /><path
         d="m 89.367876,35.647667 a 5.9689121,5.4715028 0 1 1 -11.937824,0 5.9689121,5.4715028 0 1 1 11.937824,0 z"
         transform="matrix(1.950025,0,0,1.950025,-82.91788,-16.34322)"
         id="path2211"
         style="fill:#eeeeec;fill-opacity:1;fill-rule:nonzero;stroke:none" /><rect
         width="78.006226"
         height="57.749683"
         rx="6.5702238"
         ry="7.3061213"
         x="24.572311"
         y="31.981253"
         id="rect3372"
         style="fill:none;stroke:url(#linearGradient3462);stroke-width:1.34628;stroke-linecap:round;stroke-linejoin:round;stroke-miterlimit:4;stroke-dasharray:none;stroke-opacity:1" /><rect
         width="80.581573"
         height="60.167591"
         rx="7.6942425"
         ry="8.5425425"
         x="23.284639"
         y="30.772299"
         id="rect3464"
         style="fill:none;stroke:#323232;stroke-width:1.35585;stroke-linecap:round;stroke-linejoin:round;stroke-miterlimit:4;stroke-dasharray:none;stroke-opacity:1" /><path
         d="m 31.791339,87.728149 h 63.56817 c 2.892656,0 5.221401,-2.506561 5.221401,-5.620093 V 73.106911 C 77.875731,64.373285 45.003847,59.694557 26.569939,59.548435 v 22.559621 c 0,3.113532 2.328744,5.620093 5.2214,5.620093 z"
         id="rect3477"
         style="fill:url(#linearGradient2213);fill-opacity:1;fill-rule:nonzero;stroke:none" /><path
         d="m 89.367876,35.647667 a 5.9689121,5.4715028 0 1 1 -11.937824,0 5.9689121,5.4715028 0 1 1 11.937824,0 z"
         transform="matrix(0.626567,0,0,0.626567,40.72046,19.11002)"
         id="path2222"
         style="display:inline;fill:#eeeeec;fill-opacity:1;fill-rule:nonzero;stroke:none" /></g></g></svg>
