<?xml version="1.0" encoding="UTF-8" standalone="no"?>
<!-- Created with Inkscape (http://www.inkscape.org/) -->

<svg
   width="50mm"
   height="50mm"
   viewBox="0 0 50 50"
   version="1.1"
   id="svg1"
   xml:space="preserve"
   sodipodi:docname="Dart_Box.svg"
   inkscape:version="1.4.2 (f4327f4, 2025-05-13)"
   xmlns:inkscape="http://www.inkscape.org/namespaces/inkscape"
   xmlns:sodipodi="http://sodipodi.sourceforge.net/DTD/sodipodi-0.dtd"
   xmlns:xlink="http://www.w3.org/1999/xlink"
   xmlns="http://www.w3.org/2000/svg"
   xmlns:svg="http://www.w3.org/2000/svg"><sodipodi:namedview
     id="namedview25"
     pagecolor="#ffffff"
     bordercolor="#000000"
     borderopacity="0.25"
     inkscape:showpageshadow="2"
     inkscape:pageopacity="0.0"
     inkscape:pagecheckerboard="0"
     inkscape:deskcolor="#d1d1d1"
     inkscape:document-units="mm"
     showgrid="false"
     inkscape:zoom="4"
     inkscape:cx="38"
     inkscape:cy="122.625"
     inkscape:window-width="2560"
     inkscape:window-height="1369"
     inkscape:window-x="-8"
     inkscape:window-y="-8"
     inkscape:window-maximized="1"
     inkscape:current-layer="layer1" /><defs
     id="defs1"><linearGradient
       id="linearGradient15"><stop
         style="stop-color:#031b30;stop-opacity:1;"
         offset="0"
         id="stop15" /><stop
         style="stop-color:#033d6c;stop-opacity:1;"
         offset="0.99834436"
         id="stop16" /></linearGradient><radialGradient
       xlink:href="#linearGradient15"
       id="radialGradient16"
       cx="0.029947983"
       cy="0.029947981"
       fx="0.029947983"
       fy="0.029947981"
       r="25"
       gradientUnits="userSpaceOnUse"
       gradientTransform="matrix(2.0027952,0,0,2.0027952,-0.03003412,-0.03003169)" /><style
       id="style1">.cls-1{fill:#01579b;}.cls-2{fill:#40c4ff;}.cls-3{fill:#29b6f6;}.cls-4{fill:#fff;}.cls-4,.cls-5,.cls-6{opacity:0.2;isolation:isolate;}.cls-5{fill:#263238;}.cls-6{fill:url(#radial-gradient);}</style><radialGradient
       id="radial-gradient"
       cx="251.42"
       cy="631.96997"
       r="251.39999"
       gradientTransform="translate(0,-380.56)"
       gradientUnits="userSpaceOnUse"><stop
         offset="0"
         stop-color="#fff"
         stop-opacity="0.1"
         id="stop1-0" /><stop
         offset="1"
         stop-color="#fff"
         stop-opacity="0"
         id="stop2-6" /></radialGradient><linearGradient
       id="linearGradient15-7"><stop
         style="stop-color:#03589c;stop-opacity:0.49893391;"
         offset="0"
         id="stop15-5" /><stop
         style="stop-color:#41c4ff;stop-opacity:1;"
         offset="1"
         id="stop16-3" /></linearGradient><radialGradient
       xlink:href="#linearGradient15-7"
       id="radialGradient16-5"
       cx="25"
       cy="25"
       fx="25"
       fy="25"
       r="25"
       gradientUnits="userSpaceOnUse"
       gradientTransform="translate(-2.4265137e-6)" /><style
       id="style1-6">.cls-1{fill:#01579b;}.cls-2{fill:#40c4ff;}.cls-3{fill:#29b6f6;}.cls-4{fill:#fff;}.cls-4,.cls-5,.cls-6{opacity:0.2;isolation:isolate;}.cls-5{fill:#263238;}.cls-6{fill:url(#radial-gradient);}</style><radialGradient
       id="radial-gradient-2"
       cx="251.42"
       cy="631.96997"
       r="251.39999"
       gradientTransform="translate(0,-380.56)"
       gradientUnits="userSpaceOnUse"><stop
         offset="0"
         stop-color="#fff"
         stop-opacity="0.1"
         id="stop1-0-9" /><stop
         offset="1"
         stop-color="#fff"
         stop-opacity="0"
         id="stop2-6-1" /></radialGradient><radialGradient
       xlink:href="#linearGradient15-7"
       id="radialGradient16-59"
       cx="25"
       cy="25"
       fx="25"
       fy="25"
       r="25"
       gradientUnits="userSpaceOnUse"
       gradientTransform="translate(-2.4265137e-6)" /><style
       id="style1-2">.cls-1{fill:#01579b;}.cls-2{fill:#40c4ff;}.cls-3{fill:#29b6f6;}.cls-4{fill:#fff;}.cls-4,.cls-5,.cls-6{opacity:0.2;isolation:isolate;}.cls-5{fill:#263238;}.cls-6{fill:url(#radial-gradient);}</style><radialGradient
       id="radial-gradient-28"
       cx="251.42"
       cy="631.96997"
       r="251.39999"
       gradientTransform="translate(0,-380.56)"
       gradientUnits="userSpaceOnUse"><stop
         offset="0"
         stop-color="#fff"
         stop-opacity="0.1"
         id="stop1-0-97" /><stop
         offset="1"
         stop-color="#fff"
         stop-opacity="0"
         id="stop2-6-3" /></radialGradient></defs><g
     id="layer1"
     inkscape:label="Dart"><rect
       style="font-variation-settings:normal;vector-effect:none;fill:url(#radialGradient16);stroke:none;stroke-width:0.260698;stroke-linecap:butt;stroke-linejoin:miter;stroke-miterlimit:4;stroke-dasharray:none;stroke-dashoffset:0;stroke-opacity:1;-inkscape-stroke:none;stop-color:#000000"
       id="rect1-18"
       width="50"
       height="50"
       x="0"
       y="-4.4408921e-16"
       rx="7.1983109"
       ry="7.1983109" /><g
       id="g29"
       transform="matrix(0.07556625,0,0,0.07556625,5.9999999,5.9999999)"
       inkscape:label="Icon"><path
         class="cls-1"
         d="m 102.56,400.31 -86,-86 C 6.32,303.82 0,289 0,274.58 0,267.89 3.77,257.42 6.62,251.43 L 86,86 Z"
         id="path2" /><path
         class="cls-2"
         d="m 397,102.56 -86,-86 C 303.49,9 287.85,0 274.61,0 263.23,0 252.06,2.29 244.85,6.62 L 86.07,86 Z"
         id="path3" /><polygon
         class="cls-2"
         points="115.79,413.55 205.11,502.87 413.55,502.87 413.55,413.55 258.05,363.9 "
         id="polygon3" /><path
         class="cls-3"
         d="m 86,354 c 0,26.54 3.33,33.05 16.53,46.32 l 13.23,13.24 H 413.55 L 268,248.14 86,86 Z"
         id="path4" /><path
         class="cls-1"
         d="M 350.7,86 H 86 l 327.55,327.51 h 89.32 V 208.4 L 397,102.52 C 382.12,87.62 368.92,86 350.7,86 Z"
         id="path5" /><path
         class="cls-4"
         d="M 105.88,403.6 C 92.65,390.33 89.36,377.24 89.36,354 V 89.32 L 86.07,86 v 268 c 0,23.25 0,29.69 19.81,49.61 l 9.91,9.91 v 0 z"
         id="path6-1" /><polygon
         class="cls-5"
         points="499.58,410.22 410.26,410.22 413.55,413.55 502.87,413.55 502.87,208.4 499.58,205.11 "
         id="polygon6" /><path
         class="cls-4"
         d="M 397,102.56 C 380.61,86.14 367.19,86 347.41,86 H 86.07 l 3.29,3.29 h 258.05 c 9.87,0 34.79,-1.66 49.61,13.24 z"
         id="path7" /><path
         class="cls-6"
         d="M 499.58,205.11 397,102.56 311,16.56 C 303.49,9 287.85,0 274.61,0 263.23,0 252.06,2.29 244.85,6.62 L 86.07,86 6.65,251.43 C 3.81,257.46 0,267.92 0,274.58 c 0,14.45 6.36,29.2 16.52,39.7 L 95.83,393 a 92.42,92.42 0 0 0 6.73,7.32 l 3.29,3.29 9.9,9.91 86,86 3.29,3.29 h 208.4 v -89.3 h 89.32 V 208.4 Z"
         id="path8"
         style="fill:url(#radial-gradient)" /></g></g></svg>
