<?xml version="1.0" encoding="UTF-8" standalone="no"?>
<svg
   height="50"
   width="50"
   version="1.1"
   id="svg83"
   sodipodi:docname="DaVinci_Resolve_Box.svg"
   inkscape:export-filename="DaVinci_Resolve_Box.svg"
   inkscape:export-xdpi="96"
   inkscape:export-ydpi="96"
   inkscape:version="1.2.2 (b0a8486541, 2022-12-01)"
   xml:space="preserve"
   xmlns:inkscape="http://www.inkscape.org/namespaces/inkscape"
   xmlns:sodipodi="http://sodipodi.sourceforge.net/DTD/sodipodi-0.dtd"
   xmlns:xlink="http://www.w3.org/1999/xlink"
   xmlns="http://www.w3.org/2000/svg"
   xmlns:svg="http://www.w3.org/2000/svg"><defs
     id="defs87"><linearGradient
       inkscape:collect="always"
       xlink:href="#h"
       id="linearGradient942"
       x1="0.70347154"
       y1="25"
       x2="49.296528"
       y2="25"
       gradientUnits="userSpaceOnUse"
       gradientTransform="matrix(1.2896942,0,0,1.2896942,15.757645,15.761188)" /><clipPath
       clipPathUnits="userSpaceOnUse"
       id="clipPath1494"><path
         d="M 48,16.653838 C 31.632862,16.653838 16.664908,31.632874 16.664908,48 16.664908,64.367126 31.632862,79.339076 48,79.339076 64.367137,79.339076 79.335092,64.367126 79.335092,48 79.335092,31.632874 64.367137,16.653838 48,16.653838 Z m 0,4.262583 C 62.973134,20.916421 75.083578,33.026875 75.083578,48 75.083578,62.973124 62.973134,75.083578 48,75.083578 33.026865,75.083578 20.916422,62.973124 20.916422,48 20.916422,33.026875 33.026865,20.916421 48,20.916421 Z m 0,5.158777 c -4.97822,0 -9.027858,3.828114 -9.027858,8.531628 0,4.573258 4.2359,9.760911 8.199129,13.090901 0.239884,0.201194 0.53339,0.299754 0.828729,0.299754 0.29534,0 0.590137,-0.09978 0.828729,-0.302272 3.96323,-3.329992 8.19913,-8.515125 8.19913,-13.088383 0,-4.702224 -4.050928,-8.530337 -9.027859,-8.531628 z M 35.657225,48.010075 c -2.019617,0.05252 -3.897841,0.43773 -5.398077,1.294734 -1.920354,1.096238 -3.297385,2.907251 -3.884196,5.093284 -0.622923,2.321448 -0.26598,4.878208 0.979866,7.015232 1.72561,2.961136 4.809147,4.639876 7.904415,4.639876 1.409635,0 2.822495,-0.348017 4.110899,-1.083143 4.00579,-2.291788 6.406919,-8.561836 7.320022,-13.667736 0.110914,-0.617763 -0.239277,-1.228031 -0.831249,-1.44083 -3.072695,-1.104301 -6.835654,-1.93895 -10.20168,-1.851417 z m 24.688071,0 c -3.365764,-0.08753 -7.128181,0.747116 -10.201684,1.851417 -0.591969,0.212799 -0.94468,0.823067 -0.833767,1.44083 0.911814,5.1059 3.314232,11.378529 7.320022,13.667736 1.287115,0.735126 2.699975,1.083143 4.110901,1.083143 3.093976,0 6.177454,-1.67745 7.906934,-4.639876 1.245846,-2.137024 1.601497,-4.692494 0.979865,-7.015232 -0.58552,-2.187321 -1.966361,-3.995756 -3.886715,-5.093284 -1.500237,-0.857004 -3.3761,-1.242214 -5.395556,-1.294734 z"
         id="path1496"
         style="fill:url(#linearGradient1498);fill-opacity:1;stroke-width:1.28969"
         sodipodi:nodetypes="sssssssssscscscscscccscccsscccscccs" /></clipPath><linearGradient
       inkscape:collect="always"
       xlink:href="#h"
       id="linearGradient1498"
       gradientUnits="userSpaceOnUse"
       gradientTransform="matrix(1.2896942,0,0,1.2896942,15.757645,15.757645)"
       x1="0.70347154"
       y1="25"
       x2="49.296528"
       y2="25" /><linearGradient
       id="linearGradient1272"
       gradientUnits="userSpaceOnUse"
       x1="48"
       x2="48"
       y1="90"
       y2="5.9877172"><stop
         offset="0"
         stop-color="#ebebeb"
         id="stop2-3"
         style="stop-color:#585858;stop-opacity:1;" /><stop
         offset="1"
         stop-color="#fafafa"
         id="stop4-6"
         style="stop-color:#818181;stop-opacity:1;" /></linearGradient><clipPath
       clipPathUnits="userSpaceOnUse"
       id="clipPath1341"><path
         id="path1343"
         style="fill:url(#linearGradient1345);fill-opacity:1;stroke-width:1.28969"
         d="m 48,26.078742 c -4.97822,0 -9.027858,3.828113 -9.027858,8.531628 0,4.573255 4.2359,9.76091 8.199129,13.0909 0.239884,0.201192 0.53339,0.299754 0.828729,0.299754 0.29534,0 0.590137,-0.09978 0.828729,-0.302272 3.96323,-3.329992 8.19913,-8.515127 8.19913,-13.088382 0,-4.702225 -4.050928,-8.530338 -9.027859,-8.531628 z M 35.657225,48.013618 c -2.019617,0.05252 -3.897841,0.43773 -5.398077,1.294734 -1.920354,1.096238 -3.297385,2.907251 -3.884196,5.093284 -0.622923,2.321448 -0.26598,4.878208 0.979866,7.015232 1.72561,2.961136 4.809147,4.639876 7.904415,4.639876 1.409635,0 2.822495,-0.348017 4.110899,-1.083143 4.00579,-2.291787 6.406919,-8.561836 7.320022,-13.667736 0.110914,-0.617763 -0.239277,-1.228031 -0.831249,-1.440832 -3.072695,-1.104299 -6.835654,-1.938948 -10.20168,-1.851415 z m 24.688071,0 c -3.365764,-0.08753 -7.128181,0.747116 -10.201684,1.851415 -0.591969,0.212801 -0.94468,0.823069 -0.833767,1.440832 0.911814,5.1059 3.314232,11.378529 7.320022,13.667736 1.287115,0.735126 2.699975,1.083143 4.110901,1.083143 3.093976,0 6.177454,-1.67745 7.906934,-4.639876 1.245846,-2.137024 1.601497,-4.692494 0.979865,-7.015232 -0.58552,-2.187323 -1.966361,-3.995755 -3.886715,-5.093284 -1.500237,-0.857004 -3.3761,-1.242214 -5.395556,-1.294734 z M 20.542547,11.145 h 54.914905 c 5.206241,0 9.397547,4.191306 9.397547,9.397547 v 54.914905 c 0,5.206241 -4.191306,9.397547 -9.397547,9.397547 H 20.542547 c -5.206241,0 -9.397547,-4.191306 -9.397547,-9.397547 V 20.542547 c 0,-5.206241 4.191306,-9.397547 9.397547,-9.397547 z" /></clipPath><linearGradient
       inkscape:collect="always"
       xlink:href="#h"
       id="linearGradient1345"
       gradientUnits="userSpaceOnUse"
       gradientTransform="matrix(1.2896942,0,0,1.2896942,15.757645,15.761188)"
       x1="0.70347154"
       y1="25"
       x2="49.296528"
       y2="25" /><filter
       inkscape:collect="always"
       style="color-interpolation-filters:sRGB"
       id="filter1347"
       x="-0.025760687"
       y="-0.028364582"
       width="1.0515214"
       height="1.0567292"><feGaussianBlur
         inkscape:collect="always"
         stdDeviation="1.1344614"
         id="feGaussianBlur1349" /></filter></defs><sodipodi:namedview
     id="namedview85"
     pagecolor="#ffffff"
     bordercolor="#000000"
     borderopacity="0.25"
     inkscape:showpageshadow="2"
     inkscape:pageopacity="0.0"
     inkscape:pagecheckerboard="0"
     inkscape:deskcolor="#d1d1d1"
     showgrid="false"
     inkscape:zoom="16"
     inkscape:cx="18.0625"
     inkscape:cy="21.53125"
     inkscape:window-width="2560"
     inkscape:window-height="1369"
     inkscape:window-x="0"
     inkscape:window-y="0"
     inkscape:window-maximized="1"
     inkscape:current-layer="g79" /><linearGradient
     id="a"
     gradientUnits="userSpaceOnUse"
     x1="48"
     x2="48"
     y1="90"
     y2="5.9877172"><stop
       offset="0"
       stop-color="#ebebeb"
       id="stop2"
       style="stop-color:#585858;stop-opacity:1;" /><stop
       offset="1"
       stop-color="#fafafa"
       id="stop4"
       style="stop-color:#818181;stop-opacity:1;" /></linearGradient><linearGradient
     id="b"
     gradientTransform="matrix(1.0058652,0,0,0.994169,100,0)"
     gradientUnits="userSpaceOnUse"
     x1="45.447727"
     x2="45.447727"
     y1="92.539597"
     y2="7.0165401"><stop
       offset="0"
       id="stop7" /><stop
       offset="1"
       stop-opacity=".588235"
       id="stop9" /></linearGradient><linearGradient
     id="c"
     gradientTransform="matrix(1.0238095,0,0,1.0119048,-1.142857,-98.071429)"
     gradientUnits="userSpaceOnUse"
     x1="32.251034"
     x2="32.251034"
     xlink:href="#b"
     y1="6.1317081"
     y2="90.238609" /><linearGradient
     id="d"
     gradientTransform="translate(0,-97)"
     gradientUnits="userSpaceOnUse"
     x1="32.251034"
     x2="32.251034"
     xlink:href="#b"
     y1="6.1317081"
     y2="90.238609" /><linearGradient
     id="e"><stop
       offset="0"
       stop-color="#fff"
       id="stop14" /><stop
       offset="1"
       stop-color="#fff"
       stop-opacity="0"
       id="stop16" /></linearGradient><radialGradient
     id="f"
     cx="48"
     cy="90.171875"
     gradientTransform="matrix(1.1573129,0,0,0.99590774,-7.551021,0.197132)"
     gradientUnits="userSpaceOnUse"
     r="42"
     xlink:href="#e" /><linearGradient
     id="g"
     gradientUnits="userSpaceOnUse"
     x1="36.357143"
     x2="36.357143"
     xlink:href="#e"
     y1="6"
     y2="63.893143"
     gradientTransform="matrix(0.91995739,0,0,0.98668795,0.48025569,1.1935087)" /><linearGradient
     id="h"
     gradientTransform="rotate(-90,48.000087,47.999896)"
     gradientUnits="userSpaceOnUse"
     x1="18.000002"
     x2="78.000175"
     y1="47.999897"
     y2="47.999897"><stop
       offset="0"
       stop-color="#bababa"
       id="stop21"
       style="stop-color:#818181;stop-opacity:1;" /><stop
       offset="1"
       stop-color="#d2d2d2"
       id="stop23"
       style="stop-color:#a7a7a7;stop-opacity:1;" /></linearGradient><clipPath
     id="i"><path
       d="m -88,6 c -3.324,0 -6,2.676 -6,6 v 72 c 0,3.324 2.676,6 6,6 h 72 c 3.324,0 6,-2.676 6,-6 V 12 c 0,-3.324 -2.676,-6 -6,-6 z m 31.84375,12 h 8.3125 c 1.180648,0 2.125,0.986683 2.125,2.1875 v 4.21875 c 2.111082,0.562476 4.123141,1.426616 5.96875,2.5 l 3,-3.03125 c 0.849111,-0.849025 2.196406,-0.866085 3.03125,-0.03125 l 5.875,5.875 c 0.834848,0.834847 0.817863,2.18214 -0.03125,3.03125 l -3.03125,3 c 1.073391,1.845617 1.937528,3.857672 2.5,5.96875 h 4.21875 c 1.200827,0 2.1875,0.944356 2.1875,2.125 v 8.3125 c 0,1.180653 -0.986672,2.125 -2.1875,2.125 h -4.21875 c -0.562472,2.111079 -1.426609,4.123134 -2.5,5.96875 l 3.03125,3 c 0.849106,0.849111 0.866094,2.196416 0.03125,3.03125 l -5.875,5.875 c -0.834844,0.834921 -2.182138,0.81786 -3.03125,-0.03125 l -3,-3.03125 c -1.84561,1.073389 -3.857669,1.937515 -5.96875,2.5 v 4.21875 c 0,1.200828 -0.944354,2.1875 -2.125,2.1875 h -8.3125 c -1.180646,0 -2.125,-0.986673 -2.125,-2.1875 v -4.21875 c -2.111081,-0.562485 -4.123141,-1.426613 -5.96875,-2.5 l -3,3.03125 c -0.849114,0.849022 -2.196407,0.866084 -3.03125,0.03125 l -5.875,-5.875 c -0.417421,-0.417418 -0.6298,-0.981833 -0.625,-1.53125 0.0047,-0.549422 0.231693,-1.075441 0.65625,-1.5 l 3.03125,-3 c -1.073391,-1.845614 -1.937528,-3.857673 -2.5,-5.96875 h -4.21875 c -1.200828,0 -2.1875,-0.944347 -2.1875,-2.125 v -8.3125 c 0,-1.180643 0.986672,-2.125 2.1875,-2.125 h 4.21875 c 0.562472,-2.111076 1.426609,-4.123135 2.5,-5.96875 l -3.03125,-3 c -0.849107,-0.84911 -0.866093,-2.196403 -0.03125,-3.03125 l 5.875,-5.875 c 0.834843,-0.834932 2.182137,-0.817858 3.03125,0.03125 l 3,3.03125 c 1.845609,-1.073383 3.85767,-1.937533 5.96875,-2.5 V 20.1875 c 0,-1.200817 0.944355,-2.1875 2.125,-2.1875 z M -52,38.9375 c -5.006511,0 -9.0625,4.055982 -9.0625,9.0625 0,5.006505 4.055989,9.0625 9.0625,9.0625 5.00651,0 9.0625,-4.055995 9.0625,-9.0625 0,-5.00652 -4.05599,-9.0625 -9.0625,-9.0625 z"
       id="path26" /></clipPath><filter
     id="j"
     color-interpolation-filters="sRGB"
     height="1.3213328"
     width="1.3213336"
     x="-0.16066687"
     y="-0.16066641"><feGaussianBlur
       stdDeviation="3.6000051"
       id="feGaussianBlur29" /></filter><clipPath
     id="k"><rect
       height="84"
       rx="6"
       width="84"
       x="6"
       y="6"
       id="rect32" /></clipPath><filter
     id="l"
     color-interpolation-filters="sRGB"
     height="1.3915758"
     width="1.3915758"
     x="-0.19578789"
     y="-0.19578789"><feGaussianBlur
       stdDeviation="5.28"
       id="feGaussianBlur35" /></filter><linearGradient
     id="m"
     gradientUnits="userSpaceOnUse"
     x1="48"
     x2="48"
     xlink:href="#e"
     y1="20.220806"
     y2="138.66119" /><g
     id="g79"
     transform="matrix(0.5952381,0,0,0.5952381,-3.5714286,-3.5714286)"><rect
       fill="url(#a)"
       height="84"
       rx="10.709455"
       width="84"
       x="6"
       y="6"
       id="rect53"
       style="fill:url(#a)"
       ry="10.709455" /><path
       id="path1486"
       style="fill:url(#linearGradient942);fill-opacity:1;stroke-width:1.28969"
       d="m 48,26.078741 c -4.97822,0 -9.027859,3.828114 -9.027859,8.531629 0,4.573256 4.2359,9.76091 8.19913,13.090901 0.239883,0.201192 0.533389,0.299753 0.828729,0.299753 0.29534,0 0.590136,-0.09978 0.828729,-0.302272 3.96323,-3.329991 8.19913,-8.515126 8.19913,-13.088382 0,-4.702225 -4.050929,-8.530339 -9.027859,-8.531629 z M 35.657224,48.013618 c -2.019616,0.05252 -3.897839,0.437731 -5.398076,1.294733 -1.920355,1.09624 -3.297385,2.907252 -3.884196,5.093285 -0.622923,2.321448 -0.26598,4.878207 0.979865,7.015231 1.72561,2.961137 4.809149,4.639876 7.904415,4.639876 1.409636,0 2.822496,-0.348017 4.1109,-1.083142 4.005791,-2.291787 6.406919,-8.561836 7.320022,-13.667736 0.110914,-0.617763 -0.239278,-1.228031 -0.831248,-1.440831 -3.072696,-1.1043 -6.835656,-1.938949 -10.201682,-1.851416 z m 24.688072,0 c -3.365763,-0.08753 -7.128181,0.747116 -10.201684,1.851416 -0.591969,0.2128 -0.94468,0.823068 -0.833766,1.440831 0.911813,5.1059 3.314231,11.378529 7.320022,13.667736 1.287114,0.735125 2.699974,1.083142 4.1109,1.083142 3.093976,0 6.177454,-1.677449 7.906934,-4.639876 1.245845,-2.137024 1.601497,-4.692493 0.979865,-7.015231 -0.585521,-2.187322 -1.966361,-3.995755 -3.886715,-5.093285 -1.500237,-0.857002 -3.3761,-1.242213 -5.395556,-1.294733 z M 20.542547,11.145 h 54.914906 c 5.206241,0 9.397547,4.191306 9.397547,9.397547 v 54.914906 c 0,5.206241 -4.191306,9.397547 -9.397547,9.397547 H 20.542547 C 15.336306,84.855 11.145,80.663694 11.145,75.457453 V 20.542547 c 0,-5.206241 4.191306,-9.397547 9.397547,-9.397547 z" /><path
       id="rect1308"
       style="opacity:1;fill:#000000;fill-opacity:1;stroke:none;stroke-width:2.688;stroke-dasharray:none;stroke-opacity:1;stop-color:#000000;filter:url(#filter1347)"
       d="m 6.6201562,0.68736774 c -5.2062357,0 -9.3974999,4.19126426 -9.3974999,9.39749926 v 77.194688 c 0,5.206236 4.1912642,9.3975 9.3974999,9.3975 H 93.517499 c 5.206236,0 9.397501,-4.191264 9.397501,-9.3975 V 10.084867 c 0,-5.206235 -4.191265,-9.39749926 -9.397501,-9.39749926 z M 20.5425,12.992056 h 54.914999 c 5.206236,0 9.3975,4.191264 9.3975,9.3975 v 54.914999 c 0,5.206236 -4.191264,9.3975 -9.3975,9.3975 H 20.5425 c -5.206236,0 -9.3975,-4.191264 -9.3975,-9.3975 V 22.389556 c 0,-5.206236 4.191264,-9.3975 9.3975,-9.3975 z M 48,27.925025 c -4.978215,0 -9.026719,3.827739 -9.026719,8.53125 0,4.573251 4.233336,9.762199 8.196562,13.092187 0.239883,0.201192 0.534817,0.298594 0.830157,0.298594 0.295339,0 0.591563,-0.09938 0.830156,-0.301875 3.963226,-3.329988 8.196562,-8.515655 8.196562,-13.088906 0,-4.702221 -4.049793,-8.52996 -9.026718,-8.53125 z M 35.655937,49.860181 c -2.019614,0.05252 -3.89742,0.439092 -5.397656,1.296093 -1.920353,1.096239 -3.294908,2.90647 -3.881719,5.0925 -0.622922,2.321446 -0.268031,4.878291 0.977813,7.015313 1.725608,2.961134 4.809268,4.639687 7.904531,4.639687 1.409635,0 2.823004,-0.347688 4.111406,-1.082812 4.005787,-2.291785 6.407367,-8.560511 7.320469,-13.666406 0.110914,-0.617763 -0.241468,-1.230951 -0.833438,-1.44375 -3.072692,-1.104299 -6.835383,-1.938158 -10.201406,-1.850625 z m 24.688125,0 c -3.36576,-0.08753 -7.127906,0.746326 -10.201406,1.850625 -0.591969,0.212799 -0.944351,0.825987 -0.833438,1.44375 0.911812,5.105895 3.314682,11.377201 7.320469,13.666406 1.287113,0.735124 2.700482,1.082812 4.111406,1.082812 3.093973,0 6.178334,-1.677263 7.907813,-4.639687 1.245844,-2.137022 1.599444,-4.692577 0.977812,-7.015313 -0.58552,-2.187319 -1.964648,-3.994971 -3.885,-5.0925 -1.500235,-0.857001 -3.378202,-1.243573 -5.397656,-1.296093 z"
       clip-path="url(#clipPath1341)" /></g></svg>
