<?xml version="1.0" encoding="UTF-8" standalone="no"?>
<svg
   height="50"
   width="50"
   version="1.1"
   id="svg83"
   sodipodi:docname="DaVinci_Resolve_Box.svg"
   inkscape:export-filename="DaVinci_Resolve_Box.svg"
   inkscape:export-xdpi="96"
   inkscape:export-ydpi="96"
   inkscape:version="1.2.2 (b0a8486541, 2022-12-01)"
   xml:space="preserve"
   xmlns:inkscape="http://www.inkscape.org/namespaces/inkscape"
   xmlns:sodipodi="http://sodipodi.sourceforge.net/DTD/sodipodi-0.dtd"
   xmlns:xlink="http://www.w3.org/1999/xlink"
   xmlns="http://www.w3.org/2000/svg"
   xmlns:svg="http://www.w3.org/2000/svg"><defs
     id="defs87"><linearGradient
       inkscape:collect="always"
       xlink:href="#h"
       id="linearGradient942"
       x1="0.70347154"
       y1="25"
       x2="49.296528"
       y2="25"
       gradientUnits="userSpaceOnUse"
       gradientTransform="matrix(1.2896942,0,0,1.2896942,15.757645,15.761188)" /><clipPath
       clipPathUnits="userSpaceOnUse"
       id="clipPath1494"><path
         d="M 48,16.653838 C 31.632862,16.653838 16.664908,31.632874 16.664908,48 16.664908,64.367126 31.632862,79.339076 48,79.339076 64.367137,79.339076 79.335092,64.367126 79.335092,48 79.335092,31.632874 64.367137,16.653838 48,16.653838 Z m 0,4.262583 C 62.973134,20.916421 75.083578,33.026875 75.083578,48 75.083578,62.973124 62.973134,75.083578 48,75.083578 33.026865,75.083578 20.916422,62.973124 20.916422,48 20.916422,33.026875 33.026865,20.916421 48,20.916421 Z m 0,5.158777 c -4.97822,0 -9.027858,3.828114 -9.027858,8.531628 0,4.573258 4.2359,9.760911 8.199129,13.090901 0.239884,0.201194 0.53339,0.299754 0.828729,0.299754 0.29534,0 0.590137,-0.09978 0.828729,-0.302272 3.96323,-3.329992 8.19913,-8.515125 8.19913,-13.088383 0,-4.702224 -4.050928,-8.530337 -9.027859,-8.531628 z M 35.657225,48.010075 c -2.019617,0.05252 -3.897841,0.43773 -5.398077,1.294734 -1.920354,1.096238 -3.297385,2.907251 -3.884196,5.093284 -0.622923,2.321448 -0.26598,4.878208 0.979866,7.015232 1.72561,2.961136 4.809147,4.639876 7.904415,4.639876 1.409635,0 2.822495,-0.348017 4.110899,-1.083143 4.00579,-2.291788 6.406919,-8.561836 7.320022,-13.667736 0.110914,-0.617763 -0.239277,-1.228031 -0.831249,-1.44083 -3.072695,-1.104301 -6.835654,-1.93895 -10.20168,-1.851417 z m 24.688071,0 c -3.365764,-0.08753 -7.128181,0.747116 -10.201684,1.851417 -0.591969,0.212799 -0.94468,0.823067 -0.833767,1.44083 0.911814,5.1059 3.314232,11.378529 7.320022,13.667736 1.287115,0.735126 2.699975,1.083143 4.110901,1.083143 3.093976,0 6.177454,-1.67745 7.906934,-4.639876 1.245846,-2.137024 1.601497,-4.692494 0.979865,-7.015232 -0.58552,-2.187321 -1.966361,-3.995756 -3.886715,-5.093284 -1.500237,-0.857004 -3.3761,-1.242214 -5.395556,-1.294734 z"
         id="path1496"
         style="fill:url(#linearGradient1498);fill-opacity:1;stroke-width:1.28969"
         sodipodi:nodetypes="sssssssssscscscscscccscccsscccscccs" /></clipPath><linearGradient
       inkscape:collect="always"
       xlink:href="#h"
       id="linearGradient1498"
       gradientUnits="userSpaceOnUse"
       gradientTransform="matrix(1.2896942,0,0,1.2896942,15.757645,15.757645)"
       x1="0.70347154"
       y1="25"
       x2="49.296528"
       y2="25" /><linearGradient
       id="linearGradient1272"
       gradientUnits="userSpaceOnUse"
       x1="48"
       x2="48"
       y1="90"
       y2="5.9877172"><stop
         offset="0"
         stop-color="#ebebeb"
         id="stop2-3"
         style="stop-color:#585858;stop-opacity:1;" /><stop
         offset="1"
         stop-color="#fafafa"
         id="stop4-6"
         style="stop-color:#818181;stop-opacity:1;" /></linearGradient><clipPath
       clipPathUnits="userSpaceOnUse"
       id="clipPath1341"><path
         id="path1343"
         style="fill:url(#linearGradient1345);fill-opacity:1;stroke-width:1.28969"
         d="m 48,26.078742 c -4.97822,0 -9.027858,3.828113 -9.027858,8.531628 0,4.573255 4.2359,9.76091 8.199129,13.0909 0.239884,0.201192 0.53339,0.299754 0.828729,0.299754 0.29534,0 0.590137,-0.09978 0.828729,-0.302272 3.96323,-3.329992 8.19913,-8.515127 8.19913,-13.088382 0,-4.702225 -4.050928,-8.530338 -9.027859,-8.531628 z M 35.657225,48.013618 c -2.019617,0.05252 -3.897841,0.43773 -5.398077,1.294734 -1.920354,1.096238 -3.297385,2.907251 -3.884196,5.093284 -0.622923,2.321448 -0.26598,4.878208 0.979866,7.015232 1.72561,2.961136 4.809147,4.639876 7.904415,4.639876 1.409635,0 2.822495,-0.348017 4.110899,-1.083143 4.00579,-2.291787 6.406919,-8.561836 7.320022,-13.667736 0.110914,-0.617763 -0.239277,-1.228031 -0.831249,-1.440832 -3.072695,-1.104299 -6.835654,-1.938948 -10.20168,-1.851415 z m 24.688071,0 c -3.365764,-0.08753 -7.128181,0.747116 -10.201684,1.851415 -0.591969,0.212801 -0.94468,0.823069 -0.833767,1.440832 0.911814,5.1059 3.314232,11.378529 7.320022,13.667736 1.287115,0.735126 2.699975,1.083143 4.110901,1.083143 3.093976,0 6.177454,-1.67745 7.906934,-4.639876 1.245846,-2.137024 1.601497,-4.692494 0.979865,-7.015232 -0.58552,-2.187323 -1.966361,-3.995755 -3.886715,-5.093284 -1.500237,-0.857004 -3.3761,-1.242214 -5.395556,-1.294734 z M 20.542547,11.145 h 54.914905 c 5.206241,0 9.397547,4.191306 9.397547,9.397547 v 54.914905 c 0,5.206241 -4.191306,9.397547 -9.397547,9.397547 H 20.542547 c -5.206241,0 -9.397547,-4.191306 -9.397547,-9.397547 V 20.542547 c 0,-5.206241 4.191306,-9.397547 9.397547,-9.397547 z" /></clipPath><linearGradient
       inkscape:collect="always"
       xlink:href="#h"
       id="linearGradient1345"
       gradientUnits="userSpaceOnUse"
       gradientTransform="matrix(1.2896942,0,0,1.2896942,15.757645,15.761188)"
       x1="0.70347154"
       y1="25"
       x2="49.296528"
       y2="25" /><clipPath
       clipPathUnits="userSpaceOnUse"
       id="clipPath1129"><path
         id="path1131"
         style="fill:url(#linearGradient1133);fill-opacity:1;stroke-width:1.29024;stroke-dasharray:none"
         d="m 48,26.078742 c -4.97822,0 -9.027858,3.828113 -9.027858,8.531628 0,4.573255 4.2359,9.76091 8.199129,13.0909 0.239884,0.201192 0.53339,0.299754 0.828729,0.299754 0.29534,0 0.590137,-0.09978 0.828729,-0.302272 3.96323,-3.329992 8.19913,-8.515127 8.19913,-13.088382 0,-4.702225 -4.050928,-8.530338 -9.027859,-8.531628 z M 35.657225,48.013618 c -2.019617,0.05252 -3.897841,0.43773 -5.398077,1.294734 -1.920354,1.096238 -3.297385,2.907251 -3.884196,5.093284 -0.622923,2.321448 -0.26598,4.878208 0.979866,7.015232 1.72561,2.961136 4.809147,4.639876 7.904415,4.639876 1.409635,0 2.822495,-0.348017 4.110899,-1.083143 4.00579,-2.291787 6.406919,-8.561836 7.320022,-13.667736 0.110914,-0.617763 -0.239277,-1.228031 -0.831249,-1.440832 -3.072695,-1.104299 -6.835654,-1.938948 -10.20168,-1.851415 z m 24.688071,0 c -3.365764,-0.08753 -7.128181,0.747116 -10.201684,1.851415 -0.591969,0.212801 -0.94468,0.823069 -0.833767,1.440832 0.911814,5.1059 3.314232,11.378529 7.320022,13.667736 1.287115,0.735126 2.699975,1.083143 4.110901,1.083143 3.093976,0 6.177454,-1.67745 7.906934,-4.639876 1.245846,-2.137024 1.601497,-4.692494 0.979865,-7.015232 -0.58552,-2.187323 -1.966361,-3.995755 -3.886715,-5.093284 -1.500237,-0.857004 -3.3761,-1.242214 -5.395556,-1.294734 z M 16.652344,89.999999 C 10.78052,89.999999 6,85.21948 6,79.347655 V 16.652344 C 6,10.78052 10.78052,6 16.652344,6 h 62.695311 c 5.871825,0 10.652344,4.78052 10.652344,10.652344 v 62.695311 c 0,5.871825 -4.780519,10.652344 -10.652344,10.652344 z m 0,-3.369141 h 62.695311 c 4.063477,0 7.283203,-3.219726 7.283203,-7.283203 V 16.652344 c 0,-4.063475 -3.219726,-7.2832035 -7.283203,-7.2832035 H 16.652344 c -4.063475,0 -7.2832035,3.2197285 -7.2832035,7.2832035 v 62.695311 c 0,4.063477 3.2197285,7.283203 7.2832035,7.283203 z" /></clipPath><linearGradient
       inkscape:collect="always"
       xlink:href="#h"
       id="linearGradient1133"
       gradientUnits="userSpaceOnUse"
       gradientTransform="matrix(1.2896942,0,0,1.2896942,15.757645,15.761188)"
       x1="0.70347154"
       y1="25"
       x2="49.296528"
       y2="25" /><clipPath
       clipPathUnits="userSpaceOnUse"
       id="clipPath1112"><path
         id="path1114"
         style="fill:url(#linearGradient1116);fill-opacity:1;stroke-width:1.29024;stroke-dasharray:none"
         d="m 48,26.078742 c -4.97822,0 -9.027858,3.828113 -9.027858,8.531628 0,4.573255 4.2359,9.76091 8.199129,13.0909 0.239884,0.201192 0.53339,0.299754 0.828729,0.299754 0.29534,0 0.590137,-0.09978 0.828729,-0.302272 3.96323,-3.329992 8.19913,-8.515127 8.19913,-13.088382 0,-4.702225 -4.050928,-8.530338 -9.027859,-8.531628 z M 35.657225,48.013618 c -2.019617,0.05252 -3.897841,0.43773 -5.398077,1.294734 -1.920354,1.096238 -3.297385,2.907251 -3.884196,5.093284 -0.622923,2.321448 -0.26598,4.878208 0.979866,7.015232 1.72561,2.961136 4.809147,4.639876 7.904415,4.639876 1.409635,0 2.822495,-0.348017 4.110899,-1.083143 4.00579,-2.291787 6.406919,-8.561836 7.320022,-13.667736 0.110914,-0.617763 -0.239277,-1.228031 -0.831249,-1.440832 -3.072695,-1.104299 -6.835654,-1.938948 -10.20168,-1.851415 z m 24.688071,0 c -3.365764,-0.08753 -7.128181,0.747116 -10.201684,1.851415 -0.591969,0.212801 -0.94468,0.823069 -0.833767,1.440832 0.911814,5.1059 3.314232,11.378529 7.320022,13.667736 1.287115,0.735126 2.699975,1.083143 4.110901,1.083143 3.093976,0 6.177454,-1.67745 7.906934,-4.639876 1.245846,-2.137024 1.601497,-4.692494 0.979865,-7.015232 -0.58552,-2.187323 -1.966361,-3.995755 -3.886715,-5.093284 -1.500237,-0.857004 -3.3761,-1.242214 -5.395556,-1.294734 z M 16.630859,89.999999 C 10.792118,89.999999 6,85.207882 6,79.369141 V 16.630859 C 6,10.792118 10.792118,6 16.630859,6 h 62.738282 c 5.838741,0 10.630858,4.792118 10.630858,10.630859 v 62.738282 c 0,5.838741 -4.792117,10.630858 -10.630858,10.630858 z m 0,-5.880858 h 62.738282 c 2.682824,0 4.75,-2.067176 4.75,-4.75 V 16.630859 c 0,-2.682824 -2.067176,-4.75 -4.75,-4.75 H 16.630859 c -2.682824,0 -4.75,2.067176 -4.75,4.75 v 62.738282 c 0,2.682824 2.067176,4.75 4.75,4.75 z" /></clipPath><linearGradient
       inkscape:collect="always"
       xlink:href="#h"
       id="linearGradient1116"
       gradientUnits="userSpaceOnUse"
       gradientTransform="matrix(1.2896942,0,0,1.2896942,15.757645,15.761188)"
       x1="0.70347154"
       y1="25"
       x2="49.296528"
       y2="25" /><filter
       inkscape:collect="always"
       style="color-interpolation-filters:sRGB"
       id="filter1118"
       x="-0.036536337"
       y="-0.036536337"
       width="1.0730727"
       height="1.0730727"><feGaussianBlur
         inkscape:collect="always"
         stdDeviation="1.0997437"
         id="feGaussianBlur1120" /></filter></defs><sodipodi:namedview
     id="namedview85"
     pagecolor="#ffffff"
     bordercolor="#000000"
     borderopacity="0.25"
     inkscape:showpageshadow="2"
     inkscape:pageopacity="0.0"
     inkscape:pagecheckerboard="0"
     inkscape:deskcolor="#d1d1d1"
     showgrid="false"
     inkscape:zoom="11.313709"
     inkscape:cx="13.965358"
     inkscape:cy="14.981824"
     inkscape:window-width="2560"
     inkscape:window-height="1369"
     inkscape:window-x="0"
     inkscape:window-y="0"
     inkscape:window-maximized="1"
     inkscape:current-layer="g79" /><linearGradient
     id="a"
     gradientUnits="userSpaceOnUse"
     x1="48"
     x2="48"
     y1="90"
     y2="5.9877172"><stop
       offset="0"
       stop-color="#ebebeb"
       id="stop2"
       style="stop-color:#585858;stop-opacity:1;" /><stop
       offset="1"
       stop-color="#fafafa"
       id="stop4"
       style="stop-color:#818181;stop-opacity:1;" /></linearGradient><linearGradient
     id="b"
     gradientTransform="matrix(1.0058652,0,0,0.994169,100,0)"
     gradientUnits="userSpaceOnUse"
     x1="45.447727"
     x2="45.447727"
     y1="92.539597"
     y2="7.0165401"><stop
       offset="0"
       id="stop7" /><stop
       offset="1"
       stop-opacity=".588235"
       id="stop9" /></linearGradient><linearGradient
     id="c"
     gradientTransform="matrix(1.0238095,0,0,1.0119048,-1.142857,-98.071429)"
     gradientUnits="userSpaceOnUse"
     x1="32.251034"
     x2="32.251034"
     xlink:href="#b"
     y1="6.1317081"
     y2="90.238609" /><linearGradient
     id="d"
     gradientTransform="translate(0,-97)"
     gradientUnits="userSpaceOnUse"
     x1="32.251034"
     x2="32.251034"
     xlink:href="#b"
     y1="6.1317081"
     y2="90.238609" /><linearGradient
     id="e"><stop
       offset="0"
       stop-color="#fff"
       id="stop14" /><stop
       offset="1"
       stop-color="#fff"
       stop-opacity="0"
       id="stop16" /></linearGradient><radialGradient
     id="f"
     cx="48"
     cy="90.171875"
     gradientTransform="matrix(1.1573129,0,0,0.99590774,-7.551021,0.197132)"
     gradientUnits="userSpaceOnUse"
     r="42"
     xlink:href="#e" /><linearGradient
     id="g"
     gradientUnits="userSpaceOnUse"
     x1="36.357143"
     x2="36.357143"
     xlink:href="#e"
     y1="6"
     y2="63.893143"
     gradientTransform="matrix(0.91995739,0,0,0.98668795,0.48025569,1.1935087)" /><linearGradient
     id="h"
     gradientTransform="rotate(-90,48.000087,47.999896)"
     gradientUnits="userSpaceOnUse"
     x1="18.000002"
     x2="78.000175"
     y1="47.999897"
     y2="47.999897"><stop
       offset="0"
       stop-color="#bababa"
       id="stop21"
       style="stop-color:#818181;stop-opacity:1;" /><stop
       offset="1"
       stop-color="#d2d2d2"
       id="stop23"
       style="stop-color:#a7a7a7;stop-opacity:1;" /></linearGradient><clipPath
     id="i"><path
       d="m -88,6 c -3.324,0 -6,2.676 -6,6 v 72 c 0,3.324 2.676,6 6,6 h 72 c 3.324,0 6,-2.676 6,-6 V 12 c 0,-3.324 -2.676,-6 -6,-6 z m 31.84375,12 h 8.3125 c 1.180648,0 2.125,0.986683 2.125,2.1875 v 4.21875 c 2.111082,0.562476 4.123141,1.426616 5.96875,2.5 l 3,-3.03125 c 0.849111,-0.849025 2.196406,-0.866085 3.03125,-0.03125 l 5.875,5.875 c 0.834848,0.834847 0.817863,2.18214 -0.03125,3.03125 l -3.03125,3 c 1.073391,1.845617 1.937528,3.857672 2.5,5.96875 h 4.21875 c 1.200827,0 2.1875,0.944356 2.1875,2.125 v 8.3125 c 0,1.180653 -0.986672,2.125 -2.1875,2.125 h -4.21875 c -0.562472,2.111079 -1.426609,4.123134 -2.5,5.96875 l 3.03125,3 c 0.849106,0.849111 0.866094,2.196416 0.03125,3.03125 l -5.875,5.875 c -0.834844,0.834921 -2.182138,0.81786 -3.03125,-0.03125 l -3,-3.03125 c -1.84561,1.073389 -3.857669,1.937515 -5.96875,2.5 v 4.21875 c 0,1.200828 -0.944354,2.1875 -2.125,2.1875 h -8.3125 c -1.180646,0 -2.125,-0.986673 -2.125,-2.1875 v -4.21875 c -2.111081,-0.562485 -4.123141,-1.426613 -5.96875,-2.5 l -3,3.03125 c -0.849114,0.849022 -2.196407,0.866084 -3.03125,0.03125 l -5.875,-5.875 c -0.417421,-0.417418 -0.6298,-0.981833 -0.625,-1.53125 0.0047,-0.549422 0.231693,-1.075441 0.65625,-1.5 l 3.03125,-3 c -1.073391,-1.845614 -1.937528,-3.857673 -2.5,-5.96875 h -4.21875 c -1.200828,0 -2.1875,-0.944347 -2.1875,-2.125 v -8.3125 c 0,-1.180643 0.986672,-2.125 2.1875,-2.125 h 4.21875 c 0.562472,-2.111076 1.426609,-4.123135 2.5,-5.96875 l -3.03125,-3 c -0.849107,-0.84911 -0.866093,-2.196403 -0.03125,-3.03125 l 5.875,-5.875 c 0.834843,-0.834932 2.182137,-0.817858 3.03125,0.03125 l 3,3.03125 c 1.845609,-1.073383 3.85767,-1.937533 5.96875,-2.5 V 20.1875 c 0,-1.200817 0.944355,-2.1875 2.125,-2.1875 z M -52,38.9375 c -5.006511,0 -9.0625,4.055982 -9.0625,9.0625 0,5.006505 4.055989,9.0625 9.0625,9.0625 5.00651,0 9.0625,-4.055995 9.0625,-9.0625 0,-5.00652 -4.05599,-9.0625 -9.0625,-9.0625 z"
       id="path26" /></clipPath><filter
     id="j"
     color-interpolation-filters="sRGB"
     height="1.3213328"
     width="1.3213336"
     x="-0.16066687"
     y="-0.16066641"><feGaussianBlur
       stdDeviation="3.6000051"
       id="feGaussianBlur29" /></filter><clipPath
     id="k"><rect
       height="84"
       rx="6"
       width="84"
       x="6"
       y="6"
       id="rect32" /></clipPath><filter
     id="l"
     color-interpolation-filters="sRGB"
     height="1.3915758"
     width="1.3915758"
     x="-0.19578789"
     y="-0.19578789"><feGaussianBlur
       stdDeviation="5.28"
       id="feGaussianBlur35" /></filter><linearGradient
     id="m"
     gradientUnits="userSpaceOnUse"
     x1="48"
     x2="48"
     xlink:href="#e"
     y1="20.220806"
     y2="138.66119" /><g
     id="g79"
     transform="matrix(0.5952381,0,0,0.5952381,-3.5714286,-3.5714286)"><rect
       fill="url(#a)"
       height="84"
       rx="10.709455"
       width="84"
       x="6"
       y="6"
       id="rect53"
       style="fill:url(#a)"
       ry="10.709455" /><path
       id="path1070"
       style="fill:url(#linearGradient942);fill-opacity:1;stroke-width:1.29024;stroke-dasharray:none"
       d="m 48,26.078741 c -4.97822,0 -9.027859,3.828114 -9.027859,8.531629 0,4.573256 4.2359,9.76091 8.19913,13.090901 0.239883,0.201192 0.533389,0.299753 0.828729,0.299753 0.29534,0 0.590136,-0.09978 0.828729,-0.302272 3.96323,-3.329991 8.19913,-8.515126 8.19913,-13.088382 0,-4.702225 -4.050929,-8.530339 -9.027859,-8.531629 z M 35.657224,48.013618 c -2.019616,0.05252 -3.897839,0.437731 -5.398076,1.294733 -1.920355,1.09624 -3.297385,2.907252 -3.884196,5.093285 -0.622923,2.321448 -0.26598,4.878207 0.979865,7.015231 1.72561,2.961137 4.809149,4.639876 7.904415,4.639876 1.409636,0 2.822496,-0.348017 4.1109,-1.083142 4.005791,-2.291787 6.406919,-8.561836 7.320022,-13.667736 0.110914,-0.617763 -0.239278,-1.228031 -0.831248,-1.440831 -3.072696,-1.1043 -6.835656,-1.938949 -10.201682,-1.851416 z m 24.688072,0 c -3.365763,-0.08753 -7.128181,0.747116 -10.201684,1.851416 -0.591969,0.2128 -0.94468,0.823068 -0.833766,1.440831 0.911813,5.1059 3.314231,11.378529 7.320022,13.667736 1.287114,0.735125 2.699974,1.083142 4.1109,1.083142 3.093976,0 6.177454,-1.677449 7.906934,-4.639876 1.245845,-2.137024 1.601497,-4.692493 0.979865,-7.015231 -0.585521,-2.187322 -1.966361,-3.995755 -3.886715,-5.093285 -1.500237,-0.857002 -3.3761,-1.242213 -5.395556,-1.294733 z M 16.630859,90 C 10.792118,90 6,85.207882 6,79.369141 V 16.630859 C 6,10.792118 10.792118,6 16.630859,6 H 79.369141 C 85.207882,6 90,10.792118 90,16.630859 V 79.369141 C 90,85.207882 85.207882,90 79.369141,90 Z m 0,-5.880859 h 62.738282 c 2.682824,0 4.75,-2.067176 4.75,-4.75 V 16.630859 c 0,-2.682824 -2.067176,-4.75 -4.75,-4.75 H 16.630859 c -2.682824,0 -4.75,2.067176 -4.75,4.75 v 62.738282 c 0,2.682824 2.067176,4.75 4.75,4.75 z" /><path
       id="rect1065"
       style="fill:#000000;stroke:none;stroke-width:5.88;stroke-dasharray:none;stroke-opacity:1;filter:url(#filter1118);stop-color:#000000"
       d="m 16.594499,13.480702 c -2.682821,0 -4.75125,2.068429 -4.75125,4.75125 v 62.737499 c 0,2.682822 2.068429,4.75125 4.75125,4.75125 h 62.737499 c 2.682822,0 4.75125,-2.068428 4.75125,-4.75125 V 18.231952 c 0,-2.682821 -2.068428,-4.75125 -4.75125,-4.75125 z m 31.36875,14.197969 c 4.976925,0.0013 9.026718,3.829029 9.026718,8.53125 0,4.573251 -4.233336,9.758918 -8.196562,13.088906 -0.238593,0.202491 -0.534817,0.301875 -0.830156,0.301875 -0.29534,0 -0.590274,-0.0974 -0.830157,-0.298594 -3.963226,-3.329988 -8.196562,-8.518936 -8.196562,-13.092187 0,-4.703511 4.048504,-8.53125 9.026719,-8.53125 z M 35.619186,49.613827 c 3.366023,-0.08753 7.128714,0.746326 10.201406,1.850625 0.59197,0.212799 0.944352,0.825987 0.833438,1.44375 -0.913102,5.105895 -3.314682,11.374621 -7.320469,13.666406 -1.288402,0.735124 -2.701771,1.082812 -4.111406,1.082812 -3.095263,0 -6.178923,-1.678553 -7.904531,-4.639687 -1.245844,-2.137022 -1.600735,-4.693867 -0.977813,-7.015313 0.586811,-2.18603 1.961366,-3.996261 3.881719,-5.0925 1.500236,-0.857001 3.378042,-1.243573 5.397656,-1.296093 z m 24.688125,0 c 2.019454,0.05252 3.897421,0.439092 5.397656,1.296093 1.920352,1.097529 3.29948,2.905181 3.885,5.0925 0.621632,2.322736 0.268032,4.878291 -0.977812,7.015313 -1.729479,2.962424 -4.81384,4.639687 -7.907813,4.639687 -1.410924,0 -2.824293,-0.347688 -4.111406,-1.082812 -4.005787,-2.289205 -6.408657,-8.560511 -7.320469,-13.666406 -0.110913,-0.617763 0.241469,-1.230951 0.833438,-1.44375 3.0735,-1.104299 6.835646,-1.938155 10.201406,-1.850625 z"
       clip-path="url(#clipPath1112)"
       sodipodi:nodetypes="ssssssssscscscscscccscccsscccscccs" /></g></svg>
