<?xml version="1.0" encoding="UTF-8" standalone="no"?>
<svg
   height="50"
   width="50"
   version="1.1"
   id="svg83"
   sodipodi:docname="DaVinci_Resolve_Box.svg"
   inkscape:export-filename="DaVinci_Resolve_Box.svg"
   inkscape:export-xdpi="96"
   inkscape:export-ydpi="96"
   inkscape:version="1.2.2 (b0a8486541, 2022-12-01)"
   xml:space="preserve"
   xmlns:inkscape="http://www.inkscape.org/namespaces/inkscape"
   xmlns:sodipodi="http://sodipodi.sourceforge.net/DTD/sodipodi-0.dtd"
   xmlns:xlink="http://www.w3.org/1999/xlink"
   xmlns="http://www.w3.org/2000/svg"
   xmlns:svg="http://www.w3.org/2000/svg"><defs
     id="defs87"><clipPath
       clipPathUnits="userSpaceOnUse"
       id="clipPath1494"><path
         d="M 48,16.653838 C 31.632862,16.653838 16.664908,31.632874 16.664908,48 16.664908,64.367126 31.632862,79.339076 48,79.339076 64.367137,79.339076 79.335092,64.367126 79.335092,48 79.335092,31.632874 64.367137,16.653838 48,16.653838 Z m 0,4.262583 C 62.973134,20.916421 75.083578,33.026875 75.083578,48 75.083578,62.973124 62.973134,75.083578 48,75.083578 33.026865,75.083578 20.916422,62.973124 20.916422,48 20.916422,33.026875 33.026865,20.916421 48,20.916421 Z m 0,5.158777 c -4.97822,0 -9.027858,3.828114 -9.027858,8.531628 0,4.573258 4.2359,9.760911 8.199129,13.090901 0.239884,0.201194 0.53339,0.299754 0.828729,0.299754 0.29534,0 0.590137,-0.09978 0.828729,-0.302272 3.96323,-3.329992 8.19913,-8.515125 8.19913,-13.088383 0,-4.702224 -4.050928,-8.530337 -9.027859,-8.531628 z M 35.657225,48.010075 c -2.019617,0.05252 -3.897841,0.43773 -5.398077,1.294734 -1.920354,1.096238 -3.297385,2.907251 -3.884196,5.093284 -0.622923,2.321448 -0.26598,4.878208 0.979866,7.015232 1.72561,2.961136 4.809147,4.639876 7.904415,4.639876 1.409635,0 2.822495,-0.348017 4.110899,-1.083143 4.00579,-2.291788 6.406919,-8.561836 7.320022,-13.667736 0.110914,-0.617763 -0.239277,-1.228031 -0.831249,-1.44083 -3.072695,-1.104301 -6.835654,-1.93895 -10.20168,-1.851417 z m 24.688071,0 c -3.365764,-0.08753 -7.128181,0.747116 -10.201684,1.851417 -0.591969,0.212799 -0.94468,0.823067 -0.833767,1.44083 0.911814,5.1059 3.314232,11.378529 7.320022,13.667736 1.287115,0.735126 2.699975,1.083143 4.110901,1.083143 3.093976,0 6.177454,-1.67745 7.906934,-4.639876 1.245846,-2.137024 1.601497,-4.692494 0.979865,-7.015232 -0.58552,-2.187321 -1.966361,-3.995756 -3.886715,-5.093284 -1.500237,-0.857004 -3.3761,-1.242214 -5.395556,-1.294734 z"
         id="path1496"
         style="fill:url(#linearGradient1498);fill-opacity:1;stroke-width:1.28969"
         sodipodi:nodetypes="sssssssssscscscscscccscccsscccscccs" /></clipPath><linearGradient
       inkscape:collect="always"
       xlink:href="#h"
       id="linearGradient1498"
       gradientUnits="userSpaceOnUse"
       gradientTransform="matrix(1.2896942,0,0,1.2896942,15.757645,15.757645)"
       x1="0.70347154"
       y1="25"
       x2="49.296528"
       y2="25" /><linearGradient
       id="linearGradient1272"
       gradientUnits="userSpaceOnUse"
       x1="48"
       x2="48"
       y1="90"
       y2="5.9877172"><stop
         offset="0"
         stop-color="#ebebeb"
         id="stop2-3"
         style="stop-color:#585858;stop-opacity:1;" /><stop
         offset="1"
         stop-color="#fafafa"
         id="stop4-6"
         style="stop-color:#818181;stop-opacity:1;" /></linearGradient><clipPath
       clipPathUnits="userSpaceOnUse"
       id="clipPath1341"><path
         id="path1343"
         style="fill:url(#linearGradient1345);fill-opacity:1;stroke-width:1.28969"
         d="m 48,26.078742 c -4.97822,0 -9.027858,3.828113 -9.027858,8.531628 0,4.573255 4.2359,9.76091 8.199129,13.0909 0.239884,0.201192 0.53339,0.299754 0.828729,0.299754 0.29534,0 0.590137,-0.09978 0.828729,-0.302272 3.96323,-3.329992 8.19913,-8.515127 8.19913,-13.088382 0,-4.702225 -4.050928,-8.530338 -9.027859,-8.531628 z M 35.657225,48.013618 c -2.019617,0.05252 -3.897841,0.43773 -5.398077,1.294734 -1.920354,1.096238 -3.297385,2.907251 -3.884196,5.093284 -0.622923,2.321448 -0.26598,4.878208 0.979866,7.015232 1.72561,2.961136 4.809147,4.639876 7.904415,4.639876 1.409635,0 2.822495,-0.348017 4.110899,-1.083143 4.00579,-2.291787 6.406919,-8.561836 7.320022,-13.667736 0.110914,-0.617763 -0.239277,-1.228031 -0.831249,-1.440832 -3.072695,-1.104299 -6.835654,-1.938948 -10.20168,-1.851415 z m 24.688071,0 c -3.365764,-0.08753 -7.128181,0.747116 -10.201684,1.851415 -0.591969,0.212801 -0.94468,0.823069 -0.833767,1.440832 0.911814,5.1059 3.314232,11.378529 7.320022,13.667736 1.287115,0.735126 2.699975,1.083143 4.110901,1.083143 3.093976,0 6.177454,-1.67745 7.906934,-4.639876 1.245846,-2.137024 1.601497,-4.692494 0.979865,-7.015232 -0.58552,-2.187323 -1.966361,-3.995755 -3.886715,-5.093284 -1.500237,-0.857004 -3.3761,-1.242214 -5.395556,-1.294734 z M 20.542547,11.145 h 54.914905 c 5.206241,0 9.397547,4.191306 9.397547,9.397547 v 54.914905 c 0,5.206241 -4.191306,9.397547 -9.397547,9.397547 H 20.542547 c -5.206241,0 -9.397547,-4.191306 -9.397547,-9.397547 V 20.542547 c 0,-5.206241 4.191306,-9.397547 9.397547,-9.397547 z" /></clipPath><linearGradient
       inkscape:collect="always"
       xlink:href="#h"
       id="linearGradient1345"
       gradientUnits="userSpaceOnUse"
       gradientTransform="matrix(1.2896942,0,0,1.2896942,15.757645,15.761188)"
       x1="0.70347154"
       y1="25"
       x2="49.296528"
       y2="25" /><clipPath
       clipPathUnits="userSpaceOnUse"
       id="clipPath582"><path
         id="path584"
         style="fill:#000000;stroke-width:0.7655"
         d="m 24.046876,14.821307 c -4.541736,0 -8.196564,3.654828 -8.196564,8.196564 v 47.906248 c 0,4.541735 3.654828,8.196563 8.196564,8.196563 h 47.906248 c 4.541735,0 8.196563,-3.654828 8.196563,-8.196563 V 23.017871 c 0,-4.541736 -3.654828,-8.196564 -8.196563,-8.196564 z M 48,23.191776 c 5.397897,0.0014 9.79125,4.15317 9.79125,9.253126 0,4.960077 -4.593734,10.583035 -8.892188,14.194686 C 48.640288,46.859201 48.32032,46.967714 48,46.967714 c -0.320321,0 -0.638889,-0.10663 -0.899062,-0.324844 -4.298457,-3.611653 -8.892188,-9.237891 -8.892188,-14.197968 0,-5.101356 4.391955,-9.253126 9.79125,-9.253126 z M 34.6125,46.980838 c 3.650736,-0.09494 7.73178,0.81042 11.064376,2.008126 0.64204,0.2308 1.022637,0.895141 0.902343,1.565156 -0.990339,5.537774 -3.596012,12.335772 -7.940626,14.821406 -1.397382,0.797304 -2.927071,1.174687 -4.455936,1.174687 -3.357075,0 -6.702338,-1.818554 -8.573907,-5.030156 -1.351222,-2.31778 -1.738736,-5.091413 -1.063124,-7.609219 0.636444,-2.370934 2.130339,-4.33666 4.213124,-5.525624 1.62713,-0.929491 3.663309,-1.347426 5.85375,-1.404376 z m 26.778281,0 c 2.190269,0.05697 4.223336,0.474885 5.850469,1.404376 2.082785,1.190362 3.58136,3.153292 4.216406,5.525624 0.674211,2.519205 0.288097,5.291439 -1.063125,7.609219 -1.875766,3.213 -5.221511,5.030156 -8.577188,5.030156 -1.530265,0 -3.059954,-0.377383 -4.455937,-1.174687 -4.344614,-2.482837 -6.951687,-9.283632 -7.940625,-14.821406 -0.120305,-0.670015 0.263583,-1.334356 0.905626,-1.565156 3.333469,-1.197706 7.413922,-2.103055 11.064374,-2.008126 z" /></clipPath><clipPath
       clipPathUnits="userSpaceOnUse"
       id="clipPath1494-7"><path
         d="M 48,16.653838 C 31.632862,16.653838 16.664908,31.632874 16.664908,48 16.664908,64.367126 31.632862,79.339076 48,79.339076 64.367137,79.339076 79.335092,64.367126 79.335092,48 79.335092,31.632874 64.367137,16.653838 48,16.653838 Z m 0,4.262583 C 62.973134,20.916421 75.083578,33.026875 75.083578,48 75.083578,62.973124 62.973134,75.083578 48,75.083578 33.026865,75.083578 20.916422,62.973124 20.916422,48 20.916422,33.026875 33.026865,20.916421 48,20.916421 Z m 0,5.158777 c -4.97822,0 -9.027858,3.828114 -9.027858,8.531628 0,4.573258 4.2359,9.760911 8.199129,13.090901 0.239884,0.201194 0.53339,0.299754 0.828729,0.299754 0.29534,0 0.590137,-0.09978 0.828729,-0.302272 3.96323,-3.329992 8.19913,-8.515125 8.19913,-13.088383 0,-4.702224 -4.050928,-8.530337 -9.027859,-8.531628 z M 35.657225,48.010075 c -2.019617,0.05252 -3.897841,0.43773 -5.398077,1.294734 -1.920354,1.096238 -3.297385,2.907251 -3.884196,5.093284 -0.622923,2.321448 -0.26598,4.878208 0.979866,7.015232 1.72561,2.961136 4.809147,4.639876 7.904415,4.639876 1.409635,0 2.822495,-0.348017 4.110899,-1.083143 4.00579,-2.291788 6.406919,-8.561836 7.320022,-13.667736 0.110914,-0.617763 -0.239277,-1.228031 -0.831249,-1.44083 -3.072695,-1.104301 -6.835654,-1.93895 -10.20168,-1.851417 z m 24.688071,0 c -3.365764,-0.08753 -7.128181,0.747116 -10.201684,1.851417 -0.591969,0.212799 -0.94468,0.823067 -0.833767,1.44083 0.911814,5.1059 3.314232,11.378529 7.320022,13.667736 1.287115,0.735126 2.699975,1.083143 4.110901,1.083143 3.093976,0 6.177454,-1.67745 7.906934,-4.639876 1.245846,-2.137024 1.601497,-4.692494 0.979865,-7.015232 -0.58552,-2.187321 -1.966361,-3.995756 -3.886715,-5.093284 -1.500237,-0.857004 -3.3761,-1.242214 -5.395556,-1.294734 z"
         id="path1496-0"
         style="fill:url(#linearGradient1498);fill-opacity:1;stroke-width:1.28969"
         sodipodi:nodetypes="sssssssssscscscscscccscccsscccscccs" /></clipPath><clipPath
       clipPathUnits="userSpaceOnUse"
       id="clipPath1341-6"><path
         id="path1343-0"
         style="fill:url(#linearGradient1345);fill-opacity:1;stroke-width:1.28969"
         d="m 48,26.078742 c -4.97822,0 -9.027858,3.828113 -9.027858,8.531628 0,4.573255 4.2359,9.76091 8.199129,13.0909 0.239884,0.201192 0.53339,0.299754 0.828729,0.299754 0.29534,0 0.590137,-0.09978 0.828729,-0.302272 3.96323,-3.329992 8.19913,-8.515127 8.19913,-13.088382 0,-4.702225 -4.050928,-8.530338 -9.027859,-8.531628 z M 35.657225,48.013618 c -2.019617,0.05252 -3.897841,0.43773 -5.398077,1.294734 -1.920354,1.096238 -3.297385,2.907251 -3.884196,5.093284 -0.622923,2.321448 -0.26598,4.878208 0.979866,7.015232 1.72561,2.961136 4.809147,4.639876 7.904415,4.639876 1.409635,0 2.822495,-0.348017 4.110899,-1.083143 4.00579,-2.291787 6.406919,-8.561836 7.320022,-13.667736 0.110914,-0.617763 -0.239277,-1.228031 -0.831249,-1.440832 -3.072695,-1.104299 -6.835654,-1.938948 -10.20168,-1.851415 z m 24.688071,0 c -3.365764,-0.08753 -7.128181,0.747116 -10.201684,1.851415 -0.591969,0.212801 -0.94468,0.823069 -0.833767,1.440832 0.911814,5.1059 3.314232,11.378529 7.320022,13.667736 1.287115,0.735126 2.699975,1.083143 4.110901,1.083143 3.093976,0 6.177454,-1.67745 7.906934,-4.639876 1.245846,-2.137024 1.601497,-4.692494 0.979865,-7.015232 -0.58552,-2.187323 -1.966361,-3.995755 -3.886715,-5.093284 -1.500237,-0.857004 -3.3761,-1.242214 -5.395556,-1.294734 z M 20.542547,11.145 h 54.914905 c 5.206241,0 9.397547,4.191306 9.397547,9.397547 v 54.914905 c 0,5.206241 -4.191306,9.397547 -9.397547,9.397547 H 20.542547 c -5.206241,0 -9.397547,-4.191306 -9.397547,-9.397547 V 20.542547 c 0,-5.206241 4.191306,-9.397547 9.397547,-9.397547 z" /></clipPath><linearGradient
       inkscape:collect="always"
       xlink:href="#h"
       id="linearGradient1200"
       x1="24.22044"
       y1="52.196346"
       x2="71.78167"
       y2="52.196346"
       gradientUnits="userSpaceOnUse" /><clipPath
       clipPathUnits="userSpaceOnUse"
       id="clipPath1395"><path
         d="m 48,80.171994 c -28,-49.447995 -14,-24.723997 0,0 z m 0,-2.797562 c -28,-47.582954 -14,-23.791478 0,0 z m 0,-53.153733 c -5.3993,0 -9.791477,4.151913 -9.791477,9.253272 0,4.960084 4.594192,10.586533 8.892651,14.19819 0.260174,0.218209 0.578505,0.325107 0.898826,0.325107 0.32032,0 0.640053,-0.108226 0.898827,-0.32784 4.298458,-3.611656 8.892649,-9.235373 8.892649,-14.195457 0,-5.09996 -4.393574,-9.251873 -9.791476,-9.253272 z M 34.613215,48.010926 c -2.190444,0.05695 -4.227536,0.474758 -5.854668,1.404249 -2.082789,1.188966 -3.576295,3.15316 -4.212742,5.524097 -0.675612,2.517809 -0.288476,5.290829 1.062748,7.608612 1.871571,3.211604 5.215928,5.032337 8.573007,5.032337 1.528868,0 3.061235,-0.377452 4.458619,-1.174756 4.344618,-2.485638 6.948844,-9.286037 7.939182,-14.823816 0.120305,-0.670018 -0.259518,-1.331904 -0.90156,-1.562704 -3.332597,-1.197708 -7.413846,-2.102955 -11.064586,-2.008019 z m 26.776302,0 c -3.650455,-0.09494 -7.731114,0.810311 -11.064587,2.008019 -0.642042,0.2308 -1.024587,0.892686 -0.90429,1.562704 0.988938,5.537779 3.594563,12.340976 7.939181,14.823816 1.395985,0.797304 2.92835,1.174756 4.458619,1.174756 3.35568,0 6.699971,-1.819335 8.575739,-5.032337 1.351224,-2.317783 1.736959,-5.089405 1.062747,-7.608612 -0.635049,-2.372335 -2.132685,-4.333733 -4.215472,-5.524097 -1.627133,-0.929491 -3.661665,-1.347287 -5.851937,-1.404249 z"
         id="path1397"
         style="fill:url(#linearGradient1399);fill-opacity:1;stroke-width:1.39878"
         sodipodi:nodetypes="cccccscscscccccsccccscccscccs" /></clipPath><linearGradient
       inkscape:collect="always"
       xlink:href="#h"
       id="linearGradient1399"
       gradientUnits="userSpaceOnUse"
       x1="24.22044"
       y1="52.196346"
       x2="71.78167"
       y2="52.196346" /><filter
       inkscape:collect="always"
       style="color-interpolation-filters:sRGB"
       id="filter1401"
       x="-0.027264503"
       y="-0.026740578"
       width="1.054529"
       height="1.0534812"><feGaussianBlur
         inkscape:collect="always"
         stdDeviation="0.68300243"
         id="feGaussianBlur1403" /></filter></defs><sodipodi:namedview
     id="namedview85"
     pagecolor="#ffffff"
     bordercolor="#000000"
     borderopacity="0.25"
     inkscape:showpageshadow="2"
     inkscape:pageopacity="0.0"
     inkscape:pagecheckerboard="0"
     inkscape:deskcolor="#d1d1d1"
     showgrid="false"
     inkscape:zoom="11.313709"
     inkscape:cx="18.208"
     inkscape:cy="20.108349"
     inkscape:window-width="2560"
     inkscape:window-height="1369"
     inkscape:window-x="0"
     inkscape:window-y="0"
     inkscape:window-maximized="1"
     inkscape:current-layer="g79" /><linearGradient
     id="a"
     gradientUnits="userSpaceOnUse"
     x1="48"
     x2="48"
     y1="90"
     y2="5.9877172"><stop
       offset="0"
       stop-color="#ebebeb"
       id="stop2"
       style="stop-color:#585858;stop-opacity:1;" /><stop
       offset="1"
       stop-color="#fafafa"
       id="stop4"
       style="stop-color:#818181;stop-opacity:1;" /></linearGradient><linearGradient
     id="b"
     gradientTransform="matrix(1.0058652,0,0,0.994169,100,0)"
     gradientUnits="userSpaceOnUse"
     x1="45.447727"
     x2="45.447727"
     y1="92.539597"
     y2="7.0165401"><stop
       offset="0"
       id="stop7" /><stop
       offset="1"
       stop-opacity=".588235"
       id="stop9" /></linearGradient><linearGradient
     id="c"
     gradientTransform="matrix(1.0238095,0,0,1.0119048,-1.142857,-98.071429)"
     gradientUnits="userSpaceOnUse"
     x1="32.251034"
     x2="32.251034"
     xlink:href="#b"
     y1="6.1317081"
     y2="90.238609" /><linearGradient
     id="d"
     gradientTransform="translate(0,-97)"
     gradientUnits="userSpaceOnUse"
     x1="32.251034"
     x2="32.251034"
     xlink:href="#b"
     y1="6.1317081"
     y2="90.238609" /><linearGradient
     id="e"><stop
       offset="0"
       stop-color="#fff"
       id="stop14" /><stop
       offset="1"
       stop-color="#fff"
       stop-opacity="0"
       id="stop16" /></linearGradient><radialGradient
     id="f"
     cx="48"
     cy="90.171875"
     gradientTransform="matrix(1.1573129,0,0,0.99590774,-7.551021,0.197132)"
     gradientUnits="userSpaceOnUse"
     r="42"
     xlink:href="#e" /><linearGradient
     id="g"
     gradientUnits="userSpaceOnUse"
     x1="36.357143"
     x2="36.357143"
     xlink:href="#e"
     y1="6"
     y2="63.893143"
     gradientTransform="matrix(0.91995739,0,0,0.98668795,0.48025569,1.1935087)" /><linearGradient
     id="h"
     gradientTransform="rotate(-90,48.000087,47.999896)"
     gradientUnits="userSpaceOnUse"
     x1="18.000002"
     x2="78.000175"
     y1="47.999897"
     y2="47.999897"><stop
       offset="0"
       stop-color="#bababa"
       id="stop21"
       style="stop-color:#818181;stop-opacity:1;" /><stop
       offset="1"
       stop-color="#d2d2d2"
       id="stop23"
       style="stop-color:#a7a7a7;stop-opacity:1;" /></linearGradient><clipPath
     id="i"><path
       d="m -88,6 c -3.324,0 -6,2.676 -6,6 v 72 c 0,3.324 2.676,6 6,6 h 72 c 3.324,0 6,-2.676 6,-6 V 12 c 0,-3.324 -2.676,-6 -6,-6 z m 31.84375,12 h 8.3125 c 1.180648,0 2.125,0.986683 2.125,2.1875 v 4.21875 c 2.111082,0.562476 4.123141,1.426616 5.96875,2.5 l 3,-3.03125 c 0.849111,-0.849025 2.196406,-0.866085 3.03125,-0.03125 l 5.875,5.875 c 0.834848,0.834847 0.817863,2.18214 -0.03125,3.03125 l -3.03125,3 c 1.073391,1.845617 1.937528,3.857672 2.5,5.96875 h 4.21875 c 1.200827,0 2.1875,0.944356 2.1875,2.125 v 8.3125 c 0,1.180653 -0.986672,2.125 -2.1875,2.125 h -4.21875 c -0.562472,2.111079 -1.426609,4.123134 -2.5,5.96875 l 3.03125,3 c 0.849106,0.849111 0.866094,2.196416 0.03125,3.03125 l -5.875,5.875 c -0.834844,0.834921 -2.182138,0.81786 -3.03125,-0.03125 l -3,-3.03125 c -1.84561,1.073389 -3.857669,1.937515 -5.96875,2.5 v 4.21875 c 0,1.200828 -0.944354,2.1875 -2.125,2.1875 h -8.3125 c -1.180646,0 -2.125,-0.986673 -2.125,-2.1875 v -4.21875 c -2.111081,-0.562485 -4.123141,-1.426613 -5.96875,-2.5 l -3,3.03125 c -0.849114,0.849022 -2.196407,0.866084 -3.03125,0.03125 l -5.875,-5.875 c -0.417421,-0.417418 -0.6298,-0.981833 -0.625,-1.53125 0.0047,-0.549422 0.231693,-1.075441 0.65625,-1.5 l 3.03125,-3 c -1.073391,-1.845614 -1.937528,-3.857673 -2.5,-5.96875 h -4.21875 c -1.200828,0 -2.1875,-0.944347 -2.1875,-2.125 v -8.3125 c 0,-1.180643 0.986672,-2.125 2.1875,-2.125 h 4.21875 c 0.562472,-2.111076 1.426609,-4.123135 2.5,-5.96875 l -3.03125,-3 c -0.849107,-0.84911 -0.866093,-2.196403 -0.03125,-3.03125 l 5.875,-5.875 c 0.834843,-0.834932 2.182137,-0.817858 3.03125,0.03125 l 3,3.03125 c 1.845609,-1.073383 3.85767,-1.937533 5.96875,-2.5 V 20.1875 c 0,-1.200817 0.944355,-2.1875 2.125,-2.1875 z M -52,38.9375 c -5.006511,0 -9.0625,4.055982 -9.0625,9.0625 0,5.006505 4.055989,9.0625 9.0625,9.0625 5.00651,0 9.0625,-4.055995 9.0625,-9.0625 0,-5.00652 -4.05599,-9.0625 -9.0625,-9.0625 z"
       id="path26" /></clipPath><filter
     id="j"
     color-interpolation-filters="sRGB"
     height="1.3213328"
     width="1.3213336"
     x="-0.16066687"
     y="-0.16066641"><feGaussianBlur
       stdDeviation="3.6000051"
       id="feGaussianBlur29" /></filter><clipPath
     id="k"><rect
       height="84"
       rx="6"
       width="84"
       x="6"
       y="6"
       id="rect32" /></clipPath><filter
     id="l"
     color-interpolation-filters="sRGB"
     height="1.3915758"
     width="1.3915758"
     x="-0.19578789"
     y="-0.19578789"><feGaussianBlur
       stdDeviation="5.28"
       id="feGaussianBlur35" /></filter><linearGradient
     id="m"
     gradientUnits="userSpaceOnUse"
     x1="48"
     x2="48"
     xlink:href="#e"
     y1="20.220806"
     y2="138.66119" /><g
     id="g79"
     transform="matrix(0.5952381,0,0,0.5952381,-3.5714286,-3.5714286)"><rect
       fill="url(#a)"
       height="84"
       rx="10.709455"
       width="84"
       x="6"
       y="6"
       id="rect53"
       style="fill:url(#a)"
       ry="10.709455" /><path
       d="m 48,80.171995 c -28,-49.447997 -14,-24.723998 0,0 z m 0,-2.797564 c -28,-47.582954 -14,-23.791477 0,0 z m 0,-53.153733 c -5.3993,0 -9.791477,4.151914 -9.791477,9.253273 0,4.960083 4.594192,10.586533 8.892651,14.19819 0.260173,0.218209 0.578505,0.325107 0.898826,0.325107 0.320321,0 0.640052,-0.108227 0.898826,-0.32784 4.298459,-3.611655 8.892651,-9.235374 8.892651,-14.195457 0,-5.09996 -4.393575,-9.251873 -9.791477,-9.253273 z M 34.613215,48.010927 c -2.190444,0.05695 -4.227536,0.474757 -5.854669,1.404247 -2.082788,1.188966 -3.576294,3.153161 -4.21274,5.524098 -0.675612,2.517808 -0.288477,5.290829 1.062747,7.608612 1.87157,3.211604 5.215929,5.032337 8.573007,5.032337 1.528869,0 3.061235,-0.377452 4.458619,-1.174757 4.344618,-2.485637 6.948844,-9.286036 7.939182,-14.823816 0.120296,-0.670016 -0.259517,-1.331903 -0.901559,-1.562703 -3.332598,-1.197707 -7.413847,-2.102955 -11.064587,-2.008018 z m 26.776302,0 c -3.650455,-0.09493 -7.731115,0.810311 -11.064588,2.008018 -0.642042,0.2308 -1.024586,0.892687 -0.90429,1.562703 0.988939,5.53778 3.594564,12.340976 7.939182,14.823816 1.395985,0.797305 2.928351,1.174757 4.458619,1.174757 3.35568,0 6.699971,-1.819335 8.575739,-5.032337 1.351224,-2.317783 1.736959,-5.089405 1.062746,-7.608612 -0.635047,-2.372335 -2.132684,-4.333734 -4.215471,-5.524098 -1.627133,-0.92949 -3.661666,-1.347285 -5.851937,-1.404247 z"
       id="path579"
       style="stroke-width:1.39878;fill-opacity:1.0;fill:url(#linearGradient1200)"
       sodipodi:nodetypes="cccccscscscccccsccccscccscccs" /><path
       id="rect1262"
       style="font-variation-settings:normal;opacity:1;vector-effect:none;fill:#000000;fill-opacity:1;stroke-width:1;stroke-linecap:butt;stroke-linejoin:miter;stroke-miterlimit:4;stroke-dasharray:none;stroke-dashoffset:0;stroke-opacity:1;-inkscape-stroke:none;stop-color:#000000;stop-opacity:1;filter:url(#filter1401)"
       d="m 27.954844,18.052685 c -5.206236,0 -9.3975,4.191265 -9.3975,9.3975 v 42.505312 c 0,5.206236 4.191264,9.3975 9.3975,9.3975 h 41.327343 c 5.206236,0 9.3975,-4.191264 9.3975,-9.3975 V 27.450185 c 0,-5.206235 -4.191264,-9.3975 -9.3975,-9.3975 z M 48,25.543779 c 5.397896,0.0014 9.79125,4.15317 9.79125,9.253125 0,4.960078 -4.593733,10.583036 -8.892188,14.194687 C 48.640288,49.211204 48.32032,49.319716 48,49.319716 c -0.320321,0 -0.63889,-0.106635 -0.899063,-0.324843 -4.298455,-3.611654 -8.892187,-9.237891 -8.892187,-14.197969 0,-5.101354 4.391955,-9.253125 9.79125,-9.253125 z M 34.6125,49.332841 c 3.650736,-0.09494 7.73178,0.81042 11.064375,2.008125 0.642041,0.2308 1.022639,0.895141 0.902343,1.565157 -0.990337,5.537774 -3.596011,12.335771 -7.940625,14.821406 -1.397382,0.797304 -2.92707,1.174687 -4.455937,1.174687 -3.357075,0 -6.702338,-1.818555 -8.573906,-5.030156 -1.351223,-2.317781 -1.738736,-5.091413 -1.063125,-7.609219 0.636445,-2.370934 2.130339,-4.33666 4.213125,-5.525625 1.627131,-0.929489 3.663308,-1.347425 5.85375,-1.404375 z m 26.778281,0 c 2.190269,0.05696 4.223337,0.474886 5.850469,1.404375 2.082784,1.190363 3.581359,3.153293 4.216406,5.525625 0.674212,2.519205 0.288097,5.291438 -1.063125,7.609219 -1.875766,3.212999 -5.221511,5.030156 -8.577188,5.030156 -1.530266,0 -3.059954,-0.377383 -4.455937,-1.174687 -4.344614,-2.482838 -6.951687,-9.283632 -7.940625,-14.821406 -0.120296,-0.670016 0.263584,-1.334357 0.905625,-1.565157 3.33347,-1.197705 7.413923,-2.103054 11.064375,-2.008125 z"
       clip-path="url(#clipPath1395)" /></g></svg>
