<?xml version="1.0" encoding="UTF-8" standalone="no"?>
<svg
   height="50"
   width="50"
   version="1.1"
   id="svg83"
   sodipodi:docname="Debian_Box.svg"
   inkscape:export-filename="Debian_Box.svg"
   inkscape:export-xdpi="96"
   inkscape:export-ydpi="96"
   inkscape:version="1.2.2 (b0a8486541, 2022-12-01)"
   xml:space="preserve"
   xmlns:inkscape="http://www.inkscape.org/namespaces/inkscape"
   xmlns:sodipodi="http://sodipodi.sourceforge.net/DTD/sodipodi-0.dtd"
   xmlns:xlink="http://www.w3.org/1999/xlink"
   xmlns="http://www.w3.org/2000/svg"
   xmlns:svg="http://www.w3.org/2000/svg"><defs
     id="defs87"><linearGradient
       inkscape:collect="always"
       xlink:href="#h"
       id="linearGradient950"
       x1="0.65038794"
       y1="97.398163"
       x2="3.46173"
       y2="97.398163"
       gradientUnits="userSpaceOnUse" /><linearGradient
       inkscape:collect="always"
       xlink:href="#h"
       id="linearGradient952"
       x1="7.3437476"
       y1="71.843277"
       x2="12.111451"
       y2="71.843277"
       gradientUnits="userSpaceOnUse" /><linearGradient
       inkscape:collect="always"
       xlink:href="#h"
       id="linearGradient954"
       x1="131.79868"
       y1="0.78457355"
       x2="146.41776"
       y2="0.78457355"
       gradientUnits="userSpaceOnUse" /><linearGradient
       inkscape:collect="always"
       xlink:href="#h"
       id="linearGradient956"
       x1="238.08282"
       y1="158.50432"
       x2="248.00323"
       y2="158.50432"
       gradientUnits="userSpaceOnUse" /><linearGradient
       inkscape:collect="always"
       xlink:href="#h"
       id="linearGradient958"
       x1="99.524506"
       y1="173.2578"
       x2="105.25759"
       y2="173.2578"
       gradientUnits="userSpaceOnUse" /><linearGradient
       inkscape:collect="always"
       xlink:href="#h"
       id="linearGradient960"
       x1="94.746941"
       y1="183.1899"
       x2="105.34233"
       y2="183.1899"
       gradientUnits="userSpaceOnUse" /><linearGradient
       inkscape:collect="always"
       xlink:href="#h"
       id="linearGradient962"
       x1="2.4565406"
       y1="159.57671"
       x2="255.23534"
       y2="159.57671"
       gradientUnits="userSpaceOnUse" /><linearGradient
       inkscape:collect="always"
       xlink:href="#h"
       id="linearGradient964"
       x1="136.5032"
       y1="5.8499675"
       x2="138.48436"
       y2="5.8499675"
       gradientUnits="userSpaceOnUse" /><linearGradient
       inkscape:collect="always"
       xlink:href="#h"
       id="linearGradient966"
       x1="132.8857"
       y1="4.866694"
       x2="140.53381"
       y2="4.866694"
       gradientUnits="userSpaceOnUse" /><linearGradient
       inkscape:collect="always"
       xlink:href="#h"
       id="linearGradient968"
       x1="188.68245"
       y1="130.78468"
       x2="191.48447"
       y2="130.78468"
       gradientUnits="userSpaceOnUse" /><linearGradient
       inkscape:collect="always"
       xlink:href="#h"
       id="linearGradient970"
       x1="177.6942"
       y1="153.43745"
       x2="187.18929"
       y2="153.43745"
       gradientUnits="userSpaceOnUse" /><linearGradient
       inkscape:collect="always"
       xlink:href="#h"
       id="linearGradient972"
       x1="150.84084"
       y1="168.97115"
       x2="165.7881"
       y2="168.97115"
       gradientUnits="userSpaceOnUse" /><clipPath
       clipPathUnits="userSpaceOnUse"
       id="clipPath3174"><path
         id="path3176"
         style="fill:url(#linearGradient3178);fill-opacity:1;stroke-width:0.20081"
         d="m 51.711094,16.181719 c -0.985793,0.08274 -1.967945,0.130952 -2.936719,0.255937 l 0.426563,0.05906 c 0.712938,-0.261117 1.753795,-0.143074 2.510156,-0.314999 z m -4.308282,0.452812 c -1.603086,0.09741 -3.826691,0.933788 -3.140155,0.173906 -2.614699,1.166522 -7.257543,2.803362 -9.863438,5.246719 l -0.08203,-0.544687 c -1.194101,1.433507 -5.20583,4.279361 -5.525626,6.135938 L 28.47,27.721876 c -0.621402,1.052098 -1.023041,2.244575 -1.515938,3.327186 -0.812692,1.384804 -1.191846,0.531016 -1.07625,0.748126 -1.598392,3.240792 -2.391865,5.966553 -3.077812,8.199844 0.488789,0.730542 0.0121,4.39523 0.196874,7.330311 -0.802716,14.495844 10.173492,28.571966 22.171407,31.821563 1.758583,0.629028 4.374105,0.604829 6.598594,0.669374 -2.624675,-0.750494 -2.962456,-0.398212 -5.519063,-1.289531 -1.844254,-0.868435 -2.2507,-1.858837 -3.556874,-2.9925 l 0.518438,0.912188 c -2.56189,-0.906576 -1.489035,-1.121591 -3.573283,-1.781719 l 0.55125,-0.721874 c -0.830295,-0.06278 -2.198134,-1.399443 -2.5725,-2.139376 l -0.908905,0.03609 c -1.091414,-1.346663 -1.67303,-2.316302 -1.630781,-3.067969 l -0.295314,0.521719 c -0.332704,-0.57094 -4.013841,-5.049116 -2.103281,-4.006405 -0.355003,-0.324491 -0.827076,-0.527414 -1.33875,-1.456876 l 0.390469,-0.44625 C 30.808795,62.202832 30.03554,60.685218 30.094219,60.18 c 0.490548,0.662474 0.831312,0.789094 1.168124,0.902343 -2.321893,-5.761019 -2.454541,-0.320032 -4.213124,-5.866874 l 0.374062,-0.02953 C 27.138106,54.75641 26.96365,54.291751 26.734219,53.83406 l 0.164069,-1.614376 c -1.67174,-1.932857 -0.470856,-8.217503 -0.229688,-11.664841 0.167227,-1.401821 1.395532,-2.896794 2.329688,-5.236876 l -0.567656,-0.09516 c 1.087893,-1.897651 6.210806,-7.621596 8.583749,-7.327031 1.149504,-1.444069 -0.228075,-0.0071 -0.452812,-0.370781 2.52492,-2.612938 3.31958,-1.84655 5.023594,-2.316562 1.837799,-1.090828 -1.576839,0.428007 -0.705469,-0.413438 3.176832,-0.811519 2.25072,-1.845579 6.395156,-2.2575 0.437154,0.248795 -1.013733,0.382739 -1.378125,0.705469 2.646971,-1.295027 8.376605,-1.000676 12.097969,0.718593 4.318126,2.01794 9.170117,7.984937 9.361407,13.597502 l 0.216562,0.05907 c -0.110309,2.230941 0.339797,4.809367 -0.442969,7.179373 l 0.534845,-1.122187 c 0.06278,1.705187 -0.500954,2.531957 -1.007345,3.996563 l -0.908905,0.456093 c -0.745801,1.448178 0.07132,0.921901 -0.462657,2.07375 -1.164174,1.035085 -3.533756,3.237486 -4.291876,3.438751 -0.553336,-0.01226 0.377286,-0.654484 0.49875,-0.905626 -1.55849,1.07029 -1.252117,1.607349 -3.635624,2.2575 l -0.06891,-0.154224 c -5.878376,2.765502 -14.046133,-2.713621 -13.93875,-10.191562 -0.06278,0.474705 -0.178174,0.356093 -0.308438,0.547969 -0.303366,-3.847525 1.777729,-7.714644 5.286094,-9.2925 3.431495,-1.698732 7.454631,-1.001261 9.912657,1.289533 -1.350185,-1.768559 -4.036984,-3.64373 -7.222032,-3.468283 -3.119918,0.04929 -6.037976,2.034561 -7.012031,4.186876 -1.598393,1.006329 -1.784117,3.877681 -2.480626,4.403437 -0.937089,6.88705 1.762614,9.864382 6.329533,13.36453 0.718808,0.484682 0.201185,0.556228 0.298593,0.925314 -1.517418,-0.710589 -2.906602,-1.784282 -4.049062,-3.097501 0.606145,0.887214 1.261009,1.750395 2.106562,2.428125 -1.430572,-0.484681 -3.343377,-3.464944 -3.901407,-3.586406 2.466243,4.415528 10.007293,7.741204 13.955157,6.089999 -1.826651,0.06749 -4.149002,0.04012 -6.201562,-0.718593 -0.861983,-0.443607 -2.033857,-1.363698 -1.824376,-1.535624 5.387825,2.012659 10.953492,1.525647 15.61547,-2.211564 1.185884,-0.923591 2.483601,-2.495006 2.857967,-2.516718 -0.563897,0.847901 0.09507,0.406269 -0.337967,1.155 1.181778,-1.905865 -0.51449,-0.775562 1.220623,-3.291094 l 0.643124,0.882656 c -0.238231,-1.581962 1.962628,-3.502653 1.739064,-6.004687 0.505219,-0.765162 0.56585,0.821999 0.02953,2.582344 0.744038,-1.952807 0.195898,-2.267135 0.387188,-3.878438 0.206547,0.541601 0.477807,1.11832 0.616874,1.689844 -0.484678,-1.887088 0.495356,-3.178775 0.738281,-4.275467 -0.239405,-0.106209 -0.746785,0.834648 -0.862969,-1.394531 0.017,-0.968191 0.270095,-0.506614 0.3675,-0.744845 -0.190115,-0.109149 -0.690853,-0.850375 -0.994219,-2.273907 0.220043,-0.334464 0.589964,0.866182 0.889219,0.915469 -0.192461,-1.1319 -0.524629,-1.996095 -0.538124,-2.864531 -0.874302,-1.827236 -0.31105,0.243822 -1.020469,-0.784219 -0.930634,-2.902806 0.77421,-0.672635 0.889219,-1.991718 1.410624,2.043758 2.213261,5.211081 2.582343,6.523125 -0.281654,-1.599566 -0.73713,-3.150305 -1.292812,-4.649531 0.428351,0.180142 -0.689097,-3.289947 0.557812,-0.990938 -1.331993,-4.900796 -5.700196,-9.479957 -9.71906,-11.62875 0.491721,0.450061 1.112195,1.013896 0.889219,1.1025 -1.998577,-1.189992 -1.646311,-1.282128 -1.932657,-1.785 -1.62832,-0.662476 -1.736809,0.05223 -2.815312,0 -3.068866,-1.627722 -3.659574,-1.454237 -6.48375,-2.474062 l 0.127965,0.600468 c -2.033196,-0.677145 -2.366723,0.257945 -4.564218,0.0033 -0.133779,-0.104447 0.701781,-0.378723 1.391249,-0.479062 -1.965715,0.259357 -1.872937,-0.386676 -3.796406,0.07219 0.474121,-0.332705 0.974037,-0.55389 1.479843,-0.836719 z m 2.316563,0.764531 0.370782,-0.03281 0.02626,-0.04922 z m 0.397032,-0.08203 c 0.615533,-0.134959 0.75399,-0.261603 -1.125469,-0.315 0.562722,0.100926 1.217005,0.180628 1.125469,0.315 z M 24.171562,29.805469 c 0.164304,1.520937 -1.145343,2.111871 0.28875,1.109062 0.768684,-1.731591 -0.299312,-0.478859 -0.28875,-1.109062 z m -1.168124,4.83 c -0.913032,1.167107 -0.422206,1.417648 -0.518438,2.211563 0.330358,-1.013958 0.39228,-1.624783 0.518438,-2.211563 z m 37.576875,7.051405 c -0.130418,0.0034 -0.299703,0.333288 -0.383907,0.695624 0.196574,0.102094 0.351288,1.338797 0.541407,0.574219 0.06367,-0.949412 -0.02708,-1.273143 -0.1575,-1.269843 z m 11.530311,3.199219 -0.1575,0.387188 c -0.284001,2.017354 -0.894195,4.012886 -1.834219,5.863593 1.038604,-1.952807 1.710065,-4.086733 1.991719,-6.250781 z m -12.212811,0.70875 c -0.140834,0.699444 -0.522026,1.305256 -0.879376,1.9425 -1.970999,1.241043 -0.184217,-0.738019 0,-1.489688 -2.119452,2.667511 -0.290631,1.600882 -0.3675,2.346095 0.627857,-0.866675 1.085511,-1.817809 1.246876,-2.798907 z m -4.298438,4.072031 c -0.857288,0.210067 -1.729598,0.214921 -2.608594,0.134534 -1.054447,0.01462 0.198411,0.546141 1.575,0.757969 0.380236,-0.296911 0.726121,-0.600284 1.033594,-0.8925 z m -13.305468,0.13781 c 0.232365,0.85494 0.708699,1.589279 1.151719,2.33625 L 43.120781,51.186091 C 42.754042,50.780623 42.536833,50.291127 42.293907,49.804684 Z M 41.480157,51.251719 41.332501,51.99 c 0.692989,0.941198 1.244667,1.961363 2.129531,2.697186 -0.636656,-1.242802 -1.111677,-1.755514 -1.981875,-3.435467 z" /></clipPath><linearGradient
       inkscape:collect="always"
       xlink:href="#h"
       id="linearGradient3178"
       gradientUnits="userSpaceOnUse"
       x1="150.84084"
       y1="168.97115"
       x2="165.7881"
       y2="168.97115"
       gradientTransform="matrix(0.2008109,0,0,0.2008109,22.307679,16.182048)" /><filter
       inkscape:collect="always"
       style="color-interpolation-filters:sRGB"
       id="filter3180"
       x="-0.017760022"
       y="-0.016825244"
       width="1.03552"
       height="1.0336505"><feGaussianBlur
         inkscape:collect="always"
         stdDeviation="0.52445137"
         id="feGaussianBlur3182" /></filter></defs><sodipodi:namedview
     id="namedview85"
     pagecolor="#ffffff"
     bordercolor="#000000"
     borderopacity="0.25"
     inkscape:showpageshadow="2"
     inkscape:pageopacity="0.0"
     inkscape:pagecheckerboard="0"
     inkscape:deskcolor="#d1d1d1"
     showgrid="false"
     inkscape:zoom="14.934095"
     inkscape:cx="12.722565"
     inkscape:cy="26.349103"
     inkscape:window-width="2560"
     inkscape:window-height="1369"
     inkscape:window-x="0"
     inkscape:window-y="0"
     inkscape:window-maximized="1"
     inkscape:current-layer="g79" /><linearGradient
     id="a"
     gradientUnits="userSpaceOnUse"
     x1="48"
     x2="48"
     y1="90"
     y2="5.9877172"><stop
       offset="0"
       stop-color="#ebebeb"
       id="stop2"
       style="stop-color:#585858;stop-opacity:1;" /><stop
       offset="1"
       stop-color="#fafafa"
       id="stop4"
       style="stop-color:#818181;stop-opacity:1;" /></linearGradient><linearGradient
     id="b"
     gradientTransform="matrix(1.0058652,0,0,0.994169,100,0)"
     gradientUnits="userSpaceOnUse"
     x1="45.447727"
     x2="45.447727"
     y1="92.539597"
     y2="7.0165401"><stop
       offset="0"
       id="stop7" /><stop
       offset="1"
       stop-opacity=".588235"
       id="stop9" /></linearGradient><linearGradient
     id="c"
     gradientTransform="matrix(1.0238095,0,0,1.0119048,-1.142857,-98.071429)"
     gradientUnits="userSpaceOnUse"
     x1="32.251034"
     x2="32.251034"
     xlink:href="#b"
     y1="6.1317081"
     y2="90.238609" /><linearGradient
     id="d"
     gradientTransform="translate(0,-97)"
     gradientUnits="userSpaceOnUse"
     x1="32.251034"
     x2="32.251034"
     xlink:href="#b"
     y1="6.1317081"
     y2="90.238609" /><linearGradient
     id="e"><stop
       offset="0"
       stop-color="#fff"
       id="stop14" /><stop
       offset="1"
       stop-color="#fff"
       stop-opacity="0"
       id="stop16" /></linearGradient><radialGradient
     id="f"
     cx="48"
     cy="90.171875"
     gradientTransform="matrix(1.1573129,0,0,0.99590774,-7.551021,0.197132)"
     gradientUnits="userSpaceOnUse"
     r="42"
     xlink:href="#e" /><linearGradient
     id="g"
     gradientUnits="userSpaceOnUse"
     x1="36.357143"
     x2="36.357143"
     xlink:href="#e"
     y1="6"
     y2="63.893143"
     gradientTransform="matrix(0.91995739,0,0,0.98668795,0.48025569,1.1935087)" /><linearGradient
     id="h"
     gradientTransform="rotate(-90,48.000087,47.999896)"
     gradientUnits="userSpaceOnUse"
     x1="18.000002"
     x2="78.000175"
     y1="47.999897"
     y2="47.999897"><stop
       offset="0"
       stop-color="#bababa"
       id="stop21"
       style="stop-color:#818181;stop-opacity:1;" /><stop
       offset="1"
       stop-color="#d2d2d2"
       id="stop23"
       style="stop-color:#a7a7a7;stop-opacity:1;" /></linearGradient><clipPath
     id="i"><path
       d="m -88,6 c -3.324,0 -6,2.676 -6,6 v 72 c 0,3.324 2.676,6 6,6 h 72 c 3.324,0 6,-2.676 6,-6 V 12 c 0,-3.324 -2.676,-6 -6,-6 z m 31.84375,12 h 8.3125 c 1.180648,0 2.125,0.986683 2.125,2.1875 v 4.21875 c 2.111082,0.562476 4.123141,1.426616 5.96875,2.5 l 3,-3.03125 c 0.849111,-0.849025 2.196406,-0.866085 3.03125,-0.03125 l 5.875,5.875 c 0.834848,0.834847 0.817863,2.18214 -0.03125,3.03125 l -3.03125,3 c 1.073391,1.845617 1.937528,3.857672 2.5,5.96875 h 4.21875 c 1.200827,0 2.1875,0.944356 2.1875,2.125 v 8.3125 c 0,1.180653 -0.986672,2.125 -2.1875,2.125 h -4.21875 c -0.562472,2.111079 -1.426609,4.123134 -2.5,5.96875 l 3.03125,3 c 0.849106,0.849111 0.866094,2.196416 0.03125,3.03125 l -5.875,5.875 c -0.834844,0.834921 -2.182138,0.81786 -3.03125,-0.03125 l -3,-3.03125 c -1.84561,1.073389 -3.857669,1.937515 -5.96875,2.5 v 4.21875 c 0,1.200828 -0.944354,2.1875 -2.125,2.1875 h -8.3125 c -1.180646,0 -2.125,-0.986673 -2.125,-2.1875 v -4.21875 c -2.111081,-0.562485 -4.123141,-1.426613 -5.96875,-2.5 l -3,3.03125 c -0.849114,0.849022 -2.196407,0.866084 -3.03125,0.03125 l -5.875,-5.875 c -0.417421,-0.417418 -0.6298,-0.981833 -0.625,-1.53125 0.0047,-0.549422 0.231693,-1.075441 0.65625,-1.5 l 3.03125,-3 c -1.073391,-1.845614 -1.937528,-3.857673 -2.5,-5.96875 h -4.21875 c -1.200828,0 -2.1875,-0.944347 -2.1875,-2.125 v -8.3125 c 0,-1.180643 0.986672,-2.125 2.1875,-2.125 h 4.21875 c 0.562472,-2.111076 1.426609,-4.123135 2.5,-5.96875 l -3.03125,-3 c -0.849107,-0.84911 -0.866093,-2.196403 -0.03125,-3.03125 l 5.875,-5.875 c 0.834843,-0.834932 2.182137,-0.817858 3.03125,0.03125 l 3,3.03125 c 1.845609,-1.073383 3.85767,-1.937533 5.96875,-2.5 V 20.1875 c 0,-1.200817 0.944355,-2.1875 2.125,-2.1875 z M -52,38.9375 c -5.006511,0 -9.0625,4.055982 -9.0625,9.0625 0,5.006505 4.055989,9.0625 9.0625,9.0625 5.00651,0 9.0625,-4.055995 9.0625,-9.0625 0,-5.00652 -4.05599,-9.0625 -9.0625,-9.0625 z"
       id="path26" /></clipPath><filter
     id="j"
     color-interpolation-filters="sRGB"
     height="1.3213328"
     width="1.3213336"
     x="-0.16066687"
     y="-0.16066641"><feGaussianBlur
       stdDeviation="3.6000051"
       id="feGaussianBlur29" /></filter><clipPath
     id="k"><rect
       height="84"
       rx="6"
       width="84"
       x="6"
       y="6"
       id="rect32" /></clipPath><filter
     id="l"
     color-interpolation-filters="sRGB"
     height="1.3915758"
     width="1.3915758"
     x="-0.19578789"
     y="-0.19578789"><feGaussianBlur
       stdDeviation="5.28"
       id="feGaussianBlur35" /></filter><linearGradient
     id="m"
     gradientUnits="userSpaceOnUse"
     x1="48"
     x2="48"
     xlink:href="#e"
     y1="20.220806"
     y2="138.66119" /><g
     id="g79"
     transform="matrix(0.5952381,0,0,0.5952381,-3.5714286,-3.5714286)"><rect
       fill="url(#a)"
       height="84"
       rx="10.709455"
       width="84"
       x="6"
       y="6"
       id="rect53"
       style="fill:url(#a)"
       ry="10.709455" /><g
       fill="#a80030"
       id="g2589"
       transform="matrix(0.2008109,0,0,0.2008109,22.307679,16.182048)"><path
         d="m 152.79662,167.42537 c -5.25095,0.0731 0.9935,2.70583 7.84865,3.76069 1.8935,-1.47856 3.61167,-2.97466 5.14283,-4.42984 -4.26913,1.04609 -8.61424,1.06947 -12.99148,0.66915"
         id="path2565"
         style="fill:url(#linearGradient972);fill-opacity:1" /><path
         d="m 180.9799,160.40073 c 3.12661,-4.31588 5.40581,-9.04086 6.20938,-13.92654 -0.70129,3.4831 -2.59187,6.4899 -4.3714,9.66326 -9.81521,6.18016 -0.92337,-3.67011 -0.006,-7.41328 -10.55448,13.2837 -1.44934,7.96554 -1.83213,11.67656"
         id="path2567"
         style="fill:url(#linearGradient970);fill-opacity:1" /><path
         d="m 191.38244,133.33075 c 0.63409,-9.45579 -1.86135,-6.46652 -2.69999,-2.85777 0.9789,0.50844 1.75324,6.66522 2.69999,2.85777"
         id="path2569"
         style="fill:url(#linearGradient968);fill-opacity:1" /><path
         d="m 132.88569,4.0879643 c 2.80225,0.5025946 6.05451,0.8883068 5.59867,1.5574589 3.06524,-0.6720742 3.76069,-1.2915513 -5.59867,-1.5574589"
         id="path2571"
         style="fill:url(#linearGradient966);fill-opacity:1" /><path
         d="m 138.48436,5.6454232 -1.98116,0.4090887 1.84382,-0.1636355 0.13734,-0.2454532"
         id="path2573"
         style="fill:url(#linearGradient964);fill-opacity:1" /><path
         d="m 225.86569,136.91612 c 0.31266,8.49151 -2.48375,12.61162 -5.00549,19.90509 l -4.53796,2.26752 c -3.71394,7.21165 0.35941,4.57887 -2.29967,10.31487 -5.79737,5.15452 -17.59373,16.12979 -21.36903,17.13205 -2.75551,-0.0614 1.86719,-3.25225 2.47206,-4.50289 -7.76099,5.32984 -6.22691,8.0006 -18.09633,11.23824 l -0.34772,-0.77142 c -29.27322,13.77168 -69.93663,-13.52038 -69.40189,-50.75913 -0.31266,2.36394 -0.88831,1.77369 -1.537,2.7292 -1.51071,-19.15996 8.848,-38.40465 26.31901,-46.262078 17.08821,-8.459369 37.12187,-4.987959 49.36238,6.419768 -6.72366,-8.807092 -20.1067,-18.14308 -35.96765,-17.269383 -15.53661,0.245453 -30.07094,10.1191 -34.92156,20.837223 -7.9597,5.01133 -8.88307,19.31775 -12.351558,21.93592 -4.666532,34.29623 8.777878,49.11401 31.520278,66.54411 3.57953,2.41362 1.00811,2.77888 1.49318,4.61685 -7.55646,-3.53861 -14.4759,-8.88014 -20.16515,-15.41972 3.01849,4.41816 6.27659,8.71359 10.48728,12.08857 -7.12399,-2.41362 -16.64115,-17.26354 -19.42003,-17.8684 12.28143,21.98851 49.827,38.56245 69.48663,30.33976 -9.09638,0.33604 -20.65313,0.18702 -30.8745,-3.59121 -4.29251,-2.20908 -10.13079,-6.78503 -9.08761,-7.64119 26.83037,10.02267 54.54612,7.59151 77.7619,-11.0191 5.90549,-4.59932 12.3574,-12.4246 14.22168,-12.53272 -2.8081,4.22238 0.47921,2.03083 -1.67727,5.75938 5.88504,-9.49085 -2.5568,-3.86296 6.08374,-16.38984 l 3.19089,4.39478 c -1.18636,-7.87788 9.78306,-17.44471 8.66975,-29.90438 2.5159,-3.81037 2.80811,4.09965 0.13734,12.86584 3.70517,-9.72462 0.97597,-11.28793 1.92856,-19.31191 1.02857,2.69707 2.37856,5.56361 3.07109,8.4097 -2.41362,-9.39735 2.47791,-15.82589 3.68764,-21.28722 -1.1922,-0.52889 -3.72563,4.15517 -4.3042,-6.94574 0.0847,-4.8214 1.34123,-2.52759 1.82629,-3.71394 -0.94675,-0.54351 -3.4305,-4.23991 -4.9412,-11.328836 1.09577,-1.665575 2.9279,4.318806 4.41815,4.564256 -0.95843,-5.636653 -2.6094,-9.935006 -2.67661,-14.259657 -4.35387,-9.0993 -1.53992,1.212656 -5.07269,-3.906796 -4.63439,-14.45544 3.84543,-3.354527 4.41815,-9.923322 7.02464,10.177541 11.03079,25.950835 12.86876,32.484565 -1.40259,-7.965545 -3.67011,-15.68271 -6.4373,-23.148578 2.13311,0.897073 -3.43634,-16.389844 2.77304,-4.941206 -6.63308,-24.40506 -28.38783,-47.208829 -48.40103,-57.909419 2.44869,2.241221 5.54023,5.055166 4.42984,5.496398 -9.95254,-5.925941 -8.20223,-6.387627 -9.62819,-8.891834 -8.10872,-3.299008 -8.64054,0.265908 -14.01129,0.0058 -15.28238,-8.105755 -18.22782,-7.243747 -32.2917,-12.32229 l 0.63993,2.9892691 c -10.12494,-3.3720592 -11.79636,1.279863 -22.73948,0.011688 -0.66623,-0.520127 3.50647,-1.8818077 6.93989,-2.3814803 -9.7889,1.2915513 -9.33014,-1.9285607 -18.90866,0.3564916 2.36103,-1.656809 4.85647,-2.7525822 7.37529,-4.1610159 -7.98308,0.4850622 -19.05769,4.6460781 -15.63888,0.8620082 C 96.316085,8.9298206 73.190888,17.085295 60.214012,29.25276 L 59.804924,26.526476 C 53.858528,33.665073 33.874548,47.845838 32.282025,57.091242 l -1.589602,0.371102 C 27.59796,62.7016 25.596347,68.63923 23.141816,74.030433 19.09476,80.926499 17.21003,76.683665 17.785676,77.764828 9.8259803,93.903375 5.8724309,107.46466 2.4565407,118.58603 4.8906182,122.224 2.514982,140.48688 3.4354314,155.10304 -0.56194899,227.28965 54.098137,297.37822 113.84553,313.5606 c 8.75742,3.13245 21.78105,3.01264 32.85859,3.33407 -13.07039,-3.73732 -14.75934,-1.98116 -27.49076,-6.41977 -9.18404,-4.32465 -11.19734,-9.26293 -17.70185,-14.90836 l 2.57434,4.54965 c -12.757724,-4.51458 -7.419118,-5.58698 -17.798281,-8.8743 l 2.74966,-3.59121 c -4.134717,-0.31266 -10.951887,-6.96912 -12.816162,-10.65384 l -4.523352,0.17825 C 66.26268,270.46895 63.366917,265.63586 63.577306,261.8927 l -1.461031,2.60356 c -1.656809,-2.84317 -19.995669,-25.15019 -10.481436,-19.95768 -1.767847,-1.6159 -4.117185,-2.62986 -6.665222,-7.2584 l 1.937326,-2.21493 c -4.57887,-5.89087 -8.427226,-13.44148 -8.135019,-15.95737 2.442843,3.299 4.137639,3.91556 5.814902,4.47952 -11.562598,-28.68881 -12.211295,-1.58084 -20.968714,-29.20309 l 1.852587,-0.14902 c -1.420122,-2.13895 -2.28213,-4.46199 -3.424657,-6.7412 l 0.80649,-8.03567 c -8.324954,-9.62527 -2.328884,-40.9264 -1.127916,-58.09351 0.832787,-6.9808 6.948662,-14.41161 11.600585,-26.064789 l -2.8344,-0.487985 c 5.417502,-9.449947 30.932945,-37.951737 42.749763,-36.484862 5.724319,-7.191194 -1.136683,-0.0263 -2.255832,-1.837977 12.573631,-13.011941 16.527181,-9.192806 25.012848,-11.533378 9.1519,-5.432112 -7.854502,2.118495 -3.51524,-2.071741 15.82004,-4.041212 11.21195,-9.186962 31.85047,-11.23825 2.17694,1.238955 -5.05224,1.913951 -6.86684,3.521085 13.18142,-6.448991 41.71243,-4.982116 60.24414,3.579525 21.50346,10.04897 45.66306,39.75465 46.61565,67.704172 l 1.08409,0.2922 c -0.54935,11.10968 1.70064,23.95799 -2.19739,35.76019 l 2.65323,-5.58698"
         id="path2575"
         style="fill:url(#linearGradient962);fill-opacity:1" /><path
         d="m 95.483297,174.6341 -0.736359,3.68179 c 3.450955,4.68699 6.188932,9.76553 10.595392,13.4298 -3.17043,-6.18893 -5.525615,-8.74573 -9.859033,-17.11159"
         id="path2577"
         style="fill:url(#linearGradient960);fill-opacity:1" /><path
         d="m 103.64169,174.31267 c -1.82629,-2.01915 -2.90745,-4.4503 -4.117181,-6.87269 1.157141,4.25744 3.526931,7.91586 5.733081,11.63565 l -1.6159,-4.76296"
         id="path2579"
         style="fill:url(#linearGradient958);fill-opacity:1" /><path
         d="m 248.00323,142.93557 -0.77142,1.9344 c -1.41428,10.04605 -4.46784,19.98691 -9.14898,29.20309 5.17205,-9.72462 8.51781,-20.36093 9.9204,-31.13749"
         id="path2581"
         style="fill:url(#linearGradient956);fill-opacity:1" /><path
         d="M 133.92302,1.5691471 C 137.47332,0.26882968 142.65122,0.85616408 146.41775,0 141.50869,0.4120107 136.623,0.65746388 131.79868,1.279863 l 2.12434,0.2892841"
         id="path2583"
         style="fill:url(#linearGradient954);fill-opacity:1" /><path
         d="m 9.2824769,67.847351 c 0.8181771,7.573984 -5.6980203,10.513578 1.4434981,5.519774 3.827901,-8.623004 -1.4960952,-2.38148 -1.4434981,-5.519774"
         id="path2585"
         style="fill:url(#linearGradient952);fill-opacity:1" /><path
         d="M 0.89031567,102.9004 C 2.5354364,97.85108 2.8334867,94.81798 3.46173,91.895919 -1.084998,97.707899 1.3695338,98.946854 0.89031567,102.9004"
         id="path2587"
         style="fill:url(#linearGradient950);fill-opacity:1" /></g><path
       id="rect1078"
       style="fill:#000000;stroke-width:2.7252;-inkscape-stroke:none;filter:url(#filter3180);stop-color:#000000"
       d="m 23.781094,11.812242 c -5.933032,0 -10.71,4.776967 -10.71,10.709999 v 53.389218 c 0,5.933032 4.776968,10.71 10.71,10.71 h 49.451718 c 5.933032,0 10.71,-4.776968 10.71,-10.71 V 22.522241 c 0,-5.933032 -4.776968,-10.709999 -10.71,-10.709999 z m 27.929999,5.453437 c -0.756359,0.171926 -1.797218,0.05388 -2.510156,0.315 l -0.426562,-0.05906 c 0.968773,-0.124984 1.950927,-0.173201 2.936718,-0.255937 z m -4.308281,0.452812 c -0.505806,0.282828 -1.005723,0.504014 -1.479844,0.836719 1.923468,-0.458863 1.830693,0.187169 3.796407,-0.07219 l 0.397031,-0.08203 c 0.09154,-0.134373 -0.562747,-0.214074 -1.125469,-0.315 1.879458,0.0534 1.741002,0.180041 1.125469,0.315 l -0.02625,0.04922 -0.370781,0.03281 c -0.689468,0.10034 -1.525036,0.374616 -1.39125,0.479063 2.197493,0.254663 2.531024,-0.680426 4.564218,-0.0033 l -0.127968,-0.600469 c 2.824173,1.019825 3.414886,0.846342 6.48375,2.474062 1.078502,0.05223 1.186994,-0.662475 2.815312,0 0.286346,0.502872 -0.06592,0.595009 1.932656,1.785 0.222976,-0.0886 -0.397497,-0.652439 -0.889218,-1.1025 4.01886,2.148791 8.387071,6.727958 9.719062,11.62875 -1.246908,-2.299007 -0.129461,1.171079 -0.557813,0.990938 0.555682,1.499224 1.01116,3.049965 1.292813,4.649531 -0.369082,-1.312043 -1.171721,-4.479368 -2.582344,-6.523125 -0.115008,1.319083 -1.819852,-0.911085 -0.889219,1.991719 0.709419,1.028039 0.146168,-1.043016 1.020469,0.784219 0.0135,0.868435 0.345664,1.732631 0.538125,2.864531 -0.299256,-0.04929 -0.669176,-1.249934 -0.889219,-0.915469 0.303365,1.42353 0.804104,2.164764 0.994219,2.273906 -0.0974,0.23823 -0.350491,-0.223345 -0.3675,0.744844 0.116183,2.229177 0.623564,1.288324 0.862969,1.394531 -0.242925,1.096692 -1.22296,2.388383 -0.738281,4.275469 -0.139068,-0.571523 -0.410327,-1.148243 -0.616875,-1.689844 -0.191289,1.611301 0.35685,1.925632 -0.387188,3.878438 0.536319,-1.760343 0.475689,-3.347505 -0.02953,-2.582344 0.223565,2.502033 -1.977294,4.422727 -1.739063,6.004687 l -0.643124,-0.882656 c -1.735111,2.51553 -0.03885,1.385232 -1.220625,3.291094 0.433042,-0.748731 -0.225928,-0.307101 0.337968,-1.155 -0.374367,0.02171 -1.672085,1.593128 -2.857968,2.516719 -4.661973,3.737205 -10.22765,4.224219 -15.615469,2.211562 -0.209482,0.171926 0.962393,1.092018 1.824375,1.535625 2.052558,0.758709 4.374914,0.786074 6.201562,0.718594 -3.94786,1.651202 -11.488915,-1.674476 -13.955156,-6.09 0.558029,0.121462 2.470835,3.101725 3.901406,3.586406 -0.845551,-0.67773 -1.500417,-1.540911 -2.106562,-2.428125 1.14246,1.313218 2.531646,2.386911 4.049062,3.0975 -0.0487,-0.184542 0.05793,-0.295393 0.08531,-0.42 0.02738,-0.124607 -0.0245,-0.262972 -0.383906,-0.505312 -4.566914,-3.500147 -7.26662,-6.477488 -6.329532,-13.364532 0.696508,-0.525754 0.882235,-3.39711 2.480625,-4.403437 0.974055,-2.152313 3.892116,-4.137585 7.012032,-4.186875 3.185044,-0.175447 5.871848,1.699724 7.222031,3.468281 -2.458024,-2.290792 -6.481165,-2.988261 -9.912656,-1.289531 -3.508362,1.577855 -5.589461,5.444979 -5.286094,9.2925 0.130264,-0.191875 0.245652,-0.07326 0.308437,-0.547969 -0.107381,7.477934 8.060381,12.957061 13.93875,10.191563 l 0.06891,0.154218 c 2.383504,-0.65015 2.077135,-1.187211 3.635625,-2.2575 -0.121465,0.251142 -1.052086,0.893296 -0.49875,0.905625 0.758118,-0.201264 3.127701,-2.403667 4.291875,-3.43875 0.533969,-1.151848 -0.283143,-0.625573 0.462656,-2.07375 l 0.908906,-0.456093 c 0.50639,-1.464605 1.070127,-2.291377 1.007344,-3.996563 l -0.534844,1.122188 c 0.782764,-2.370004 0.332653,-4.948437 0.442969,-7.179375 l -0.216563,-0.05906 c -0.19129,-5.612558 -5.043285,-11.579561 -9.361406,-13.5975 -3.721362,-1.719267 -9.451,-2.013619 -12.097969,-0.718593 0.364392,-0.32273 1.815278,-0.456674 1.378125,-0.705469 -4.144431,0.41192 -3.218327,1.445982 -6.395156,2.2575 -0.871369,0.841443 2.543266,-0.677388 0.705469,0.413437 -1.704011,0.470012 -2.498677,-0.296372 -5.023594,2.316563 0.224737,0.363804 1.602316,-1.073286 0.452813,0.370781 -2.372941,-0.294564 -7.495859,5.429383 -8.58375,7.327031 l 0.567656,0.09516 c -0.934155,2.34008 -2.162455,3.835055 -2.329687,5.236874 -0.241167,3.447336 -1.442051,9.731989 0.229687,11.664844 l -0.164062,1.614375 c 0.229431,0.45769 0.403887,0.922351 0.689062,1.351875 l -0.374062,0.02953 c 1.758581,5.546838 1.891234,0.105861 4.213125,5.866875 -0.336812,-0.113249 -0.677577,-0.239869 -1.168125,-0.902343 -0.05868,0.505217 0.714577,2.022833 1.634062,3.205781 l -0.390469,0.44625 c 0.511673,0.92946 0.983748,1.132385 1.33875,1.456875 -1.910557,-1.04271 1.770577,3.435467 2.103282,4.006406 l 0.295312,-0.521719 c -0.04225,0.751667 0.539369,1.721306 1.630781,3.067969 l 0.908906,-0.03609 c 0.374366,0.739931 1.742206,2.07659 2.5725,2.139375 l -0.55125,0.721875 c 2.084245,0.660127 1.011397,0.875143 3.573282,1.781719 l -0.518438,-0.912188 c 1.306173,1.133661 1.712624,2.124064 3.556875,2.9925 2.556604,0.891319 2.89439,0.539038 5.519063,1.289532 -2.224487,-0.06455 -4.840012,-0.04035 -6.598594,-0.669375 C 33.170377,76.983273 22.194159,62.907133 22.996875,48.411303 22.812039,45.476226 23.288788,41.811532 22.8,41.080991 c 0.685946,-2.233288 1.479422,-4.959054 3.077812,-8.199844 -0.115595,-0.217109 0.263559,0.636678 1.07625,-0.748125 0.492896,-1.08261 0.894537,-2.27509 1.515938,-3.327187 l 0.321562,-0.07547 c 0.319796,-1.856574 4.331527,-4.702432 5.525625,-6.135937 l 0.08203,0.544687 c 2.605892,-2.443355 7.248743,-4.080199 9.863437,-5.246719 -0.686534,0.759881 1.53707,-0.0765 3.140156,-0.173906 z m -23.23125,13.170938 c -0.01056,0.630202 1.057433,-0.622528 0.28875,1.109062 -1.434092,1.002808 -0.124451,0.411873 -0.28875,-1.109062 z m -1.168125,4.83 c -0.126157,0.58678 -0.18808,1.197605 -0.518437,2.211562 0.09623,-0.793914 -0.394593,-1.044456 0.518437,-2.211562 z m 37.576875,7.051406 c 0.130411,-0.0033 0.221165,0.320433 0.1575,1.269843 -0.190117,0.764577 -0.344833,-0.472118 -0.541406,-0.574218 0.0842,-0.362337 0.253494,-0.692324 0.383906,-0.695625 z m 11.530312,3.199218 c -0.281653,2.164047 -0.953115,4.297976 -1.991718,6.250782 0.940023,-1.850706 1.550218,-3.846242 1.834218,-5.863594 z m -12.212812,0.70875 c -0.161365,0.981097 -0.61902,1.932234 -1.246875,2.798907 0.07687,-0.745211 -1.75195,0.321413 0.3675,-2.346094 -0.184218,0.751669 -1.970997,2.73073 0,1.489687 0.357349,-0.637242 0.738549,-1.243056 0.879375,-1.9425 z m -4.298437,4.072032 c -0.307474,0.292215 -0.653359,0.595589 -1.033594,0.8925 -1.376588,-0.211828 -2.629447,-0.74329 -1.575,-0.757969 0.878994,0.08039 1.751307,0.07553 2.608594,-0.134531 z m -13.305469,0.137812 c 0.242927,0.486442 0.460136,0.975939 0.826875,1.381406 l 0.324844,0.954844 c -0.443019,-0.746971 -0.919353,-1.48131 -1.151719,-2.33625 z m -0.81375,1.447031 c 0.870196,1.679953 1.345219,2.192668 1.981875,3.435469 -0.884864,-0.735823 -1.436543,-1.75599 -2.129531,-2.697187 z"
       clip-path="url(#clipPath3174)" /></g></svg>
