<?xml version="1.0" encoding="UTF-8" standalone="no"?>
<!-- Created with Inkscape (http://www.inkscape.org/) -->

<svg
   width="50mm"
   height="50mm"
   viewBox="0 0 50 50"
   version="1.1"
   id="svg1"
   xml:space="preserve"
   sodipodi:docname="Dgraph_Box.svg"
   inkscape:version="1.4.3 (0d15f75, 2025-12-25)"
   inkscape:export-filename="Cairo_Box.png"
   inkscape:export-xdpi="96"
   inkscape:export-ydpi="96"
   xmlns:inkscape="http://www.inkscape.org/namespaces/inkscape"
   xmlns:sodipodi="http://sodipodi.sourceforge.net/DTD/sodipodi-0.dtd"
   xmlns:xlink="http://www.w3.org/1999/xlink"
   xmlns="http://www.w3.org/2000/svg"
   xmlns:svg="http://www.w3.org/2000/svg"><sodipodi:namedview
     id="namedview1"
     pagecolor="#ffffff"
     bordercolor="#000000"
     borderopacity="0.25"
     inkscape:showpageshadow="2"
     inkscape:pageopacity="0.0"
     inkscape:pagecheckerboard="0"
     inkscape:deskcolor="#d1d1d1"
     inkscape:document-units="mm"
     inkscape:zoom="0.54676662"
     inkscape:cx="-205.75506"
     inkscape:cy="205.75506"
     inkscape:window-width="2560"
     inkscape:window-height="1369"
     inkscape:window-x="-8"
     inkscape:window-y="-8"
     inkscape:window-maximized="1"
     inkscape:current-layer="layer1"><inkscape:page
       x="0"
       y="0"
       width="50"
       height="50"
       id="page1"
       margin="0"
       bleed="0" /></sodipodi:namedview><defs
     id="defs1"><linearGradient
       id="linearGradient8"><stop
         style="stop-color:#951912;stop-opacity:1;"
         offset="0.00155039"
         id="stop7" /><stop
         style="stop-color:#8f1559;stop-opacity:1;"
         offset="0.99834436"
         id="stop8" /></linearGradient><linearGradient
       id="linearGradient4"
       inkscape:collect="always"><stop
         style="stop-color:#ff1800;stop-opacity:1;"
         offset="0"
         id="stop4" /><stop
         style="stop-color:#ff009b;stop-opacity:1;"
         offset="1"
         id="stop6" /></linearGradient><linearGradient
       xlink:href="#linearGradient8"
       id="linearGradient1"
       x1="-1.1713675e-05"
       y1="25.000019"
       x2="50.000011"
       y2="25.000019"
       gradientUnits="userSpaceOnUse"
       gradientTransform="matrix(0.98039216,0,0,0.98039216,0.49019623,0.49019623)" /><filter
       inkscape:collect="always"
       style="color-interpolation-filters:sRGB"
       id="filter1"
       x="-0.06882552"
       y="-0.06882552"
       width="1.137651"
       height="1.137651"><feGaussianBlur
         inkscape:collect="always"
         stdDeviation="0.9600145"
         id="feGaussianBlur1" /></filter><linearGradient
       id="logosDgraph0"
       x1="-4.8570485e-05"
       x2="141.342"
       y1="70.671022"
       y2="70.671022"
       gradientTransform="matrix(2.6077978,0,0,3.1010267,71.704385,-242.81383)"
       gradientUnits="userSpaceOnUse"><stop
         offset="0%"
         stop-color="#FF1800"
         id="stop1-0" /><stop
         offset="100%"
         stop-color="#FF009B"
         id="stop2" /></linearGradient><linearGradient
       inkscape:collect="always"
       xlink:href="#linearGradient4"
       id="linearGradient6"
       x1="-2.2053719e-06"
       y1="25"
       x2="50.000003"
       y2="25"
       gradientUnits="userSpaceOnUse" /><linearGradient
       inkscape:collect="always"
       xlink:href="#logosDgraph0"
       id="linearGradient10"
       x1="-57.617737"
       y1="318.13022"
       x2="569.61768"
       y2="318.13022"
       gradientUnits="userSpaceOnUse" /></defs><g
     id="layer1"
     inkscape:label="Cassandra"><rect
       style="font-variation-settings:normal;display:inline;fill:url(#linearGradient1);stroke:none;stroke-width:0.980392;stroke-linecap:butt;stroke-linejoin:miter;stroke-miterlimit:4;stroke-dasharray:none;stroke-dashoffset:0;stroke-opacity:1;stop-color:#000000"
       id="rect1-18"
       width="49.019608"
       height="49.019608"
       x="0.49019623"
       y="0.49019623"
       rx="7.0571675"
       ry="7.0571675"
       inkscape:label="Background" /><rect
       style="font-variation-settings:normal;display:inline;fill:none;stroke:#000000;stroke-width:1.99928;stroke-linecap:butt;stroke-linejoin:miter;stroke-miterlimit:4;stroke-dasharray:none;stroke-dashoffset:0;stroke-opacity:1;stop-color:#000000;filter:url(#filter1)"
       id="rect1"
       width="48.000725"
       height="48.000725"
       x="0.99963778"
       y="0.99963778"
       rx="6.9104829"
       ry="6.9104829"
       inkscape:label="Shadow" /><g
       id="g2"
       transform="matrix(0.05580042,0,0,0.05580042,10.715094,20.699741)"
       inkscape:label="Logo"><path
         fill="url(#logosDgraph0)"
         d="m 369.34429,-163.90007 a 53.183603,53.183603 0 0 0 6.55198,-25.56522 c -0.0483,-29.44407 -23.90446,-53.30019 -53.3457,-53.34853 a 53.433852,53.433852 0 0 0 -51.79016,40.53465 l -14.75048,-0.58013 C 154.23252,-202.845 71.732816,-120.34821 71.704378,-18.570801 A 183.70837,183.70837 0 0 0 124.09173,110.11123 52.924823,52.924823 0 0 0 113.36231,142.1431 c 0.0483,29.44408 23.90446,53.3002 53.34854,53.34854 22.53947,0 41.97642,-14.15044 49.72277,-34.06799 12.99589,2.84374 26.25909,4.27699 39.55925,4.27983 101.7831,-0.0171 184.28849,-82.525297 184.30271,-184.302719 A 183.75103,183.75103 0 0 0 369.34429,-163.86879 Z m -46.80793,7.18044 c -2.79255,0 -5.57373,-0.34978 -8.27528,-1.0465 l -22.12998,64.211623 32.32478,-5.272288 -45.52826,74.19883 37.88429,-9.202339 L 189.2361,118.28129 a 32.759871,32.759871 0 0 1 -40.08534,51.39489 32.759871,32.759871 0 0 1 29.38151,-58.19711 l 36.15529,-78.8711 -35.27942,9.552126 57.36675,-82.1215 -35.26521,8.531216 99.98586,-133.121102 a 32.759871,32.759871 0 0 1 21.02375,-57.83312 c 18.08618,0 32.75134,14.65663 32.75988,32.74566 0,18.08617 -14.65663,32.75134 -32.74565,32.75987 z"
         id="path2"
         style="fill:url(#logosDgraph0);stroke-width:2.84374"
         inkscape:label="Icon" /><path
         d="m -57.617736,226.89379 h 47.7010717 c 18.5464905,0.1286 32.3005953,8.03983 41.5448623,23.73915 3.301782,5.28684 5.379206,10.81275 6.261252,16.69184 0.684626,5.79578 0.927325,15.80255 0.927325,30.01851 0,15.11611 -0.528866,25.68797 -1.575728,31.66849 a 36.350397,36.350397 0 0 1 -2.245864,8.1141 c -1.05773,2.3183 -2.336423,4.63661 -3.839703,7.23385 -3.986409,6.62168 -9.550356,12.10231 -16.64475,16.41473 -7.0491158,4.63662 -15.7645171,6.95494 -25.910751,6.95494 h -46.217715 z m 20.642023,120.69347 h 24.704514 c 11.60966788,0 20.0316582,-4.09871 25.278649,-12.28706 2.318311,-3.03372 3.7745,-6.86437 4.395735,-11.51911 0.556032,-4.58047 0.927325,-13.16728 0.927325,-25.73325 l -0.927325,-26.31646 c -0.742584,-5.28864 -2.521164,-9.58115 -5.332116,-12.87206 -5.7486868,-8.18835 -13.8627769,-12.05702 -24.342268,-11.89946 h -24.722626 v 100.61833 z m 166.586973,9.61736 c -6.41701,7.49104 -14.77198,11.35791 -25.03776,11.62778 -6.286602,-0.13946 -11.517298,-1.52139 -15.690258,-4.15485 -4.357701,-2.50305 -7.697518,-5.22163 -10.015829,-8.11408 -2.550143,-3.28368 -4.38668,-7.30811 -5.507801,-12.0842 -1.186323,-4.70002 -1.854649,-13.64906 -1.854649,-26.85438 0,-13.46613 0.583201,-22.58179 1.854649,-27.35788 1.112065,-4.70182 2.966715,-8.66107 5.507801,-11.86867 2.318311,-3.13334 5.638205,-5.95335 10.015829,-8.45821 4.17296,-2.36541 9.403656,-3.70931 15.690258,-3.73647 9.64454,0 18.00858,3.95924 25.03776,11.86866 v -10.63525 h 19.47563 v 97.79652 c -0.25175,15.05996 -4.45188,26.13352 -12.61306,33.21705 -8.21552,7.28095 -18.04479,10.91599 -29.50776,10.91599 -13.131061,-0.26081 -24.342268,-5.84287 -33.615513,-16.76611 l 15.14147,-12.4265 a 37.187162,37.187162 0 0 0 8.597681,6.11998 22.071048,22.071048 0 0 0 10.283882,3.00474 c 6.65971,0 12.02805,-1.90174 16.07242,-5.72333 3.9864,-3.89403 6.04572,-9.24426 6.17612,-16.10683 v -10.26577 z m -38.540112,-39.55256 0.742584,15.88405 c 0.434684,3.03373 1.465246,5.56576 3.088066,7.55987 1.29861,1.80756 3.31084,3.44849 5.989572,4.93366 2.55195,1.80755 5.7505,2.71677 9.55217,2.71677 3.80348,0 6.98392,-0.90922 9.55216,-2.71677 2.5592,-1.48517 4.48812,-3.13515 5.80484,-4.93366 a 16.599471,16.599471 0 0 0 3.27281,-7.55805 c 0.37128,-2.91238 0.55784,-8.20827 0.55784,-15.88587 l -0.55784,-16.27527 c -0.55604,-3.03191 -1.64818,-5.48787 -3.27281,-7.36245 -1.29861,-1.80937 -3.24564,-3.58976 -5.80484,-5.33211 -2.55919,-1.48517 -5.73057,-2.29115 -9.55216,-2.41069 -3.70929,0.1286 -6.9821,0.92733 -9.55217,2.40887 -2.781972,1.74417 -4.672842,3.52456 -5.989572,5.33393 -1.62282,1.87276 -2.651572,4.33054 -3.088066,7.36245 -0.501696,3.04278 -0.742584,8.46727 -0.742584,16.27527 m 96.499712,-50.20593 h 19.47381 v 10.61714 h 0.40933 c 6.42606,-7.91848 14.83719,-11.86866 25.26053,-11.86866 a 31.065371,31.065371 0 0 1 20.40114,7.69751 l -14.22501,17.41451 c -4.11863,-3.35794 -8.39301,-5.03509 -12.82497,-5.03509 a 17.990458,17.990458 0 0 0 -12.82497,5.02603 c -3.98822,3.28186 -6.05659,8.60492 -6.18699,15.94926 v 60.42642 h -19.47381 z m 134.24289,91.34328 h -0.37128 a 16.41473,16.41473 0 0 1 -8.41113,7.53813 c -3.73646,1.66991 -8.90195,2.50486 -15.51457,2.50486 -10.84897,-0.13946 -19.19671,-3.08806 -25.03777,-8.88383 -6.16706,-5.56395 -9.25512,-12.98255 -9.25512,-21.71787 0,-8.34774 2.78197,-15.41315 8.03982,-20.95898 5.25786,-5.54584 13.20533,-8.54879 23.55441,-8.68824 h 27.01376 v -10.57187 c 0.11954,-8.86573 -6.50939,-13.16728 -19.91936,-12.98254 -4.86846,0 -8.6991,0.50894 -11.49919,1.54856 a 14.09642,14.09642 0 0 0 -6.90784,6.21235 L 268.2499,280.79091 c 7.4186,-9.98867 18.34364,-14.85712 32.80048,-14.59812 12.20374,-0.12859 21.95876,2.25493 29.24876,7.14149 7.28819,5.00792 10.99749,13.65087 11.12789,25.96508 v 68.54957 h -19.47562 z m 0,-33.61551 h -23.41674 c -11.37785,0.25899 -16.98888,4.28344 -16.87659,12.08056 0,3.40503 1.46525,6.30835 4.40479,8.70092 2.80915,2.64251 7.46569,3.95924 13.95696,3.95924 8.17929,0.1304 13.95515,-0.87118 17.34025,-2.99569 3.06089,-2.13357 4.59133,-6.95494 4.59133,-14.49488 z m 57.77305,-57.72777 h 19.47382 v 10.42334 c 6.49127,-7.46568 14.83719,-11.35972 25.03776,-11.68573 11.89945,0.31696 20.58768,4.70182 26.07738,13.13106 2.78197,3.15326 4.50621,7.29906 5.5078,12.45549 0.92732,5.10028 1.39098,13.72512 1.39098,25.96508 0,11.8415 -0.46366,20.33775 -1.39098,25.50143 -0.99072,5.14738 -2.82726,9.27324 -5.506,12.66015 -2.78377,3.85782 -6.21415,6.95494 -10.57366,9.27325 -4.29251,2.3817 -9.458,3.70749 -15.50371,3.76363 a 26.428749,26.428749 0 0 1 -13.3647,-3.36517 42.379817,42.379817 0 0 1 -11.68393,-8.45822 v 51.20751 H 379.57774 V 267.43707 Z m 38.66871,81.30028 c 4.60946,0 8.34773,-0.90922 10.94315,-2.71677 a 15.485595,15.485595 0 0 0 5.71247,-7.16866 38.550981,38.550981 0 0 0 2.52297,-10.08103 l 0.18474,-11.12789 -0.18474,-11.72196 a 35.980915,35.980915 0 0 0 -2.52297,-10.07016 c -1.06497,-2.96853 -3.0609,-5.56395 -5.71247,-7.16866 -2.78198,-1.61195 -6.33369,-2.41069 -10.94134,-2.41069 -4.35951,0 -7.83698,0.92734 -10.38712,2.80915 a 16.351339,16.351339 0 0 0 -5.8972,7.36245 37.743194,37.743194 0 0 0 -2.33643,9.88724 115.60223,115.60223 0 0 0 -0.55784,11.33074 c 0,3.56078 0.18655,7.10345 0.55784,10.66424 0.36948,3.73827 1.14829,7.14148 2.33643,10.1734 a 16.320549,16.320549 0 0 0 5.8972,7.36425 c 2.55014,1.85466 6.02761,2.90152 10.38712,2.90152 z m 73.85451,-121.85262 h 19.47382 v 51.16948 h 0.37129 a 30.88063,30.88063 0 0 1 25.23337,-11.87953 c 8.03077,0 15.39504,2.93048 22.04207,8.78423 6.61262,5.93343 10.06292,14.6126 10.38712,25.96508 v 66.61885 h -19.47381 v -59.74904 c 0,-7.02738 -1.80937,-12.37037 -5.42449,-16.04163 -3.55173,-3.73828 -8.13221,-5.61104 -13.75411,-5.61104 -5.61828,0 -10.21868,1.85465 -13.83561,5.61104 -3.68032,3.67126 -5.52591,9.0233 -5.52591,16.04163 v 59.75085 h -19.47562 z"
         id="path3"
         style="stroke-width:1.81119;fill:url(#linearGradient10);fill-opacity:1"
         inkscape:label="Text" /></g><rect
       style="font-variation-settings:normal;display:inline;fill:none;stroke:url(#linearGradient6);stroke-width:1.99928;stroke-linecap:butt;stroke-linejoin:miter;stroke-miterlimit:4;stroke-dasharray:none;stroke-dashoffset:0;stroke-opacity:1;stop-color:#000000"
       id="rect1-18-1"
       width="48.000725"
       height="48.000725"
       x="0.99963778"
       y="0.99963778"
       rx="6.9104829"
       ry="6.9104829"
       inkscape:label="Frame" /></g><style
     type="text/css"
     id="style1">
	.st0{fill:url(#ICON_00000088831890668800157600000002638584723837204667_);}
</style><style
     id="style1-7">.st10{fill:#333}</style><style
     type="text/css"
     id="style1-1">
	.st0{fill:url(#ICON_00000088831890668800157600000002638584723837204667_);}
</style><style
     id="style1-7-2">.st10{fill:#333}</style></svg>
