<?xml version="1.0" encoding="UTF-8" standalone="no"?>
<svg
   inkscape:version="1.4.2 (ebf0e940d0, 2025-05-08)"
   sodipodi:docname="Docker_Box.svg"
   viewBox="0 0 500.49978 500.49979"
   height="500.49979"
   width="500.49979"
   id="svg10"
   version="1.1"
   xml:space="preserve"
   inkscape:export-filename="Docker_Box.svg"
   inkscape:export-xdpi="196.41167"
   inkscape:export-ydpi="196.41167"
   xmlns:inkscape="http://www.inkscape.org/namespaces/inkscape"
   xmlns:sodipodi="http://sodipodi.sourceforge.net/DTD/sodipodi-0.dtd"
   xmlns:xlink="http://www.w3.org/1999/xlink"
   xmlns="http://www.w3.org/2000/svg"
   xmlns:svg="http://www.w3.org/2000/svg"
   xmlns:rdf="http://www.w3.org/1999/02/22-rdf-syntax-ns#"
   xmlns:cc="http://creativecommons.org/ns#"
   xmlns:dc="http://purl.org/dc/elements/1.1/"><metadata
     id="metadata16"><rdf:RDF><cc:Work
         rdf:about=""><dc:format>image/svg+xml</dc:format><dc:type
           rdf:resource="http://purl.org/dc/dcmitype/StillImage" /><dc:title /></cc:Work></rdf:RDF></metadata><defs
     id="defs14"><linearGradient
       id="linearGradient19"
       inkscape:collect="always"><stop
         id="stop1"
         offset="0"
         style="stop-color:#1b81a5;stop-opacity:1;" /><stop
         id="stop18"
         offset="1"
         style="stop-color:#37b1d9;stop-opacity:1;" /></linearGradient><linearGradient
       id="linearGradient14"
       inkscape:collect="always"><stop
         style="stop-color:#37b1d9;stop-opacity:1;"
         offset="0.00138609"
         id="stop14" /><stop
         style="stop-color:#1d91b4;stop-opacity:1;"
         offset="0.50430226"
         id="stop17" /><stop
         style="stop-color:#1b81a5;stop-opacity:1;"
         offset="1"
         id="stop15" /></linearGradient><linearGradient
       id="linearGradient857"
       inkscape:collect="always"><stop
         id="stop853"
         offset="0"
         style="stop-color:#ffffff;stop-opacity:0;" /><stop
         id="stop19"
         offset="1"
         style="stop-color:#ffffff;stop-opacity:1;" /><stop
         id="stop855"
         offset="1"
         style="stop-color:#ffffff;stop-opacity:0;" /></linearGradient><radialGradient
       inkscape:collect="always"
       xlink:href="#linearGradient14"
       id="radialGradient17"
       gradientUnits="userSpaceOnUse"
       gradientTransform="matrix(2.138732,0,0,1.4723629,-57.074454,-46.405346)"
       cx="50.121059"
       cy="98.240883"
       fx="50.121059"
       fy="98.240883"
       r="51.06337" /><linearGradient
       inkscape:collect="always"
       xlink:href="#linearGradient19"
       id="linearGradient17"
       gradientUnits="userSpaceOnUse"
       x1="50.121063"
       y1="-8.828938e-07"
       x2="50.121063"
       y2="100" /><linearGradient
       inkscape:collect="always"
       xlink:href="#linearGradient857"
       id="linearGradient18"
       x1="50.121063"
       y1="-1.0633707"
       x2="50.121063"
       y2="48.29549"
       gradientUnits="userSpaceOnUse" /></defs><sodipodi:namedview
     inkscape:current-layer="g18"
     inkscape:window-maximized="1"
     inkscape:window-y="0"
     inkscape:window-x="0"
     inkscape:cy="319.18575"
     inkscape:cx="98.98413"
     inkscape:zoom="1.6416773"
     showgrid="false"
     id="namedview12"
     inkscape:window-height="1412"
     inkscape:window-width="2560"
     inkscape:pageshadow="2"
     inkscape:pageopacity="0"
     guidetolerance="10"
     gridtolerance="10"
     objecttolerance="10"
     borderopacity="1"
     bordercolor="#666666"
     pagecolor="#ffffff"
     inkscape:showpageshadow="2"
     inkscape:pagecheckerboard="0"
     inkscape:deskcolor="#d1d1d1"><inkscape:page
       x="0"
       y="0"
       width="500.49979"
       height="500.49979"
       id="page1"
       margin="0"
       bleed="0" /></sodipodi:namedview><g
     id="g18"
     inkscape:label="FreeBSD"
     inkscape:groupmode="layer"
     transform="translate(0.00989297,0.80989586)"><rect
       style="clip-rule:evenodd;opacity:1;fill:url(#radialGradient17);fill-rule:evenodd;stroke:none;stroke-width:2.12674;stroke-linejoin:round;stroke-miterlimit:2;stroke-dasharray:none;stroke-opacity:1"
       id="rect8"
       width="100"
       height="100"
       x="0.12106147"
       y="0"
       ry="21.520769"
       transform="matrix(4.9007712,0,0,4.9007712,4.6081476,4.4014407)"
       inkscape:label="Background" /><rect
       style="clip-rule:evenodd;opacity:1;fill:url(#linearGradient18);fill-rule:evenodd;stroke:none;stroke-width:2.12674;stroke-linejoin:round;stroke-miterlimit:2;stroke-dasharray:none;stroke-opacity:1"
       id="rect18"
       width="100"
       height="100"
       x="0.12106147"
       y="0"
       ry="21.520769"
       transform="matrix(4.9007712,0,0,4.9007712,4.6081455,4.401437)"
       inkscape:label="Light" /><g
       fill="none"
       fill-rule="evenodd"
       id="g16"
       transform="matrix(1.4287265,0,0,1.4287265,67.591608,139.00972)"
       inkscape:label="Logo"><path
         d="m 154.32234,11.802368 h 30.69576 v 31.379048 h 15.51971 c 7.16852,0 14.53974,-1.27664 21.32701,-3.576204 3.33591,-1.13166 7.07858,-2.704975 10.36885,-4.685043 -4.33333,-5.656955 -6.54564,-12.799967 -7.19537,-19.840956 -0.88599,-9.5781606 1.04709,-22.0438651 7.52829,-29.539934 l 3.22717,-3.731925 3.84469,3.091591 c 9.68019,7.7766346 17.82196,18.6448603 19.25701,31.034047 11.65622,-3.428539 25.34219,-2.617718 35.61572,3.311748 l 4.2152,2.432464 -2.21768,4.330644 C 287.81922,42.965287 269.65226,48.219516 251.89206,47.289219 225.31618,113.48257 167.45657,144.82 97.30309,144.82 61.057772,144.82 27.806049,131.27096 8.8698836,99.114654 L 8.5597848,98.591111 5.8011134,92.977114 C -0.59954127,78.822646 -2.7259333,63.316362 -1.2841751,47.82216 l 0.43360144,-4.640744 H 25.399091 V 11.802368 h 30.694415 v -30.695757 h 61.392854 v -30.695757 h 36.83598 v 61.391514"
         fill="#364548"
         id="path1"
         sodipodi:nodetypes="cccscccccccccccsccccccccccccc"
         style="stroke-width:1.34242" /><path
         d="m 253.77144,23.411609 c 2.05793,-15.9962668 -9.91242,-28.5599679 -17.336,-34.525679 -8.55524,9.8909447 -9.88423,35.813059 3.53728,46.726927 -7.4907,6.65303 -23.27353,12.683177 -39.43491,12.683177 H 3.8129906 C 2.2423601,65.166215 5.2037369,80.702033 11.968187,93.998695 L 14.206,98.093073 a 75.895011,75.895011 0 0 0 4.638058,6.959097 c 8.088076,0.51952 15.545214,0.69806 22.367389,0.54771 h 0.0027 c 13.406741,-0.29533 24.346115,-1.87939 32.636896,-4.75216 a 2.3640002,2.3640002 0 0 1 1.547809,4.46488 c -1.103469,0.38394 -2.252579,0.74102 -3.439278,1.08065 h -0.004 c -6.528185,1.86462 -13.528901,3.11844 -22.560697,3.67554 0.536968,0.009 -0.558446,0.0805 -0.561131,0.0805 -0.307414,0.0201 -0.694031,0.0644 -1.002787,0.0805 -3.554726,0.20003 -7.39136,0.24164 -11.313909,0.24164 -4.290372,0 -8.514965,-0.0805 -13.238938,-0.32218 l -0.120818,0.0805 c 16.390938,18.42337 42.020405,29.47282 74.147181,29.47282 67.990845,0 125.661175,-30.14 151.199355,-97.804636 18.11729,1.85925 35.52981,-2.761357 43.45008,-18.223341 -12.61605,-7.279939 -28.84053,-4.958896 -38.18243,-0.263114"
         fill="#22a0c8"
         id="path2"
         style="stroke-width:1.34242" /><path
         d="m 253.77144,23.411609 c 2.05793,-15.9962668 -9.91242,-28.5599679 -17.336,-34.525679 -8.55524,9.8909447 -9.88423,35.813059 3.53728,46.726927 -7.4907,6.65303 -23.27353,12.683177 -39.43491,12.683177 H 15.462504 c -0.802766,25.836199 8.784791,45.447601 25.7476,57.303846 h 0.004 c 13.406741,-0.29533 24.346115,-1.87939 32.636896,-4.75216 a 2.3640002,2.3640002 0 0 1 1.547809,4.46488 c -1.103469,0.38394 -2.252579,0.74102 -3.439278,1.08065 h -0.004 c -6.528185,1.86462 -14.130305,3.27953 -23.162101,3.83663 -0.0027,0 -0.218814,-0.20807 -0.221499,-0.20807 23.139279,11.86967 56.690359,11.82671 95.157379,-2.94929 43.13193,-16.570827 83.26892,-48.139157 111.27313,-84.246206 -0.42152,0.190624 -0.8323,0.385275 -1.231,0.585295"
         fill="#37b1d9"
         id="path3"
         style="stroke-width:1.34242" /><path
         d="m 4.1821559,68.793432 c 1.2216014,9.037166 3.8661672,17.498434 7.7860311,25.205263 L 14.206,98.093073 a 75.755399,75.755399 0 0 0 4.638058,6.959097 c 8.089418,0.51952 15.546557,0.69806 22.370073,0.54771 13.406741,-0.29533 24.346115,-1.87939 32.636896,-4.75216 a 2.3640002,2.3640002 0 0 1 1.547809,4.46488 c -1.103469,0.38394 -2.252579,0.74102 -3.439278,1.08065 h -0.004 c -6.528185,1.86462 -14.090032,3.19899 -23.121828,3.75743 -0.310099,0.0188 -0.851094,0.0228 -1.163878,0.0403 -3.552041,0.19868 -7.349745,0.32084 -11.273636,0.32084 -4.289029,0 -8.676055,-0.0819 -13.397343,-0.32218 16.390938,18.42336 42.17881,29.51309 74.305586,29.51309 58.207301,0 108.848721,-22.09354 138.240991,-70.909268 H 4.1821559"
         fill="#1b81a5"
         id="path4"
         style="stroke-width:1.34242" /><path
         d="m 17.233155,68.793432 c 3.479551,15.867395 11.84148,28.323702 23.980976,36.806448 13.406741,-0.29533 24.346115,-1.87939 32.636896,-4.75216 a 2.3640002,2.3640002 0 0 1 1.547809,4.46488 c -1.103469,0.38394 -2.252579,0.74102 -3.439278,1.08065 h -0.004 c -6.528185,1.86462 -14.24978,3.19899 -23.282919,3.75743 23.137937,11.86699 56.592371,11.6965 95.056701,-3.07816 23.2695,-8.940517 45.66508,-22.249261 65.75707,-38.279088 H 17.233155"
         fill="#1d91b4"
         id="path5"
         style="stroke-width:1.34242" /><path
         d="M 30.513708,16.918328 H 57.117771 V 43.522391 H 30.513708 Z m 2.216334,2.217676 h 2.099544 v 22.170053 h -2.099544 z m 3.946713,0 h 2.184116 V 41.306057 H 36.678097 V 19.136004 Z m 4.029942,0 h 2.184116 v 22.170053 h -2.184116 z m 4.032627,0 h 2.182774 v 22.170053 h -2.182774 z m 4.031285,0 h 2.182774 v 22.170053 h -2.182774 z m 4.029942,0 h 2.100886 v 22.170053 h -2.100886 z m 8.408914,-32.913433 h 26.605406 v 26.60272 H 61.208123 v -26.60272 z m 2.217677,2.217676 h 2.098201 v 22.16871 h -2.098201 z m 3.946712,0 h 2.182774 v 22.16871 h -2.181432 v -22.16871 z m 4.029942,0 h 2.182774 v 22.16871 h -2.182774 z m 4.031285,0 h 2.182774 v 22.16871 h -2.182774 z m 4.031285,0 h 2.184116 v 22.16871 h -2.184116 z m 4.029942,0 h 2.102229 v 22.16871 h -2.102229 z"
         fill="#23a3c2"
         id="path6"
         style="stroke-width:1.34242" /><path
         d="M 61.209465,16.918328 H 87.814871 V 43.522391 H 61.208123 V 16.918328 Z m 2.217677,2.217676 h 2.098201 v 22.170053 h -2.098201 z m 3.946712,0 h 2.182774 V 41.306057 H 67.375196 V 19.136004 Z m 4.029942,0 h 2.182774 v 22.170053 h -2.182774 z m 4.031285,0 h 2.182774 v 22.170053 h -2.182774 z m 4.031285,0 h 2.184116 v 22.170053 h -2.184116 z m 4.029942,0 h 2.102229 v 22.170053 h -2.102229 z"
         fill="#34bbde"
         id="path7"
         style="stroke-width:1.34242" /><path
         d="M 91.906565,16.918328 H 118.51063 V 43.522391 H 91.906565 Z m 2.216334,2.217676 H 96.2211 v 22.170053 h -2.098201 z m 3.946712,0 h 2.182769 v 22.170053 h -2.182769 z m 4.031289,0 h 2.18277 v 22.170053 h -2.18277 z m 4.03128,0 h 2.18277 v 22.170053 h -2.18277 z m 4.02994,0 h 2.18546 v 22.170053 h -2.18546 z m 4.03129,0 h 2.09954 v 22.170053 h -2.09954 z"
         fill="#23a3c2"
         id="path8"
         style="stroke-width:1.34242" /><path
         d="m 91.906565,-13.777429 h 26.604065 v 26.60272 H 91.906565 Z m 2.216334,2.217676 H 96.2211 v 22.16871 h -2.098201 z m 3.946712,0 h 2.182769 v 22.16871 h -2.182769 z m 4.031289,0 h 2.18277 v 22.16871 h -2.18277 z m 4.03128,0 h 2.18277 v 22.16871 h -2.18277 z m 4.02994,0 h 2.18546 v 22.16871 h -2.18546 z m 4.03129,0 h 2.09954 v 22.16871 h -2.09954 z m 8.40891,28.478081 h 26.60406 v 26.604063 h -26.60406 z m 2.21768,2.217676 h 2.0982 V 41.306057 H 124.82 Z m 3.94671,0 h 2.18277 v 22.170053 h -2.18277 z m 4.02994,0 h 2.18278 v 22.170053 h -2.18278 z m 4.03129,0 h 2.18411 v 22.170053 h -2.18411 z m 4.03128,0 h 2.18412 v 22.170053 h -2.18412 z m 4.03129,0 h 2.09954 v 22.170053 h -2.09954 z"
         fill="#34bbde"
         id="path9"
         style="stroke-width:1.34242" /><path
         d="m 122.60232,-13.777429 h 26.60406 v 26.60272 h -26.60406 z m 2.21768,2.217676 h 2.0982 v 22.16871 H 124.82 Z m 3.94671,0 h 2.18277 v 22.16871 h -2.18277 z m 4.02994,0 h 2.18278 v 22.16871 h -2.18278 z m 4.03129,0 h 2.18411 v 22.16871 h -2.18411 z m 4.03128,0 h 2.18412 v 22.16871 h -2.18412 z m 4.03129,0 h 2.09954 v 22.16871 h -2.09954 z"
         fill="#23a3c2"
         id="path10"
         style="stroke-width:1.34242" /><path
         d="m 122.60232,-44.474529 h 26.60406 v 26.606748 h -26.60406 z m 2.21768,2.216334 h 2.0982 V -20.0868 H 124.82 v -22.172737 z m 3.94671,0 h 2.18277 V -20.0868 h -2.18277 v -22.172737 z m 4.02994,0 h 2.18278 V -20.0868 h -2.18278 v -22.172737 z m 4.03129,0 h 2.18411 V -20.0868 h -2.18411 v -22.172737 z m 4.03128,0 h 2.18412 V -20.0868 h -2.18412 v -22.172737 z m 4.03129,0 h 2.09954 V -20.0868 h -2.09954 v -22.172737 z"
         fill="#34bbde"
         id="path11"
         inkscape:label="path11"
         style="stroke-width:1.34242" /><path
         d="m 153.29808,16.918328 h 26.60406 v 26.604063 h -26.60406 z m 2.21499,2.217676 h 2.10089 v 22.170053 h -2.09955 V 19.136004 Z m 3.94671,0 h 2.18412 v 22.170053 h -2.18277 V 19.136004 Z m 4.03263,0 h 2.18412 v 22.170053 h -2.18412 z m 4.02994,0 h 2.18412 v 22.170053 h -2.18412 z m 4.03263,0 h 2.18277 v 22.170053 h -2.18277 z m 4.02994,0 h 2.09955 v 22.170053 h -2.09955 z"
         fill="#23a3c2"
         id="path12"
         style="stroke-width:1.34242" /><path
         d="m 86.148929,86.655662 a 7.3403481,7.3403481 0 1 1 -0.0027,14.679358 7.3403481,7.3403481 0 0 1 0.0027,-14.679358"
         fill="#d3ecec"
         id="path13"
         style="stroke-width:1.34242" /><path
         d="m 86.148929,88.737754 c 0.671209,0 1.311543,0.126187 1.902208,0.355741 a 2.1451859,2.1451859 0 0 0 1.07125,4.000409 c 0.812164,0 1.516934,-0.44971 1.882072,-1.11555 a 5.2555711,5.2555711 0 1 1 -4.85553,-3.2406 M -43.668376,71.446052 H 297.74507 c -7.43298,-1.884756 -23.51919,-4.432668 -20.86657,-14.175946 -13.51816,15.641868 -46.11612,10.974277 -54.34381,3.262078 -9.16067,13.287265 -62.49498,8.235742 -66.21483,-2.115652 -11.48573,13.479231 -47.07461,13.479231 -58.560348,0 -3.722528,10.351394 -57.0555,15.402917 -66.217511,2.11431 -8.226345,7.713541 -40.8229671,12.381132 -54.341128,-3.259394 2.65262,9.741936 -13.433589,12.289848 -20.869249,14.175947"
         fill="#364548"
         id="path14"
         style="stroke-width:1.34242" /><path
         d="m 105.65831,139.54429 c -18.176359,-8.62504 -28.151876,-20.35107 -33.702779,-33.1497 -6.752369,1.92637 -14.867293,3.15872 -24.297788,3.68763 -3.552041,0.19868 -7.289336,0.3007 -11.2092,0.3007 -4.521267,0 -9.285513,-0.13424 -14.287367,-0.3987 16.668819,16.65942 37.174272,29.4849 75.143256,29.71848 2.802968,0 5.584468,-0.0537 8.353878,-0.15841"
         fill="#bdd9d7"
         id="path15"
         style="stroke-width:1.34242" /><path
         d="m 78.706557,118.2052 c -2.514351,-3.41377 -4.953527,-7.70415 -6.746999,-11.81329 -6.752369,1.92905 -14.869977,3.1614 -24.301815,3.69165 6.478515,3.5158 15.74255,6.77385 31.050156,8.12164"
         fill="#d3ecec"
         id="path16"
         style="stroke-width:1.34242" /><path
         d="m 38.617,173.984 v -16.362 c 0,-2.15 1.344,-3.877 3.57,-3.877 h 0.616 c 2.225,0 3.563,1.729 3.563,3.877 v 34.447 c 0,8.4 -4.15,15.084 -11.382,19.342 -3.312848,1.96273 -7.094391,2.99406 -10.945,2.985 h -1.537 c -8.402,0 -15.077,-4.153 -19.342,-11.38 -1.9655012,-3.31236 -2.9967092,-7.09541 -2.984,-10.947 v -1.535 c 0,-8.403 4.152,-15.083 11.378,-19.349 3.312233,-1.96677 7.095872,-2.99839 10.948,-2.985 h 1.537 c 5.686,0 10.51,2.204 14.578,5.784 z M 7.924,191.3 c 0,6.068 2.941,10.63 8.258,13.54 2.15,1.176 4.484,1.808 6.937,1.808 5.956,0 10.374,-2.81 13.421,-7.857 1.417,-2.348 2.077,-4.917 2.077,-7.648 0,-5.26 -2.49,-9.365 -6.729,-12.414 -2.57,-1.848 -5.463,-2.775 -8.618,-2.775 -6.492,0 -11.164,3.28 -13.968,9.106 -0.946,1.97 -1.378,4.061 -1.378,6.24 z m 65.324,-23.1 h 1.074 c 8.978,0 15.806,4.355 20.133,12.192 1.73,3.135 2.656,6.557 2.656,10.142 v 1.535 c 0,8.4 -4.142,15.093 -11.385,19.343 -3.353,1.967 -7.057,2.984 -10.943,2.984 h -1.535 c -8.402,0 -15.079,-4.153 -19.342,-11.38 -1.966459,-3.3121 -2.998702,-7.09514 -2.987,-10.947 v -1.535 c 0,-8.404 4.169,-15.062 11.377,-19.347 3.351,-1.991 7.058,-2.987 10.952,-2.987 z m -14.58,23.1 c 0,5.89 2.89,10.223 7.865,13.27 2.336,1.43 4.909,2.078 7.638,2.078 5.82,0 10.122,-2.951 13.116,-7.863 1.428,-2.342 2.074,-4.915 2.074,-7.642 0,-5.477 -2.638,-9.661 -7.148,-12.693 -2.471,-1.663 -5.222,-2.496 -8.198,-2.496 -6.492,0 -11.164,3.28 -13.967,9.106 -0.948,1.97 -1.38,4.061 -1.38,6.24 z m 70.656,-14.727 c -1.17,-0.548 -3.36,-0.73 -4.624,-0.778 -6.474,-0.244 -11.158,3.402 -13.906,9.113 -0.949,1.97 -1.382,4.055 -1.382,6.235 0,6.637 3.485,11.284 9.409,14.117 2.164,1.034 4.958,1.23 7.323,1.23 2.08,0 5.02,-1.274 6.866,-2.151 l 0.32,-0.152 h 1.433 l 0.158,0.032 c 1.762,0.367 3.092,1.484 3.092,3.38 v 0.767 c 0,4.718 -8.622,5.798 -11.912,6.028 -11.61,0.803 -20.293,-5.573 -23.603,-16.647 -0.575,-1.923 -0.834,-3.833 -0.834,-5.837 v -1.533 c 0,-8.403 4.17,-15.059 11.377,-19.34 3.351,-1.99 7.057,-2.99 10.95,-2.99 h 1.536 c 4.13,0 7.934,1.173 11.344,3.502 l 0.28,0.194 0.177,0.292 c 0.368,0.61 0.685,1.316 0.685,2.042 v 0.767 c 0,1.978 -1.48,3.042 -3.266,3.386 l -0.148,0.026 h -0.458 c -1.156,0 -3.785,-1.197 -4.817,-1.683 z m 25.134,5.247 c 3.01,-3.014 6.03,-6.022 9.085,-8.986 0.851,-0.827 4.074,-4.327 5.343,-4.327 h 1.388 l 0.158,0.033 c 1.768,0.367 3.092,1.486 3.092,3.386 v 0.766 c 0,1.296 -1.518,2.802 -2.355,3.689 -1.78,1.887 -3.654,3.712 -5.476,5.56 l -9.362,9.504 c 4.031,4.04 8.058,8.083 12.056,12.154 1.10887,1.12367 2.20924,2.2557 3.301,3.396 0.385,0.405 0.953,0.909 1.276,1.47 0.347,0.526 0.56,1.119 0.56,1.752 v 0.8 l -0.045,0.185 c -0.435,1.768 -1.557,3.194 -3.516,3.194 h -0.617 c -1.282,0 -2.73,-1.45 -3.608,-2.279 -1.81,-1.706 -3.557,-3.5 -5.331,-5.243 l -5.949,-5.84 v 9.334 c 0,2.15 -1.346,3.878 -3.569,3.878 h -0.61 c -2.226,0 -3.57,-1.728 -3.57,-3.878 v -52.596 c 0,-2.15 1.345,-3.87 3.57,-3.87 h 0.61 c 2.223,0 3.569,1.72 3.569,3.87 z m 96.577,-13.313 h 0.77 c 2.324,0 3.875,1.566 3.875,3.877 0,3.208 -3.067,4.029 -5.72,4.029 -3.48,0 -6.803,2.107 -9.202,4.47 -2.991,2.949 -4.3,6.726 -4.3,10.878 v 18.759 c 0,2.15 -1.343,3.876 -3.57,3.876 h -0.612 c -2.227,0 -3.569,-1.725 -3.569,-3.876 v -19.836 c 0,-7.617 3.708,-13.835 9.89,-18.196 3.691,-2.605 7.919,-3.98 12.438,-3.98 z m -55.074,37.176 c 2.82,0.985 6.035,0.844 8.928,0.34 1.48,-0.629 5.264,-2.28 6.656,-2.038 l 0.217,0.037 0.2,0.098 c 0.85,0.412 1.661,0.995 2.095,1.86 1.014,2.027 0.527,4.065 -1.465,5.216 l -0.663,0.383 c -7.35,4.242 -15.168,3.654 -22.495,-0.308 -3.503,-1.894 -6.183,-4.705 -8.16,-8.132 l -0.462,-0.801 c -4.719,-8.172 -4.082,-16.768 1.24,-24.539 1.837,-2.686 4.238,-4.761 7.045,-6.384 l 1.062,-0.613 c 6.922,-3.996 14.341,-3.722 21.45,-0.215 3.823,1.886 6.92,4.697 9.054,8.394 l 0.384,0.666 c 1.55,2.686 -0.458,5.026 -2.531,6.626 -2.406,1.856 -4.835,4.09 -7.141,6.08 -5.142,4.439 -10.276,8.888 -15.414,13.33 z m -6.655,-4.674 c 5.75,-4.93 11.502,-9.865 17.237,-14.816 1.96,-1.69 4.109,-3.444 6.053,-5.221 -1.56,-1.966 -4.166,-3.383 -6.38,-4.228 -4.47,-1.703 -8.877,-1.131 -12.976,1.235 -5.365,3.098 -7.65,8.031 -7.45,14.17 0.08,2.418 0.73,4.748 2.013,6.805 0.452,0.725 0.957,1.406 1.503,2.055 z"
         fill="#364548"
         id="path17"
         sodipodi:nodetypes="csssssccsccsccscscscscscssscsscssccscsscscscscscccscsscccssccsscsscccssccscccsccssccccccsccsscccssssssssccssscsssssscccccccccsccccccssccccccccccccc"
         style="fill:#ffffff;fill-opacity:1" /></g><rect
       style="clip-rule:evenodd;opacity:1;fill:none;fill-rule:evenodd;stroke:url(#linearGradient17);stroke-width:2.12674;stroke-linejoin:round;stroke-miterlimit:2;stroke-dasharray:none;stroke-opacity:1"
       id="rect17"
       width="100"
       height="100"
       x="0.12106147"
       y="0"
       ry="21.520769"
       inkscape:label="Frame"
       transform="matrix(4.9007712,0,0,4.9007712,4.6081476,4.4014407)" /></g></svg>
