<?xml version="1.0" encoding="UTF-8" standalone="no"?>
<!-- Created with Inkscape (http://www.inkscape.org/) -->

<svg
   width="50mm"
   height="50mm"
   viewBox="0 0 50 50"
   version="1.1"
   id="svg1"
   xml:space="preserve"
   sodipodi:docname="elixir_Box.svg"
   inkscape:version="1.4.2 (f4327f4, 2025-05-13)"
   inkscape:export-filename="Cairo_Box.png"
   inkscape:export-xdpi="96"
   inkscape:export-ydpi="96"
   xmlns:inkscape="http://www.inkscape.org/namespaces/inkscape"
   xmlns:sodipodi="http://sodipodi.sourceforge.net/DTD/sodipodi-0.dtd"
   xmlns:xlink="http://www.w3.org/1999/xlink"
   xmlns="http://www.w3.org/2000/svg"
   xmlns:svg="http://www.w3.org/2000/svg"><sodipodi:namedview
     id="namedview1"
     pagecolor="#ffffff"
     bordercolor="#000000"
     borderopacity="0.25"
     inkscape:showpageshadow="2"
     inkscape:pageopacity="0.0"
     inkscape:pagecheckerboard="0"
     inkscape:deskcolor="#d1d1d1"
     inkscape:document-units="mm"
     inkscape:zoom="6.1859582"
     inkscape:cx="70.805522"
     inkscape:cy="93.194939"
     inkscape:window-width="2560"
     inkscape:window-height="1369"
     inkscape:window-x="-8"
     inkscape:window-y="-8"
     inkscape:window-maximized="1"
     inkscape:current-layer="svg1"><inkscape:page
       x="0"
       y="0"
       width="50"
       height="50"
       id="page1"
       margin="0"
       bleed="0" /></sodipodi:namedview><defs
     id="defs1"><linearGradient
       id="linearGradient5"><stop
         style="stop-color:#381054;stop-opacity:1;"
         offset="0.00462963"
         id="stop1" /><stop
         style="stop-color:#9b82b0;stop-opacity:1;"
         offset="0.99834436"
         id="stop5" /></linearGradient><linearGradient
       xlink:href="#linearGradient5"
       id="linearGradient1"
       x1="25"
       y1="7.0902283e-06"
       x2="25"
       y2="50.000031"
       gradientUnits="userSpaceOnUse"
       gradientTransform="matrix(0.98039216,0,0,0.98039216,0.49019623,0.49019623)" /><filter
       inkscape:collect="always"
       style="color-interpolation-filters:sRGB"
       id="filter1"
       x="-0.06882552"
       y="-0.06882552"
       width="1.137651"
       height="1.137651"><feGaussianBlur
         inkscape:collect="always"
         stdDeviation="0.9600145"
         id="feGaussianBlur1" /></filter><filter
       inkscape:collect="always"
       style="color-interpolation-filters:sRGB"
       id="filter2"
       x="-0.18667055"
       y="-0.12123548"
       width="1.3733411"
       height="1.242471"><feGaussianBlur
         inkscape:collect="always"
         stdDeviation="2.1268975"
         id="feGaussianBlur2" /></filter><filter
       inkscape:collect="always"
       style="color-interpolation-filters:sRGB"
       id="filter3"
       x="-0.018380868"
       y="-0.050839677"
       width="1.0367617"
       height="1.1016794"><feGaussianBlur
         inkscape:collect="always"
         stdDeviation="0.40151128"
         id="feGaussianBlur3" /></filter></defs><g
     id="layer1"
     inkscape:label="elixir"><rect
       style="font-variation-settings:normal;display:inline;fill:url(#linearGradient1);stroke:none;stroke-width:0.980392;stroke-linecap:butt;stroke-linejoin:miter;stroke-miterlimit:4;stroke-dasharray:none;stroke-dashoffset:0;stroke-opacity:1;stop-color:#000000"
       id="rect1-18"
       width="49.019608"
       height="49.019608"
       x="0.49019623"
       y="0.49019623"
       rx="7.0571675"
       ry="7.0571675"
       inkscape:label="Background" /><g
       id="g19"
       transform="matrix(0.72996979,0,0,0.72996979,-18.804778,3.95894)"
       inkscape:label="Logo"><linearGradient
         id="SVGID_1_"
         gradientUnits="userSpaceOnUse"
         x1="328.19"
         y1="23.052999"
         x2="323.42499"
         y2="-172.409"
         gradientTransform="matrix(0.1297,0,0,-0.2,-12.088,14.399)"><stop
           offset="0"
           stop-color="#d9d8dc"
           id="stop1-8" /><stop
           offset="1"
           stop-color="#fff"
           stop-opacity=".385"
           id="stop2-2" /></linearGradient><linearGradient
         id="SVGID_2_"
         gradientUnits="userSpaceOnUse"
         x1="371.72198"
         y1="30.572001"
         x2="332.737"
         y2="-139.339"
         gradientTransform="matrix(0.1142,0,0,-0.2271,-12.507,16.081)"><stop
           offset="0"
           stop-color="#8d67af"
           stop-opacity=".672"
           id="stop3-4" /><stop
           offset="1"
           stop-color="#9f8daf"
           id="stop4-5" /></linearGradient><linearGradient
         id="SVGID_3_"
         gradientUnits="userSpaceOnUse"
         x1="361.69199"
         y1="-26.343"
         x2="361.69199"
         y2="-154.205"
         gradientTransform="matrix(0.1227,0,0,-0.2115,-12.278,15.11)"><stop
           offset="0"
           stop-color="#26053d"
           stop-opacity=".762"
           id="stop5-5" /><stop
           offset="1"
           stop-color="#b7b4b4"
           stop-opacity=".278"
           id="stop6-1" /></linearGradient><linearGradient
         id="SVGID_4_"
         gradientUnits="userSpaceOnUse"
         x1="176.455"
         y1="-76.586998"
         x2="235.593"
         y2="-195.597"
         gradientTransform="matrix(0.1848,0,0,-0.1404,-10.601,10.703)"><stop
           offset="0"
           stop-color="#91739f"
           stop-opacity=".46"
           id="stop7-7" /><stop
           offset="1"
           stop-color="#32054f"
           stop-opacity=".54"
           id="stop8-1" /></linearGradient><linearGradient
         id="SVGID_5_"
         gradientUnits="userSpaceOnUse"
         x1="347.87601"
         y1="-172.927"
         x2="242.769"
         y2="-60.638"
         gradientTransform="matrix(0.1418,0,0,-0.1829,-11.76,13.338)"><stop
           offset="0"
           stop-color="#463d49"
           stop-opacity=".331"
           id="stop9-1" /><stop
           offset="1"
           stop-color="#340a50"
           stop-opacity=".821"
           id="stop10-5" /></linearGradient><linearGradient
         id="SVGID_6_"
         gradientUnits="userSpaceOnUse"
         x1="430.311"
         y1="-13.082"
         x2="399.03201"
         y2="-122.998"
         gradientTransform="matrix(0.106,0,0,-0.2448,-12.73,17.176)"><stop
           offset="0"
           stop-color="#715383"
           stop-opacity=".145"
           id="stop11-2" /><stop
           offset="1"
           stop-color="#f4f4f4"
           stop-opacity=".234"
           id="stop12" /></linearGradient><linearGradient
         id="SVGID_7_"
         gradientUnits="userSpaceOnUse"
         x1="525.60199"
         y1="-20.752001"
         x2="425.694"
         y2="-1.951"
         gradientTransform="matrix(0.09173,0,0,-0.2828,-13.114,19.532)"><stop
           offset="0"
           stop-color="#a5a1a8"
           stop-opacity=".356"
           id="stop13" /><stop
           offset="1"
           stop-color="#370c50"
           stop-opacity=".582"
           id="stop14" /></linearGradient><g
         id="g18"
         inkscape:label="Text"
         transform="matrix(0.71792589,0,0,0.71792589,4.3338763,24.790543)"><path
           id="path3"
           style="display:inline;fill:#000000;fill-opacity:0.2966418;filter:url(#filter3)"
           class="st10"
           d="m 65.478516,21.548828 c -0.779021,0.141797 -0.481086,1.086237 -0.53125,1.651172 0.01863,4.718749 -0.03701,9.440536 0.02734,14.157422 0.02433,1.365104 1.069958,2.538306 2.395213,2.805416 0.755,0.191011 1.567251,0.337225 2.339162,0.247318 0.492117,-0.350004 0.134923,-1.100409 0.244141,-1.610156 0.147971,-0.484725 -0.280555,-0.934644 -0.765625,-0.708203 -0.752688,0.213088 -1.576959,-0.288685 -1.589896,-1.10296 -0.105457,-3.102137 -0.01442,-6.262569 -0.04487,-9.388446 -0.0315,-1.933766 0.06118,-3.886804 -0.04297,-5.809375 -0.350004,-0.492117 -1.10041,-0.134923 -1.610157,-0.244141 -0.140189,0.0022 -0.281209,-0.0038 -0.421093,0.002 z m 7.5,0 C 72.27972,21.62951 72.629894,22.539435 72.546875,23 c -0.05216,0.412628 -0.05951,1.147721 0.553125,1.052734 0.634198,-0.07973 1.350299,0.160638 1.937109,-0.11914 0.265173,-0.628505 0.05946,-1.38299 0.09852,-2.053983 -0.217172,-0.607894 -1.05635,-0.22422 -1.53641,-0.332736 -0.206786,0.0017 -0.414257,-0.0031 -0.620703,0.002 z m 18.40039,0 C 90.68011,21.62951 91.030284,22.539435 90.947266,23 c -0.05216,0.412628 -0.05951,1.147721 0.553125,1.052734 0.63158,-0.09825 1.398788,0.199268 1.952734,-0.15039 0.229293,-0.635046 0.05856,-1.383236 0.07813,-2.054688 -0.290654,-0.57954 -1.119471,-0.183811 -1.631641,-0.300781 -0.173427,0.0018 -0.347622,-0.0033 -0.520703,0.002 z M 57.4375,26.839844 c -1.906968,-0.0866 -3.938716,0.729277 -4.937287,2.4308 -1.096519,1.847354 -1.392747,4.148256 -0.959748,6.23837 0.626935,2.910443 3.484895,5.093519 6.454847,4.961689 1.447477,-0.03134 3.079043,-0.452419 3.908985,-1.734375 0.08979,-0.558281 -0.592113,-0.867403 -0.916016,-1.220703 -0.552362,-0.145648 -0.946359,0.501645 -1.484375,0.580078 -1.868295,0.694923 -4.314605,0.117057 -5.323771,-1.742866 -0.234961,-0.496605 -0.512646,-1.14131 -0.359823,-1.686821 2.725007,-0.06022 5.470238,0.05146 8.1875,-0.05469 0.449275,-0.323609 0.219074,-1.024696 0.313831,-1.513068 0.09548,-2.100805 -0.480091,-4.570998 -2.469057,-5.654028 -0.729527,-0.412529 -1.581615,-0.604469 -2.415086,-0.604388 z m 45.95117,0.07617 c -1.24593,0.117714 -2.61734,0.31992 -3.537108,1.263672 0.07366,-0.395138 -0.0035,-1.030288 -0.551171,-0.931641 -0.632814,0.08175 -1.350818,-0.163081 -1.935157,0.117187 -0.284625,0.649693 -0.03208,1.435604 -0.117187,2.133985 0.01609,3.493832 -0.03188,6.992068 0.02344,10.483203 0.333351,0.531727 1.112055,0.156554 1.627735,0.269531 0.39668,0.06979 1.051843,0.0084 0.952344,-0.551172 0.02725,-2.802002 -0.05378,-5.638847 0.03906,-8.417578 0.166324,-1.315402 1.650894,-1.720496 2.772934,-1.789493 0.41992,-0.01722 1.1833,0.04567 1.08839,-0.59371 -0.0868,-0.621759 0.16951,-1.349777 -0.11718,-1.915625 -0.06,-0.05889 -0.16485,-0.09138 -0.2461,-0.06836 z M 72.980469,27.25 c -0.700886,0.07328 -0.35085,0.98994 -0.433594,1.449219 0.01871,3.794154 -0.0371,7.59427 0.02734,11.384765 0.333417,0.529186 1.11104,0.154526 1.625781,0.267578 0.399233,0.07061 1.048967,0.0083 0.952344,-0.551171 -0.01864,-4.093496 0.03702,-8.193034 -0.02734,-12.282813 -0.326771,-0.533195 -1.112297,-0.15541 -1.625781,-0.269531 -0.172778,0.0018 -0.346318,-0.0033 -0.51875,0.002 z m 18.40039,0 c -0.700885,0.07328 -0.350849,0.98994 -0.433593,1.449219 0.01871,3.794154 -0.0371,7.59427 0.02734,11.384765 0.333418,0.529186 1.111041,0.154526 1.625782,0.267578 0.39835,0.07135 1.047843,0.0067 0.952343,-0.551171 -0.01865,-4.09416 0.03702,-8.194264 -0.02734,-12.284766 -0.333418,-0.529186 -1.111041,-0.154526 -1.625782,-0.267578 -0.172777,0.0018 -0.346317,-0.0033 -0.51875,0.002 z m -13.107421,0.101562 c -0.432149,0.0337 -0.528675,0.597649 -0.173508,0.81828 1.200683,1.797225 2.433724,3.592032 3.614914,5.390705 -1.420815,2.069949 -2.934907,4.095841 -4.292969,6.197265 -0.132815,0.525928 0.466662,0.71213 0.878906,0.59375 0.558961,-0.06864 1.196047,0.136056 1.710938,-0.09766 0.956366,-1.497844 1.969175,-3.005113 3,-4.445312 0.418255,0.186102 0.568037,0.819169 0.892884,1.157882 0.792395,1.108248 1.474161,2.315993 2.331725,3.365555 0.709694,0.03178 1.44812,0.04014 2.146484,-0.0059 0.453351,-0.163466 0.40607,-0.700328 0.0663,-0.962604 -1.353524,-1.939327 -2.721645,-3.880356 -4.066297,-5.818646 1.257456,-1.901097 2.588131,-3.769361 3.794922,-5.695313 0.107187,-0.670671 -0.77836,-0.498973 -1.176953,-0.501953 -0.475686,0.02972 -1.137634,-0.182718 -1.308211,0.430287 -0.876858,1.228664 -1.695909,2.525482 -2.606632,3.714245 -0.430815,-0.216696 -0.611722,-0.865878 -0.957231,-1.22907 -0.703116,-0.95197 -1.299368,-1.998742 -2.064254,-2.89593 -0.592547,-0.04801 -1.196841,-0.0083 -1.791015,-0.01563 z m -21.074219,1.798829 c 1.296479,-0.09139 2.351762,1.005656 2.524737,2.238106 0.05243,0.369712 0.362248,1.157598 -0.33255,0.959159 -1.833477,-0.02224 -3.683371,0.04441 -5.50664,-0.0332 -0.140753,-1.801536 1.600893,-3.186773 3.314453,-3.164062 z" /><path
           class="st10"
           d="m 53.9,34.5 h 7.9 c 0.2,0 0.3,-0.1 0.3,-0.3 0.8,-7.8 -4.9,-7.2 -4.9,-7.2 -4,0 -5.7,3.1 -5.7,6.9 0,3.8 3.1,6.7 6.9,6.4 2.3,-0.2 2.9,-1.1 3.3,-1.5 0.1,-0.1 0.1,-0.3 0,-0.4 L 61,37.7 c -0.1,-0.1 -0.3,-0.1 -0.4,0 -2.6,1.8 -6.8,0.6 -7,-2.9 0,-0.2 0.1,-0.3 0.3,-0.3 z M 57.2,29 c 1.5,0 2.6,0.9 2.8,3.2 0,0.2 -0.1,0.3 -0.3,0.3 H 54 c -0.2,0 -0.3,-0.1 -0.3,-0.3 0.1,-2.2 2,-3.2 3.5,-3.2 z m 8.3,-7.3 h 1.6 c 0.2,0 0.3,0.1 0.3,0.3 v 14.4 c 0,2.2 1.4,1.9 2.1,1.8 0.2,0 0.3,0.1 0.3,0.3 V 40 c 0,0.2 -0.1,0.3 -0.3,0.3 -4,-0.1 -4.4,-1.9 -4.4,-3.6 V 22 c 0.1,-0.1 0.2,-0.3 0.4,-0.3 z m 7.5,5.7 h 1.7 c 0.2,0 0.3,0.1 0.3,0.3 v 12.2 c 0,0.2 -0.1,0.3 -0.3,0.3 H 73 c -0.2,0 -0.3,-0.1 -0.3,-0.3 V 27.7 c 0,-0.2 0.1,-0.3 0.3,-0.3 z m 0,-3.5 h 1.7 c 0.2,0 0.3,-0.1 0.3,-0.3 V 22 c 0,-0.2 -0.1,-0.3 -0.3,-0.3 H 73 c -0.2,0 -0.3,0.1 -0.3,0.3 v 1.6 c 0,0.2 0.1,0.3 0.3,0.3 z m 18.4,3.5 h 1.7 c 0.2,0 0.3,0.1 0.3,0.3 v 12.2 c 0,0.2 -0.1,0.3 -0.3,0.3 h -1.7 c -0.2,0 -0.3,-0.1 -0.3,-0.3 V 27.7 c 0,-0.2 0.1,-0.3 0.3,-0.3 z m 12.2,-0.1 V 29 c 0,0.2 -0.1,0.3 -0.3,0.3 -2.8,0.1 -3.6,1 -3.6,2.5 v 8 c 0,0.2 -0.1,0.3 -0.3,0.3 h -1.7 c -0.2,0 -0.3,-0.1 -0.3,-0.3 V 27.7 c 0,-0.2 0.1,-0.3 0.3,-0.3 h 1.7 c 0.2,0 0.3,0.1 0.3,0.3 v 0.9 c 0.4,-0.6 1.4,-1.4 3.6,-1.5 0.2,-0.1 0.3,0 0.3,0.2 z M 91.4,23.9 h 1.7 c 0.2,0 0.3,-0.1 0.3,-0.3 V 22 c 0,-0.2 -0.1,-0.3 -0.3,-0.3 h -1.7 c -0.2,0 -0.3,0.1 -0.3,0.3 v 1.6 c 0,0.2 0.1,0.3 0.3,0.3 z m -2.9,15.8 -4.2,-6 c -0.1,-0.1 -0.1,-0.2 0,-0.3 L 88,27.9 c 0.1,-0.2 0,-0.4 -0.2,-0.4 h -1.6 c -0.1,0 -0.2,0 -0.2,0.1 l -2.7,3.9 c -0.1,0.2 -0.4,0.2 -0.5,0 L 80.1,27.6 C 80,27.5 80,27.5 79.9,27.5 h -1.6 c -0.2,0 -0.4,0.3 -0.2,0.4 l 3.7,5.5 c 0.1,0.1 0.1,0.2 0,0.3 l -4.2,6 c -0.1,0.2 0,0.5 0.2,0.5 h 1.9 c 0.1,0 0.2,0 0.2,-0.1 l 2.9,-4.3 c 0.1,-0.2 0.4,-0.2 0.5,0 l 2.9,4.3 c 0.1,0.1 0.1,0.1 0.2,0.1 h 1.9 c 0.2,-0.1 0.4,-0.3 0.2,-0.5 z"
           id="path18" /></g><path
         d="m 31.3,6.7 c -3.1,1.1 -6,4.3 -8.9,9.5 -4.3,7.9 -9.8,19.1 -2.2,28 3.5,4.1 9.4,6.5 17,2.7 6.1,-3.1 7.9,-12 5.6,-16.1 C 38.2,22.2 33.6,20.1 32.4,14.8 31.6,11.2 31.2,8.5 31.3,6.7 Z"
         fill-rule="evenodd"
         clip-rule="evenodd"
         fill="url(#SVGID_1_)"
         id="path1"
         style="fill:#000000;fill-opacity:1;filter:url(#filter2)"
         transform="matrix(0.7700968,0,0,0.7700968,36.818037,-0.01169247)" /><g
         id="g1"
         inkscape:label="Icon"
         transform="matrix(0.77009679,0,0,0.77009679,36.818037,-0.01169248)"><path
           d="m 31.3,6.7 c -3.1,1.1 -6,4.3 -8.9,9.5 -4.3,7.9 -9.8,19.1 -2.2,28 3.5,4.1 9.4,6.5 17,2.7 6.1,-3.1 7.9,-12 5.6,-16.1 C 38.2,22.2 33.6,20.1 32.4,14.8 31.6,11.2 31.2,8.5 31.3,6.7 Z"
           fill-rule="evenodd"
           clip-rule="evenodd"
           fill="url(#SVGID_1_)"
           id="path2"
           style="fill:url(#SVGID_1_)" /><path
           d="m 31.3,6.6 c -3.1,1.1 -6.1,4.3 -8.9,9.5 -4.3,7.9 -9.8,19.1 -2.2,28 3.5,4.1 9.3,5.4 12.5,3 2.1,-1.6 3.5,-3.1 4.3,-6.3 0.9,-3.6 0.2,-8.3 -0.3,-10.6 -0.6,-2.8 -0.8,-5.8 -0.6,-9.2 0,0 -0.1,0 -0.1,-0.1 -1.7,-2 -2.9,-3.8 -3.5,-6.3 -0.9,-3.5 -1.3,-6.2 -1.2,-8 z"
           fill-rule="evenodd"
           clip-rule="evenodd"
           fill="url(#SVGID_2_)"
           id="path4"
           style="fill:url(#SVGID_2_)" /><path
           d="m 28.7,8 c -2.9,2.3 -5,6.1 -6.4,11.4 -2.1,8 -2.3,15.4 -1.6,19.8 1.4,8.4 8.9,11.5 16.5,7.6 4.7,-2.4 6.7,-7.5 6.6,-13.1 C 43.7,27.9 32.5,21.4 30.6,16.6 29.3,13.3 28.7,10.5 28.7,8 Z"
           fill-rule="evenodd"
           clip-rule="evenodd"
           fill="url(#SVGID_3_)"
           id="path6"
           style="fill:url(#SVGID_3_)" /><path
           d="m 36,23 c 3.5,4.4 4.2,7.5 2.3,9.2 -2.9,2.6 -10.1,4.3 -14.5,1.2 -3,-2.1 -4.1,-6.6 -3.4,-13.5 -1.2,2.6 -2.3,5.1 -3.1,7.8 -0.8,2.6 -1.1,5.4 -0.7,8.2 1.1,2.1 3.6,3.6 7.7,4.3 6.1,1.1 11.9,0.5 15.8,-1.4 2.6,-1.3 3.8,-2.6 3.7,-3.9 C 43.9,33 43.3,31.2 42,29.4 40.8,27.6 38.8,25.5 36,23 Z"
           fill-rule="evenodd"
           clip-rule="evenodd"
           fill="url(#SVGID_4_)"
           id="path8"
           style="fill:url(#SVGID_4_)" /><path
           d="m 22.5,18.6 c 0,3.2 0.8,6.2 2.5,9.1 2.5,4.3 5.4,8.6 9.8,12.1 2.9,2.4 5.3,3.1 7,2.3 -1.4,2.6 -3,3.8 -4.6,3.8 -2.4,-0.1 -5.4,-1.1 -10.1,-6.8 -3.2,-3.8 -5.3,-7.4 -6.5,-10.8 0.2,-1.3 0.4,-2.7 0.6,-4 0.3,-1.3 0.7,-3.2 1.3,-5.7 z"
           fill-rule="evenodd"
           clip-rule="evenodd"
           fill="url(#SVGID_5_)"
           id="path10"
           style="fill:url(#SVGID_5_)" /><path
           d="m 30,23 c 0.3,2.6 1.3,6.8 0,9.5 -1.3,2.8 -7.2,7.8 -5.6,12.2 1.6,4.4 5.6,3.4 8.1,1.4 2.5,-2 3.8,-5.3 4.1,-7.7 0.3,-2.3 -0.7,-6.8 -1,-10.7 C 35.4,25.1 35.5,22.9 36,21 L 35.2,20 30.7,18.7 C 30.1,19.8 29.8,21.2 30,23 Z"
           fill-rule="evenodd"
           clip-rule="evenodd"
           fill="url(#SVGID_6_)"
           id="path12"
           style="fill:url(#SVGID_6_)" /><path
           d="m 31.6,10.1 c -1.5,0.6 -2.8,1.8 -4.1,3.7 -2,2.7 -3,4.4 -2.2,9.8 0.5,3.6 0.8,6.9 1.1,10 l 6.3,-18.3 c -0.2,-0.9 -0.4,-1.8 -0.6,-2.5 -0.3,-0.9 -0.4,-1.7 -0.5,-2.7 z"
           fill-rule="evenodd"
           clip-rule="evenodd"
           fill="url(#SVGID_7_)"
           id="path14"
           style="fill:url(#SVGID_7_)" /><path
           d="m 32.6,15.2 c -1.6,0.9 -2.8,2.9 -3.7,5.7 -0.9,2.9 -1.7,6.9 -2.4,12.1 1,-3.3 1.6,-5.7 1.9,-7.2 0.5,-2.2 0.6,-5.4 1.9,-7.5 0.8,-1.4 1.6,-2.4 2.3,-3.1 z"
           fill-rule="evenodd"
           clip-rule="evenodd"
           fill="#330a4c"
           fill-opacity="0.316"
           id="path15" /><path
           d="m 25.1,46.2 c 2.6,0.4 4,0.7 4.1,1 0.2,0.4 -0.3,0.8 -1.8,0.6 -0.9,-0.2 -1.7,-0.7 -2.3,-1.6 z"
           fill-rule="evenodd"
           clip-rule="evenodd"
           fill="#ffffff"
           id="path16" /><path
           d="m 26.5,10.1 c -1.4,1.7 -2.7,3.6 -3.8,5.5 -1.1,1.9 -1.8,3.4 -2.3,4.3 -0.1,0.7 -0.2,1.8 -0.2,3.2 0,1.4 0.1,2.9 0.4,4.6 0.2,-3.3 0.8,-6.6 1.9,-9.7 1,-3.1 2.4,-5.8 4,-7.9 z"
           fill-rule="evenodd"
           clip-rule="evenodd"
           fill="#ededed"
           fill-opacity="0.603"
           id="path17" /></g></g><rect
       style="font-variation-settings:normal;display:inline;fill:none;stroke:#000000;stroke-width:1.99928;stroke-linecap:butt;stroke-linejoin:miter;stroke-miterlimit:4;stroke-dasharray:none;stroke-dashoffset:0;stroke-opacity:1;stop-color:#000000;filter:url(#filter1)"
       id="rect1"
       width="48.000725"
       height="48.000725"
       x="0.99963778"
       y="0.99963778"
       rx="6.9104829"
       ry="6.9104829"
       inkscape:label="Shadow" /><rect
       style="font-variation-settings:normal;display:inline;fill:none;stroke:#623d8f;stroke-width:1.99928;stroke-linecap:butt;stroke-linejoin:miter;stroke-miterlimit:4;stroke-dasharray:none;stroke-dashoffset:0;stroke-opacity:1;stop-color:#000000"
       id="rect1-18-1"
       width="48.000725"
       height="48.000725"
       x="0.99963778"
       y="0.99963778"
       rx="6.9104829"
       ry="6.9104829"
       inkscape:label="Frame" /></g><style
     type="text/css"
     id="style1">
	.st0{fill:url(#ICON_00000088831890668800157600000002638584723837204667_);}
</style><style
     id="style1-7">.st10{fill:#333}</style><style
     type="text/css"
     id="style1-1">
	.st0{fill:url(#ICON_00000088831890668800157600000002638584723837204667_);}
</style><style
     id="style1-7-2">.st10{fill:#333}</style></svg>
