<?xml version="1.0" encoding="UTF-8" standalone="no"?>
<!-- Created with Inkscape (http://www.inkscape.org/) -->

<svg
   width="50mm"
   height="50mm"
   viewBox="0 0 50 50"
   version="1.1"
   id="svg1"
   xml:space="preserve"
   sodipodi:docname="elixir_Box.svg"
   inkscape:version="1.4.2 (f4327f4, 2025-05-13)"
   inkscape:export-filename="Cairo_Box.png"
   inkscape:export-xdpi="96"
   inkscape:export-ydpi="96"
   xmlns:inkscape="http://www.inkscape.org/namespaces/inkscape"
   xmlns:sodipodi="http://sodipodi.sourceforge.net/DTD/sodipodi-0.dtd"
   xmlns:xlink="http://www.w3.org/1999/xlink"
   xmlns="http://www.w3.org/2000/svg"
   xmlns:svg="http://www.w3.org/2000/svg"><sodipodi:namedview
     id="namedview1"
     pagecolor="#ffffff"
     bordercolor="#000000"
     borderopacity="0.25"
     inkscape:showpageshadow="2"
     inkscape:pageopacity="0.0"
     inkscape:pagecheckerboard="0"
     inkscape:deskcolor="#d1d1d1"
     inkscape:document-units="mm"
     inkscape:zoom="2.1870665"
     inkscape:cx="-74.071822"
     inkscape:cy="105.84955"
     inkscape:window-width="2560"
     inkscape:window-height="1369"
     inkscape:window-x="-8"
     inkscape:window-y="-8"
     inkscape:window-maximized="1"
     inkscape:current-layer="svg1"><inkscape:page
       x="0"
       y="0"
       width="50"
       height="50"
       id="page1"
       margin="0"
       bleed="0" /></sodipodi:namedview><defs
     id="defs1"><linearGradient
       id="linearGradient5"><stop
         style="stop-color:#381054;stop-opacity:1;"
         offset="0.00462963"
         id="stop1" /><stop
         style="stop-color:#9b82b0;stop-opacity:1;"
         offset="0.99834436"
         id="stop5" /></linearGradient><linearGradient
       xlink:href="#linearGradient5"
       id="linearGradient1"
       x1="25"
       y1="7.0902283e-06"
       x2="25"
       y2="50.000031"
       gradientUnits="userSpaceOnUse"
       gradientTransform="matrix(0.98039216,0,0,0.98039216,0.49019623,0.49019623)" /><linearGradient
       id="linearGradient5-8"><stop
         style="stop-color:#381054;stop-opacity:1;"
         offset="0.00462963"
         id="stop1-82" /><stop
         style="stop-color:#9f8daf;stop-opacity:1;"
         offset="1"
         id="stop5-4" /></linearGradient><linearGradient
       xlink:href="#linearGradient5-8"
       id="linearGradient1-3"
       x1="25"
       y1="7.0902283e-06"
       x2="25"
       y2="50.000031"
       gradientUnits="userSpaceOnUse"
       gradientTransform="matrix(0.98039216,0,0,0.98039216,0.49019623,0.49019623)" /></defs><g
     id="layer1"
     inkscape:label="elixir"><rect
       style="font-variation-settings:normal;display:inline;fill:url(#linearGradient1);stroke:none;stroke-width:0.980392;stroke-linecap:butt;stroke-linejoin:miter;stroke-miterlimit:4;stroke-dasharray:none;stroke-dashoffset:0;stroke-opacity:1;stop-color:#000000"
       id="rect1-18"
       width="49.019608"
       height="49.019608"
       x="0.49019623"
       y="0.49019623"
       rx="7.0571675"
       ry="7.0571675"
       inkscape:label="Background" /><g
       id="g19"
       transform="matrix(0.72996979,0,0,0.72996979,-18.804778,3.95894)"
       inkscape:label="Logo"><linearGradient
         id="SVGID_1_"
         gradientUnits="userSpaceOnUse"
         x1="328.19"
         y1="23.052999"
         x2="323.42499"
         y2="-172.409"
         gradientTransform="matrix(0.1297,0,0,-0.2,-12.088,14.399)"><stop
           offset="0"
           stop-color="#d9d8dc"
           id="stop1-8" /><stop
           offset="1"
           stop-color="#fff"
           stop-opacity=".385"
           id="stop2-2" /></linearGradient><linearGradient
         id="SVGID_2_"
         gradientUnits="userSpaceOnUse"
         x1="371.72198"
         y1="30.572001"
         x2="332.737"
         y2="-139.339"
         gradientTransform="matrix(0.1142,0,0,-0.2271,-12.507,16.081)"><stop
           offset="0"
           stop-color="#8d67af"
           stop-opacity=".672"
           id="stop3-4" /><stop
           offset="1"
           stop-color="#9f8daf"
           id="stop4-5" /></linearGradient><linearGradient
         id="SVGID_3_"
         gradientUnits="userSpaceOnUse"
         x1="361.69199"
         y1="-26.343"
         x2="361.69199"
         y2="-154.205"
         gradientTransform="matrix(0.1227,0,0,-0.2115,-12.278,15.11)"><stop
           offset="0"
           stop-color="#26053d"
           stop-opacity=".762"
           id="stop5-5" /><stop
           offset="1"
           stop-color="#b7b4b4"
           stop-opacity=".278"
           id="stop6-1" /></linearGradient><linearGradient
         id="SVGID_4_"
         gradientUnits="userSpaceOnUse"
         x1="176.455"
         y1="-76.586998"
         x2="235.593"
         y2="-195.597"
         gradientTransform="matrix(0.1848,0,0,-0.1404,-10.601,10.703)"><stop
           offset="0"
           stop-color="#91739f"
           stop-opacity=".46"
           id="stop7-7" /><stop
           offset="1"
           stop-color="#32054f"
           stop-opacity=".54"
           id="stop8-1" /></linearGradient><linearGradient
         id="SVGID_5_"
         gradientUnits="userSpaceOnUse"
         x1="347.87601"
         y1="-172.927"
         x2="242.769"
         y2="-60.638"
         gradientTransform="matrix(0.1418,0,0,-0.1829,-11.76,13.338)"><stop
           offset="0"
           stop-color="#463d49"
           stop-opacity=".331"
           id="stop9-1" /><stop
           offset="1"
           stop-color="#340a50"
           stop-opacity=".821"
           id="stop10-5" /></linearGradient><linearGradient
         id="SVGID_6_"
         gradientUnits="userSpaceOnUse"
         x1="430.311"
         y1="-13.082"
         x2="399.03201"
         y2="-122.998"
         gradientTransform="matrix(0.106,0,0,-0.2448,-12.73,17.176)"><stop
           offset="0"
           stop-color="#715383"
           stop-opacity=".145"
           id="stop11-2" /><stop
           offset="1"
           stop-color="#f4f4f4"
           stop-opacity=".234"
           id="stop12" /></linearGradient><linearGradient
         id="SVGID_7_"
         gradientUnits="userSpaceOnUse"
         x1="525.60199"
         y1="-20.752001"
         x2="425.694"
         y2="-1.951"
         gradientTransform="matrix(0.09173,0,0,-0.2828,-13.114,19.532)"><stop
           offset="0"
           stop-color="#a5a1a8"
           stop-opacity=".356"
           id="stop13" /><stop
           offset="1"
           stop-color="#370c50"
           stop-opacity=".582"
           id="stop14" /></linearGradient><g
         id="g18"
         inkscape:label="Text"
         transform="matrix(0.71792589,0,0,0.71792589,4.3338763,24.790543)"><path
           class="st10"
           d="m 53.9,34.5 h 7.9 c 0.2,0 0.3,-0.1 0.3,-0.3 0.8,-7.8 -4.9,-7.2 -4.9,-7.2 -4,0 -5.7,3.1 -5.7,6.9 0,3.8 3.1,6.7 6.9,6.4 2.3,-0.2 2.9,-1.1 3.3,-1.5 0.1,-0.1 0.1,-0.3 0,-0.4 L 61,37.7 c -0.1,-0.1 -0.3,-0.1 -0.4,0 -2.6,1.8 -6.8,0.6 -7,-2.9 0,-0.2 0.1,-0.3 0.3,-0.3 z M 57.2,29 c 1.5,0 2.6,0.9 2.8,3.2 0,0.2 -0.1,0.3 -0.3,0.3 H 54 c -0.2,0 -0.3,-0.1 -0.3,-0.3 0.1,-2.2 2,-3.2 3.5,-3.2 z m 8.3,-7.3 h 1.6 c 0.2,0 0.3,0.1 0.3,0.3 v 14.4 c 0,2.2 1.4,1.9 2.1,1.8 0.2,0 0.3,0.1 0.3,0.3 V 40 c 0,0.2 -0.1,0.3 -0.3,0.3 -4,-0.1 -4.4,-1.9 -4.4,-3.6 V 22 c 0.1,-0.1 0.2,-0.3 0.4,-0.3 z m 7.5,5.7 h 1.7 c 0.2,0 0.3,0.1 0.3,0.3 v 12.2 c 0,0.2 -0.1,0.3 -0.3,0.3 H 73 c -0.2,0 -0.3,-0.1 -0.3,-0.3 V 27.7 c 0,-0.2 0.1,-0.3 0.3,-0.3 z m 0,-3.5 h 1.7 c 0.2,0 0.3,-0.1 0.3,-0.3 V 22 c 0,-0.2 -0.1,-0.3 -0.3,-0.3 H 73 c -0.2,0 -0.3,0.1 -0.3,0.3 v 1.6 c 0,0.2 0.1,0.3 0.3,0.3 z m 18.4,3.5 h 1.7 c 0.2,0 0.3,0.1 0.3,0.3 v 12.2 c 0,0.2 -0.1,0.3 -0.3,0.3 h -1.7 c -0.2,0 -0.3,-0.1 -0.3,-0.3 V 27.7 c 0,-0.2 0.1,-0.3 0.3,-0.3 z m 12.2,-0.1 V 29 c 0,0.2 -0.1,0.3 -0.3,0.3 -2.8,0.1 -3.6,1 -3.6,2.5 v 8 c 0,0.2 -0.1,0.3 -0.3,0.3 h -1.7 c -0.2,0 -0.3,-0.1 -0.3,-0.3 V 27.7 c 0,-0.2 0.1,-0.3 0.3,-0.3 h 1.7 c 0.2,0 0.3,0.1 0.3,0.3 v 0.9 c 0.4,-0.6 1.4,-1.4 3.6,-1.5 0.2,-0.1 0.3,0 0.3,0.2 z M 91.4,23.9 h 1.7 c 0.2,0 0.3,-0.1 0.3,-0.3 V 22 c 0,-0.2 -0.1,-0.3 -0.3,-0.3 h -1.7 c -0.2,0 -0.3,0.1 -0.3,0.3 v 1.6 c 0,0.2 0.1,0.3 0.3,0.3 z m -2.9,15.8 -4.2,-6 c -0.1,-0.1 -0.1,-0.2 0,-0.3 L 88,27.9 c 0.1,-0.2 0,-0.4 -0.2,-0.4 h -1.6 c -0.1,0 -0.2,0 -0.2,0.1 l -2.7,3.9 c -0.1,0.2 -0.4,0.2 -0.5,0 L 80.1,27.6 C 80,27.5 80,27.5 79.9,27.5 h -1.6 c -0.2,0 -0.4,0.3 -0.2,0.4 l 3.7,5.5 c 0.1,0.1 0.1,0.2 0,0.3 l -4.2,6 c -0.1,0.2 0,0.5 0.2,0.5 h 1.9 c 0.1,0 0.2,0 0.2,-0.1 l 2.9,-4.3 c 0.1,-0.2 0.4,-0.2 0.5,0 l 2.9,4.3 c 0.1,0.1 0.1,0.1 0.2,0.1 h 1.9 c 0.2,-0.1 0.4,-0.3 0.2,-0.5 z"
           id="path18" /></g><g
         id="g1"
         inkscape:label="Icon"
         transform="matrix(0.77009679,0,0,0.77009679,36.818037,-0.01169248)"><path
           d="m 31.3,6.7 c -3.1,1.1 -6,4.3 -8.9,9.5 -4.3,7.9 -9.8,19.1 -2.2,28 3.5,4.1 9.4,6.5 17,2.7 6.1,-3.1 7.9,-12 5.6,-16.1 C 38.2,22.2 33.6,20.1 32.4,14.8 31.6,11.2 31.2,8.5 31.3,6.7 Z"
           fill-rule="evenodd"
           clip-rule="evenodd"
           fill="url(#SVGID_1_)"
           id="path2"
           style="fill:url(#SVGID_1_)" /><path
           d="m 31.3,6.6 c -3.1,1.1 -6.1,4.3 -8.9,9.5 -4.3,7.9 -9.8,19.1 -2.2,28 3.5,4.1 9.3,5.4 12.5,3 2.1,-1.6 3.5,-3.1 4.3,-6.3 0.9,-3.6 0.2,-8.3 -0.3,-10.6 -0.6,-2.8 -0.8,-5.8 -0.6,-9.2 0,0 -0.1,0 -0.1,-0.1 -1.7,-2 -2.9,-3.8 -3.5,-6.3 -0.9,-3.5 -1.3,-6.2 -1.2,-8 z"
           fill-rule="evenodd"
           clip-rule="evenodd"
           fill="url(#SVGID_2_)"
           id="path4"
           style="fill:url(#SVGID_2_)" /><path
           d="m 28.7,8 c -2.9,2.3 -5,6.1 -6.4,11.4 -2.1,8 -2.3,15.4 -1.6,19.8 1.4,8.4 8.9,11.5 16.5,7.6 4.7,-2.4 6.7,-7.5 6.6,-13.1 C 43.7,27.9 32.5,21.4 30.6,16.6 29.3,13.3 28.7,10.5 28.7,8 Z"
           fill-rule="evenodd"
           clip-rule="evenodd"
           fill="url(#SVGID_3_)"
           id="path6"
           style="fill:url(#SVGID_3_)" /><path
           d="m 36,23 c 3.5,4.4 4.2,7.5 2.3,9.2 -2.9,2.6 -10.1,4.3 -14.5,1.2 -3,-2.1 -4.1,-6.6 -3.4,-13.5 -1.2,2.6 -2.3,5.1 -3.1,7.8 -0.8,2.6 -1.1,5.4 -0.7,8.2 1.1,2.1 3.6,3.6 7.7,4.3 6.1,1.1 11.9,0.5 15.8,-1.4 2.6,-1.3 3.8,-2.6 3.7,-3.9 C 43.9,33 43.3,31.2 42,29.4 40.8,27.6 38.8,25.5 36,23 Z"
           fill-rule="evenodd"
           clip-rule="evenodd"
           fill="url(#SVGID_4_)"
           id="path8"
           style="fill:url(#SVGID_4_)" /><path
           d="m 22.5,18.6 c 0,3.2 0.8,6.2 2.5,9.1 2.5,4.3 5.4,8.6 9.8,12.1 2.9,2.4 5.3,3.1 7,2.3 -1.4,2.6 -3,3.8 -4.6,3.8 -2.4,-0.1 -5.4,-1.1 -10.1,-6.8 -3.2,-3.8 -5.3,-7.4 -6.5,-10.8 0.2,-1.3 0.4,-2.7 0.6,-4 0.3,-1.3 0.7,-3.2 1.3,-5.7 z"
           fill-rule="evenodd"
           clip-rule="evenodd"
           fill="url(#SVGID_5_)"
           id="path10"
           style="fill:url(#SVGID_5_)" /><path
           d="m 30,23 c 0.3,2.6 1.3,6.8 0,9.5 -1.3,2.8 -7.2,7.8 -5.6,12.2 1.6,4.4 5.6,3.4 8.1,1.4 2.5,-2 3.8,-5.3 4.1,-7.7 0.3,-2.3 -0.7,-6.8 -1,-10.7 C 35.4,25.1 35.5,22.9 36,21 L 35.2,20 30.7,18.7 C 30.1,19.8 29.8,21.2 30,23 Z"
           fill-rule="evenodd"
           clip-rule="evenodd"
           fill="url(#SVGID_6_)"
           id="path12"
           style="fill:url(#SVGID_6_)" /><path
           d="m 31.6,10.1 c -1.5,0.6 -2.8,1.8 -4.1,3.7 -2,2.7 -3,4.4 -2.2,9.8 0.5,3.6 0.8,6.9 1.1,10 l 6.3,-18.3 c -0.2,-0.9 -0.4,-1.8 -0.6,-2.5 -0.3,-0.9 -0.4,-1.7 -0.5,-2.7 z"
           fill-rule="evenodd"
           clip-rule="evenodd"
           fill="url(#SVGID_7_)"
           id="path14"
           style="fill:url(#SVGID_7_)" /><path
           d="m 32.6,15.2 c -1.6,0.9 -2.8,2.9 -3.7,5.7 -0.9,2.9 -1.7,6.9 -2.4,12.1 1,-3.3 1.6,-5.7 1.9,-7.2 0.5,-2.2 0.6,-5.4 1.9,-7.5 0.8,-1.4 1.6,-2.4 2.3,-3.1 z"
           fill-rule="evenodd"
           clip-rule="evenodd"
           fill="#330a4c"
           fill-opacity="0.316"
           id="path15" /><path
           d="m 25.1,46.2 c 2.6,0.4 4,0.7 4.1,1 0.2,0.4 -0.3,0.8 -1.8,0.6 -0.9,-0.2 -1.7,-0.7 -2.3,-1.6 z"
           fill-rule="evenodd"
           clip-rule="evenodd"
           fill="#ffffff"
           id="path16" /><path
           d="m 26.5,10.1 c -1.4,1.7 -2.7,3.6 -3.8,5.5 -1.1,1.9 -1.8,3.4 -2.3,4.3 -0.1,0.7 -0.2,1.8 -0.2,3.2 0,1.4 0.1,2.9 0.4,4.6 0.2,-3.3 0.8,-6.6 1.9,-9.7 1,-3.1 2.4,-5.8 4,-7.9 z"
           fill-rule="evenodd"
           clip-rule="evenodd"
           fill="#ededed"
           fill-opacity="0.603"
           id="path17" /></g></g><rect
       style="font-variation-settings:normal;display:inline;fill:none;stroke:#623d8f;stroke-width:1.99928;stroke-linecap:butt;stroke-linejoin:miter;stroke-miterlimit:4;stroke-dasharray:none;stroke-dashoffset:0;stroke-opacity:1;stop-color:#000000"
       id="rect1-18-1"
       width="48.000725"
       height="48.000725"
       x="0.99963778"
       y="0.99963778"
       rx="6.9104829"
       ry="6.9104829"
       inkscape:label="Frame" /></g><style
     type="text/css"
     id="style1">
	.st0{fill:url(#ICON_00000088831890668800157600000002638584723837204667_);}
</style><style
     id="style1-7">.st10{fill:#333}</style><style
     type="text/css"
     id="style1-1">
	.st0{fill:url(#ICON_00000088831890668800157600000002638584723837204667_);}
</style><style
     id="style1-7-2">.st10{fill:#333}</style></svg>
