<?xml version="1.0" encoding="UTF-8" standalone="no"?>
<!-- Created with Inkscape (http://www.inkscape.org/) -->

<svg
   width="50mm"
   height="50mm"
   viewBox="0 0 50 50"
   version="1.1"
   id="svg1"
   xml:space="preserve"
   sodipodi:docname="Elm_Box.svg"
   inkscape:version="1.4.3 (0d15f75, 2025-12-25)"
   inkscape:export-filename="Elm_Box.svg"
   inkscape:export-xdpi="96"
   inkscape:export-ydpi="96"
   xmlns:inkscape="http://www.inkscape.org/namespaces/inkscape"
   xmlns:sodipodi="http://sodipodi.sourceforge.net/DTD/sodipodi-0.dtd"
   xmlns:xlink="http://www.w3.org/1999/xlink"
   xmlns="http://www.w3.org/2000/svg"
   xmlns:svg="http://www.w3.org/2000/svg"><sodipodi:namedview
     id="namedview1"
     pagecolor="#ffffff"
     bordercolor="#000000"
     borderopacity="0.25"
     inkscape:showpageshadow="2"
     inkscape:pageopacity="0.0"
     inkscape:pagecheckerboard="0"
     inkscape:deskcolor="#d1d1d1"
     inkscape:document-units="mm"
     inkscape:zoom="3.0876875"
     inkscape:cx="35.7873"
     inkscape:cy="124.20298"
     inkscape:window-width="2560"
     inkscape:window-height="1369"
     inkscape:window-x="-8"
     inkscape:window-y="-8"
     inkscape:window-maximized="1"
     inkscape:current-layer="g1"><inkscape:page
       x="0"
       y="0"
       width="50"
       height="50"
       id="page2"
       margin="0"
       bleed="0" /></sodipodi:namedview><defs
     id="defs1"><linearGradient
       id="linearGradient1"><stop
         style="stop-color:#ff3e00;stop-opacity:1;"
         offset="0"
         id="stop1" /><stop
         style="stop-color:#ffffff;stop-opacity:1;"
         offset="1"
         id="stop5" /></linearGradient><linearGradient
       id="linearGradient2"><stop
         style="stop-color:#ffffff;stop-opacity:1;"
         offset="0"
         id="stop2" /><stop
         style="stop-color:#7f7f7f;stop-opacity:0;"
         offset="0.30000001"
         id="stop4" /><stop
         style="stop-color:#7f7f7f;stop-opacity:0;"
         offset="0.69999999"
         id="stop17" /><stop
         style="stop-color:#ff3e00;stop-opacity:1;"
         offset="1"
         id="stop3" /></linearGradient><linearGradient
       xlink:href="#linearGradient2"
       id="linearGradient9"
       x1="25.000004"
       y1="2.3639462"
       x2="25.000004"
       y2="47.63604"
       gradientUnits="userSpaceOnUse" /><radialGradient
       xlink:href="#linearGradient1"
       id="radialGradient5"
       cx="25"
       cy="25"
       fx="25"
       fy="25"
       r="25"
       gradientUnits="userSpaceOnUse" /><radialGradient
       xlink:href="#linearGradient1"
       id="radialGradient5-1"
       cx="25"
       cy="25"
       fx="25"
       fy="25"
       r="25"
       gradientUnits="userSpaceOnUse" /></defs><style
     type="text/css"
     id="style1">
	.st0{fill:#FF3E00;}
	.st1{fill:#FFFFFF;}
</style><g
     id="g1"
     inkscape:label="Elm"><path
       id="rect1-18"
       style="font-variation-settings:normal;vector-effect:none;fill:#ffffff;fill-opacity:1;stroke:none;stroke-width:0.260698;stroke-linecap:butt;stroke-linejoin:miter;stroke-miterlimit:4;stroke-dasharray:none;stroke-dashoffset:0;stroke-opacity:1;-inkscape-stroke:none;stop-color:#000000"
       inkscape:label="Background"
       d="M 7.198527 0 C 3.2106628 6.2665922e-16 0 3.2106628 0 7.198527 L 0 42.801522 C 6.2657103e-16 46.788825 3.2093758 49.999145 7.19646 50.000049 L 42.803589 50.000049 C 46.790112 49.999146 49.999146 46.790112 50.000049 42.803589 L 50.000049 42.801522 L 50.000049 7.198527 L 50.000049 7.19646 C 49.999145 3.2093758 46.788825 0 42.801522 0 L 7.198527 0 z " /><g
       id="g42"
       transform="scale(0.15465608)"
       inkscape:label="Logo"
       style="display:inline">
  <polygon
   fill="#f0ad00"
   points="231.514,82.916 91.783,82.916 161.649,152.782 "
   id="polygon37"
   style="fill:#f0ad00;fill-opacity:1" />

  <path
   id="path38"
   style="fill:#7fd13b;fill-opacity:1"
   d="M 46.545387,0 C 35.923948,0 26.153543,3.5245299 18.337479,9.4694634 L 79.240764,70.37609 H 232.21236 L 161.83961,0 Z" />

  <rect
   fill="#7fd13b"
   x="192.99001"
   y="107.392"
   transform="matrix(0.7071,0.7071,-0.7071,0.7071,186.4727,-127.2386)"
   width="107.676"
   height="108.167"
   id="rect38"
   style="fill:#7fd13b;fill-opacity:1" />

  <path
   id="path39"
   style="fill:#60b5cc;fill-opacity:1"
   d="M 179.5723,0 323.29831,143.72266 V 46.545387 C 323.29831,20.760016 302.53829,0 276.75292,0 Z" />

  <path
   id="path40"
   style="fill:#5a6378;fill-opacity:1"
   d="M 9.4694634,18.337479 C 3.5237991,26.153808 0,35.923228 0,46.545387 V 276.75292 c 0,10.62264 3.523308,20.39474 9.4694634,28.21125 L 152.78114,161.64915 Z" />

  <path
   id="path41"
   style="fill:#f0ad00;fill-opacity:1"
   d="m 323.29831,178.88064 -67.7765,67.77315 58.30703,58.31038 c 5.94615,-7.81651 9.46947,-17.58861 9.46947,-28.21125 z" />

  <path
   id="path42"
   style="display:inline;fill:#60b5cc;fill-opacity:1"
   d="M 161.64915,170.51717 18.337479,313.82884 c 7.81624,5.94542 17.585991,9.46947 28.207908,9.46947 H 276.75292 c 10.62216,0 20.39158,-3.5238 28.20791,-9.46947 z" />
</g></g><style
     type="text/css"
     id="style1-8">
	.st0{fill:#FF3E00;}
	.st1{fill:#FFFFFF;}
</style><style
     type="text/css"
     id="style1-1">
	.st0{fill:#FF3E00;}
	.st1{fill:#FFFFFF;}
</style></svg>
