<?xml version="1.0" encoding="UTF-8" standalone="no"?>
<svg
   id="Layer_1"
   viewBox="0 0 8 8"
   width="50"
   height="50"
   version="1.1"
   sodipodi:docname="TypeScript_Box.svg"
   xml:space="preserve"
   xmlns:inkscape="http://www.inkscape.org/namespaces/inkscape"
   xmlns:sodipodi="http://sodipodi.sourceforge.net/DTD/sodipodi-0.dtd"
   xmlns="http://www.w3.org/2000/svg"
   xmlns:svg="http://www.w3.org/2000/svg"><defs
     id="defs2"><style
       id="style1-0">.cls-1{fill:#01579b;}.cls-2{fill:#40c4ff;}.cls-3{fill:#29b6f6;}.cls-4{fill:#fff;}.cls-4,.cls-5,.cls-6{opacity:0.2;isolation:isolate;}.cls-5{fill:#263238;}.cls-6{fill:url(#radial-gradient);}</style></defs><sodipodi:namedview
     id="namedview2"
     pagecolor="#ffffff"
     bordercolor="#000000"
     borderopacity="0.25"
     inkscape:showpageshadow="2"
     inkscape:pageopacity="0.0"
     inkscape:pagecheckerboard="0"
     inkscape:deskcolor="#d1d1d1"><inkscape:page
       x="0"
       y="0"
       width="8"
       height="8"
       id="page2"
       margin="0"
       bleed="0" /></sodipodi:namedview><style
     id="style1">.st0{fill:#007acc}.st1{fill:#fff}</style><g
     id="g1"
     inkscape:label="Fortran"><rect
       style="fill:#734f96;stroke-width:0.142003;-inkscape-stroke:none;fill-opacity:1"
       id="rect2"
       width="8"
       height="8"
       x="0"
       y="0"
       rx="1.1538929"
       ry="1.1538929"
       inkscape:label="Background" /><path
       d="m 1.0828318,6.4529306 0.3074005,-0.01882 C 2.0144436,6.3933326 2.0081701,6.3964693 2.0395375,5.9071379 2.0677682,5.4429004 2.0322069,1.8081527 2.0113068,1.7352737 1.9768811,1.6152306 1.847707,1.5461879 1.4623773,1.5462851 L 1.0828318,1.5439325 V 0.86326005 H 6.9171682 V 3.469891 L 6.2302221,3.4596965 C 6.2239487,3.453423 6.2051282,3.2691395 6.1925813,3.0997557 6.1204362,2.3030236 5.9416421,1.8446142 5.5966007,1.66582 5.4146697,1.5717178 5.1305909,1.5439828 4.2206634,1.5437067 L 3.372652,1.5439325 v 1.9541892 h 0.1505635 c 0.254076,-0.00314 0.5771602,-0.062735 0.6838093,-0.1286064 0.1380166,-0.084692 0.254076,-0.3293577 0.2948536,-0.6242112 0.03074,-0.2151898 0.05446,-0.3761987 0.05446,-0.3761987 L 5.2233286,2.3688953 V 5.4742678 H 4.5332458 V 5.3519349 c 0,-0.2007514 -0.094102,-0.6681256 -0.1599737,-0.8092789 C 4.2697596,4.3262209 4.0941022,4.2509392 3.5953605,4.2038881 l -0.228982,-0.021957 0.012547,1.0068935 c 0.00941,0.9567057 0.015684,1.0100303 0.075282,1.0915855 0.075282,0.1003757 0.156837,0.1191962 0.6555787,0.156837 L 4.444561,6.4531721 4.442281,7.1367399 H 1.0828318 Z"
       id="path5"
       style="fill:#ffffff;stroke:none;stroke-width:0.00313674"
       inkscape:label="Icon" /></g></svg>
