<?xml version="1.0" encoding="UTF-8" standalone="no"?>
<svg
   id="Layer_1"
   viewBox="0 0 8 8"
   width="50"
   height="50"
   version="1.1"
   sodipodi:docname="Fortran_Box.svg"
   xml:space="preserve"
   inkscape:version="1.4.3 (0d15f75, 2025-12-25)"
   xmlns:inkscape="http://www.inkscape.org/namespaces/inkscape"
   xmlns:sodipodi="http://sodipodi.sourceforge.net/DTD/sodipodi-0.dtd"
   xmlns="http://www.w3.org/2000/svg"
   xmlns:svg="http://www.w3.org/2000/svg"><defs
     id="defs2"><style
       id="style1-0">.cls-1{fill:#01579b;}.cls-2{fill:#40c4ff;}.cls-3{fill:#29b6f6;}.cls-4{fill:#fff;}.cls-4,.cls-5,.cls-6{opacity:0.2;isolation:isolate;}.cls-5{fill:#263238;}.cls-6{fill:url(#radial-gradient);}</style></defs><sodipodi:namedview
     id="namedview2"
     pagecolor="#ffffff"
     bordercolor="#000000"
     borderopacity="0.25"
     inkscape:showpageshadow="2"
     inkscape:pageopacity="0.0"
     inkscape:pagecheckerboard="0"
     inkscape:deskcolor="#d1d1d1"
     inkscape:zoom="4.2037498"
     inkscape:cx="-49.479633"
     inkscape:cy="37.704432"
     inkscape:window-width="2560"
     inkscape:window-height="1369"
     inkscape:window-x="-8"
     inkscape:window-y="-8"
     inkscape:window-maximized="1"
     inkscape:current-layer="Layer_1"><inkscape:page
       x="0"
       y="0"
       width="8"
       height="8"
       id="page2"
       margin="0"
       bleed="0" /></sodipodi:namedview><style
     id="style1">.st0{fill:#007acc}.st1{fill:#fff}</style><g
     id="g1"
     inkscape:label="Fortran"><rect
       style="fill:#734f96;stroke-width:0.142003;-inkscape-stroke:none;fill-opacity:1"
       id="rect2"
       width="8"
       height="8"
       x="0"
       y="0"
       rx="1.1538929"
       ry="1.1538929"
       inkscape:label="Background" /><path
       d="M 1.6,6.0180631 1.8529032,6.0025796 C 2.3664516,5.9690309 2.3612904,5.9716114 2.3870968,5.5690307 2.4103227,5.1870954 2.3810657,2.1967315 2.3638709,2.1367728 2.3355484,2.0380114 2.2292748,1.9812091 1.912258,1.9812891 L 1.6,1.9793491 V 1.4193536 H 6.4 V 3.5638697 L 5.8348387,3.5554824 C 5.8296775,3.5503212 5.8141935,3.3987083 5.8038711,3.2593536 5.744516,2.6038696 5.5974195,2.2267291 5.3135484,2.0796321 5.1638708,2.0022128 4.9301549,1.9793948 4.1815432,1.9791678 L 3.4838711,1.9793533 V 3.5870956 H 3.6077419 C 3.8167743,3.5845156 4.0825807,3.5354827 4.1703224,3.4812891 4.2838709,3.4116118 4.3793549,3.2103213 4.4129032,2.9677408 4.4381932,2.7907007 4.4577077,2.6582361 4.4577077,2.6582361 L 5.0064511,2.6580633 V 5.2129018 H 4.4387096 V 5.1122567 c 0,-0.1651612 -0.07742,-0.5496773 -0.1316128,-0.6658063 -0.085161,-0.1780648 -0.2296775,-0.24 -0.64,-0.2787096 l -0.1883872,-0.018063 0.01032,0.8283869 c 0.00775,0.7870968 0.012903,0.8309679 0.061936,0.8980647 0.061936,0.082581 0.1290322,0.098065 0.5393548,0.1290322 l 0.2754245,0.013103 -0.00188,0.5623818 H 1.6 Z"
       id="path5"
       style="fill:#ffffff;stroke:none;stroke-width:0.00258064"
       inkscape:label="Icon" /></g></svg>
