<?xml version="1.0" encoding="UTF-8" standalone="no"?>
<svg
   height="50"
   width="50"
   version="1.1"
   id="svg83"
   xml:space="preserve"
   xmlns:xlink="http://www.w3.org/1999/xlink"
   xmlns="http://www.w3.org/2000/svg"
   xmlns:svg="http://www.w3.org/2000/svg"><defs
     id="defs87"><linearGradient
       xlink:href="#h"
       id="linearGradient925"
       x1="0.81981987"
       y1="126.27114"
       x2="255.63922"
       y2="126.27114"
       gradientUnits="userSpaceOnUse" /><clipPath
       clipPathUnits="userSpaceOnUse"
       id="clipPath994"><path
         id="path996"
         d="m 71.17824,37.595877 c 0.423659,1.436741 0.347584,2.623613 -0.339553,3.30941 -1.604731,1.6054 -5.939712,-0.103521 -9.847466,-3.82253 a 19.941007,19.941007 0 0 1 -0.809168,-0.764773 c -1.413092,-1.413539 -2.512511,-2.918098 -3.21571,-4.303749 -1.368695,-2.455397 -1.711147,-4.623892 -0.676651,-5.658613 0.563765,-0.563094 1.465743,-0.716583 2.566053,-0.518698 0.717477,-0.453778 1.564574,-0.959314 2.493323,-1.47712 -3.776795,-1.969939 -8.070728,-3.08252 -12.625682,-3.08252 -15.107852,0 -27.355609,12.245751 -27.355609,27.35494 0,15.106511 12.24798,27.353824 27.355609,27.353824 15.108073,0 27.355162,-12.247313 27.355162,-27.353824 0,-4.879115 -1.280573,-9.454148 -3.517558,-13.420574 -0.483449,0.882344 -0.953513,1.690623 -1.38275,2.384227 m 4.595782,-16.626465 c 3.013583,3.011798 -5.3407,16.252111 -6.753122,17.665203 -1.412199,1.41019 -4.999362,0.11266 -8.011384,-2.900252 -3.013584,-3.011798 -4.31178,-6.599854 -2.899359,-8.012276 1.41153,-1.412868 14.650951,-9.766482 17.663865,-6.752899 m -42.258435,3.18693 c -4.60069,-2.610226 -11.147224,-5.514046 -13.229604,-3.43122 -2.110043,2.109152 0.89997,8.802929 3.537859,13.411874 a 28.291274,28.291274 0 0 1 9.691745,-9.980654"
         style="fill:url(#linearGradient998);fill-opacity:1;stroke-width:0.223096" /></clipPath><linearGradient
       xlink:href="#h"
       id="linearGradient998"
       gradientUnits="userSpaceOnUse"
       x1="0.81981987"
       y1="126.27114"
       x2="255.63922"
       y2="126.27114"
       gradientTransform="matrix(0.22309619,0,0,0.22309619,19.392483,19.82939)" /><filter
       style="color-interpolation-filters:sRGB"
       id="filter1000"
       x="-0.027079472"
       y="-0.026920993"
       width="1.0541589"
       height="1.0538419"><feGaussianBlur
         stdDeviation="0.72953261"
         id="feGaussianBlur1002" /></filter></defs><linearGradient
     id="a"
     gradientUnits="userSpaceOnUse"
     x1="48"
     x2="48"
     y1="90"
     y2="5.9877172"><stop
       offset="0"
       stop-color="#ebebeb"
       id="stop2"
       style="stop-color:#585858;stop-opacity:1;" /><stop
       offset="1"
       stop-color="#fafafa"
       id="stop4"
       style="stop-color:#818181;stop-opacity:1;" /></linearGradient><linearGradient
     id="b"
     gradientTransform="matrix(1.0058652,0,0,0.994169,100,0)"
     gradientUnits="userSpaceOnUse"
     x1="45.447727"
     x2="45.447727"
     y1="92.539597"
     y2="7.0165401"><stop
       offset="0"
       id="stop7" /><stop
       offset="1"
       stop-opacity=".588235"
       id="stop9" /></linearGradient><linearGradient
     id="c"
     gradientTransform="matrix(1.0238095,0,0,1.0119048,-1.142857,-98.071429)"
     gradientUnits="userSpaceOnUse"
     x1="32.251034"
     x2="32.251034"
     xlink:href="#b"
     y1="6.1317081"
     y2="90.238609" /><linearGradient
     id="d"
     gradientTransform="translate(0,-97)"
     gradientUnits="userSpaceOnUse"
     x1="32.251034"
     x2="32.251034"
     xlink:href="#b"
     y1="6.1317081"
     y2="90.238609" /><linearGradient
     id="e"><stop
       offset="0"
       stop-color="#fff"
       id="stop14" /><stop
       offset="1"
       stop-color="#fff"
       stop-opacity="0"
       id="stop16" /></linearGradient><radialGradient
     id="f"
     cx="48"
     cy="90.171875"
     gradientTransform="matrix(1.1573129,0,0,0.99590774,-7.551021,0.197132)"
     gradientUnits="userSpaceOnUse"
     r="42"
     xlink:href="#e" /><linearGradient
     id="g"
     gradientUnits="userSpaceOnUse"
     x1="36.357143"
     x2="36.357143"
     xlink:href="#e"
     y1="6"
     y2="63.893143"
     gradientTransform="matrix(0.91995739,0,0,0.98668795,0.48025569,1.1935087)" /><linearGradient
     id="h"
     gradientTransform="rotate(-90,48.000087,47.999896)"
     gradientUnits="userSpaceOnUse"
     x1="18.000002"
     x2="78.000175"
     y1="47.999897"
     y2="47.999897"><stop
       offset="0"
       stop-color="#bababa"
       id="stop21"
       style="stop-color:#818181;stop-opacity:1;" /><stop
       offset="1"
       stop-color="#d2d2d2"
       id="stop23"
       style="stop-color:#a7a7a7;stop-opacity:1;" /></linearGradient><clipPath
     id="i"><path
       d="m -88,6 c -3.324,0 -6,2.676 -6,6 v 72 c 0,3.324 2.676,6 6,6 h 72 c 3.324,0 6,-2.676 6,-6 V 12 c 0,-3.324 -2.676,-6 -6,-6 z m 31.84375,12 h 8.3125 c 1.180648,0 2.125,0.986683 2.125,2.1875 v 4.21875 c 2.111082,0.562476 4.123141,1.426616 5.96875,2.5 l 3,-3.03125 c 0.849111,-0.849025 2.196406,-0.866085 3.03125,-0.03125 l 5.875,5.875 c 0.834848,0.834847 0.817863,2.18214 -0.03125,3.03125 l -3.03125,3 c 1.073391,1.845617 1.937528,3.857672 2.5,5.96875 h 4.21875 c 1.200827,0 2.1875,0.944356 2.1875,2.125 v 8.3125 c 0,1.180653 -0.986672,2.125 -2.1875,2.125 h -4.21875 c -0.562472,2.111079 -1.426609,4.123134 -2.5,5.96875 l 3.03125,3 c 0.849106,0.849111 0.866094,2.196416 0.03125,3.03125 l -5.875,5.875 c -0.834844,0.834921 -2.182138,0.81786 -3.03125,-0.03125 l -3,-3.03125 c -1.84561,1.073389 -3.857669,1.937515 -5.96875,2.5 v 4.21875 c 0,1.200828 -0.944354,2.1875 -2.125,2.1875 h -8.3125 c -1.180646,0 -2.125,-0.986673 -2.125,-2.1875 v -4.21875 c -2.111081,-0.562485 -4.123141,-1.426613 -5.96875,-2.5 l -3,3.03125 c -0.849114,0.849022 -2.196407,0.866084 -3.03125,0.03125 l -5.875,-5.875 c -0.417421,-0.417418 -0.6298,-0.981833 -0.625,-1.53125 0.0047,-0.549422 0.231693,-1.075441 0.65625,-1.5 l 3.03125,-3 c -1.073391,-1.845614 -1.937528,-3.857673 -2.5,-5.96875 h -4.21875 c -1.200828,0 -2.1875,-0.944347 -2.1875,-2.125 v -8.3125 c 0,-1.180643 0.986672,-2.125 2.1875,-2.125 h 4.21875 c 0.562472,-2.111076 1.426609,-4.123135 2.5,-5.96875 l -3.03125,-3 c -0.849107,-0.84911 -0.866093,-2.196403 -0.03125,-3.03125 l 5.875,-5.875 c 0.834843,-0.834932 2.182137,-0.817858 3.03125,0.03125 l 3,3.03125 c 1.845609,-1.073383 3.85767,-1.937533 5.96875,-2.5 V 20.1875 c 0,-1.200817 0.944355,-2.1875 2.125,-2.1875 z M -52,38.9375 c -5.006511,0 -9.0625,4.055982 -9.0625,9.0625 0,5.006505 4.055989,9.0625 9.0625,9.0625 5.00651,0 9.0625,-4.055995 9.0625,-9.0625 0,-5.00652 -4.05599,-9.0625 -9.0625,-9.0625 z"
       id="path26" /></clipPath><filter
     id="j"
     color-interpolation-filters="sRGB"
     height="1.3213328"
     width="1.3213336"
     x="-0.16066687"
     y="-0.16066641"><feGaussianBlur
       stdDeviation="3.6000051"
       id="feGaussianBlur29" /></filter><clipPath
     id="k"><rect
       height="84"
       rx="6"
       width="84"
       x="6"
       y="6"
       id="rect32" /></clipPath><filter
     id="l"
     color-interpolation-filters="sRGB"
     height="1.3915758"
     width="1.3915758"
     x="-0.19578789"
     y="-0.19578789"><feGaussianBlur
       stdDeviation="5.28"
       id="feGaussianBlur35" /></filter><linearGradient
     id="m"
     gradientUnits="userSpaceOnUse"
     x1="48"
     x2="48"
     xlink:href="#e"
     y1="20.220806"
     y2="138.66119" /><g
     id="g79"
     transform="matrix(0.5952381,0,0,0.5952381,-3.5714286,-3.5714286)"><rect
       fill="url(#a)"
       height="84"
       rx="10.709455"
       width="84"
       x="6"
       y="6"
       id="rect53"
       style="fill:url(#a)"
       ry="10.709455" /><path
       id="path991"
       d="m 232.123,79.636 c 1.899,6.44 1.558,11.76 -1.522,14.834 -7.193,7.196 -26.624,-0.464 -44.14,-17.134 a 89.383,89.383 0 0 1 -3.627,-3.428 C 176.5,67.572 171.572,60.828 168.42,54.617 c -6.135,-11.006 -7.67,-20.726 -3.033,-25.364 2.527,-2.524 6.57,-3.212 11.502,-2.325 3.216,-2.034 7.013,-4.3 11.176,-6.621 C 171.136,11.477 151.889,6.49 131.472,6.49 63.753,6.49 8.854,61.38 8.854,129.105 c 0,67.713 54.9,122.61 122.618,122.61 67.72,0 122.616,-54.897 122.616,-122.61 0,-21.87 -5.74,-42.377 -15.767,-60.156 -2.167,3.955 -4.274,7.578 -6.198,10.687 m 20.6,-74.526 c 13.508,13.5 -23.939,72.848 -30.27,79.182 -6.33,6.321 -22.409,0.505 -35.91,-13 -13.508,-13.5 -19.327,-29.583 -12.996,-35.914 6.327,-6.333 65.671,-43.777 79.176,-30.269 M 63.305,19.394 C 42.683,7.694 13.339,-5.322 4.005,4.014 -5.453,13.468 8.039,43.472 19.863,64.131 A 126.812,126.812 0 0 1 63.305,19.394"
       transform="matrix(0.22309619,0,0,0.22309619,19.392483,19.82939)"
       style="fill:url(#linearGradient925);fill-opacity:1" /><path
       id="rect981"
       style="fill:#000000;stroke-width:5.88;filter:url(#filter1000);stop-color:#000000"
       d="m 26.429062,16.26017 c -5.933031,0 -10.71,4.776968 -10.71,10.71 v 43.617656 c 0,5.933031 4.776969,10.71 10.71,10.71 h 43.237031 c 5.933033,0 10.71,-4.776969 10.71,-10.71 V 26.97017 c 0,-5.933032 -4.776967,-10.71 -10.71,-10.71 z m -3.845625,4.708594 c 2.935371,0.06036 7.482612,2.18327 10.933125,4.140938 a 28.291274,28.291274 0 0 0 -9.692812,9.981562 c -2.637887,-4.60894 -5.647229,-11.301319 -3.537188,-13.410469 0.520595,-0.520706 1.318418,-0.732151 2.296875,-0.712031 z m 51.112032,0.305156 c 0.885977,-0.01433 1.606263,0.178816 2.077031,0.649688 3.013579,3.011796 -5.340392,16.25316 -6.752814,17.66625 -1.412196,1.41019 -4.997511,0.112286 -8.009531,-2.900625 -3.013579,-3.011796 -4.313045,-6.600392 -2.900624,-8.012813 1.190977,-1.192107 10.801661,-7.325133 15.585938,-7.4025 z m -24.973595,0.958125 c 4.554951,0 8.849459,1.111157 12.62625,3.081094 -0.928748,0.517806 -1.776272,1.026066 -2.49375,1.479844 -1.100309,-0.197887 -2.002173,-0.04466 -2.565936,0.518437 -1.034497,1.03472 -0.689475,3.201482 0.679217,5.656875 0.703199,1.385649 1.802536,2.891464 3.215626,4.305 a 19.941007,19.941007 0 0 0 0.807188,0.764531 c 3.907749,3.71901 8.242302,5.428055 9.847031,3.822657 0.687135,-0.685797 0.764909,-1.874043 0.34125,-3.310782 0.429237,-0.693605 0.897957,-1.499842 1.381405,-2.382187 2.236984,3.966423 3.5175,8.541203 3.5175,13.420312 0,15.106498 -12.247722,27.3525 -27.355781,27.3525 -15.107612,0 -27.352499,-12.246002 -27.352499,-27.3525 0,-15.109174 12.244664,-27.355781 27.352499,-27.355781 z"
       clip-path="url(#clipPath994)" /></g><style
     type="text/css"
     id="style267">
	.st0{fill:#231F20;}
</style></svg>
