<?xml version="1.0" encoding="UTF-8" standalone="no"?>
<svg
   width="870"
   height="868"
   viewBox="0 0 870 868"
   fill="none"
   version="1.1"
   id="svg38"
   xmlns="http://www.w3.org/2000/svg"
   xmlns:svg="http://www.w3.org/2000/svg">
  <g
     filter="url(#filter0_d)"
     id="g1"
     transform="translate(-77,-86)">
    <rect
       x="100"
       y="100"
       width="824"
       height="824"
       rx="179"
       fill="url(#paint0_linear)"
       id="rect1"
       style="fill:url(#paint0_linear)" />
  </g>
  <g
     filter="url(#filter1_d)"
     id="g13"
     transform="translate(-77,-86)">
    <path
       fill-rule="evenodd"
       clip-rule="evenodd"
       d="m 284.07,290.168 c 0,0 48.64,100.302 162.43,97.473 238.461,-5.983 280.277,-130.377 286.259,-148.325 5.983,-17.947 15.137,-15.229 17.253,1.359 77.773,705.938 -539.732,403.047 -561.663,282.811 122.642,-35.895 92.729,-104.694 92.729,-104.694 z"
       fill="url(#paint1_radial)"
       id="path1"
       style="fill:url(#paint1_radial)" />
    <path
       fill-rule="evenodd"
       clip-rule="evenodd"
       d="m 374.825,587.949 c 114.03,22.807 172.099,1.66 206.085,-24.582 -8.974,-11.592 -24.304,-24.305 -24.304,-24.305 0,0 39.821,11.066 53.843,29.165 13.982,18.048 5.192,29.167 1.532,52.259 -8.146,-20.282 -23.351,-27.887 -25.409,-35.946 -30.564,42.251 -106.712,40.496 -211.747,3.409 z"
       fill="url(#paint2_linear)"
       id="path2"
       style="fill:url(#paint2_linear)" />
    <path
       d="m 559.967,596.108 c 2.809,-4.753 7.126,-9.449 13.66,-12.626 1.215,0.375 2.5,0.871 3.853,1.5 0,0 107.499,31.044 165.815,73.707 l -15.675,31.218 c -69.818,-20.075 -161.752,-85.983 -161.752,-85.983 -2.881,-2.429 -4.825,-5.151 -5.901,-7.816 z"
       fill="url(#paint3_linear)"
       id="path3"
       style="fill:url(#paint3_linear)" />
    <path
       d="m 802.381,718.68 8.392,-18.577 -65.106,-41.709 -5.025,-2.872 -3.473,-3.473 c -9.458,5.923 -21.59,24.68 -17.946,37.049 l 4.052,0.579 6.241,2.404 z"
       fill="url(#paint4_linear)"
       id="path4"
       style="fill:url(#paint4_linear)" />
    <path
       d="m 897,797.571 c -20.297,-68.898 -27.496,-123.603 -80.539,-118.735 -42.745,3.923 -45.737,65.17 -1.567,82.07 42.551,16.281 82.106,36.665 82.106,36.665 z"
       fill="url(#paint5_radial)"
       id="path5"
       style="fill:url(#paint5_radial)" />
    <path
       fill-rule="evenodd"
       clip-rule="evenodd"
       d="m 408.208,441.228 c 0.002,9.037 -1.775,17.985 -5.232,26.334 -3.456,8.349 -8.524,15.935 -14.913,22.326 -6.388,6.39 -13.974,11.46 -22.322,14.918 -8.348,3.459 -17.296,5.239 -26.332,5.239 -9.036,0 -17.984,-1.78 -26.332,-5.239 -8.348,-3.458 -15.934,-8.528 -22.322,-14.918 -6.389,-6.391 -11.457,-13.977 -14.913,-22.326 -3.456,-8.349 -5.234,-17.297 -5.232,-26.334 -0.002,-9.036 1.776,-17.984 5.232,-26.333 3.456,-8.349 8.524,-15.936 14.913,-22.326 6.388,-6.39 13.974,-11.46 22.322,-14.918 8.348,-3.459 17.296,-5.239 26.332,-5.239 9.036,0 17.984,1.78 26.332,5.239 8.348,3.458 15.934,8.528 22.322,14.918 6.389,6.39 11.457,13.977 14.913,22.326 3.457,8.349 5.234,17.297 5.232,26.333 z"
       fill="url(#paint6_radial)"
       id="path6"
       style="fill:url(#paint6_radial)" />
    <path
       fill-rule="evenodd"
       clip-rule="evenodd"
       d="m 271.156,467.151 c 16.014,22.196 25.109,48.001 25.286,71.738 0.178,23.736 -8.578,43.46 -24.341,54.831 -15.763,11.372 -37.241,13.461 -59.711,5.806 -22.469,-7.654 -44.088,-24.424 -60.101,-46.621 -16.014,-22.196 -25.109,-48.001 -25.286,-71.738 -0.178,-23.736 8.578,-43.46 24.341,-54.831 15.763,-11.372 37.242,-13.461 59.711,-5.806 22.469,7.654 44.088,24.424 60.101,46.621 z"
       fill="url(#paint7_radial)"
       id="path7"
       style="fill:url(#paint7_radial)" />
    <path
       fill-rule="evenodd"
       clip-rule="evenodd"
       d="m 388.622,451.421 c 10e-4,4.351 -0.855,8.66 -2.519,12.68 -1.664,4.02 -4.104,7.673 -7.18,10.75 -3.076,3.077 -6.728,5.518 -10.748,7.183 -4.02,1.666 -8.328,2.523 -12.679,2.523 -4.351,0 -8.659,-0.857 -12.679,-2.523 -4.019,-1.665 -7.672,-4.106 -10.748,-7.183 -3.076,-3.077 -5.516,-6.73 -7.18,-10.75 -1.664,-4.02 -2.52,-8.329 -2.518,-12.68 -0.002,-4.351 0.854,-8.659 2.518,-12.679 1.664,-4.02 4.104,-7.673 7.18,-10.75 3.076,-3.077 6.729,-5.518 10.748,-7.183 4.02,-1.666 8.328,-2.523 12.679,-2.523 4.351,0 8.659,0.857 12.679,2.523 4.02,1.665 7.672,4.106 10.748,7.183 3.076,3.077 5.516,6.73 7.18,10.75 1.664,4.02 2.52,8.328 2.519,12.679 z"
       fill="#2e3436"
       stroke="#000000"
       stroke-width="1.39874"
       stroke-miterlimit="10"
       id="path8" />
    <path
       fill-rule="evenodd"
       clip-rule="evenodd"
       d="m 207.237,472.635 c 0.001,4.715 -0.772,9.383 -2.275,13.739 -1.503,4.356 -3.706,8.314 -6.484,11.648 -2.778,3.334 -6.075,5.979 -9.705,7.784 -3.63,1.804 -7.52,2.733 -11.449,2.733 -3.929,0 -7.819,-0.929 -11.448,-2.733 -3.63,-1.805 -6.928,-4.45 -9.706,-7.784 -2.777,-3.334 -4.981,-7.292 -6.483,-11.648 -1.503,-4.356 -2.276,-9.024 -2.275,-13.739 -0.001,-4.714 0.772,-9.383 2.275,-13.739 1.502,-4.356 3.706,-8.314 6.483,-11.648 2.778,-3.334 6.076,-5.979 9.706,-7.783 3.629,-1.805 7.519,-2.734 11.448,-2.734 3.929,0 7.819,0.929 11.449,2.734 3.63,1.804 6.927,4.449 9.705,7.783 2.778,3.334 4.981,7.292 6.484,11.648 1.503,4.356 2.276,9.025 2.275,13.739 z"
       fill="#ffffff"
       id="path9" />
    <path
       fill-rule="evenodd"
       clip-rule="evenodd"
       d="m 365.689,436.13 c 0,3.012 -0.593,5.994 -1.746,8.776 -1.152,2.783 -2.842,5.311 -4.971,7.44 -2.13,2.13 -4.658,3.819 -7.44,4.972 -2.783,1.152 -5.765,1.745 -8.776,1.745 -3.012,0 -5.994,-0.593 -8.776,-1.745 -2.783,-1.153 -5.311,-2.842 -7.44,-4.972 -2.13,-2.129 -3.819,-4.657 -4.972,-7.44 -1.152,-2.782 -1.745,-5.764 -1.745,-8.776 0,-3.011 0.593,-5.993 1.745,-8.776 1.153,-2.782 2.842,-5.31 4.972,-7.44 2.129,-2.129 4.657,-3.819 7.44,-4.971 2.782,-1.153 5.764,-1.746 8.776,-1.746 3.011,0 5.993,0.593 8.776,1.746 2.782,1.152 5.31,2.842 7.44,4.971 2.129,2.13 3.819,4.658 4.971,7.44 1.153,2.783 1.746,5.765 1.746,8.776 z"
       fill="#ffffff"
       id="path10" />
    <path
       fill-rule="evenodd"
       clip-rule="evenodd"
       d="m 562.259,448.706 c 0.003,10.608 -2.085,21.112 -6.142,30.914 -4.058,9.801 -10.006,18.706 -17.506,26.208 -7.5,7.502 -16.405,13.453 -26.205,17.513 -9.8,4.06 -20.303,6.15 -30.911,6.15 -10.608,0 -21.112,-2.09 -30.912,-6.15 -9.8,-4.06 -18.704,-10.011 -26.204,-17.513 -7.5,-7.502 -13.449,-16.407 -17.506,-26.208 -4.058,-9.802 -6.145,-20.306 -6.143,-30.914 -0.002,-10.608 2.085,-21.112 6.143,-30.913 4.057,-9.801 10.006,-18.707 17.506,-26.209 7.5,-7.501 16.404,-13.452 26.204,-17.512 9.8,-4.06 20.304,-6.15 30.912,-6.15 10.608,0 21.111,2.09 30.911,6.15 9.8,4.06 18.705,10.011 26.205,17.512 7.5,7.502 13.448,16.408 17.506,26.209 4.057,9.801 6.145,20.305 6.142,30.913 z"
       fill="url(#paint8_radial)"
       id="path11"
       style="fill:url(#paint8_radial)" />
    <path
       fill-rule="evenodd"
       clip-rule="evenodd"
       d="m 539.267,460.669 c 0.002,5.108 -1.003,10.166 -2.956,14.885 -1.954,4.719 -4.818,9.007 -8.429,12.62 -3.611,3.612 -7.898,6.477 -12.617,8.432 -4.719,1.955 -9.776,2.961 -14.884,2.961 -5.108,0 -10.165,-1.006 -14.884,-2.961 -4.718,-1.955 -9.006,-4.82 -12.617,-8.432 -3.611,-3.613 -6.475,-7.901 -8.429,-12.62 -1.953,-4.719 -2.958,-9.777 -2.956,-14.885 -0.002,-5.107 1.003,-10.165 2.956,-14.884 1.954,-4.72 4.818,-9.008 8.429,-12.62 3.611,-3.612 7.899,-6.477 12.617,-8.432 4.719,-1.955 9.776,-2.962 14.884,-2.962 5.108,0 10.165,1.007 14.884,2.962 4.719,1.955 9.006,4.82 12.617,8.432 3.611,3.612 6.475,7.9 8.429,12.62 1.953,4.719 2.958,9.777 2.956,14.884 z"
       fill="#2e3436"
       stroke="#000000"
       stroke-width="1.39874"
       stroke-miterlimit="10"
       id="path12" />
    <path
       fill-rule="evenodd"
       clip-rule="evenodd"
       d="m 512.345,442.723 c 0,3.536 -0.696,7.036 -2.049,10.303 -1.353,3.266 -3.336,6.234 -5.836,8.733 -2.5,2.5 -5.468,4.483 -8.734,5.836 -3.266,1.353 -6.767,2.05 -10.302,2.05 -3.536,0 -7.036,-0.697 -10.303,-2.05 -3.266,-1.353 -6.234,-3.336 -8.733,-5.836 -2.5,-2.499 -4.483,-5.467 -5.836,-8.733 -1.353,-3.267 -2.05,-6.767 -2.05,-10.303 0,-3.535 0.697,-7.036 2.05,-10.302 1.353,-3.266 3.336,-6.234 5.836,-8.734 2.499,-2.5 5.467,-4.483 8.733,-5.836 3.267,-1.353 6.767,-2.049 10.303,-2.049 3.535,0 7.036,0.696 10.302,2.049 3.266,1.353 6.234,3.336 8.734,5.836 2.5,2.5 4.483,5.468 5.836,8.734 1.353,3.266 2.049,6.767 2.049,10.302 z"
       fill="#ffffff"
       id="path13" />
  </g>
  <defs
     id="defs38">
    <filter
       id="filter0_d"
       x="78"
       y="86"
       width="868"
       height="868"
       filterUnits="userSpaceOnUse"
       color-interpolation-filters="sRGB">
      <feFlood
         flood-opacity="0"
         result="BackgroundImageFix"
         id="feFlood13" />
      <feColorMatrix
         in="SourceAlpha"
         type="matrix"
         values="0 0 0 0 0 0 0 0 0 0 0 0 0 0 0 0 0 0 127 0"
         id="feColorMatrix13" />
      <feMorphology
         radius="2"
         operator="dilate"
         in="SourceAlpha"
         result="effect1_dropShadow"
         id="feMorphology13" />
      <feOffset
         dy="8"
         id="feOffset13" />
      <feGaussianBlur
         stdDeviation="10"
         id="feGaussianBlur13" />
      <feColorMatrix
         type="matrix"
         values="0 0 0 0 0 0 0 0 0 0 0 0 0 0 0 0 0 0 0.25 0"
         id="feColorMatrix14" />
      <feBlend
         mode="normal"
         in2="BackgroundImageFix"
         result="effect1_dropShadow"
         id="feBlend14" />
      <feBlend
         mode="normal"
         in="SourceGraphic"
         in2="effect1_dropShadow"
         result="shape"
         id="feBlend15" />
    </filter>
    <filter
       id="filter1_d"
       x="77"
       y="182"
       width="870"
       height="670.57098"
       filterUnits="userSpaceOnUse"
       color-interpolation-filters="sRGB">
      <feFlood
         flood-opacity="0"
         result="BackgroundImageFix"
         id="feFlood15" />
      <feColorMatrix
         in="SourceAlpha"
         type="matrix"
         values="0 0 0 0 0 0 0 0 0 0 0 0 0 0 0 0 0 0 127 0"
         id="feColorMatrix15" />
      <feOffset
         dy="5"
         id="feOffset15" />
      <feGaussianBlur
         stdDeviation="25"
         id="feGaussianBlur15" />
      <feColorMatrix
         type="matrix"
         values="0 0 0 0 0 0 0 0 0 0 0 0 0 0 0 0 0 0 0.4 0"
         id="feColorMatrix16" />
      <feBlend
         mode="normal"
         in2="BackgroundImageFix"
         result="effect1_dropShadow"
         id="feBlend16" />
      <feBlend
         mode="normal"
         in="SourceGraphic"
         in2="effect1_dropShadow"
         result="shape"
         id="feBlend17" />
    </filter>
    <linearGradient
       id="paint0_linear"
       x1="512"
       y1="100"
       x2="512"
       y2="924"
       gradientUnits="userSpaceOnUse">
      <stop
         stop-color="#F3F3F3"
         id="stop17"
         offset="0"
         style="stop-color:#665c50;stop-opacity:1;" />
      <stop
         offset="1"
         stop-color="#AFA894"
         id="stop18"
         style="stop-color:#735937;stop-opacity:1;" />
    </linearGradient>
    <radialGradient
       id="paint1_radial"
       cx="0"
       cy="0"
       r="1"
       gradientUnits="userSpaceOnUse"
       gradientTransform="matrix(576.818,0,0,421.914,388.697,456.539)">
      <stop
         stop-color="#857C63"
         id="stop19" />
      <stop
         offset="1"
         stop-color="#221F19"
         id="stop20" />
    </radialGradient>
    <linearGradient
       id="paint2_linear"
       x1="591.00598"
       y1="560.25403"
       x2="402.556"
       y2="597.64502"
       gradientUnits="userSpaceOnUse">
      <stop
         id="stop21" />
      <stop
         offset="1"
         stop-opacity="0"
         id="stop22" />
    </linearGradient>
    <linearGradient
       id="paint3_linear"
       x1="689.92499"
       y1="621.59601"
       x2="654.77399"
       y2="698.367"
       gradientUnits="userSpaceOnUse">
      <stop
         stop-color="#6E3D09"
         id="stop23" />
      <stop
         offset="0.242424"
         stop-color="#EA8113"
         id="stop24" />
      <stop
         offset="0.621212"
         stop-color="#5C3307"
         id="stop25" />
      <stop
         offset="1"
         stop-color="#E07C12"
         id="stop26" />
    </linearGradient>
    <linearGradient
       id="paint4_linear"
       x1="765.25201"
       y1="704.97302"
       x2="784.565"
       y2="672.24402"
       gradientUnits="userSpaceOnUse">
      <stop
         stop-color="#BDBDBD"
         id="stop27" />
      <stop
         offset="0.333333"
         stop-color="#E2E2E2"
         id="stop28" />
      <stop
         offset="0.73525"
         stop-color="#A3A3A3"
         id="stop29" />
      <stop
         offset="1"
         stop-color="#DDDDDD"
         id="stop30" />
    </linearGradient>
    <radialGradient
       id="paint5_radial"
       cx="0"
       cy="0"
       r="1"
       gradientUnits="userSpaceOnUse"
       gradientTransform="matrix(-23.165443,-78.633413,76.630616,-22.575418,803.8,723.094)">
      <stop
         stop-color="#696969"
         id="stop31" />
      <stop
         offset="1"
         id="stop32" />
    </radialGradient>
    <radialGradient
       id="paint6_radial"
       cx="0"
       cy="0"
       r="1"
       gradientUnits="userSpaceOnUse"
       gradientTransform="matrix(100.213,0,0,100.213,339.409,392.814)">
      <stop
         stop-color="white"
         id="stop33" />
      <stop
         offset="1"
         stop-color="#B9B9B0"
         id="stop34" />
    </radialGradient>
    <radialGradient
       id="paint7_radial"
       cx="0"
       cy="0"
       r="1"
       gradientUnits="userSpaceOnUse"
       gradientTransform="matrix(65.193786,-37.63965,43.9317,76.091936,184.225,474.07)">
      <stop
         stop-color="#5B676B"
         id="stop35" />
      <stop
         offset="1"
         stop-color="#141718"
         id="stop36" />
    </radialGradient>
    <radialGradient
       id="paint8_radial"
       cx="0"
       cy="0"
       r="1"
       gradientUnits="userSpaceOnUse"
       gradientTransform="matrix(117.642,0,0,117.642,481.495,391.872)">
      <stop
         stop-color="white"
         id="stop37" />
      <stop
         offset="1"
         stop-color="#B9B9B0"
         id="stop38" />
    </radialGradient>
  </defs>
</svg>
