<?xml version="1.0" encoding="UTF-8" standalone="no"?>
<!-- Created with Inkscape (http://www.inkscape.org/) -->

<svg
   width="50mm"
   height="50mm"
   viewBox="0 0 50 50"
   version="1.1"
   id="svg1"
   xml:space="preserve"
   xmlns:xlink="http://www.w3.org/1999/xlink"
   xmlns="http://www.w3.org/2000/svg"
   xmlns:svg="http://www.w3.org/2000/svg"><defs
     id="defs1"><linearGradient
       id="linearGradient15"><stop
         style="stop-color:#6ad7e5;stop-opacity:0.4968017;"
         offset="0"
         id="stop15" /><stop
         style="stop-color:#6ad7e5;stop-opacity:1;"
         offset="1"
         id="stop16" /></linearGradient><linearGradient
       id="linearGradient2"><stop
         style="stop-color:#27c5da;stop-opacity:0.50319827;"
         offset="0"
         id="stop2" /><stop
         style="stop-color:#7f7f7f;stop-opacity:0;"
         offset="0.30000001"
         id="stop4" /><stop
         style="stop-color:#7f7f7f;stop-opacity:0;"
         offset="0.69999999"
         id="stop17" /><stop
         style="stop-color:#24c5da;stop-opacity:0.4968017;"
         offset="1"
         id="stop3" /></linearGradient><linearGradient
       xlink:href="#linearGradient2"
       id="linearGradient9"
       x1="25.000004"
       y1="2.3639462"
       x2="25.000004"
       y2="47.63604"
       gradientUnits="userSpaceOnUse" /><radialGradient
       xlink:href="#linearGradient15"
       id="radialGradient16"
       cx="25"
       cy="25"
       fx="25"
       fy="25"
       r="25"
       gradientUnits="userSpaceOnUse"
       gradientTransform="translate(-2.4265137e-6)" /></defs><g
     id="layer1"><rect
       style="font-variation-settings:normal;opacity:1;vector-effect:none;fill:#000000;fill-opacity:1;stroke:none;stroke-width:0.260698;stroke-linecap:butt;stroke-linejoin:miter;stroke-miterlimit:4;stroke-dasharray:none;stroke-dashoffset:0;stroke-opacity:1;-inkscape-stroke:none;stop-color:#000000;stop-opacity:1"
       id="rect1"
       width="50"
       height="50"
       x="0"
       y="0"
       rx="7.1983109"
       ry="7.1983109" /><rect
       style="font-variation-settings:normal;vector-effect:none;fill:url(#radialGradient16);stroke:none;stroke-width:0.260698;stroke-linecap:butt;stroke-linejoin:miter;stroke-miterlimit:4;stroke-dasharray:none;stroke-dashoffset:0;stroke-opacity:1;-inkscape-stroke:none;stop-color:#000000"
       id="rect1-18"
       width="50"
       height="50"
       x="0"
       y="-4.4408921e-16"
       rx="7.1983109"
       ry="7.1983109" /><rect
       style="fill:none;fill-opacity:1;stroke:url(#linearGradient9);stroke-width:0.234823"
       id="rect1-1"
       width="45.037273"
       height="45.037273"
       x="2.4813633"
       y="2.4813633"
       rx="6.4838462"
       ry="6.4838462" /><g
       id="g29"
       transform="matrix(1.3304623,0,0,1.3304623,11.14896,6.207229)"><path
         d="m 0.40269703,15.274988 c 0.04,0.826 0.86499997,0.444 1.23899997,0.186 0.355,-0.245 0.459,-0.041 0.49,-0.525 a 7.937,7.937 0 0 0 0.039,-0.955 2.342,2.342 0 0 0 -1.55999997,0.4 c -0.227,0.165 -0.651,0.69 -0.208,0.9"
         style="fill:#f6d2a2;fill-rule:evenodd"
         id="path1" /><path
         d="m 0.83169703,15.856988 a 0.527,0.527 0 0 1 -0.236,-0.051 0.541,0.541 0 0 1 -0.27,-0.482 0.358,0.358 0 0 1 -0.2,-0.283 1.006,1.006 0 0 1 0.432,-0.727 2.4,2.4 0 0 1 1.61299997,-0.413 l 0.068,0.006 v 0.068 a 5.667,5.667 0 0 1 -0.023,0.747 c -0.006,0.073 -0.011,0.145 -0.016,0.218 -0.022,0.343 -0.086,0.395 -0.263,0.456 a 0.975,0.975 0 0 0 -0.261,0.129 1.788,1.788 0 0 1 -0.84399997,0.332 z m 1.10999997,-1.808 a 2.2,2.2 0 0 0 -1.28599997,0.394 c -0.162,0.118 -0.387,0.394 -0.368,0.584 a 0.219,0.219 0 0 0 0.147,0.177 l 0.043,0.02 v 0.047 c 0.01,0.206 0.072,0.338 0.185,0.394 0.218,0.108 0.62399997,-0.058 0.93099997,-0.269 a 1.127,1.127 0 0 1 0.3,-0.148 c 0.116,-0.04 0.14,-0.049 0.157,-0.318 0,-0.073 0.01,-0.146 0.016,-0.22 a 6.148,6.148 0 0 0 0.026,-0.658 q -0.077,-0.003 -0.15,-0.003 z"
         id="path2"
         style="stroke:#000000;stroke-width:0.25;stroke-dasharray:none;stroke-opacity:1" /><path
         d="m 0.40269703,15.274988 a 0.65,0.65 0 0 0 0.329,-0.185"
         style="fill:#c6b198;fill-rule:evenodd"
         id="path3" /><path
         d="m 0.40269703,15.353988 a 0.079,0.079 0 0 1 -0.027,-0.152 l 0.053,-0.019 a 0.473,0.473 0 0 0 0.241,-0.139 0.079,0.079 0 1 1 0.126,0.094 0.615,0.615 0 0 1 -0.314,0.193 l -0.051,0.018 a 0.078,0.078 0 0 1 -0.028,0.005 z"
         id="path4" /><path
         d="m 2.309697,5.433988 c -3.16299997,-0.889 -0.811,-4.90900007 1.728,-3.257 z"
         style="fill:#6ad7e5;fill-rule:evenodd"
         id="path5" /><path
         d="m 2.349697,5.524988 -0.061,-0.017 a 1.927,1.927 0 0 1 -1.56199997,-1.5 2.094,2.094 0 0 1 0.97699997,-1.979 2.116,2.116 0 0 1 2.378,0.081 l 0.06,0.039 z m 0.449,-3.666 a 1.852,1.852 0 0 0 -1.01,0.3 1.933,1.933 0 0 0 -0.90699997,1.823 1.755,1.755 0 0 0 1.38799997,1.359 l 1.665,-3.137 a 2.17,2.17 0 0 0 -1.136,-0.343 z"
         id="path6-0"
         style="stroke:#000000;stroke-width:0.25;stroke-dasharray:none;stroke-opacity:1" /><path
         d="m 16.359697,1.874988 c 2.5,-1.75800007 4.765,2.209 1.856,3.207 z"
         style="fill:#6ad7e5;fill-rule:evenodd"
         id="path7" /><path
         d="m 18.180697,5.176988 -1.925,-3.325 0.059,-0.041 a 2.066,2.066 0 0 1 2.295,-0.193 2.122,2.122 0 0 1 1.044,1.965 1.881,1.881 0 0 1 -1.413,1.573 z m -1.716,-3.279 1.787,3.087 a 1.712,1.712 0 0 0 1.246,-1.418 1.961,1.961 0 0 0 -0.967,-1.814 1.857,1.857 0 0 0 -2.066,0.145 z"
         id="path8"
         style="stroke:#000000;stroke-width:0.25;stroke-dasharray:none;stroke-opacity:1" /><path
         d="m 16.898697,25.441988 c 0.636,0.393 1.8,1.583 0.844,2.16 -0.916,0.839 -1.429,-0.921 -2.234,-1.165 a 2.225,2.225 0 0 1 1.39,-0.995 z"
         style="fill:#f6d2a2;fill-rule:evenodd"
         id="path9" /><path
         d="m 17.259697,27.905988 h -0.038 c -0.361,-0.022 -0.661,-0.374 -0.951,-0.715 a 2.041,2.041 0 0 0 -0.785,-0.677 l -0.106,-0.032 0.066,-0.09 a 2.323,2.323 0 0 1 1.441,-1.026 h 0.029 l 0.025,0.015 c 0.407,0.252 1.247,0.988 1.243,1.654 a 0.73,0.73 0 0 1 -0.393,0.636 0.791,0.791 0 0 1 -0.531,0.235 z m -1.625,-1.5 a 2.505,2.505 0 0 1 0.756,0.687 c 0.281,0.33 0.547,0.642 0.841,0.66 a 0.626,0.626 0 0 0 0.457,-0.2 l 0.012,-0.009 a 0.578,0.578 0 0 0 0.324,-0.506 c 0,-0.532 -0.672,-1.2 -1.144,-1.5 a 2.055,2.055 0 0 0 -1.246,0.863 z"
         id="path10"
         style="stroke:#000000;stroke-width:0.25;stroke-dasharray:none;stroke-opacity:1" /><path
         d="m 17.742697,27.680988 a 0.079,0.079 0 0 1 -0.07,-0.043 2.918,2.918 0 0 1 -0.123,-0.3 1.309,1.309 0 0 0 -0.286,-0.518 0.079,0.079 0 0 1 0.109,-0.113 1.447,1.447 0 0 1 0.325,0.577 2.806,2.806 0 0 0 0.116,0.28 0.079,0.079 0 0 1 -0.035,0.106 0.078,0.078 0 0 1 -0.036,0.011 z"
         id="path11" /><path
         d="m 5.539697,26.786988 c -0.746,0.115 -1.166,0.789 -1.788,1.131 -0.586,0.35 -0.811,-0.112 -0.863,-0.206 -0.092,-0.042 -0.084,0.039 -0.226,-0.1 -0.547,-0.862 0.565,-1.487 1.143,-1.915 0.805,-0.163 1.31,0.535 1.734,1.09 z"
         style="fill:#f6d2a2;fill-rule:evenodd"
         id="path12" /><path
         d="m 3.354697,28.124988 a 0.535,0.535 0 0 1 -0.141,-0.018 0.647,0.647 0 0 1 -0.38,-0.33 h -0.018 c -0.066,0 -0.115,-0.014 -0.213,-0.113 l -0.011,-0.013 c -0.523,-0.826 0.367,-1.453 0.957,-1.868 0.074,-0.052 0.144,-0.1 0.207,-0.148 l 0.014,-0.01 h 0.017 c 0.829,-0.168 1.353,0.518 1.773,1.069 l 0.119,0.155 -0.131,0.02 a 2.263,2.263 0 0 0 -1.105,0.634 4.023,4.023 0 0 1 -0.657,0.488 0.859,0.859 0 0 1 -0.431,0.134 z m -0.527,-0.506 a 0.213,0.213 0 0 1 0.092,0.021 l 0.023,0.011 0.02,0.035 a 0.509,0.509 0 0 0 0.292,0.269 0.6,0.6 0 0 0 0.456,-0.1 3.909,3.909 0 0 0 0.633,-0.471 2.629,2.629 0 0 1 1.056,-0.644 c -0.4,-0.526 -0.862,-1.094 -1.562,-0.963 -0.061,0.044 -0.127,0.091 -0.2,0.139 -0.6,0.424 -1.352,0.952 -0.919,1.648 0.062,0.062 0.077,0.061 0.09,0.061 z"
         id="path13"
         style="stroke:#000000;stroke-width:0.25;stroke-dasharray:none;stroke-opacity:1" /><path
         d="m 2.887697,27.789988 h -0.007 a 0.079,0.079 0 0 1 -0.072,-0.085 1.2,1.2 0 0 1 0.253,-0.572 1.852,1.852 0 0 0 0.165,-0.276 0.079,0.079 0 0 1 0.144,0.064 1.992,1.992 0 0 1 -0.178,0.3 1.065,1.065 0 0 0 -0.226,0.5 0.079,0.079 0 0 1 -0.079,0.069 z"
         id="path14" /><path
         d="m 2.441697,4.324988 c -0.417,-0.221 -0.723,-0.52 -0.468,-1 0.236,-0.447 0.675,-0.4 1.092,-0.178 z"
         style="fill-rule:evenodd"
         id="path15" /><path
         d="m 17.556697,3.902988 c 0.417,-0.221 0.723,-0.52 0.468,-1 -0.236,-0.447 -0.675,-0.4 -1.092,-0.178 z"
         style="fill-rule:evenodd"
         id="path16" /><path
         d="m 20.428697,15.170988 c -0.04,0.826 -0.865,0.444 -1.239,0.186 -0.355,-0.245 -0.459,-0.041 -0.49,-0.525 a 7.936,7.936 0 0 1 -0.039,-0.955 2.342,2.342 0 0 1 1.56,0.4 c 0.227,0.165 0.651,0.69 0.208,0.9"
         style="fill:#f6d2a2;fill-rule:evenodd"
         id="path17" /><path
         d="m 19.999697,15.751988 a 1.788,1.788 0 0 1 -0.854,-0.331 0.975,0.975 0 0 0 -0.261,-0.129 c -0.177,-0.062 -0.241,-0.114 -0.263,-0.456 0,-0.073 -0.01,-0.145 -0.016,-0.218 a 5.676,5.676 0 0 1 -0.023,-0.747 v -0.068 l 0.068,-0.006 a 2.4,2.4 0 0 1 1.613,0.413 1.006,1.006 0 0 1 0.432,0.727 0.358,0.358 0 0 1 -0.2,0.283 0.541,0.541 0 0 1 -0.27,0.482 0.527,0.527 0 0 1 -0.226,0.05 z m -1.263,-1.8 a 6.148,6.148 0 0 0 0.026,0.658 c 0.006,0.073 0.011,0.146 0.016,0.22 0.017,0.269 0.041,0.277 0.157,0.318 a 1.127,1.127 0 0 1 0.3,0.148 c 0.306,0.212 0.713,0.377 0.931,0.269 0.113,-0.056 0.175,-0.188 0.185,-0.394 v -0.047 l 0.043,-0.02 a 0.219,0.219 0 0 0 0.147,-0.177 c 0.018,-0.19 -0.206,-0.466 -0.368,-0.584 a 2.232,2.232 0 0 0 -1.437,-0.394 z"
         id="path18"
         style="stroke:#000000;stroke-width:0.25;stroke-dasharray:none;stroke-opacity:1" /><path
         d="m 20.428697,15.170988 a 0.65,0.65 0 0 1 -0.329,-0.185"
         style="fill:#c6b198;fill-rule:evenodd"
         id="path19" /><path
         d="m 20.428697,15.248988 a 0.078,0.078 0 0 1 -0.027,0 l -0.051,-0.018 a 0.614,0.614 0 0 1 -0.314,-0.193 0.079,0.079 0 1 1 0.126,-0.094 0.473,0.473 0 0 0 0.241,0.139 l 0.053,0.019 a 0.079,0.079 0 0 1 -0.027,0.152 z"
         id="path20" /><path
         d="m 10.098697,0.20398793 c 3.166,0 6.134,0.453 7.681,3.49500007 1.389,3.409 0.895,7.086 1.107,10.689 0.182,3.094 0.585,6.668 -0.85,9.536 -1.51,3.016 -5.283,3.775 -8.392,3.664 -2.442,-0.087 -5.391,-0.884 -6.769,-3.115 -1.617,-2.617 -0.851,-6.509 -0.734,-9.421 0.139,-3.449 -0.934,-6.91 0.2,-10.285 1.176,-3.5 4.346,-4.29300007 7.758,-4.56300007"
         style="fill:#6ad7e5;fill-rule:evenodd"
         id="path21" /><path
         d="m 10.185697,27.674988 c -0.2,0 -0.38,0 -0.543,-0.01 -1.5,-0.054 -5.176,-0.469 -6.833,-3.152 -1.307,-2.116 -1.074,-5.041 -0.869,-7.622 0.052,-0.649 0.1,-1.263 0.124,-1.843 a 29.673,29.673 0 0 0 -0.157,-3.666 16.216,16.216 0 0 1 0.36,-6.641 5.812,5.812 0 0 1 3.08,-3.539 12.948,12.948 0 0 1 4.745,-1.07700007 h 0.006 c 3.091,0 6.17,0.429 7.751,3.53800007 v 0.006 a 20.518,20.518 0 0 1 1.044,7.762 c 0.005,0.969 0.011,1.972 0.068,2.952 0.017,0.3 0.037,0.6 0.057,0.9 0.184,2.841 0.392,6.062 -0.915,8.673 -1.629,3.261 -5.741,3.719 -7.918,3.719 z m -0.084,-27.39300007 c -3.294,0.261 -6.5,0.98800007 -7.687,4.50900007 a 16.1,16.1 0 0 0 -0.353,6.578 29.788,29.788 0 0 1 0.154,3.686 c -0.024,0.584 -0.072,1.2 -0.124,1.85 -0.2,2.557 -0.434,5.455 0.846,7.527 1.618,2.619 5.228,3.025 6.705,3.077 1.922,0.069 6.579,-0.147 8.318,-3.621 1.288,-2.573 1.081,-5.771 0.9,-8.592 -0.02,-0.3 -0.039,-0.606 -0.057,-0.9 -0.058,-0.984 -0.063,-1.989 -0.068,-2.96 a 20.408,20.408 0 0 0 -1.031,-7.7 c -1.539,-3.03500007 -4.564,-3.45300007 -7.603,-3.45400007 z"
         id="path22"
         style="stroke:#000000;stroke-width:0.25;stroke-dasharray:none;stroke-opacity:1" /><path
         d="m 10.657697,4.453988 c 0.568,3.3 5.97,2.431 5.194,-0.9 -0.7,-2.98800007 -5.383,-2.161 -5.194,0.9"
         style="fill:#ffffff;fill-rule:evenodd"
         id="path23" /><path
         d="m 13.223697,6.609988 a 3.025,3.025 0 0 1 -0.988,-0.162 2.444,2.444 0 0 1 -1.653,-1.982 v -0.008 a 2.672,2.672 0 0 1 2.416,-2.814 2.482,2.482 0 0 1 2.927,1.891 2.312,2.312 0 0 1 -0.673,2.343 3.072,3.072 0 0 1 -2.029,0.732 z m -2.49,-2.165 a 2.3,2.3 0 0 0 1.552,1.86 2.987,2.987 0 0 0 2.865,-0.54 2.165,2.165 0 0 0 0.627,-2.2 2.335,2.335 0 0 0 -2.762,-1.77 2.524,2.524 0 0 0 -2.282,2.65 z"
         id="path24"
         style="stroke:#000000;stroke-width:0.25;stroke-dasharray:none;stroke-opacity:1" /><path
         d="m 4.203697,4.987988 c 0.736,2.877 5.342,2.137 5.168,-0.745 -0.208,-3.45600007 -5.873,-2.789 -5.169,0.745"
         style="fill:#ffffff;fill-rule:evenodd"
         id="path25" /><path
         d="m 6.660697,6.885988 a 2.826,2.826 0 0 1 -1.345,-0.326 2.384,2.384 0 0 1 -1.184,-1.553 v 0 a 2.411,2.411 0 0 1 0.826,-2.472 3.107,3.107 0 0 1 3.087,-0.394 2.335,2.335 0 0 1 1.4,2.1 2.529,2.529 0 0 1 -2.29,2.609 3.2,3.2 0 0 1 -0.494,0.036 z m -2.385,-1.914 a 2.4,2.4 0 0 0 2.858,1.729 2.385,2.385 0 0 0 2.165,-2.454 2.193,2.193 0 0 0 -1.314,-1.976 2.953,2.953 0 0 0 -2.935,0.374 2.269,2.269 0 0 0 -0.774,2.327 z"
         id="path26"
         style="stroke:#000000;stroke-width:0.25;stroke-dasharray:none;stroke-opacity:1" /><path
         d="m 11.309697,8.418988 a 7.45,7.45 0 0 1 0.016,1.369 c -0.11,0.207 -0.325,0.229 -0.51,0.313 a 0.751,0.751 0 0 1 -0.575,-0.449 9.72,9.72 0 0 1 0.041,-1.549 z"
         style="fill:#ffffff;fill-rule:evenodd"
         id="path27" /><path
         d="m 10.826697,10.181988 h -0.023 a 0.828,0.828 0 0 1 -0.635,-0.5 v -0.01 -0.011 a 5.2,5.2 0 0 1 0.009,-1.063 c 0.013,-0.163 0.026,-0.331 0.031,-0.5 v -0.1 l 1.181,0.362 v 0.058 c 0,0.142 0.012,0.289 0.024,0.444 a 3.746,3.746 0 0 1 -0.008,0.939 v 0.012 l -0.006,0.011 a 0.658,0.658 0 0 1 -0.414,0.3 c -0.047,0.017 -0.091,0.032 -0.134,0.052 z m -0.509,-0.551 a 0.671,0.671 0 0 0 0.488,0.388 c 0.041,-0.017 0.083,-0.032 0.123,-0.047 a 0.525,0.525 0 0 0 0.322,-0.211 3.683,3.683 0 0 0 0,-0.887 c -0.01,-0.137 -0.02,-0.268 -0.023,-0.4 l -0.875,-0.268 c -0.007,0.136 -0.017,0.271 -0.027,0.4 a 5.05,5.05 0 0 0 -0.01,1.025 z"
         id="path28"
         style="stroke:#000000;stroke-width:0.25;stroke-dasharray:none;stroke-opacity:1" /><ellipse
         cx="5.4736915"
         cy="4.5189819"
         rx="0.778"
         ry="0.84200001"
         id="ellipse28" /><ellipse
         cx="5.8276954"
         cy="4.7089844"
         rx="0.183"
         ry="0.214"
         style="fill:#ffffff"
         id="ellipse29" /><ellipse
         cx="11.989713"
         cy="4.3089905"
         rx="0.76499999"
         ry="0.84200001"
         id="ellipse30" /><ellipse
         cx="12.337706"
         cy="4.4989929"
         rx="0.18000001"
         ry="0.214"
         style="fill:#ffffff"
         id="ellipse31" /><path
         d="m 9.086697,8.371988 c -0.339,0.822 0.189,2.467 1.11,1.254 a 9.72,9.72 0 0 1 0.041,-1.549 z"
         style="fill:#ffffff;fill-rule:evenodd"
         id="path31" /><path
         d="m 9.581697,10.137988 a 0.451,0.451 0 0 1 -0.226,-0.062 1.6,1.6 0 0 1 -0.341,-1.733 l 0.015,-0.036 1.286,-0.332 v 0.1 c -0.005,0.17 -0.019,0.34 -0.032,0.5 a 5,5 0 0 0 -0.01,1.031 v 0.032 l -0.019,0.026 c -0.265,0.361 -0.494,0.474 -0.673,0.474 z m -0.436,-1.7 a 1.458,1.458 0 0 0 0.288,1.5 c 0.238,0.136 0.5,-0.1 0.681,-0.335 a 5.349,5.349 0 0 1 0.013,-1.031 c 0.01,-0.129 0.02,-0.261 0.027,-0.392 z"
         id="path32"
         style="stroke:#000000;stroke-width:0.25;stroke-dasharray:none;stroke-opacity:1" /><path
         d="m 9.202697,6.787988 a 1,1 0 0 0 -0.821,1.4 c 0.435,0.788 1.407,-0.07 2.013,0.011 0.7,0.014 1.268,0.737 1.827,0.131 0.622,-0.674 -0.268,-1.331 -0.964,-1.624 z"
         style="fill:#f6d2a2;fill-rule:evenodd"
         id="path33" /><path
         d="m 11.723697,8.650988 a 1.727,1.727 0 0 1 -0.641,-0.179 1.928,1.928 0 0 0 -0.689,-0.194 h -0.009 a 1.749,1.749 0 0 0 -0.712,0.152 c -0.491,0.17 -1.048,0.362 -1.36,-0.2 a 0.946,0.946 0 0 1 0.014,-0.917 1.118,1.118 0 0 1 0.869,-0.6 v 0 l 2.077,-0.088 0.016,0.007 c 0.517,0.218 1.106,0.617 1.207,1.083 a 0.836,0.836 0 0 1 -0.772,0.934 z m -1.323,-0.526 a 2.056,2.056 0 0 1 0.743,0.206 c 0.393,0.165 0.7,0.295 1.021,-0.05 a 0.58,0.58 0 0 0 0.178,-0.528 c -0.087,-0.4 -0.642,-0.769 -1.1,-0.964 l -2.036,0.081 a 0.973,0.973 0 0 0 -0.742,0.517 0.792,0.792 0 0 0 -0.015,0.767 c 0.248,0.449 0.7,0.294 1.17,0.13 a 1.856,1.856 0 0 1 0.781,-0.159 z"
         style="fill:#231f20;stroke:#000000;stroke-width:0.25;stroke-dasharray:none;stroke-opacity:1"
         id="path34" /><path
         d="m 9.123697,6.754988 c -0.047,-1.095 2.042,-1.23 2.292,-0.315 0.25,0.915 -2.186,1.128 -2.289,0.316 z"
         style="fill-rule:evenodd"
         id="path35" /></g></g></svg>
