<?xml version="1.0" encoding="UTF-8" standalone="no"?>
<!-- Created with Inkscape (http://www.inkscape.org/) -->

<svg
   width="50mm"
   height="50mm"
   viewBox="0 0 50 50"
   version="1.1"
   id="svg1"
   xml:space="preserve"
   sodipodi:docname="Godot_Box.svg"
   inkscape:version="1.4.2 (f4327f4, 2025-05-13)"
   xmlns:inkscape="http://www.inkscape.org/namespaces/inkscape"
   xmlns:sodipodi="http://sodipodi.sourceforge.net/DTD/sodipodi-0.dtd"
   xmlns:xlink="http://www.w3.org/1999/xlink"
   xmlns="http://www.w3.org/2000/svg"
   xmlns:svg="http://www.w3.org/2000/svg"><sodipodi:namedview
     id="namedview1"
     pagecolor="#ffffff"
     bordercolor="#000000"
     borderopacity="0.25"
     inkscape:showpageshadow="2"
     inkscape:pageopacity="0.0"
     inkscape:pagecheckerboard="0"
     inkscape:deskcolor="#d1d1d1"
     inkscape:document-units="mm"
     inkscape:zoom="6.175375"
     inkscape:cx="94.407222"
     inkscape:cy="94.488189"
     inkscape:window-width="2560"
     inkscape:window-height="1369"
     inkscape:window-x="-8"
     inkscape:window-y="-8"
     inkscape:window-maximized="1"
     inkscape:current-layer="svg1" /><defs
     id="defs1"><linearGradient
       id="linearGradient15"><stop
         style="stop-color:#478cbf;stop-opacity:1;"
         offset="0"
         id="stop15" /><stop
         style="stop-color:#3d72c3;stop-opacity:0.79744136;"
         offset="1"
         id="stop16" /></linearGradient><linearGradient
       id="linearGradient2"><stop
         style="stop-color:#478cbf;stop-opacity:0.4968017;"
         offset="0"
         id="stop2" /><stop
         style="stop-color:#7f7f7f;stop-opacity:0;"
         offset="0.30000001"
         id="stop4" /><stop
         style="stop-color:#7f7f7f;stop-opacity:0;"
         offset="0.69999999"
         id="stop17" /><stop
         style="stop-color:#2f5694;stop-opacity:0.79744136;"
         offset="0.99673736"
         id="stop3" /></linearGradient><linearGradient
       xlink:href="#linearGradient2"
       id="linearGradient9"
       x1="25.000004"
       y1="2.3639462"
       x2="25.000004"
       y2="47.63604"
       gradientUnits="userSpaceOnUse" /><radialGradient
       xlink:href="#linearGradient15"
       id="radialGradient16"
       cx="25"
       cy="25"
       fx="25"
       fy="25"
       r="25"
       gradientUnits="userSpaceOnUse"
       gradientTransform="translate(-2.4265137e-6)" /></defs><g
     id="layer1"><rect
       style="font-variation-settings:normal;opacity:1;vector-effect:none;fill:#000000;fill-opacity:1;stroke:none;stroke-width:0.260698;stroke-linecap:butt;stroke-linejoin:miter;stroke-miterlimit:4;stroke-dasharray:none;stroke-dashoffset:0;stroke-opacity:1;-inkscape-stroke:none;stop-color:#000000;stop-opacity:1"
       id="rect1"
       width="50"
       height="50"
       x="0"
       y="0"
       rx="7.1983109"
       ry="7.1983109" /><rect
       style="font-variation-settings:normal;vector-effect:none;fill:url(#radialGradient16);stroke:none;stroke-width:0.260698;stroke-linecap:butt;stroke-linejoin:miter;stroke-miterlimit:4;stroke-dasharray:none;stroke-dashoffset:0;stroke-opacity:1;-inkscape-stroke:none;stop-color:#000000"
       id="rect1-18"
       width="50"
       height="50"
       x="0"
       y="-4.4408921e-16"
       rx="7.1983109"
       ry="7.1983109" /><rect
       style="fill:none;fill-opacity:1;stroke:url(#linearGradient9);stroke-width:1;stroke-dasharray:none"
       id="rect1-1"
       width="45.037273"
       height="45.037273"
       x="2.4813633"
       y="2.4813633"
       rx="6.4838462"
       ry="6.4838462" /></g><g
     id="g5"
     transform="matrix(0.35322795,0,0,0.35322795,2.393411,2.2860296)"><path
       d="m 114.906,84.145 c 0,0 -0.172,-1.04 -0.27,-1.028 l -18.823,1.817 a 3.062,3.062 0 0 0 -2.77,2.84 l -0.516,7.413 -14.566,1.04 -0.988,-6.72 a 3.089,3.089 0 0 0 -3.04,-2.62 H 54.067 a 3.089,3.089 0 0 0 -3.039,2.62 l -0.988,6.72 -14.566,-1.04 -0.516,-7.414 a 3.058,3.058 0 0 0 -2.77,-2.84 L 13.353,83.117 c -0.094,-0.012 -0.168,1.028 -0.266,1.028 l -0.024,4.074 15.954,2.574 0.52,7.477 a 3.084,3.084 0 0 0 2.843,2.847 l 20.059,1.434 c 0.078,0.004 0.152,0.008 0.226,0.008 a 3.087,3.087 0 0 0 3.031,-2.621 l 1.02,-6.915 h 14.57 l 1.02,6.915 a 3.088,3.088 0 0 0 3.254,2.613 l 20.062,-1.434 a 3.084,3.084 0 0 0 2.844,-2.847 l 0.52,-7.477 15.945,-2.586 z m 0,0"
       fill="#ffffff"
       id="path1" /><path
       d="m 13.086,53.422 v 30.723 c 0.059,0 0.113,0.003 0.168,0.007 L 32.09,85.97 a 2.027,2.027 0 0 1 1.828,1.875 l 0.582,8.316 16.426,1.172 1.133,-7.672 a 2.03,2.03 0 0 1 2.007,-1.734 h 19.868 a 2.03,2.03 0 0 1 2.007,1.734 l 1.133,7.672 16.43,-1.172 0.578,-8.316 A 2.027,2.027 0 0 1 95.91,85.97 l 18.828,-1.817 c 0.055,-0.004 0.11,-0.007 0.168,-0.007 V 81.69 h 0.008 V 53.42 c 2.652,-3.335 5.16,-7.019 7.086,-10.116 -2.941,-5.008 -6.543,-9.48 -10.395,-13.625 a 101.543,101.543 0 0 0 -10.316,6.004 c -1.64,-1.633 -3.484,-2.965 -5.3,-4.36 -1.782,-1.43 -3.79,-2.48 -5.696,-3.703 0.566,-4.223 0.848,-8.379 0.96,-12.719 -4.913,-2.476 -10.155,-4.113 -15.456,-5.293 -2.117,3.559 -4.055,7.41 -5.738,11.176 -2,-0.332 -4.008,-0.457 -6.02,-0.48 V 20.3 c -0.016,0 -0.027,0.004 -0.039,0.004 -0.012,0 -0.023,-0.004 -0.04,-0.004 v 0.004 c -2.01,0.023 -4.019,0.148 -6.019,0.48 -1.683,-3.765 -3.62,-7.617 -5.738,-11.176 -5.3,1.18 -10.543,2.817 -15.457,5.293 0.113,4.34 0.395,8.496 0.961,12.72 -1.906,1.222 -3.914,2.273 -5.695,3.702 -1.813,1.395 -3.66,2.727 -5.301,4.36 A 101.543,101.543 0 0 0 16.395,29.679 C 12.543,33.824 8.94,38.297 6,43.305 c 2.313,3.629 4.793,7.273 7.086,10.117 z m 0,0"
       fill="#478cbf"
       id="path2" /><path
       d="m 98.008,89.84 -0.582,8.36 a 2.024,2.024 0 0 1 -1.88,1.878 l -20.062,1.434 c -0.046,0.004 -0.097,0.004 -0.144,0.004 -0.996,0 -1.86,-0.73 -2.004,-1.73 L 72.184,91.98 H 55.816 l -1.152,7.805 a 2.026,2.026 0 0 1 -2.148,1.727 l -20.063,-1.434 a 2.024,2.024 0 0 1 -1.879,-1.879 l -0.582,-8.36 -16.937,-1.632 c 0.008,1.82 0.03,3.816 0.03,4.211 0,17.887 22.692,26.484 50.88,26.582 h 0.07 c 28.188,-0.098 50.871,-8.695 50.871,-26.582 0,-0.402 0.024,-2.39 0.031,-4.211 z m 0,0"
       fill="#478cbf"
       id="path3" /><path
       d="m 48.652,65.895 c 0,6.27 -5.082,11.351 -11.351,11.351 -6.266,0 -11.348,-5.082 -11.348,-11.351 0,-6.266 5.082,-11.344 11.348,-11.344 6.27,0 11.351,5.078 11.351,11.344"
       fill="#ffffff"
       id="path4" /><path
       d="m 45.922,66.566 a 7.531,7.531 0 0 1 -7.535,7.532 7.534,7.534 0 0 1 -7.535,-7.532 7.534,7.534 0 0 1 7.535,-7.53 7.531,7.531 0 0 1 7.535,7.53"
       fill="#414042"
       id="path5" /><path
       d="m 64,78.277 c -2.02,0 -3.652,-1.488 -3.652,-3.32 v -10.45 c 0,-1.831 1.632,-3.32 3.652,-3.32 2.016,0 3.656,1.489 3.656,3.32 v 10.45 c 0,1.832 -1.64,3.32 -3.656,3.32 M 79.348,65.895 c 0,6.27 5.082,11.351 11.351,11.351 6.266,0 11.348,-5.082 11.348,-11.351 0,-6.266 -5.082,-11.344 -11.348,-11.344 -6.27,0 -11.351,5.078 -11.351,11.344"
       fill="#ffffff"
       id="path6" /><path
       d="m 82.078,66.566 a 7.53,7.53 0 0 0 7.531,7.532 7.5315,7.5315 0 1 0 0,-15.063 7.53,7.53 0 0 0 -7.53,7.531"
       fill="#414042"
       id="path7" /></g></svg>
