<?xml version="1.0" encoding="UTF-8" standalone="no"?>
<!-- Created with Inkscape (http://www.inkscape.org/) -->

<svg
   width="50mm"
   height="50mm"
   viewBox="0 0 50 50"
   version="1.1"
   id="svg1"
   xml:space="preserve"
   sodipodi:docname="Stride_Box.svg"
   inkscape:version="1.4.2 (f4327f4, 2025-05-13)"
   inkscape:export-filename="Cairo_Box.png"
   inkscape:export-xdpi="96"
   inkscape:export-ydpi="96"
   xmlns:inkscape="http://www.inkscape.org/namespaces/inkscape"
   xmlns:sodipodi="http://sodipodi.sourceforge.net/DTD/sodipodi-0.dtd"
   xmlns:xlink="http://www.w3.org/1999/xlink"
   xmlns="http://www.w3.org/2000/svg"
   xmlns:svg="http://www.w3.org/2000/svg"><sodipodi:namedview
     id="namedview1"
     pagecolor="#ffffff"
     bordercolor="#000000"
     borderopacity="0.25"
     inkscape:showpageshadow="2"
     inkscape:pageopacity="0.0"
     inkscape:pagecheckerboard="0"
     inkscape:deskcolor="#d1d1d1"
     inkscape:document-units="mm"
     inkscape:zoom="3.0929791"
     inkscape:cx="62.076074"
     inkscape:cy="92.305829"
     inkscape:window-width="2560"
     inkscape:window-height="1417"
     inkscape:window-x="2552"
     inkscape:window-y="-8"
     inkscape:window-maximized="1"
     inkscape:current-layer="layer1"><inkscape:page
       x="0"
       y="0"
       width="50"
       height="50"
       id="page1"
       margin="0"
       bleed="0" /></sodipodi:namedview><defs
     id="defs1"><linearGradient
       id="linearGradient5"><stop
         style="stop-color:#000000;stop-opacity:1;"
         offset="0.00462963"
         id="stop1" /><stop
         style="stop-color:#3d72c3;stop-opacity:1;"
         offset="0.99834436"
         id="stop5" /></linearGradient><linearGradient
       xlink:href="#linearGradient5"
       id="linearGradient1"
       x1="25"
       y1="7.0902283e-06"
       x2="25"
       y2="50.000031"
       gradientUnits="userSpaceOnUse"
       gradientTransform="matrix(0.98000001,0,0,0.98000001,0.5000002,0.5000002)" /><filter
       inkscape:collect="always"
       style="color-interpolation-filters:sRGB"
       id="filter1"
       x="-0.06882552"
       y="-0.06882552"
       width="1.137651"
       height="1.137651"><feGaussianBlur
         inkscape:collect="always"
         stdDeviation="0.9600145"
         id="feGaussianBlur1" /></filter></defs><g
     id="layer1"
     inkscape:label="Godot"><rect
       style="font-variation-settings:normal;display:inline;fill:url(#linearGradient1);stroke:none;stroke-width:0.98;stroke-linecap:butt;stroke-linejoin:miter;stroke-miterlimit:4;stroke-dasharray:none;stroke-dashoffset:0;stroke-opacity:1;stop-color:#000000"
       id="rect1-18"
       width="49"
       height="49"
       x="0.50000018"
       y="0.50000018"
       rx="7.0543447"
       ry="7.0543447"
       inkscape:label="Background" /><path
       d="m 11.402841,35.093832 c -1.14262,0 -2.0361176,0.359752 -2.6813633,1.079186 -0.6457425,0.719756 -0.967999,1.653937 -0.967999,2.804051 0,1.350354 0.3298728,2.374034 0.9896088,3.0713 0.6609128,0.697187 1.5286355,1.045376 2.6044225,1.045376 0.578525,0 1.091994,-0.04987 1.54066,-0.15011 0.449119,-0.09984 0.747649,-0.202278 0.896198,-0.305954 l 0.04455,-3.481886 c 0,-0.202331 -0.534051,-0.294303 -1.133036,-0.304551 -0.59902,-0.0093 -1.284565,0.115647 -1.284565,0.115647 v 1.169198 h 0.689389 l -0.0076,0.521163 c 0,0.193069 -0.191404,0.289999 -0.573114,0.289999 -0.382198,0 -0.719765,-0.161752 -1.012613,-0.484522 -0.293502,-0.323163 -0.439473,-0.795617 -0.439473,-1.418059 0,-0.623758 0.142625,-1.083543 0.428241,-1.38033 0.285024,-0.296455 0.6587,-0.445214 1.118223,-0.445214 0.193067,0 0.39295,0.03114 0.600806,0.09471 0.20795,0.06298 0.346777,0.122 0.417645,0.177297 0.07028,0.05686 0.137091,0.08386 0.200265,0.08386 0.06288,0 0.16474,-0.07362 0.30557,-0.222355 0.14104,-0.148324 0.26737,-0.373092 0.378844,-0.672798 0.110978,-0.301284 0.16657,-0.53223 0.16657,-0.696029 0,-0.162517 -0.0037,-0.274523 -0.01085,-0.333654 -0.155846,-0.170501 -0.443431,-0.305754 -0.86288,-0.406283 -0.418665,-0.100234 -0.888095,-0.14998 -1.407341,-0.14998 z m 6.82662,0 c -1.049733,0 -1.90672,0.337549 -2.570526,1.012091 -0.663675,0.675403 -0.995446,1.667269 -0.995446,2.977192 0,1.309225 0.328095,2.305107 0.983945,2.98756 0.656773,0.681913 1.506415,1.022895 2.54848,1.022895 1.042501,0 1.893214,-0.327816 2.553708,-0.983596 0.660521,-0.657175 0.990481,-1.658643 0.990481,-3.005076 0,-1.345387 -0.32251,-2.35129 -0.968522,-3.014921 -0.644854,-0.664861 -1.492561,-0.996232 -2.54212,-0.996232 z m 14.757433,0 c -1.050082,0 -1.906545,0.337549 -2.570961,1.012091 -0.66358,0.675403 -0.99536,1.667269 -0.99536,2.977192 0,1.309225 0.328199,2.305107 0.984904,2.98756 0.656189,0.681913 1.505282,1.022895 2.547695,1.022895 1.042066,0 1.893476,-0.327816 2.553709,-0.983596 0.660425,-0.657175 0.990481,-1.658643 0.990481,-3.005076 0,-1.345387 -0.322492,-2.35129 -0.967999,-3.014921 -0.645638,-0.664861 -1.492736,-0.996232 -2.542469,-0.996232 z m -9.763642,0.09956 c -0.148819,0 -0.26919,0.05428 -0.361738,0.161212 -0.09313,0.108607 -0.139261,0.25504 -0.139261,0.440614 v 6.675612 c 0,0.341497 0.189557,0.511717 0.567624,0.511717 h 1.902276 c 2.329332,0 3.494434,-1.364644 3.494434,-4.09463 0,-1.276113 -0.306232,-2.210302 -0.918767,-2.803616 -0.611445,-0.593503 -1.507112,-0.89097 -2.68633,-0.89097 z m 13.882584,0 c -0.126253,0 -0.21528,0.171407 -0.267022,0.512607 -0.02227,0.16311 -0.03293,0.330447 -0.03293,0.500355 0,0.170892 0.01066,0.337541 0.03293,0.500355 0.05174,0.34209 0.140778,0.512354 0.267022,0.512354 h 1.335017 v 5.586232 c 0,0.147443 0.367751,0.222224 1.101841,0.222224 0.734734,0 1.101579,-0.07478 1.101579,-0.222224 v -5.586232 h 1.301906 c 0.126052,0 0.214749,-0.170264 0.267283,-0.512354 0.02178,-0.162814 0.03306,-0.329454 0.03306,-0.500355 0,-0.169908 -0.01128,-0.337244 -0.03306,-0.500355 -0.05253,-0.341201 -0.141231,-0.512607 -0.267283,-0.512607 z m -18.90513,2.036903 c 0.356379,0 0.655013,0.159355 0.895763,0.47789 0.241072,0.318928 0.361991,0.775646 0.361991,1.368915 0,0.5938 -0.117085,1.049907 -0.35076,1.368566 -0.233673,0.319816 -0.537998,0.479163 -0.912492,0.479163 -0.374713,0 -0.676702,-0.157482 -0.906655,-0.473552 -0.230328,-0.315086 -0.345269,-0.767202 -0.345269,-1.357848 0,-0.589365 0.120901,-1.04738 0.361477,-1.373706 0.241856,-0.326021 0.540028,-0.489507 0.895937,-0.489507 z m 14.757433,0 c 0.35638,0 0.654622,0.159355 0.895763,0.47789 0.241072,0.318928 0.361739,0.775646 0.361739,1.368915 0,0.5938 -0.116982,1.049907 -0.35076,1.368566 -0.233377,0.319816 -0.537893,0.479163 -0.912493,0.479163 -0.374713,0 -0.676997,-0.157482 -0.906655,-0.473552 -0.229639,-0.315086 -0.344886,-0.767202 -0.344886,-1.357848 0,-0.589365 0.120362,-1.04738 0.360841,-1.373706 0.241464,-0.326021 0.540437,-0.489507 0.89646,-0.489507 z m -8.100119,0.0771 h 0.111299 c 0.474746,0 0.821697,0.108555 1.040758,0.323696 0.218007,0.214556 0.327651,0.676474 0.327651,1.385295 1e-6,0.708515 -0.104808,1.214333 -0.316802,1.518178 -0.211498,0.304142 -0.520815,0.4567 -0.929224,0.4567 -0.110976,0 -0.177932,-0.0205 -0.200012,-0.0614 -0.02227,-0.0411 -0.0337,-0.139044 -0.0337,-0.294469 z"
       fill="#ffffff"
       stroke-width="0.0871365"
       id="path1"
       inkscape:label="Text" /><g
       id="g5"
       transform="matrix(0.22853591,0,0,0.22853591,10.35251,4.9612828)"
       inkscape:label="Logo"><path
         d="m 114.906,84.145 c 0,0 -0.172,-1.04 -0.27,-1.028 l -18.823,1.817 a 3.062,3.062 0 0 0 -2.77,2.84 l -0.516,7.413 -14.566,1.04 -0.988,-6.72 a 3.089,3.089 0 0 0 -3.04,-2.62 H 54.067 a 3.089,3.089 0 0 0 -3.039,2.62 l -0.988,6.72 -14.566,-1.04 -0.516,-7.414 a 3.058,3.058 0 0 0 -2.77,-2.84 L 13.353,83.117 c -0.094,-0.012 -0.168,1.028 -0.266,1.028 l -0.024,4.074 15.954,2.574 0.52,7.477 a 3.084,3.084 0 0 0 2.843,2.847 l 20.059,1.434 c 0.078,0.004 0.152,0.008 0.226,0.008 a 3.087,3.087 0 0 0 3.031,-2.621 l 1.02,-6.915 h 14.57 l 1.02,6.915 a 3.088,3.088 0 0 0 3.254,2.613 l 20.062,-1.434 a 3.084,3.084 0 0 0 2.844,-2.847 l 0.52,-7.477 15.945,-2.586 z m 0,0"
         fill="#ffffff"
         id="path1-4" /><path
         d="m 13.086,53.422 v 30.723 c 0.059,0 0.113,0.003 0.168,0.007 L 32.09,85.97 a 2.027,2.027 0 0 1 1.828,1.875 l 0.582,8.316 16.426,1.172 1.133,-7.672 a 2.03,2.03 0 0 1 2.007,-1.734 h 19.868 a 2.03,2.03 0 0 1 2.007,1.734 l 1.133,7.672 16.43,-1.172 0.578,-8.316 A 2.027,2.027 0 0 1 95.91,85.97 l 18.828,-1.817 c 0.055,-0.004 0.11,-0.007 0.168,-0.007 V 81.69 h 0.008 V 53.42 c 2.652,-3.335 5.16,-7.019 7.086,-10.116 -2.941,-5.008 -6.543,-9.48 -10.395,-13.625 a 101.543,101.543 0 0 0 -10.316,6.004 c -1.64,-1.633 -3.484,-2.965 -5.3,-4.36 -1.782,-1.43 -3.79,-2.48 -5.696,-3.703 0.566,-4.223 0.848,-8.379 0.96,-12.719 -4.913,-2.476 -10.155,-4.113 -15.456,-5.293 -2.117,3.559 -4.055,7.41 -5.738,11.176 -2,-0.332 -4.008,-0.457 -6.02,-0.48 V 20.3 c -0.016,0 -0.027,0.004 -0.039,0.004 -0.012,0 -0.023,-0.004 -0.04,-0.004 v 0.004 c -2.01,0.023 -4.019,0.148 -6.019,0.48 -1.683,-3.765 -3.62,-7.617 -5.738,-11.176 -5.3,1.18 -10.543,2.817 -15.457,5.293 0.113,4.34 0.395,8.496 0.961,12.72 -1.906,1.222 -3.914,2.273 -5.695,3.702 -1.813,1.395 -3.66,2.727 -5.301,4.36 A 101.543,101.543 0 0 0 16.395,29.679 C 12.543,33.824 8.94,38.297 6,43.305 c 2.313,3.629 4.793,7.273 7.086,10.117 z m 0,0"
         fill="#478cbf"
         id="path2" /><path
         d="m 98.008,89.84 -0.582,8.36 a 2.024,2.024 0 0 1 -1.88,1.878 l -20.062,1.434 c -0.046,0.004 -0.097,0.004 -0.144,0.004 -0.996,0 -1.86,-0.73 -2.004,-1.73 L 72.184,91.98 H 55.816 l -1.152,7.805 a 2.026,2.026 0 0 1 -2.148,1.727 l -20.063,-1.434 a 2.024,2.024 0 0 1 -1.879,-1.879 l -0.582,-8.36 -16.937,-1.632 c 0.008,1.82 0.03,3.816 0.03,4.211 0,17.887 22.692,26.484 50.88,26.582 h 0.07 c 28.188,-0.098 50.871,-8.695 50.871,-26.582 0,-0.402 0.024,-2.39 0.031,-4.211 z m 0,0"
         fill="#478cbf"
         id="path3" /><path
         d="m 48.652,65.895 c 0,6.27 -5.082,11.351 -11.351,11.351 -6.266,0 -11.348,-5.082 -11.348,-11.351 0,-6.266 5.082,-11.344 11.348,-11.344 6.27,0 11.351,5.078 11.351,11.344"
         fill="#ffffff"
         id="path4" /><path
         d="m 45.922,66.566 a 7.531,7.531 0 0 1 -7.535,7.532 7.534,7.534 0 0 1 -7.535,-7.532 7.534,7.534 0 0 1 7.535,-7.53 7.531,7.531 0 0 1 7.535,7.53"
         fill="#414042"
         id="path5" /><path
         d="m 64,78.277 c -2.02,0 -3.652,-1.488 -3.652,-3.32 v -10.45 c 0,-1.831 1.632,-3.32 3.652,-3.32 2.016,0 3.656,1.489 3.656,3.32 v 10.45 c 0,1.832 -1.64,3.32 -3.656,3.32 M 79.348,65.895 c 0,6.27 5.082,11.351 11.351,11.351 6.266,0 11.348,-5.082 11.348,-11.351 0,-6.266 -5.082,-11.344 -11.348,-11.344 -6.27,0 -11.351,5.078 -11.351,11.344"
         fill="#ffffff"
         id="path6" /><path
         d="m 82.078,66.566 a 7.53,7.53 0 0 0 7.531,7.532 7.5315,7.5315 0 1 0 0,-15.063 7.53,7.53 0 0 0 -7.53,7.531"
         fill="#414042"
         id="path7-5" /></g><rect
       style="font-variation-settings:normal;display:inline;fill:none;stroke:#000000;stroke-width:1.99928;stroke-linecap:butt;stroke-linejoin:miter;stroke-miterlimit:4;stroke-dasharray:none;stroke-dashoffset:0;stroke-opacity:1;stop-color:#000000;filter:url(#filter1)"
       id="rect1"
       width="48.000725"
       height="48.000725"
       x="0.99963778"
       y="0.99963778"
       rx="6.9104829"
       ry="6.9104829"
       inkscape:label="Shadow" /><rect
       style="font-variation-settings:normal;display:inline;fill:none;stroke:#478cbf;stroke-width:1.99928;stroke-linecap:butt;stroke-linejoin:miter;stroke-miterlimit:4;stroke-dasharray:none;stroke-dashoffset:0;stroke-opacity:1;stop-color:#000000"
       id="rect1-18-1"
       width="48.000725"
       height="48.000725"
       x="0.99963778"
       y="0.99963778"
       rx="6.9104829"
       ry="6.9104829"
       inkscape:label="Frame" /></g><style
     type="text/css"
     id="style1">
	.st0{fill:url(#ICON_00000088831890668800157600000002638584723837204667_);}
</style><style
     id="style1-7">.st10{fill:#333}</style><style
     type="text/css"
     id="style1-1">
	.st0{fill:url(#ICON_00000088831890668800157600000002638584723837204667_);}
</style><style
     id="style1-7-2">.st10{fill:#333}</style></svg>
