<?xml version="1.0" encoding="UTF-8" standalone="no"?>
<svg
   height="50"
   width="50"
   version="1.1"
   id="svg83"
   xml:space="preserve"
   xmlns:xlink="http://www.w3.org/1999/xlink"
   xmlns="http://www.w3.org/2000/svg"
   xmlns:svg="http://www.w3.org/2000/svg"><defs
     id="defs87"><linearGradient
       xlink:href="#h"
       id="linearGradient922"
       x1="1.6650793e-07"
       y1="37.52615"
       x2="102.88626"
       y2="37.52615"
       gradientUnits="userSpaceOnUse"
       gradientTransform="matrix(0.64877178,0,0,0.64877178,14.62515,23.654092)" /><clipPath
       clipPathUnits="userSpaceOnUse"
       id="clipPath993"><path
         id="path995"
         class="st0"
         d="m 77.745638,26.732811 c -1.94101,-1.927141 -4.560261,-3.030453 -7.305064,-3.077174 -2.744906,-0.04672 -5.400706,0.966807 -7.40717,2.826762 -0.100498,0.09494 -0.180582,0.209191 -0.235291,0.3358 -0.05472,0.126604 -0.08297,0.262947 -0.08297,0.400723 0,0.13776 0.02827,0.274104 0.08297,0.400714 0.0547,0.126605 0.134787,0.240858 0.235291,0.335802 l 1.276091,1.296276 c 0.172512,0.170259 0.401033,0.272955 0.643737,0.289195 0.242602,0.0163 0.483056,-0.05509 0.676956,-0.200809 1.223748,-0.970384 2.778015,-1.433527 4.337765,-1.292588 1.559753,0.140935 3.004277,0.875055 4.031422,2.048817 1.027154,1.173774 1.557391,2.696311 1.479887,4.249225 -0.0775,1.552967 -0.75682,3.015978 -1.895759,4.083222 -8.405944,8.337368 -19.623757,-15.039766 -45.086348,-2.990299 -0.429734,0.204977 -0.812066,0.496053 -1.122707,0.855063 -0.310744,0.3589 -0.543134,0.777887 -0.682653,1.230514 -0.139406,0.452629 -0.182834,0.929015 -0.127478,1.399057 0.05536,0.47015 0.208206,0.923746 0.449084,1.3322 l 4.369902,7.490474 c 0.452414,0.781221 1.197408,1.353484 2.072787,1.592106 0.875376,0.238621 1.810303,0.124354 2.601196,-0.317948 l 0.103942,-0.0589 -0.0817,0.0589 1.914245,-1.060581 c 2.158239,-1.330262 4.198456,-2.840784 6.098509,-4.514901 0.188105,-0.170152 0.431135,-0.26818 0.68545,-0.27624 0.254423,-0.0081 0.503258,0.07417 0.701893,0.232063 0.107486,0.08943 0.194661,0.200357 0.255823,0.325579 0.06115,0.125227 0.0949,0.261949 0.0991,0.401036 0.0042,0.139087 -0.02129,0.277533 -0.07481,0.406197 -0.05342,0.128655 -0.133711,0.244533 -0.235502,0.340195 -1.999807,1.788269 -4.154822,3.397679 -6.439899,4.809528 h -0.06675 l -1.936385,1.075302 c -0.817871,0.455855 -1.740436,0.694369 -2.678372,0.692326 -0.971362,0.0034 -1.926605,-0.247331 -2.769307,-0.727043 -0.842701,-0.479719 -1.543197,-1.1714 -2.030866,-2.005394 L 25.470196,41.639963 C 17.56874,47.22286 12.716597,57.946556 15.342989,71.528021 c 0.04311,0.228842 0.16521,0.435756 0.345291,0.584951 0.180084,0.149184 0.406904,0.23142 0.641463,0.232603 h 4.659233 c 0.25668,0.0066 0.506244,-0.08415 0.697851,-0.253887 0.191607,-0.169722 0.310843,-0.405552 0.333415,-0.659433 0.218909,-1.645204 1.032643,-3.155299 2.289687,-4.249196 1.257,-1.093901 2.871677,-1.697011 4.54332,-1.697011 1.671642,0 3.286322,0.60311 4.543387,1.697011 1.257065,1.093897 2.070852,2.603992 2.289696,4.249196 0.02903,0.241522 0.146294,0.464127 0.329448,0.62568 0.183267,0.161448 0.419739,0.250665 0.664703,0.250769 h 4.555425 c 0.244534,-0.0016 0.480147,-0.09148 0.66309,-0.252704 0.182835,-0.161129 0.300537,-0.382867 0.331061,-0.623745 0.218951,-1.645204 1.032632,-3.155299 2.289699,-4.249196 1.257062,-1.093901 2.871738,-1.697011 4.543384,-1.697011 1.671643,0 3.286322,0.60311 4.543387,1.697011 1.256957,1.093897 2.070742,2.603992 2.289697,4.249196 0.03053,0.240878 0.148226,0.462621 0.331061,0.623745 0.182837,0.16123 0.418451,0.251096 0.663091,0.252704 h 4.525647 c 0.265069,1.09e-4 0.519492,-0.103404 0.708344,-0.288174 0.188753,-0.184664 0.296772,-0.435646 0.300641,-0.698777 0.103941,-6.334015 1.825142,-13.610917 6.729255,-17.256675 16.989887,-12.616551 12.523572,-23.4287 8.59136,-27.332267 z m -17.32375,19.053802 -3.242142,-1.612958 c -3.26e-4,-0.344605 0.08823,-0.683619 0.257323,-0.984582 0.168969,-0.300966 0.412861,-0.553994 0.708341,-0.734894 0.295486,-0.180901 0.632677,-0.283657 0.979534,-0.298493 0.346757,-0.01495 0.69168,0.0587 1.001679,0.213579 0.310101,0.154996 0.575054,0.386201 0.769608,0.671581 0.194549,0.285486 0.31214,0.615579 0.341809,0.958896 0.02957,0.343422 -0.02989,0.688564 -0.172731,1.002642 -0.14285,0.314078 -0.364385,0.586559 -0.643421,0.791645 v -0.0074 z"
         style="fill:url(#linearGradient997);fill-opacity:1;stroke-width:0.648772" /></clipPath><linearGradient
       xlink:href="#h"
       id="linearGradient997"
       gradientUnits="userSpaceOnUse"
       gradientTransform="matrix(0.64877178,0,0,0.64877178,14.62515,23.654092)"
       x1="1.6650793e-07"
       y1="37.52615"
       x2="102.88626"
       y2="37.52615" /><filter
       style="color-interpolation-filters:sRGB"
       id="filter999"
       x="-0.02638719"
       y="-0.027641948"
       width="1.0527744"
       height="1.0552839"><feGaussianBlur
         stdDeviation="0.9370081"
         id="feGaussianBlur1001" /></filter></defs><linearGradient
     id="a"
     gradientUnits="userSpaceOnUse"
     x1="48"
     x2="48"
     y1="90"
     y2="5.9877172"><stop
       offset="0"
       stop-color="#ebebeb"
       id="stop2"
       style="stop-color:#585858;stop-opacity:1;" /><stop
       offset="1"
       stop-color="#fafafa"
       id="stop4"
       style="stop-color:#818181;stop-opacity:1;" /></linearGradient><linearGradient
     id="b"
     gradientTransform="matrix(1.0058652,0,0,0.994169,100,0)"
     gradientUnits="userSpaceOnUse"
     x1="45.447727"
     x2="45.447727"
     y1="92.539597"
     y2="7.0165401"><stop
       offset="0"
       id="stop7" /><stop
       offset="1"
       stop-opacity=".588235"
       id="stop9" /></linearGradient><linearGradient
     id="c"
     gradientTransform="matrix(1.0238095,0,0,1.0119048,-1.142857,-98.071429)"
     gradientUnits="userSpaceOnUse"
     x1="32.251034"
     x2="32.251034"
     xlink:href="#b"
     y1="6.1317081"
     y2="90.238609" /><linearGradient
     id="d"
     gradientTransform="translate(0,-97)"
     gradientUnits="userSpaceOnUse"
     x1="32.251034"
     x2="32.251034"
     xlink:href="#b"
     y1="6.1317081"
     y2="90.238609" /><linearGradient
     id="e"><stop
       offset="0"
       stop-color="#fff"
       id="stop14" /><stop
       offset="1"
       stop-color="#fff"
       stop-opacity="0"
       id="stop16" /></linearGradient><radialGradient
     id="f"
     cx="48"
     cy="90.171875"
     gradientTransform="matrix(1.1573129,0,0,0.99590774,-7.551021,0.197132)"
     gradientUnits="userSpaceOnUse"
     r="42"
     xlink:href="#e" /><linearGradient
     id="g"
     gradientUnits="userSpaceOnUse"
     x1="36.357143"
     x2="36.357143"
     xlink:href="#e"
     y1="6"
     y2="63.893143"
     gradientTransform="matrix(0.91995739,0,0,0.98668795,0.48025569,1.1935087)" /><linearGradient
     id="h"
     gradientTransform="rotate(-90,48.000087,47.999896)"
     gradientUnits="userSpaceOnUse"
     x1="18.000002"
     x2="78.000175"
     y1="47.999897"
     y2="47.999897"><stop
       offset="0"
       stop-color="#bababa"
       id="stop21"
       style="stop-color:#818181;stop-opacity:1;" /><stop
       offset="1"
       stop-color="#d2d2d2"
       id="stop23"
       style="stop-color:#a7a7a7;stop-opacity:1;" /></linearGradient><clipPath
     id="i"><path
       d="m -88,6 c -3.324,0 -6,2.676 -6,6 v 72 c 0,3.324 2.676,6 6,6 h 72 c 3.324,0 6,-2.676 6,-6 V 12 c 0,-3.324 -2.676,-6 -6,-6 z m 31.84375,12 h 8.3125 c 1.180648,0 2.125,0.986683 2.125,2.1875 v 4.21875 c 2.111082,0.562476 4.123141,1.426616 5.96875,2.5 l 3,-3.03125 c 0.849111,-0.849025 2.196406,-0.866085 3.03125,-0.03125 l 5.875,5.875 c 0.834848,0.834847 0.817863,2.18214 -0.03125,3.03125 l -3.03125,3 c 1.073391,1.845617 1.937528,3.857672 2.5,5.96875 h 4.21875 c 1.200827,0 2.1875,0.944356 2.1875,2.125 v 8.3125 c 0,1.180653 -0.986672,2.125 -2.1875,2.125 h -4.21875 c -0.562472,2.111079 -1.426609,4.123134 -2.5,5.96875 l 3.03125,3 c 0.849106,0.849111 0.866094,2.196416 0.03125,3.03125 l -5.875,5.875 c -0.834844,0.834921 -2.182138,0.81786 -3.03125,-0.03125 l -3,-3.03125 c -1.84561,1.073389 -3.857669,1.937515 -5.96875,2.5 v 4.21875 c 0,1.200828 -0.944354,2.1875 -2.125,2.1875 h -8.3125 c -1.180646,0 -2.125,-0.986673 -2.125,-2.1875 v -4.21875 c -2.111081,-0.562485 -4.123141,-1.426613 -5.96875,-2.5 l -3,3.03125 c -0.849114,0.849022 -2.196407,0.866084 -3.03125,0.03125 l -5.875,-5.875 c -0.417421,-0.417418 -0.6298,-0.981833 -0.625,-1.53125 0.0047,-0.549422 0.231693,-1.075441 0.65625,-1.5 l 3.03125,-3 c -1.073391,-1.845614 -1.937528,-3.857673 -2.5,-5.96875 h -4.21875 c -1.200828,0 -2.1875,-0.944347 -2.1875,-2.125 v -8.3125 c 0,-1.180643 0.986672,-2.125 2.1875,-2.125 h 4.21875 c 0.562472,-2.111076 1.426609,-4.123135 2.5,-5.96875 l -3.03125,-3 c -0.849107,-0.84911 -0.866093,-2.196403 -0.03125,-3.03125 l 5.875,-5.875 c 0.834843,-0.834932 2.182137,-0.817858 3.03125,0.03125 l 3,3.03125 c 1.845609,-1.073383 3.85767,-1.937533 5.96875,-2.5 V 20.1875 c 0,-1.200817 0.944355,-2.1875 2.125,-2.1875 z M -52,38.9375 c -5.006511,0 -9.0625,4.055982 -9.0625,9.0625 0,5.006505 4.055989,9.0625 9.0625,9.0625 5.00651,0 9.0625,-4.055995 9.0625,-9.0625 0,-5.00652 -4.05599,-9.0625 -9.0625,-9.0625 z"
       id="path26" /></clipPath><filter
     id="j"
     color-interpolation-filters="sRGB"
     height="1.3213328"
     width="1.3213336"
     x="-0.16066687"
     y="-0.16066641"><feGaussianBlur
       stdDeviation="3.6000051"
       id="feGaussianBlur29" /></filter><clipPath
     id="k"><rect
       height="84"
       rx="6"
       width="84"
       x="6"
       y="6"
       id="rect32" /></clipPath><filter
     id="l"
     color-interpolation-filters="sRGB"
     height="1.3915758"
     width="1.3915758"
     x="-0.19578789"
     y="-0.19578789"><feGaussianBlur
       stdDeviation="5.28"
       id="feGaussianBlur35" /></filter><linearGradient
     id="m"
     gradientUnits="userSpaceOnUse"
     x1="48"
     x2="48"
     xlink:href="#e"
     y1="20.220806"
     y2="138.66119" /><g
     id="g79"
     transform="matrix(0.5952381,0,0,0.5952381,-3.5714286,-3.5714286)"><rect
       fill="url(#a)"
       height="84"
       rx="10.709455"
       width="84"
       x="6"
       y="6"
       id="rect53"
       style="fill:url(#a)"
       ry="10.709455" /><path
       id="ICON"
       class="st0"
       d="m 77.745637,26.732811 c -1.941009,-1.927142 -4.560261,-3.030453 -7.305063,-3.077173 -2.744906,-0.04672 -5.400706,0.966805 -7.40717,2.82676 -0.1005,0.09494 -0.180581,0.209192 -0.235291,0.335801 -0.05471,0.12661 -0.08298,0.262947 -0.08298,0.400724 0,0.137766 0.02827,0.274103 0.08298,0.400713 0.05471,0.126609 0.134791,0.240858 0.235291,0.335801 l 1.276091,1.296277 c 0.172513,0.17026 0.401032,0.272954 0.643738,0.289195 0.242602,0.01624 0.483055,-0.05508 0.676956,-0.200808 1.223747,-0.970386 2.778014,-1.433528 4.337765,-1.29259 1.559751,0.140938 3.004276,0.875056 4.031421,2.048818 1.027154,1.173773 1.55739,2.696311 1.479887,4.249226 -0.0775,1.552967 -0.75682,3.015978 -1.895759,4.083221 -8.405943,8.337368 -19.623757,-15.039766 -45.086347,-2.990299 -0.429735,0.204977 -0.812067,0.496054 -1.122707,0.855062 -0.310745,0.3589 -0.543134,0.777887 -0.682653,1.230515 -0.139412,0.452629 -0.182835,0.929015 -0.12748,1.399057 0.05536,0.470149 0.208205,0.923747 0.449083,1.332199 l 4.369902,7.490476 c 0.452414,0.781219 1.197409,1.353483 2.072787,1.592105 0.875377,0.238621 1.810303,0.124362 2.601196,-0.317949 l 0.103939,-0.0589 -0.08169,0.0589 1.914245,-1.06058 c 2.158239,-1.330263 4.198456,-2.840784 6.09851,-4.5149 0.188105,-0.170152 0.431134,-0.26818 0.68545,-0.276242 0.254423,-0.0081 0.503257,0.07417 0.701892,0.232064 0.107489,0.08943 0.194661,0.200357 0.255823,0.325579 0.06116,0.125225 0.09491,0.261949 0.0991,0.401036 0.0042,0.139089 -0.02129,0.277533 -0.07481,0.406197 -0.05342,0.128661 -0.133714,0.244532 -0.235503,0.340195 -1.999805,1.78827 -4.154821,3.39768 -6.439897,4.809527 h -0.06675 l -1.936386,1.075303 c -0.81787,0.455854 -1.740436,0.694369 -2.678371,0.692327 -0.971363,0.0034 -1.926605,-0.247331 -2.769307,-0.727044 -0.842702,-0.479719 -1.543197,-1.1714 -2.030867,-2.005395 l -4.13246,-7.078045 c -7.901456,5.582897 -12.753599,16.306591 -10.127207,29.888058 0.04311,0.228841 0.165209,0.435755 0.345291,0.58495 0.180084,0.14919 0.406904,0.23142 0.641463,0.232603 h 4.659236 c 0.25668,0.0066 0.506244,-0.08416 0.697851,-0.253887 0.191607,-0.169722 0.310843,-0.405552 0.333415,-0.659434 0.218909,-1.645203 1.032643,-3.155298 2.289687,-4.249195 1.257,-1.093901 2.871677,-1.697012 4.54332,-1.697012 1.671643,0 3.286322,0.603111 4.543387,1.697012 1.257065,1.093897 2.070852,2.603992 2.289695,4.249195 0.02903,0.241522 0.146292,0.464127 0.329449,0.625682 0.183267,0.161445 0.41974,0.250664 0.664703,0.250768 h 4.555425 c 0.244534,-0.0016 0.480147,-0.09147 0.663091,-0.252704 0.182834,-0.161124 0.300536,-0.382867 0.331061,-0.623746 0.218951,-1.645203 1.032631,-3.155298 2.289698,-4.249195 1.257062,-1.093901 2.871738,-1.697012 4.543383,-1.697012 1.671645,0 3.286323,0.603111 4.543387,1.697012 1.256958,1.093897 2.070744,2.603992 2.289698,4.249195 0.03052,0.240879 0.148225,0.462622 0.331061,0.623746 0.182838,0.161233 0.418451,0.251096 0.663091,0.252704 h 4.525648 c 0.265068,1.09e-4 0.51949,-0.103405 0.708342,-0.288173 0.188753,-0.184665 0.296772,-0.435647 0.300642,-0.698779 0.103944,-6.334014 1.825141,-13.610915 6.729255,-17.256673 16.989886,-12.616552 12.523572,-23.4287 8.591361,-27.332268 z M 60.421888,45.786613 57.179747,44.173655 c -3.27e-4,-0.344604 0.08824,-0.683618 0.257321,-0.984583 0.16897,-0.300965 0.412863,-0.553992 0.708342,-0.734893 0.295485,-0.180901 0.632676,-0.283657 0.979534,-0.298492 0.346758,-0.01494 0.69168,0.05869 1.001678,0.213577 0.310101,0.154998 0.575055,0.386203 0.769609,0.671583 0.194549,0.285485 0.312141,0.615579 0.341809,0.958894 0.02956,0.343423 -0.02988,0.688565 -0.172731,1.002643 -0.142854,0.314078 -0.364385,0.586558 -0.643421,0.791645 v -0.0074 z"
       style="fill:url(#linearGradient922);fill-opacity:1;stroke-width:0.648772" /><path
       id="rect976"
       style="fill:#000000;stroke-width:5.88;filter:url(#filter999);stop-color:#000000"
       d="m 14.029219,8.6788373 c -4.2607834,0 -7.6912503,3.4271857 -7.6912503,7.6879687 v 65.976093 c 0,4.260783 3.4304669,7.69125 7.6912503,7.69125 h 69.841405 c 4.260783,0 7.69125,-3.430467 7.69125,-7.69125 V 16.366806 c 0,-4.260783 -3.430467,-7.6879687 -7.69125,-7.6879687 z M 70.440468,25.006337 c 2.744799,0.04672 5.363056,1.150673 7.304063,3.077813 3.932207,3.903564 8.399556,14.712991 -8.590313,27.329531 -4.904109,3.645754 -6.6259,10.925367 -6.729843,17.259374 -0.0039,0.263132 -0.109841,0.514242 -0.298594,0.698907 -0.188852,0.184768 -0.443682,0.285577 -0.70875,0.285468 h -4.528125 c -0.24464,-0.0016 -0.479975,-0.09142 -0.662813,-0.252656 -0.182835,-0.161124 -0.300886,-0.382559 -0.331406,-0.623437 -0.218954,-1.645202 -1.030074,-3.155323 -2.287031,-4.249219 -1.257063,-1.0939 -2.872888,-1.696406 -4.544531,-1.696406 -1.671644,0 -3.287471,0.602506 -4.544532,1.696406 -1.257065,1.093896 -2.06808,2.604017 -2.287031,4.249219 -0.03052,0.240878 -0.148572,0.462313 -0.331406,0.623437 -0.182944,0.161234 -0.418279,0.251056 -0.662813,0.252656 h -4.557656 c -0.244963,-1.04e-4 -0.479545,-0.08793 -0.662812,-0.249375 -0.183157,-0.161554 -0.302377,-0.385197 -0.331406,-0.626718 -0.218843,-1.645202 -1.033249,-3.155323 -2.290313,-4.249219 -1.257064,-1.0939 -2.869609,-1.696406 -4.54125,-1.696406 -1.671641,0 -3.287532,0.602506 -4.544531,1.696406 -1.257043,1.093896 -2.071404,2.604017 -2.290313,4.249219 -0.02257,0.253881 -0.139799,0.489809 -0.331406,0.659531 -0.191607,0.169727 -0.442226,0.262537 -0.698906,0.255937 h -4.659375 c -0.234559,-0.0012 -0.45976,-0.08378 -0.639844,-0.232968 -0.180082,-0.149195 -0.304702,-0.358503 -0.347812,-0.587344 -2.62639,-13.581453 2.22777,-24.302733 10.129218,-29.885625 l 4.131094,7.077656 c 0.48767,0.833995 1.188393,1.525126 2.031094,2.004844 0.842701,0.479713 1.798013,0.731838 2.769375,0.728438 0.937934,0.002 1.859631,-0.236491 2.6775,-0.692344 l 1.939218,-1.07625 h 0.06562 c 2.285074,-1.411846 4.43801,-3.022044 6.437813,-4.810313 0.101789,-0.09566 0.18283,-0.212589 0.23625,-0.34125 0.05352,-0.128663 0.07967,-0.264504 0.07547,-0.403593 -0.0042,-0.139087 -0.03728,-0.278369 -0.09844,-0.403594 -0.06116,-0.125222 -0.148448,-0.235414 -0.255937,-0.324844 -0.198635,-0.157894 -0.447765,-0.241069 -0.702188,-0.232969 -0.254316,0.0081 -0.497676,0.108755 -0.685781,0.278907 -1.900052,1.674114 -3.941607,3.184738 -6.099844,4.515 l -1.912968,1.059843 0.08203,-0.05906 -0.105,0.05906 c -0.790892,0.442311 -1.723374,0.556902 -2.59875,0.318282 -0.875377,-0.238622 -1.621337,-0.810188 -2.07375,-1.591407 l -4.370625,-7.491093 c -0.240878,-0.408452 -0.394171,-0.862039 -0.449531,-1.332188 -0.05535,-0.470041 -0.01144,-0.948465 0.127968,-1.401094 0.139519,-0.452627 0.371756,-0.871569 0.6825,-1.230468 0.31064,-0.359008 0.692453,-0.648148 1.122188,-0.853125 25.462564,-12.049455 36.681721,11.326578 45.087656,2.989218 1.138938,-1.067241 1.819062,-2.528909 1.896562,-4.081874 0.0775,-1.552914 -0.452691,-3.075447 -1.479844,-4.249219 -1.027144,-1.173761 -2.472906,-1.909844 -4.032656,-2.050781 -1.559749,-0.140938 -3.114066,0.322427 -4.337812,1.292812 -0.193901,0.145728 -0.433336,0.216396 -0.675938,0.200156 -0.242705,-0.01624 -0.470612,-0.11849 -0.643125,-0.28875 L 63.03468,29.304775 c -0.1005,-0.09494 -0.18154,-0.208079 -0.23625,-0.334688 -0.05471,-0.12661 -0.08203,-0.262547 -0.08203,-0.400312 0,-0.137777 0.02732,-0.273703 0.08203,-0.400313 0.05471,-0.126609 0.13575,-0.243029 0.23625,-0.337969 2.006462,-1.859953 4.660878,-2.871876 7.405781,-2.825156 z M 59.123437,43.506024 c -0.346858,0.01484 -0.682328,0.117693 -0.977812,0.298594 -0.295479,0.180901 -0.539781,0.434036 -0.70875,0.735 -0.169081,0.300965 -0.256265,0.639772 -0.255938,0.984375 l 3.241875,1.611094 v 0.0098 c 0.279036,-0.205087 0.500271,-0.479985 0.643125,-0.794063 0.142851,-0.314077 0.200185,-0.657358 0.170625,-1.000781 -0.02967,-0.343315 -0.146701,-0.67264 -0.34125,-0.958125 C 60.700758,44.106582 60.4376,43.874304 60.1275,43.719306 59.817502,43.564419 59.470195,43.491084 59.123437,43.506024 Z"
       clip-path="url(#clipPath993)" /></g><style
     type="text/css"
     id="style267">
	.st0{fill:#231F20;}
</style></svg>
