<?xml version="1.0" encoding="UTF-8" standalone="no"?>
<!-- Created with Inkscape (http://www.inkscape.org/) -->

<svg
   width="50mm"
   height="50mm"
   viewBox="0 0 50 50"
   version="1.1"
   id="svg1"
   xml:space="preserve"
   sodipodi:docname="Groovy_Box.svg"
   inkscape:version="1.2.2 (b0a8486541, 2022-12-01)"
   xmlns:inkscape="http://www.inkscape.org/namespaces/inkscape"
   xmlns:sodipodi="http://sodipodi.sourceforge.net/DTD/sodipodi-0.dtd"
   xmlns:xlink="http://www.w3.org/1999/xlink"
   xmlns="http://www.w3.org/2000/svg"
   xmlns:svg="http://www.w3.org/2000/svg"><sodipodi:namedview
     id="namedview23"
     pagecolor="#ffffff"
     bordercolor="#000000"
     borderopacity="0.25"
     inkscape:showpageshadow="2"
     inkscape:pageopacity="0.0"
     inkscape:pagecheckerboard="0"
     inkscape:deskcolor="#d1d1d1"
     inkscape:document-units="mm"
     showgrid="false"
     inkscape:zoom="3.9513127"
     inkscape:cx="85.794273"
     inkscape:cy="111.73502"
     inkscape:window-width="2560"
     inkscape:window-height="1369"
     inkscape:window-x="0"
     inkscape:window-y="0"
     inkscape:window-maximized="1"
     inkscape:current-layer="svg1" /><defs
     id="defs1"><linearGradient
       id="linearGradient1"><stop
         style="stop-color:#208a3c;stop-opacity:1;"
         offset="0"
         id="stop1" /><stop
         style="stop-color:#3dd264;stop-opacity:1;"
         offset="1"
         id="stop5" /></linearGradient><linearGradient
       id="linearGradient15"><stop
         style="stop-color:#228f3f;stop-opacity:0.40000001;"
         offset="0"
         id="stop15" /><stop
         style="stop-color:#3acb60;stop-opacity:0.4967742;"
         offset="1"
         id="stop16" /></linearGradient><linearGradient
       id="linearGradient2"><stop
         style="stop-color:#1da649;stop-opacity:1;"
         offset="0"
         id="stop2" /><stop
         style="stop-color:#218e3e;stop-opacity:0;"
         offset="0.30000001"
         id="stop4" /><stop
         style="stop-color:#3acb60;stop-opacity:0;"
         offset="0.69999999"
         id="stop17" /><stop
         style="stop-color:#1aa64f;stop-opacity:1;"
         offset="1"
         id="stop3" /></linearGradient><linearGradient
       xlink:href="#linearGradient2"
       id="linearGradient9"
       x1="25.000004"
       y1="2.3639462"
       x2="25.000004"
       y2="47.63604"
       gradientUnits="userSpaceOnUse" /><radialGradient
       xlink:href="#linearGradient15"
       id="radialGradient16"
       cx="25"
       cy="25"
       fx="25"
       fy="25"
       r="25"
       gradientUnits="userSpaceOnUse"
       gradientTransform="translate(-2.4265137e-6)" /><linearGradient
       xlink:href="#linearGradient1"
       id="linearGradient5"
       x1="-13.661004"
       y1="16.973553"
       x2="-45.318031"
       y2="28.49577"
       gradientUnits="userSpaceOnUse"
       gradientTransform="matrix(1.2446069,0,0,1.2446069,61.702865,-3.2957087)" /><linearGradient
       id="linearGradient15-9"><stop
         style="stop-color:#228f3f;stop-opacity:0.24731183;"
         offset="0"
         id="stop15-2" /><stop
         style="stop-color:#3acb60;stop-opacity:0.4967742;"
         offset="1"
         id="stop16-0" /></linearGradient><linearGradient
       id="linearGradient2-2"><stop
         style="stop-color:#218e3e;stop-opacity:1;"
         offset="0"
         id="stop2-3" /><stop
         style="stop-color:#000000;stop-opacity:0;"
         offset="0.30000001"
         id="stop4-7" /><stop
         style="stop-color:#000000;stop-opacity:0;"
         offset="0.69999999"
         id="stop17-5" /><stop
         style="stop-color:#3acb60;stop-opacity:1;"
         offset="1"
         id="stop3-9" /></linearGradient><linearGradient
       xlink:href="#linearGradient2-2"
       id="linearGradient9-6"
       x1="25.000004"
       y1="2.3639462"
       x2="25.000004"
       y2="47.63604"
       gradientUnits="userSpaceOnUse" /><radialGradient
       xlink:href="#linearGradient15-9"
       id="radialGradient16-2"
       cx="25"
       cy="25"
       fx="25"
       fy="25"
       r="25"
       gradientUnits="userSpaceOnUse"
       gradientTransform="translate(-2.4265137e-6)" /></defs><g
     id="layer1"><rect
       style="font-variation-settings:normal;opacity:1;vector-effect:none;fill:#000000;fill-opacity:1;stroke:none;stroke-width:0.260698;stroke-linecap:butt;stroke-linejoin:miter;stroke-miterlimit:4;stroke-dasharray:none;stroke-dashoffset:0;stroke-opacity:1;-inkscape-stroke:none;stop-color:#000000;stop-opacity:1"
       id="rect1"
       width="50"
       height="50"
       x="0"
       y="0"
       rx="7.1983109"
       ry="7.1983109" /><rect
       style="font-variation-settings:normal;vector-effect:none;fill:url(#radialGradient16);stroke:none;stroke-width:0.260698;stroke-linecap:butt;stroke-linejoin:miter;stroke-miterlimit:4;stroke-dasharray:none;stroke-dashoffset:0;stroke-opacity:1;-inkscape-stroke:none;stop-color:#000000"
       id="rect1-18"
       width="50"
       height="50"
       x="0"
       y="-4.4408921e-16"
       rx="7.1983109"
       ry="7.1983109" /><rect
       style="fill:none;fill-opacity:1;stroke:url(#linearGradient9);stroke-width:1;stroke-dasharray:none"
       id="rect1-1"
       width="45.037273"
       height="45.037273"
       x="2.4813633"
       y="2.4813633"
       rx="6.4838462"
       ry="6.4838462" /></g><path
     d="m 22.786494,18.139878 c -2.065713,3.427378 -2.184262,3.607506 -2.471084,3.748118 -0.256856,0.126123 -0.319423,0.134027 -0.423812,0.054 -0.426776,-0.327985 -0.998115,-0.232157 -1.398876,0.234463 l -0.222608,0.259161 -0.0471,-0.277601 c -0.07343,-0.43402 -0.09846,-0.4956 -0.277273,-0.688901 -0.166627,-0.17947 -0.167286,-0.185727 -0.07047,-0.727758 0.119868,-0.671776 0.126781,-1.162437 0.02337,-1.649803 -0.201863,-0.953001 -0.704378,-1.390973 -1.595469,-1.390973 -0.770898,0 -1.689322,0.613819 -2.863613,1.913246 -0.707342,0.78308 -1.778561,2.254732 -2.008744,2.760211 l -0.08957,0.196594 -3.6858798,-0.04644 c -2.294249,-0.02897 -3.6608536,-0.02173 -3.6190323,0.01943 0.036554,0.03622 1.610947,0.64181 3.4985071,1.345858 l 3.432317,1.279997 0.128099,0.299337 c 0.152467,0.355975 0.548289,0.810742 0.887799,1.020507 l 0.244343,0.15115 -0.285176,0.127769 c -0.212071,0.09484 -0.324033,0.207461 -0.436325,0.438302 -0.221621,0.456084 -0.148516,0.716561 0.362891,1.29251 0.229853,0.259161 0.5473,0.719526 0.705035,1.023143 0.190996,0.366843 0.361904,0.597683 0.50976,0.687583 0.238415,0.145552 0.678034,0.17914 0.886152,0.06783 0.234793,-0.125793 1.615228,-0.473536 1.568138,-0.395492 -0.02535,0.04248 -0.8305,1.30766 -1.789099,2.811253 -0.958599,1.503595 -1.727849,2.748686 -1.709738,2.767128 0.01844,0.01811 2.941658,-1.095918 6.496147,-2.476354 l 6.462885,-2.509283 6.443457,2.501051 c 3.543951,1.375825 6.470134,2.492489 6.50273,2.481622 0.03224,-0.01083 -0.428418,-0.782422 -1.023801,-1.714677 l -1.082746,-1.694919 0.373768,-0.07507 c 0.840371,-0.168603 1.788438,-0.832147 2.298528,-1.608313 0.744225,-1.132141 0.851909,-2.436507 0.356966,-4.325714 -0.09944,-0.379027 -0.164326,-0.705365 -0.144238,-0.725123 0.01979,-0.01976 1.643217,-0.636542 3.607829,-1.370227 1.964625,-0.734015 3.599603,-1.361666 3.633531,-1.394924 0.03423,-0.03359 -1.691633,-0.04248 -3.91475,-0.01943 -3.381609,0.03491 -3.980601,0.02635 -4.007273,-0.05796 a 4.1077163,4.1077163 0 0 1 -0.07082,-0.280894 c -0.04642,-0.214046 -0.357289,-0.544666 -0.598009,-0.636542 -0.09285,-0.03557 -0.398461,-0.06915 -0.67902,-0.07475 -0.45346,-0.0096 -0.537098,0.01021 -0.756746,0.177824 -0.135998,0.103725 -0.267055,0.251916 -0.291761,0.329301 -0.05962,0.188032 -0.132376,0.176835 -0.247303,-0.03754 -0.267391,-0.499881 -1.0732,-0.606575 -1.483181,-0.196264 l -0.207131,0.206801 -0.409981,-0.20318 c -0.505808,-0.250598 -1.126214,-0.323703 -1.483178,-0.17453 -0.17453,0.07277 -0.298347,0.08397 -0.421178,0.03754 -0.29242,-0.110982 -0.759699,-0.02141 -0.977698,0.187373 L 30.220128,21.994019 29.89873,21.77701 c -0.176835,-0.119209 -0.410311,-0.247964 -0.51898,-0.286164 -0.163335,-0.0573 -0.551911,-0.659263 -2.265929,-3.510362 -1.13774,-1.8925 -2.088436,-3.441208 -2.112804,-3.441208 -0.02437,0 -1.020837,1.620167 -2.214558,3.60059 m -6.152023,0.588793 c 0.365195,0.255539 0.455095,0.982308 0.253232,2.045626 -0.220961,1.1654 -0.560472,1.914233 -1.17001,2.581071 -0.399444,0.436984 -0.847624,0.678691 -1.270449,0.685278 -0.970123,0.01449 -1.216442,-0.941476 -0.577925,-2.243537 0.232487,-0.473536 0.822926,-1.286254 0.934889,-1.286254 0.055,0 0.222937,0.659591 0.222937,0.875944 0,0.07377 -0.132708,0.35334 -0.294725,0.621722 -0.236109,0.390881 -0.294396,0.553557 -0.294396,0.82128 0,1.025118 0.955636,0.898666 1.472969,-0.195276 0.522273,-1.104151 0.814694,-3.234078 0.492637,-3.591041 -0.171897,-0.190666 -0.273981,-0.186386 -0.741919,0.03161 -0.739613,0.34412 -2.279759,2.136512 -2.810265,3.270301 -0.521285,1.114359 -0.409981,2.276795 0.277931,2.898189 0.682644,0.616454 1.767036,0.50021 2.564606,-0.274969 0.609209,-0.592414 1.069903,-1.464407 1.26024,-2.385464 0.114603,-0.553228 0.2832,-0.610527 0.341486,-0.115911 0.02273,0.190997 0.199228,0.832807 0.392528,1.425879 0.477818,1.467042 0.570352,1.861217 0.569693,2.423336 -9.87e-4,0.622052 -0.203838,1.066939 -0.695157,1.52434 -0.469914,0.437314 -1.129177,0.735002 -2.360109,1.065951 -0.541043,0.145223 -1.106126,0.30724 -1.25563,0.359928 -0.364208,0.128098 -0.387917,0.123813 -0.466292,-0.08167 -0.115885,-0.304925 -0.563078,-0.969127 -0.858791,-1.275049 l -0.2832,-0.293409 0.285505,-0.07673 c 0.941804,-0.253562 2.332777,-0.759041 3.003237,-1.091637 0.805473,-0.399114 1.32083,-0.8114 1.553648,-1.242457 0.184738,-0.342145 0.173213,-1.185817 -0.02207,-1.604031 l -0.147199,-0.31613 -0.08199,0.210753 c -0.456084,1.173304 -1.318197,2.042004 -2.352207,2.370317 -0.623698,0.19824 -1.438722,0.143247 -1.942224,-0.130403 -0.881213,-0.479794 -1.042901,-1.443003 -0.451145,-2.689412 0.686596,-1.447283 2.641663,-3.724408 3.61541,-4.210787 0.507455,-0.253563 0.607892,-0.266735 0.834782,-0.107348 m 12.497678,3.719469 c 0.791972,0.394833 1.297451,1.248055 1.30733,2.207313 0.0076,0.718867 -0.16531,1.19833 -0.582206,1.615228 -0.393846,0.393846 -0.808108,0.533139 -1.383729,0.465633 -0.986589,-0.11591 -1.551343,-0.68429 -1.62807,-1.63795 -0.07903,-0.985272 0.42019,-2.347266 0.987248,-2.693033 0.328315,-0.200216 0.846307,-0.183093 1.299427,0.04281 m -3.505093,0.164322 c 0.119868,0.08529 0.313167,0.356305 0.443899,0.621393 0.217339,0.441595 0.231501,0.515029 0.231501,1.210515 0,0.694828 -0.01449,0.76958 -0.230513,1.208869 -0.429739,0.873309 -1.206563,1.373191 -2.027843,1.305025 -0.470573,-0.03886 -0.709976,-0.20285 -0.926656,-0.635224 -0.304605,-0.606904 -0.192971,-1.782514 0.262453,-2.760871 0.220304,-0.473536 0.826878,-1.131482 1.076489,-1.167376 0.331608,-0.04808 0.961892,0.06915 1.17067,0.217669 m 11.359282,-0.15115 c 0.04182,0.02831 0.211086,0.668155 0.376071,1.421598 0.164972,0.753444 0.413271,1.796673 0.552232,2.318288 0.218329,0.819962 0.252904,1.057719 0.255542,1.756169 0.0037,1.007006 -0.119606,1.445966 -0.576277,2.052541 -0.792628,1.05245 -1.962646,1.452881 -3.865026,1.322148 -0.435997,-0.02997 -0.814694,-0.07607 -0.841039,-0.102742 -0.02635,-0.02635 0.054,-0.12744 0.178482,-0.224914 0.359928,-0.281882 0.588464,-0.737966 0.630285,-1.258264 0.02009,-0.249611 0.05006,-0.454107 0.06685,-0.454107 0.01679,0 0.352025,0.08233 0.745542,0.182433 1.56518,0.399444 2.585347,0.04776 3.077004,-1.060353 0.199225,-0.44851 0.241379,-1.217101 0.108406,-1.967252 l -0.09945,-0.561789 -0.01,0.421507 c -0.005,0.231828 -0.05427,0.631272 -0.108655,0.888128 -0.186379,0.878908 -0.530837,1.324783 -1.023801,1.324783 -0.56179,0 -0.877261,-0.616125 -1.087687,-2.12433 -0.337537,-2.418724 -0.449826,-2.899176 -0.7788,-3.333197 -0.196922,-0.25949 -0.20317,-0.300653 -0.07244,-0.479463 0.09061,-0.123814 0.108654,-0.109327 0.271685,0.215034 0.09621,0.191324 0.308887,0.758383 0.47254,1.260569 0.442582,1.357384 0.635223,1.68899 1.0788,1.857594 0.242363,0.0922 0.61053,-0.05664 0.77946,-0.314154 0.377042,-0.575621 0.307232,-1.35047 -0.217009,-2.405883 a 84.749885,84.749885 0 0 1 -0.36289,-0.735332 c -0.03099,-0.06783 0.350045,-0.06685 0.450149,9.88e-4 m -9.237259,0.217998 c -0.220302,0.309544 -0.294725,0.562448 -0.29703,1.008653 -0.0052,1.095589 1.059036,1.761109 2.073287,1.296462 0.795594,-0.363878 0.88681,-0.97638 0.267064,-1.791403 -0.379027,-0.498564 -1.134116,-0.851247 -1.382082,-0.645432 -0.181115,0.150161 -0.117889,0.33457 0.207791,0.606574 0.375075,0.313825 0.432373,0.43435 0.267064,0.559814 -0.401419,0.304605 -1.072538,-0.115587 -1.072538,-0.671777 0,-0.161028 0.03293,-0.353671 0.07277,-0.428422 0.108666,-0.20318 0.02701,-0.163992 -0.136332,0.06553 m 5.08278,-0.102406 c 0.893726,0.373428 1.570778,1.923125 1.493388,3.418486 -0.04082,0.792631 -0.22261,1.290865 -0.587477,1.611277 -0.492655,0.432362 -1.205924,0.146199 -1.610307,-0.646103 -0.187373,-0.367501 -0.35433,-0.949049 -0.630614,-2.19908 -0.208778,-0.944438 -0.393516,-1.487458 -0.592414,-1.740362 -0.121847,-0.154443 -0.124477,-0.18474 -0.02833,-0.321729 0.05828,-0.08331 0.133038,-0.151479 0.165968,-0.151479 0.107683,0 0.341816,0.583194 0.522603,1.30305 0.204826,0.815681 0.319753,1.114358 0.533141,1.385703 0.336217,0.427105 1.018532,0.546642 1.353102,0.236439 0.423484,-0.392528 0.527213,-0.970454 0.298019,-1.660342 -0.204497,-0.615795 -0.935218,-1.235542 -1.174621,-0.99614 -0.054,0.05368 -0.04248,0.126124 0.04018,0.252246 0.06355,0.09714 0.11591,0.239732 0.11591,0.31646 0,0.196593 -0.147527,0.497575 -0.244012,0.497575 -0.09944,0 -0.351366,-0.229853 -0.498564,-0.454107 -0.13238,-0.202192 -0.150161,-0.701415 -0.02997,-0.845978 0.110646,-0.133367 0.56146,-0.136331 0.873968,-0.006 m -8.110055,0.181775 c -0.202851,0.202849 -0.178812,0.293737 0.18408,0.697461 0.321068,0.356965 0.323373,0.362891 0.1933,0.507455 -0.07245,0.08035 -0.201533,0.172883 -0.287152,0.205485 -0.196594,0.07541 -0.56179,-0.04676 -0.653994,-0.218657 -0.1011,-0.189678 -0.08331,-0.739284 0.03326,-1.018203 0.147198,-0.352353 6.58e-4,-0.299335 -0.245659,0.08892 -0.389236,0.613489 -0.450816,1.327417 -0.162677,1.882621 0.442912,0.853552 1.516767,0.758383 2.207973,-0.195606 0.323703,-0.446864 0.257514,-0.995152 -0.190667,-1.582626 C 25.439284,22.652235 24.9832,22.497134 24.721734,22.7586 m -5.250725,0.529188 c 0.08661,0.264431 0.194618,0.492637 0.240391,0.506797 0.108343,0.03425 0.581219,-0.395163 0.829513,-0.753773 0.107347,-0.155101 0.221949,-0.282212 0.254549,-0.282212 0.03227,0 0.108343,0.09616 0.169262,0.213717 0.06092,0.117889 0.194947,0.245989 0.298018,0.285175 0.169592,0.06455 0.214047,0.04248 0.470574,-0.231499 l 0.283529,-0.302299 0.02173,0.223596 c 0.04116,0.424141 -0.487039,1.138727 -0.955636,1.293499 -0.215034,0.07113 -0.283859,0.05664 -0.66124,-0.137977 -0.318105,-0.163993 -0.45246,-0.200545 -0.548946,-0.149174 -0.188361,0.101099 -0.225243,0.404053 -0.105045,0.86343 0.135672,0.518321 0.277602,0.798558 0.549606,1.085381 0.267723,0.282212 0.560801,0.299335 1.068256,0.0629 l 0.352354,-0.163992 0.0036,0.794606 0.0032,0.794607 -0.269369,0.107683 c -0.33951,0.136002 -0.776824,0.137977 -1.03368,0.0052 -0.294395,-0.152138 -0.474525,-0.615465 -0.676716,-1.740032 -0.234133,-1.302062 -0.404713,-1.819725 -0.703718,-2.136844 -0.131063,-0.138965 -0.21767,-0.288468 -0.191984,-0.331936 0.111629,-0.190337 0.394503,-0.537422 0.418213,-0.513712 0.01449,0.01416 0.09714,0.242367 0.183422,0.506797 m 15.296421,4.880259 c 0,0.03853 -0.04904,0.07015 -0.109277,0.07015 -0.06024,0 -0.09023,-0.03161 -0.06621,-0.07015 0.02402,-0.03853 0.07306,-0.07015 0.10965,-0.07015 0.03622,0 0.06584,0.03161 0.06584,0.07015"
     fill-rule="evenodd"
     id="path1"
     style="fill:url(#linearGradient5);stroke-width:0.329302" /></svg>
