<?xml version="1.0" encoding="UTF-8" standalone="no"?>
<!-- Created with Inkscape (http://www.inkscape.org/) -->

<svg
   width="50mm"
   height="50mm"
   viewBox="0 0 50 50"
   version="1.1"
   id="svg1"
   xml:space="preserve"
   sodipodi:docname="Haskell_Box.svg"
   inkscape:version="1.4.3 (0d15f75, 2025-12-25)"
   inkscape:export-filename="Cairo_Box.png"
   inkscape:export-xdpi="96"
   inkscape:export-ydpi="96"
   xmlns:inkscape="http://www.inkscape.org/namespaces/inkscape"
   xmlns:sodipodi="http://sodipodi.sourceforge.net/DTD/sodipodi-0.dtd"
   xmlns:xlink="http://www.w3.org/1999/xlink"
   xmlns="http://www.w3.org/2000/svg"
   xmlns:svg="http://www.w3.org/2000/svg"><sodipodi:namedview
     id="namedview1"
     pagecolor="#ffffff"
     bordercolor="#000000"
     borderopacity="0.25"
     inkscape:showpageshadow="2"
     inkscape:pageopacity="0.0"
     inkscape:pagecheckerboard="0"
     inkscape:deskcolor="#d1d1d1"
     inkscape:document-units="mm"
     inkscape:zoom="0.38662239"
     inkscape:cx="-814.74847"
     inkscape:cy="-24.571779"
     inkscape:window-width="2560"
     inkscape:window-height="1369"
     inkscape:window-x="-8"
     inkscape:window-y="-8"
     inkscape:window-maximized="1"
     inkscape:current-layer="layer1"><inkscape:page
       x="0"
       y="0"
       width="50"
       height="50"
       id="page1"
       margin="0"
       bleed="0" /></sodipodi:namedview><defs
     id="defs1"><linearGradient
       id="linearGradient5"><stop
         style="stop-color:#373050;stop-opacity:1;"
         offset="0.00462963"
         id="stop1" /><stop
         style="stop-color:#7a6da2;stop-opacity:1;"
         offset="0.9999367"
         id="stop5" /></linearGradient><linearGradient
       xlink:href="#linearGradient5"
       id="linearGradient1"
       x1="25"
       y1="7.0902283e-06"
       x2="25"
       y2="50.000031"
       gradientUnits="userSpaceOnUse"
       gradientTransform="matrix(0.98039216,0,0,0.98039216,0.49019623,0.49019623)" /><filter
       inkscape:collect="always"
       style="color-interpolation-filters:sRGB"
       id="filter1"
       x="-0.06882552"
       y="-0.06882552"
       width="1.137651"
       height="1.137651"><feGaussianBlur
         inkscape:collect="always"
         stdDeviation="0.9600145"
         id="feGaussianBlur1" /></filter><filter
       inkscape:collect="always"
       style="color-interpolation-filters:sRGB"
       id="filter13"
       x="-0.063953714"
       y="-0.090658884"
       width="1.1279074"
       height="1.1813178"><feGaussianBlur
         inkscape:collect="always"
         stdDeviation="2.8023036"
         id="feGaussianBlur13" /></filter><filter
       inkscape:collect="always"
       style="color-interpolation-filters:sRGB"
       id="filter14"
       x="-0.08819405"
       y="-0.44114876"
       width="1.1763881"
       height="1.8822975"><feGaussianBlur
         inkscape:collect="always"
         stdDeviation="4.62069"
         id="feGaussianBlur14" /></filter></defs><g
     id="layer1"
     inkscape:label="Haskell"><rect
       style="font-variation-settings:normal;display:inline;fill:url(#linearGradient1);stroke:none;stroke-width:0.980392;stroke-linecap:butt;stroke-linejoin:miter;stroke-miterlimit:4;stroke-dasharray:none;stroke-dashoffset:0;stroke-opacity:1;stop-color:#000000"
       id="rect1-18"
       width="49.019608"
       height="49.019608"
       x="0.49019623"
       y="0.49019623"
       rx="7.0571675"
       ry="7.0571675"
       inkscape:label="Background" /><g
       id="g9"
       transform="matrix(0.26458333,0,0,0.26458333,-48.948085,48.094194)"
       inkscape:label="Logo"><path
         id="path14"
         d="M 279.80835,-48.121189 V -23.3365 h 6.45506 v -5.092093 l 1.29063,-1.425786 4.04322,6.518513 h 6.82816 l -6.76027,-10.049664 6.14922,-7.809143 h -6.79453 l -4.75643,6.621305 v -13.547821 z m 39.51083,6.49e-4 -0.0101,0.0026 v 19.963542 c 0,1.674209 0.46491,2.952318 1.39406,3.833823 0.92916,0.882586 2.25474,1.323626 3.97659,1.323626 0.86201,0 1.76814,-0.101617 2.71896,-0.305208 0.97463,-0.203591 1.84765,-0.486652 2.6187,-0.848999 l -0.81537,-5.194886 c -0.2729,0.158757 -0.56769,0.283421 -0.8839,0.373737 -0.31838,0.09097 -0.61317,0.136424 -0.8839,0.136424 -1.10892,0 -1.6631,-0.678844 -1.6631,-2.036837 v -17.247756 z m 12.33841,0 -0.003,0.0026 v 19.963542 c 0,1.674209 0.46491,2.952318 1.39406,3.833823 0.92699,0.882586 2.25093,1.323626 3.97278,1.323626 0.86202,0 1.76878,-0.101617 2.71959,-0.305208 0.97464,-0.203591 1.84766,-0.486652 2.6187,-0.848999 l -0.816,-5.194886 c -0.2729,0.158757 -0.56705,0.283421 -0.88327,0.373737 -0.31838,0.09097 -0.61316,0.136424 -0.88389,0.136424 -1.10892,0 -1.6631,-0.678844 -1.6631,-2.036837 v -17.247756 z m -115.03941,0.679582 v 24.104474 h 6.62384 v -9.437979 h 8.08644 v 9.438613 h 6.62448 v -24.105108 h -6.62448 v 8.894823 h -8.08644 v -8.894823 z m 52.45458,5.88208 c -1.11,0 -2.14061,0.158414 -3.09142,0.474628 -0.92851,0.294558 -1.73263,0.724074 -2.41185,1.289363 -0.67943,0.565288 -1.2116,1.232423 -1.59647,2.001302 -0.36257,0.76888 -0.54379,1.606136 -0.54379,2.511465 0,0.680079 0.11396,1.280352 0.34138,1.800158 0.22524,0.498147 0.5986,0.961412 1.12057,1.390252 0.51981,0.409347 1.20999,0.782703 2.06983,1.120577 0.86202,0.34004 1.92656,0.679276 3.19359,1.01715 1.26702,0.316215 2.12669,0.586947 2.57936,0.812196 0.45266,0.226116 0.67894,0.486548 0.67894,0.781105 0,0.565939 -0.56652,0.848999 -1.69926,0.848999 -0.97464,0 -2.02849,-0.16992 -3.16123,-0.509526 -1.13274,-0.33939 -2.32132,-0.837426 -3.56668,-1.493681 l -2.48228,4.379517 c 0.56529,0.316865 1.23243,0.611031 2.0013,0.882629 0.77105,0.249074 1.56386,0.46425 2.37822,0.645316 0.83797,0.181065 1.68692,0.32794 2.54763,0.440997 0.86071,0.113275 1.66526,0.170054 2.41248,0.170054 l 0.0108,0.01332 c 2.40086,0 4.29214,-0.532775 5.67396,-1.598377 1.40434,-1.063436 2.10663,-2.51204 2.10663,-4.346521 0,-0.723397 -0.12466,-1.356783 -0.37374,-1.900414 -0.22676,-0.565288 -0.62316,-1.063943 -1.1891,-1.494949 -0.54363,-0.452664 -1.28028,-0.860776 -2.20943,-1.22464 -0.92807,-0.384873 -2.07119,-0.746923 -3.43026,-1.086313 -0.58912,-0.1358 -1.08714,-0.260463 -1.49432,-0.373737 -0.38552,-0.1358 -0.69201,-0.260463 -0.91943,-0.373738 -0.22741,-0.113491 -0.38683,-0.226214 -0.4778,-0.338838 -0.091,-0.136449 -0.13642,-0.295868 -0.13642,-0.4778 0,-0.316215 0.14707,-0.542497 0.44163,-0.678946 0.31686,-0.158107 0.72459,-0.237313 1.22274,-0.237313 0.77104,0 1.57555,0.135365 2.41374,0.406098 0.83776,0.249073 1.8914,0.668522 3.16059,1.257636 l 2.48164,-4.103497 c -1.42622,-0.656254 -2.83018,-1.154274 -4.212,-1.494315 -1.35929,-0.34004 -2.63878,-0.51016 -3.83953,-0.51016 z m 38.44355,0.02476 c -1.60923,0 -3.02472,0.260852 -4.24626,0.781739 -1.19989,0.497714 -2.21898,1.176559 -3.05716,2.036837 -0.81653,0.859846 -1.43922,1.866589 -1.86806,3.020991 -0.40718,1.154402 -0.61105,2.376956 -0.61105,3.666941 0,1.199669 0.21538,2.342599 0.64595,3.428993 0.43014,1.086611 1.05283,2.048515 1.86805,2.885836 0.83798,0.837321 1.86837,1.50506 3.09143,2.003207 1.22306,0.475406 2.61634,0.71321 4.179,0.71321 v 0.01079 c 2.19683,0 4.04266,-0.452563 5.53754,-1.357891 1.5174,-0.905329 2.6381,-2.071491 3.36236,-3.498791 l -5.4709,-1.56287 c -0.20359,0.565289 -0.62304,1.006142 -1.25764,1.322358 -0.61077,0.316215 -1.26821,0.474627 -1.97211,0.474627 -0.74722,0 -1.43779,-0.20387 -2.07174,-0.611051 -0.63416,-0.431006 -0.98509,-1.122193 -1.05332,-2.073005 h 12.53385 c 0.0455,-0.270732 0.0796,-0.575585 0.10343,-0.915625 0.0455,-0.361698 0.0685,-0.712643 0.0685,-1.052683 0,-1.223709 -0.21458,-2.389872 -0.64342,-3.498791 -0.40718,-1.132743 -1.02986,-2.118716 -1.86805,-2.956903 -0.81653,-0.859845 -1.83562,-1.538689 -3.05716,-2.036835 -1.22371,-0.520674 -2.62786,-0.781106 -4.21327,-0.781106 z m -58.23386,0.0013 c -3.01141,0 -5.69532,0.758053 -8.0509,2.274151 l 1.86805,4.00578 c 0.95081,-0.632431 1.85657,-1.107405 2.71642,-1.425786 0.86201,-0.339173 1.80189,-0.508892 2.81984,-0.508892 1.08726,0 1.86772,0.203235 2.34205,0.610417 0.49815,0.407397 0.74747,1.02988 0.74747,1.867417 v 0.543157 c -0.95081,-0.452665 -2.15173,-0.678946 -3.60285,-0.678946 -1.13275,0 -2.17488,0.147509 -3.12569,0.441632 -0.92915,0.29434 -1.73367,0.712535 -2.41375,1.255732 -0.68007,0.542981 -1.21285,1.188092 -1.59837,1.935313 -0.38553,0.746787 -0.57806,1.57314 -0.57806,2.478468 0,0.814796 0.15778,1.573047 0.47399,2.274785 0.31687,0.701738 0.74701,1.312698 1.29063,1.833153 0.56637,0.498148 1.23452,0.894566 2.00448,1.188473 0.77018,0.294556 1.59714,0.441632 2.48037,0.441632 l 0.01,0.01079 c 1.17823,0 2.28823,-0.261037 3.33001,-0.783009 1.04178,-0.541464 1.95925,-1.321926 2.75195,-2.342045 l 0.13642,0.643412 c 0.18194,0.816528 0.567,1.439213 1.15611,1.868053 0.61164,0.407181 1.49496,0.610416 2.6498,0.610416 0.40783,0 0.87273,-0.03476 1.39406,-0.104063 0.5211,-0.04548 1.07589,-0.124054 1.665,-0.236679 v -5.432196 c -0.58911,-0.04548 -0.99723,-0.181856 -1.22464,-0.409271 -0.22742,-0.249074 -0.34138,-0.679225 -0.34138,-1.289996 v -3.463258 c 0,-2.534053 -0.76976,-4.43522 -2.30968,-5.704412 -1.54014,-1.269193 -3.7369,-1.90422 -6.59085,-1.90422 z m 58.13297,4.582567 c 0.81436,0 1.48251,0.248693 2.00448,0.74684 0.5198,0.498147 0.837,1.176991 0.95179,2.036837 h -0.003 -5.90936 c 0.11479,-0.859846 0.43198,-1.53869 0.95179,-2.036837 0.5198,-0.498147 1.18794,-0.74684 2.00447,-0.74684 z m -58.1793,5.601621 c 0.36171,0 0.76982,0.04526 1.22465,0.135789 0.45266,0.09053 0.87211,0.204308 1.25763,0.340108 v 1.323626 c 0,0.226332 -0.0794,0.452614 -0.23795,0.678946 -0.15875,0.203807 -0.36261,0.396355 -0.61168,0.577421 -0.31708,0.203591 -0.67933,0.37351 -1.08695,0.509526 -0.40761,0.113058 -0.80402,0.169419 -1.1891,0.169419 l -0.006,-0.0051 c -0.61077,0 -1.12013,-0.157778 -1.52731,-0.473993 -0.38552,-0.316216 -0.57805,-0.723321 -0.57805,-1.221468 0,-0.589113 0.26103,-1.075425 0.783,-1.458781 0.52198,-0.383357 1.17941,-0.575518 1.97212,-0.575518 z"
         inkscape:label="TextShadow"
         style="fill:#000000;fill-opacity:0.25225225;stroke-width:0.324879;filter:url(#filter14)"
         transform="translate(-3.7795276e-6)" /><path
         id="path1-7"
         d="M 279.80835,-48.121189 V -23.3365 h 6.45506 v -5.092093 l 1.29063,-1.425786 4.04322,6.518513 h 6.82816 l -6.76027,-10.049664 6.14922,-7.809143 h -6.79453 l -4.75643,6.621305 v -13.547821 z m 39.51083,6.49e-4 -0.0101,0.0026 v 19.963542 c 0,1.674209 0.46491,2.952318 1.39406,3.833823 0.92916,0.882586 2.25474,1.323626 3.97659,1.323626 0.86201,0 1.76814,-0.101617 2.71896,-0.305208 0.97463,-0.203591 1.84765,-0.486652 2.6187,-0.848999 l -0.81537,-5.194886 c -0.2729,0.158757 -0.56769,0.283421 -0.8839,0.373737 -0.31838,0.09097 -0.61317,0.136424 -0.8839,0.136424 -1.10892,0 -1.6631,-0.678844 -1.6631,-2.036837 v -17.247756 z m 12.33841,0 -0.003,0.0026 v 19.963542 c 0,1.674209 0.46491,2.952318 1.39406,3.833823 0.92699,0.882586 2.25093,1.323626 3.97278,1.323626 0.86202,0 1.76878,-0.101617 2.71959,-0.305208 0.97464,-0.203591 1.84766,-0.486652 2.6187,-0.848999 l -0.816,-5.194886 c -0.2729,0.158757 -0.56705,0.283421 -0.88327,0.373737 -0.31838,0.09097 -0.61316,0.136424 -0.88389,0.136424 -1.10892,0 -1.6631,-0.678844 -1.6631,-2.036837 v -17.247756 z m -115.03941,0.679582 v 24.104474 h 6.62384 v -9.437979 h 8.08644 v 9.438613 h 6.62448 v -24.105108 h -6.62448 v 8.894823 h -8.08644 v -8.894823 z m 52.45458,5.88208 c -1.11,0 -2.14061,0.158414 -3.09142,0.474628 -0.92851,0.294558 -1.73263,0.724074 -2.41185,1.289363 -0.67943,0.565288 -1.2116,1.232423 -1.59647,2.001302 -0.36257,0.76888 -0.54379,1.606136 -0.54379,2.511465 0,0.680079 0.11396,1.280352 0.34138,1.800158 0.22524,0.498147 0.5986,0.961412 1.12057,1.390252 0.51981,0.409347 1.20999,0.782703 2.06983,1.120577 0.86202,0.34004 1.92656,0.679276 3.19359,1.01715 1.26702,0.316215 2.12669,0.586947 2.57936,0.812196 0.45266,0.226116 0.67894,0.486548 0.67894,0.781105 0,0.565939 -0.56652,0.848999 -1.69926,0.848999 -0.97464,0 -2.02849,-0.16992 -3.16123,-0.509526 -1.13274,-0.33939 -2.32132,-0.837426 -3.56668,-1.493681 l -2.48228,4.379517 c 0.56529,0.316865 1.23243,0.611031 2.0013,0.882629 0.77105,0.249074 1.56386,0.46425 2.37822,0.645316 0.83797,0.181065 1.68692,0.32794 2.54763,0.440997 0.86071,0.113275 1.66526,0.170054 2.41248,0.170054 l 0.0108,0.01332 c 2.40086,0 4.29214,-0.532775 5.67396,-1.598377 1.40434,-1.063436 2.10663,-2.51204 2.10663,-4.346521 0,-0.723397 -0.12466,-1.356783 -0.37374,-1.900414 -0.22676,-0.565288 -0.62316,-1.063943 -1.1891,-1.494949 -0.54363,-0.452664 -1.28028,-0.860776 -2.20943,-1.22464 -0.92807,-0.384873 -2.07119,-0.746923 -3.43026,-1.086313 -0.58912,-0.1358 -1.08714,-0.260463 -1.49432,-0.373737 -0.38552,-0.1358 -0.69201,-0.260463 -0.91943,-0.373738 -0.22741,-0.113491 -0.38683,-0.226214 -0.4778,-0.338838 -0.091,-0.136449 -0.13642,-0.295868 -0.13642,-0.4778 0,-0.316215 0.14707,-0.542497 0.44163,-0.678946 0.31686,-0.158107 0.72459,-0.237313 1.22274,-0.237313 0.77104,0 1.57555,0.135365 2.41374,0.406098 0.83776,0.249073 1.8914,0.668522 3.16059,1.257636 l 2.48164,-4.103497 c -1.42622,-0.656254 -2.83018,-1.154274 -4.212,-1.494315 -1.35929,-0.34004 -2.63878,-0.51016 -3.83953,-0.51016 z m 38.44355,0.02476 c -1.60923,0 -3.02472,0.260852 -4.24626,0.781739 -1.19989,0.497714 -2.21898,1.176559 -3.05716,2.036837 -0.81653,0.859846 -1.43922,1.866589 -1.86806,3.020991 -0.40718,1.154402 -0.61105,2.376956 -0.61105,3.666941 0,1.199669 0.21538,2.342599 0.64595,3.428993 0.43014,1.086611 1.05283,2.048515 1.86805,2.885836 0.83798,0.837321 1.86837,1.50506 3.09143,2.003207 1.22306,0.475406 2.61634,0.71321 4.179,0.71321 v 0.01079 c 2.19683,0 4.04266,-0.452563 5.53754,-1.357891 1.5174,-0.905329 2.6381,-2.071491 3.36236,-3.498791 l -5.4709,-1.56287 c -0.20359,0.565289 -0.62304,1.006142 -1.25764,1.322358 -0.61077,0.316215 -1.26821,0.474627 -1.97211,0.474627 -0.74722,0 -1.43779,-0.20387 -2.07174,-0.611051 -0.63416,-0.431006 -0.98509,-1.122193 -1.05332,-2.073005 h 12.53385 c 0.0455,-0.270732 0.0796,-0.575585 0.10343,-0.915625 0.0455,-0.361698 0.0685,-0.712643 0.0685,-1.052683 0,-1.223709 -0.21458,-2.389872 -0.64342,-3.498791 -0.40718,-1.132743 -1.02986,-2.118716 -1.86805,-2.956903 -0.81653,-0.859845 -1.83562,-1.538689 -3.05716,-2.036835 -1.22371,-0.520674 -2.62786,-0.781106 -4.21327,-0.781106 z m -58.23386,0.0013 c -3.01141,0 -5.69532,0.758053 -8.0509,2.274151 l 1.86805,4.00578 c 0.95081,-0.632431 1.85657,-1.107405 2.71642,-1.425786 0.86201,-0.339173 1.80189,-0.508892 2.81984,-0.508892 1.08726,0 1.86772,0.203235 2.34205,0.610417 0.49815,0.407397 0.74747,1.02988 0.74747,1.867417 v 0.543157 c -0.95081,-0.452665 -2.15173,-0.678946 -3.60285,-0.678946 -1.13275,0 -2.17488,0.147509 -3.12569,0.441632 -0.92915,0.29434 -1.73367,0.712535 -2.41375,1.255732 -0.68007,0.542981 -1.21285,1.188092 -1.59837,1.935313 -0.38553,0.746787 -0.57806,1.57314 -0.57806,2.478468 0,0.814796 0.15778,1.573047 0.47399,2.274785 0.31687,0.701738 0.74701,1.312698 1.29063,1.833153 0.56637,0.498148 1.23452,0.894566 2.00448,1.188473 0.77018,0.294556 1.59714,0.441632 2.48037,0.441632 l 0.01,0.01079 c 1.17823,0 2.28823,-0.261037 3.33001,-0.783009 1.04178,-0.541464 1.95925,-1.321926 2.75195,-2.342045 l 0.13642,0.643412 c 0.18194,0.816528 0.567,1.439213 1.15611,1.868053 0.61164,0.407181 1.49496,0.610416 2.6498,0.610416 0.40783,0 0.87273,-0.03476 1.39406,-0.104063 0.5211,-0.04548 1.07589,-0.124054 1.665,-0.236679 v -5.432196 c -0.58911,-0.04548 -0.99723,-0.181856 -1.22464,-0.409271 -0.22742,-0.249074 -0.34138,-0.679225 -0.34138,-1.289996 v -3.463258 c 0,-2.534053 -0.76976,-4.43522 -2.30968,-5.704412 -1.54014,-1.269193 -3.7369,-1.90422 -6.59085,-1.90422 z m 58.13297,4.582567 c 0.81436,0 1.48251,0.248693 2.00448,0.74684 0.5198,0.498147 0.837,1.176991 0.95179,2.036837 h -0.003 -5.90936 c 0.11479,-0.859846 0.43198,-1.53869 0.95179,-2.036837 0.5198,-0.498147 1.18794,-0.74684 2.00447,-0.74684 z m -58.1793,5.601621 c 0.36171,0 0.76982,0.04526 1.22465,0.135789 0.45266,0.09053 0.87211,0.204308 1.25763,0.340108 v 1.323626 c 0,0.226332 -0.0794,0.452614 -0.23795,0.678946 -0.15875,0.203807 -0.36261,0.396355 -0.61168,0.577421 -0.31708,0.203591 -0.67933,0.37351 -1.08695,0.509526 -0.40761,0.113058 -0.80402,0.169419 -1.1891,0.169419 l -0.006,-0.0051 c -0.61077,0 -1.12013,-0.157778 -1.52731,-0.473993 -0.38552,-0.316216 -0.57805,-0.723321 -0.57805,-1.221468 0,-0.589113 0.26103,-1.075425 0.783,-1.458781 0.52198,-0.383357 1.17941,-0.575518 1.97212,-0.575518 z"
         inkscape:label="Text"
         style="fill:#333333;fill-opacity:1;stroke-width:0.324879" /><path
         id="path3-9"
         d="M 1.8418712 3.5362344 L 26.586414 40.630601 L 1.8418712 77.721226 L 20.400278 77.721226 L 45.144821 40.630601 L 20.400278 3.5362344 L 1.8418712 3.5362344 z M 26.586414 3.5362344 L 51.329086 40.630601 L 26.586414 77.721226 L 45.14295 77.721226 L 60.609225 54.540521 L 76.073629 77.721226 L 94.630165 77.721226 L 45.144821 3.5362344 L 26.586414 3.5362344 z M 65.76465 25.17555 L 74.012207 37.540339 L 107.00431 37.540339 L 107.00431 25.17555 L 65.76465 25.17555 z M 78.136921 43.720863 L 86.384478 56.085652 L 107.00431 56.085652 L 107.00431 43.720863 L 78.136921 43.720863 z "
         transform="matrix(1.0441065,0,0,1.0441065,222.66542,-145.14132)"
         style="fill:#000000;fill-opacity:0.50270271;filter:url(#filter13)"
         inkscape:label="IconShadow" /><g
         id="g13"
         inkscape:label="Icon"
         transform="matrix(1.0441065,0,0,1.0441065,222.66542,-145.14132)"><path
           d="M 1.842,77.722 26.586,40.63 1.842,3.537 H 20.4 L 45.144,40.63 20.4,77.722 Z m 0,0"
           fill="#453a62"
           id="path11" /><path
           d="M 26.586,77.722 51.33,40.63 26.586,3.537 H 45.144 L 94.63,77.722 H 76.074 L 60.61,54.54 45.143,77.722 Z m 0,0"
           fill="#5e5086"
           id="path12" /><path
           d="M 86.384,56.085 78.136,43.72 h 28.868 V 56.086 H 86.384 Z M 74.012,37.54 65.764,25.175 h 41.24 V 37.54 Z m 0,0"
           fill="#8f4e8b"
           id="path13" /></g></g><rect
       style="font-variation-settings:normal;display:inline;fill:none;stroke:#000000;stroke-width:1.99928;stroke-linecap:butt;stroke-linejoin:miter;stroke-miterlimit:4;stroke-dasharray:none;stroke-dashoffset:0;stroke-opacity:1;filter:url(#filter1);stop-color:#000000"
       id="rect1"
       width="48.000725"
       height="48.000725"
       x="0.99963778"
       y="0.99963778"
       rx="6.9104829"
       ry="6.9104829"
       inkscape:label="Shadow" /><rect
       style="font-variation-settings:normal;display:inline;fill:none;stroke:#453a62;stroke-width:1.99928;stroke-linecap:butt;stroke-linejoin:miter;stroke-miterlimit:4;stroke-dasharray:none;stroke-dashoffset:0;stroke-opacity:1;stop-color:#000000"
       id="rect1-18-1"
       width="48.000725"
       height="48.000725"
       x="0.99963778"
       y="0.99963778"
       rx="6.9104829"
       ry="6.9104829"
       inkscape:label="Frame" /></g><style
     type="text/css"
     id="style1">
	.st0{fill:url(#ICON_00000088831890668800157600000002638584723837204667_);}
</style><style
     id="style1-7">.st10{fill:#333}</style><style
     type="text/css"
     id="style1-1">
	.st0{fill:url(#ICON_00000088831890668800157600000002638584723837204667_);}
</style><style
     id="style1-7-2">.st10{fill:#333}</style><style
     type="text/css"
     id="style1-8">
	.st0{fill:url(#ICON_00000088831890668800157600000002638584723837204667_);}
</style><style
     id="style1-7-7">.st10{fill:#333}</style><style
     type="text/css"
     id="style1-1-4">
	.st0{fill:url(#ICON_00000088831890668800157600000002638584723837204667_);}
</style><style
     id="style1-7-2-2">.st10{fill:#333}</style></svg>
