<?xml version="1.0" encoding="UTF-8" standalone="no"?>
<!-- Created with Inkscape (http://www.inkscape.org/) -->

<svg
   width="50mm"
   height="50mm"
   viewBox="0 0 50 50"
   version="1.1"
   id="svg1"
   xml:space="preserve"
   sodipodi:docname="Haxe_Box.svg"
   inkscape:version="1.4.2 (f4327f4, 2025-05-13)"
   xmlns:inkscape="http://www.inkscape.org/namespaces/inkscape"
   xmlns:sodipodi="http://sodipodi.sourceforge.net/DTD/sodipodi-0.dtd"
   xmlns:xlink="http://www.w3.org/1999/xlink"
   xmlns="http://www.w3.org/2000/svg"
   xmlns:svg="http://www.w3.org/2000/svg"><sodipodi:namedview
     id="namedview1"
     pagecolor="#ffffff"
     bordercolor="#000000"
     borderopacity="0.25"
     inkscape:showpageshadow="2"
     inkscape:pageopacity="0.0"
     inkscape:pagecheckerboard="0"
     inkscape:deskcolor="#d1d1d1"
     inkscape:document-units="mm"
     inkscape:zoom="6.175375"
     inkscape:cx="94.488189"
     inkscape:cy="94.488189"
     inkscape:window-width="2560"
     inkscape:window-height="1369"
     inkscape:window-x="-8"
     inkscape:window-y="-8"
     inkscape:window-maximized="1"
     inkscape:current-layer="svg1" /><defs
     id="defs1"><linearGradient
       id="linearGradient15"><stop
         style="stop-color:#fab20b;stop-opacity:1;"
         offset="0"
         id="stop15" /><stop
         style="stop-color:#f1471d;stop-opacity:0.50196081;"
         offset="1"
         id="stop16" /></linearGradient><linearGradient
       id="linearGradient2"><stop
         style="stop-color:#f1471d;stop-opacity:1;"
         offset="0"
         id="stop2" /><stop
         style="stop-color:#7f7f7f;stop-opacity:0;"
         offset="0.30000001"
         id="stop4" /><stop
         style="stop-color:#7f7f7f;stop-opacity:0;"
         offset="0.69999999"
         id="stop17" /><stop
         style="stop-color:#fab20b;stop-opacity:1;"
         offset="1"
         id="stop3" /></linearGradient><linearGradient
       xlink:href="#linearGradient2"
       id="linearGradient9"
       x1="25.000004"
       y1="2.3639462"
       x2="25.000004"
       y2="47.63604"
       gradientUnits="userSpaceOnUse" /><radialGradient
       xlink:href="#linearGradient15"
       id="radialGradient16"
       cx="25"
       cy="25"
       fx="25"
       fy="25"
       r="25"
       gradientUnits="userSpaceOnUse"
       gradientTransform="translate(-2.4265137e-6)" /></defs><g
     id="layer1"><rect
       style="font-variation-settings:normal;opacity:1;vector-effect:none;fill:#000000;fill-opacity:1;stroke:none;stroke-width:0.260698;stroke-linecap:butt;stroke-linejoin:miter;stroke-miterlimit:4;stroke-dasharray:none;stroke-dashoffset:0;stroke-opacity:1;-inkscape-stroke:none;stop-color:#000000;stop-opacity:1"
       id="rect1"
       width="50"
       height="50"
       x="0"
       y="0"
       rx="7.1983109"
       ry="7.1983109" /><rect
       style="font-variation-settings:normal;vector-effect:none;fill:url(#radialGradient16);stroke:none;stroke-width:0.260698;stroke-linecap:butt;stroke-linejoin:miter;stroke-miterlimit:4;stroke-dasharray:none;stroke-dashoffset:0;stroke-opacity:1;-inkscape-stroke:none;stop-color:#000000"
       id="rect1-18"
       width="50"
       height="50"
       x="0"
       y="-4.4408921e-16"
       rx="7.1983109"
       ry="7.1983109" /><rect
       style="fill:none;fill-opacity:1;stroke:url(#linearGradient9);stroke-width:1;stroke-dasharray:none"
       id="rect1-1"
       width="45.037273"
       height="45.037273"
       x="2.4813633"
       y="2.4813633"
       rx="6.4838462"
       ry="6.4838462" /></g><g
     transform="matrix(0.02936063,0,0,-0.02936063,6.6306393,56.697648)"
     id="g13"><path
       d="M 625.646,1548.821 269.3,1588.285 0,1705.233 H 312.812 L 625.646,1548.8"
       fill="#fbc707"
       id="path1" /><path
       d="m 625.646,1548.821 364.507,31.304 261.139,125.108 H 938.458 L 625.646,1548.8"
       fill="#fbc707"
       id="path2" /><path
       d="M 625.646,610.373 965.671,598.132 1251.292,453.961 H 938.458 L 625.646,610.4"
       fill="#f68712"
       id="path3" /><path
       d="M 625.646,610.373 H 282.901 L 0,453.962 H 312.812 L 625.646,610.4"
       fill="#f25c19"
       id="path4" /><path
       d="M 156.406,1079.592 V 750.464 L 0,453.962 V 766.774 L 156.406,1079.6"
       fill="#fff200"
       id="path5" /><path
       d="M 156.406,1079.592 130.569,1406.032 0,1705.233 v -312.81 L 156.406,1079.6"
       fill="#fff200"
       id="path6" /><path
       d="m 1094.859,1079.592 34.024,342.761 122.409,282.88 v -312.81 L 1094.859,1079.6"
       fill="#f1471d"
       id="path7" /><path
       d="m 1094.859,1079.592 28.583,-367.211 127.849,-258.419 V 766.774 L 1094.859,1079.6"
       fill="#f1471d"
       id="path8" /><path
       d="M 0,1705.233 625.646,1548.821 524.999,1150.333 156.406,1079.592 0,1705.2"
       fill="#fab20b"
       id="path9" /><path
       d="m 1251.292,1705.233 -156.433,-625.641 -420.25,76.2 -48.964,393.048 625.647,156.36"
       fill="#f47216"
       id="path10" /><path
       d="m 1251.292,453.962 -625.646,156.411 70.725,414.8 398.488,54.388 L 1251.292,454"
       fill="#f25c19"
       id="path11" /><path
       d="m 0,453.962 156.406,625.63 376.753,-84.31 L 625.646,610.374 0,454"
       fill="#f89c0e"
       id="path12" /><path
       d="M 625.646,1548.821 156.406,1079.592 625.646,610.373 1094.859,1079.592 625.646,1548.8"
       fill="#f68712"
       id="path13" /></g></svg>
