<?xml version="1.0" encoding="UTF-8" standalone="no"?>
<svg
   height="50"
   width="50"
   version="1.1"
   id="svg83"
   xml:space="preserve"
   xmlns:xlink="http://www.w3.org/1999/xlink"
   xmlns="http://www.w3.org/2000/svg"
   xmlns:svg="http://www.w3.org/2000/svg"><defs
     id="defs87"><linearGradient
       id="linearGradient2306"
       gradientTransform="rotate(-90,10.536207,85.463776)"
       gradientUnits="userSpaceOnUse"
       x1="18.000002"
       x2="78.000175"
       y1="47.999897"
       y2="47.999897"><stop
         offset="0"
         stop-color="#bababa"
         id="stop2302"
         style="stop-color:#343434;stop-opacity:1;" /><stop
         offset="1"
         stop-color="#d2d2d2"
         id="stop2304"
         style="stop-color:#4d4d4d;stop-opacity:1;" /></linearGradient><linearGradient
       xlink:href="#linearGradient2306"
       id="linearGradient1062"
       x1="11.768724"
       y1="1.7285166"
       x2="11.768724"
       y2="22.457947"
       gradientUnits="userSpaceOnUse" /><filter
       style="color-interpolation-filters:sRGB"
       id="filter2041"
       x="-0.025955865"
       y="-0.028131641"
       width="1.0519117"
       height="1.0562633"><feGaussianBlur
         stdDeviation="0.61895654"
         id="feGaussianBlur2043" /></filter></defs><linearGradient
     id="a"
     gradientUnits="userSpaceOnUse"
     x1="48"
     x2="48"
     y1="90"
     y2="5.9877172"><stop
       offset="0"
       stop-color="#ebebeb"
       id="stop2"
       style="stop-color:#585858;stop-opacity:1;" /><stop
       offset="1"
       stop-color="#fafafa"
       id="stop4"
       style="stop-color:#818181;stop-opacity:1;" /></linearGradient><linearGradient
     id="b"
     gradientTransform="matrix(1.0058652,0,0,0.994169,100,0)"
     gradientUnits="userSpaceOnUse"
     x1="45.447727"
     x2="45.447727"
     y1="92.539597"
     y2="7.0165401"><stop
       offset="0"
       id="stop7" /><stop
       offset="1"
       stop-opacity=".588235"
       id="stop9" /></linearGradient><linearGradient
     id="c"
     gradientTransform="matrix(1.0238095,0,0,1.0119048,-1.142857,-98.071429)"
     gradientUnits="userSpaceOnUse"
     x1="32.251034"
     x2="32.251034"
     xlink:href="#b"
     y1="6.1317081"
     y2="90.238609" /><linearGradient
     id="d"
     gradientTransform="translate(0,-97)"
     gradientUnits="userSpaceOnUse"
     x1="32.251034"
     x2="32.251034"
     xlink:href="#b"
     y1="6.1317081"
     y2="90.238609" /><linearGradient
     id="e"><stop
       offset="0"
       stop-color="#fff"
       id="stop14" /><stop
       offset="1"
       stop-color="#fff"
       stop-opacity="0"
       id="stop16" /></linearGradient><radialGradient
     id="f"
     cx="48"
     cy="90.171875"
     gradientTransform="matrix(1.1573129,0,0,0.99590774,-7.551021,0.197132)"
     gradientUnits="userSpaceOnUse"
     r="42"
     xlink:href="#e" /><linearGradient
     id="g"
     gradientUnits="userSpaceOnUse"
     x1="36.357143"
     x2="36.357143"
     xlink:href="#e"
     y1="6"
     y2="63.893143"
     gradientTransform="matrix(0.91995739,0,0,0.98668795,0.48025569,1.1935087)" /><linearGradient
     id="h"
     gradientTransform="rotate(-90,-3.9432938,115.23127)"
     gradientUnits="userSpaceOnUse"
     x1="18.000002"
     x2="78.000175"
     y1="47.999897"
     y2="47.999897"><stop
       offset="0"
       stop-color="#bababa"
       id="stop21"
       style="stop-color:#818181;stop-opacity:1;" /><stop
       offset="1"
       stop-color="#d2d2d2"
       id="stop23"
       style="stop-color:#a7a7a7;stop-opacity:1;" /></linearGradient><clipPath
     id="i"><path
       d="m -88,6 c -3.324,0 -6,2.676 -6,6 v 72 c 0,3.324 2.676,6 6,6 h 72 c 3.324,0 6,-2.676 6,-6 V 12 c 0,-3.324 -2.676,-6 -6,-6 z m 31.84375,12 h 8.3125 c 1.180648,0 2.125,0.986683 2.125,2.1875 v 4.21875 c 2.111082,0.562476 4.123141,1.426616 5.96875,2.5 l 3,-3.03125 c 0.849111,-0.849025 2.196406,-0.866085 3.03125,-0.03125 l 5.875,5.875 c 0.834848,0.834847 0.817863,2.18214 -0.03125,3.03125 l -3.03125,3 c 1.073391,1.845617 1.937528,3.857672 2.5,5.96875 h 4.21875 c 1.200827,0 2.1875,0.944356 2.1875,2.125 v 8.3125 c 0,1.180653 -0.986672,2.125 -2.1875,2.125 h -4.21875 c -0.562472,2.111079 -1.426609,4.123134 -2.5,5.96875 l 3.03125,3 c 0.849106,0.849111 0.866094,2.196416 0.03125,3.03125 l -5.875,5.875 c -0.834844,0.834921 -2.182138,0.81786 -3.03125,-0.03125 l -3,-3.03125 c -1.84561,1.073389 -3.857669,1.937515 -5.96875,2.5 v 4.21875 c 0,1.200828 -0.944354,2.1875 -2.125,2.1875 h -8.3125 c -1.180646,0 -2.125,-0.986673 -2.125,-2.1875 v -4.21875 c -2.111081,-0.562485 -4.123141,-1.426613 -5.96875,-2.5 l -3,3.03125 c -0.849114,0.849022 -2.196407,0.866084 -3.03125,0.03125 l -5.875,-5.875 c -0.417421,-0.417418 -0.6298,-0.981833 -0.625,-1.53125 0.0047,-0.549422 0.231693,-1.075441 0.65625,-1.5 l 3.03125,-3 c -1.073391,-1.845614 -1.937528,-3.857673 -2.5,-5.96875 h -4.21875 c -1.200828,0 -2.1875,-0.944347 -2.1875,-2.125 v -8.3125 c 0,-1.180643 0.986672,-2.125 2.1875,-2.125 h 4.21875 c 0.562472,-2.111076 1.426609,-4.123135 2.5,-5.96875 l -3.03125,-3 c -0.849107,-0.84911 -0.866093,-2.196403 -0.03125,-3.03125 l 5.875,-5.875 c 0.834843,-0.834932 2.182137,-0.817858 3.03125,0.03125 l 3,3.03125 c 1.845609,-1.073383 3.85767,-1.937533 5.96875,-2.5 V 20.1875 c 0,-1.200817 0.944355,-2.1875 2.125,-2.1875 z M -52,38.9375 c -5.006511,0 -9.0625,4.055982 -9.0625,9.0625 0,5.006505 4.055989,9.0625 9.0625,9.0625 5.00651,0 9.0625,-4.055995 9.0625,-9.0625 0,-5.00652 -4.05599,-9.0625 -9.0625,-9.0625 z"
       id="path26" /></clipPath><filter
     id="j"
     color-interpolation-filters="sRGB"
     height="1.3213328"
     width="1.3213336"
     x="-0.16066687"
     y="-0.16066641"><feGaussianBlur
       stdDeviation="3.6000051"
       id="feGaussianBlur29" /></filter><clipPath
     id="k"><rect
       height="84"
       rx="6"
       width="84"
       x="6"
       y="6"
       id="rect32" /></clipPath><filter
     id="l"
     color-interpolation-filters="sRGB"
     height="1.3915758"
     width="1.3915758"
     x="-0.19578789"
     y="-0.19578789"><feGaussianBlur
       stdDeviation="5.28"
       id="feGaussianBlur35" /></filter><linearGradient
     id="m"
     gradientUnits="userSpaceOnUse"
     x1="48"
     x2="48"
     xlink:href="#e"
     y1="20.220806"
     y2="138.66119" /><g
     id="g79"
     transform="matrix(0.5952381,0,0,0.5952381,-3.5714286,-3.5714286)"><rect
       fill="url(#a)"
       height="84"
       rx="10.709455"
       width="84"
       x="6"
       y="6"
       id="rect53"
       style="fill:url(#a)"
       ry="10.709455" /><path
       id="path880"
       d="M 11.999892,1.7616995 A 1.967,1.967 0 0 0 10.629694,2.316762 C 9.4327003,3.4733651 7.6353569,5.2299004 5.9447743,6.9390717 l -0.00482,0.0012 0.00361,0.0012 C 3.6167196,9.2939794 1.4994585,11.551998 1.4994585,11.999652 c 0,0.999999 5.0003783,0.999911 5.0003783,1.99991 0,0.999999 -2.4995871,0.500235 -2.4995871,1.500234 0,0.999999 4.9991742,1.500793 4.9991742,2.500792 0,0.999999 -1.4993527,0.99903 -0.9993532,1.499029 0.4999995,0.5 1.4995881,0.500558 2.4995873,1.000558 0.999999,0.499999 0.795225,1.99991 1.795224,1.99991 0.999999,0 2.705477,-0.500235 2.705477,-1.500234 0,-0.999999 -1.000557,-0.500235 -1.000557,-1.500234 0,-0.999999 3.999821,-1.499588 3.999821,-2.499587 0,-0.999999 -1.99991,-0.500235 -1.99991,-1.500234 0,-0.999999 6.500612,-2.500145 6.500612,-3.500144 0,-0.548443 -3.150759,-3.7925894 -6.00214,-6.6198122 l 0.0024,-0.00241 h -0.0036 C 15.324956,4.2153575 14.198745,3.1174557 13.370089,2.316762 A 1.967,1.967 0 0 0 11.999892,1.7616995 Z m 9.499876,14.2377735 c -0.8,0 -1.333234,0.667558 -1.500234,1.000557 0.167,0.333 0.700234,1.000558 1.500234,1.000558 0.799999,0 1.000557,-0.667558 1.000557,-1.000558 0,-0.332999 -0.200558,-1.000557 -1.000557,-1.000557 z M 4.2603223,18.565282 c -0.2385283,0.0028 -0.4881613,0.05635 -0.7260361,0.193851 -0.6929993,0.399999 -0.5332321,1.076381 -0.3672322,1.365381 0.1669998,0.289 0.6733821,0.766028 1.3653814,0.366028 C 5.2254347,20.090543 5.355122,19.24672 5.333122,18.874721 5.1290285,18.739533 4.7156947,18.559993 4.2603223,18.565282 Z m 14.2401817,0.934335 a 0.500279,0.500279 0 0 0 0,1.000558 0.500279,0.500279 0 0 0 0,-1.000558 z"
       style="fill:url(#linearGradient1062);fill-opacity:1"
       transform="matrix(2.7252001,0,0,2.7252001,15.39305,14.619329)" /><path
       id="path315"
       clip-path="none"
       style="font-variation-settings:normal;opacity:1;vector-effect:none;fill:#000000;fill-opacity:1;fill-rule:nonzero;stroke:none;stroke-width:2.7252;stroke-linecap:butt;stroke-linejoin:miter;stroke-miterlimit:4;stroke-dasharray:none;stroke-dashoffset:0;stroke-opacity:1;-inkscape-stroke:none;filter:url(#filter2041);stop-color:#000000;stop-opacity:1"
       d="m 48.095156,19.420312 a 5.3604685,5.3604685 0 0 0 -3.734063,1.512657 C 41.099049,24.08494 36.20092,28.871858 31.59375,33.529687 l -0.01312,0.0033 0.0098,0.0033 c -6.341129,6.411026 -12.111094,12.564585 -12.111094,13.784531 0,0.118254 0.03622,0.229533 0.08531,0.337969 0.715744,-1.747081 6.120476,-7.489289 12.025782,-13.459688 l -0.0098,-0.0033 0.01312,-0.0033 c 4.607167,-4.657827 9.505303,-9.444751 12.767343,-12.596719 a 5.3604686,5.3604686 0 0 1 3.734063,-1.512656 5.3604686,5.3604686 0 0 1 3.734062,1.512656 c 2.258249,2.182046 5.327411,5.174058 8.521407,8.340938 h 0.0098 l -0.0066,0.0066 c 7.328988,7.266894 15.376644,15.537567 16.268437,17.708906 0.05351,-0.112187 0.08859,-0.223336 0.08859,-0.331406 0,-1.494616 -8.586455,-10.335572 -16.357031,-18.040312 l 0.0066,-0.0066 h -0.0098 C 57.156563,26.106823 54.087468,23.115017 51.829218,20.932969 A 5.3604685,5.3604685 0 0 0 48.095156,19.420312 Z M 33.034219,53.210625 c -0.711744,2.13736 -6.739688,1.084339 -6.739688,3.64875 0,0.100057 0.02368,0.198788 0.05906,0.295312 0.606903,-2.226734 6.752812,-1.130061 6.752812,-3.720937 0,-0.07888 -0.05002,-0.148683 -0.07219,-0.223125 z m 26.013749,4.045781 c -0.0351,0.08989 -0.0525,0.178596 -0.0525,0.265781 0,2.568145 4.836527,1.508787 5.394375,3.658594 0.01823,-0.0777 0.05578,-0.152986 0.05578,-0.232969 0,-2.580088 -4.877421,-1.50145 -5.397657,-3.691406 z m 14.93625,0.964687 c -2.180157,0 -3.633329,1.819232 -4.088437,2.726719 0.04644,0.09259 0.146354,0.222733 0.213281,0.331406 0.589024,-0.956434 1.917443,-2.395312 3.875156,-2.395312 1.957194,0 2.566936,1.438861 2.6775,2.395312 0.0126,-0.108956 0.04922,-0.238599 0.04922,-0.331406 0,-0.907487 -0.546563,-2.726719 -2.72672,-2.726719 z m -34.118437,5.952188 c -0.439131,2.121218 -3.600734,2.303798 -2.812031,3.4125 0.584721,-0.697916 2.864531,-1.211989 2.864531,-3.248438 0,-0.05654 -0.04102,-0.10867 -0.0525,-0.164062 z m -12.8625,1.040156 c -0.650036,0.0076 -1.330338,0.153568 -1.978594,0.528281 -1.225983,0.707638 -1.466598,1.72818 -1.365,2.575782 0.08493,-0.677823 0.447332,-1.383292 1.365,-1.912969 0.648255,-0.374716 1.328558,-0.52073 1.978594,-0.528281 1.221034,-0.01418 2.325609,0.457437 2.890781,0.823593 0.01834,-0.229787 0.04284,-0.473588 0.03281,-0.643125 -0.556194,-0.368413 -1.682614,-0.857695 -2.923594,-0.843281 z m 38.807344,2.54625 a 1.3633605,1.3633605 0 0 0 -1.227188,1.699687 1.3633604,1.3633604 0 0 1 1.227188,-1.036874 1.3633604,1.3633604 0 0 1 1.227187,1.036874 1.3633605,1.3633605 0 0 0 -1.227187,-1.699687 z M 53.584687,68.265 c -0.0085,0.05315 -0.03937,0.103294 -0.03937,0.1575 0,2.610347 2.476488,1.508679 2.687344,3.802968 0.02034,-0.123526 0.03937,-0.247648 0.03937,-0.377344 0,-2.537182 -2.361233,-1.534758 -2.687344,-3.583124 z" /></g></svg>
