<?xml version="1.0" encoding="UTF-8" standalone="no"?>
<!-- Created with Inkscape (http://www.inkscape.org/) -->

<svg
   width="50mm"
   height="50mm"
   viewBox="0 0 50 50"
   version="1.1"
   id="svg1"
   xml:space="preserve"
   xmlns:xlink="http://www.w3.org/1999/xlink"
   xmlns="http://www.w3.org/2000/svg"
   xmlns:svg="http://www.w3.org/2000/svg"><defs
     id="defs1"><linearGradient
       id="linearGradient15"><stop
         style="stop-color:#f82ee7;stop-opacity:0.20351642;"
         offset="0"
         id="stop15" /><stop
         style="stop-color:#bc008d;stop-opacity:0.4989011;"
         offset="1"
         id="stop16" /></linearGradient><linearGradient
       id="linearGradient2"><stop
         style="stop-color:#f82ee7;stop-opacity:1;"
         offset="0"
         id="stop2" /><stop
         style="stop-color:#f82ee7;stop-opacity:0;"
         offset="0.30000001"
         id="stop4" /><stop
         style="stop-color:#bc008d;stop-opacity:0;"
         offset="0.69999999"
         id="stop17" /><stop
         style="stop-color:#bc008d;stop-opacity:1;"
         offset="1"
         id="stop3" /></linearGradient><linearGradient
       xlink:href="#linearGradient2"
       id="linearGradient9"
       x1="25.000004"
       y1="2.3639462"
       x2="25.000004"
       y2="47.63604"
       gradientUnits="userSpaceOnUse" /><radialGradient
       xlink:href="#linearGradient15"
       id="radialGradient16"
       cx="25"
       cy="25"
       fx="25"
       fy="25"
       r="25"
       gradientUnits="userSpaceOnUse"
       gradientTransform="translate(-2.4265137e-6)" /><linearGradient
       id="a"
       gradientUnits="userSpaceOnUse"
       x1="35.000011"
       x2="13.000004"
       y1="4.9474382"
       y2="43.052567"
       gradientTransform="matrix(0.85309962,0,0,0.85309962,4.5257225,4.5256086)"><stop
         offset="0"
         id="stop1"
         style="stop-color:#f10ac0;stop-opacity:1;" /><stop
         offset="1"
         id="stop2-8"
         style="stop-color:#c7009b;stop-opacity:1;" /></linearGradient><linearGradient
       xlink:href="#a"
       id="linearGradient2388"
       gradientUnits="userSpaceOnUse"
       gradientTransform="matrix(0.85309962,0,0,0.85309962,4.5257226,4.5256083)"
       x1="35.000011"
       y1="4.9474382"
       x2="13.000004"
       y2="43.052567" /><linearGradient
       xlink:href="#a"
       id="linearGradient2390"
       gradientUnits="userSpaceOnUse"
       gradientTransform="matrix(0.85309962,0,0,0.85309962,4.5254176,5.3786634)"
       x1="35.000011"
       y1="4.9474382"
       x2="13.000004"
       y2="43.052567" /></defs><g
     id="layer1"><rect
       style="font-variation-settings:normal;opacity:1;vector-effect:none;fill:#000000;fill-opacity:1;stroke:none;stroke-width:0.260698;stroke-linecap:butt;stroke-linejoin:miter;stroke-miterlimit:4;stroke-dasharray:none;stroke-dashoffset:0;stroke-opacity:1;-inkscape-stroke:none;stop-color:#000000;stop-opacity:1"
       id="rect1"
       width="50"
       height="50"
       x="0"
       y="0"
       rx="7.1983109"
       ry="7.1983109" /><rect
       style="font-variation-settings:normal;vector-effect:none;fill:url(#radialGradient16);stroke:none;stroke-width:0.260698;stroke-linecap:butt;stroke-linejoin:miter;stroke-miterlimit:4;stroke-dasharray:none;stroke-dashoffset:0;stroke-opacity:1;-inkscape-stroke:none;stop-color:#000000"
       id="rect1-18"
       width="50"
       height="50"
       x="0"
       y="-4.4408921e-16"
       rx="7.1983109"
       ry="7.1983109" /><rect
       style="fill:none;fill-opacity:1;stroke:url(#linearGradient9);stroke-width:1;stroke-dasharray:none"
       id="rect1-1"
       width="45.037273"
       height="45.037273"
       x="2.4813633"
       y="2.4813633"
       rx="6.4838462"
       ry="6.4838462" /><path
       d="m 21.865521,31.529581 c 0,0 -0.912816,0.530628 0.650062,0.709778 1.892175,0.215828 2.85959,0.185116 4.945417,-0.209008 0,0 0.549397,0.343801 1.315481,0.641532 -4.676692,2.003077 -10.584407,-0.116027 -6.911814,-1.1423 z m -0.57243,-2.615605 c 0,0 -1.022866,0.758407 0.540011,0.919643 2.022699,0.209008 3.61885,0.226081 6.382893,-0.306264 0,0 0.381334,0.387307 0.981917,0.599729 -5.65349,1.653306 -11.949366,0.129666 -7.904821,-1.213108 z m 4.817453,-4.436117 c 1.152538,1.326569 -0.30285,2.520055 -0.30285,2.520055 0,0 2.926132,-1.509984 1.5825,-3.402159 -1.254909,-1.763358 -2.217207,-2.639492 2.991819,-5.660317 0,0 -8.176958,2.041467 -4.271469,6.542421 z m 6.184973,8.985698 c 0,0 0.674801,0.557074 -0.743903,0.987037 -2.699207,0.818123 -11.23447,1.064669 -13.605233,0.03327 -0.851393,-0.371098 0.746461,-0.885517 1.248939,-0.993861 0.523802,-0.113464 0.82324,-0.09298 0.82324,-0.09298 -0.947794,-0.667124 -6.126108,1.311215 -2.630107,1.878526 9.534243,1.544962 17.379346,-0.69613 14.90621,-1.811984 z m -9.991503,-7.259024 c 0,0 -4.341423,1.031396 -1.537286,1.405908 1.184103,0.158685 3.543776,0.122 5.743067,-0.06227 1.796627,-0.150995 3.60008,-0.473471 3.60008,-0.473471 0,0 -0.633,0.272138 -1.091113,0.584373 -4.409674,1.160216 -12.926166,0.620203 -10.473505,-0.565605 2.072179,-1.003244 3.758757,-0.888929 3.758757,-0.888929 z m 7.787946,4.352513 c 4.482185,-2.328107 2.409153,-4.56579 0.963149,-4.264644 -0.354036,0.07422 -0.512711,0.137355 -0.512711,0.137355 0,0 0.132229,-0.206444 0.383041,-0.295172 2.861297,-1.004951 5.061439,2.96708 -0.923055,4.540196 0,0 0.06911,-0.06227 0.08957,-0.11772 z M 27.390194,13.056561 c 0,0 2.481666,2.482519 -2.354556,6.300141 -3.877337,3.062627 -0.883811,4.808922 -8.53e-4,6.804322 -2.264126,-2.042321 -3.924257,-3.840654 -2.810962,-5.513581 1.635392,-2.456076 6.16791,-3.647001 5.166371,-7.590882 z m -4.645981,23.811717 c 4.30133,0.27555 10.907733,-0.152712 11.064703,-2.188201 0,0 -0.301145,0.771202 -3.554866,1.383729 -3.671742,0.69101 -8.200848,0.610817 -10.886404,0.167196 0,0 0.550247,0.455555 3.376567,0.637266 z"
       fill="url(#a)"
       fill-rule="evenodd"
       id="path2"
       style="fill:url(#linearGradient2390);stroke-width:0.8531" /><path
       d="m 40.355054,26.143155 c 0.07081,-0.936704 0.892341,-1.642219 1.832456,-1.573969 0.940116,0.06824 1.646482,0.888075 1.575676,1.829898 -0.349771,4.71764 -2.476548,9.136697 -5.95293,12.361413 -3.47638,3.216186 -8.046433,5.007694 -12.78711,5.007694 -4.97954,0 -9.76287,-1.97919 -13.290437,-5.49396 -3.5190374,-3.523303 -5.5007864,-8.30066 -5.5007864,-13.274232 0,-4.97357 1.981749,-9.750926 5.5007864,-13.27423 3.527567,-3.5147697 8.310897,-5.4939597 13.290437,-5.4939597 0.942677,0 1.708759,0.764375 1.708759,1.706198 0,0.941823 -0.766082,1.706201 -1.708759,1.706201 -4.074402,0 -7.985864,1.6208867 -10.873607,4.4958327 -2.878357,2.883477 -4.5009524,6.790675 -4.5009524,10.859958 0,4.069285 1.6225954,7.976484 4.5009524,10.859958 2.887743,2.874948 6.799205,4.495836 10.873607,4.495836 3.878192,0 7.619035,-1.458801 10.463269,-4.094878 2.844233,-2.636077 4.578584,-6.25322 4.868639,-10.11776 z M 32.172975,11.401593 c -0.835183,-0.43764 -1.15595,-1.4698917 -0.71831,-2.3033697 0.438494,-0.833479 1.472451,-1.154243 2.306781,-0.716603 3.553162,1.8682877 6.422987,4.8285437 8.174401,8.4371557 0.414606,0.847127 0.06227,1.869994 -0.786558,2.28204 -0.847981,0.412048 -1.874259,0.05801 -2.288866,-0.789116 -1.434913,-2.960256 -3.774966,-5.374528 -6.687448,-6.910107 z"
       fill="url(#a)"
       fill-rule="evenodd"
       id="path2386"
       style="fill:url(#linearGradient2388);stroke-width:0.8531" /></g></svg>
