<?xml version="1.0" encoding="UTF-8" standalone="no"?>
<!-- Created with Inkscape (http://www.inkscape.org/) -->

<svg
   width="50mm"
   height="50mm"
   viewBox="0 0 50 50"
   version="1.1"
   id="svg1"
   xml:space="preserve"
   sodipodi:docname="Qt_Box.svg"
   inkscape:version="1.4.2 (f4327f4, 2025-05-13)"
   inkscape:export-filename="Cairo_Box.png"
   inkscape:export-xdpi="96"
   inkscape:export-ydpi="96"
   xmlns:inkscape="http://www.inkscape.org/namespaces/inkscape"
   xmlns:sodipodi="http://sodipodi.sourceforge.net/DTD/sodipodi-0.dtd"
   xmlns:xlink="http://www.w3.org/1999/xlink"
   xmlns="http://www.w3.org/2000/svg"
   xmlns:svg="http://www.w3.org/2000/svg"><sodipodi:namedview
     id="namedview1"
     pagecolor="#ffffff"
     bordercolor="#000000"
     borderopacity="0.25"
     inkscape:showpageshadow="2"
     inkscape:pageopacity="0.0"
     inkscape:pagecheckerboard="0"
     inkscape:deskcolor="#d1d1d1"
     inkscape:document-units="mm"
     inkscape:zoom="3.0929791"
     inkscape:cx="62.076074"
     inkscape:cy="92.305829"
     inkscape:window-width="2560"
     inkscape:window-height="1417"
     inkscape:window-x="2552"
     inkscape:window-y="-8"
     inkscape:window-maximized="1"
     inkscape:current-layer="layer1"><inkscape:page
       x="0"
       y="0"
       width="50"
       height="50"
       id="page1"
       margin="0"
       bleed="0" /></sodipodi:namedview><defs
     id="defs1"><linearGradient
       id="linearGradient24"
       gradientUnits="userSpaceOnUse"
       x1="35.000011"
       x2="13.000004"
       y1="4.9474382"
       y2="43.052567"
       gradientTransform="matrix(0.85309962,0,0,0.85309962,4.5257225,4.5256086)"><stop
         offset="0.0014949"
         id="stop20"
         style="stop-color:#050c13;stop-opacity:1;" /><stop
         offset="1"
         id="stop24"
         style="stop-color:#e76f00;stop-opacity:1;" /></linearGradient><linearGradient
       xlink:href="#linearGradient24"
       id="linearGradient1"
       x1="25"
       y1="7.0902283e-06"
       x2="25"
       y2="50.000031"
       gradientUnits="userSpaceOnUse"
       gradientTransform="matrix(0.98000001,0,0,0.98000001,0.50000019,0.50000019)" /><filter
       inkscape:collect="always"
       style="color-interpolation-filters:sRGB"
       id="filter1"
       x="-0.06882552"
       y="-0.06882552"
       width="1.137651"
       height="1.137651"><feGaussianBlur
         inkscape:collect="always"
         stdDeviation="0.9600145"
         id="feGaussianBlur1" /></filter><filter
       inkscape:collect="always"
       style="color-interpolation-filters:sRGB"
       id="filter31"
       x="-0.056541377"
       y="-0.041700543"
       width="1.1130828"
       height="1.0834011"><feGaussianBlur
         inkscape:collect="always"
         stdDeviation="6.0010637"
         id="feGaussianBlur31" /></filter><filter
       inkscape:collect="always"
       style="color-interpolation-filters:sRGB"
       id="filter34"
       x="-0.031894125"
       y="-0.096965672"
       width="1.0637882"
       height="1.1939313"><feGaussianBlur
         inkscape:collect="always"
         stdDeviation="0.34177958"
         id="feGaussianBlur34" /></filter></defs><g
     id="layer1"
     inkscape:label="JavaFX"><rect
       style="font-variation-settings:normal;display:inline;fill:url(#linearGradient1);stroke:none;stroke-width:0.98;stroke-linecap:butt;stroke-linejoin:miter;stroke-miterlimit:4;stroke-dasharray:none;stroke-dashoffset:0;stroke-opacity:1;stop-color:#000000"
       id="rect1-18"
       width="49"
       height="49"
       x="0.50000018"
       y="0.50000018"
       rx="7.0543447"
       ry="7.0543447"
       inkscape:label="Background" /><rect
       style="font-variation-settings:normal;display:inline;fill:none;stroke:#000000;stroke-width:1.99928;stroke-linecap:butt;stroke-linejoin:miter;stroke-miterlimit:4;stroke-dasharray:none;stroke-dashoffset:0;stroke-opacity:1;stop-color:#000000;filter:url(#filter1)"
       id="rect1"
       width="48.000725"
       height="48.000725"
       x="0.99963778"
       y="0.99963778"
       rx="6.9104829"
       ry="6.9104829"
       inkscape:label="Shadow" /><path
       id="path32"
       style="stroke-width:0.161434;fill:#000000;fill-opacity:1;filter:url(#filter34)"
       inkscape:label="Java"
       d="M 27.460185 30.855215 C 27.460185 30.855215 26.605873 30.936078 26.263983 31.835788 C 25.922094 32.735499 24.950166 37.709429 24.950166 37.709429 L 26.19181 37.709429 L 26.767413 34.876858 L 30.429528 34.876858 L 29.736755 33.797381 L 27.019573 33.761294 L 27.298464 32.285756 C 27.298464 32.285756 27.415463 31.925695 27.802339 31.934692 C 28.189214 31.943689 31.185118 31.952958 31.185118 31.952958 L 31.446188 30.855215 L 27.460185 30.855215 z M 10.417539 31.666939 L 10.417539 36.754249 C 10.417539 37.494583 10.367621 37.803917 10.247353 38.044454 C 10.107713 38.314371 9.807609 38.604775 9.4574593 38.784451 L 9.9078727 39.314611 C 10.367475 39.144944 10.788032 38.844426 11.04794 38.464573 C 11.308174 38.07471 11.386975 37.674538 11.386975 36.684304 L 11.386975 31.666939 L 10.417539 31.666939 z M 29.698441 32.685381 L 31.358868 34.996701 L 28.801179 37.709429 L 30.385422 37.709429 L 31.988823 35.963464 L 33.209973 37.709429 L 34.578143 37.709429 L 32.828614 35.174906 L 35.176021 32.685381 L 33.642566 32.685381 L 32.204896 34.169384 L 31.059928 32.685381 L 29.698441 32.685381 z M 13.97184 33.170544 C 13.318841 33.170544 12.746532 33.331697 12.281119 33.537202 L 12.414773 34.101666 C 12.781389 33.96703 13.255319 33.842378 13.720571 33.842378 C 14.365337 33.842378 14.643228 34.101419 14.643228 34.638509 L 14.643228 35.041698 L 14.320677 35.041698 C 12.754447 35.041698 12.047671 35.649126 12.047671 36.562679 C 12.047671 37.34983 12.5137 37.797195 13.390446 37.797195 C 13.954011 37.797195 14.374881 37.564728 14.767972 37.224265 L 14.839699 37.707201 L 15.555193 37.707201 L 15.555193 34.521785 C 15.555193 33.707675 15.09106 33.170544 13.97184 33.170544 z M 22.292682 33.170544 C 21.639037 33.170544 21.066929 33.331697 20.601516 33.537202 L 20.735615 34.101666 C 21.102231 33.96703 21.576891 33.842378 22.042304 33.842378 C 22.686102 33.842378 22.96407 34.101419 22.96407 34.638509 L 22.96407 35.041698 L 22.641964 35.041698 C 21.075573 35.041698 20.368958 35.649126 20.368958 36.562679 C 20.368958 37.34983 20.833936 37.797195 21.710843 37.797195 C 22.274893 37.797195 22.695199 37.564728 23.089259 37.224265 L 23.160987 37.707201 L 23.87648 37.707201 L 23.87648 34.521785 C 23.87648 33.707675 23.410772 33.170544 22.292682 33.170544 z M 16.092927 33.251628 L 17.461987 37.707201 L 18.599382 37.707201 C 19.252059 36.329364 19.717846 34.718738 19.976462 33.251628 L 19.01059 33.251628 C 18.858358 34.414435 18.554124 35.622686 18.125356 36.812611 L 17.936013 35.989749 L 17.085975 33.251628 L 16.092927 33.251628 z M 24.309964 33.256528 L 24.309964 33.614721 L 24.380801 33.614721 L 24.380801 33.331375 L 24.382137 33.331375 L 24.487278 33.614721 L 24.535839 33.614721 L 24.641871 33.331375 L 24.643208 33.331375 L 24.643208 33.614721 L 24.711817 33.614721 L 24.711817 33.256528 L 24.608903 33.256528 L 24.511336 33.510025 L 24.413769 33.256528 L 24.309964 33.256528 z M 23.96291 33.256974 L 23.96291 33.316673 L 24.069387 33.316673 L 24.069387 33.614721 L 24.143788 33.614721 L 24.143788 33.316673 L 24.250266 33.316673 L 24.250266 33.256974 L 23.96291 33.256974 z M 14.259196 35.622647 L 14.643228 35.622647 L 14.643228 36.678512 C 14.312773 36.964896 13.963401 37.125807 13.649735 37.125807 C 13.202887 37.125807 12.960526 36.857263 12.960526 36.427688 C 12.960526 35.962598 13.220209 35.622647 14.259196 35.622647 z M 22.579593 35.622647 L 22.96407 35.622647 L 22.96407 36.678512 C 22.632647 36.964896 22.283597 37.125807 21.970577 37.125807 C 21.523728 37.125807 21.281368 36.857263 21.281368 36.427688 C 21.281368 35.962598 21.541252 35.622647 22.579593 35.622647 z "
       transform="matrix(1.1599315,0,0,1.1599315,-0.8858663,-1.4209749)" /><g
       inkscape:label="Text"
       id="g1"
       transform="matrix(0.10406141,0,0,0.10406141,-8.8471007,23.484161)"><path
         d="m 24.069325,33.316561 h -0.106547 v -0.05973 h 0.287514 v 0.05973 h -0.106547 v 0.298329 h -0.07442 z m 0.573735,0.01485 h -0.0013 l -0.1059,0.283316 h -0.04859 l -0.105248,-0.283314 h -0.0013 v 0.283316 h -0.07071 v -0.35806 h 0.103802 l 0.09751,0.253289 0.09751,-0.253289 h 0.102833 v 0.35806 h -0.06845 v -0.283316 z m -9.999849,3.347004 c -0.330455,0.286384 -0.679797,0.447495 -0.993463,0.447495 -0.446848,0 -0.689322,-0.268465 -0.689322,-0.69804 0,-0.46509 0.259586,-0.805392 1.298573,-0.805392 h 0.384051 v 1.055937 z m 0.9121,1.028979 v -3.18541 c 0,-0.81411 -0.464283,-1.351361 -1.583503,-1.351361 -0.652999,0 -1.225443,0.161272 -1.690856,0.366777 l 0.13399,0.564211 c 0.366616,-0.134636 0.840585,-0.259424 1.305837,-0.259424 0.644766,0 0.922271,0.259424 0.922271,0.796514 v 0.402777 h -0.322222 c -1.56623,0 -2.272986,0.607636 -2.272986,1.521189 0,0.787151 0.465736,1.234645 1.342482,1.234645 0.563565,0 0.984584,-0.232626 1.377675,-0.573089 l 0.07151,0.483171 z m 3.044155,0 h -1.1373 l -1.369442,-4.455732 h 0.993463 l 0.849948,2.738077 0.189201,0.822666 c 0.428768,-1.189925 0.73307,-2.397934 0.885302,-3.560741 h 0.966019 c -0.258616,1.46711 -0.724514,3.077895 -1.377191,4.455732 z m 4.364683,-1.028979 c -0.331423,0.286384 -0.680765,0.447495 -0.993785,0.447495 -0.446849,0 -0.688999,-0.268465 -0.688999,-0.69804 0,-0.46509 0.259747,-0.805392 1.298088,-0.805392 h 0.384696 z m 0.912424,1.028979 v -3.18541 c 0,-0.81411 -0.465736,-1.351361 -1.583826,-1.351361 -0.653645,0 -1.225928,0.161272 -1.691341,0.366777 l 0.13399,0.564211 c 0.366616,-0.134636 0.841554,-0.259424 1.306967,-0.259424 0.643798,0 0.921625,0.259424 0.921625,0.796514 v 0.402777 h -0.322222 c -1.566391,0 -2.272663,0.607636 -2.272663,1.521189 0,0.787151 0.464768,1.234645 1.341675,1.234645 0.56405,0 0.984423,-0.232626 1.378483,-0.573089 l 0.07184,0.483171 z M 11.04776,38.46452 c -0.259908,0.379853 -0.680282,0.680604 -1.1398838,0.850271 l -0.4504,-0.530471 c 0.3501497,-0.179676 0.6500938,-0.469772 0.7897338,-0.739689 0.120268,-0.240537 0.170474,-0.549844 0.170474,-1.290178 V 31.66687 h 0.96941 v 5.017359 c 0,0.990234 -0.0791,1.390428 -0.339334,1.780291 z"
         fill="#ca3132"
         id="path7"
         style="stroke-width:0.161434;fill:#e76f00;fill-opacity:1"
         inkscape:label="Java"
         transform="matrix(11.146606,0,0,11.146606,76.505156,-239.33114)" /><path
         style="display:inline;opacity:1;fill:#5382a1;fill-opacity:1;stroke-width:3.77953;stroke-miterlimit:0;paint-order:stroke fill markers"
         d="m 354.61526,181 h 13.83962 l 6.41838,-31.57219 h 40.81686 l -7.72211,-12.03445 -30.28671,-0.40115 3.1089,-16.44709 c 0,0 1.30373,-4.01149 5.61608,-3.9112 4.31234,0.10029 37.70795,0.20058 37.70795,0.20058 l 2.90833,-12.23503 h -44.42719 c 0,0 -9.52728,0.90258 -13.33819,10.93129 C 365.44627,125.55948 354.61526,181 354.61526,181 Z"
         id="path1-8"
         sodipodi:nodetypes="cccccccscccsc"
         inkscape:label="F" /><path
         style="opacity:1;fill:#5382a1;fill-opacity:1;stroke-width:3.77953;stroke-miterlimit:0;paint-order:stroke fill markers"
         d="m 397.54222,181 h 17.65751 L 433.06998,161.54142 446.68542,181 h 15.24644 L 442.43059,152.74812 468.59775,125 h -17.0902 L 435.48105,141.54375 422.71658,125 h -15.17553 l 18.50848,25.76251 z"
         id="path2"
         sodipodi:nodetypes="ccccccccccccc"
         inkscape:label="x" /></g><path
       id="path1"
       d="M 162.44074 0.37406128 C 176.9201 57.396898 111.39495 74.6098 87.743337 110.12492 C 71.629301 134.31924 95.649836 160.31801 128.37964 189.84831 C 115.61691 161.0013 72.329612 135.75168 128.40106 91.470198 C 198.32444 36.26822 162.44074 0.37406128 162.44074 0.37406128 z M 205.70427 70.916453 C 205.70427 70.916453 87.470415 100.44739 143.94309 165.51793 C 160.60264 184.69839 139.56676 201.95639 139.56676 201.95639 C 139.56676 201.95639 181.86788 180.11993 162.44074 152.77447 C 144.29639 127.27315 130.3779 114.60308 205.70427 70.916453 z M 228.41405 187.18539 C 223.7538 186.96224 218.7287 187.65187 213.55738 189.46994 C 209.92311 190.76018 208.02451 193.73918 208.02451 193.73918 C 208.02451 193.73918 210.30941 192.8213 215.43499 191.75448 C 236.34693 187.39503 266.30514 219.75094 201.50642 253.42285 C 201.20667 254.22436 200.20709 255.12291 200.20709 255.12198 C 275.9313 235.2153 261.03578 188.74745 228.41405 187.18539 z M 84.623509 190.44801 C 76.362185 190.66497 57.027695 192.45782 34.542052 203.32712 C -0.90882885 220.4754 122.23467 228.27337 185.97867 211.50863 C 192.60581 206.98348 201.76343 203.06296 201.76343 203.06296 C 201.76343 203.06296 175.68237 207.72523 149.70442 209.91659 C 117.9176 212.57992 83.786919 213.09375 66.668432 210.80185 C 26.125479 205.38768 88.899887 190.47656 88.899887 190.47656 C 88.899887 190.47656 87.377283 190.37569 84.623509 190.44801 z M 74.293093 229.65647 C 15.791042 249.07337 106.84477 271.09421 188.59162 247.19033 C 179.90251 244.1267 174.37034 238.52335 174.37034 238.52335 C 134.41851 246.21639 111.33236 245.97294 82.096234 242.95679 C 59.488175 240.61835 74.293093 229.65647 74.293093 229.65647 z M 82.553142 267.47279 C 29.447571 282.31148 114.85426 312.97023 182.46619 283.99289 C 171.3921 279.68651 163.46165 274.71193 163.46165 274.71193 C 133.30113 280.42027 119.31705 280.86835 91.948324 277.74609 C 69.357022 275.14885 82.553142 267.47279 82.553142 267.47279 z M 48.22075 292.54564 C 25.398612 291.66635 -26.400624 314.46824 17.829195 321.63787 C 155.68193 343.99365 269.11866 311.57309 233.36151 295.44416 C 233.36151 295.44416 243.13363 303.48949 222.60988 309.71541 C 183.58338 321.53795 60.178144 325.10814 25.896486 310.1866 C 13.573112 304.82549 36.682042 297.38366 43.951511 295.82253 C 51.532835 294.17854 55.85969 294.4875 55.85969 294.4875 C 54.146584 293.2807 51.481056 292.67126 48.22075 292.54564 z M 255.24315 313.028 C 255.24315 313.028 250.89653 324.1859 203.84094 333.0463 C 150.75306 343.03681 85.270686 341.86928 46.435951 335.46649 C 46.436882 335.46556 54.389039 342.04747 95.26805 344.66891 C 157.46674 348.6504 252.98104 342.45869 255.24315 313.028 z "
       transform="matrix(0.07238411,0,0,0.07238411,15.743552,8.1104118)"
       style="fill:#000000;fill-opacity:1;filter:url(#filter31)"
       inkscape:label="Shadow" /><g
       id="g31"
       transform="matrix(0.07238411,0,0,0.07238411,15.743552,8.1104118)"
       inkscape:label="Java"><path
         d="m 82.553949,267.47252 c 0,0 -13.198429,7.67535 9.392873,10.27259 27.368728,3.12226 41.356568,2.6745 71.517088,-3.03384 0,0 7.92949,4.97199 19.00358,9.27837 -67.61193,28.97734 -153.019112,-1.67843 -99.913541,-16.51712"
         fill="#5382a1"
         id="path24" /><path
         d="m 74.292131,229.659 c 0,0 -14.803317,10.95773 7.804742,13.29617 29.236127,3.01615 52.324537,3.26284 92.276367,-4.4302 0,0 5.52587,5.60221 14.21498,8.66584 C 106.84137,271.09469 15.79008,249.0759 74.292131,229.659"
         fill="#5382a1"
         id="path25" /><path
         d="m 143.94182,165.5147 c 16.65955,19.18046 -4.37714,36.44044 -4.37714,36.44044 0,0 42.30144,-21.83726 22.8743,-49.18272 -18.14435,-25.50132 -32.05865,-38.17193 43.26772,-81.858558 0,0 -118.237551,29.530298 -61.76488,94.600838"
         fill="#e76f00"
         id="path26" /><path
         d="m 233.36401,295.44169 c 0,0 9.7671,8.04771 -10.75665,14.27363 -39.0265,11.82254 -162.432466,15.39258 -196.714124,0.47104 -12.323374,-5.36111 10.786444,-12.80094 18.055913,-14.36207 7.581324,-1.64399 11.913775,-1.33771 11.913775,-1.33771 -13.704844,-9.65446 -88.582517,18.95703 -38.034153,27.15089 137.852739,22.35578 251.292389,-10.06685 215.535239,-26.19578"
         fill="#5382a1"
         id="path27" /><path
         d="m 88.900887,190.47982 c 0,0 -62.772131,14.90944 -22.229178,20.32361 17.118487,2.2919 51.243751,1.77338 83.030571,-0.88995 25.97795,-2.19136 52.06296,-6.85056 52.06296,-6.85056 0,0 -9.16015,3.92285 -15.78729,8.448 -63.744,16.76474 -186.88558636,8.96559 -151.434706,-8.18269 29.980858,-14.49239 54.357643,-12.84841 54.357643,-12.84841"
         fill="#5382a1"
         id="path28" /><path
         d="m 201.50644,253.42231 c 64.79872,-33.67191 34.83834,-66.03031 13.9264,-61.67086 -5.12558,1.06682 -7.41096,1.99121 -7.41096,1.99121 0,0 1.90277,-2.98077 5.53704,-4.27101 41.37053,-14.54452 73.18714,42.89722 -13.35482,65.64771 0,9.3e-4 1.00259,-0.89554 1.30234,-1.69705"
         fill="#5382a1"
         id="path29" /><path
         d="m 162.43898,0.37143273 c 0,0 35.88655,35.89864727 -34.03683,91.10062527 -56.071445,44.281482 -12.78603,69.529602 -0.0233,98.376612 C 95.649047,160.31837 71.629731,134.32273 87.743767,110.12841 111.39538,74.613294 176.91834,57.394269 162.43898,0.37143273"
         fill="#e76f00"
         id="path30" /><path
         d="m 95.268305,344.66537 c 62.198695,3.98149 157.711825,-2.20905 159.973935,-31.63974 0,0 -4.34828,11.15694 -51.40387,20.01734 -53.08788,9.99051 -118.564304,8.82408 -157.399039,2.42129 9.31e-4,-9.3e-4 7.949963,6.57967 48.828974,9.20111"
         fill="#5382a1"
         id="path31" /></g><rect
       style="font-variation-settings:normal;display:inline;fill:none;stroke:#5382a1;stroke-width:1.99928;stroke-linecap:butt;stroke-linejoin:miter;stroke-miterlimit:4;stroke-dasharray:none;stroke-dashoffset:0;stroke-opacity:1;stop-color:#000000"
       id="rect1-18-1"
       width="48.000725"
       height="48.000725"
       x="0.99963778"
       y="0.99963778"
       rx="6.9104829"
       ry="6.9104829"
       inkscape:label="Frame" /></g><style
     type="text/css"
     id="style1">
	.st0{fill:url(#ICON_00000088831890668800157600000002638584723837204667_);}
</style><style
     id="style1-7">.st10{fill:#333}</style><style
     type="text/css"
     id="style1-1">
	.st0{fill:url(#ICON_00000088831890668800157600000002638584723837204667_);}
</style><style
     id="style1-7-2">.st10{fill:#333}</style></svg>
