<?xml version="1.0" encoding="UTF-8" standalone="no"?>
<!-- Created with Inkscape (http://www.inkscape.org/) -->

<svg
   width="50mm"
   height="50mm"
   viewBox="0 0 50 50"
   version="1.1"
   id="svg1"
   xml:space="preserve"
   sodipodi:docname="Java_Box.svg"
   inkscape:version="1.4.3 (0d15f75, 2025-12-25)"
   xmlns:inkscape="http://www.inkscape.org/namespaces/inkscape"
   xmlns:sodipodi="http://sodipodi.sourceforge.net/DTD/sodipodi-0.dtd"
   xmlns:xlink="http://www.w3.org/1999/xlink"
   xmlns="http://www.w3.org/2000/svg"
   xmlns:svg="http://www.w3.org/2000/svg"><sodipodi:namedview
     id="namedview1"
     pagecolor="#ffffff"
     bordercolor="#000000"
     borderopacity="0.25"
     inkscape:showpageshadow="2"
     inkscape:pageopacity="0.0"
     inkscape:pagecheckerboard="0"
     inkscape:deskcolor="#d1d1d1"
     inkscape:document-units="mm"
     inkscape:zoom="2.1870666"
     inkscape:cx="66.298851"
     inkscape:cy="137.39865"
     inkscape:window-width="2560"
     inkscape:window-height="1369"
     inkscape:window-x="-8"
     inkscape:window-y="-8"
     inkscape:window-maximized="1"
     inkscape:current-layer="svg1"><inkscape:page
       x="0"
       y="0"
       width="50"
       height="50"
       id="page1"
       margin="0"
       bleed="0" /></sodipodi:namedview><defs
     id="defs1"><linearGradient
       id="linearGradient26"
       gradientUnits="userSpaceOnUse"
       x1="35.000011"
       x2="13.000004"
       y1="4.9474382"
       y2="43.052567"
       gradientTransform="matrix(0.85309962,0,0,0.85309962,4.5257225,4.5256086)"><stop
         offset="0.0014949"
         id="stop21"
         style="stop-color:#634832;stop-opacity:1;" /><stop
         offset="1"
         id="stop26"
         style="stop-color:#ece0d1;stop-opacity:1;" /></linearGradient><linearGradient
       id="linearGradient25"
       gradientUnits="userSpaceOnUse"
       x1="35.000011"
       x2="13.000004"
       y1="4.9474382"
       y2="43.052567"
       gradientTransform="matrix(0.85309962,0,0,0.85309962,4.5257225,4.5256086)"><stop
         offset="0.0014949"
         id="stop24"
         style="stop-color:#634832;stop-opacity:1;" /><stop
         offset="1"
         id="stop25"
         style="stop-color:#ece0d1;stop-opacity:1;" /></linearGradient><linearGradient
       id="linearGradient23"
       gradientUnits="userSpaceOnUse"
       x1="35.000011"
       x2="13.000004"
       y1="4.9474382"
       y2="43.052567"
       gradientTransform="matrix(0.85309962,0,0,0.85309962,4.5257225,4.5256086)"><stop
         offset="0.0014949"
         id="stop22"
         style="stop-color:#6025ff;stop-opacity:1;" /><stop
         offset="1"
         id="stop23"
         style="stop-color:#0065c3;stop-opacity:1;" /></linearGradient><linearGradient
       id="linearGradient19"
       gradientUnits="userSpaceOnUse"
       x1="35.000011"
       x2="13.000004"
       y1="4.9474382"
       y2="43.052567"
       gradientTransform="matrix(0.85309962,0,0,0.85309962,4.5257225,4.5256086)"><stop
         offset="0"
         id="stop18"
         style="stop-color:#8d00e7;stop-opacity:1;" /><stop
         offset="1"
         id="stop19"
         style="stop-color:#7a5bff;stop-opacity:1;" /></linearGradient><linearGradient
       id="linearGradient10"
       gradientUnits="userSpaceOnUse"
       x1="35.000011"
       x2="13.000004"
       y1="4.9474382"
       y2="43.052567"
       gradientTransform="matrix(0.85309962,0,0,0.85309962,4.5257225,4.5256086)"><stop
         offset="0"
         id="stop9"
         style="stop-color:#8d00e7;stop-opacity:1;" /><stop
         offset="1"
         id="stop10"
         style="stop-color:#745dff;stop-opacity:1;" /></linearGradient><linearGradient
       id="linearGradient15"><stop
         style="stop-color:#38220f;stop-opacity:1;"
         offset="0"
         id="stop15" /><stop
         style="stop-color:#38220f;stop-opacity:1;"
         offset="1"
         id="stop16" /></linearGradient><linearGradient
       id="linearGradient2"><stop
         style="stop-color:#dbc1ac;stop-opacity:1;"
         offset="0"
         id="stop2" /><stop
         style="stop-color:#dbc1ac;stop-opacity:0;"
         offset="0.30000001"
         id="stop4" /><stop
         style="stop-color:#dbc1ac;stop-opacity:0;"
         offset="0.69999999"
         id="stop17" /><stop
         style="stop-color:#dbc1ac;stop-opacity:1;"
         offset="1"
         id="stop3" /></linearGradient><linearGradient
       xlink:href="#linearGradient2"
       id="linearGradient9"
       x1="25.000004"
       y1="2.3639462"
       x2="25.000004"
       y2="47.63604"
       gradientUnits="userSpaceOnUse" /><radialGradient
       xlink:href="#linearGradient15"
       id="radialGradient16"
       cx="25"
       cy="25"
       fx="25"
       fy="25"
       r="25"
       gradientUnits="userSpaceOnUse"
       gradientTransform="translate(-2.4265137e-6,-50)" /><linearGradient
       xlink:href="#linearGradient26"
       id="linearGradient2388"
       gradientUnits="userSpaceOnUse"
       gradientTransform="matrix(0.85309962,0,0,0.85309962,4.5257226,4.5256083)"
       x1="35.000011"
       y1="4.9474382"
       x2="13.000004"
       y2="43.052567" /><linearGradient
       xlink:href="#linearGradient25"
       id="linearGradient2390"
       gradientUnits="userSpaceOnUse"
       gradientTransform="matrix(0.85309962,0,0,0.85309962,4.5254176,5.3786634)"
       x1="35.000011"
       y1="4.9474382"
       x2="13.000004"
       y2="43.052567" /><linearGradient
       id="linearGradient26-8"
       gradientUnits="userSpaceOnUse"
       x1="35.000011"
       x2="13.000004"
       y1="4.9474382"
       y2="43.052567"
       gradientTransform="matrix(0.85309962,0,0,0.85309962,4.5257225,4.5256086)"><stop
         offset="0.0014949"
         id="stop21-8"
         style="stop-color:#44624a;stop-opacity:1;" /><stop
         offset="1"
         id="stop26-2"
         style="stop-color:#8ba888;stop-opacity:1;" /></linearGradient><linearGradient
       id="linearGradient15-1"><stop
         style="stop-color:#f1ebe1;stop-opacity:0.3019608;"
         offset="0"
         id="stop15-6" /><stop
         style="stop-color:#c0cfb2;stop-opacity:0.29803923;"
         offset="1"
         id="stop16-8" /></linearGradient><linearGradient
       id="linearGradient2-5"><stop
         style="stop-color:#8ba888;stop-opacity:1;"
         offset="0"
         id="stop2-7" /><stop
         style="stop-color:#44624a;stop-opacity:0;"
         offset="0.30000001"
         id="stop4-6" /><stop
         style="stop-color:#44624a;stop-opacity:0;"
         offset="0.69999999"
         id="stop17-1" /><stop
         style="stop-color:#8ba888;stop-opacity:1;"
         offset="1"
         id="stop3-8" /></linearGradient><linearGradient
       xlink:href="#linearGradient2-5"
       id="linearGradient9-2"
       x1="25.000004"
       y1="2.3639462"
       x2="25.000004"
       y2="47.63604"
       gradientUnits="userSpaceOnUse" /><radialGradient
       xlink:href="#linearGradient15-1"
       id="radialGradient16-9"
       cx="25"
       cy="25"
       fx="25"
       fy="25"
       r="25"
       gradientUnits="userSpaceOnUse"
       gradientTransform="translate(-2.4265137e-6)" /><linearGradient
       xlink:href="#linearGradient26-8"
       id="linearGradient2388-3"
       gradientUnits="userSpaceOnUse"
       gradientTransform="matrix(0.85309962,0,0,0.85309962,4.5257226,4.5256083)"
       x1="35.000011"
       y1="4.9474382"
       x2="13.000004"
       y2="43.052567" /><linearGradient
       xlink:href="#linearGradient26-8"
       id="linearGradient2390-3"
       gradientUnits="userSpaceOnUse"
       gradientTransform="matrix(0.85309962,0,0,0.85309962,4.5254176,5.3786634)"
       x1="35.000011"
       y1="4.9474382"
       x2="13.000004"
       y2="43.052567" /><linearGradient
       inkscape:collect="always"
       xlink:href="#linearGradient26"
       id="linearGradient27"
       x1="25.000002"
       y1="7.3503461"
       x2="25"
       y2="42.649654"
       gradientUnits="userSpaceOnUse"
       gradientTransform="matrix(0.84361208,0.53698628,-0.53698628,0.84361208,17.333833,-9.5150194)" /></defs><g
     id="layer1"><rect
       style="font-variation-settings:normal;vector-effect:none;fill:url(#radialGradient16);stroke:none;stroke-width:0.260698;stroke-linecap:butt;stroke-linejoin:miter;stroke-miterlimit:4;stroke-dasharray:none;stroke-dashoffset:0;stroke-opacity:1;-inkscape-stroke:none;stop-color:#000000"
       id="rect1-18"
       width="50"
       height="50"
       x="0"
       y="-50"
       rx="7.1983109"
       ry="7.1983109"
       transform="scale(1,-1)" /><rect
       style="fill:none;fill-opacity:1;stroke:url(#linearGradient9);stroke-width:1;stroke-dasharray:none"
       id="rect1-1"
       width="45.037273"
       height="45.037273"
       x="2.4813633"
       y="2.4813633"
       rx="6.4838462"
       ry="6.4838462" /><path
       d="m 21.865521,31.529581 c 0,0 -0.912816,0.530628 0.650062,0.709778 1.892175,0.215828 2.85959,0.185116 4.945417,-0.209008 0,0 0.549397,0.343801 1.315481,0.641532 -4.676692,2.003077 -10.584407,-0.116027 -6.911814,-1.1423 z m -0.57243,-2.615605 c 0,0 -1.022866,0.758407 0.540011,0.919643 2.022699,0.209008 3.61885,0.226081 6.382893,-0.306264 0,0 0.381334,0.387307 0.981917,0.599729 -5.65349,1.653306 -11.949366,0.129666 -7.904821,-1.213108 z m 4.817453,-4.436117 c 1.152538,1.326569 -0.30285,2.520055 -0.30285,2.520055 0,0 2.926132,-1.509984 1.5825,-3.402159 -1.254909,-1.763358 -2.217207,-2.639492 2.991819,-5.660317 0,0 -8.176958,2.041467 -4.271469,6.542421 z m 6.184973,8.985698 c 0,0 0.674801,0.557074 -0.743903,0.987037 -2.699207,0.818123 -11.23447,1.064669 -13.605233,0.03327 -0.851393,-0.371098 0.746461,-0.885517 1.248939,-0.993861 0.523802,-0.113464 0.82324,-0.09298 0.82324,-0.09298 -0.947794,-0.667124 -6.126108,1.311215 -2.630107,1.878526 9.534243,1.544962 17.379346,-0.69613 14.90621,-1.811984 z m -9.991503,-7.259024 c 0,0 -4.341423,1.031396 -1.537286,1.405908 1.184103,0.158685 3.543776,0.122 5.743067,-0.06227 1.796627,-0.150995 3.60008,-0.473471 3.60008,-0.473471 0,0 -0.633,0.272138 -1.091113,0.584373 -4.409674,1.160216 -12.926166,0.620203 -10.473505,-0.565605 2.072179,-1.003244 3.758757,-0.888929 3.758757,-0.888929 z m 7.787946,4.352513 c 4.482185,-2.328107 2.409153,-4.56579 0.963149,-4.264644 -0.354036,0.07422 -0.512711,0.137355 -0.512711,0.137355 0,0 0.132229,-0.206444 0.383041,-0.295172 2.861297,-1.004951 5.061439,2.96708 -0.923055,4.540196 0,0 0.06911,-0.06227 0.08957,-0.11772 z M 27.390194,13.056561 c 0,0 2.481666,2.482519 -2.354556,6.300141 -3.877337,3.062627 -0.883811,4.808922 -8.53e-4,6.804322 -2.264126,-2.042321 -3.924257,-3.840654 -2.810962,-5.513581 1.635392,-2.456076 6.16791,-3.647001 5.166371,-7.590882 z m -4.645981,23.811717 c 4.30133,0.27555 10.907733,-0.152712 11.064703,-2.188201 0,0 -0.301145,0.771202 -3.554866,1.383729 -3.671742,0.69101 -8.200848,0.610817 -10.886404,0.167196 0,0 0.550247,0.455555 3.376567,0.637266 z"
       fill="url(#a)"
       fill-rule="evenodd"
       id="path2"
       style="fill:url(#linearGradient2390);stroke-width:0.8531" /><path
       id="path1"
       style="opacity:1;fill:none;stroke:url(#linearGradient27);stroke-width:3.50006;stroke-linecap:round;stroke-miterlimit:4;stroke-dasharray:none;paint-order:normal"
       d="m 34.477101,10.110479 c 8.223222,5.234347 10.646185,16.143862 5.411838,24.367085 C 34.654593,42.700787 23.745078,45.123749 15.521855,39.889403 7.2986332,34.655057 4.8756697,23.745541 10.110016,15.522318 13.948311,9.4923094 20.090517,7.4756788 24.533631,7.3543365"
       sodipodi:nodetypes="csssc" /></g></svg>
