<?xml version="1.0" encoding="UTF-8" standalone="no"?>
<!-- Created with Inkscape (http://www.inkscape.org/) -->

<svg
   width="50mm"
   height="50mm"
   viewBox="0 0 50 50"
   version="1.1"
   id="svg1"
   xml:space="preserve"
   sodipodi:docname="Java_Box.svg"
   inkscape:version="1.4.3 (0d15f75, 2025-12-25)"
   xmlns:inkscape="http://www.inkscape.org/namespaces/inkscape"
   xmlns:sodipodi="http://sodipodi.sourceforge.net/DTD/sodipodi-0.dtd"
   xmlns:xlink="http://www.w3.org/1999/xlink"
   xmlns="http://www.w3.org/2000/svg"
   xmlns:svg="http://www.w3.org/2000/svg"><sodipodi:namedview
     id="namedview1"
     pagecolor="#ffffff"
     bordercolor="#000000"
     borderopacity="0.25"
     inkscape:showpageshadow="2"
     inkscape:pageopacity="0.0"
     inkscape:pagecheckerboard="0"
     inkscape:deskcolor="#d1d1d1"
     inkscape:document-units="mm"
     inkscape:zoom="1.5464896"
     inkscape:cx="-74.685273"
     inkscape:cy="172.97239"
     inkscape:window-width="2560"
     inkscape:window-height="1369"
     inkscape:window-x="-8"
     inkscape:window-y="-8"
     inkscape:window-maximized="1"
     inkscape:current-layer="g10"><inkscape:page
       x="0"
       y="0"
       width="50"
       height="50"
       id="page1"
       margin="0"
       bleed="0" /></sodipodi:namedview><defs
     id="defs1"><linearGradient
       id="linearGradient26"
       gradientUnits="userSpaceOnUse"
       x1="35.000011"
       x2="13.000004"
       y1="4.9474382"
       y2="43.052567"
       gradientTransform="matrix(0.85309962,0,0,0.85309962,4.5257225,4.5256086)"><stop
         offset="0.0014949"
         id="stop21"
         style="stop-color:#634832;stop-opacity:1;" /><stop
         offset="1"
         id="stop26"
         style="stop-color:#ece0d1;stop-opacity:1;" /></linearGradient><linearGradient
       id="linearGradient25"
       gradientUnits="userSpaceOnUse"
       x1="35.000011"
       x2="13.000004"
       y1="4.9474382"
       y2="43.052567"
       gradientTransform="matrix(0.85309962,0,0,0.85309962,4.5257225,4.5256086)"><stop
         offset="0.0014949"
         id="stop24"
         style="stop-color:#634832;stop-opacity:1;" /><stop
         offset="1"
         id="stop25"
         style="stop-color:#ece0d1;stop-opacity:1;" /></linearGradient><linearGradient
       id="linearGradient23"
       gradientUnits="userSpaceOnUse"
       x1="35.000011"
       x2="13.000004"
       y1="4.9474382"
       y2="43.052567"
       gradientTransform="matrix(0.85309962,0,0,0.85309962,4.5257225,4.5256086)"><stop
         offset="0.0014949"
         id="stop22"
         style="stop-color:#6025ff;stop-opacity:1;" /><stop
         offset="1"
         id="stop23"
         style="stop-color:#0065c3;stop-opacity:1;" /></linearGradient><linearGradient
       id="linearGradient19"
       gradientUnits="userSpaceOnUse"
       x1="35.000011"
       x2="13.000004"
       y1="4.9474382"
       y2="43.052567"
       gradientTransform="matrix(0.85309962,0,0,0.85309962,4.5257225,4.5256086)"><stop
         offset="0"
         id="stop18"
         style="stop-color:#8d00e7;stop-opacity:1;" /><stop
         offset="1"
         id="stop19"
         style="stop-color:#7a5bff;stop-opacity:1;" /></linearGradient><linearGradient
       id="linearGradient10"
       gradientUnits="userSpaceOnUse"
       x1="35.000011"
       x2="13.000004"
       y1="4.9474382"
       y2="43.052567"
       gradientTransform="matrix(0.85309962,0,0,0.85309962,4.5257225,4.5256086)"><stop
         offset="0"
         id="stop9"
         style="stop-color:#8d00e7;stop-opacity:1;" /><stop
         offset="1"
         id="stop10"
         style="stop-color:#745dff;stop-opacity:1;" /></linearGradient><linearGradient
       id="linearGradient15"><stop
         style="stop-color:#38220f;stop-opacity:1;"
         offset="0"
         id="stop15" /><stop
         style="stop-color:#38220f;stop-opacity:1;"
         offset="1"
         id="stop16" /></linearGradient><linearGradient
       id="linearGradient2"><stop
         style="stop-color:#d2b48c;stop-opacity:1;"
         offset="0"
         id="stop2" /><stop
         style="stop-color:#d2b48c;stop-opacity:0;"
         offset="0.30000001"
         id="stop4" /><stop
         style="stop-color:#d2b48c;stop-opacity:0;"
         offset="0.69999999"
         id="stop17" /><stop
         style="stop-color:#d2b48c;stop-opacity:1;"
         offset="1"
         id="stop3" /></linearGradient><linearGradient
       xlink:href="#linearGradient2"
       id="linearGradient9"
       x1="25.000004"
       y1="2.3639462"
       x2="25.000004"
       y2="47.63604"
       gradientUnits="userSpaceOnUse" /><radialGradient
       xlink:href="#linearGradient15"
       id="radialGradient16"
       cx="25"
       cy="25"
       fx="25"
       fy="25"
       r="25"
       gradientUnits="userSpaceOnUse"
       gradientTransform="translate(-2.4265137e-6,-50)" /><linearGradient
       xlink:href="#linearGradient26"
       id="linearGradient2388"
       gradientUnits="userSpaceOnUse"
       gradientTransform="matrix(0.85309962,0,0,0.85309962,4.5257226,4.5256083)"
       x1="35.000011"
       y1="4.9474382"
       x2="13.000004"
       y2="43.052567" /><linearGradient
       xlink:href="#linearGradient25"
       id="linearGradient2390"
       gradientUnits="userSpaceOnUse"
       gradientTransform="matrix(0.85309962,0,0,0.85309962,4.5254176,5.3786634)"
       x1="35.000011"
       y1="4.9474382"
       x2="13.000004"
       y2="43.052567" /><linearGradient
       id="linearGradient26-8"
       gradientUnits="userSpaceOnUse"
       x1="35.000011"
       x2="13.000004"
       y1="4.9474382"
       y2="43.052567"
       gradientTransform="matrix(0.85309962,0,0,0.85309962,4.5257225,4.5256086)"><stop
         offset="0.0014949"
         id="stop21-8"
         style="stop-color:#44624a;stop-opacity:1;" /><stop
         offset="1"
         id="stop26-2"
         style="stop-color:#8ba888;stop-opacity:1;" /></linearGradient><linearGradient
       id="linearGradient15-1"><stop
         style="stop-color:#f1ebe1;stop-opacity:0.3019608;"
         offset="0"
         id="stop15-6" /><stop
         style="stop-color:#c0cfb2;stop-opacity:0.29803923;"
         offset="1"
         id="stop16-8" /></linearGradient><linearGradient
       id="linearGradient2-5"><stop
         style="stop-color:#8ba888;stop-opacity:1;"
         offset="0"
         id="stop2-7" /><stop
         style="stop-color:#44624a;stop-opacity:0;"
         offset="0.30000001"
         id="stop4-6" /><stop
         style="stop-color:#44624a;stop-opacity:0;"
         offset="0.69999999"
         id="stop17-1" /><stop
         style="stop-color:#8ba888;stop-opacity:1;"
         offset="1"
         id="stop3-8" /></linearGradient><linearGradient
       xlink:href="#linearGradient2-5"
       id="linearGradient9-2"
       x1="25.000004"
       y1="2.3639462"
       x2="25.000004"
       y2="47.63604"
       gradientUnits="userSpaceOnUse" /><radialGradient
       xlink:href="#linearGradient15-1"
       id="radialGradient16-9"
       cx="25"
       cy="25"
       fx="25"
       fy="25"
       r="25"
       gradientUnits="userSpaceOnUse"
       gradientTransform="translate(-2.4265137e-6)" /><linearGradient
       xlink:href="#linearGradient26-8"
       id="linearGradient2388-3"
       gradientUnits="userSpaceOnUse"
       gradientTransform="matrix(0.85309962,0,0,0.85309962,4.5257226,4.5256083)"
       x1="35.000011"
       y1="4.9474382"
       x2="13.000004"
       y2="43.052567" /><linearGradient
       xlink:href="#linearGradient26-8"
       id="linearGradient2390-3"
       gradientUnits="userSpaceOnUse"
       gradientTransform="matrix(0.85309962,0,0,0.85309962,4.5254176,5.3786634)"
       x1="35.000011"
       y1="4.9474382"
       x2="13.000004"
       y2="43.052567" /><linearGradient
       id="linearGradient15-4"><stop
         style="stop-color:#6c2bd4;stop-opacity:0.5;"
         offset="0"
         id="stop15-8" /><stop
         style="stop-color:#4b0da6;stop-opacity:0.80227244;"
         offset="1"
         id="stop16-82" /></linearGradient><linearGradient
       id="linearGradient2-4"><stop
         style="stop-color:#8b54de;stop-opacity:1;"
         offset="0"
         id="stop2-5" /><stop
         style="stop-color:#8b54de;stop-opacity:0;"
         offset="0.30000001"
         id="stop4-5" /><stop
         style="stop-color:#7926f2;stop-opacity:0;"
         offset="0.70323098"
         id="stop17-17" /><stop
         style="stop-color:#7926f2;stop-opacity:1;"
         offset="0.99775267"
         id="stop3-1" /></linearGradient><linearGradient
       xlink:href="#linearGradient2-4"
       id="linearGradient9-6"
       x1="25.000004"
       y1="2.3639462"
       x2="25.000004"
       y2="47.63604"
       gradientUnits="userSpaceOnUse" /><radialGradient
       xlink:href="#linearGradient15-4"
       id="radialGradient16-1"
       cx="25"
       cy="25"
       fx="25"
       fy="25"
       r="25"
       gradientUnits="userSpaceOnUse"
       gradientTransform="translate(-1.4131944e-6)" /></defs><g
     id="layer1"
     inkscape:label="Java"><rect
       style="font-variation-settings:normal;vector-effect:none;fill:url(#radialGradient16);stroke:none;stroke-width:0.260698;stroke-linecap:butt;stroke-linejoin:miter;stroke-miterlimit:4;stroke-dasharray:none;stroke-dashoffset:0;stroke-opacity:1;-inkscape-stroke:none;stop-color:#000000"
       id="rect1-18"
       width="50"
       height="50"
       x="0"
       y="-50"
       rx="7.1983109"
       ry="7.1983109"
       transform="scale(1,-1)" /><rect
       style="fill:none;fill-opacity:1;stroke:url(#linearGradient9);stroke-width:1;stroke-dasharray:none"
       id="rect1-1"
       width="45.037273"
       height="45.037273"
       x="2.4813633"
       y="2.4813633"
       rx="6.4838462"
       ry="6.4838462" /><g
       transform="matrix(2.4198958,0,0,2.4198958,8.0607297,5.6031551)"
       id="g10"
       style="opacity:1"
       inkscape:label="Logo"><path
         fill="#a375e6"
         d="M 7.7359233,0.26658898 13.201003,3.39916 v 0 c 0.494184,0.283265 0.799,0.809326 0.799,1.378937 v 6.401556 0 c 0,0.566737 -0.301774,1.090598 -0.792032,1.374919 l -5.4650177,3.169389 v 0 c -0.4968829,0.288163 -1.110584,0.285814 -1.6052464,-0.0061 L 0.78153281,12.556512 v 0 C 0.29720681,12.270655 2.8082386e-6,11.750131 2.8082386e-6,11.187738 v -6.417702 0 C 2.8082386e-6,4.204746 0.30025081,3.681995 0.78853181,3.397154 L 6.1446439,0.27264498 v 0 c 0.4911558,-0.28651799 1.0979571,-0.28882699 1.5912794,-0.0061 z"
         id="path2-6"
         style="fill:#cd7f32;fill-opacity:1" /><path
         fill="#7f31f2"
         d="m 13.820308,11.963618 c -0.122408,0.222694 -0.302855,0.411473 -0.527302,0.541639 l -5.6646973,3.285192 c -0.427603,0.247984 -0.9508235,0.245954 -1.3765909,-0.0053 L 0.69787281,12.507134 C 0.44231581,12.3563 0.24476881,12.129205 0.12610681,11.862898 3.0944818,10.15749 5.3207629,8.8784343 6.8049505,8.0257303 Z"
         id="path4-7"
         style="fill:#a0522d;fill-opacity:1" /><ellipse
         style="display:inline;opacity:1;fill:#000000;fill-opacity:0.25276753;stroke:none;stroke-width:1.41528;stroke-linecap:round;stroke-linejoin:bevel"
         id="path3"
         cx="7"
         cy="8.0155706"
         rx="4.9588914"
         ry="5.1655116"
         inkscape:label="shade" /><path
         fill="#6247bc"
         d="m 13.706031,3.849436 c 0.170721,0.199327 0.293972,0.594117 0.293972,0.846482 v 6.565337 c 0,0.250537 -0.06386,0.491634 -0.179695,0.702363 -0.469966,0.335215 -2.808418,-0.977415 -7.0153575,-3.9378877 z"
         id="path6"
         style="fill:#8b4513;fill-opacity:1"
         inkscape:label="right" /><path
         d="m 6.0702598,9.6753714 c 0,0 -0.270838,0.1574398 0.1928773,0.2105948 0.5614196,0.06404 0.8484575,0.05493 1.4673349,-0.06201 0,0 0.1630094,0.102008 0.3903111,0.1903468 C 6.7331805,10.608623 4.980326,9.9798732 6.0700064,9.6753721 Z M 5.9004163,8.8993054 c 0,0 -0.3034904,0.2250239 0.1602246,0.2728639 0.6001469,0.062013 1.0737345,0.067082 1.8938427,-0.090871 0,0 0.113144,0.1149164 0.2913406,0.177943 C 6.5683998,9.7497872 4.7003756,9.2977119 5.9004163,8.8993054 Z M 7.3297836,7.5830828 c 0.3419649,0.393601 -0.089857,0.7477155 -0.089857,0.7477155 0,0 0.8682009,-0.4480213 0.4695372,-1.009441 -0.372339,-0.5231989 -0.6578586,-0.7831531 0.8876907,-1.6794501 0,0 -2.4261525,0.6057155 -1.2673709,1.9411756 z m 1.8351191,2.6661102 c 0,0 0.2002173,0.165287 -0.220721,0.29286 -0.8008709,0.242742 -3.3333347,0.315893 -4.0367543,0.0099 -0.2526134,-0.110107 0.2214795,-0.262738 0.3705677,-0.294885 0.1554152,-0.03367 0.2442602,-0.02759 0.2442602,-0.02759 C 5.2410392,10.031536 3.7046023,10.618521 4.7418869,10.786846 7.570754,11.245245 9.8984435,10.5803 9.1646493,10.249219 Z M 6.2003633,8.0953974 c 0,0 -1.2881263,0.3060214 -0.456122,0.4171413 0.3513305,0.047083 1.0514596,0.036198 1.7040025,-0.018475 0.53307,-0.044801 1.0681653,-0.1404817 1.0681653,-0.1404817 0,0 -0.1878149,0.080745 -0.3237397,0.173387 C 6.8842926,8.8712112 4.3573983,8.7109861 5.0851175,8.3591497 5.6999455,8.0614812 6.2003633,8.0953992 6.2003633,8.0953992 Z M 8.5110936,9.3868139 C 9.8409851,8.6960508 9.2259038,8.0321168 8.7968657,8.1214687 c -0.1050446,0.022022 -0.1521244,0.040754 -0.1521244,0.040754 0,0 0.039233,-0.061253 0.1136506,-0.087579 0.8489639,-0.298175 1.5017601,0.8803504 -0.273876,1.3471031 0,0 0.020505,-0.018474 0.026576,-0.034931 z M 7.7094634,4.1943151 c 0,0 0.7363252,0.7365783 -0.6986108,1.8692897 C 5.8604234,6.9723046 6.7486205,7.4904408 7.0105995,8.082488 6.3388196,7.4765191 5.8462488,6.9429429 6.1765701,6.4465754 6.6618007,5.7178429 8.0066261,5.3644883 7.7094634,4.1943151 Z M 6.3309729,11.259394 c 1.2762305,0.08176 3.2363905,-0.04531 3.2829641,-0.649252 0,0 -0.089351,0.22882 -1.0547503,0.41056 -1.0894279,0.205027 -2.4332408,0.181233 -3.2300615,0.04961 0,0 0.1632616,0.135165 1.0018477,0.189081 z"
         fill="url(#a)"
         fill-rule="evenodd"
         id="path2"
         style="fill:#d2b48c;fill-opacity:1;stroke-width:0.25312"
         inkscape:label="Icon" /><path
         id="path1"
         style="fill:none;fill-opacity:1;stroke:#d2b48c;stroke-width:1.31251;stroke-linecap:butt;stroke-miterlimit:4;stroke-dasharray:none;stroke-opacity:1;paint-order:normal"
         d="M 10.882068,10.733956 C 9.888577,12.359781 7.5857945,13.201441 5.4839218,12.494504 2.9946557,11.657271 1.6624324,8.9909488 2.4996664,6.5016825 3.7784668,2.6995404 9.0413033,2.2444422 10.998924,5.4876829"
         sodipodi:nodetypes="cssc"
         inkscape:label="border" /></g></g></svg>
