<?xml version="1.0" encoding="UTF-8" standalone="no"?>
<!-- Created with Inkscape (http://www.inkscape.org/) -->

<svg
   width="50mm"
   height="50mm"
   viewBox="0 0 50 50"
   version="1.1"
   id="svg1"
   xml:space="preserve"
   sodipodi:docname="JavaFX_Box.svg"
   inkscape:version="1.4.2 (f4327f4, 2025-05-13)"
   inkscape:export-filename="Cairo_Box.png"
   inkscape:export-xdpi="96"
   inkscape:export-ydpi="96"
   xmlns:inkscape="http://www.inkscape.org/namespaces/inkscape"
   xmlns:sodipodi="http://sodipodi.sourceforge.net/DTD/sodipodi-0.dtd"
   xmlns:xlink="http://www.w3.org/1999/xlink"
   xmlns="http://www.w3.org/2000/svg"
   xmlns:svg="http://www.w3.org/2000/svg"><sodipodi:namedview
     id="namedview1"
     pagecolor="#ffffff"
     bordercolor="#000000"
     borderopacity="0.25"
     inkscape:showpageshadow="2"
     inkscape:pageopacity="0.0"
     inkscape:pagecheckerboard="0"
     inkscape:deskcolor="#d1d1d1"
     inkscape:document-units="mm"
     inkscape:zoom="3.0929791"
     inkscape:cx="63.046013"
     inkscape:cy="88.102762"
     inkscape:window-width="2560"
     inkscape:window-height="1369"
     inkscape:window-x="-8"
     inkscape:window-y="-8"
     inkscape:window-maximized="1"
     inkscape:current-layer="layer1"><inkscape:page
       x="0"
       y="0"
       width="50"
       height="50"
       id="page1"
       margin="0"
       bleed="0" /></sodipodi:namedview><defs
     id="defs1"><linearGradient
       id="linearGradient24"
       gradientUnits="userSpaceOnUse"
       x1="35.000011"
       x2="13.000004"
       y1="4.9474382"
       y2="43.052567"
       gradientTransform="matrix(0.85309962,0,0,0.85309962,4.5257225,4.5256086)"><stop
         offset="0.0014949"
         id="stop20"
         style="stop-color:#050c13;stop-opacity:1;" /><stop
         offset="1"
         id="stop24"
         style="stop-color:#e66f00;stop-opacity:1;" /></linearGradient><linearGradient
       xlink:href="#linearGradient24"
       id="linearGradient1"
       x1="25"
       y1="7.0902283e-06"
       x2="25"
       y2="50.000031"
       gradientUnits="userSpaceOnUse"
       gradientTransform="matrix(0.98000001,0,0,0.98000001,0.50000019,0.50000019)" /><filter
       inkscape:collect="always"
       style="color-interpolation-filters:sRGB"
       id="filter1"
       x="-0.06882552"
       y="-0.06882552"
       width="1.137651"
       height="1.137651"><feGaussianBlur
         inkscape:collect="always"
         stdDeviation="0.9600145"
         id="feGaussianBlur1" /></filter><filter
       inkscape:collect="always"
       style="color-interpolation-filters:sRGB"
       id="filter31"
       x="-0.056541377"
       y="-0.041700543"
       width="1.1130828"
       height="1.0834011"><feGaussianBlur
         inkscape:collect="always"
         stdDeviation="6.0010637"
         id="feGaussianBlur31" /></filter><filter
       inkscape:collect="always"
       style="color-interpolation-filters:sRGB"
       id="filter34"
       x="-0.031894125"
       y="-0.096965672"
       width="1.0637882"
       height="1.1939313"><feGaussianBlur
         inkscape:collect="always"
         stdDeviation="0.34177958"
         id="feGaussianBlur34" /></filter></defs><g
     id="layer1"
     inkscape:label="JavaFX"><rect
       style="font-variation-settings:normal;display:inline;fill:url(#linearGradient1);stroke:none;stroke-width:0.98;stroke-linecap:butt;stroke-linejoin:miter;stroke-miterlimit:4;stroke-dasharray:none;stroke-dashoffset:0;stroke-opacity:1;stop-color:#000000"
       id="rect1-18"
       width="49"
       height="49"
       x="0.50000018"
       y="0.50000018"
       rx="7.0543447"
       ry="7.0543447"
       inkscape:label="Background" /><rect
       style="font-variation-settings:normal;display:inline;fill:none;stroke:#000000;stroke-width:1.99928;stroke-linecap:butt;stroke-linejoin:miter;stroke-miterlimit:4;stroke-dasharray:none;stroke-dashoffset:0;stroke-opacity:1;stop-color:#000000;filter:url(#filter1)"
       id="rect1"
       width="48.000725"
       height="48.000725"
       x="0.99963778"
       y="0.99963778"
       rx="6.9104829"
       ry="6.9104829"
       inkscape:label="Shadow" /><g
       inkscape:label="Text"
       id="g1"
       transform="matrix(0.12874587,0,0,0.12874587,-16.875995,19.738379)"><path
         id="path32"
         style="fill:#000000;fill-opacity:1;stroke-width:0.161434;filter:url(#filter34)"
         inkscape:label="Shadow"
         d="m 27.460185,30.855215 c 0,0 -0.854312,0.08086 -1.196202,0.980573 -0.341889,0.899711 -1.313817,5.873641 -1.313817,5.873641 h 1.241644 l 0.575603,-2.832571 h 3.662115 l -0.692773,-1.079477 -2.717182,-0.03609 0.278891,-1.475538 c 0,0 0.116999,-0.360061 0.503875,-0.351064 0.386875,0.009 3.382779,0.01827 3.382779,0.01827 l 0.26107,-1.097743 z m -17.042646,0.811724 v 5.08731 c 0,0.740334 -0.04992,1.049668 -0.170186,1.290205 -0.13964,0.269917 -0.439744,0.560321 -0.7898937,0.739997 l 0.4504134,0.53016 c 0.4596023,-0.169667 0.8801593,-0.470185 1.1400673,-0.850038 0.260234,-0.389863 0.339035,-0.790035 0.339035,-1.780269 v -5.017365 z m 19.280902,1.018442 1.660427,2.31132 -2.557689,2.712728 h 1.584243 l 1.603401,-1.745965 1.22115,1.745965 h 1.36817 l -1.749529,-2.534523 2.347407,-2.489525 h -1.533455 l -1.43767,1.484003 -1.144968,-1.484003 z M 13.97184,33.170544 c -0.652999,0 -1.225308,0.161153 -1.690721,0.366658 l 0.133654,0.564464 c 0.366616,-0.134636 0.840546,-0.259288 1.305798,-0.259288 0.644766,0 0.922657,0.259041 0.922657,0.796131 v 0.403189 h -0.322551 c -1.56623,0 -2.273006,0.607428 -2.273006,1.520981 0,0.787151 0.466029,1.234516 1.342775,1.234516 0.563565,0 0.984435,-0.232467 1.377526,-0.57293 l 0.07173,0.482936 h 0.715494 v -3.185416 c 0,-0.81411 -0.464133,-1.351241 -1.583353,-1.351241 z m 8.320842,0 c -0.653645,0 -1.225753,0.161153 -1.691166,0.366658 l 0.134099,0.564464 c 0.366616,-0.134636 0.841276,-0.259288 1.306689,-0.259288 0.643798,0 0.921766,0.259041 0.921766,0.796131 v 0.403189 h -0.322106 c -1.566391,0 -2.273006,0.607428 -2.273006,1.520981 0,0.787151 0.464978,1.234516 1.341885,1.234516 0.56405,0 0.984356,-0.232467 1.378416,-0.57293 l 0.07173,0.482936 h 0.715493 v -3.185416 c 0,-0.81411 -0.465708,-1.351241 -1.583798,-1.351241 z m -6.199755,0.08108 1.36906,4.455573 h 1.137395 c 0.652677,-1.377837 1.118464,-2.988463 1.37708,-4.455573 H 19.01059 c -0.152232,1.162807 -0.456466,2.371058 -0.885234,3.560983 l -0.189343,-0.822862 -0.850038,-2.738121 z m 8.217037,0.0049 v 0.358193 h 0.07084 v -0.283346 h 0.0013 l 0.105141,0.283346 h 0.04856 l 0.106032,-0.283346 h 0.0013 v 0.283346 h 0.06861 v -0.358193 h -0.102914 l -0.09757,0.253497 -0.09757,-0.253497 z m -0.347054,4.46e-4 v 0.0597 h 0.106477 v 0.298048 h 0.0744 v -0.298048 h 0.106478 v -0.0597 z m -9.703714,2.365673 h 0.384032 v 1.055865 c -0.330455,0.286384 -0.679827,0.447295 -0.993493,0.447295 -0.446848,0 -0.689209,-0.268544 -0.689209,-0.698119 0,-0.46509 0.259683,-0.805041 1.29867,-0.805041 z m 8.320397,0 h 0.384477 v 1.055865 c -0.331423,0.286384 -0.680473,0.447295 -0.993493,0.447295 -0.446849,0 -0.689209,-0.268544 -0.689209,-0.698119 0,-0.46509 0.259884,-0.805041 1.298225,-0.805041 z"
         transform="matrix(11.146606,0,0,11.146606,76.505156,-239.33114)" /><path
         d="m 24.069325,33.316561 h -0.106547 v -0.05973 h 0.287514 v 0.05973 h -0.106547 v 0.298329 h -0.07442 z m 0.573735,0.01485 h -0.0013 l -0.1059,0.283316 h -0.04859 l -0.105248,-0.283314 h -0.0013 v 0.283316 h -0.07071 v -0.35806 h 0.103802 l 0.09751,0.253289 0.09751,-0.253289 h 0.102833 v 0.35806 h -0.06845 v -0.283316 z m -9.999849,3.347004 c -0.330455,0.286384 -0.679797,0.447495 -0.993463,0.447495 -0.446848,0 -0.689322,-0.268465 -0.689322,-0.69804 0,-0.46509 0.259586,-0.805392 1.298573,-0.805392 h 0.384051 v 1.055937 z m 0.9121,1.028979 v -3.18541 c 0,-0.81411 -0.464283,-1.351361 -1.583503,-1.351361 -0.652999,0 -1.225443,0.161272 -1.690856,0.366777 l 0.13399,0.564211 c 0.366616,-0.134636 0.840585,-0.259424 1.305837,-0.259424 0.644766,0 0.922271,0.259424 0.922271,0.796514 v 0.402777 h -0.322222 c -1.56623,0 -2.272986,0.607636 -2.272986,1.521189 0,0.787151 0.465736,1.234645 1.342482,1.234645 0.563565,0 0.984584,-0.232626 1.377675,-0.573089 l 0.07151,0.483171 z m 3.044155,0 h -1.1373 l -1.369442,-4.455732 h 0.993463 l 0.849948,2.738077 0.189201,0.822666 c 0.428768,-1.189925 0.73307,-2.397934 0.885302,-3.560741 h 0.966019 c -0.258616,1.46711 -0.724514,3.077895 -1.377191,4.455732 z m 4.364683,-1.028979 c -0.331423,0.286384 -0.680765,0.447495 -0.993785,0.447495 -0.446849,0 -0.688999,-0.268465 -0.688999,-0.69804 0,-0.46509 0.259747,-0.805392 1.298088,-0.805392 h 0.384696 z m 0.912424,1.028979 v -3.18541 c 0,-0.81411 -0.465736,-1.351361 -1.583826,-1.351361 -0.653645,0 -1.225928,0.161272 -1.691341,0.366777 l 0.13399,0.564211 c 0.366616,-0.134636 0.841554,-0.259424 1.306967,-0.259424 0.643798,0 0.921625,0.259424 0.921625,0.796514 v 0.402777 h -0.322222 c -1.566391,0 -2.272663,0.607636 -2.272663,1.521189 0,0.787151 0.464768,1.234645 1.341675,1.234645 0.56405,0 0.984423,-0.232626 1.378483,-0.573089 l 0.07184,0.483171 z M 11.04776,38.46452 c -0.259908,0.379853 -0.680282,0.680604 -1.1398838,0.850271 l -0.4504,-0.530471 c 0.3501497,-0.179676 0.6500938,-0.469772 0.7897338,-0.739689 0.120268,-0.240537 0.170474,-0.549844 0.170474,-1.290178 V 31.66687 h 0.96941 v 5.017359 c 0,0.990234 -0.0791,1.390428 -0.339334,1.780291 z"
         fill="#ca3132"
         id="path7"
         style="fill:#e76f00;fill-opacity:1;stroke-width:0.161434"
         inkscape:label="Java"
         transform="matrix(11.146606,0,0,11.146606,76.505156,-239.33114)" /><path
         style="display:inline;opacity:1;fill:#5382a1;fill-opacity:1;stroke-width:3.77953;stroke-miterlimit:0;paint-order:stroke fill markers"
         d="m 354.61526,181 h 13.83962 l 6.41838,-31.57219 h 40.81686 l -7.72211,-12.03445 -30.28671,-0.40115 3.1089,-16.44709 c 0,0 1.30373,-4.01149 5.61608,-3.9112 4.31234,0.10029 37.70795,0.20058 37.70795,0.20058 l 2.90833,-12.23503 h -44.42719 c 0,0 -9.52728,0.90258 -13.33819,10.93129 C 365.44627,125.55948 354.61526,181 354.61526,181 Z"
         id="path1-8"
         sodipodi:nodetypes="cccccccscccsc"
         inkscape:label="F" /><path
         style="opacity:1;fill:#5382a1;fill-opacity:1;stroke-width:3.77953;stroke-miterlimit:0;paint-order:stroke fill markers"
         d="m 397.54222,181 h 17.65751 L 433.06998,161.54142 446.68542,181 h 15.24644 L 442.43059,152.74812 468.59775,125 h -17.0902 L 435.48105,141.54375 422.71658,125 h -15.17553 l 18.50848,25.76251 z"
         id="path2"
         sodipodi:nodetypes="ccccccccccccc"
         inkscape:label="x" /></g><g
       id="g31"
       transform="matrix(0.07832801,0,0,0.07832801,14.983444,5.4564134)"
       inkscape:label="Java"><path
         id="path1"
         d="M 162.44074,0.37406128 C 176.9201,57.396898 111.39495,74.6098 87.743337,110.12492 71.629301,134.31924 95.649836,160.31801 128.37964,189.84831 115.61691,161.0013 72.329612,135.75168 128.40106,91.470198 198.32444,36.26822 162.44074,0.37406128 162.44074,0.37406128 Z M 205.70427,70.916453 c 0,0 -118.233855,29.530937 -61.76118,94.601477 16.65955,19.18046 -4.37633,36.43846 -4.37633,36.43846 0,0 42.30112,-21.83646 22.87398,-49.18192 -18.14435,-25.50132 -32.06284,-38.17139 43.26353,-81.858017 z m 22.70978,116.268937 c -4.66025,-0.22315 -9.68535,0.46648 -14.85667,2.28455 -3.63427,1.29024 -5.53287,4.26924 -5.53287,4.26924 0,0 2.2849,-0.91788 7.41048,-1.9847 20.91194,-4.35945 50.87015,27.99646 -13.92857,61.66837 -0.29975,0.80151 -1.29933,1.70006 -1.29933,1.69913 75.72421,-19.90668 60.82869,-66.37453 28.20696,-67.93659 z m -143.790541,3.26262 c -8.261324,0.21696 -27.595814,2.00981 -50.081457,12.87911 -35.45088085,17.14828 87.692618,24.94625 151.436618,8.18151 6.62714,-4.52515 15.78476,-8.44567 15.78476,-8.44567 0,0 -26.08106,4.66227 -52.05901,6.85363 -31.78682,2.66333 -65.917501,3.17716 -83.035988,0.88526 -40.542953,-5.41417 22.231455,-20.32529 22.231455,-20.32529 0,0 -1.522604,-0.10087 -4.276378,-0.0285 z m -10.330416,39.20846 c -58.502051,19.4169 32.551677,41.43774 114.298527,17.53386 -8.68911,-3.06363 -14.22128,-8.66698 -14.22128,-8.66698 -39.95183,7.69304 -63.03798,7.44959 -92.274106,4.43344 -22.608059,-2.33844 -7.803141,-13.30032 -7.803141,-13.30032 z m 8.260049,37.81632 c -53.105571,14.83869 32.301118,45.49744 99.913048,16.5201 -11.07409,-4.30638 -19.00454,-9.28096 -19.00454,-9.28096 -30.16052,5.70834 -44.1446,6.15642 -71.513326,3.03416 -22.591302,-2.59724 -9.395182,-10.2733 -9.395182,-10.2733 z M 48.22075,292.54564 c -22.822138,-0.87929 -74.621374,21.9226 -30.391555,29.09223 137.852735,22.35578 251.289465,-10.06478 215.532315,-26.19371 0,0 9.77212,8.04533 -10.75163,14.27125 -39.0265,11.82254 -162.431736,15.39273 -196.713394,0.47119 -12.323374,-5.36111 10.785556,-12.80294 18.055025,-14.36407 7.581324,-1.64399 11.908179,-1.33503 11.908179,-1.33503 -1.713106,-1.2068 -4.378634,-1.81624 -7.63894,-1.94186 z m 207.0224,20.48236 c 0,0 -4.34662,11.1579 -51.40221,20.0183 -53.08788,9.99051 -118.570254,8.82298 -157.404989,2.42019 9.31e-4,-9.3e-4 7.953088,6.58098 48.832099,9.20242 62.19869,3.98149 157.71299,-2.21022 159.9751,-31.64091 z"
         transform="translate(1.2376104e-6)"
         style="fill:#000000;fill-opacity:1;filter:url(#filter31)"
         inkscape:label="Shadow" /><path
         d="m 82.553949,267.47252 c 0,0 -13.198429,7.67535 9.392873,10.27259 27.368728,3.12226 41.356568,2.6745 71.517088,-3.03384 0,0 7.92949,4.97199 19.00358,9.27837 -67.61193,28.97734 -153.019112,-1.67843 -99.913541,-16.51712"
         fill="#5382a1"
         id="path24" /><path
         d="m 74.292131,229.659 c 0,0 -14.803317,10.95773 7.804742,13.29617 29.236127,3.01615 52.324537,3.26284 92.276367,-4.4302 0,0 5.52587,5.60221 14.21498,8.66584 C 106.84137,271.09469 15.79008,249.0759 74.292131,229.659"
         fill="#5382a1"
         id="path25" /><path
         d="m 143.94182,165.5147 c 16.65955,19.18046 -4.37714,36.44044 -4.37714,36.44044 0,0 42.30144,-21.83726 22.8743,-49.18272 -18.14435,-25.50132 -32.05865,-38.17193 43.26772,-81.858558 0,0 -118.237551,29.530298 -61.76488,94.600838"
         fill="#e76f00"
         id="path26" /><path
         d="m 233.36401,295.44169 c 0,0 9.7671,8.04771 -10.75665,14.27363 -39.0265,11.82254 -162.432466,15.39258 -196.714124,0.47104 -12.323374,-5.36111 10.786444,-12.80094 18.055913,-14.36207 7.581324,-1.64399 11.913775,-1.33771 11.913775,-1.33771 -13.704844,-9.65446 -88.582517,18.95703 -38.034153,27.15089 137.852739,22.35578 251.292389,-10.06685 215.535239,-26.19578"
         fill="#5382a1"
         id="path27" /><path
         d="m 88.900887,190.47982 c 0,0 -62.772131,14.90944 -22.229178,20.32361 17.118487,2.2919 51.243751,1.77338 83.030571,-0.88995 25.97795,-2.19136 52.06296,-6.85056 52.06296,-6.85056 0,0 -9.16015,3.92285 -15.78729,8.448 -63.744,16.76474 -186.88558636,8.96559 -151.434706,-8.18269 29.980858,-14.49239 54.357643,-12.84841 54.357643,-12.84841"
         fill="#5382a1"
         id="path28" /><path
         d="m 201.50644,253.42231 c 64.79872,-33.67191 34.83834,-66.03031 13.9264,-61.67086 -5.12558,1.06682 -7.41096,1.99121 -7.41096,1.99121 0,0 1.90277,-2.98077 5.53704,-4.27101 41.37053,-14.54452 73.18714,42.89722 -13.35482,65.64771 0,9.3e-4 1.00259,-0.89554 1.30234,-1.69705"
         fill="#5382a1"
         id="path29" /><path
         d="m 162.43898,0.37143273 c 0,0 35.88655,35.89864727 -34.03683,91.10062527 -56.071445,44.281482 -12.78603,69.529602 -0.0233,98.376612 C 95.649047,160.31837 71.629731,134.32273 87.743767,110.12841 111.39538,74.613294 176.91834,57.394269 162.43898,0.37143273"
         fill="#e76f00"
         id="path30" /><path
         d="m 95.268305,344.66537 c 62.198695,3.98149 157.711825,-2.20905 159.973935,-31.63974 0,0 -4.34828,11.15694 -51.40387,20.01734 -53.08788,9.99051 -118.564304,8.82408 -157.399039,2.42129 9.31e-4,-9.3e-4 7.949963,6.57967 48.828974,9.20111"
         fill="#5382a1"
         id="path31" /></g><rect
       style="font-variation-settings:normal;display:inline;fill:none;stroke:#5382a1;stroke-width:1.99928;stroke-linecap:butt;stroke-linejoin:miter;stroke-miterlimit:4;stroke-dasharray:none;stroke-dashoffset:0;stroke-opacity:1;stop-color:#000000"
       id="rect1-18-1"
       width="48.000725"
       height="48.000725"
       x="0.99963778"
       y="0.99963778"
       rx="6.9104829"
       ry="6.9104829"
       inkscape:label="Frame" /></g><style
     type="text/css"
     id="style1">
	.st0{fill:url(#ICON_00000088831890668800157600000002638584723837204667_);}
</style><style
     id="style1-7">.st10{fill:#333}</style><style
     type="text/css"
     id="style1-1">
	.st0{fill:url(#ICON_00000088831890668800157600000002638584723837204667_);}
</style><style
     id="style1-7-2">.st10{fill:#333}</style></svg>
