<?xml version="1.0" encoding="UTF-8" standalone="no"?>
<!-- Created with Inkscape (http://www.inkscape.org/) -->

<svg
   width="50mm"
   height="50mm"
   viewBox="0 0 50 50"
   version="1.1"
   id="svg1"
   xml:space="preserve"
   sodipodi:docname="GTK_Box.svg"
   inkscape:version="1.4.2 (ebf0e940d0, 2025-05-08)"
   inkscape:export-filename="GTK_Box.png"
   inkscape:export-xdpi="96"
   inkscape:export-ydpi="96"
   xmlns:inkscape="http://www.inkscape.org/namespaces/inkscape"
   xmlns:sodipodi="http://sodipodi.sourceforge.net/DTD/sodipodi-0.dtd"
   xmlns:xlink="http://www.w3.org/1999/xlink"
   xmlns="http://www.w3.org/2000/svg"
   xmlns:svg="http://www.w3.org/2000/svg"><sodipodi:namedview
     id="namedview1"
     pagecolor="#ffffff"
     bordercolor="#000000"
     borderopacity="0.25"
     inkscape:showpageshadow="2"
     inkscape:pageopacity="0.0"
     inkscape:pagecheckerboard="0"
     inkscape:deskcolor="#d1d1d1"
     inkscape:document-units="mm"
     inkscape:zoom="3.6203867"
     inkscape:cx="68.362863"
     inkscape:cy="93.222086"
     inkscape:window-width="2560"
     inkscape:window-height="1378"
     inkscape:window-x="0"
     inkscape:window-y="0"
     inkscape:window-maximized="1"
     inkscape:current-layer="layer1"><inkscape:page
       x="0"
       y="0"
       width="50"
       height="50"
       id="page2"
       margin="0"
       bleed="0" /></sodipodi:namedview><defs
     id="defs1"><linearGradient
       id="linearGradient11"
       inkscape:collect="always"><stop
         style="stop-color:#9558b2;stop-opacity:1;"
         offset="0"
         id="stop13" /><stop
         style="stop-color:#000000;stop-opacity:0;"
         offset="0.33060557"
         id="stop14" /></linearGradient><linearGradient
       id="linearGradient8"
       inkscape:collect="always"><stop
         style="stop-color:#389826;stop-opacity:1;"
         offset="0"
         id="stop9" /><stop
         style="stop-color:#000000;stop-opacity:0;"
         offset="0.33060557"
         id="stop10" /></linearGradient><linearGradient
       id="linearGradient3"
       inkscape:collect="always"><stop
         style="stop-color:#cb3c33;stop-opacity:1;"
         offset="0"
         id="stop4" /><stop
         style="stop-color:#000000;stop-opacity:0;"
         offset="0.33387887"
         id="stop7" /></linearGradient><linearGradient
       inkscape:collect="always"
       xlink:href="#linearGradient3"
       id="linearGradient7"
       x1="4.6314883"
       y1="36.759758"
       x2="45.368515"
       y2="13.240229"
       gradientUnits="userSpaceOnUse" /><linearGradient
       inkscape:collect="always"
       xlink:href="#linearGradient8"
       id="linearGradient10"
       x1="24.999998"
       y1="1.4804666"
       x2="24.999998"
       y2="48.519524"
       gradientUnits="userSpaceOnUse" /><linearGradient
       inkscape:collect="always"
       xlink:href="#linearGradient11"
       id="linearGradient14"
       x1="45.368523"
       y1="36.759766"
       x2="4.6314898"
       y2="13.24023"
       gradientUnits="userSpaceOnUse" /></defs><g
     id="g1"
     inkscape:label="Julia"><rect
       style="font-variation-settings:normal;opacity:1;vector-effect:none;fill:#000000;fill-opacity:1;stroke:none;stroke-width:0.260698;stroke-linecap:butt;stroke-linejoin:miter;stroke-miterlimit:4;stroke-dasharray:none;stroke-dashoffset:0;stroke-opacity:1;-inkscape-stroke:none;stop-color:#000000;stop-opacity:1"
       id="rect1"
       width="50"
       height="50"
       x="0"
       y="0"
       rx="7.1983109"
       ry="7.1983109" /><g
       id="layer1"
       inkscape:label="Border"
       style="display:inline"><path
         style="baseline-shift:baseline;display:inline;overflow:visible;opacity:1;vector-effect:none;fill:url(#linearGradient10);enable-background:accumulate;stop-color:#000000;stop-opacity:1"
         d="m 8.9648438,1.4804687 c -4.1287536,0 -7.4843751,3.3556215 -7.4843751,7.4843751 V 41.035156 c 0,4.128754 3.3556215,7.484375 7.4843751,7.484375 H 41.035156 c 4.128754,0 7.484375,-3.355621 7.484375,-7.484375 V 8.9648438 c 0,-4.1287536 -3.355621,-7.4843751 -7.484375,-7.4843751 z m 0,2.0000001 H 41.035156 c 3.055348,0 5.484375,2.4290269 5.484375,5.484375 V 41.035156 c 0,3.055348 -2.429027,5.484375 -5.484375,5.484375 H 8.9648438 c -3.0553481,0 -5.484375,-2.429027 -5.484375,-5.484375 V 8.9648438 c 0,-3.0553481 2.4290269,-5.4843751 5.484375,-5.484375 z"
         id="path1"
         inkscape:label="pathGreen" /><path
         style="baseline-shift:baseline;display:inline;overflow:visible;opacity:1;vector-effect:none;fill:url(#linearGradient7);fill-opacity:1;enable-background:accumulate;stop-color:#000000;stop-opacity:1"
         d="m 8.9648438,1.4804687 c -4.1287536,0 -7.4843751,3.3556215 -7.4843751,7.4843751 V 41.035156 c 0,4.128754 3.3556215,7.484375 7.4843751,7.484375 H 41.035156 c 4.128754,0 7.484375,-3.355621 7.484375,-7.484375 V 8.9648438 c 0,-4.1287536 -3.355621,-7.4843751 -7.484375,-7.4843751 z m 0,2.0000001 H 41.035156 c 3.055348,0 5.484375,2.4290269 5.484375,5.484375 V 41.035156 c 0,3.055348 -2.429027,5.484375 -5.484375,5.484375 H 8.9648438 c -3.0553481,0 -5.484375,-2.429027 -5.484375,-5.484375 V 8.9648438 c 0,-3.0553481 2.4290269,-5.4843751 5.484375,-5.484375 z"
         id="rect1-1"
         inkscape:label="pathRed" /><path
         style="baseline-shift:baseline;display:inline;overflow:visible;opacity:1;vector-effect:none;fill:url(#linearGradient14);enable-background:accumulate;stop-color:#000000;stop-opacity:1"
         d="m 8.9648438,1.4804687 c -4.1287536,0 -7.4843751,3.3556215 -7.4843751,7.4843751 V 41.035156 c 0,4.128754 3.3556215,7.484375 7.4843751,7.484375 H 41.035156 c 4.128754,0 7.484375,-3.355621 7.484375,-7.484375 V 8.9648438 c 0,-4.1287536 -3.355621,-7.4843751 -7.484375,-7.4843751 z m 0,2.0000001 H 41.035156 c 3.055348,0 5.484375,2.4290269 5.484375,5.484375 V 41.035156 c 0,3.055348 -2.429027,5.484375 -5.484375,5.484375 H 8.9648438 c -3.0553481,0 -5.484375,-2.429027 -5.484375,-5.484375 V 8.9648438 c 0,-3.0553481 2.4290269,-5.4843751 5.484375,-5.484375 z"
         id="path2"
         inkscape:label="pathPurple" /></g><g
       id="surface1"
       transform="matrix(0.46545776,0,0,0.46545776,-86.14986,7.8335171)"
       inkscape:label="Icon"
       style="display:inline"><path
         style="fill:#9558b2;fill-opacity:1;fill-rule:nonzero;stroke:none"
         d="m 277.32031,55.089844 c 0,9.667968 -7.83594,17.5 -17.5,17.5 -9.66406,0 -17.5,-7.832032 -17.5,-17.5 0,-9.664063 7.83594,-17.5 17.5,-17.5 9.66406,0 17.5,7.835937 17.5,17.5"
         id="path4" /><path
         style="fill:#cb3c33;fill-opacity:1;fill-rule:nonzero;stroke:none"
         d="m 235.27344,55.089844 c 0,9.667968 -7.83594,17.5 -17.5,17.5 -9.66797,0 -17.5,-7.832032 -17.5,-17.5 0,-9.664063 7.83203,-17.5 17.5,-17.5 9.66406,0 17.5,7.835937 17.5,17.5"
         id="path2-9" /><path
         style="fill:#389826;fill-opacity:1;fill-rule:nonzero;stroke:none"
         d="m 256.30078,18.671875 c 0,9.664063 -7.83594,17.5 -17.5,17.5 -9.66797,0 -17.5,-7.835937 -17.5,-17.5 0,-9.664063 7.83203,-17.5 17.5,-17.5 9.66406,0 17.5,7.835937 17.5,17.5"
         id="path5" /></g></g></svg>
