<?xml version="1.0" encoding="UTF-8" standalone="no"?>
<!-- Created with Inkscape (http://www.inkscape.org/) -->

<svg
   width="50mm"
   height="50mm"
   viewBox="0 0 50 50"
   version="1.1"
   id="svg1"
   xml:space="preserve"
   sodipodi:docname="Julia_Box.svg"
   inkscape:version="1.4.3 (0d15f75, 2025-12-25)"
   inkscape:export-filename="GTK_Box.png"
   inkscape:export-xdpi="96"
   inkscape:export-ydpi="96"
   xmlns:inkscape="http://www.inkscape.org/namespaces/inkscape"
   xmlns:sodipodi="http://sodipodi.sourceforge.net/DTD/sodipodi-0.dtd"
   xmlns:xlink="http://www.w3.org/1999/xlink"
   xmlns="http://www.w3.org/2000/svg"
   xmlns:svg="http://www.w3.org/2000/svg"><sodipodi:namedview
     id="namedview1"
     pagecolor="#ffffff"
     bordercolor="#000000"
     borderopacity="0.25"
     inkscape:showpageshadow="2"
     inkscape:pageopacity="0.0"
     inkscape:pagecheckerboard="0"
     inkscape:deskcolor="#d1d1d1"
     inkscape:document-units="mm"
     inkscape:zoom="3.6203868"
     inkscape:cx="36.460193"
     inkscape:cy="104.27063"
     inkscape:window-width="2560"
     inkscape:window-height="1369"
     inkscape:window-x="-8"
     inkscape:window-y="-8"
     inkscape:window-maximized="1"
     inkscape:current-layer="g1"><inkscape:page
       x="0"
       y="0"
       width="50"
       height="50"
       id="page2"
       margin="0"
       bleed="0" /></sodipodi:namedview><defs
     id="defs1"><linearGradient
       id="linearGradient18"
       inkscape:collect="always"><stop
         style="stop-color:#ffffff;stop-opacity:0.24835165;"
         offset="0"
         id="stop17" /><stop
         style="stop-color:#ffffff;stop-opacity:0;"
         offset="1"
         id="stop18" /></linearGradient><linearGradient
       id="linearGradient15"
       inkscape:collect="always"><stop
         style="stop-color:#ffffff;stop-opacity:0.25274727;"
         offset="0"
         id="stop12" /><stop
         style="stop-color:#ffffff;stop-opacity:0;"
         offset="1"
         id="stop15" /></linearGradient><linearGradient
       id="linearGradient1"
       inkscape:collect="always"><stop
         style="stop-color:#ffffff;stop-opacity:0.24615385;"
         offset="0"
         id="stop1" /><stop
         style="stop-color:#ffffff;stop-opacity:0;"
         offset="1"
         id="stop2" /></linearGradient><linearGradient
       id="linearGradient24"><stop
         style="stop-color:#912d25;stop-opacity:0;"
         offset="0"
         id="stop28" /><stop
         style="stop-color:#cb3c33;stop-opacity:1;"
         offset="1"
         id="stop29" /></linearGradient><linearGradient
       id="linearGradient24-3"><stop
         style="stop-color:#245c11;stop-opacity:0;"
         offset="0"
         id="stop26" /><stop
         style="stop-color:#389826;stop-opacity:1;"
         offset="1"
         id="stop27" /></linearGradient><linearGradient
       id="linearGradient24-1"><stop
         style="stop-color:#6c3d7d;stop-opacity:1;"
         offset="0"
         id="stop24" /><stop
         style="stop-color:#9558b2;stop-opacity:0;"
         offset="1"
         id="stop25" /></linearGradient><linearGradient
       id="swatch9"
       inkscape:swatch="solid"><stop
         style="stop-color:#522d61;stop-opacity:1;"
         offset="0"
         id="stop11" /></linearGradient><linearGradient
       id="linearGradient11"
       inkscape:collect="always"><stop
         style="stop-color:#9a60b6;stop-opacity:1;"
         offset="0"
         id="stop13" /><stop
         style="stop-color:#9a60b6;stop-opacity:0;"
         offset="0.49947974"
         id="stop14" /></linearGradient><linearGradient
       id="linearGradient8"
       inkscape:collect="always"><stop
         style="stop-color:#57984b;stop-opacity:1;"
         offset="0"
         id="stop9" /><stop
         style="stop-color:#68b15b;stop-opacity:0;"
         offset="0.49503312"
         id="stop10" /></linearGradient><linearGradient
       id="linearGradient3"
       inkscape:collect="always"><stop
         style="stop-color:#cf4c44;stop-opacity:1;"
         offset="0"
         id="stop4" /><stop
         style="stop-color:#cf4c44;stop-opacity:0;"
         offset="0.49778616"
         id="stop7" /></linearGradient><linearGradient
       inkscape:collect="always"
       xlink:href="#linearGradient3"
       id="linearGradient7"
       x1="4.6314883"
       y1="36.759758"
       x2="45.368515"
       y2="13.240229"
       gradientUnits="userSpaceOnUse" /><linearGradient
       inkscape:collect="always"
       xlink:href="#linearGradient8"
       id="linearGradient10"
       x1="24.999998"
       y1="1.4804666"
       x2="24.999998"
       y2="48.519524"
       gradientUnits="userSpaceOnUse" /><linearGradient
       inkscape:collect="always"
       xlink:href="#linearGradient11"
       id="linearGradient14"
       x1="45.368523"
       y1="36.759766"
       x2="4.6314898"
       y2="13.24023"
       gradientUnits="userSpaceOnUse" /><linearGradient
       inkscape:collect="always"
       xlink:href="#linearGradient24"
       id="linearGradient25"
       x1="7.322329"
       y1="42.677673"
       x2="42.67767"
       y2="7.3223386"
       gradientUnits="userSpaceOnUse"
       gradientTransform="translate(-50,-50)" /><linearGradient
       inkscape:collect="always"
       xlink:href="#linearGradient24-1"
       id="linearGradient27"
       gradientUnits="userSpaceOnUse"
       x1="7.3223314"
       y1="7.32234"
       x2="42.677666"
       y2="42.677673"
       gradientTransform="translate(-50,-50)" /><linearGradient
       inkscape:collect="always"
       xlink:href="#linearGradient24-3"
       id="linearGradient28"
       gradientUnits="userSpaceOnUse"
       x1="25"
       y1="6.9783769e-06"
       x2="25"
       y2="50.000004"
       gradientTransform="translate(0,-50)" /><filter
       inkscape:collect="always"
       style="color-interpolation-filters:sRGB"
       id="filter10"
       x="-0.10405424"
       y="-0.1122568"
       width="1.2081085"
       height="1.2245136"><feGaussianBlur
         inkscape:collect="always"
         stdDeviation="3.3404798"
         id="feGaussianBlur10" /></filter><filter
       inkscape:collect="always"
       style="color-interpolation-filters:sRGB"
       id="filter13"
       x="-0.075000001"
       y="-0.075000001"
       width="1.15"
       height="1.15"><feGaussianBlur
         inkscape:collect="always"
         stdDeviation="1.4699684"
         id="feGaussianBlur13" /></filter><linearGradient
       inkscape:collect="always"
       xlink:href="#linearGradient15"
       id="linearGradient5"
       gradientUnits="userSpaceOnUse"
       x1="238.80078"
       y1="1.171875"
       x2="238.80078"
       y2="36.171875"
       gradientTransform="translate(-21.027868,36.416801)" /><linearGradient
       inkscape:collect="always"
       xlink:href="#linearGradient1"
       id="linearGradient6"
       gradientUnits="userSpaceOnUse"
       x1="238.80078"
       y1="1.171875"
       x2="238.80078"
       y2="36.171875"
       gradientTransform="translate(21.020324,36.416801)" /><linearGradient
       inkscape:collect="always"
       xlink:href="#linearGradient18"
       id="linearGradient17"
       gradientUnits="userSpaceOnUse"
       x1="238.80078"
       y1="1.171875"
       x2="238.80078"
       y2="36.171875" /></defs><g
     id="g1"
     inkscape:label="Julia"><g
       id="g2"
       inkscape:label="Rect"><rect
         style="font-variation-settings:normal;display:inline;opacity:1;vector-effect:none;fill:#ffffff;stroke:none;stroke-width:0.260698;stroke-linecap:butt;stroke-linejoin:miter;stroke-miterlimit:4;stroke-dasharray:none;stroke-dashoffset:0;stroke-opacity:1;-inkscape-stroke:none;stop-color:#000000;stop-opacity:1;fill-opacity:1"
         id="rect18"
         width="50"
         height="50"
         x="0"
         y="-50"
         rx="7.1983109"
         ry="7.1983109"
         transform="scale(1,-1)"
         inkscape:label="rectBack" /><rect
         style="font-variation-settings:normal;display:inline;opacity:1;vector-effect:none;fill:url(#linearGradient28);stroke:none;stroke-width:0.260698;stroke-linecap:butt;stroke-linejoin:miter;stroke-miterlimit:4;stroke-dasharray:none;stroke-dashoffset:0;stroke-opacity:1;-inkscape-stroke:none;stop-color:#000000;stop-opacity:1"
         id="rect25"
         width="50"
         height="50"
         x="0"
         y="-50"
         rx="7.1983109"
         ry="7.1983109"
         transform="scale(1,-1)"
         inkscape:label="rectGreen" /><rect
         style="font-variation-settings:normal;display:inline;opacity:1;vector-effect:none;fill:url(#linearGradient25);fill-opacity:1;stroke:none;stroke-width:0.260698;stroke-linecap:butt;stroke-linejoin:miter;stroke-miterlimit:4;stroke-dasharray:none;stroke-dashoffset:0;stroke-opacity:1;-inkscape-stroke:none;stop-color:#000000;stop-opacity:1"
         id="rect1"
         width="50"
         height="50"
         x="-50"
         y="-50"
         rx="7.1983109"
         ry="7.1983109"
         transform="scale(-1)"
         inkscape:label="rectRed" /><rect
         style="font-variation-settings:normal;display:inline;opacity:1;vector-effect:none;fill:url(#linearGradient27);stroke:none;stroke-width:0.260698;stroke-linecap:butt;stroke-linejoin:miter;stroke-miterlimit:4;stroke-dasharray:none;stroke-dashoffset:0;stroke-opacity:1;-inkscape-stroke:none;stop-color:#000000;stop-opacity:1"
         id="rect26"
         width="50"
         height="50"
         x="-50"
         y="-50"
         rx="7.1983109"
         ry="7.1983109"
         transform="scale(-1)"
         inkscape:label="rectPurple" /></g><g
       id="surface1"
       transform="matrix(0.40406018,0,0,0.40406018,-71.488309,10.097913)"
       inkscape:label="Icon"
       style="display:inline"><path
         id="path4"
         style="fill:#000000;fill-opacity:1;fill-rule:nonzero;stroke:none;filter:url(#filter10)"
         inkscape:label="pathShadow"
         d="M 238.80077 1.1719412 C 229.1328 1.1719412 221.30119 9.007465 221.30119 18.671528 C 221.30119 28.335591 229.1328 36.172394 238.80077 36.172394 C 248.46483 36.172394 256.30036 28.335591 256.30036 18.671528 C 256.30036 9.007465 248.46483 1.1719412 238.80077 1.1719412 z M 217.7739 37.589447 C 208.10593 37.589447 200.27303 45.42625 200.27303 55.090313 C 200.27303 64.758281 208.10593 72.5899 217.7739 72.5899 C 227.43796 72.5899 235.27349 64.758281 235.27349 55.090313 C 235.27349 45.42625 227.43796 37.589447 217.7739 37.589447 z M 259.81997 37.589447 C 250.15591 37.589447 242.32039 45.42625 242.32039 55.090313 C 242.32039 64.758281 250.15591 72.5899 259.81997 72.5899 C 269.48403 72.5899 277.32084 64.758281 277.32084 55.090313 C 277.32084 45.42625 269.48403 37.589447 259.81997 37.589447 z " /><path
         style="fill:#9558b2;fill-opacity:1;fill-rule:nonzero;stroke:none"
         d="m 277.32031,55.089844 c 0,9.667968 -7.83594,17.5 -17.5,17.5 -9.66406,0 -17.5,-7.832032 -17.5,-17.5 0,-9.664063 7.83594,-17.5 17.5,-17.5 9.66406,0 17.5,7.835937 17.5,17.5"
         id="path8"
         inkscape:label="pathPurple" /><path
         style="fill:#cb3c33;fill-opacity:1;fill-rule:nonzero;stroke:none"
         d="m 235.27344,55.089844 c 0,9.667968 -7.83594,17.5 -17.5,17.5 -9.66797,0 -17.5,-7.832032 -17.5,-17.5 0,-9.664063 7.83203,-17.5 17.5,-17.5 9.66406,0 17.5,7.835937 17.5,17.5"
         id="path9"
         inkscape:label="pathRed" /><path
         style="fill:#389826;fill-opacity:1;fill-rule:nonzero;stroke:none"
         d="m 256.30078,18.671875 c 0,9.664063 -7.83594,17.5 -17.5,17.5 -9.66797,0 -17.5,-7.835937 -17.5,-17.5 0,-9.664063 7.83203,-17.5 17.5,-17.5 9.66406,0 17.5,7.835937 17.5,17.5"
         id="path10"
         inkscape:label="pathGreen" /><g
         id="g5"
         inkscape:label="Light"
         style="display:inline"><path
           style="fill:url(#linearGradient6);fill-rule:nonzero;stroke:none"
           d="m 277.3211,55.088675 c 0,9.664063 -7.83594,17.5 -17.5,17.5 -9.66797,0 -17.5,-7.835937 -17.5,-17.5 0,-9.664063 7.83203,-17.499999 17.5,-17.499999 9.66406,0 17.5,7.835936 17.5,17.499999"
           id="path1"
           inkscape:label="pathLight" /><path
           style="fill:url(#linearGradient5);fill-rule:nonzero;stroke:none"
           d="m 235.27291,55.088676 c 0,9.664063 -7.83594,17.5 -17.5,17.5 -9.66797,0 -17.5,-7.835937 -17.5,-17.5 0,-9.664063 7.83203,-17.5 17.5,-17.5 9.66406,0 17.5,7.835937 17.5,17.5"
           id="path2"
           inkscape:label="pathLight" /><path
           style="fill:url(#linearGradient17);fill-rule:nonzero;stroke:none"
           d="m 256.30078,18.671875 c 0,9.664063 -7.83594,17.5 -17.5,17.5 -9.66797,0 -17.5,-7.835937 -17.5,-17.5 0,-9.664063 7.83203,-17.5 17.5,-17.5 9.66406,0 17.5,7.835937 17.5,17.5"
           id="path5"
           inkscape:label="pathLight" /></g></g><g
       id="layer1"
       inkscape:label="Border"
       style="display:inline"><path
         id="path3"
         style="baseline-shift:baseline;display:inline;overflow:visible;opacity:1;vector-effect:none;fill:#000000;enable-background:accumulate;stop-color:#000000;stop-opacity:1;fill-opacity:1;filter:url(#filter13)"
         inkscape:label="pathShadow"
         d="M 8.9648275 1.4805298 C 4.8360739 1.4805298 1.4805298 4.8360739 1.4805298 8.9648275 L 1.4805298 41.035221 C 1.4805298 45.163975 4.8360739 48.519519 8.9648275 48.519519 L 41.035221 48.519519 C 45.163975 48.519519 48.519519 45.163975 48.519519 41.035221 L 48.519519 8.9648275 C 48.519519 4.8360739 45.163975 1.4805298 41.035221 1.4805298 L 8.9648275 1.4805298 z M 8.9648275 3.4804077 L 41.035221 3.4804077 C 44.090569 3.4804077 46.519641 5.9094794 46.519641 8.9648275 L 46.519641 41.035221 C 46.519641 44.090569 44.090569 46.519641 41.035221 46.519641 L 8.9648275 46.519641 C 5.9094794 46.519641 3.4804077 44.090569 3.4804077 41.035221 L 3.4804077 8.9648275 C 3.4804077 8.7738682 3.4897763 8.5856301 3.508313 8.4000041 C 3.7863629 5.6156139 6.1004386 3.4804076 8.9648275 3.4804077 z " /><path
         style="baseline-shift:baseline;display:inline;overflow:visible;opacity:1;vector-effect:none;fill:url(#linearGradient10);enable-background:accumulate;stop-color:#000000;stop-opacity:1"
         d="m 8.9648438,1.4804687 c -4.1287536,0 -7.4843751,3.3556215 -7.4843751,7.4843751 V 41.035156 c 0,4.128754 3.3556215,7.484375 7.4843751,7.484375 H 41.035156 c 4.128754,0 7.484375,-3.355621 7.484375,-7.484375 V 8.9648438 c 0,-4.1287536 -3.355621,-7.4843751 -7.484375,-7.4843751 z m 0,2.0000001 H 41.035156 c 3.055348,0 5.484375,2.4290269 5.484375,5.484375 V 41.035156 c 0,3.055348 -2.429027,5.484375 -5.484375,5.484375 H 8.9648438 c -3.0553481,0 -5.484375,-2.429027 -5.484375,-5.484375 V 8.9648438 c 0,-3.0553481 2.4290269,-5.4843751 5.484375,-5.484375 z"
         id="path11"
         inkscape:label="pathGreen" /><path
         style="baseline-shift:baseline;display:inline;overflow:visible;opacity:1;vector-effect:none;fill:url(#linearGradient7);fill-opacity:1;enable-background:accumulate;stop-color:#000000;stop-opacity:1"
         d="m 8.9648438,1.4804687 c -4.1287536,0 -7.4843751,3.3556215 -7.4843751,7.4843751 V 41.035156 c 0,4.128754 3.3556215,7.484375 7.4843751,7.484375 H 41.035156 c 4.128754,0 7.484375,-3.355621 7.484375,-7.484375 V 8.9648438 c 0,-4.1287536 -3.355621,-7.4843751 -7.484375,-7.4843751 z m 0,2.0000001 H 41.035156 c 3.055348,0 5.484375,2.4290269 5.484375,5.484375 V 41.035156 c 0,3.055348 -2.429027,5.484375 -5.484375,5.484375 H 8.9648438 c -3.0553481,0 -5.484375,-2.429027 -5.484375,-5.484375 V 8.9648438 c 0,-3.0553481 2.4290269,-5.4843751 5.484375,-5.484375 z"
         id="path12"
         inkscape:label="pathRed" /><path
         style="baseline-shift:baseline;display:inline;overflow:visible;opacity:1;vector-effect:none;fill:url(#linearGradient14);enable-background:accumulate;stop-color:#000000;stop-opacity:1"
         d="m 8.9648438,1.4804687 c -4.1287536,0 -7.4843751,3.3556215 -7.4843751,7.4843751 V 41.035156 c 0,4.128754 3.3556215,7.484375 7.4843751,7.484375 H 41.035156 c 4.128754,0 7.484375,-3.355621 7.484375,-7.484375 V 8.9648438 c 0,-4.1287536 -3.355621,-7.4843751 -7.484375,-7.4843751 z m 0,2.0000001 H 41.035156 c 3.055348,0 5.484375,2.4290269 5.484375,5.484375 V 41.035156 c 0,3.055348 -2.429027,5.484375 -5.484375,5.484375 H 8.9648438 c -3.0553481,0 -5.484375,-2.429027 -5.484375,-5.484375 V 8.9648438 c 0,-3.0553481 2.4290269,-5.4843751 5.484375,-5.484375 z"
         id="path13"
         inkscape:label="pathPurple" /></g><rect
       style="font-variation-settings:normal;display:inline;opacity:1;vector-effect:none;fill:#000000;stroke:none;stroke-width:0.260698;stroke-linecap:butt;stroke-linejoin:miter;stroke-miterlimit:4;stroke-dasharray:none;stroke-dashoffset:0;stroke-opacity:1;-inkscape-stroke:none;stop-color:#000000;stop-opacity:1;fill-opacity:0.10316139"
       id="rect2"
       width="50"
       height="50"
       x="0"
       y="-50"
       rx="7.1983109"
       ry="7.1983109"
       transform="scale(1,-1)"
       inkscape:label="Darken" /></g></svg>
