<?xml version="1.0" encoding="UTF-8" standalone="no"?>
<svg
   clip-rule="evenodd"
   fill-rule="evenodd"
   stroke-linejoin="round"
   stroke-miterlimit="2"
   viewBox="0 0 48 48"
   version="1.1"
   id="svg8"
   sodipodi:docname="Krita_Box.svg"
   xml:space="preserve"
   inkscape:export-filename="Krita_Box.svg"
   inkscape:export-xdpi="96"
   inkscape:export-ydpi="96"
   width="48"
   height="48"
   inkscape:version="1.4.2 (ebf0e940d0, 2025-05-08)"
   xmlns:inkscape="http://www.inkscape.org/namespaces/inkscape"
   xmlns:sodipodi="http://sodipodi.sourceforge.net/DTD/sodipodi-0.dtd"
   xmlns:xlink="http://www.w3.org/1999/xlink"
   xmlns="http://www.w3.org/2000/svg"
   xmlns:svg="http://www.w3.org/2000/svg"><defs
     id="defs8"><linearGradient
       id="linearGradient10"
       x2="1"
       gradientTransform="matrix(-0.147804,45.5275,-45.5275,-0.147804,24.1478,1.23647)"
       gradientUnits="userSpaceOnUse"><stop
         stop-color="#e900dd"
         offset="0"
         id="stop7" /><stop
         stop-color="#a7a8e4"
         offset="0.5"
         id="stop8"
         style="stop-color:#7579df;stop-opacity:1;" /><stop
         stop-color="#00afed"
         offset="0.99864894"
         id="stop9"
         style="stop-color:#008ec3;stop-opacity:1;" /></linearGradient><linearGradient
       inkscape:collect="always"
       xlink:href="#a"
       id="linearGradient9"
       x1="0.35761589"
       y1="21.774834"
       x2="45.57616"
       y2="21.774834"
       gradientUnits="userSpaceOnUse"
       gradientTransform="matrix(1.0398479,0,0,1.1121682,0.1179296,-0.21727809)" /><linearGradient
       inkscape:collect="always"
       xlink:href="#linearGradient10"
       id="linearGradient7"
       x1="-0.25000268"
       y1="24.000004"
       x2="48.250019"
       y2="24.000004"
       gradientUnits="userSpaceOnUse"
       gradientTransform="matrix(0.97959184,0,0,0.97959184,0.48979569,0.48979569)" /></defs><sodipodi:namedview
     id="namedview8"
     pagecolor="#ffffff"
     bordercolor="#000000"
     borderopacity="0.25"
     inkscape:showpageshadow="2"
     inkscape:pageopacity="0.0"
     inkscape:pagecheckerboard="0"
     inkscape:deskcolor="#d1d1d1"
     inkscape:zoom="11.313709"
     inkscape:cx="4.1542523"
     inkscape:cy="24.306796"
     inkscape:window-width="2560"
     inkscape:window-height="1412"
     inkscape:window-x="0"
     inkscape:window-y="0"
     inkscape:window-maximized="1"
     inkscape:current-layer="svg8"><inkscape:page
       x="0"
       y="0"
       width="48"
       height="48"
       id="page1"
       margin="0"
       bleed="0" /></sodipodi:namedview><linearGradient
     id="a"
     x2="1"
     gradientTransform="matrix(-0.147804,45.5275,-45.5275,-0.147804,24.1478,1.23647)"
     gradientUnits="userSpaceOnUse"><stop
       stop-color="#e900dd"
       offset="0"
       id="stop1" /><stop
       stop-color="#a7a8e4"
       offset=".5"
       id="stop2" /><stop
       stop-color="#00afed"
       offset="1"
       id="stop3" /></linearGradient><linearGradient
     id="b"
     x2="1"
     gradientTransform="matrix(26.621,0,0,26.621,8.74268,32.8826)"
     gradientUnits="userSpaceOnUse"><stop
       stop-color="#90a8e3"
       stop-opacity="0"
       offset="0"
       id="stop4" /><stop
       stop-color="#003eb8"
       offset="1"
       id="stop5" /></linearGradient><rect
     style="opacity:1;fill:url(#linearGradient9);stroke:url(#linearGradient7);stroke-width:1;stroke-dasharray:none;stroke-opacity:1"
     id="rect8"
     width="47.020409"
     height="47.020409"
     x="0.48979568"
     y="0.48979568"
     ry="10.119154" /><g
     transform="translate(5.0284566,0.36891579)"
     fill-rule="nonzero"
     id="g8"><path
       d="M 31.799,30.575 C 23.498,41.949 7.443,37.578 2,25.578 c 0.885,5.971 8.146,14.419 14.583,15.428 5.637,0.883 15.44,-0.353 18.781,-6.27 z"
       fill="url(#b)"
       id="path5"
       style="fill:url(#b)" /><path
       d="M 27.811,27.062 C 24.784,29.85 18.01,24.478 15.552,21.701 13.024,18.844 3.583,9.21 2.893,8.585 2.203,7.96 1.653,7.189 2.264,6.421 2.899,5.673 3.777,6.045 4.539,6.582 5.301,7.12 16.8,14.249 20.154,16.101 c 3.261,1.801 9.797,7.463 7.657,10.961 z"
       fill="#2f2f2f"
       id="path6" /><path
       d="m 31.755,28.175 c 0.312,0.797 -1.116,2.528 -1.973,2.392 -0.591,-0.093 -5.062,-2.871 -5.062,-2.871 -0.26,-0.612 -0.274,-1.64 0.593,-2.703 0.878,-1.077 1.836,-1.333 2.499,-1.21 0,0 3.729,3.843 3.943,4.392 z"
       fill="#ececec"
       id="path7" /><path
       d="m 30.33,39.1 c 5.297,-2.311 6.486,-6.62 5.053,-9.186 -1.113,-1.993 -2.942,-2.37 -4.205,-1.406 -1.253,0.956 -1.363,2.096 -0.99,3.227 0.763,2.309 2.623,4.985 0.142,7.365 z"
       fill="#000725"
       id="path8" /></g></svg>
