<?xml version="1.0" encoding="UTF-8" standalone="no"?>
<svg
   inkscape:version="1.4.2 (ebf0e940d0, 2025-05-08)"
   sodipodi:docname="Linux_Box.svg"
   viewBox="0 0 500.49978 500.49979"
   height="500.49979"
   width="500.49979"
   id="svg10"
   version="1.1"
   xml:space="preserve"
   inkscape:export-filename="FreeBSD_Box.svg"
   inkscape:export-xdpi="196.41167"
   inkscape:export-ydpi="196.41167"
   xmlns:inkscape="http://www.inkscape.org/namespaces/inkscape"
   xmlns:sodipodi="http://sodipodi.sourceforge.net/DTD/sodipodi-0.dtd"
   xmlns:xlink="http://www.w3.org/1999/xlink"
   xmlns="http://www.w3.org/2000/svg"
   xmlns:svg="http://www.w3.org/2000/svg"
   xmlns:rdf="http://www.w3.org/1999/02/22-rdf-syntax-ns#"
   xmlns:cc="http://creativecommons.org/ns#"
   xmlns:dc="http://purl.org/dc/elements/1.1/"><metadata
     id="metadata16"><rdf:RDF><cc:Work
         rdf:about=""><dc:format>image/svg+xml</dc:format><dc:type
           rdf:resource="http://purl.org/dc/dcmitype/StillImage" /><dc:title /></cc:Work></rdf:RDF></metadata><defs
     id="defs14"><linearGradient
       id="linearGradient14"
       inkscape:collect="always"><stop
         style="stop-color:#171717;stop-opacity:1;"
         offset="0.00138609"
         id="stop14" /><stop
         style="stop-color:#000000;stop-opacity:1;"
         offset="1"
         id="stop15" /></linearGradient><linearGradient
       id="linearGradient857"
       inkscape:collect="always"><stop
         id="stop853"
         offset="0"
         style="stop-color:#ffffff;stop-opacity:0.34553534;" /><stop
         id="stop855"
         offset="1"
         style="stop-color:#ffffff;stop-opacity:0;" /></linearGradient><filter
       height="2.036836"
       y="-0.51841802"
       width="1.9006912"
       x="-0.45034562"
       id="filter5354"
       style="color-interpolation-filters:sRGB"
       inkscape:collect="always"><feGaussianBlur
         id="feGaussianBlur5356"
         stdDeviation="12.388762"
         inkscape:collect="always" /></filter><radialGradient
       inkscape:collect="always"
       xlink:href="#linearGradient14"
       id="radialGradient17"
       gradientUnits="userSpaceOnUse"
       gradientTransform="matrix(2.138732,0,0,1.4723629,-57.074454,-46.405346)"
       cx="50.121059"
       cy="98.240883"
       fx="50.121059"
       fy="98.240883"
       r="51.06337" /><linearGradient
       inkscape:collect="always"
       xlink:href="#linearGradient857"
       id="linearGradient18"
       x1="50.121063"
       y1="-1.0633707"
       x2="50.121063"
       y2="37.052311"
       gradientUnits="userSpaceOnUse"
       gradientTransform="matrix(4.9007712,0,0,8.4384747,4.6081455,4.4014372)" /><linearGradient
       id="linearGradient172"><stop
         style="stop-color:#3f2600;stop-opacity:0.6;"
         offset="0"
         id="stop173" /><stop
         style="stop-color:#3f2600;stop-opacity:0;"
         offset="1"
         id="stop174" /></linearGradient><linearGradient
       id="linearGradient167"><stop
         style="stop-color:#ffffff;stop-opacity:0.65;"
         offset="0"
         id="stop168" /><stop
         style="stop-color:#ffffff;stop-opacity:0;"
         offset="1"
         id="stop169" /></linearGradient><linearGradient
       id="linearGradient162"><stop
         style="stop-color:#ffa63f;stop-opacity:1;"
         offset="0"
         id="stop163" /><stop
         style="stop-color:#ffff00;stop-opacity:1;"
         offset="1"
         id="stop164" /></linearGradient><linearGradient
       id="linearGradient153"><stop
         style="stop-color:#ffeed7;stop-opacity:1;"
         offset="0"
         id="stop154" /><stop
         style="stop-color:#bdbfc2;stop-opacity:1;"
         offset="1"
         id="stop155" /></linearGradient><linearGradient
       id="linearGradient138"><stop
         style="stop-color:#ffffff;stop-opacity:0.8;"
         offset="0"
         id="stop139" /><stop
         style="stop-color:#ffffff;stop-opacity:0;"
         offset="1"
         id="stop140" /></linearGradient><radialGradient
       xlink:href="#linearGradient172"
       id="radialGradient1399"
       gradientTransform="scale(1.045233,0.956725)"
       cx="446.77762"
       cy="1219.4125"
       fx="446.77762"
       fy="1219.4125"
       r="195.07191"
       gradientUnits="userSpaceOnUse" /><linearGradient
       xlink:href="#linearGradient153"
       id="linearGradient1401"
       gradientUnits="userSpaceOnUse"
       x1="400.57785"
       y1="369.53015"
       x2="400.84448"
       y2="304.07886"
       gradientTransform="scale(0.575262,1.738339)" /><linearGradient
       xlink:href="#linearGradient138"
       id="linearGradient1403"
       gradientUnits="userSpaceOnUse"
       x1="303.01761"
       y1="237.93179"
       x2="297.0856"
       y2="330.09561"
       gradientTransform="scale(1.116071,0.896001)" /><linearGradient
       xlink:href="#linearGradient153"
       id="linearGradient1405"
       gradientUnits="userSpaceOnUse"
       gradientTransform="scale(0.816497,1.224744)"
       x1="378.93771"
       y1="278.60202"
       x2="380.27319"
       y2="243.91606" /><linearGradient
       xlink:href="#linearGradient153"
       id="linearGradient1407"
       gradientUnits="userSpaceOnUse"
       x1="381.38742"
       y1="277.495"
       x2="380.5517"
       y2="245.68338"
       gradientTransform="scale(0.816497,1.224744)" /><linearGradient
       xlink:href="#linearGradient167"
       id="linearGradient1409"
       gradientUnits="userSpaceOnUse"
       gradientTransform="scale(0.816497,1.224744)"
       x1="379.09573"
       y1="240.92712"
       x2="376.79556"
       y2="281.01636" /><linearGradient
       xlink:href="#linearGradient167"
       id="linearGradient1411"
       gradientUnits="userSpaceOnUse"
       x1="389.63535"
       y1="242.28218"
       x2="387.06866"
       y2="281.32513"
       gradientTransform="scale(0.816497,1.224744)" /><linearGradient
       xlink:href="#linearGradient153"
       id="linearGradient1413"
       gradientUnits="userSpaceOnUse"
       spreadMethod="reflect"
       x1="437.57941"
       y1="528.87177"
       x2="437.57941"
       y2="394.10361"
       gradientTransform="scale(0.812855,1.230232)" /><linearGradient
       xlink:href="#linearGradient153"
       id="linearGradient1415"
       gradientUnits="userSpaceOnUse"
       x1="375.17325"
       y1="419.78485"
       x2="377.48541"
       y2="324.03815"
       gradientTransform="scale(0.649784,1.538974)" /><linearGradient
       xlink:href="#linearGradient138"
       id="linearGradient1417"
       gradientUnits="userSpaceOnUse"
       x1="320.75104"
       y1="498.17776"
       x2="321.32224"
       y2="614.50439"
       gradientTransform="scale(1.074798,0.930408)" /><linearGradient
       xlink:href="#linearGradient167"
       id="linearGradient1419"
       gradientUnits="userSpaceOnUse"
       x1="322.48257"
       y1="435.26761"
       x2="323.2514"
       y2="488.48251"
       gradientTransform="scale(1.077001,0.928504)" /><linearGradient
       xlink:href="#linearGradient167"
       id="linearGradient1421"
       gradientUnits="userSpaceOnUse"
       x1="411.2215"
       y1="242.94365"
       x2="411.2215"
       y2="331.44858"
       gradientTransform="scale(0.571707,1.749147)" /><linearGradient
       xlink:href="#linearGradient167"
       id="linearGradient1423"
       gradientUnits="userSpaceOnUse"
       x1="867.34546"
       y1="234.73897"
       x2="867.33453"
       y2="314.83911"
       gradientTransform="scale(0.572667,1.746214)" /><linearGradient
       xlink:href="#linearGradient162"
       id="linearGradient1425"
       gradientUnits="userSpaceOnUse"
       x1="236.25362"
       y1="657.11133"
       x2="212.5099"
       y2="737.41229"
       gradientTransform="scale(1.011514,0.988617)" /><linearGradient
       xlink:href="#linearGradient153"
       id="linearGradient1427"
       gradientUnits="userSpaceOnUse"
       x1="381.56607"
       y1="655.73102"
       x2="279.64313"
       y2="386.66583"
       gradientTransform="scale(1.065499,0.938527)" /><linearGradient
       xlink:href="#linearGradient162"
       id="linearGradient1429"
       gradientUnits="userSpaceOnUse"
       x1="218.11714"
       y1="630.30475"
       x2="203.12654"
       y2="737.8537"
       gradientTransform="scale(1.009851,0.990245)" /><linearGradient
       xlink:href="#linearGradient167"
       id="linearGradient1431"
       gradientUnits="userSpaceOnUse"
       gradientTransform="scale(1.007724,0.992335)"
       x1="117.88966"
       y1="587.23602"
       x2="182.24524"
       y2="704.73077" /><linearGradient
       xlink:href="#linearGradient167"
       id="linearGradient1433"
       gradientUnits="userSpaceOnUse"
       x1="223.10072"
       y1="570.41809"
       x2="230.53499"
       y2="710.97723"
       gradientTransform="scale(0.999504,1.000496)" /><linearGradient
       xlink:href="#linearGradient167"
       id="linearGradient1435"
       gradientUnits="userSpaceOnUse"
       x1="316.93988"
       y1="474.01779"
       x2="371.60889"
       y2="582.63507"
       gradientTransform="scale(1.065499,0.938527)" /><linearGradient
       xlink:href="#linearGradient162"
       id="linearGradient1437"
       gradientUnits="userSpaceOnUse"
       x1="284.68652"
       y1="410.46326"
       x2="285.45923"
       y2="485.69934"
       gradientTransform="scale(1.218684,0.820557)" /><linearGradient
       xlink:href="#linearGradient167"
       id="linearGradient1439"
       gradientUnits="userSpaceOnUse"
       x1="288.82358"
       y1="398.85422"
       x2="288.37628"
       y2="482.55939"
       gradientTransform="scale(1.221941,0.81837)" /><style
       id="style2">.a{opacity:0.28;}.b{fill:#fff;stroke:#707070;opacity:0;}.c,.d,.e{fill:#1f2044;}.d{opacity:0.79;}.e{opacity:0.54;}.f{stroke:none;}.g{fill:none;}</style></defs><sodipodi:namedview
     inkscape:current-layer="g18"
     inkscape:window-maximized="1"
     inkscape:window-y="0"
     inkscape:window-x="0"
     inkscape:cy="319.18575"
     inkscape:cx="98.98413"
     inkscape:zoom="1.6416773"
     showgrid="false"
     id="namedview12"
     inkscape:window-height="1412"
     inkscape:window-width="2560"
     inkscape:pageshadow="2"
     inkscape:pageopacity="0"
     guidetolerance="10"
     gridtolerance="10"
     objecttolerance="10"
     borderopacity="1"
     bordercolor="#666666"
     pagecolor="#ffffff"
     inkscape:showpageshadow="2"
     inkscape:pagecheckerboard="0"
     inkscape:deskcolor="#d1d1d1"><inkscape:page
       x="0"
       y="0"
       width="500.49979"
       height="500.49979"
       id="page1"
       margin="0"
       bleed="0" /></sodipodi:namedview><g
     id="g18"
     inkscape:label="Linux"
     inkscape:groupmode="layer"
     transform="translate(0.00989297,0.80989586)"><rect
       style="clip-rule:evenodd;opacity:1;fill:url(#radialGradient17);fill-rule:evenodd;stroke:none;stroke-width:2.12674;stroke-linejoin:round;stroke-miterlimit:2;stroke-dasharray:none;stroke-opacity:1"
       id="rect8"
       width="100"
       height="100"
       x="0.12106147"
       y="0"
       ry="21.520769"
       transform="matrix(4.9007712,0,0,4.9007712,4.6081476,4.4014407)"
       inkscape:label="Background" /><rect
       style="clip-rule:evenodd;opacity:1;fill:url(#linearGradient18);fill-rule:evenodd;stroke:none;stroke-width:13.6766;stroke-linejoin:round;stroke-miterlimit:2;stroke-dasharray:none;stroke-opacity:1"
       id="rect18"
       width="490.07712"
       height="843.84735"
       x="5.2014399"
       y="4.4014368"
       ry="105.35719"
       inkscape:label="Light" /><g
       transform="matrix(4.9794274,0,0,4.9794274,64.031826,335.87776)"
       id="g28"
       style="opacity:1;fill:#ffffff;fill-opacity:1"
       inkscape:label="Text"><path
         class="c"
         d="M 61.861,405.864 V 404.4 h 8.156 v 1.445 h -1.5 a 0.593,0.593 0 0 0 -0.6,0.6 v 15.405 h 5.037 c 0,0 0.85,0.482 1.077,-3.937 h 2.1 v 5.41 H 61.88 v -1.3 h 1.558 c 0,0 0.666,-0.2 0.666,-0.666 v -14.97 c 0,0 -0.071,-0.482 -0.807,-0.482 z"
         transform="translate(-61.861,-403.038)"
         id="path12"
         style="fill:#ffffff;fill-opacity:1"
         inkscape:connector-curvature="0" /><path
         class="c"
         d="M 217.575,456.736 V 455.6 l 3.881,-1.473 h 1.5 v 12.209 c 0,0 0.028,0.651 0.878,0.651 h 1.048 v 1.161 h -7.337 v -1.218 h 1.1 c 0,0 0.737,-0.085 0.793,-0.538 v -9.66 z"
         transform="translate(-202.118,-447.835)"
         id="path14"
         style="fill:#ffffff;fill-opacity:1"
         inkscape:connector-curvature="0" /><path
         class="c"
         d="m 310.891,467.892 h -6.94 v -1.218 h 1.077 c 0,0 0.736,-0.085 0.764,-0.595 v -9.688 h -1.926 V 455.2 l 3.966,-1.36 h 1.416 v 1.728 c 0,0 3.088,-1.671 4.9,-1.671 a 3.383,3.383 0 0 1 3.654,3.682 v 8.385 a 0.834,0.834 0 0 0 0.906,0.68 h 1.1 v 1.246 H 312.9 v -1.3 h 0.963 a 0.7,0.7 0 0 0 0.623,-0.538 v -7.309 a 2.552,2.552 0 0 0 -2.634,-2.436 17.149,17.149 0 0 0 -2.578,0.538 v 9.235 a 0.767,0.767 0 0 0 0.709,0.538 h 0.935 z"
         transform="translate(-279.883,-447.576)"
         id="path16"
         style="fill:#ffffff;fill-opacity:1"
         inkscape:connector-curvature="0" /><path
         class="c"
         d="m 475.268,456.364 h -1.9 v -1.133 l 3.853,-1.359 h 1.558 v 9.235 c 0,0 -0.113,2.917 2.635,2.691 a 12.086,12.086 0 0 0 2.464,-0.454 v -8.951 h -1.868 v -1.133 l 3.8,-1.416 h 1.558 V 466 c 0,0 -0.028,0.567 0.708,0.623 h 1.1 v 1.332 h -5.3 v -1.53 c 0,0 -2.691,1.785 -4.872,1.756 0,0 -3.626,0.2 -3.74,-3.937 v -7.875 z"
         transform="translate(-432.588,-447.577)"
         id="path18"
         style="fill:#ffffff;fill-opacity:1"
         inkscape:connector-curvature="0" /><path
         class="c"
         d="m 641.5,457.432 v -1.3 h 6.77 v 1.268 c 0,0 -1.5,-0.057 -1.077,0.68 l 2.209,3.2 2.181,-3.2 c 0,0 0.539,-0.651 -1.19,-0.6 v -1.3 h 5.184 v 1.246 a 3.225,3.225 0 0 0 -1.813,0.623 l -3.343,4.476 4.164,5.977 a 3.211,3.211 0 0 0 1.5,0.312 v 1.161 h -6.657 v -1.048 c 0,0 1.5,0 1.02,-0.821 l -2.348,-3.506 -2.464,3.569 c 0,0 -0.623,0.595 1.246,0.566 v 1.189 h -5.439 v -1.161 a 2.378,2.378 0 0 0 1.813,-0.623 l 3.682,-4.788 -3.626,-5.3 c 0,0 -0.169,-0.592 -1.812,-0.62 z"
         transform="translate(-584.004,-449.636)"
         id="path20"
         style="fill:#ffffff;fill-opacity:1"
         inkscape:connector-curvature="0" /><path
         class="c"
         d="m 784,442.325 h -0.3 v -0.732 h 1.476 v 0.732 h -0.284 v -0.436 h -0.3 v 1.035 h 0.29 v 0.284 h -0.871 v -0.279 h 0.278 v -1.041 h -0.3 z"
         transform="translate(-712.164,-436.54)"
         id="path22"
         style="fill:#ffffff;fill-opacity:1"
         inkscape:connector-curvature="0" /><path
         class="c"
         d="m 800.126,443.049 v -0.29 h 0.145 v -1.035 h -0.145 v -0.315 h 0.435 v 0.309 h 0.163 v 0.315 h 0.139 v 0.127 h 0.152 v -0.145 h 0.157 v -0.278 h 0.139 v -0.321 h 0.442 v 0.3 h -0.146 v 1.047 h 0.146 v 0.29 h -0.732 v -0.3 h 0.3 v -0.448 h -0.151 v 0.139 h -0.146 v 0.163 h -0.157 v -0.151 h -0.139 V 442.3 h -0.163 v 0.436 h 0.3 v 0.311 z"
         transform="translate(-726.962,-436.375)"
         id="path24"
         style="fill:#ffffff;fill-opacity:1"
         inkscape:connector-curvature="0" /><circle
         class="c"
         cx="2.0929999"
         cy="2.0929999"
         transform="translate(17.158)"
         id="ellipse26"
         style="fill:#ffffff;fill-opacity:1"
         r="2.0929999" /></g><g
       id="group-R5-7-4"
       inkscape:label="Icon"
       transform="matrix(1.0640327,0,0,1.0640327,104.49609,88.513806)"><g
         id="g21383"
         transform="matrix(3.3552564,0,0,2.7928884,667.37538,-124.17699)"
         style="opacity:0.8;fill:#000000;fill-opacity:1;stroke-width:1.74258"
         inkscape:label="Shadow"><path
           id="path21381"
           style="opacity:1;fill:#000000;fill-opacity:1;stroke-width:1.74258;filter:url(#filter5354)"
           d="m -171.34591,51.064288 c -2.127,0.446 -4.451,1.172 -6.906,2.155 v 0 c -0.022,0.009 -0.091,0.035 -0.114,0.124 l -0.319,1.063 -5.911,19.8 c -0.007,0.021 -0.009,0.044 -0.009,0.07 0,0.096 0.043,0.215 0.091,0.25 0.009,0.007 0.021,0.012 0.028,0.016 l 10e-4,0.002 0.041,0.03 0.364,0.276 0.011,0.006 c 0.012,0.009 0.025,0.018 0.033,0.023 0.075,0.03 0.094,0.03 0.113,0.028 h 0.007 v 0 c 0,-0.002 0.003,-0.002 0.003,-0.002 v 0 -0.001 l 0.011,-0.003 c 0.054,-0.004 0.18,-0.059 0.181,-0.061 5.384,-2.067 9.69,-2.819 13.551,-2.361 1.647,0.195 3.24,0.617 4.872,1.287 1.299,0.535 2.641,1.235 4.217,2.202 l 0.022,0.01 h 0.005 l 0.019,0.01 h 0.001 0.002 l 0.005,0.003 0.006,0.004 h -0.002 c 0.001,0 0.125,0.06 0.228,0.033 0,-0.001 0.388,-0.17 0.388,-0.17 v 0 0 l 0.018,-0.012 c 0.051,-0.036 0.131,-0.091 0.154,-0.19 v 0 0 c 0,0 0,0 0,0 l 3.888,-13.001 2.089,-6.986 0.14,-0.461 c 0,-0.001 0.001,-0.01 0.001,-0.01 0,0 0.101,-0.339 0.101,-0.339 0.003,-0.01 0.004,-0.022 0.006,-0.035 0,-0.009 0,-0.018 0,-0.028 0,-0.079 -0.033,-0.146 -0.091,-0.185 -1.235,-0.81 -2.215,-1.395 -3.178,-1.893 l -0.065,-0.033 c -2.779,-1.434 -5.454,-2.13 -8.417,-2.19 -1.736,-0.036 -3.616,0.154 -5.585,0.569 z m 19.954,5.778 c -0.001,0 -0.105,0.073 -0.105,0.073 -0.211,0.153 -0.337,0.271 -0.372,0.352 l -0.001,0.002 c 0,0 0,10e-4 -0.001,10e-4 0,0.003 -0.021,0.07 -0.021,0.07 0,0.004 -6.165,20.654 -6.165,20.654 -0.017,0.05 -0.024,0.096 -0.024,0.136 0,0.226 0.209,0.342 0.213,0.343 v 0 h 0.001 c 0.489,0.317 0.993,0.622 1.5,0.903 2.366,1.429 4.704,2.378 7.148,2.9 1.416,0.307 2.888,0.468 4.376,0.481 1.608,0.016 3.292,-0.142 5,-0.465 2.535,-0.389 5.111,-1.154 7.653,-2.268 0,-0.002 0.007,-0.004 0.007,-0.004 0.048,-0.023 0.152,-0.091 0.206,-0.19 0,-0.005 6.269,-20.843 6.269,-20.843 0.012,-0.038 0.018,-0.072 0.018,-0.107 0,-0.179 -0.157,-0.329 -0.309,-0.459 -0.084,-0.078 -0.2,-0.177 -0.281,-0.211 -0.17,-0.078 -0.344,-0.053 -0.396,-0.022 -0.001,0 -0.004,0.004 -0.004,0.004 l -10e-4,0.001 c -1.535,0.613 -3.026,1.127 -4.433,1.531 -1.346,0.385 -2.658,0.679 -3.898,0.874 -1.18,0.186 -2.334,0.287 -3.432,0.303 -1.034,0.014 -2.054,-0.046 -3.03,-0.183 -1.752,-0.246 -3.43,-0.734 -5.124,-1.493 -1.683,-0.753 -3.192,-1.692 -4.32,-2.426 -0.193,-0.085 -0.278,-0.079 -0.474,0.043 z m -7.021,25.096 v 0 c -0.071,0.004 -0.144,0.031 -0.254,0.098 0,0.002 -0.001,0.003 -0.001,0.003 h -0.003 l -0.001,0.003 c -0.028,0.019 -0.099,0.066 -0.18,0.128 -0.165,0.125 -0.266,0.227 -0.294,0.296 h -0.001 c 0,0 0,0 0,0 0,0.005 -0.006,0.018 -0.006,0.018 l 0.001,-0.005 -0.001,0.007 v 0.002 l -6.145,20.606002 c -0.106,0.309 0.177,0.478 0.209,0.495 1.577,1.024 3.08,1.831 4.596,2.462 0.888,0.373 1.796,0.688 2.702,0.94 0.981,0.275 1.989,0.488 3,0.63 1.084,0.149 2.202,0.226 3.323,0.223 1.192,-0.006 2.427,-0.099 3.668,-0.277 1.311,-0.189 2.669,-0.48 4.037,-0.866 1.438,-0.403 2.926,-0.924 4.428,-1.546 0.002,0 0.009,-0.005 0.009,-0.005 0.042,-0.026 0.142,-0.087 0.192,-0.188 0,-0.002 6.001,-20.271002 6.003,-20.277002 0,-0.001 -0.002,-0.004 -0.002,-0.004 v -0.002 c 0.008,-0.03 0.009,-0.061 0.009,-0.088 0,-0.167 -0.107,-0.268 -0.108,-0.27 0,0.002 -0.503,-0.386 -0.503,-0.386 v 0 l -10e-4,-0.004 c -0.033,-0.035 -0.121,-0.091 -0.336,-0.06 -1.54,0.505 -3.026,0.923 -4.424,1.251 -1.348,0.313 -2.654,0.549 -3.885,0.699 -2.321,0.284 -4.421,0.284 -6.418,0 -1.759,-0.25 -3.422,-0.723 -5.084,-1.444 -1.343,-0.582 -2.711,-1.336 -4.305,-2.377 l -0.005,-0.002 h 0.002 c -0.1,-0.042 -0.162,-0.06 -0.222,-0.06 z m -15.261,-6.16 c -1.092,0.027 -2.244,0.14 -3.425,0.336 -1.239,0.206 -2.553,0.509 -3.903,0.903 -1.408,0.408 -2.905,0.93 -4.445,1.549 l -0.011,0.002 c -0.052,0.022 -0.089,0.065 -0.107,0.122 l -6.138,20.796 c -0.034,0.11 0.027,0.223 0.097,0.283 l 0.411,0.305002 c 0,0 0.007,0.004 0.013,0.01 0.099,0.065 0.199,0.063 0.239,0.057 0.002,0 0.013,-0.004 0.013,-0.004 2.299,-0.863002 4.348,-1.482002 6.266,-1.896002 1.869,-0.401 3.552,-0.592 5.146,-0.584 1.333,0.009 2.586,0.146 3.833,0.417 1.125,0.247 2.219,0.599 3.343,1.078 1.576,0.686 3.021,1.549002 4.104,2.223002 l 0.01,0.006 c 0,0 0,0.003 0,0.003 0.034,0.017 0.134,0.063 0.23,0.021 0,0 0.271,-0.155 0.352,-0.203 v 0 l 0.028,-0.019 c 0.055,-0.037 0.13,-0.088 0.152,-0.183 l 0.004,-0.021 c 0,0 0.002,0.003 0.003,0.005 0.012,-0.039 6.109,-20.252002 6.109,-20.252002 l 0.21,-0.694 c 0.003,-0.017 0.006,-0.037 0.006,-0.057 0,-0.079 -0.035,-0.153 -0.094,-0.195 -0.002,0 -0.007,-0.001 -0.007,-0.001 v -10e-4 c -2.601,-1.706 -5.54,-3.353 -9.414,-3.853 -0.975,-0.128 -1.991,-0.177 -3.025,-0.153 z"
           transform="matrix(1,0,0,1.2137875,0,-4.4377923)" /></g><g
         id="g1369"
         transform="matrix(0.37035463,0,0,0.37035463,-93.996754,-52.197802)"
         inkscape:label="Tux"><path
           transform="matrix(1.4177,0,0,0.414745,-38.7944,222.194)"
           d="m 670.88202,1166.6423 a 203.89551,186.63016 0 1 1 -407.79102,0 203.89551,186.63016 0 1 1 407.79102,0 z"
           id="path175"
           style="fill:url(#radialGradient1399);stroke:none;stroke-width:1pt;stroke-linecap:butt;stroke-linejoin:miter" /><path
           transform="matrix(1.25,0,0,1.25,185.454,-167.505)"
           id="path106"
           d="m 223.627,632.24 c -22.388,-32.223 -26.754,-136.984 25.487,-201.43 25.886,-30.918 32.49,-52.465 34.531,-81.393 1.389,-32.979 -23.325,-131.442 69.883,-138.944 94.406,-7.532 89.336,85.66 88.793,134.975 -0.451,41.64 30.574,65.241 51.796,97.695 39.279,59.63 35.957,162.3 -7.399,217.872 -54.917,69.568 -101.953,39.398 -133.19,41.93 -58.493,3.202 -60.427,34.391 -129.901,-70.705 z"
           style="fill:#000000;stroke:none;stroke-width:1.25" /><path
           transform="matrix(-1.67739,-0.0224516,-0.0211236,1.4709,1173.58,-293.017)"
           id="path113"
           d="m 246.571,470.864 c -12.239,12.496 -44.396,69.092 4.869,105.36 17.369,12.633 -16.377,59.495 -32.005,36.308 -27.57,-41.618 -8.831,-106.941 8.315,-130.188 11.652,-16.487 29.23,-22.676 18.821,-11.48 z"
           style="fill:url(#linearGradient1401);stroke:none;stroke-width:0.994649" /><path
           transform="matrix(-1.67755,0,0,1.52374,1174.62,-318.082)"
           id="path111"
           d="m 256.513,459.837 c -19.915,17.717 -56.176,80.091 -3.288,120.606 17.37,12.632 -15.393,52.463 -33.79,32.089 -63.963,-70.82 1.669,-152.254 24.262,-180.25 20.192,-24.347 38.078,5.752 12.816,27.555 z"
           style="fill:#000000;stroke:#000000;stroke-width:0.977298" /><path
           transform="matrix(1.26626,-0.0713667,-0.0459795,1.19574,202.143,-125.761)"
           d="m 399.56879,258.15753 a 58.37323,46.863022 0 1 1 -116.74646,0 58.37323,46.863022 0 1 1 116.74646,0 z"
           id="path114"
           style="fill:url(#linearGradient1403);stroke:none;stroke-width:1.26499" /><path
           transform="matrix(1.30445,-0.0755326,0.0771251,1.34257,144.757,-177.617)"
           d="m 328.86324,320.64151 a 18.08748,27.131196 0 1 1 -36.17496,0 18.08748,27.131196 0 1 1 36.17496,0 z"
           id="path115"
           style="fill:url(#linearGradient1405);stroke:none;stroke-width:1.17873" /><path
           transform="matrix(-1.81082,0.0495107,0.0317324,1.55333,1207.46,-284.777)"
           d="m 328.86324,320.64151 a 18.08748,27.131196 0 1 1 -36.17496,0 18.08748,27.131196 0 1 1 36.17496,0 z"
           id="path116"
           style="fill:url(#linearGradient1407);stroke:none;stroke-width:0.931385" /><path
           transform="matrix(-0.823196,-0.00176123,-0.0182321,0.852662,913.674,-37.9902)"
           d="m 328.86324,320.64151 a 18.08748,27.131196 0 1 1 -36.17496,0 18.08748,27.131196 0 1 1 36.17496,0 z"
           id="path117"
           style="fill:#000000;stroke:none;stroke-width:1.86496" /><path
           transform="matrix(0.59438,-0.0722959,0.0688176,0.705838,367.448,32.4186)"
           d="m 328.86324,320.64151 a 18.08748,27.131196 0 1 1 -36.17496,0 18.08748,27.131196 0 1 1 36.17496,0 z"
           id="path118"
           style="fill:#000000;stroke:none;stroke-width:2.39815" /><path
           transform="matrix(-0.480323,-0.036454,-0.0467935,0.475606,813.496,87.0124)"
           d="m 328.86324,320.64151 a 18.08748,27.131196 0 1 1 -36.17496,0 18.08748,27.131196 0 1 1 36.17496,0 z"
           id="path121"
           style="fill:url(#linearGradient1409);stroke:none;stroke-width:3.19161" /><path
           transform="matrix(0.35691,-0.0408211,0.0413232,0.398544,449.334,114.991)"
           d="m 328.86324,320.64151 a 18.08748,27.131196 0 1 1 -36.17496,0 18.08748,27.131196 0 1 1 36.17496,0 z"
           id="path122"
           style="fill:url(#linearGradient1411);stroke:none;stroke-width:4.12026" /><path
           transform="matrix(1.25,0,0,1.25,185.454,-168.23)"
           id="path128"
           d="m 258.702,495.425 c 12.836,-29.103 40.114,-80.226 40.695,-119.758 0,-31.442 94.179,-38.951 101.737,-7.558 7.558,31.393 26.741,78.483 38.95,101.156 12.208,22.672 47.809,94.695 9.884,157.546 -34.157,55.644 -137.725,99.666 -193.01,-7.557 -18.603,-37.207 -15.285,-83.315 1.744,-123.829 z"
           style="fill:url(#linearGradient1413);stroke:none;stroke-width:1.25" /><path
           transform="matrix(1.38936,-0.111074,0.102211,1.30214,108.413,-165.938)"
           id="path112"
           d="m 242.905,473.815 c -11.263,18.967 -35.5,69.309 12.137,102.047 51.311,34.82 46.473,97.062 -15.607,61.955 -56.777,-31.789 -22.845,-137.778 -4.51,-162.266 12.107,-17.214 29.897,-38.031 7.98,-1.736 z"
           style="fill:url(#linearGradient1415);stroke:none;stroke-width:1.15804" /><path
           transform="matrix(1.25,0,0,1.25,185.454,-167.505)"
           id="path109"
           d="m 256.513,449.72 c -17.465,28.508 -59.377,95.813 -3.288,130.723 75.569,46.355 54.173,92.711 -14.799,50.974 -97.109,-58.264 -11.825,-175.616 27.131,-220.338 44.444,-50.2 8.554,9.087 -9.044,38.641 z"
           style="fill:#000000;stroke:#000000;stroke-width:1.25" /><path
           id="path125"
           d="m 421.481,504.727 c 0,32.412 -29.272,74.516 -79.528,74.138 -51.828,0.455 -73.949,-41.726 -73.949,-74.138 0,-32.412 34.379,-58.717 76.739,-58.717 42.359,0 76.738,26.305 76.738,58.717 z"
           style="font-size:12px;fill:url(#linearGradient1417);stroke:none;stroke-width:1.23705;stroke-dasharray:none"
           transform="matrix(1.30209,0,0,1.22525,170.042,-153.557)" /><path
           id="path127"
           d="m 398.227,412.292 c -0.612,38.572 -23.18,47.671 -51.74,47.671 -28.561,0 -49.292,-5.694 -51.741,-47.671 0,-26.314 23.18,-41.542 51.741,-41.542 28.56,0 51.74,15.228 51.74,41.542 z"
           style="font-size:12px;fill:url(#linearGradient1419);stroke:none;stroke-width:1.38846;stroke-dasharray:none"
           transform="matrix(1.1868,0,0,1.06708,210.623,-100.078)" /><path
           transform="matrix(1.25,0,0,1.25,185.454,-167.505)"
           id="path129"
           d="m 234.285,456.475 c 17.716,-26.996 55.015,-68.364 6.977,5.813 -38.951,61.043 -14.403,100.273 -1.744,111.039 36.527,32.562 34.966,54.349 6.395,37.206 -61.625,-36.626 -48.835,-98.248 -11.628,-154.058 z"
           style="fill:url(#linearGradient1421);stroke:none;stroke-width:1.25" /><path
           transform="matrix(1.25,0,0,1.25,185.454,-167.505)"
           id="path131"
           d="m 490.662,467.52 c -15.319,-31.701 -64.134,-111.902 2.326,-18.603 60.461,84.297 18.022,143.013 10.464,148.827 -7.557,5.813 -33.137,17.44 -25.579,-2.907 7.557,-20.347 45.234,-58.973 12.789,-127.317 z"
           style="fill:url(#linearGradient1423);stroke:none;stroke-width:1.25" /><path
           transform="matrix(1.25,0,0,1.25,185.454,-167.505)"
           id="path132"
           d="m 220.915,716.921 c -40.442,-21.416 -99.252,4.124 -77.902,-54.066 4.276,-13.238 -6.375,-33.008 0.581,-45.926 8.139,-15.698 25.58,-12.209 36.045,-22.674 10.318,-10.891 16.859,-29.649 36.044,-26.742 19.184,2.907 31.945,26.461 45.344,55.229 9.883,20.638 44.941,49.664 42.65,72.758 -2.696,35.5 -43.027,42.19 -82.762,21.421 z"
           style="fill:url(#linearGradient1425);stroke:#e68c3f;stroke-width:6.25" /><path
           id="path177"
           d="m 415.072,495.764 c -3.007,24.906 -35.813,76.627 -69.518,81.534 -34.26,5.336 -66.432,-34.06 -74.147,-71.114 -9.889,-41.206 22.587,-57.6 71.938,-56.627 53.301,1.654 74.121,13.891 71.727,46.207 z"
           style="font-size:12px;fill:url(#linearGradient1427);stroke:none;stroke-width:2.8551;stroke-dasharray:none"
           transform="matrix(0.598206,0.268584,-0.239623,0.617213,700.568,140.464)" /><path
           transform="matrix(-1.1685,0.423145,0.475283,1.16478,728.343,-213.821)"
           id="path133"
           d="m 220.274,718.402 c -41.327,-23.59 -99.894,5.605 -77.261,-55.547 4.736,-13.068 -6.596,-33.552 0.36,-46.47 8.139,-15.698 25.801,-11.665 36.266,-22.13 10.318,-10.891 18.827,-27.868 38.012,-24.961 19.184,2.907 29.977,24.68 43.376,53.448 9.883,20.638 43.415,48.971 41.124,72.065 -2.696,35.5 -42.724,45.471 -81.877,23.595 z"
           style="fill:url(#linearGradient1429);stroke:#e68c3f;stroke-width:6.25068" /><path
           transform="matrix(-0.945096,0.343745,0.424076,0.956058,714.328,-64.342)"
           id="path134"
           d="m 216.482,675.68 c -86.531,-57.503 -47.308,-70.96 -36.843,-81.425 10.318,-10.891 18.827,-27.868 38.012,-24.961 19.184,2.907 29.977,24.68 43.376,53.448 9.883,20.638 43.06,48.918 41.124,72.065 -2.616,27.11 -48.19,5.487 -85.669,-19.127 z"
           style="fill:url(#linearGradient1431);stroke:none;stroke-width:1.52532" /><path
           transform="matrix(1.00431,-0.052286,-0.0174,1.04575,244.191,-28.4653)"
           id="path135"
           d="m 216.506,677.071 c -86.531,-57.503 -46.797,-73.57 -33.946,-81.28 15.399,-9.942 15.158,-30.831 34.343,-27.924 19.184,2.907 30.725,26.107 44.124,54.875 9.883,20.638 43.06,48.918 41.124,72.065 -2.616,27.11 -48.166,6.878 -85.645,-17.736 z"
           style="fill:url(#linearGradient1433);stroke:none;stroke-width:1.52532" /><path
           id="path136"
           d="m 415.072,495.764 c -3.007,24.906 -35.813,76.627 -69.518,81.534 -34.26,5.336 -66.432,-34.06 -74.147,-71.114 -9.889,-41.206 22.587,-57.6 71.938,-56.627 53.301,1.654 74.121,13.891 71.727,46.207 z"
           style="font-size:12px;fill:#000000;stroke:none;stroke-width:2.8551"
           transform="matrix(0.515584,0.215259,-0.206526,0.49467,713.3,222.559)" /><path
           id="path137"
           d="m 415.072,495.764 c -3.007,24.906 -35.813,76.627 -69.518,81.534 -34.26,5.336 -66.432,-34.06 -74.147,-71.114 -9.889,-41.206 22.587,-57.6 71.938,-56.627 53.301,1.654 74.121,13.891 71.727,46.207 z"
           style="font-size:12px;fill:url(#linearGradient1435);stroke:none;stroke-width:2.8551"
           transform="matrix(0.351231,0.149463,-0.128856,0.343469,724.522,318.291)" /><path
           transform="matrix(1.25,0,0,1.25,185.454,-167.505)"
           id="path119"
           d="m 309.954,338.729 c 7.147,-6.77 24.811,-27.066 57.961,-5.755 6.162,4.01 11.162,4.377 23.021,9.455 23.726,9.749 12.382,33.259 -12.744,41.108 -10.758,3.489 -20.536,16.556 -40.129,15.439 -16.734,-0.977 -21.119,-11.874 -31.398,-17.906 -18.269,-10.311 -20.965,-24.254 -11.1,-31.653 9.866,-7.399 13.725,-10.059 14.389,-10.688 z"
           style="fill:url(#linearGradient1437);stroke:#e68c3f;stroke-width:3.75" /><path
           transform="matrix(1.25,0,0,1.25,185.454,-167.505)"
           id="path120"
           d="m 391.251,357.645 c -9.883,0.581 -31.393,22.091 -54.066,22.091 -22.673,0 -36.044,-20.929 -39.532,-20.929"
           style="fill:none;stroke:#e68c3f;stroke-width:2.5" /><path
           transform="matrix(0.627885,0,0,0.595666,392.366,51.8173)"
           id="path123"
           d="m 309.954,338.729 c 7.147,-6.77 29.691,-25.348 59.588,-6.328 6.299,3.766 12.804,7.865 22.478,13.464 19.162,11.748 9.671,28.678 -13.286,39.39 -10.418,4.495 -27.593,14.415 -40.671,13.721 -14.533,-1.408 -23.935,-11.399 -33.567,-17.906 -17.67,-12.303 -16.597,-22.237 -8.389,-30.508 6.205,-5.679 13.183,-11.204 13.847,-11.833 z"
           style="fill:url(#linearGradient1439);stroke:none" /></g></g><rect
       style="clip-rule:evenodd;opacity:1;fill:none;fill-rule:evenodd;stroke:#1c1c1c;stroke-width:2.12674;stroke-linejoin:round;stroke-miterlimit:2;stroke-dasharray:none;stroke-opacity:1"
       id="rect17"
       width="100"
       height="100"
       x="0.12106147"
       y="0"
       ry="21.520769"
       inkscape:label="Frame"
       transform="matrix(4.9007712,0,0,4.9007712,4.6081476,4.4014407)" /></g><title
     id="title1">FreeBSD logo - Brandlogos.net</title></svg>
