<?xml version="1.0" encoding="UTF-8" standalone="no"?>
<!-- Created with Inkscape (http://www.inkscape.org/) -->

<svg
   width="50.000008mm"
   height="50.000008mm"
   viewBox="0 0 50.000008 50.000008"
   version="1.1"
   id="svg1"
   xml:space="preserve"
   sodipodi:docname="Rust_Box.svg"
   inkscape:version="1.4.3 (0d15f75, 2025-12-25)"
   inkscape:export-filename="Lua_Box.svg"
   inkscape:export-xdpi="260.09595"
   inkscape:export-ydpi="260.09595"
   xmlns:inkscape="http://www.inkscape.org/namespaces/inkscape"
   xmlns:sodipodi="http://sodipodi.sourceforge.net/DTD/sodipodi-0.dtd"
   xmlns:xlink="http://www.w3.org/1999/xlink"
   xmlns="http://www.w3.org/2000/svg"
   xmlns:svg="http://www.w3.org/2000/svg"><sodipodi:namedview
     id="namedview1"
     pagecolor="#505050"
     bordercolor="#ffffff"
     borderopacity="1"
     inkscape:showpageshadow="0"
     inkscape:pageopacity="0"
     inkscape:pagecheckerboard="1"
     inkscape:deskcolor="#505050"
     inkscape:document-units="mm"
     inkscape:zoom="2.8284272"
     inkscape:cx="-21.036426"
     inkscape:cy="147.96209"
     inkscape:window-width="2560"
     inkscape:window-height="1369"
     inkscape:window-x="-8"
     inkscape:window-y="-8"
     inkscape:window-maximized="1"
     inkscape:current-layer="layer1"><inkscape:page
       x="0"
       y="0"
       width="50.000008"
       height="50.000008"
       id="page1"
       margin="0"
       bleed="0" /></sodipodi:namedview><defs
     id="defs1"><linearGradient
       id="linearGradient14"
       inkscape:collect="always"><stop
         style="stop-color:#ffffff;stop-opacity:0.751634;"
         offset="0"
         id="stop14" /><stop
         style="stop-color:#ffffff;stop-opacity:0;"
         offset="1"
         id="stop15" /></linearGradient><linearGradient
       id="linearGradient12"
       inkscape:collect="always"><stop
         style="stop-color:#ffffff;stop-opacity:0.498366;"
         offset="0"
         id="stop12" /><stop
         style="stop-color:#ffffff;stop-opacity:0;"
         offset="1"
         id="stop13" /></linearGradient><linearGradient
       id="linearGradient3"
       inkscape:collect="always"><stop
         style="stop-color:#ffffff;stop-opacity:0.34640524;"
         offset="0"
         id="stop3" /><stop
         style="stop-color:#ffffff;stop-opacity:0.10294118;"
         offset="1"
         id="stop5" /></linearGradient><filter
       style="color-interpolation-filters:sRGB"
       id="filter1"
       x="-0.06882552"
       y="-0.06882552"
       width="1.137651"
       height="1.137651"><feGaussianBlur
         stdDeviation="0.9600145"
         id="feGaussianBlur1" /></filter><clipPath
       clipPathUnits="userSpaceOnUse"
       id="clipPath29"><use
         x="0"
         y="0"
         xlink:href="#g28"
         id="use29" /></clipPath><linearGradient
       inkscape:collect="always"
       xlink:href="#linearGradient3"
       id="linearGradient5"
       x1="47.447346"
       y1="2.4337115"
       x2="25"
       y2="24.881058"
       gradientUnits="userSpaceOnUse" /><filter
       inkscape:collect="always"
       style="color-interpolation-filters:sRGB"
       id="filter10"
       x="-0.048002696"
       y="-0.047997309"
       width="1.0960054"
       height="1.0959946"><feGaussianBlur
         inkscape:collect="always"
         stdDeviation="16.60094"
         id="feGaussianBlur10" /></filter><filter
       inkscape:collect="always"
       style="color-interpolation-filters:sRGB"
       id="filter11"
       x="-0.048527913"
       y="-0.048526562"
       width="1.0970572"
       height="1.0970546"><feGaussianBlur
         inkscape:collect="always"
         stdDeviation="18.941236"
         id="feGaussianBlur11" /></filter><linearGradient
       inkscape:collect="always"
       xlink:href="#linearGradient12"
       id="linearGradient13"
       x1="835.5"
       y1="111.60022"
       x2="111.50036"
       y2="835.59985"
       gradientUnits="userSpaceOnUse" /><linearGradient
       inkscape:collect="always"
       xlink:href="#linearGradient14"
       id="linearGradient15"
       x1="941.49994"
       y1="5.5"
       x2="729.50006"
       y2="217.49989"
       gradientUnits="userSpaceOnUse" /></defs><g
     id="layer1"
     inkscape:label="Lua"><g
       id="g29"
       clip-path="url(#clipPath29)"
       style="display:inline"><g
         inkscape:label="Clip"
         id="g28"><rect
           style="font-variation-settings:normal;display:inline;fill:#00003d;fill-opacity:1;stroke:none;stroke-width:0.980392;stroke-linecap:butt;stroke-linejoin:miter;stroke-miterlimit:4;stroke-dasharray:none;stroke-dashoffset:0;stroke-opacity:1;stop-color:#000000"
           id="rect26"
           width="49.019608"
           height="49.019608"
           x="0.49019623"
           y="0.3712548"
           rx="7.0571675"
           ry="7.0571675"
           inkscape:label="Background" /><rect
           style="font-variation-settings:normal;display:inline;fill:url(#linearGradient5);stroke:none;stroke-width:0.980392;stroke-linecap:butt;stroke-linejoin:miter;stroke-miterlimit:4;stroke-dasharray:none;stroke-dashoffset:0;stroke-opacity:1;stop-color:#000000"
           id="rect2"
           width="49.019608"
           height="49.019608"
           x="0.49019623"
           y="0.3712548"
           rx="7.0571675"
           ry="7.0571675"
           inkscape:label="Light" /><rect
           style="font-variation-settings:normal;display:inline;fill:none;stroke:#000000;stroke-width:1.99928;stroke-linecap:butt;stroke-linejoin:miter;stroke-miterlimit:4;stroke-dasharray:none;stroke-dashoffset:0;stroke-opacity:1;filter:url(#filter1);stop-color:#000000"
           id="rect1"
           width="48.000725"
           height="48.000725"
           x="0.99963778"
           y="0.99963778"
           rx="6.9104829"
           ry="6.9104829"
           inkscape:label="Shadow" /></g></g><rect
       style="font-variation-settings:normal;display:inline;fill:none;stroke:#5959ac;stroke-width:1.99928;stroke-linecap:butt;stroke-linejoin:miter;stroke-miterlimit:4;stroke-dasharray:none;stroke-dashoffset:0;stroke-opacity:1;stop-color:#000000"
       id="rect1-18-1"
       width="48.000725"
       height="48.000725"
       x="0.99963778"
       y="0.99963778"
       rx="6.9104829"
       ry="6.9104829"
       inkscape:label="Border" /><g
       id="g10"
       inkscape:label="Shadow"
       style="stroke:none"><path
         id="path8"
         d="m 835.50142,5.5028254 c -58.5,0 -106.00082,47.5008226 -106.00082,106.0008246 0,58.5 47.50082,106.00082 106.00082,106.00082 58.5,0 106.00082,-47.40082 106.00082,-106.00082 0,-58.500002 -47.50082,-106.0008246 -106.00082,-106.0008246 z M 473.50162,111.59681 c -199.8,0 -361.99979,162.19979 -361.99979,361.99979 0,199.8 162.19979,361.9998 361.99979,361.9998 199.8,0 361.9998,-162.1998 361.9998,-361.9998 0,-199.8 -162.1998,-361.99979 -361.9998,-361.99979 z"
         transform="matrix(0.03883015,0,0,0.03883015,6.6138854,6.6138147)"
         style="fill:#000000;fill-opacity:1;stroke:none;filter:url(#filter10)" /><path
         style="baseline-shift:baseline;display:inline;overflow:visible;opacity:1;mix-blend-mode:normal;vector-effect:none;fill:none;stroke:#000000;stroke-miterlimit:10;stroke-dasharray:40.8475;stroke-opacity:1;filter:url(#filter11);enable-background:accumulate;stop-color:#000000;stop-opacity:1"
         d="m 473.6875,-0.02929688 -0.0234,10.85937488 1.58594,0.0039 0.0234,-10.86132775 z m -1.61523,0.0039063 -1.58594,0.0039063 0.0332,10.86132828 1.58594,-0.0039 z m 4.80859,0.0078125 -0.0664,10.86132808 0.53516,0.002 1.02734,0.01172 0.11328,-10.8613282 -1.05078,-0.00976563 z m -8.01563,0.01171875 -1.48046,0.01367188 -0.14063,0.00195313 0.17383,10.86132832 0.10351,-0.002 1.44727,-0.01367 z m 11.23243,0.02148438 -0.15625,10.86132795 1.2539,0.01758 0.3086,0.0059 0.20312,-10.85937533 -0.33203,-0.0058594 z m -14.43946,0.01953125 -1.32617,0.02148437 -0.29297,0.0058594 0.24024,10.85937493 0.25976,-0.0059 1.29297,-0.02149 z m 17.63477,0.03515625 -0.20313,10.85937545 h 0.0274 l 1.53515,0.03516 0.24805,-10.85742208 -1.55664,-0.03515625 z M 462.45312,0.09765625 461.28516,0.125 l -0.45313,0.0117188 0.31055,10.8574222 0.41797,-0.01172 1.13281,-0.02539 z m 24.05665,0.05078125 -0.29297,10.8574215 0.74414,0.01953 0.81836,0.02539 0.33789,-10.8554685 -0.8418,-0.0253906 z m -27.26172,0.0332031 -1.00391,0.0292969 -0.61719,0.0214844 0.37891,10.8554691 0.58203,-0.02149 0.96875,-0.02734 z m 30.47656,0.0664063 -0.38281,10.8535161 1.45703,0.05273 0.10547,0.0039 0.42773,-10.85351548 -0.12695,-0.003906 z m -33.68164,0.0390625 -0.83594,0.0292969 -0.7832,0.0332031 0.44726,10.8515626 0.74805,-0.03125 0.80273,-0.02734 z m 36.875,0.0800781 -0.42969,10.8535155 0.23047,0.0078 1.33203,0.05859 0.47461,-10.849609 -1.35742,-0.0605469 z m -40.08008,0.046875 -0.66211,0.0273438 -0.95703,0.0449219 0.51758,10.8496098 0.91992,-0.04297 0.62891,-0.02734 z m 43.29297,0.0976563 -0.51758,10.8476562 0.93945,0.04492 0.62305,0.0332 0.5625,-10.8476562 -0.64453,-0.0332031 z M 449.63477,0.5625 l -0.48829,0.0234375 -1.1289,0.0605469 0.58398,10.8457036 1.09571,-0.05859 0.45312,-0.02149 z m 49.70898,0.11328125 -0.60742,10.84374975 1.58398,0.08789 0.60742,-10.84375013 z m -52.91016,0.0566406 -0.30859,0.015625 -1.30859,0.0800781 0.65234,10.84179705 1.27539,-0.07813 0.27344,-0.01367 z m 56.09961,0.12695313 -0.65234,10.84179702 0.41797,0.02539 1.14258,0.07422 0.69726,-10.83984352 -1.16601,-0.0742188 z m -59.30078,0.0644531 -0.125,0.005859 -1.49219,0.0996094 0.72266,10.8378915 1.45703,-0.09766 0.0899,-0.0059 z m 62.51172,0.14453132 -0.74219,10.8359376 1.1211,0.07617 0.4375,0.0332 0.78906,-10.8339846 -0.46094,-0.033203 z m -65.74609,0.070312 -1.58203,0.1152343 0.79101,10.8320313 1.58203,-0.115235 z m 68.95507,0.158203 -0.83203,10.8300776 1.58203,0.121094 0.83204,-10.8300779 z m -72.15234,0.076172 -1.58203,0.125 0.85937,10.8281256 1.58204,-0.125 z m 75.33789,0.1738281 -0.87695,10.8261725 0.59375,0.04883 0.96289,0.08203 0.92187,-10.8222658 -0.98632,-0.083984 z m -78.53515,0.083984 -1.58008,0.1347656 0.92773,10.8222659 1.58008,-0.136719 z m 81.74023,0.1894531 -0.9668,10.8183594 1.29297,0.115234 0.26367,0.02539 L 516.94531,1.9648437 516.6582,1.9375 Z m -84.93359,0.087891 -1.58008,0.1464844 0.99609,10.814454 1.58008,-0.144532 z m 88.11523,0.2050782 -1.01172,10.8144532 0.0625,0.0059 1.49414,0.144531 1.05469,-10.8085941 -1.51563,-0.1484375 z m -91.30859,0.09375 -1.57813,0.15625 1.06445,10.8085942 1.57813,-0.154297 z m 94.50976,0.2226562 -1.10156,10.806641 0.75977,0.07617 0.79687,0.08398 1.14453,-10.8007813 -0.81836,-0.085937 z m -97.69922,0.099609 -1.57812,0.1660156 1.13281,10.8007814 1.57813,-0.166016 z m 100.89844,0.2382812 -1.18945,10.7968748 1.45312,0.160156 0.0996,0.01172 1.23633,-10.7910153 -0.12305,-0.013672 z m -104.08789,0.1035157 -1.57617,0.1757812 1.20117,10.7949219 1.57617,-0.175781 z M 528.09961,3.125 l -1.23438,10.791016 0.22461,0.02539 1.32813,0.158203 1.2793,-10.7851559 -1.35157,-0.1621093 z m -110.44727,0.1113281 -1.46679,0.171875 -0.14258,0.017578 1.33789,10.7792969 0.10742,-0.01367 1.43359,-0.169922 z m 113.64258,0.2714844 -1.32422,10.7792965 0.91602,0.113282 0.63672,0.08008 1.36718,-10.7753909 -0.6582,-0.082031 z m -116.82617,0.1132813 -1.24805,0.1542968 -0.35937,0.046875 1.40625,10.7695314 0.32422,-0.04102 1.21484,-0.15039 z m 120.01758,0.2890625 -1.41211,10.7695317 1.57226,0.205078 1.41211,-10.7695316 z m -123.19727,0.1171874 -1.02734,0.1347657 -0.57813,0.078125 1.47266,10.7617186 0.54492,-0.07422 0.99219,-0.130859 z m 126.36328,0.3046875 -1.45703,10.7636718 0.37696,0.05078 1.17187,0.16211 1.50195,-10.7558596 -1.19531,-0.1679688 z m -129.54101,0.1230469 -0.80274,0.1113281 -0.80273,0.1152344 1.54101,10.7500004 0.76954,-0.109375 0.76757,-0.105469 z m 132.72851,0.3242188 -1.54687,10.7500001 1.0625,0.152344 0.48437,0.07226 1.5918,-10.7441404 -0.50781,-0.076172 z M 404.9375,4.90625 l -0.57617,0.082031 -1.02735,0.1542969 1.60743,10.7402351 0.99414,-0.148438 0.54101,-0.07813 z m 139.08398,0.3398437 -1.63476,10.7363283 1.56836,0.240234 1.63476,-10.738281 z m -142.25586,0.1308594 -0.3457,0.050781 -1.25586,0.1972656 1.67578,10.7304693 1.22266,-0.191407 0.31055,-0.04492 z M 547.17969,5.7324219 545.5,16.462891 l 0.51953,0.08203 1.02539,0.164062 1.72266,-10.724609 -1.04688,-0.1679688 z m -148.58399,0.1367187 -0.10937,0.017578 -1.48828,0.2421875 1.74218,10.7207029 1.45508,-0.236328 0.0762,-0.01367 z m 151.75977,0.375 -1.76758,10.7148434 1.20117,0.199219 0.3418,0.05664 1.81055,-10.7089846 -0.36329,-0.060547 z m -154.95703,0.1464844 -1.56446,0.2636719 1.81055,10.7089841 1.56445,-0.263672 z m 158.1289,0.3847656 -1.85547,10.7011714 1.5625,0.271485 1.85743,-10.7031251 z m -161.29101,0.1503906 -1.56055,0.2753907 1.87695,10.6972651 1.5625,-0.273437 z m 164.43945,0.4003907 -1.90039,10.6933591 0.65625,0.117188 0.88281,0.160156 1.94336,-10.6855469 -0.90429,-0.1640625 z m -167.5957,0.1582031 -1.56055,0.2851562 1.94531,10.6855468 1.56055,-0.285156 z m 170.75976,0.4160156 -1.98828,10.6777344 1.33399,0.248047 0.20312,0.03906 2.0332,-10.6679684 -0.22656,-0.044922 z m -173.91406,0.1640625 -1.55859,0.2949219 2.01172,10.671875 1.55859,-0.292969 z m 177.05274,0.4277344 -2.03125,10.6699215 0.11328,0.02148 1.42187,0.277343 2.07617,-10.6601557 -1.44531,-0.28125 z M 382.77734,8.6660156 381.2207,8.96875 l 2.07813,10.660156 1.55664,-0.302734 z m 183.35938,0.4453125 -2.1211,10.6523439 0.78907,0.15625 0.74414,0.152344 2.16406,-10.6425785 -0.76758,-0.15625 z m -186.50586,0.1757813 -1.52344,0.3085937 -0.0644,0.013672 2.21289,10.6328119 0.0312,-0.0059 1.49023,-0.300781 z m 189.6582,0.4648437 -2.20703,10.6328129 1.45899,0.304687 0.0723,0.01367 2.25,-10.625 -0.0937,-0.01953 z m -192.79883,0.1796875 -1.26953,0.2636724 -0.3164,0.06836 2.27929,10.61914 0.28321,-0.06055 1.23632,-0.257813 z m 195.92579,0.4746094 -2.25196,10.626953 0.24219,0.05078 1.28711,0.277344 2.29492,-10.615234 -1.30859,-0.283203 z m -199.0625,0.189453 -1.01172,0.216797 -0.57032,0.126953 2.34375,10.605469 0.53907,-0.119141 0.97851,-0.210937 z m 202.20507,0.494141 -2.33789,10.605468 0.91211,0.201172 0.61524,0.138672 2.38086,-10.595703 -0.63477,-0.144531 z m -205.33593,0.193359 -0.75391,0.166016 -0.82813,0.1875 2.41211,10.589843 0.79493,-0.179687 0.7207,-0.160156 z m 208.47656,0.509766 -2.42578,10.585937 1.54492,0.355469 2.42578,-10.587891 z m -211.60352,0.197265 -0.49414,0.111329 -1.08398,0.253906 2.47656,10.576172 1.05273,-0.248047 0.45899,-0.103516 z m 214.71485,0.521485 -2.46875,10.578125 0.36718,0.08594 1.1543,0.273438 2.51367,-10.566406 -1.17578,-0.279297 z m -217.83789,0.207031 -0.23047,0.05273 -1.34571,0.324219 2.54493,10.558594 1.31054,-0.314453 0.19922,-0.04687 z m 220.96679,0.539063 -2.55664,10.55664 1.03516,0.25 0.48437,0.121094 2.59961,-10.546875 -0.50586,-0.125 z m -224.11718,0.21875 -1.53907,0.380859 2.60938,10.542969 1.53906,-0.38086 z m 227.24218,0.548828 -2.64258,10.535156 1.53711,0.384765 2.64454,-10.535156 z m -230.35351,0.222656 -1.53711,0.390625 2.67578,10.527344 1.53711,-0.390625 z m 233.45117,0.560547 -2.6875,10.523437 0.49023,0.125 1.02344,0.265625 2.73047,-10.511718 -1.04688,-0.271485 z m -236.55859,0.232422 -1.53321,0.40039 2.74024,10.509766 1.53515,-0.400391 z m 239.67187,0.576172 -2.77344,10.501953 1.15039,0.302734 0.36133,0.09766 2.81641,-10.490234 -0.38281,-0.101563 z m -242.77148,0.238281 -1.53321,0.410156 2.80664,10.492187 1.53321,-0.410156 z m 245.8789,0.591797 -2.85937,10.478515 1.52929,0.416016 2.86133,-10.476563 z m -248.97461,0.24414 -1.52929,0.419922 2.87109,10.474609 1.5293,-0.419921 z m 252.05469,0.601563 -2.90234,10.466797 0.60937,0.167968 0.89649,0.253907 2.94531,-10.455079 -0.91797,-0.257812 z m -255.14453,0.253906 -1.40625,0.396484 -0.15234,0.04297 3.00195,10.439453 0.11914,-0.03516 1.375,-0.386719 z m 258.24219,0.619141 -2.99024,10.441406 1.26563,0.361328 0.23828,0.07031 3.03125,-10.429687 -0.25977,-0.07617 z m -261.32618,0.259765 -1.1289,0.324219 -0.42578,0.125 3.0664,10.419922 0.39453,-0.117188 1.09571,-0.314453 z m 264.39454,0.626953 -3.03125,10.429688 0.0684,0.01953 1.43164,0.421875 3.07421,-10.416016 -1.45117,-0.429687 z m -267.47071,0.269532 -0.84961,0.25 -0.70312,0.21289 3.13086,10.400391 0.66992,-0.203125 0.81836,-0.240235 z m 270.55469,0.644531 -3.11719,10.404297 0.72461,0.216797 0.77149,0.234375 3.16015,-10.390625 -0.79297,-0.240235 z m -273.62695,0.27539 -0.56836,0.171875 -0.98047,0.300782 3.19531,10.380859 0.94727,-0.291016 0.53711,-0.162109 z m 276.70508,0.660157 -3.20313,10.376953 1.37891,0.425781 0.11523,0.03711 3.24609,-10.365234 -0.13867,-0.04297 z m -279.76954,0.279297 -0.28711,0.08789 -1.25976,0.396485 3.25976,10.361328 1.22657,-0.386719 0.25586,-0.07813 z m 282.82032,0.669921 -3.2461,10.363282 0.18946,0.06055 1.30078,0.412109 3.28906,-10.351563 -1.32227,-0.419921 z m -285.91211,0.300782 -1.50977,0.486328 3.32422,10.339844 1.50977,-0.486329 z m 288.97656,0.675781 -3.33008,10.337891 0.83985,0.269531 0.64648,0.21289 3.375,-10.324218 -0.66992,-0.21875 z m -292.02734,0.306641 -1.50782,0.496093 3.38868,10.31836 1.50781,-0.494141 z m 295.08593,0.689453 -3.41601,10.310547 1.48437,0.492187 3.45899,-10.296875 -0.0176,-0.0059 z m -298.13086,0.314453 -1.5039,0.503906 3.45117,10.298828 1.50391,-0.503906 z m 301.16211,0.697265 -3.45898,10.294922 0.30859,0.103516 1.17188,0.400391 3.50195,-10.28125 -1.19531,-0.40625 z m -304.19922,0.328125 -1.50195,0.511719 3.51563,10.277344 1.50195,-0.513672 z m 307.24219,0.710938 -3.54297,10.267578 0.95703,0.328125 0.52149,0.183594 3.58594,-10.251953 -0.54297,-0.191407 z m -310.27344,0.333984 -1.49804,0.521485 3.58008,10.255859 1.49609,-0.523437 z m 313.3125,0.72461 -3.62695,10.238281 1.49414,0.529297 3.62696,-10.238281 z m -316.33593,0.339843 -1.28516,0.457032 -0.24023,0.08789 3.70507,10.208985 0.20899,-0.07617 1.25391,-0.445313 z m 319.34375,0.732422 -3.66797,10.222657 0.42773,0.154296 1.04102,0.378907 3.71289,-10.207032 -1.06445,-0.386718 z m -322.35938,0.353516 -0.99414,0.359375 -0.52734,0.195312 3.76758,10.1875 0.49609,-0.183593 0.96289,-0.34961 z m 325.38281,0.748047 -3.7539,10.191406 1.07226,0.394531 0.39454,0.146485 3.79687,-10.175782 -0.41797,-0.154296 z m -328.39257,0.357422 -0.69922,0.257812 -0.81836,0.308594 3.83008,10.164062 0.78711,-0.296875 0.66796,-0.246093 z m 331.4082,0.761718 -3.83789,10.160157 1.48437,0.560547 3.83789,-10.160157 z m -334.41016,0.365235 -0.40429,0.152344 -1.10743,0.423828 3.89258,10.140625 1.07617,-0.414063 0.375,-0.140625 z m 337.39649,0.769531 -3.87891,10.144531 0.54883,0.208985 0.91016,0.353515 3.92187,-10.128906 -0.93164,-0.361328 z m -340.38867,0.376953 -0.11329,0.04297 -1.39648,0.544922 3.95508,10.115234 1.36523,-0.533203 0.082,-0.03125 z m 343.38867,0.783203 -3.96289,10.113282 1.1875,0.464843 0.26953,0.107422 4.0039,-10.097656 -0.28906,-0.113281 z m -346.40625,0.396485 -1.47266,0.585937 4.01758,10.091797 1.47266,-0.587891 z m 349.3789,0.777343 -4.0039,10.095704 0.0293,0.01172 1.42188,0.570313 4.04492,-10.078125 -1.4414,-0.580078 z m -352.35546,0.410157 -1.47071,0.595703 4.08008,10.066406 1.4707,-0.595703 z m 355.33789,0.792968 -4.08594,10.0625 0.66992,0.271485 0.77734,0.320312 4.12891,-10.046875 -0.79883,-0.328125 z m -358.30664,0.416016 -1.4668,0.605469 4.14062,10.041015 1.4668,-0.605468 z m 361.2832,0.804688 -4.16992,10.029296 1.30468,0.542969 0.13868,0.05859 4.21093,-10.011719 -0.1582,-0.06641 z m -364.24414,0.423828 -1.46289,0.615234 4.20312,10.013672 1.46289,-0.613281 z m 367.1914,0.810547 -4.21093,10.011718 0.1582,0.06641 1.2793,0.544921 4.2539,-9.99414 -1.30078,-0.552735 z m -370.14257,0.439453 -1.26954,0.541015 -0.2207,0.0957 4.32422,9.962891 0.19141,-0.08203 1.23632,-0.529297 z m 373.10156,0.822265 -4.29492,9.976563 0.79492,0.341797 0.64062,0.279297 4.33594,-9.958985 -0.66211,-0.287109 z m -376.04688,0.445313 -0.96679,0.419922 -0.51563,0.228515 4.38477,9.935547 0.48633,-0.214844 0.9375,-0.40625 z m 378.9961,0.83789 -4.375,9.939454 1.42578,0.628906 0.006,0.002 4.41601,-9.921875 -0.0254,-0.01172 z m -381.92969,0.451172 -0.66797,0.292969 -0.8125,0.365234 4.44727,9.910157 0.78125,-0.351563 0.63672,-0.28125 z m 384.85156,0.841797 -4.41797,9.921875 0.29102,0.13086 1.13672,0.509765 4.45703,-9.904297 -1.15625,-0.519531 z m -387.77929,0.466797 -0.36524,0.164063 -1.10937,0.503906 4.50781,9.882812 1.07812,-0.492187 0.33594,-0.150391 z m 390.71093,0.855469 -4.49804,9.886719 0.92187,0.417968 0.5,0.230469 4.54102,-9.867187 -0.52149,-0.238282 z m -393.62695,0.470703 -0.0684,0.03125 -1.40234,0.650391 4.5664,9.853515 1.37305,-0.634765 0.0371,-0.01758 z m 396.55273,0.871094 -4.58203,9.847656 1.43946,0.669922 4.58007,-9.847656 z m -399.49218,0.492187 -1.4336,0.675781 4.62696,9.826172 1.43359,-0.675781 z m 402.38476,0.861328 -4.62109,9.828125 0.42773,0.201172 0.98633,0.46875 4.66211,-9.810547 -1.00781,-0.478515 z m -405.2832,0.507813 -1.42969,0.683594 4.68555,9.798828 1.43164,-0.683594 z m 408.18945,0.873047 -4.70312,9.791015 1.05468,0.50586 0.35547,0.171875 4.74219,-9.771485 -0.37695,-0.18164 z m -411.07812,0.515625 -1.42578,0.693359 4.74609,9.769531 1.42578,-0.693359 z m 413.97461,0.884765 -4.78321,9.751953 1.42383,0.699219 4.7832,-9.751953 z m -416.85352,0.523438 -1.42187,0.701172 -0.0293,0.01367 4.86328,9.710937 h 0.002 l 1.39063,-0.685547 z m 419.71875,0.888672 -4.82226,9.732422 0.56445,0.279296 0.83398,0.417969 4.86328,-9.71289 -0.85351,-0.427735 z M 261.64844,49.939453 260.53125,50.5 l -0.32813,0.167969 4.92383,9.679687 0.29883,-0.152344 1.08789,-0.544921 z m 425.46679,0.902344 -4.90429,9.691406 1.18945,0.601563 0.20703,0.105468 4.94336,-9.669922 -0.22656,-0.117187 z m -428.32617,0.544922 -0.81445,0.414062 -0.62695,0.322266 4.98242,9.652344 0.59765,-0.308594 0.78516,-0.400391 z m 431.17383,0.904297 -4.94336,9.671875 0.0859,0.04297 1.30273,0.673828 4.98438,-9.65039 -1.32422,-0.683594 z m -434.02539,0.560546 -0.50977,0.263672 -0.92578,0.484375 5.04102,9.621094 0.89648,-0.46875 0.48047,-0.25 z m 436.88086,0.919922 -5.02344,9.628907 0.71094,0.371093 0.67383,0.355469 5.06445,-9.609375 -0.69531,-0.365234 z m -439.7207,0.564453 -0.20899,0.109375 -1.2207,0.650391 5.09765,9.587891 1.19336,-0.632813 0.17969,-0.09375 z m 442.56836,0.933594 -5.10352,9.587891 1.33008,0.707031 0.0508,0.02734 5.14258,-9.566406 -0.0723,-0.03906 z m -445.42774,0.585938 -1.39648,0.753906 5.1582,9.558594 1.39453,-0.753907 z m 448.24414,0.921875 -5.14258,9.566406 0.24024,0.128906 1.13476,0.615235 5.18164,-9.544922 -1.15429,-0.626953 z m -451.06445,0.603515 -1.39063,0.759766 5.21485,9.527344 1.39258,-0.759766 z m 453.89062,0.933594 -5.2207,9.523438 0.85938,0.470703 0.50976,0.283203 5.26172,-9.501953 -0.53125,-0.294922 z m -456.69922,0.609375 -1.38671,0.769531 5.27343,9.496094 1.38672,-0.771484 z m 459.51563,0.945313 -5.30078,9.480468 1.38476,0.773438 5.30079,-9.480469 z m -462.31445,0.615234 -1.38086,0.779297 5.33008,9.46289 1.38085,-0.777343 z m 465.09961,0.949219 -5.33985,9.458984 0.40039,0.224609 0.95899,0.546875 5.3789,-9.435546 -0.98047,-0.558594 z m -467.88672,0.632812 -1.17578,0.671875 -0.23047,0.132813 5.44531,9.398437 0.20117,-0.117187 1.14649,-0.654297 z m 470.68164,0.960938 -5.41797,9.414062 1.01367,0.583985 0.3418,0.197265 5.45508,-9.390625 -0.35938,-0.208984 z m -473.45899,0.638672 -0.87304,0.503906 -0.52735,0.310547 5.50196,9.365234 0.49804,-0.292969 0.84375,-0.488281 z m -2.76757,1.617187 -0.57032,0.335938 -0.82226,0.488281 5.55664,9.332031 0.79492,-0.472656 0.54102,-0.31836 z m -2.75586,1.636719 -0.26954,0.160156 -1.11718,0.673828 5.61328,9.298828 1.08984,-0.658203 0.24024,-0.142578 z m -2.77149,1.671875 -1.35351,0.828125 5.66992,9.263672 1.35156,-0.828125 z m -2.73242,1.675781 -1.34766,0.835938 5.72461,9.228515 1.34766,-0.835937 z m -2.72266,1.693359 -1.34179,0.84375 5.77929,9.195313 1.34375,-0.845703 z m -2.70898,1.710938 -1.33789,0.851562 5.83594,9.160157 1.33789,-0.851563 z m -2.69727,1.728516 -1.16406,0.751953 -0.19531,0.126953 5.94531,9.089844 0.16797,-0.109375 1.13672,-0.734375 z m -2.6875,1.748046 -0.86328,0.564454 -0.49023,0.324218 6,9.052735 0.46289,-0.304688 0.83594,-0.546875 z m -2.67578,1.765625 -0.56445,0.375 -0.78125,0.523438 6.05469,9.017578 0.7539,-0.505859 0.53711,-0.357422 z m -2.66211,1.783204 -0.26953,0.179687 -1.07031,0.728516 6.10937,8.980468 1.04297,-0.708984 0.24219,-0.164062 z m -2.67773,1.818359 -1.30664,0.900391 6.16211,8.943359 1.30664,-0.900391 z m -2.63867,1.820312 -1.29883,0.908204 6.21484,8.90625 1.30078,-0.908204 z m -2.625,1.837891 -1.29493,0.916016 6.26954,8.86914 1.29492,-0.916015 z m -2.61328,1.855469 -1.28907,0.923828 6.32227,8.830078 1.28906,-0.921875 z m -2.59961,1.873047 -1.10157,0.796875 -0.20898,0.154297 6.42773,8.753906 0.18164,-0.132813 1.07618,-0.779297 z m -2.58789,1.888672 -0.8086,0.59375 -0.49414,0.367187 6.47852,8.716797 0.46875,-0.34766 0.78125,-0.57421 z m -2.57618,1.908203 -0.51757,0.382812 -0.77735,0.585938 6.53125,8.677731 0.75195,-0.5664 0.49024,-0.36328 z m -2.5625,1.923828 -0.22851,0.171875 -1.06055,0.80664 6.58399,8.638668 1.03515,-0.7871 0.20117,-0.15235 z m -2.57617,1.960937 -1.25586,0.96875 6.63477,8.599606 1.25586,-0.96875 z m -2.53515,1.958985 -1.25,0.976561 6.68554,8.56055 1.25,-0.97656 z m -2.52344,1.978511 -1.24219,0.98243 6.73633,8.51953 1.24414,-0.98438 z m -2.50781,1.99219 -1.23829,0.99219 6.78711,8.47852 1.23828,-0.99219 z m -2.4961,2.00977 -1.00781,0.8164 -0.24805,0.20508 6.88867,8.39649 0.22461,-0.1836 0.98047,-0.79492 z m -2.48242,2.02734 -0.72266,0.5918 -0.52734,0.4375 6.93945,8.35547 0.50196,-0.41602 0.69726,-0.57226 z m -2.46875,2.04297 -0.44141,0.36523 -0.80078,0.67383 6.98828,8.31446 0.77735,-0.65235 0.41406,-0.3457 z m -2.45508,2.05859 -0.16211,0.13672 -1.07226,0.91211 7.03711,8.27149 1.04882,-0.89063 0.13672,-0.11523 z m -2.4668,2.09766 -1.20117,1.03516 7.08594,8.23047 1.20313,-1.03516 z m -2.42578,2.09375 -1.19531,1.04297 7.13477,8.1875 1.19726,-1.04297 z m -2.41211,2.10938 -1.18945,1.04882 7.18555,8.14649 1.18945,-1.04883 z m -2.39843,2.125 -1.16993,1.04687 -0.0371,0.0312 7.28125,8.06055 0.0117,-0.0117 1.14649,-1.02344 z m -2.38477,2.14257 -0.89453,0.8086 -0.30469,0.27734 7.33008,8.01563 0.28125,-0.25586 0.86914,-0.78711 z m -2.36914,2.15625 -0.62109,0.56836 -0.57032,0.52735 7.37696,7.97265 0.54687,-0.50586 0.59766,-0.54687 z m -2.35547,2.17383 -0.35156,0.32422 -0.83203,0.7793 7.42578,7.92773 0.80664,-0.75586 0.32812,-0.30469 z m -2.33984,2.1875 -0.084,0.0801 -1.09179,1.0332 7.4707,7.88281 1.06836,-1.01171 0.0605,-0.0566 z m -2.34961,2.22852 -1.14453,1.09765 7.51758,7.83789 1.14453,-1.09765 z m -2.31055,2.2207 -1.13672,1.10547 7.56446,7.79297 1.13671,-1.10547 z m -2.29492,2.23633 -1.13086,1.11133 7.61133,7.74804 1.13086,-1.11133 z m -2.28125,2.25195 -1.03906,1.03516 -0.10742,0.10547 7.70312,7.6582 0.084,-0.084 1.01758,-1.01171 z m -2.26367,2.26563 -0.7793,0.7832 -0.35937,0.36719 7.74804,7.61132 0.33789,-0.34375 0.75391,-0.75976 z m -2.25196,2.28125 -0.51757,0.52929 -0.61133,0.62891 7.79297,7.56445 0.58984,-0.60547 0.49609,-0.50586 z M 133,144.51953 l -0.26172,0.26953 -0.85937,0.89649 7.83789,7.51953 0.83789,-0.875 0.23828,-0.2461 z m -2.24219,2.33399 -1.09179,1.15234 7.88476,7.4707 1.08984,-1.15039 z m -2.20312,2.32812 -1.08399,1.1582 7.92774,7.42383 1.08398,-1.1582 z m -2.1875,2.3418 -1.07617,1.16406 7.9707,7.37695 1.07812,-1.16406 z m -2.17188,2.35742 -1.07031,1.16992 8.01562,7.33008 1.07032,-1.17188 z m -2.15429,2.37109 -0.91602,1.01367 -0.16797,0.1875 8.10156,7.23243 0.14649,-0.16407 0.89453,-0.98828 z m -2.14063,2.38477 -0.66797,0.74805 -0.4082,0.46093 8.14648,7.18555 0.38477,-0.4375 0.64648,-0.72461 z m -2.125,2.39844 -0.42383,0.48046 -0.64258,0.73829 8.1875,7.13476 0.6211,-0.71289 0.40234,-0.45508 z m -2.10742,2.41406 -0.18359,0.20898 -0.875,1.01563 8.23046,7.08789 0.85352,-0.99219 0.16211,-0.18555 z m -2.11328,2.45117 -1.02735,1.20898 8.27149,7.03711 1.02734,-1.20703 z m -2.07422,2.44336 -1.02149,1.21484 8.31446,6.98828 1.02148,-1.21484 z m -2.05859,2.45703 -1.01368,1.21875 8.35547,6.93945 1.01367,-1.2207 z m -2.04102,2.46875 -1.00781,1.22656 8.39843,6.88868 1.00586,-1.22657 z m -2.02539,2.48438 -0.80664,0.99218 -0.21094,0.26563 8.47852,6.78906 0.1914,-0.24023 0.78516,-0.96875 z m -2.00977,2.49609 -0.57422,0.7168 -0.43359,0.55078 8.51953,6.73633 0.41406,-0.52344 0.55274,-0.69141 z m -1.99218,2.50977 -0.34571,0.4375 -0.65234,0.83593 8.55859,6.6875 0.63282,-0.81054 0.32617,-0.41211 z m -1.974614,2.52343 -0.121094,0.15625 -0.86914,1.125 8.599608,6.63477 0.84766,-1.09961 0.10156,-0.12891 z m -1.978515,2.56446 -0.960938,1.26171 8.638677,6.58204 0.96093,-1.26172 z m -1.939454,2.55078 -0.953125,1.26758 8.677738,6.53125 0.95312,-1.26758 z m -1.921875,2.5625 -0.947265,1.27343 8.716793,6.48047 0.94727,-1.27343 z m -1.90625,2.57812 -0.933593,1.26953 -0.02539,0.0352 8.794922,6.375 0.0059,-0.01 0.914059,-1.24414 z m -1.888671,2.58789 -0.714844,0.98633 -0.234375,0.32617 8.832031,6.32227 0.214844,-0.30078 0.695312,-0.95899 z m -1.871094,2.60157 -0.501953,0.70117 -0.4375,0.61914 8.86914,6.26758 0.419922,-0.5918 0.482422,-0.67383 z m -1.853516,2.61523 -0.292969,0.41211 -0.636718,0.91211 8.90625,6.2168 0.61914,-0.88672 0.273438,-0.38672 z m -1.83789,2.625 -0.08398,0.12305 -0.833984,1.21093 8.943359,6.16211 0.816406,-1.18359 0.06641,-0.0957 z m -1.835938,2.66797 -0.892578,1.31055 8.982422,6.10742 0.890625,-1.31055 z m -1.798828,2.65039 -0.884766,1.31836 9.017578,6.05273 0.884766,-1.3164 z m -1.78125,2.66406 -0.876953,1.32227 9.052734,6 0.876953,-1.32227 z M 77,214.62695 l -0.847656,1.29883 -0.03711,0.0566 9.125,5.89063 0.01953,-0.0293 0.830078,-1.27148 z m -1.744141,2.6875 -0.65039,1.00782 -0.226563,0.35351 9.160156,5.83594 0.208985,-0.32617 0.632812,-0.98047 z m -1.728515,2.69922 -0.455078,0.71485 -0.41211,0.65429 9.195313,5.7793 0.394531,-0.625 0.4375,-0.6875 z m -1.710938,2.71094 -0.263672,0.42187 -0.591797,0.95313 9.230469,5.72461 0.574219,-0.92578 0.246094,-0.39258 z m -1.691406,2.72266 -0.07813,0.125 -0.767578,1.2539 9.263672,5.66992 0.751953,-1.22656 0.06055,-0.0977 z m -1.689453,2.76171 -0.820313,1.35743 9.298828,5.61328 0.820313,-1.35742 z m -1.654297,2.7461 -0.810547,1.36133 9.332031,5.55664 0.810547,-1.36133 z m -1.634766,2.75586 -0.802734,1.36718 9.365234,5.5 0.802735,-1.36718 z m -1.615234,2.76758 -0.792969,1.36914 -0.01953,0.0312 9.431641,5.38671 0.002,-0.002 0.777343,-1.3418 z m -1.597656,2.77734 -0.615235,1.07617 -0.1875,0.33203 9.464844,5.33008 0.169922,-0.30469 0.597656,-1.04492 z m -1.580078,2.78906 -0.439454,0.7793 -0.351562,0.63476 9.496094,5.27149 0.335937,-0.60547 0.421875,-0.75 z m -1.560547,2.80078 -0.267578,0.48047 -0.513672,0.9375 9.527343,5.21485 0.498047,-0.90821 0.251953,-0.45312 z m -1.542969,2.8086 -0.09961,0.18359 -0.669922,1.24023 9.558593,5.15821 0.654297,-1.21289 0.08398,-0.1543 z m -1.537109,2.84961 -0.744141,1.40039 9.589844,5.09961 0.74414,-1.40039 z m -1.501954,2.83203 -0.736328,1.40429 9.621094,5.04102 0.736328,-1.4043 z M 52.728516,256.17773 52,257.58594 l 9.652344,4.98242 0.726562,-1.4082 z m 842.714844,2.36719 -9.6875,4.91016 0.7168,1.41406 9.6875,-4.91016 z m -844.179688,0.48438 -0.71875,1.41211 9.68164,4.92382 0.71875,-1.41211 z m 845.619138,2.36523 -9.70703,4.875 0.125,0.24805 0.57422,1.15234 9.72461,-4.83789 -0.58399,-1.16992 z m -847.062498,0.49609 -0.605468,1.20704 -0.119141,0.24023 9.740234,4.80664 0.103516,-0.21094 0.589844,-1.17968 z m 848.490238,2.38086 -9.74219,4.80274 0.25,0.50781 0.43945,0.89844 9.75977,-4.76563 -0.44922,-0.91797 z m -849.916019,0.48829 -0.451172,0.9121 -0.261718,0.54297 9.767578,4.7461 0.25,-0.51367 0.435547,-0.88086 z m 851.324219,2.39843 -9.77734,4.73047 0.37109,0.76563 0.30859,0.64648 9.79493,-4.69531 -0.31836,-0.66211 z m -852.730469,0.48242 -0.298828,0.61524 -0.404297,0.84375 9.798828,4.6875 0.388672,-0.81445 0.285156,-0.58594 z m 854.121089,2.41407 -9.8125,4.6582 0.48633,1.02539 0.1836,0.39063 9.82812,-4.6211 -0.1914,-0.41015 z m -855.507808,0.47656 -0.152343,0.31641 -0.541016,1.14648 9.828125,4.62695 0.525391,-1.11718 0.136718,-0.28711 z m 856.876958,2.42969 -9.84571,4.58593 0.59766,1.28516 0.0625,0.13477 9.86328,-4.54883 -0.0723,-0.1543 z m -858.244145,0.46875 -0.0098,0.0176 -0.671875,1.45117 9.853516,4.5664 0.652344,-1.4082 z m 859.593745,2.44531 -9.8789,4.51367 0.66015,1.44336 9.87891,-4.51367 z m -860.955073,0.49414 -0.658203,1.44336 9.882812,4.50586 0.658203,-1.44336 z m 862.277343,2.41211 -9.89648,4.47656 0.10351,0.23047 0.53711,1.19922 9.91211,-4.44141 -0.54492,-1.21679 z m -863.603515,0.50586 -0.648438,1.44726 9.908204,4.44532 0.65039,-1.44727 z m 864.914065,2.42773 -9.92969,4.40235 0.2168,0.48633 0.41601,0.94726 9.94336,-4.36719 -0.42383,-0.96484 z m -866.220706,0.5 -0.640625,1.45118 9.9375,4.38476 0.640625,-1.45117 z m 867.509766,2.44141 -9.96094,4.33008 0.32422,0.74414 0.29883,0.69336 9.97656,-4.29297 -0.30664,-0.71289 z m -868.796875,0.49414 -0.619141,1.42773 -0.02539,0.0566 9.990234,4.26367 0.01172,-0.0254 0.607422,-1.39844 z m 870.068355,2.45508 -9.99218,4.25781 0.42578,1.00195 0.18554,0.43946 10.00782,-4.22071 -0.19336,-0.45898 z m -871.33398,0.48828 -0.486328,1.13672 -0.148438,0.35351 10.015625,4.20313 0.136719,-0.32422 0.470703,-1.10547 z m 872.58398,2.4707 -10.02343,4.1836 0.52539,1.25976 0.0781,0.18555 10.03906,-4.14649 -0.0859,-0.20507 z m -873.832027,0.48242 -0.353516,0.84375 -0.269531,0.65235 10.041016,4.14062 0.255859,-0.62109 0.341797,-0.8125 z m 875.062497,2.48438 -10.05273,4.10937 0.59961,1.46875 L 912.10352,295 Z m -876.289059,0.47656 -0.226563,0.55078 -0.384766,0.94922 10.066407,4.07813 0.371093,-0.91797 0.214844,-0.51953 z m 877.492189,2.48047 -10.06836,4.07422 0.0723,0.17578 0.50977,1.27734 10.08398,-4.03515 -0.51757,-1.29492 z m -878.699221,0.49024 -0.103515,0.25585 -0.498047,1.24805 10.091797,4.01758 0.484375,-1.21875 0.0918,-0.22461 z m 879.888671,2.49414 -10.09766,3.99804 0.17188,0.4336 0.40039,1.02343 10.11328,-3.96093 -0.4082,-1.04297 z m -881.087889,0.51367 -0.578125,1.47851 10.115234,3.95508 0.578125,-1.47851 z m 882.257809,2.47851 -10.12695,3.92383 0.26758,0.6875 0.29492,0.77344 10.14258,-3.88672 -0.30274,-0.79102 z m -883.423825,0.50782 -0.568359,1.48046 10.140625,3.89258 0.568359,-1.48047 z m 884.574215,2.49023 -10.15625,3.84961 0.35938,0.94531 0.19336,0.51953 10.16992,-3.81054 -0.20117,-0.53907 z m -885.718746,0.50391 -0.558594,1.48437 10.162109,3.83008 0.560547,-1.48438 z m 886.847656,2.5039 -10.18359,3.77539 0.44531,1.20313 0.0977,0.26562 10.19727,-3.73828 -0.10352,-0.28515 z m -887.972656,0.49805 -0.550782,1.48828 10.1875,3.76758 0.550782,-1.48828 z m 889.082026,2.51562 -10.21093,3.70118 0.52929,1.46093 0.004,0.0117 10.22461,-3.66406 -0.01,-0.0293 z m -890.185542,0.49415 -0.537109,1.47851 -0.01563,0.0449 10.232422,3.64063 0.0039,-0.0117 0.52539,-1.44727 z m 891.267582,2.50976 -10.22461,3.66211 0.0351,0.0977 0.48828,1.3789 10.23829,-3.625 -0.4961,-1.39843 z m -892.351566,0.50781 -0.425782,1.19141 -0.115234,0.33398 10.253906,3.58008 0.105469,-0.30273 0.414063,-1.16211 z m 893.419926,2.52149 -10.25196,3.58789 0.12305,0.35156 0.39062,1.12695 10.26368,-3.54882 -0.39649,-1.14649 z m -894.484379,0.50195 -0.316407,0.90625 -0.21289,0.625 10.277343,3.51367 0.201172,-0.58984 0.306641,-0.87695 z m 895.531249,2.53516 -10.27734,3.51172 0.20703,0.60742 0.29492,0.875 10.29102,-3.47461 -0.30079,-0.89258 z m -896.574218,0.49609 -0.212891,0.62305 -0.304687,0.91211 10.296875,3.45117 0.294922,-0.88086 0.203125,-0.58984 z m 897.601558,2.54688 -10.30468,3.43554 0.28906,0.86524 0.20508,0.62109 10.3164,-3.39648 -0.21093,-0.64063 z m -898.624996,0.49218 -0.113281,0.33789 -0.392578,1.19922 10.318359,3.38867 0.384766,-1.16796 0.101562,-0.30664 z m 899.630856,2.5586 -10.32812,3.35937 0.36523,1.12305 0.11719,0.36719 10.3418,-3.32227 -0.125,-0.38672 z m -900.632809,0.48633 -0.01758,0.0547 -0.478516,1.48633 10.341797,3.32422 0.466797,-1.45508 0.0078,-0.0234 z m 901.619139,2.57031 -10.35351,3.28515 0.43945,1.38086 0.0352,0.11133 10.36328,-3.24609 -0.041,-0.13086 z m -902.609373,0.51367 -0.47461,1.51367 10.359375,3.25977 0.476563,-1.51367 z m 903.568363,2.53125 -10.36329,3.24609 0.46094,1.4961 10.37696,-3.20899 -0.47071,-1.51758 z m -904.525394,0.52734 -0.466797,1.51563 10.378906,3.19726 0.466797,-1.51757 z m 905.468754,2.54297 -10.38868,3.16992 0.0781,0.25196 0.375,1.24804 10.40039,-3.13281 -0.38086,-1.26562 z m -906.408208,0.52344 -0.457031,1.51953 10.400391,3.13086 0.457031,-1.51953 z m 907.332028,2.55273 -10.41211,3.09375 0.15235,0.50977 0.29101,0.99219 10.42188,-3.05469 -0.29688,-1.01367 z m -908.248043,0.51954 -0.449219,1.52148 10.419922,3.06641 0.447266,-1.52149 z m 909.150393,2.5625 -10.4336,3.01757 0.22071,0.76758 0.21093,0.73828 10.44532,-2.97851 -0.2168,-0.75782 z m -910.046878,0.51562 -0.408203,1.41797 -0.03906,0.13867 10.457031,2.93555 0.0293,-0.10547 0.398437,-1.38477 z m 910.927738,2.57422 -10.45508,2.94141 0.28906,1.02343 0.13281,0.48438 10.4668,-2.90235 -0.13867,-0.5039 z m -911.804691,0.50976 -0.322265,1.14454 -0.113282,0.41601 10.47461,2.8711 0.105469,-0.38282 0.3125,-1.11328 z m 912.666011,2.58399 -10.47656,2.86523 0.34961,1.28321 0.0625,0.22656 10.48633,-2.82422 -0.0664,-0.24805 z m -913.519526,0.50586 -0.240235,0.875 -0.183593,0.6875 10.492187,2.80664 0.173828,-0.65625 0.232422,-0.8418 z m 914.359376,2.5957 -10.49805,2.78711 0.4082,1.53125 10.4961,-2.78516 z m -915.193361,0.5 -0.162109,0.60547 -0.251953,0.96094 10.509765,2.74023 0.242188,-0.92773 0.154297,-0.57227 z m 916.007811,2.58594 -10.50781,2.74805 0.0352,0.14062 0.35546,1.37695 10.51758,-2.71093 -0.35937,-1.39649 z m -916.822264,0.51562 -0.08789,0.33594 -0.3125,1.23242 10.527343,2.67578 0.304688,-1.19921 0.07813,-0.30469 z m 917.619144,2.59571 -10.52735,2.67187 0.0996,0.39649 0.28125,1.12304 10.53711,-2.63281 -0.28515,-1.14062 z m -918.410159,0.50976 -0.01758,0.0703 -0.371094,1.50195 10.542968,2.61133 0.363282,-1.47071 0.0098,-0.0371 z m 919.185549,2.60742 -10.54688,2.59375 0.16211,0.65625 0.20899,0.86524 10.55664,-2.55469 -0.21485,-0.88476 z m -919.962893,0.53907 -0.371094,1.54101 10.558594,2.54492 0.371094,-1.54296 z m 920.718753,2.58398 -10.56641,2.51563 0.21875,0.91601 0.14258,0.60742 10.57422,-2.47656 -0.14649,-0.62695 z m -921.4668,0.5332 -0.361328,1.54493 10.574219,2.47656 0.361328,-1.54297 z m 922.20117,2.59375 -10.58398,2.4375 0.27148,1.17774 0.0781,0.34961 10.59375,-2.40039 -0.084,-0.36719 z m -922.927732,0.5293 -0.351563,1.54688 10.589844,2.41015 0.351562,-1.54492 z m 923.640622,2.60156 -10.60156,2.36133 0.32031,1.43946 0.0195,0.0898 10.61133,-2.32227 -0.0254,-0.10937 z m -924.345701,0.52539 -0.34375,1.54883 10.605469,2.34571 0.34375,-1.54883 z m 925.033201,2.5918 -10.60937,2.32227 0.004,0.0215 0.32422,1.50977 10.61914,-2.28321 -0.32812,-1.52929 z m -925.718747,0.54102 -0.332032,1.55078 10.619141,2.2793 0.333984,-1.55079 z m 926.388667,2.60156 -10.62695,2.24219 0.0605,0.2832 0.25976,1.25 10.63477,-2.20312 -0.26367,-1.27149 z m -927.0507769,0.53516 -0.28125,1.35351 -0.046875,0.23242 10.6464839,2.14649 0.04102,-0.19922 0.273438,-1.32031 z m 927.7011669,2.60937 -10.64453,2.16602 0.11133,0.54492 0.19727,0.99023 10.65234,-2.12695 -0.20312,-1.00977 z M 9.234375,379.89453 9.0117188,381 l -0.09375,0.48437 10.6601562,2.07813 0.08789,-0.44922 0.216796,-1.07226 z m 928.970705,2.61914 -10.65821,2.08789 0.15821,0.80664 0.14062,0.73047 10.66602,-2.04883 -0.14453,-0.75 z m -929.5917987,0.52735 -0.1660157,0.85742 -0.1386718,0.73437 10.6738282,2.01172 0.130859,-0.69922 0.16211,-0.82617 z m 930.1992187,2.62695 -10.67383,2.00976 0.20117,1.07032 0.0859,0.46875 10.68164,-1.97071 -0.0898,-0.48632 z m -930.796875,0.52344 -0.1171875,0.61328 -0.1777344,0.97851 10.6855469,1.94532 0.171875,-0.94532 0.109375,-0.58008 z m 931.380855,2.63476 -10.6875,1.93164 0.24219,1.33594 0.0352,0.20508 10.69531,-1.89258 -0.0391,-0.22461 z m -931.95898,0.51758 -0.068359,0.37109 -0.2148437,1.22461 10.6972647,1.87891 0.208985,-1.19141 0.0625,-0.33789 z m 932.52344,2.64453 -10.70117,1.85352 0.26953,1.5625 10.70312,-1.85352 z m -933.0800806,0.51367 -0.023437,0.13086 -0.2480469,1.4668 10.7089835,1.81055 0.242188,-1.4336 0.01758,-0.0976 z M 940.5,395.13477 l -10.70898,1.8125 0.0293,0.17187 0.22656,1.37305 10.7168,-1.77344 -0.23047,-1.39258 z m -934.1601563,0.5625 -0.2539062,1.5664 10.7207035,1.74219 0.253906,-1.56641 z m 934.6816363,2.60742 -10.72265,1.73437 0.0703,0.4375 0.17578,1.10938 10.72852,-1.69532 -0.17969,-1.1289 z m -935.193355,0.55859 -0.2441406,1.56641 10.7304686,1.67578 0.244141,-1.56836 z m 935.691405,2.61524 -10.73437,1.65429 0.10937,0.70508 0.12695,0.84375 10.74024,-1.61523 -0.13086,-0.86524 z m -936.1816394,0.55273 -0.2363281,1.56836 10.7421875,1.60742 0.234375,-1.56836 z m 936.6601594,2.62305 -10.7461,1.57617 0.14258,0.97265 0.082,0.57813 10.75196,-1.53711 -0.0859,-0.59766 z m -937.1308625,0.54882 -0.2246094,1.57032 10.7519529,1.53906 0.22461,-1.56836 z m 937.5878925,2.63086 -10.75781,1.4961 0.17187,1.24219 0.043,0.31054 10.76172,-1.45898 -0.0449,-0.33008 z m -938.0351581,0.54297 -0.2148438,1.57227 10.7597659,1.47265 0.214844,-1.57226 z m 938.4687481,2.63867 -10.76758,1.41797 0.19922,1.51172 0.006,0.041 10.77344,-1.37696 -0.01,-0.0625 z m -938.8964825,0.54102 -0.2050781,1.57227 10.7714846,1.40429 0.205078,-1.57226 z m 939.3085925,2.625 -10.77344,1.37891 0.008,0.0723 0.18554,1.48242 10.77735,-1.33984 -0.18555,-1.5 z m -939.7128894,0.55469 -0.1796875,1.44922 -0.019531,0.1582 10.7871089,1.26953 0.01563,-0.125 0.175782,-1.41406 z m 940.1035194,2.63476 -10.78321,1.29883 0.041,0.34375 0.14258,1.21094 10.78711,-1.25977 -0.14454,-1.23047 z m -940.488285,0.54883 -0.1445312,1.23438 -0.041016,0.375 10.7949222,1.20117 0.03711,-0.3418 0.140625,-1.19922 z m 940.857425,2.64063 -10.79297,1.2207 0.0703,0.61523 0.10352,0.94141 10.79687,-1.17969 -0.10547,-0.96093 z m -941.2187531,0.54492 -0.1132813,1.02539 -0.0625,0.58594 10.8027344,1.13281 0.05664,-0.55274 0.111328,-0.99023 z m 941.5683631,2.64844 -10.80274,1.14062 0.0937,0.88867 0.0684,0.66992 10.80664,-1.10156 -0.0703,-0.68945 z M 2.5,424.29492 l -0.083984,0.81641 -0.078125,0.79492 10.808593,1.06445 0.07422,-0.76172 0.08203,-0.7832 z m 942.23633,2.6543 -10.81055,1.06055 0.11524,1.16406 0.0371,0.39648 10.8125,-1.02148 -0.0391,-0.41602 z m -942.5546894,0.53515 -0.060547,0.61329 -0.091797,1 10.8144534,0.99609 0.08984,-0.9668 0.05664,-0.57812 z m 942.8593794,2.66407 -10.81641,0.98047 0.13086,1.4375 0.01,0.12109 10.82032,-0.93945 -0.0117,-0.14258 z m -943.1582075,0.52929 -0.037109,0.41016 -0.1035156,1.20313 10.8222651,0.92773 0.09961,-1.16797 0.03516,-0.37695 z m 943.4414075,2.65039 -10.82227,0.93946 0.13086,1.5625 10.82422,-0.90235 -0.13281,-1.58398 z m -943.7167981,0.54493 -0.017578,0.21289 -0.1113281,1.40234 10.8261722,0.85742 0.109375,-1.36718 0.01563,-0.17969 z m 943.9765581,2.65625 -10.82617,0.86132 0.0215,0.27149 0.0976,1.28906 10.83008,-0.82031 -0.0996,-1.30859 z M 1.3515625,437.06836 v 0.0195 l -0.1171875,1.59766 10.832031,0.78906 0.111328,-1.54688 z m 944.4726575,2.66406 -10.83399,0.78125 0.041,0.55078 0.0684,1.01172 10.83594,-0.74219 -0.0703,-1.03125 z m -944.7070325,0.56836 -0.1054688,1.58203 10.8378903,0.72266 0.105469,-1.58203 z m 944.9257825,2.63672 -10.83985,0.70117 0.0547,0.83008 0.0449,0.73242 10.83985,-0.66015 -0.0449,-0.75391 z M 0.90625,443.5 l -0.0957031,1.58398 10.8417971,0.65235 0.0957,-1.58203 z m 945.33203,2.64258 -10.8418,0.62304 0.0625,1.10938 0.0254,0.45312 10.84375,-0.58203 -0.0254,-0.47265 z m -945.52148313,0.55859 -0.0839844,1.58399 10.84570353,0.58593 0.08398,-1.58398 z m 945.69726313,2.65039 -10.84765,0.54102 0.0684,1.39258 0.01,0.17187 10.84961,-0.50195 -0.01,-0.19141 z m -945.86327875,0.55274 -0.0761719,1.58398 10.84960965,0.51563 0.07422,-1.58399 z m 946.01562875,2.65625 -10.84961,0.46093 0.0664,1.58399 10.85157,-0.46094 z m -946.16211312,0.54687 -0.0664063,1.58399 10.85156242,0.44726 0.06641,-1.58398 z M 946.69727,455.75 l -10.85352,0.41992 0.01,0.23438 0.0469,1.33203 10.85352,-0.38281 -0.0469,-1.35157 z m -946.41992625,0.56055 -0.0546875,1.58593 10.85546875,0.37891 0.05469,-1.58594 z m 946.52929625,2.64843 -10.85547,0.3418 0.0156,0.51758 0.0293,1.04883 10.85743,-0.30274 -0.0293,-1.0664 z m -946.63281188,0.55664 -0.0449219,1.58594 10.85742178,0.31055 0.04492,-1.58594 z m 946.72070188,2.6543 -10.85742,0.26172 0.0176,0.80469 0.0156,0.76172 10.85938,-0.22071 -0.0156,-0.78125 z m -946.80273313,0.55274 -0.03515625,1.58398 10.85937538,0.24219 0.03516,-1.58594 z m 946.86914313,2.66015 -10.86133,0.17969 0.0195,1.09375 0.006,0.47266 10.85937,-0.14063 -0.006,-0.49414 z m -946.92969,0.54492 -0.0234375,1.45704 -0.00195312,0.16406 10.86132862,0.10351 0.002,-0.13086 0.02148,-1.42187 z m 946.97266,2.66602 -10.85938,0.10156 0.0117,1.38086 0.002,0.18555 10.86133,-0.0606 -0.002,-0.20508 z m -947.0117225,0.54102 -0.01367188,1.30468 v 0.31446 l 10.86132838,0.0351 v -0.28125 l 0.01172,-1.26953 z m 947.0351525,2.67187 -10.86132,0.0195 0.004,1.58789 10.86133,-0.0215 z M -0.02734375,472.3418 -0.03125,473.5 l 0.0019531,0.46094 10.8613279,-0.0332 -0.002,-0.42773 0.0039,-1.125 z m 936.19140375,2.63086 -0.004,1.51953 v 0.0312 l 10.85937,0.10351 0.002,-0.0664 0.004,-1.55469 z m -925.326169,0.54101 -10.8613285,0.0332 0.0019531,1.01368 0.0058594,0.60742 10.861328,-0.10352 -0.0059,-0.57226 z m 925.306639,2.5957 -0.0137,1.36915 -0.002,0.18359 10.85937,0.17187 0.004,-0.21875 0.0137,-1.40234 z M 10.861328,478.65039 0,478.75391 l 0.0078125,0.86132 0.01171875,0.75977 10.86132775,-0.17188 -0.01172,-0.7246 z m 925.242192,2.59766 -0.0195,1.21289 -0.008,0.33789 10.85938,0.24023 0.008,-0.37109 0.0195,-1.24805 z m -925.199223,0.54101 -10.85937513,0.17188 0.01171875,0.70703 0.01953125,0.91211 10.85937513,-0.24024 -0.01953,-0.8789 z m 925.136723,2.59571 -0.0234,1.05468 -0.0137,0.4961 10.85742,0.31054 0.0137,-0.53125 0.0254,-1.08984 z m -925.070317,0.54101 -10.85937488,0.24024 0.0136719,0.54882 0.0292969,1.07227 10.85742208,-0.31055 -0.0293,-1.03711 z m 924.988277,2.5957 -0.0254,0.89063 -0.0234,0.66016 10.85546,0.3789 0.0234,-0.69531 0.0274,-0.92578 z m -924.902339,0.54102 -10.85742225,0.30859 0.0117188,0.38477 0.0429687,1.23633 10.85546875,-0.37891 -0.04297,-1.20117 z m 924.798829,2.59375 -0.0254,0.72461 -0.0352,0.82617 10.85352,0.44727 0.0351,-0.86133 0.0254,-0.75781 z m -924.691407,0.54102 -10.85546925,0.3789 0.007813,0.2168 0.0585938,1.40234 10.85156345,-0.44726 -0.05664,-1.36719 z m 924.566407,2.5957 -0.0234,0.55078 -0.0469,0.99805 10.84961,0.51757 0.0488,-1.03515 0.0234,-0.58399 z m -924.439454,0.54101 -10.85156287,0.44727 0.001953,0.043 0.0761719,1.57422 10.84765597,-0.51563 -0.07226,-1.53906 z m 924.292964,2.59375 -0.0176,0.375 -0.0625,1.17383 10.8457,0.58399 0.0644,-1.20703 0.0195,-0.41016 z m -924.144527,0.50586 -10.845703,0.58399 0.0859375,1.58398 10.8457035,-0.58398 z m 923.978517,2.62696 -0.01,0.19531 -0.082,1.35351 10.8418,0.6543 0.084,-1.38867 0.0117,-0.23047 z m -923.806642,0.50586 -10.84179675,0.65234 0.0957031,1.58398 10.84179665,-0.65234 z m 923.619142,2.62695 v 0.0117 l -0.10352,1.53515 10.83789,0.72266 0.10547,-1.57031 0.002,-0.0469 z m -923.427736,0.50391 -10.83789025,0.72265 0.10546875,1.58203 10.8378905,-0.7207 z m 923.220706,2.59179 -0.11524,1.58203 10.83203,0.79102 0.11524,-1.58203 z m -923.007815,0.53906 -10.8320313,0.79102 0.1152344,1.58203 10.8320309,-0.79101 z m 922.777345,2.58985 -0.125,1.58203 10.82617,0.85937 0.12695,-1.58203 z M 12.25,509.95703 1.421875,510.81641 1.5488281,512.39844 12.375,511.53906 Z m 922.29102,2.58984 -0.13477,1.58008 10.82227,0.92774 0.13476,-1.58008 z m -922.037114,0.53907 -10.8203123,0.92773 0.1347657,1.58008 10.8222656,-0.92773 z m 921.765624,2.58593 -0.14648,1.58008 10.8164,0.9961 0.14453,-1.58008 z m -921.48828,0.53907 -10.8164063,0.99609 0.1464844,1.58008 10.8144529,-0.99609 z m 921.19336,2.58593 -0.1543,1.57813 10.8086,1.06445 0.15625,-1.57812 z m -920.896485,0.53907 -10.8085937,1.0625 0.1464843,1.49023 0.011719,0.12305 10.8027344,-1.13281 -0.0098,-0.0879 z m 920.582035,2.58203 -0.16407,1.57812 10.80078,1.13282 0.16602,-1.57813 z m -920.263676,0.53906 -10.802734,1.13281 0.1347656,1.2793 0.035156,0.33203 L 13.558594,524 l -0.0332,-0.29688 z m 919.929686,2.58203 -0.17578,1.57617 10.79492,1.20118 0.17383,-1.57813 z m -919.591795,0.53711 -10.7949219,1.20117 0.1191407,1.06836 0.064453,0.54102 10.7871092,-1.26758 -0.06055,-0.50781 z m 919.234375,2.58008 -0.16016,1.35547 -0.0234,0.18555 10.77929,1.33593 0.0274,-0.21875 0.16406,-1.38867 z m -918.875,0.53711 -10.7851562,1.26953 0.099609,0.85156 0.09375,0.75586 10.7792972,-1.33594 -0.08984,-0.72265 z m 918.49805,2.57812 -0.14258,1.13672 -0.0527,0.40235 10.77149,1.40429 0.0566,-0.43554 0.14453,-1.17188 z m -918.115237,0.53711 -10.7792974,1.33594 0.078125,0.63477 0.1269532,0.97265 10.7695312,-1.40429 -0.121094,-0.93946 z m 917.714847,2.57618 -0.11914,0.91406 -0.084,0.62304 10.75977,1.47266 0.0898,-0.65625 0.125,-0.94922 z m -917.314457,0.53515 -10.7695311,1.4043 0.054687,0.41406 0.1621093,1.19336 10.7617188,-1.47266 -0.158204,-1.16015 z m 916.896487,2.57422 -0.0957,0.68945 -0.12109,0.84766 10.75195,1.53906 0.125,-0.8789 0.0996,-0.72461 z m -916.472659,0.53516 -10.7617185,1.47265 0.027344,0.18946 0.203125,1.41601 10.7499995,-1.54101 -0.197265,-1.38282 z m 916.031249,2.57031 -0.0664,0.46484 -0.16015,1.07227 10.74023,1.60742 0.16602,-1.10547 0.0723,-0.49805 z m -915.591796,0.50195 -10.7421871,1.60938 0.2363281,1.56836 10.740234,-1.60938 z m 915.128906,2.60352 -0.0332,0.23242 -0.20313,1.30078 10.73047,1.67578 0.20899,-1.33398 0.0391,-0.26758 z m -914.662109,0.5 -10.7324216,1.67578 0.2460937,1.56641 10.7304689,-1.67383 z m 914.179689,2.59961 -0.24805,1.5332 10.7207,1.74219 0.25391,-1.56641 0.006,-0.0332 z m -913.693361,0.5 -10.7207028,1.74414 0.2558594,1.56445 10.7207034,-1.74219 z m 913.195311,2.56445 -0.26562,1.5625 10.70898,1.81055 0.26563,-1.5625 z m -912.685545,0.5332 -10.7109375,1.81055 0.265625,1.56445 10.7089845,-1.81054 z m 912.158205,2.56055 -0.27344,1.5625 10.69727,1.87695 0.27539,-1.5625 z m -911.630861,0.5332 -10.6972659,1.87696 0.2753906,1.5625 10.6972653,-1.87891 z m 911.083981,2.55664 -0.2832,1.56055 10.68555,1.94531 0.28515,-1.56054 z m -910.5332,0.53125 -10.6855469,1.94532 0.2851563,1.56054 10.6855466,-1.94531 z m 909.9668,2.55469 -0.29493,1.5586 10.67383,2.01171 0.29297,-1.55859 z m -909.394534,0.53125 -10.6738285,2.01172 0.2675781,1.41992 0.033203,0.17188 10.6601564,-2.07813 -0.02734,-0.14062 z m 908.804684,2.55078 -0.30273,1.55664 10.66015,2.08008 0.30469,-1.55664 z M 19.445312,562.75195 8.7851563,564.83203 9.0117188,566 l 0.085937,0.41992 10.6464842,-2.14453 -0.07813,-0.38867 z m 907.603518,2.54688 -0.28516,1.41406 -0.0215,0.10742 10.63281,2.21289 0.0293,-0.14062 0.29297,-1.44727 z m -906.992189,0.53125 -10.6464847,2.14648 0.1855468,0.91602 0.1386719,0.66992 10.632812,-2.21094 -0.130859,-0.63867 z m 906.363279,2.54297 -0.24219,1.16015 -0.0762,0.35938 10.61914,2.27929 0.084,-0.39257 0.24804,-1.19336 z m -905.728514,0.53125 -10.632812,2.21093 0.136719,0.66407 0.197265,0.92187 10.621094,-2.2793 -0.191406,-0.88867 z m 905.076174,2.53906 -0.19336,0.90234 -0.13672,0.61524 10.60547,2.3457 0.14453,-0.64844 0.19922,-0.93554 z m -904.421877,0.5293 -10.61914,2.27929 0.08594,0.40625 0.261719,1.17578 10.603515,-2.3457 -0.251953,-1.14258 z m 903.749997,2.53711 -0.14258,0.64257 -0.19726,0.8711 10.58984,2.41211 0.20508,-0.9043 0.15039,-0.67773 z m -903.074216,0.52734 -10.605468,2.3457 0.0332,0.14844 0.326172,1.43164 10.589843,-2.41211 -0.318359,-1.39844 z m 902.380856,2.5332 -0.0859,0.38281 -0.26563,1.12891 10.57617,2.47656 0.27149,-1.16015 0.0937,-0.41602 z m -901.691403,0.49414 -10.576171,2.47852 0.363281,1.54297 10.574219,-2.47657 z m 900.978513,2.5625 -0.0293,0.1211 -0.33399,1.38672 10.56055,2.54492 0.3418,-1.42188 0.0352,-0.15429 z m -900.261716,0.49219 -10.558593,2.54297 0.371093,1.54297 10.560547,-2.54297 z m 899.535156,2.52539 -0.38086,1.53906 10.54297,2.60938 0.38086,-1.53906 z M 24.167969,584.16992 13.625,586.7793 l 0.380859,1.53906 10.542969,-2.60938 z m 898.039061,2.51953 -0.39258,1.53711 10.52735,2.67578 0.39062,-1.53711 z m -897.279296,0.52539 -10.527343,2.67578 0.390625,1.53711 10.527343,-2.67578 z m 896.501956,2.51563 -0.40039,1.53515 10.50976,2.74024 0.40039,-1.53516 z m -895.722659,0.52344 -10.509765,2.74023 0.40039,1.53516 10.509766,-2.74024 z m 894.923829,2.51171 -0.41016,1.53321 10.49414,2.80469 0.40821,-1.53125 z m -894.123048,0.52344 -10.492187,2.80664 0.365234,1.36133 0.05469,0.20313 10.474609,-2.87305 -0.04687,-0.16797 z m 893.304688,2.50586 -0.41797,1.53125 10.47461,2.8711 0.41797,-1.5293 z m -892.482422,0.52344 -10.474609,2.87109 0.296875,1.08789 0.134765,0.47266 10.455078,-2.93555 -0.123046,-0.4414 z m 891.644532,2.50195 -0.36524,1.29883 -0.0566,0.19531 10.43946,3.00196 0.0644,-0.22852 0.375,-1.33203 z m -890.802735,0.52149 -10.457031,2.93554 0.228515,0.81055 0.214844,0.74805 10.4375,-3.00196 -0.205078,-0.71484 z m 889.943355,2.49609 -0.29296,1.02148 -0.13868,0.47071 10.41797,3.0664 0.14844,-0.50195 0.30273,-1.05469 z m -889.080074,0.52148 -10.439453,3 0.154297,0.53516 0.300781,1.02149 10.417969,-3.06641 -0.291016,-0.99024 z m 888.201174,2.49219 -0.21875,0.74219 -0.22461,0.74609 10.40039,3.13086 0.23437,-0.77929 0.22657,-0.77344 z m -887.318361,0.51953 -10.419922,3.06641 0.07422,0.25391 0.390625,1.29687 10.40039,-3.13086 -0.380859,-1.26367 z m 886.417971,2.48633 -0.14063,0.46289 -0.31445,1.02149 10.38086,3.19531 0.32422,-1.05469 0.14843,-0.49414 z m -885.525393,0.48633 -10.378906,3.19531 0.464843,1.51563 10.38086,-3.19532 z m 884.603513,2.51367 -0.0547,0.18164 -0.41015,1.30078 10.36133,3.25977 0.41992,-1.33399 0.0645,-0.21093 z m -883.677732,0.48438 -10.359375,3.25976 0.474609,1.51367 10.361329,-3.25976 z m 882.748042,2.47851 -0.48632,1.50977 10.33984,3.32422 0.48633,-1.50977 z m -881.802729,0.51563 -10.339844,3.32422 0.486328,1.50976 10.339844,-3.32422 z m 880.839839,2.47265 -0.49609,1.50586 10.32031,3.38867 0.49414,-1.50781 z m -879.873043,0.51368 -10.320312,3.38671 0.496094,1.50782 10.318359,-3.38868 z m 878.888673,2.46679 -0.50391,1.50391 10.29883,3.45117 0.50391,-1.50391 z m -877.902344,0.51172 -10.298829,3.45313 0.503907,1.5039 10.298828,-3.45312 z m 876.900394,2.46094 -0.51368,1.50195 10.27735,3.51563 0.51172,-1.50196 z m -875.894535,0.51367 -10.277344,3.51367 0.439453,1.28516 0.08594,0.24805 10.255859,-3.58008 -0.07617,-0.2168 z m 874.871095,2.45508 -0.51172,1.46484 10.23242,3.64258 0.01,-0.0254 0.52343,-1.50391 z m -873.845704,0.50976 -10.253907,3.57813 0.345703,0.99414 0.191407,0.53516 10.232422,-3.64258 -0.179688,-0.50391 z m 872.802734,2.44922 -0.41992,1.17969 -0.10352,0.2832 10.21094,3.70508 0.11328,-0.31445 0.43164,-1.21094 z m -871.755859,0.50977 -10.232422,3.64258 0.25,0.70117 0.298828,0.82226 10.208984,-3.70507 -0.287109,-0.79102 z m 870.691409,2.44336 -0.32227,0.88867 -0.21094,0.57031 10.1875,3.76758 0.22266,-0.60156 0.33398,-0.91992 z m -869.625003,0.50976 -10.208985,3.70313 0.148438,0.41211 0.410156,1.10937 10.1875,-3.76758 -0.398437,-1.07812 z m 868.542973,2.43555 -0.22071,0.5957 -0.32422,0.85938 10.16407,3.83008 0.33593,-0.89063 0.23047,-0.625 z m -867.455083,0.50781 -10.1875,3.76758 0.04297,0.11914 0.527344,1.39649 10.164062,-3.83008 -0.515625,-1.36524 z m 866.351563,2.43164 -0.11328,0.30078 -0.44141,1.1504 10.13867,3.89257 0.45313,-1.18164 0.125,-0.33203 z m -865.255859,0.47461 -10.140625,3.89258 0.568359,1.48047 10.140625,-3.89258 z m 864.132809,2.45703 -0.004,0.008 -0.5625,1.4375 10.11523,3.95507 0.57422,-1.46875 0.0156,-0.0391 z m -863.005856,0.47266 -10.115235,3.95508 0.578125,1.47656 10.115235,-3.95508 z m 861.873046,2.41797 -0.58789,1.47461 10.0918,4.01562 0.58593,-1.47265 z m -860.724609,0.50391 -10.091797,4.01562 0.585938,1.47461 10.091797,-4.01758 z m 859.560549,2.4121 -0.59571,1.46875 10.06641,4.08008 0.5957,-1.4707 z m -858.394533,0.5 -10.066406,4.08008 0.595703,1.46875 L 45,648.23633 Z m 857.210933,2.40625 -0.60546,1.4668 10.04101,4.14063 0.60352,-1.4668 z m -856.023433,0.5 -10.041016,4.14063 0.535156,1.29687 0.08398,0.19922 10.015625,-4.20117 -0.07227,-0.16992 z m 854.818363,2.39844 -0.61329,1.46289 10.01563,4.20313 0.61328,-1.46289 z m -853.611332,0.5 -10.015625,4.20117 0.417969,0.99805 0.210937,0.49414 L 47.402344,654 47.205078,653.53711 Z m 852.388672,2.39063 -0.49805,1.16601 -0.11328,0.26172 9.96289,4.32422 0.12696,-0.29102 0.51171,-1.19726 z m -851.162109,0.49804 -9.990235,4.26368 0.298828,0.69921 0.341797,0.78907 9.962891,-4.32617 -0.328125,-0.75782 z m 849.919919,2.38477 -0.375,0.86523 -0.24804,0.5586 9.9375,4.38476 0.25976,-0.58789 0.38867,-0.89648 z m -848.673826,0.49609 -9.964843,4.32618 0.173828,0.39843 0.478515,1.08399 9.935547,-4.38672 -0.464844,-1.05274 z m 847.410156,2.37891 -0.24805,0.56445 -0.38281,0.85352 9.9082,4.44531 0.39844,-0.88281 0.26172,-0.5957 z m -846.146484,0.49414 -9.935547,4.38672 0.04297,0.0996 0.619141,1.37695 9.910156,-4.44531 -0.605469,-1.34766 z m 844.865234,2.37109 -0.11719,0.26368 -0.52539,1.15039 9.88281,4.50586 0.53711,-1.17969 0.13282,-0.29492 z m -843.591796,0.46289 -9.882813,4.50586 0.658203,1.44336 9.882813,-4.50586 z m 842.304686,2.36329 -0.66601,1.43945 9.85351,4.56641 0.66797,-1.43946 z m -840.999999,0.49218 -9.853515,4.56641 0.666015,1.43945 9.855469,-4.56836 z m 839.679689,2.35547 -0.67578,1.43555 9.82617,4.62695 0.67578,-1.43554 z m -838.35547,0.49024 -9.826172,4.62695 0.675781,1.43359 9.826172,-4.62695 z m 837.01367,2.34765 -0.68359,1.43164 9.79687,4.68555 0.68555,-1.42969 z m -835.66992,0.48828 -9.796875,4.6875 0.683594,1.42969 9.798828,-4.68555 z m 834.31055,2.3418 -0.69336,1.42578 9.76953,4.7461 0.69336,-1.42579 z m -832.947269,0.48633 -9.769531,4.74609 0.568359,1.16992 0.142578,0.28516 9.740235,-4.80469 -0.126953,-0.25586 z m 831.568359,2.33398 -0.65234,1.32032 -0.0352,0.0723 9.71094,4.86328 0.0488,-0.0996 0.66796,-1.35156 z m -830.185546,0.48438 -9.740235,4.80469 0.427735,0.86718 0.291015,0.58399 9.710938,-4.86524 -0.277344,-0.55468 z m 828.787106,2.32617 -0.50976,1.01758 -0.1875,0.36914 9.67968,4.92383 0.20313,-0.39844 0.52539,-1.04883 z m -827.386716,0.48242 -9.710937,4.86524 0.283203,0.56445 0.447266,0.88086 9.68164,-4.92383 -0.433594,-0.85156 z m 825.968746,2.31836 -0.36328,0.71485 -0.34375,0.66796 9.65039,4.98243 0.35938,-0.69727 0.3789,-0.74414 z m -824.548824,0.48242 -9.68164,4.92383 0.134765,0.26172 0.607422,1.17773 9.650391,-4.98242 -0.591797,-1.14843 z m 823.113284,2.3086 -0.21289,0.41211 -0.50391,0.96484 9.61914,5.04102 0.52149,-0.99414 0.22851,-0.44141 z m -821.689456,0.45117 -9.621093,5.04101 0.736328,1.40625 9.621093,-5.04101 z m 820.236326,2.33203 -0.0586,0.10938 -0.66992,1.26171 9.58984,5.09961 0.68555,-1.29101 0.0723,-0.13867 z m -818.777341,0.44922 -9.589844,5.09766 0.744141,1.40039 9.589843,-5.09766 z m 817.318361,2.29297 -0.75391,1.39648 9.5586,5.15625 0.7539,-1.39648 z m -815.839846,0.47656 -9.558593,5.15625 0.751953,1.39648 9.558593,-5.1582 z m 814.345706,2.28516 -0.76172,1.39062 9.52734,5.21485 0.76172,-1.39063 z m -812.849612,0.47461 -9.527344,5.21484 0.761719,1.39062 9.527344,-5.21484 z m 811.337892,2.27539 -0.76953,1.38672 9.49609,5.27343 0.76953,-1.38672 z m -809.82422,0.47461 -9.494141,5.27148 0.689453,1.24414 0.09766,0.16992 9.46289,-5.32812 -0.08008,-0.14258 z m 808.29492,2.26757 -0.7793,1.38086 9.4629,5.33008 0.77929,-1.38086 z m -806.761717,0.47071 -9.462891,5.33008 0.529297,0.93945 0.267578,0.46875 9.431641,-5.38672 -0.251953,-0.43945 z m 805.212887,2.25976 -0.61718,1.07813 -0.15625,0.26953 9.39843,5.44336 0.17188,-0.29688 0.63281,-1.10742 z m -803.660153,0.46875 -9.43164,5.38867 0.365234,0.63672 0.44336,0.76563 9.398437,-5.44336 -0.427734,-0.73828 z m 802.091793,2.25196 -0.44921,0.77539 -0.33204,0.5664 9.36524,5.5 0.34961,-0.59375 0.46484,-0.80468 z M 73.375,705.8457 l -9.398438,5.44532 0.19336,0.33593 0.623047,1.06055 9.365234,-5.5 -0.605469,-1.0332 z m 798.9375,2.24219 -0.2793,0.47461 -0.51367,0.86133 9.33203,5.55664 0.5293,-0.88867 0.29687,-0.50391 z m -797.349609,0.4668 -9.365235,5.5 0.02148,0.0371 0.80664,1.35547 9.332031,-5.5586 -0.791015,-1.32617 z m 795.746089,2.23242 -0.10351,0.17383 -0.69922,1.15625 9.29883,5.61328 0.71484,-1.1836 0.1211,-0.20312 z m -794.156246,0.43555 -9.296875,5.61328 0.81836,1.35742 9.298828,-5.61328 z m 792.550786,2.22461 -0.82813,1.35351 9.26367,5.66797 0.82813,-1.35156 z m -790.923833,0.46093 -9.263671,5.66992 0.826171,1.35352 9.265625,-5.66992 z m 789.283203,2.21485 -0.83594,1.34765 9.22852,5.72657 0.83594,-1.34961 z m -787.640624,0.46093 -9.228516,5.72461 0.835937,1.34766 9.230469,-5.72461 z m 785.980464,2.20508 -0.84375,1.3418 9.19532,5.78125 0.84375,-1.34375 z m -784.318355,0.45703 -9.195313,5.78125 0.783204,1.24414 0.08008,0.125 9.160156,-5.83398 -0.0625,-0.0996 z m 782.642575,2.19727 -0.85351,1.33789 9.16015,5.83594 0.85352,-1.33789 z m -780.962888,0.45703 -9.160156,5.83398 0.601563,0.94336 0.271484,0.42188 9.125,-5.89063 -0.253906,-0.39453 z m 779.267578,2.18555 -0.69141,1.07031 -0.15234,0.23437 9.08984,5.94532 0.16993,-0.26172 0.70898,-1.09766 z m -777.570312,0.45508 -9.125,5.89062 0.416016,0.64258 0.466797,0.71484 9.089843,-5.94531 -0.449218,-0.6875 z m 775.857422,2.17578 -0.50391,0.77148 -0.34961,0.52734 9.05469,6 0.36719,-0.55468 0.52148,-0.79688 z m -774.142578,0.45312 -9.089844,5.94531 0.226563,0.34571 0.666015,1.00586 9.054688,-6 -0.648438,-0.97852 z m 772.414058,2.16797 -0.31445,0.47266 -0.54883,0.81836 9.01758,6.05468 0.56641,-0.8457 0.33203,-0.5 z m -770.681636,0.45117 -9.052735,6 0.0332,0.0488 0.869141,1.29492 9.017578,-6.05469 -0.851562,-1.26757 z m 768.933596,2.15821 -0.11914,0.17578 -0.75391,1.10937 8.98242,6.10742 0.77149,-1.13476 L 866.25977,738 Z m -767.199221,0.41992 -8.982422,6.10937 0.892578,1.31055 8.980469,-6.10742 z m 765.453121,2.14843 -0.90039,1.30665 8.94336,6.1621 0.90039,-1.30664 z m -763.685543,0.44532 -8.94336,6.16211 0.900391,1.30664 8.943359,-6.16211 z m 761.902343,2.13867 -0.9082,1.30078 8.90625,6.21484 0.9082,-1.30078 z m -760.115234,0.44336 -8.90625,6.2168 0.90625,1.30078 8.908203,-6.2168 z m 758.314454,2.1289 -0.91602,1.29493 8.86914,6.26953 0.91602,-1.29492 z m -756.511719,0.44141 -8.869141,6.26953 0.839844,1.1875 0.0957,0.13281 8.832031,-6.32226 -0.07617,-0.10547 z m 754.693359,2.11719 -0.92383,1.29101 8.83203,6.32227 0.92383,-1.29102 z m -752.873047,0.4414 -8.832031,6.32227 0.640625,0.89258 0.304687,0.42187 8.794922,-6.375 -0.287109,-0.39453 z m 751.037107,2.10743 -0.73242,1.01172 -0.17969,0.24414 8.75586,6.42773 0.19922,-0.27148 0.75195,-1.03711 z m -749.199216,0.4375 -8.792969,6.375 0.433594,0.59961 0.519531,0.70703 8.755859,-6.42578 -0.5,-0.68164 z m 747.347656,2.09765 -0.52734,0.71875 -0.39454,0.53125 8.7168,6.48047 0.41406,-0.55859 0.54688,-0.74414 z m -745.49219,0.43555 -8.755857,6.42773 0.226563,0.3086 0.736328,0.99219 8.716796,-6.48047 -0.7168,-0.96485 z m 743.62305,2.08789 -0.31641,0.42773 -0.61523,0.81446 8.67773,6.53125 0.63477,-0.83985 0.33594,-0.45507 z m -741.75195,0.43359 -8.716801,6.48047 0.01367,0.0195 0.958985,1.27344 8.677736,-6.53125 z m 739.86718,2.07618 -0.10547,0.13867 -0.83593,1.09765 8.63867,6.58399 0.85547,-1.12305 0.125,-0.16601 z m -737.99804,0.40625 -8.638675,6.58203 0.962891,1.26172 8.638674,-6.58399 z m 736.11523,2.0664 -0.96875,1.25391 8.59766,6.63672 0.96875,-1.25586 z m -734.20898,0.42774 -8.597659,6.63476 0.96875,1.25586 8.599609,-6.63476 z m 732.28711,2.05468 -0.97461,1.25 8.55859,6.6875 0.97656,-1.25 z m -730.36328,0.42774 -8.558599,6.68555 0.976559,1.25 8.5586,-6.68555 z m 728.42773,2.04492 -0.98438,1.24414 8.51954,6.73633 0.98437,-1.24414 z m -726.48828,0.42383 -8.51953,6.73633 0.86718,1.09765 0.13868,0.17188 8.47851,-6.78906 -0.11719,-0.14649 z m 724.53515,2.0332 -0.96679,1.20703 -0.006,0.006 8.43945,6.83789 0.0254,-0.0293 0.98633,-1.23243 z m -722.58007,0.42188 -8.47852,6.78906 0.64844,0.81055 0.36719,0.45117 8.4375,-6.83985 -0.34571,-0.42578 z m 720.60937,2.02343 -0.74609,0.91993 -0.23438,0.28515 8.39844,6.88867 0.25391,-0.30859 0.76562,-0.94727 z m -718.63672,0.41993 -8.4375,6.83984 0.42578,0.52539 0.59766,0.72852 8.39648,-6.89063 -0.57617,-0.70312 z m 716.65039,2.01171 -0.52148,0.63672 -0.4668,0.5625 8.35547,6.9375 0.48828,-0.58593 0.54297,-0.66211 z m -714.66211,0.41797 -8.39648,6.88868 0.19922,0.24414 0.83398,1.0039 8.35547,-6.93945 -0.8125,-0.97852 z M 829,769.5293 l -0.29492,0.35351 -0.70117,0.83594 8.3125,6.98828 0.72461,-0.85937 0.31445,-0.38086 z m -710.67578,0.39062 -8.31445,6.98828 1.02148,1.21485 8.31445,-6.99024 z m 708.6582,2.01367 -0.0645,0.0762 -0.94141,1.10742 8.27149,7.03906 0.96289,-1.13281 0.0859,-0.10157 z m -706.63476,0.38868 -8.27344,7.0371 1.02734,1.20899 8.27344,-7.03906 z m 704.62109,1.97851 -1.03516,1.20117 8.23047,7.08789 1.03516,-1.20312 z m -702.58398,0.4082 -8.23047,7.08789 1.03515,1.20118 8.23047,-7.08594 z m 700.53125,1.96875 -1.04102,1.19532 8.1875,7.13476 1.04297,-1.19531 z m -698.47657,0.40625 -8.18945,7.13672 1.04297,1.19532 8.1875,-7.13477 z m 696.41016,1.95704 -1.04883,1.18945 8.14453,7.18359 1.04883,-1.18945 z m -694.3418,0.40429 -8.14453,7.18555 0.86914,0.98437 0.20313,0.22852 8.10156,-7.23438 -0.18164,-0.20312 z m 692.25781,1.94336 -0.9707,1.08985 -0.0645,0.0703 8.06055,7.28125 0.084,-0.0957 0.99414,-1.11132 z m -690.17187,0.4043 -8.10156,7.23437 0.63281,0.70703 0.44727,0.4961 8.05859,-7.28125 -0.42578,-0.4707 z m 688.07422,1.93164 -0.73438,0.8125 -0.30859,0.33984 8.01562,7.32813 0.33008,-0.36133 0.75586,-0.83789 z m -685.97266,0.40234 -8.05859,7.28125 0.39258,0.43555 0.69531,0.76172 8.01562,-7.33008 -0.67382,-0.73828 z m 683.85938,1.91992 -0.49414,0.53907 -0.5586,0.60351 7.97071,7.37696 0.58203,-0.62696 0.51562,-0.5625 z m -681.74414,0.39844 -8.01563,7.33008 0.15039,0.16406 0.94922,1.02539 7.9707,-7.37695 -0.92578,-1.00195 z m 679.61328,1.90821 -0.25,0.27148 -0.81055,0.86523 7.92774,7.42383 0.83398,-0.88867 0.27148,-0.29492 z m -677.50196,0.37304 -7.92773,7.42383 1.08398,1.1582 7.92774,-7.42382 z m 675.35743,1.92188 -0.002,0.002 -1.0664,1.125 7.88281,7.4707 1.08789,-1.14843 0.0254,-0.0254 z m -673.20899,0.36914 -7.88281,7.4707 1.08984,1.15039 7.88282,-7.4707 z m 671.07031,1.88476 -1.09765,1.14453 7.83789,7.51758 1.09766,-1.14453 z m -668.90625,0.39063 -7.83984,7.51758 1.09766,1.14453 7.83984,-7.51758 z m 666.73047,1.87109 -1.10547,1.13867 7.79297,7.56446 1.10547,-1.13672 z m -664.55273,0.38867 -7.79297,7.56446 1.09766,1.13086 0.0293,0.0312 7.74805,-7.61133 -0.006,-0.008 z m 662.36133,1.86133 -1.11133,1.13086 7.74805,7.61133 1.11132,-1.13086 z m -660.16797,0.38477 -7.74805,7.61133 0.84961,0.86523 0.28711,0.28711 7.70313,-7.65625 -0.26368,-0.26563 z m 657.96094,1.84961 -0.95704,0.96093 -0.13867,0.13868 7.65625,7.70312 0.16211,-0.16211 0.98047,-0.98437 z m -655.75196,0.38281 -7.70312,7.65625 0.59961,0.60156 0.54492,0.54297 7.6582,-7.70117 -0.52344,-0.52149 z m 653.53125,1.83594 -0.70508,0.69922 -0.39843,0.39257 7.60937,7.75 0.42383,-0.41601 0.72656,-0.72266 z m -651.30664,0.38086 -7.6582,7.70312 0.34375,0.3418 0.80859,0.79492 7.61133,-7.74805 -0.78516,-0.77343 z m 649.07031,1.82422 -0.44921,0.43945 -0.66211,0.64453 7.56445,7.79297 0.68555,-0.66602 0.47265,-0.46289 z m -646.83398,0.3789 -7.60937,7.74805 0.0859,0.084 1.07422,1.04297 7.56445,-7.79297 -1.05078,-1.02148 z m 644.58398,1.81055 -0.18945,0.18359 -0.93164,0.89258 7.51953,7.83789 0.95313,-0.91406 0.21289,-0.20703 z m -642.35351,0.35156 -7.51758,7.83984 1.14453,1.09766 7.51758,-7.83789 z m 640.11133,1.79883 -1.15039,1.0918 7.4707,7.88281 1.15234,-1.08985 z m -637.8418,0.37305 -7.4707,7.88281 1.15039,1.0918 7.4707,-7.88282 z m 635.56055,1.78515 -1.15625,1.08399 7.42383,7.92773 1.1582,-1.08398 z m -633.27735,0.3711 -7.42578,7.92773 1.15821,1.08398 7.42382,-7.92773 z m 630.98243,1.77148 -1.16407,1.07813 7.37696,7.9707 1.16406,-1.07617 z m -628.68555,0.36914 -7.37695,7.9707 1.08203,1.00196 0.10547,0.0976 7.33007,-8.01562 -0.082,-0.0762 z m 626.37695,1.75977 -1.16992,1.07031 7.32812,8.01562 1.17188,-1.07031 z m -624.0664,0.36523 -7.32813,8.01563 0.81836,0.74804 0.37695,0.3418 7.28125,-8.06055 -0.35156,-0.31836 z m 621.74414,1.74609 -0.93164,0.8418 -0.22266,0.19922 7.23242,8.10156 0.24609,-0.2207 0.95704,-0.86328 z m -619.41797,0.36329 -7.28125,8.05859 0.55468,0.5 0.6504,0.58203 7.23242,-8.10351 -0.62696,-0.5586 z m 617.08008,1.73437 -0.66602,0.59375 -0.49609,0.4375 7.18554,8.14453 0.51953,-0.45898 0.68946,-0.61524 z m -614.74024,0.35938 -7.23437,8.10156 0.28711,0.25586 0.92578,0.8164 7.18554,-8.14453 -0.90234,-0.79492 z m 612.38867,1.7207 -0.39648,0.35156 -0.77344,0.67188 7.13672,8.1875 0.79687,-0.69336 0.42188,-0.37305 z m -610.03711,0.35937 -7.18359,8.14454 0.0156,0.0137 1.20508,1.04883 7.13477,-8.1875 z m 607.67188,1.70704 -0.125,0.10937 -1.05078,0.9043 7.08593,8.23047 1.07618,-0.92579 0.15039,-0.13085 z m -605.32617,0.33203 -7.08789,8.23047 1.20117,1.03515 7.08789,-8.23047 z m 602.97265,1.69531 -1.20898,1.02734 7.03906,8.27149 1.20703,-1.02735 z m -600.59179,0.34961 -7.03711,8.27344 1.20703,1.02734 7.03906,-8.27344 z m 598.19726,1.68164 -1.21289,1.02148 6.98828,8.31446 1.21289,-1.02149 z m -595.80078,0.34766 -6.98828,8.31445 1.21289,1.02148 6.99023,-8.31445 z m 593.39453,1.66796 -1.2207,1.01368 6.93945,8.35546 1.2207,-1.01171 z m -590.98633,0.34571 -6.9375,8.35742 1.0625,0.88281 0.1836,0.15039 6.88867,-8.39844 -0.1582,-0.1289 z m 588.56641,1.65625 -1.18359,0.96875 -0.0176,0.0156 6.83789,8.4375 0.0449,-0.0351 1.20703,-0.99024 z m -586.14258,0.34179 -6.89062,8.39844 0.78906,0.64649 0.46484,0.37695 6.83985,-8.43945 -0.43946,-0.35547 z m 583.70899,1.64063 -0.90821,0.73633 -0.30078,0.24023 6.78711,8.47852 0.32813,-0.25977 0.93164,-0.75586 z m -581.27344,0.3418 -6.83985,8.4375 0.51172,0.41601 0.75,0.59961 6.78711,-8.48047 -0.72265,-0.57812 z m 578.82617,1.62695 -0.63086,0.50391 -0.58398,0.46289 6.73632,8.51953 0.61133,-0.48242 0.6543,-0.5254 z m -576.37891,0.33789 -6.78711,8.47852 0.23243,0.1875 1.03515,0.81835 6.73828,-8.51953 -1.00976,-0.79882 z m 573.91993,1.61328 -0.35157,0.27734 -0.87109,0.68165 6.68555,8.55859 0.89843,-0.70117 0.375,-0.29688 z m -571.48243,0.31445 -6.6875,8.56055 1.25,0.97656 6.6875,-8.56054 z m 569.00977,1.6211 -0.0684,0.0527 -1.16211,0.89649 6.63477,8.59961 1.1875,-0.91797 0.0937,-0.0723 z m -566.53516,0.31054 -6.63476,8.59961 1.25586,0.96875 6.63476,-8.59961 z m 564.07422,1.58594 -1.26172,0.96094 6.58399,8.63867 1.25976,-0.96094 z m -561.58398,0.32813 -6.58399,8.63867 1.26172,0.96094 6.58399,-8.63868 z m 559.08398,1.57226 -1.26758,0.95313 6.53125,8.67773 1.26758,-0.95312 z m -556.58398,0.32617 -6.53125,8.67774 1.26758,0.95312 6.53125,-8.67773 z m 554.07226,1.55665 -1.27343,0.94726 6.48046,8.7168 1.27149,-0.94727 z m -551.55859,0.32421 -6.47852,8.7168 1.05469,0.7832 0.2461,0.17969 6.42578,-8.7539 -0.21875,-0.16211 z m 549.0332,1.54297 -1.17968,0.86719 -0.0723,0.0527 6.375,8.79297 0.0977,-0.0703 1.20703,-0.88672 z m -546.50586,0.32032 -6.42773,8.75585 0.77148,0.56641 0.53516,0.38867 6.375,-8.79492 -0.50977,-0.36914 z m 543.96875,1.52929 -0.89453,0.65039 -0.36328,0.25977 6.32031,8.83203 0.39063,-0.2793 0.92187,-0.66797 z m -541.42968,0.31836 -6.375,8.79297 0.48437,0.35156 0.83008,0.59375 6.32226,-8.83203 -0.80468,-0.57422 z m 538.88086,1.51563 -0.60938,0.43554 -0.65625,0.46485 6.26953,8.86914 0.68164,-0.48242 0.63672,-0.45508 z m -536.33008,0.31445 -6.32227,8.83203 0.19727,0.14063 1.125,0.79492 6.26758,-8.86914 -1.09766,-0.77735 z m 533.76953,1.5 -0.32227,0.22852 -0.95117,0.66406 6.2168,8.90625 0.97656,-0.68164 0.34961,-0.2461 z m -531.23242,0.29297 -6.21485,8.9082 1.30078,0.90625 6.21485,-8.90625 z m 528.6582,1.50586 -0.0312,0.0215 -1.24805,0.86133 6.16211,8.94336 1.27539,-0.87891 0.0586,-0.0391 z m -526.08203,0.28906 -6.16211,8.94531 1.30664,0.89844 6.16211,-8.94336 z m 523.52344,1.47266 -1.3125,0.89257 6.10937,8.98047 1.31055,-0.89257 z m -520.93555,0.30468 -6.10742,8.98047 1.31054,0.89258 6.10938,-8.98047 z m 518.33789,1.45899 -1.31836,0.88281 6.05469,9.01758 1.3164,-0.88281 z m -515.73828,0.30078 -6.05274,9.01758 1.31641,0.88476 6.05469,-9.01757 z m 513.12695,1.44336 -1.32226,0.87695 6,9.05274 1.32226,-0.875 z m -510.51367,0.29883 -6,9.05468 1.07031,0.70899 0.2793,0.18359 5.94531,-9.08984 -0.25195,-0.16602 z m 507.89258,1.42968 -1.20508,0.78711 -0.0957,0.0625 5.89062,9.125 0.12305,-0.0801 1.23242,-0.80664 z m -505.26953,0.29493 -5.94532,9.08984 0.7793,0.50977 0.57617,0.37304 5.89063,-9.125 -0.54883,-0.35547 z m 502.63672,1.41406 -0.91407,0.58984 -0.39258,0.25 5.83594,9.16016 0.41992,-0.26758 0.94141,-0.60742 z m -500.00196,0.29297 -5.89062,9.12695 0.48633,0.3125 0.87695,0.55859 5.83594,-9.16015 -0.84961,-0.54102 z m 497.35742,1.40039 -0.62109,0.39453 -0.69141,0.43555 5.78125,9.19531 0.71875,-0.45313 0.64844,-0.41211 z m -494.71093,0.29101 -5.83594,9.16016 0.19141,0.12109 1.17773,0.74024 5.78125,-9.19531 -1.15039,-0.72266 z m 492.05468,1.38282 -0.32617,0.20507 -0.99219,0.61524 5.72461,9.23047 1.01954,-0.63281 0.35546,-0.22266 z m -489.42578,0.26953 -5.72461,9.23047 1.34766,0.83593 5.72461,-9.23046 z m 486.75977,1.38672 -0.0312,0.0195 -1.29297,0.79297 5.66797,9.26367 1.32226,-0.8086 0.0586,-0.0371 z m -484.08985,0.26562 -5.66992,9.26563 1.35352,0.82812 5.66992,-9.26562 z m 481.43946,1.35547 -1.35742,0.82031 5.61328,9.29688 1.35742,-0.81836 z m -478.75977,0.2793 -5.61328,9.29883 1.35938,0.82031 5.61132,-9.29883 z m 476.07031,1.33984 -1.36328,0.8125 5.55664,9.33203 1.36329,-0.8125 z m -473.3789,0.27734 -5.55664,9.33204 1.36328,0.81054 5.55664,-9.33203 z m 470.67773,1.32422 -1.36718,0.80274 5.5,9.36523 1.36914,-0.80273 z m -467.97461,0.27344 -5.50195,9.36524 1.12891,0.66406 0.26953,0.15429 5.44336,-9.39843 -0.24024,-0.13867 z m 465.26368,1.30859 -1.27344,0.73829 -0.0703,0.041 5.38671,9.43164 0.0996,-0.0586 1.30078,-0.75391 z m -462.55079,0.27149 -5.44531,9.39844 0.83399,0.48242 0.57031,0.32617 5.38672,-9.43164 -0.54102,-0.30859 z m 459.83008,1.29492 -0.97851,0.55859 -0.37305,0.20899 5.33008,9.46289 0.40039,-0.22461 1.00781,-0.57617 z m -457.10742,0.26758 -5.38672,9.43164 0.53711,0.30664 0.87109,0.49023 5.33008,-9.46289 -0.84375,-0.47461 z m 454.375,1.27734 -0.68164,0.38477 -0.67383,0.375 5.27149,9.49414 0.70312,-0.38867 0.71094,-0.40039 z m -451.64062,0.26563 -5.33008,9.46484 0.23828,0.13477 1.17578,0.65234 5.27148,-9.49609 -1.14648,-0.63672 z m 448.89843,1.26367 -0.38476,0.21289 -0.97657,0.53516 5.21485,9.52734 1.00586,-0.55078 0.41211,-0.22852 z m -446.18359,0.24609 -5.21484,9.52735 1.39062,0.76172 5.21484,-9.52735 z m 443.43164,1.26368 -0.0859,0.0469 -1.28125,0.69141 5.15625,9.55859 1.31055,-0.70703 0.11523,-0.0625 z m -440.67773,0.24218 -5.15625,9.5586 1.39648,0.75195 5.15625,-9.55859 z m 437.94335,1.23242 -1.40039,0.74415 5.09766,9.58984 1.40039,-0.74414 z m -435.17773,0.25391 -5.09961,9.58984 1.40039,0.74415 5.09961,-9.58985 z m 432.4043,1.2168 -1.40625,0.73633 5.04101,9.61914 1.40625,-0.73438 z m -429.62891,0.25 -5.04101,9.62109 1.40429,0.73633 5.04102,-9.62109 z m 426.8457,1.20117 -1.41015,0.72852 4.98242,9.65039 1.41016,-0.72657 z m -424.06054,0.24805 -4.98242,9.65234 1.24609,0.64258 0.19141,0.0977 4.92382,-9.67968 -0.16211,-0.084 z m 421.26758,1.18554 -1.41407,0.71875 4.92383,9.68164 1.41406,-0.71875 z m -418.47461,0.2461 -4.92383,9.68164 0.95117,0.48242 0.49414,0.24805 4.86523,-9.71094 -0.46484,-0.23242 z m 415.67187,1.16992 -1.10937,0.55469 -0.28125,0.13867 4.80664,9.74023 0.31054,-0.15429 1.13868,-0.57032 z m -412.86719,0.24219 -4.86523,9.71093 0.6543,0.32618 0.79687,0.39257 4.80469,-9.74023 -0.76563,-0.37695 z m 410.05469,1.15234 -0.81055,0.40039 -0.58398,0.2832 4.74609,9.76954 0.61328,-0.29688 0.8418,-0.41602 z m -407.24219,0.24023 -4.80468,9.74024 0.35546,0.17578 1.09961,0.5332 4.7461,-9.76953 -1.07031,-0.51953 z m 404.42188,1.13672 -0.51563,0.25 -0.88476,0.42383 4.6875,9.79688 0.91406,-0.4375 0.54492,-0.26368 z m -401.59961,0.23633 -4.74609,9.76953 0.0586,0.0274 1.40234,0.67187 4.6875,-9.79883 -1.37304,-0.65625 z m 398.76953,1.1211 -0.2168,0.10351 -1.1875,0.56055 4.625,9.82617 1.21875,-0.57422 0.2461,-0.11719 z m -395.9668,0.21875 -4.62695,9.82617 1.43555,0.67578 4.62695,-9.82617 z m 393.15625,1.10546 -1.43945,0.66797 4.56641,9.85352 1.43945,-0.66602 z m -390.31445,0.22852 -4.56641,9.85352 1.43946,0.66601 4.5664,-9.85351 z m 387.46484,1.08984 -1.44336,0.65821 4.50782,9.88086 1.44336,-0.65821 z m -384.61328,0.22461 -4.50781,9.88086 1.44336,0.65821 4.50781,-9.88086 z m 381.75586,1.07422 -1.44726,0.64844 4.44726,9.91016 1.44531,-0.6504 z m -378.89648,0.2207 -4.44727,9.91016 1.44922,0.65039 0.0293,0.0117 4.38476,-9.9375 z m 376.02929,1.05665 -1.45117,0.64062 4.38672,9.9375 1.45117,-0.64062 z m -373.1621,0.21875 -4.38477,9.9375 1.1543,0.50976 0.32812,0.14258 4.32422,-9.96484 -0.29687,-0.12696 z m 370.2871,1.04101 -1.32617,0.57617 -0.0976,0.043 4.26367,9.98828 0.1289,-0.0547 1.35743,-0.5879 z m -367.41015,0.2168 -4.32422,9.96289 0.85937,0.37305 0.62696,0.26757 4.26367,-9.99023 -0.5957,-0.25391 z m 364.52734,1.02539 -1.0332,0.43945 -0.39649,0.16602 4.20313,10.01562 0.42578,-0.17773 1.06445,-0.45508 z m -361.64258,0.21094 -4.26367,9.99023 0.56641,0.24219 0.92578,0.38672 4.20117,-10.01368 -0.89453,-0.37695 z m 358.75,1.00976 -0.74023,0.31055 -0.69336,0.28515 4.14063,10.04102 0.7246,-0.29883 0.77149,-0.32422 z m -355.85742,0.20899 -4.20117,10.01562 0.27148,0.11328 1.22461,0.50586 4.14063,-10.04101 -1.19336,-0.49219 z m 352.95899,0.99218 -0.44727,0.1836 -0.99219,0.40234 4.08008,10.06445 1.02149,-0.41406 0.47851,-0.19531 z m -350.08789,0.19336 -4.08008,10.06446 1.4707,0.5957 4.07813,-10.06445 z m 347.17968,0.98828 -0.15234,0.0606 -1.29102,0.51367 4.01758,10.0918 1.32031,-0.52734 0.1836,-0.0742 z m -344.26953,0.1875 -4.01758,10.0918 1.47266,0.58594 4.01758,-10.08985 z m 341.38281,0.96094 -1.47656,0.57617 3.95508,10.11719 1.47656,-0.57812 z m -338.46484,0.19727 -3.95508,10.11523 1.47657,0.57813 3.95507,-10.11719 z m 335.54102,0.94336 -1.48047,0.56836 3.89258,10.13867 1.48046,-0.56836 z m -332.61719,0.19336 -3.89258,10.13867 1.48047,0.57031 3.89453,-10.14062 z m 329.68555,0.92773 -1.48438,0.55859 3.83008,10.16407 1.48437,-0.56055 z m -326.75196,0.18945 -3.83008,10.16407 1.47071,0.55468 0.0449,0.0156 3.76758,-10.18555 -0.0137,-0.006 z m 323.8125,0.91016 -1.48828,0.55078 3.76758,10.18555 1.48828,-0.54883 z m -320.87109,0.1875 -3.76758,10.1875 1.18164,0.4375 0.33789,0.12109 3.70508,-10.20898 -0.30664,-0.11133 z m 317.92383,0.89453 -1.37305,0.49805 -0.0859,0.0293 3.64258,10.23243 0.11719,-0.041 1.4043,-0.50976 z m -314.97657,0.18359 -3.70507,10.20899 0.89648,0.32617 0.62695,0.22266 3.64258,-10.23242 -0.5957,-0.21094 z m 312.02344,0.87696 -1.08789,0.38672 -0.375,0.13086 3.57813,10.25586 0.4082,-0.14258 1.11914,-0.39844 z m -309.06836,0.18164 -3.64258,10.23242 0.60938,0.2168 0.91992,0.32031 3.57813,-10.25586 -0.88672,-0.30859 z m 306.10742,0.85937 -0.80273,0.2793 -0.66406,0.22656 3.51367,10.27735 0.69922,-0.23828 0.83203,-0.29102 z m -303.14453,0.17774 -3.58007,10.2539 0.32226,0.11329 1.21094,0.41406 3.51562,-10.27735 -1.17773,-0.40234 z m 300.17578,0.84179 -0.51562,0.17774 -0.95508,0.32031 3.45117,10.29688 0.98633,-0.33008 0.54883,-0.1875 z m -297.20703,0.17579 -3.51562,10.27734 0.0371,0.0117 1.49804,0.50195 3.45313,-10.29687 -1.46875,-0.49219 z m 294.23243,0.82617 -0.23243,0.0762 -1.24218,0.4082 3.38867,10.32032 1.27344,-0.41797 0.26367,-0.0899 z m -291.28711,0.1582 -3.38868,10.32031 1.50782,0.49414 3.38672,-10.31836 z m 288.33789,0.81055 -1.50977,0.48633 3.32422,10.33984 1.50977,-0.48633 z m -285.35547,0.16601 -3.32422,10.33985 1.50976,0.48633 3.32422,-10.3418 z m 282.36719,0.79297 -1.51368,0.47656 3.25977,10.35938 1.51367,-0.47461 z m -279.37696,0.16211 -3.25976,10.36133 1.51172,0.47461 3.25976,-10.35938 z m 276.38086,0.77539 -1.51562,0.4668 3.19531,10.38086 1.51562,-0.4668 z m -273.38476,0.16016 -3.19727,10.38086 1.51758,0.46679 3.19531,-10.38085 z m 270.38476,0.75781 -1.51953,0.45899 3.13086,10.39843 1.51953,-0.45703 z m -267.38281,0.15625 -3.13086,10.40039 1.37109,0.41406 0.17969,0.0527 3.06641,-10.41992 -0.14844,-0.043 z m 264.375,0.74219 -1.52149,0.44726 3.06641,10.41993 1.52149,-0.44727 z m -261.36719,0.15234 -3.0664,10.41992 1.0957,0.32227 0.45898,0.13281 3.00196,-10.43945 -0.42579,-0.12109 z m 258.35352,0.72461 -1.31055,0.37695 -0.18164,0.0508 2.93555,10.45703 0.21484,-0.0606 1.34375,-0.38477 z m -255.33985,0.15039 -3.00195,10.4375 0.82422,0.23633 0.73437,0.20703 2.9375,-10.45703 -0.70312,-0.19727 z m 252.32032,0.70703 -1.03711,0.29102 -0.45899,0.125 2.87305,10.47461 0.49023,-0.13281 1.07032,-0.30079 z m -249.29883,0.14649 -2.9375,10.45703 0.54883,0.1543 1.01171,0.27734 2.87305,-10.47656 -0.98047,-0.26758 z m 246.27344,0.68945 -0.76563,0.21094 -0.73242,0.19531 2.80664,10.49219 0.76367,-0.20508 0.80078,-0.21875 z m -243.24805,0.14258 -2.8711,10.47461 0.27735,0.0762 1.28711,0.34375 2.80469,-10.49219 -1.25391,-0.33398 z m 240.21875,0.67383 -0.49805,0.13281 -1.0039,0.26172 2.74023,10.50976 1.03711,-0.27148 0.5293,-0.14063 z m -237.2207,0.13086 -2.74024,10.50976 1.53516,0.40039 2.74023,-10.50976 z m 234.18359,0.66406 -0.22852,0.0586 -1.27539,0.32422 2.67578,10.52735 1.3086,-0.33204 0.26172,-0.0684 z m -231.14649,0.125 -2.67382,10.52734 1.53711,0.39063 2.67382,-10.52735 z m 228.13868,0.64062 -1.53907,0.38086 2.60938,10.54297 1.53906,-0.38086 z m -225.09571,0.12891 -2.60937,10.54492 1.53906,0.38086 2.60938,-10.54297 z m 222.04883,0.62305 -1.54297,0.37109 2.54492,10.56055 1.54102,-0.37305 z m -219.00195,0.12695 -2.54297,10.55859 1.54297,0.3711 2.54297,-10.5586 z m 215.94922,0.60547 -1.54297,0.36133 2.47656,10.57422 1.54492,-0.36133 z m -212.89649,0.12305 -2.47656,10.57421 1.54297,0.36133 2.47851,-10.57422 z m 209.83985,0.58789 -1.54493,0.35156 2.41016,10.58984 1.54688,-0.35156 z m -206.78125,0.11914 -2.41211,10.58984 1.50781,0.34375 0.0723,0.0156 2.3457,-10.60352 -0.0391,-0.01 z m 203.7207,0.57031 -1.54883,0.3418 2.3457,10.60547 1.54883,-0.3418 z m -200.6582,0.11719 -2.34571,10.60547 1.25196,0.27734 0.33007,0.0703 2.2793,-10.61914 -0.29687,-0.0645 z m 197.59179,0.55273 -1.49414,0.32031 -0.0234,0.006 2.21289,10.63282 0.0566,-0.0117 1.52734,-0.32813 z m -194.52539,0.11328 -2.27929,10.61914 0.99804,0.21485 0.58594,0.12109 2.21289,-10.63281 -0.55273,-0.11524 z m 191.45508,0.53516 -1.24414,0.25781 -0.27539,0.0566 2.14453,10.64649 0.31055,-0.0625 1.27734,-0.26563 z m -188.38476,0.10937 -2.2129,10.63477 0.74805,0.1543 0.83985,0.16992 2.14648,-10.64649 -0.80664,-0.16406 z m 185.31054,0.51758 -0.99609,0.20117 -0.52735,0.10352 2.08008,10.66016 0.56055,-0.10938 1.02734,-0.20703 z m -182.23437,0.10742 -2.14649,10.64649 0.49805,0.10156 1.0918,0.21289 2.07812,-10.66015 -1.05664,-0.20704 z m 179.15429,0.5 -0.74804,0.14649 -0.77539,0.14648 2.01172,10.67188 0.81054,-0.15235 0.78125,-0.15234 z m -176.07421,0.10352 -2.08008,10.66016 0.25,0.0488 1.34179,0.25391 2.01172,-10.67383 -1.30664,-0.24609 z m 172.99218,0.48242 -0.5039,0.0957 -1.02344,0.18555 1.94531,10.68555 1.05664,-0.19141 L 560.73242,939 Z m -169.94336,0.0937 -1.94531,10.68555 1.56055,0.28515 1.94531,-10.68554 z m 166.85547,0.4707 -0.25976,0.0488 -1.26758,0.22266 1.87695,10.69726 1.30274,-0.22851 0.29296,-0.0527 z m -163.76758,0.0898 -1.87695,10.69726 1.5625,0.27539 1.87695,-10.69726 z m 160.67774,0.45508 -0.0195,0.004 -1.50977,0.25586 1.81055,10.70899 1.54297,-0.26172 0.0527,-0.01 z m -157.58594,0.084 -1.81055,10.71094 1.56446,0.26367 1.81054,-10.70898 z m 154.52539,0.43164 -1.5664,0.25586 1.74414,10.7207 1.56445,-0.25586 z m -151.43164,0.0879 -1.74219,10.72071 1.56641,0.2539 1.74219,-10.7207 z m 148.33399,0.41406 -1.56641,0.24415 1.67383,10.73242 1.56836,-0.2461 z m -145.23438,0.084 -1.67578,10.73047 1.56641,0.24414 1.67578,-10.73047 z m 142.13281,0.39648 -1.56836,0.23438 1.60743,10.74219 1.56835,-0.23633 z m -139.03125,0.0801 -1.60742,10.74024 1.56836,0.23632 1.60742,-10.74218 z m 135.92774,0.37891 -1.57032,0.22461 1.54102,10.75195 1.56836,-0.22461 z m -132.82422,0.0762 -1.53906,10.75195 1.49218,0.21289 0.11133,0.0156 1.47266,-10.75977 -0.0762,-0.0117 z m 129.7168,0.36133 -1.57227,0.21484 1.47266,10.76172 1.57226,-0.21484 z m -126.60743,0.0742 -1.47265,10.75976 1.26953,0.17383 0.33594,0.0449 1.40429,-10.77148 -0.30078,-0.0391 z m 123.4961,0.34375 -1.53711,0.19922 1.33594,10.77929 0.0195,-0.002 1.58789,-0.20703 z m -120.38672,0.0684 -1.4043,10.77148 1.05078,0.13672 0.55664,0.0684 1.33594,-10.77735 -0.52148,-0.0664 z m 117.27539,0.32617 -1.33789,0.16601 -0.20313,0.0254 1.26953,10.78516 0.23633,-0.0273 1.3711,-0.16993 z m -114.16211,0.0664 -1.33594,10.7793 0.83399,0.10352 0.77343,0.0918 1.26954,-10.78711 -0.74024,-0.0879 z m 111.04687,0.3086 -1.12304,0.13281 -0.41992,0.0469 1.20117,10.79492 0.45312,-0.0508 1.15625,-0.13672 z m -107.92968,0.0645 -1.26953,10.78711 0.61914,0.0723 0.99023,0.10937 1.20117,-10.79492 -0.95703,-0.10547 z m 104.81054,0.29102 -0.91211,0.10156 -0.63085,0.0644 1.13281,10.80274 0.66406,-0.0703 0.94727,-0.10546 z m -101.69336,0.0586 -1.20117,10.79492 0.41016,0.0449 1.20117,0.12696 1.13281,-10.80274 -1.16797,-0.12109 z m 98.57422,0.27344 -0.70507,0.0742 -0.83985,0.082 1.06445,10.80859 0.87305,-0.0859 0.73828,-0.0762 z m -95.45312,0.0566 -1.13281,10.80273 0.20117,0.0195 1.41211,0.14063 1.06445,-10.81055 -1.37891,-0.13476 z m 92.33008,0.25586 -0.5,0.0488 -1.04493,0.0957 0.9961,10.81641 1.07812,-0.0996 0.53516,-0.0527 z m -89.24219,0.0488 -0.99609,10.8164 1.58007,0.14453 0.9961,-10.81445 z m 86.11719,0.24218 -0.29883,0.0274 -1.2461,0.10742 0.92774,10.82031 1.28125,-0.10937 0.33203,-0.0312 z m -82.99219,0.0449 -0.92774,10.82031 1.58008,0.13672 0.92774,-10.82227 z m 79.86719,0.2246 -0.10157,0.008 -1.44531,0.11523 0.85742,10.82813 1.48047,-0.11914 0.13672,-0.01 z m -76.74024,0.041 -0.85937,10.82617 1.58203,0.125 0.85937,-10.82617 z m 73.64649,0.20508 -1.58203,0.11523 0.78906,10.83203 1.58203,-0.11523 z m -70.51758,0.0391 -0.79102,10.83203 1.58203,0.11524 0.79102,-10.83203 z m 67.38672,0.1875 -1.58203,0.10547 0.72265,10.83594 1.58203,-0.10547 z m -64.25782,0.0352 -0.7207,10.83789 1.58203,0.10547 0.72071,-10.83789 z m 61.12696,0.16992 -1.58399,0.0957 0.6543,10.8418 1.58398,-0.0957 z m -57.9961,0.0332 -0.65234,10.8418 1.58398,0.0957 0.65235,-10.84179 z m 54.86329,0.15235 -1.58399,0.0859 0.58594,10.84375 1.58398,-0.084 z m -51.73047,0.0293 -0.58399,10.84571 1.58399,0.084 0.58398,-10.8457 z m 48.59765,0.13477 -1.58398,0.0742 0.51562,10.84961 1.58399,-0.0762 z m -45.46289,0.0254 -0.51562,10.84961 1.58398,0.0742 0.51563,-10.84961 z m 42.32813,0.11719 -1.58399,0.0644 0.44727,10.85352 1.58398,-0.0664 z m -39.19336,0.0215 -0.44727,10.85352 1.48047,0.0605 0.13867,0.004 0.37891,-10.85352 -0.10547,-0.004 z m 36.05859,0.0996 -1.58594,0.0566 0.37891,10.85352 1.58594,-0.0547 z m -32.92383,0.0195 -0.3789,10.85547 1.31445,0.0449 0.30664,0.008 0.30859,-10.85546 -0.27148,-0.008 z m 29.78711,0.082 -1.58593,0.0449 0.31054,10.85743 1.58594,-0.0449 z m -26.65039,0.0156 -0.31054,10.85742 1.15039,0.0312 0.4707,0.0117 0.24023,-10.85938 -0.43554,-0.01 z m 23.51367,0.0645 -1.49804,0.0332 -0.0527,0.002 0.17188,10.85937 0.0879,-0.002 1.53125,-0.0332 z m -20.37695,0.0117 -0.24023,10.85937 0.99023,0.0215 0.62891,0.01 0.17187,-10.85937 -0.59375,-0.01 z m 17.24024,0.0469 -1.34375,0.0215 -0.20899,0.002 0.10352,10.86133 0.24218,-0.002 1.37891,-0.0215 z m -14.10352,0.01 -0.17188,10.85938 0.8379,0.0137 0.7832,0.008 0.10351,-10.86133 -0.75,-0.008 z m 10.96484,0.0293 -1.1914,0.0117 h -0.35938 l 0.0332,10.86132 h 0.39453 l 1.22656,-0.0117 z m -7.82617,0.006 -0.10351,10.85937 0.68554,0.008 0.93555,0.002 0.0332,-10.86133 -0.90039,-0.002 z m 4.68945,0.0117 -1.04687,0.004 -0.50586,-0.002 -0.0332,10.86133 0.53906,0.002 1.08008,-0.004 z"
         id="path10"
         transform="matrix(0.03883015,0,0,0.03883015,6.6138854,6.6138147)" /></g><g
       id="g7"
       transform="matrix(0.03883015,0,0,0.03883015,6.6138853,6.6138148)"
       inkscape:label="Icon">
	<path
   fill="#000080"
   d="m 835.5,473.6 c 0,-199.8 -162.2,-362 -362,-362 -199.8,0 -362,162.2 -362,362 0,199.8 162.2,362 362,362 199.8,0 362,-162.2 362,-362"
   id="path1" /><path
   fill="#000080"
   d="m 835.5,473.6 c 0,-199.8 -162.2,-362 -362,-362 -199.8,0 -362,162.2 -362,362 0,199.8 162.2,362 362,362 199.8,0 362,-162.2 362,-362"
   id="path12"
   transform="translate(1.609574e-6)"
   style="fill:url(#linearGradient13);stroke:none"
   inkscape:label="Light" />
	<path
   fill="#ffffff"
   d="m 729.5,323.6 c 0,-58.5 -47.5,-106 -106,-106 -58.5,0 -106,47.5 -106,106 0,58.5 47.5,106 106,106 58.5,0 106,-47.5 106,-106"
   id="path2" />
	<path
   fill="#000080"
   d="m 941.5,111.5 c 0,-58.5 -47.5,-106 -106,-106 -58.5,0 -106,47.5 -106,106 0,58.5 47.5,106 106,106 58.5,0 106,-47.4 106,-106"
   id="path3" />
	<path
   fill="#000080"
   d="m 941.5,111.5 c 0,-58.5 -47.5,-106 -106,-106 -58.5,0 -106,47.5 -106,106 0,58.5 47.5,106 106,106 58.5,0 106,-47.4 106,-106"
   id="path13"
   transform="translate(1.609574e-6)"
   style="fill:url(#linearGradient15)"
   inkscape:label="Light" /><g
   id="g6"
   inkscape:label="Text">
		<path
   fill="#ffffff"
   d="m 258.1,627.8 h 117.3 v 26.7 H 227.8 V 417 h 30.3 z"
   id="path4" />
		<path
   fill="#ffffff"
   d="m 515.5,654.5 v -23.8 c -16,22.5 -31.9,31.3 -57,31.3 -33.2,0 -54.4,-18.2 -54.4,-46.6 V 483.8 h 27 v 120.9 c 0,20.5 13.7,33.6 35.2,33.6 28.3,0 46.6,-22.8 46.6,-57.7 v -96.8 h 27 v 170.7 z"
   id="path5" />
		<path
   fill="#ffffff"
   d="m 738.4,659.1 c -8.8,2.3 -13,2.9 -18.6,2.9 -17.6,0 -26.1,-7.8 -28,-25.1 -19.2,17.6 -36.5,25.1 -58,25.1 -34.5,0 -56,-19.5 -56,-50.5 0,-22.2 10.1,-37.5 30,-45.6 10.4,-4.2 16.3,-5.5 54.7,-10.4 21.5,-2.6 28.3,-7.5 28.3,-18.9 v -7.2 c 0,-16.3 -13.7,-25.4 -38.1,-25.4 -25.4,0 -37.8,9.4 -40.1,30.3 h -27.4 c 0.7,-16.9 3.9,-26.7 11.7,-35.5 11.4,-12.7 31.9,-19.9 56.7,-19.9 42,0 64.2,16.3 64.2,46.6 v 100.4 c 0,8.5 5.2,13.4 14.7,13.4 1.6,0 2.9,0 5.9,-0.7 z m -47.6,-89 c -9.1,4.2 -15,5.5 -43.7,9.4 -29,4.2 -41.1,13.4 -41.1,31.3 0,17.3 12.4,27.4 33.6,27.4 16,0 29.3,-5.2 40.4,-15.3 8.1,-7.5 10.8,-13 10.8,-22.2 z"
   id="path6" />
	</g>
	<path
   fill="none"
   stroke="#808080"
   stroke-width="10.8612"
   stroke-miterlimit="10"
   stroke-dasharray="40.8475"
   d="m 890.6,261 c 33.5,65.8 51,138.6 51,212.5 0,258.4 -209.7,468.1 -468.1,468.1 C 215.1,941.6 5.4,731.9 5.4,473.5 5.4,215.1 215.1,5.4 473.5,5.4 c 83.1,0 164.6,22.1 236.2,63.9"
   id="path7" />
</g></g><style
     type="text/css"
     id="style1">
	.st0{fill:url(#ICON_00000088831890668800157600000002638584723837204667_);}
</style><style
     id="style1-7">.st10{fill:#333}</style><style
     type="text/css"
     id="style1-1">
	.st0{fill:url(#ICON_00000088831890668800157600000002638584723837204667_);}
</style><style
     id="style1-7-2">.st10{fill:#333}</style></svg>
