<?xml version="1.0" encoding="UTF-8" standalone="no"?>
<svg
   height="50"
   width="50"
   version="1.1"
   id="svg83"
   sodipodi:docname="Makefile_Box.svg"
   inkscape:export-filename="Makefile_Box.svg"
   inkscape:export-xdpi="96"
   inkscape:export-ydpi="96"
   inkscape:version="1.2.2 (b0a8486541, 2022-12-01)"
   xml:space="preserve"
   xmlns:inkscape="http://www.inkscape.org/namespaces/inkscape"
   xmlns:sodipodi="http://sodipodi.sourceforge.net/DTD/sodipodi-0.dtd"
   xmlns:xlink="http://www.w3.org/1999/xlink"
   xmlns="http://www.w3.org/2000/svg"
   xmlns:svg="http://www.w3.org/2000/svg"><defs
     id="defs87"><linearGradient
       id="linearGradient15"><stop
         style="stop-color:#876612;stop-opacity:0.50196081;"
         offset="0"
         id="stop15" /><stop
         style="stop-color:#e8b923;stop-opacity:1;"
         offset="1"
         id="stop8" /></linearGradient><linearGradient
       id="linearGradient2"><stop
         style="stop-color:#8097fd;stop-opacity:1;"
         offset="0"
         id="stop2-3" /><stop
         style="stop-color:#7de567;stop-opacity:1;"
         offset="0.24879615"
         id="stop12" /><stop
         style="stop-color:#7de567;stop-opacity:1;"
         offset="0.74879616"
         id="stop11" /><stop
         style="stop-color:#b73a39;stop-opacity:1;"
         offset="1"
         id="stop3" /></linearGradient><linearGradient
       xlink:href="#linearGradient2"
       id="linearGradient9"
       x1="25.000004"
       y1="2.3639462"
       x2="25.000004"
       y2="47.63604"
       gradientUnits="userSpaceOnUse" /><radialGradient
       xlink:href="#linearGradient15"
       id="radialGradient16"
       cx="25"
       cy="25"
       fx="25"
       fy="25"
       r="25"
       gradientUnits="userSpaceOnUse"
       gradientTransform="translate(-2.4265137e-6)"
       spreadMethod="pad" /><linearGradient
       id="L0"><stop
         style="stop-color:#fe798e"
         id="stop1" /><stop
         style="stop-color:#9c2219"
         offset="1"
         id="stop2-0" /></linearGradient><linearGradient
       id="L1"><stop
         style="stop-color:#bff872"
         id="stop3-9" /><stop
         style="stop-color:#7de567"
         offset="1"
         id="stop4-4" /></linearGradient><linearGradient
       id="L2"><stop
         style="stop-color:#92cbe2"
         id="stop5" /><stop
         style="stop-color:#7f95fe"
         offset="1"
         id="stop6" /></linearGradient><linearGradient
       xlink:href="#L2"
       id="L3"
       gradientUnits="userSpaceOnUse"
       gradientTransform="translate(92.2254,-0.313709)"
       x1="-143"
       y1="207.36218"
       x2="-129.5"
       y2="108.86218" /><linearGradient
       xlink:href="#L1"
       id="L4"
       gradientUnits="userSpaceOnUse"
       gradientTransform="translate(92.2254,-0.313709)"
       x1="-133.5"
       y1="221.86218"
       x2="-50"
       y2="279.36218" /><linearGradient
       xlink:href="#L0"
       id="L5"
       gradientUnits="userSpaceOnUse"
       gradientTransform="translate(92.2254,-0.313709)"
       x1="-157.5"
       y1="222.86218"
       x2="-247.5"
       y2="276.86218" /></defs><sodipodi:namedview
     id="namedview85"
     pagecolor="#ffffff"
     bordercolor="#000000"
     borderopacity="0.25"
     inkscape:showpageshadow="2"
     inkscape:pageopacity="0.0"
     inkscape:pagecheckerboard="0"
     inkscape:deskcolor="#d1d1d1"
     showgrid="false"
     inkscape:zoom="10.56"
     inkscape:cx="8.7121212"
     inkscape:cy="29.498106"
     inkscape:window-width="2560"
     inkscape:window-height="1369"
     inkscape:window-x="0"
     inkscape:window-y="0"
     inkscape:window-maximized="1"
     inkscape:current-layer="svg83" /><linearGradient
     id="a"
     gradientUnits="userSpaceOnUse"
     x1="48"
     x2="48"
     y1="90"
     y2="5.9877172"><stop
       offset="0"
       stop-color="#ebebeb"
       id="stop2"
       style="stop-color:#a7a7a7;stop-opacity:1;" /><stop
       offset="1"
       stop-color="#fafafa"
       id="stop4"
       style="stop-color:#e5e5e5;stop-opacity:1;" /></linearGradient><linearGradient
     id="b"
     gradientTransform="matrix(1.0058652,0,0,0.994169,100,0)"
     gradientUnits="userSpaceOnUse"
     x1="45.447727"
     x2="45.447727"
     y1="92.539597"
     y2="7.0165401"><stop
       offset="0"
       id="stop7" /><stop
       offset="1"
       stop-opacity=".588235"
       id="stop9" /></linearGradient><linearGradient
     id="c"
     gradientTransform="matrix(1.0238095,0,0,1.0119048,-1.142857,-98.071429)"
     gradientUnits="userSpaceOnUse"
     x1="32.251034"
     x2="32.251034"
     xlink:href="#b"
     y1="6.1317081"
     y2="90.238609" /><linearGradient
     id="d"
     gradientTransform="translate(0,-97)"
     gradientUnits="userSpaceOnUse"
     x1="32.251034"
     x2="32.251034"
     xlink:href="#b"
     y1="6.1317081"
     y2="90.238609" /><linearGradient
     id="e"><stop
       offset="0"
       stop-color="#fff"
       id="stop14" /><stop
       offset="1"
       stop-color="#fff"
       stop-opacity="0"
       id="stop16" /></linearGradient><radialGradient
     id="f"
     cx="48"
     cy="90.171875"
     gradientTransform="matrix(1.1573129,0,0,0.99590774,-7.551021,0.197132)"
     gradientUnits="userSpaceOnUse"
     r="42"
     xlink:href="#e" /><linearGradient
     id="g"
     gradientUnits="userSpaceOnUse"
     x1="36.357143"
     x2="36.357143"
     xlink:href="#e"
     y1="6"
     y2="63.893143"
     gradientTransform="matrix(0.91995739,0,0,0.98668795,0.48025569,1.1935087)" /><linearGradient
     id="h"
     gradientTransform="rotate(-90,48.000087,47.999896)"
     gradientUnits="userSpaceOnUse"
     x1="18.000002"
     x2="78.000175"
     y1="47.999897"
     y2="47.999897"><stop
       offset="0"
       stop-color="#bababa"
       id="stop21"
       style="stop-color:#818181;stop-opacity:1;" /><stop
       offset="1"
       stop-color="#d2d2d2"
       id="stop23"
       style="stop-color:#a7a7a7;stop-opacity:1;" /></linearGradient><clipPath
     id="i"><path
       d="m -88,6 c -3.324,0 -6,2.676 -6,6 v 72 c 0,3.324 2.676,6 6,6 h 72 c 3.324,0 6,-2.676 6,-6 V 12 c 0,-3.324 -2.676,-6 -6,-6 z m 31.84375,12 h 8.3125 c 1.180648,0 2.125,0.986683 2.125,2.1875 v 4.21875 c 2.111082,0.562476 4.123141,1.426616 5.96875,2.5 l 3,-3.03125 c 0.849111,-0.849025 2.196406,-0.866085 3.03125,-0.03125 l 5.875,5.875 c 0.834848,0.834847 0.817863,2.18214 -0.03125,3.03125 l -3.03125,3 c 1.073391,1.845617 1.937528,3.857672 2.5,5.96875 h 4.21875 c 1.200827,0 2.1875,0.944356 2.1875,2.125 v 8.3125 c 0,1.180653 -0.986672,2.125 -2.1875,2.125 h -4.21875 c -0.562472,2.111079 -1.426609,4.123134 -2.5,5.96875 l 3.03125,3 c 0.849106,0.849111 0.866094,2.196416 0.03125,3.03125 l -5.875,5.875 c -0.834844,0.834921 -2.182138,0.81786 -3.03125,-0.03125 l -3,-3.03125 c -1.84561,1.073389 -3.857669,1.937515 -5.96875,2.5 v 4.21875 c 0,1.200828 -0.944354,2.1875 -2.125,2.1875 h -8.3125 c -1.180646,0 -2.125,-0.986673 -2.125,-2.1875 v -4.21875 c -2.111081,-0.562485 -4.123141,-1.426613 -5.96875,-2.5 l -3,3.03125 c -0.849114,0.849022 -2.196407,0.866084 -3.03125,0.03125 l -5.875,-5.875 c -0.417421,-0.417418 -0.6298,-0.981833 -0.625,-1.53125 0.0047,-0.549422 0.231693,-1.075441 0.65625,-1.5 l 3.03125,-3 c -1.073391,-1.845614 -1.937528,-3.857673 -2.5,-5.96875 h -4.21875 c -1.200828,0 -2.1875,-0.944347 -2.1875,-2.125 v -8.3125 c 0,-1.180643 0.986672,-2.125 2.1875,-2.125 h 4.21875 c 0.562472,-2.111076 1.426609,-4.123135 2.5,-5.96875 l -3.03125,-3 c -0.849107,-0.84911 -0.866093,-2.196403 -0.03125,-3.03125 l 5.875,-5.875 c 0.834843,-0.834932 2.182137,-0.817858 3.03125,0.03125 l 3,3.03125 c 1.845609,-1.073383 3.85767,-1.937533 5.96875,-2.5 V 20.1875 c 0,-1.200817 0.944355,-2.1875 2.125,-2.1875 z M -52,38.9375 c -5.006511,0 -9.0625,4.055982 -9.0625,9.0625 0,5.006505 4.055989,9.0625 9.0625,9.0625 5.00651,0 9.0625,-4.055995 9.0625,-9.0625 0,-5.00652 -4.05599,-9.0625 -9.0625,-9.0625 z"
       id="path26" /></clipPath><filter
     id="j"
     color-interpolation-filters="sRGB"
     height="1.3213328"
     width="1.3213337"
     x="-0.16066687"
     y="-0.16066641"><feGaussianBlur
       stdDeviation="3.6000051"
       id="feGaussianBlur29" /></filter><clipPath
     id="k"><rect
       height="84"
       rx="6"
       width="84"
       x="6"
       y="6"
       id="rect32" /></clipPath><filter
     id="l"
     color-interpolation-filters="sRGB"
     height="1.3915758"
     width="1.3915758"
     x="-0.19578789"
     y="-0.19578789"><feGaussianBlur
       stdDeviation="5.28"
       id="feGaussianBlur35" /></filter><linearGradient
     id="m"
     gradientUnits="userSpaceOnUse"
     x1="48"
     x2="48"
     xlink:href="#e"
     y1="20.220806"
     y2="138.66119" /><g
     id="g79"
     transform="matrix(0.5952381,0,0,0.5952381,-3.5714286,-3.5714286)"><rect
       fill="url(#a)"
       height="84"
       rx="10.709455"
       width="84"
       x="6"
       y="6"
       id="rect53"
       style="fill:url(#a)"
       ry="10.709455" /><path
       d="m 18.000089,52.142336 c 0,1.180653 0.979404,2.136636 2.180232,2.136636 h 4.22965 c 0.562472,2.111077 1.412074,4.128219 2.485465,5.973833 l -3.00872,3.008727 c -0.424557,0.424559 -0.649414,0.933132 -0.654072,1.482554 -0.0048,0.549417 0.193045,1.10874 0.610466,1.526158 l 5.886628,5.886633 c 0.834843,0.834834 2.159607,0.805502 3.008721,-0.04352 l 3.008721,-3.008725 c 1.845609,1.073387 3.862754,1.922985 5.973835,2.48547 v 4.229646 c 0,1.200827 0.955981,2.180234 2.136627,2.180234 h 8.284884 c 1.180646,0 2.136628,-0.979407 2.136628,-2.180235 v -4.229645 c 2.111081,-0.562485 4.128226,-1.412083 5.973836,-2.485472 l 3.008721,3.008727 c 0.849112,0.84911 2.173875,0.878441 3.008719,0.04352 l 5.886628,-5.886633 c 0.834844,-0.834834 0.805506,-2.159603 -0.0436,-3.008714 l -3.00872,-3.008725 c 1.073391,-1.845616 1.922992,-3.862756 2.485464,-5.973835 h 4.229651 c 1.200828,0 2.180233,-0.955981 2.180233,-2.136634 v -8.284881 c 0,-1.180644 -0.979405,-2.136624 -2.180232,-2.136624 H 71.590203 C 71.027731,39.609753 70.17813,37.592613 69.104739,35.746996 l 3.00872,-3.008725 c 0.849113,-0.84911 0.878448,-2.173877 0.0436,-3.008724 l -5.886627,-5.886621 c -0.834844,-0.834835 -2.159609,-0.805505 -3.00872,0.04352 l -3.008721,3.008711 C 58.407382,25.821773 56.390237,24.972176 54.279155,24.4097 v -4.229657 c 0,-1.200817 -0.95598,-2.180232 -2.136628,-2.180232 h -8.284884 c -1.180645,0 -2.136628,0.979415 -2.136628,2.180232 V 24.4097 c -2.11108,0.562467 -4.128225,1.412068 -5.973834,2.485451 l -3.008722,-3.008713 c -0.849113,-0.849108 -2.173877,-0.878452 -3.00872,-0.04352 l -5.886628,5.886625 c -0.834843,0.834847 -0.805507,2.159615 0.0436,3.008725 l 3.008722,3.008725 c -1.073391,1.845615 -1.922994,3.862756 -2.485466,5.973832 h -4.22965 c -1.200828,0 -2.180231,0.955982 -2.180231,2.136625 v 8.284881 z m 20.930229,-4.142435 c 0,-5.006518 4.063256,-9.069769 9.069767,-9.069769 5.00651,0 9.069766,4.063249 9.069766,9.069769 0,5.006505 -4.063256,9.069769 -9.069766,9.069769 -5.006511,0 -9.069767,-4.063263 -9.069767,-9.069768 z"
       display="block"
       fill="url(#h)"
       id="path73"
       style="fill:url(#h)" /><path
       d="m 43.84375,18 c -1.180645,0 -2.125,0.986683 -2.125,2.1875 v 1 c 0,-1.200817 0.944355,-2.1875 2.125,-2.1875 h 8.3125 c 1.180648,0 2.125,0.986683 2.125,2.1875 v -1 C 54.28125,18.986683 53.336898,18 52.15625,18 Z m -12.625,5.21875 c -0.541685,-0.0091 -1.082579,0.207534 -1.5,0.625 l -5.875,5.875 c -0.546032,0.546035 -0.712161,1.304966 -0.53125,2 0.08476,-0.362825 0.244784,-0.713533 0.53125,-1 l 5.875,-5.875 C 30.553593,24.008818 31.900887,24.025892 32.75,24.875 l 3,3.03125 c 1.845609,-1.073383 3.85767,-1.937533 5.96875,-2.5 v -1 c -2.11108,0.562467 -4.123141,1.426617 -5.96875,2.5 l -3,-3.03125 c -0.424557,-0.424554 -0.989565,-0.647142 -1.53125,-0.65625 z m 33.5625,0 C 64.239564,23.22785 63.674555,23.450488 63.25,23.875 l -3,3.03125 c -1.845609,-1.073384 -3.857668,-1.937524 -5.96875,-2.5 v 1 c 2.111082,0.562476 4.123141,1.426616 5.96875,2.5 l 3,-3.03125 c 0.849111,-0.849025 2.196406,-0.866085 3.03125,-0.03125 l 5.875,5.875 c 0.286467,0.286467 0.446492,0.637175 0.53125,1 0.180912,-0.695033 0.01479,-1.453965 -0.53125,-2 l -5.875,-5.875 c -0.417422,-0.417417 -0.958314,-0.634106 -1.5,-0.625 z M 26.5625,36.40625 c -0.903523,1.667225 -1.658515,3.444397 -2.15625,5.3125 H 20.1875 c -1.200828,0 -2.1875,0.944357 -2.1875,2.125 v 1 c 0,-1.180643 0.986672,-2.125 2.1875,-2.125 h 4.21875 c 0.562472,-2.111076 1.426609,-4.123135 2.5,-5.96875 z m 42.875,0 -0.34375,0.34375 c 1.073391,1.845617 1.937528,3.857672 2.5,5.96875 h 4.21875 c 1.200827,0 2.1875,0.944356 2.1875,2.125 v -1 c 0,-1.180644 -0.986673,-2.125 -2.1875,-2.125 H 71.59375 C 71.096015,39.850645 70.341022,38.073476 69.4375,36.40625 Z M 38.96875,48.5 c -0.0089,0.16483 -0.03125,0.332954 -0.03125,0.5 0,5.006505 4.055989,9.0625 9.0625,9.0625 5.00651,0 9.0625,-4.055995 9.0625,-9.0625 0,-0.167046 -0.02232,-0.33517 -0.03125,-0.5 -0.258742,4.775258 -4.191786,8.5625 -9.03125,8.5625 -4.839465,0 -8.772508,-3.787242 -9.03125,-8.5625 z M 26.5625,60.59375 23.875,63.25 c -0.424557,0.424559 -0.651592,0.950578 -0.65625,1.5 -0.0016,0.179795 0.05132,0.354653 0.09375,0.53125 0.09341,-0.36845 0.262657,-0.731405 0.5625,-1.03125 l 3.03125,-3 C 26.782709,61.03758 26.680016,60.810596 26.5625,60.59375 Z m 42.875,0 c -0.117516,0.216846 -0.220209,0.44383 -0.34375,0.65625 l 3.03125,3 c 0.293745,0.293747 0.466811,0.663629 0.5625,1.03125 C 72.84975,64.586702 72.6827,63.807749 72.125,63.25 Z"
       display="block"
       opacity="0.2"
       id="path75" /><path
       d="m 23.3125,31.71875 c -0.16225,0.694552 0.0048,1.473501 0.5625,2.03125 l 2.6875,2.65625 c 0.117516,-0.216846 0.220209,-0.44383 0.34375,-0.65625 l -3.03125,-3 c -0.293745,-0.293746 -0.466812,-0.663629 -0.5625,-1.03125 z m 49.375,0 C 72.59181,32.086371 72.418747,32.456254 72.125,32.75 l -3.03125,3 c 0.123541,0.21242 0.226234,0.439404 0.34375,0.65625 L 72.125,33.75 c 0.557751,-0.557749 0.724751,-1.336699 0.5625,-2.03125 z M 48,38.9375 c -5.006511,0 -9.0625,4.055982 -9.0625,9.0625 0,0.167046 0.02232,0.33517 0.03125,0.5 0.258742,-4.775269 4.191785,-8.5625 9.03125,-8.5625 4.839464,0 8.772508,3.787229 9.03125,8.5625 0.0089,-0.16483 0.03125,-0.332954 0.03125,-0.5 0,-5.00652 -4.05599,-9.0625 -9.0625,-9.0625 z M 18,52.15625 v 1 c 0,1.180653 0.986672,2.125 2.1875,2.125 h 4.21875 c 0.497735,1.868104 1.252727,3.645276 2.15625,5.3125 L 26.90625,60.25 c -1.073391,-1.845614 -1.937528,-3.857673 -2.5,-5.96875 H 20.1875 C 18.986672,54.28125 18,53.336903 18,52.15625 Z m 60,0 c 0,1.180653 -0.986672,2.125 -2.1875,2.125 h -4.21875 c -0.562472,2.111079 -1.426609,4.123134 -2.5,5.96875 l 0.34375,0.34375 c 0.903522,-1.667225 1.658515,-3.444394 2.15625,-5.3125 h 4.21875 c 1.200828,0 2.1875,-0.944347 2.1875,-2.125 z m -54.6875,13.125 c -0.03885,0.153249 -0.09238,0.307357 -0.09375,0.46875 -0.0048,0.549417 0.207579,1.113832 0.625,1.53125 l 5.875,5.875 c 0.834843,0.834834 2.182136,0.817772 3.03125,-0.03125 l 3,-3.03125 c 1.845609,1.073387 3.857669,1.937515 5.96875,2.5 v -1 c -2.111081,-0.562485 -4.123141,-1.426613 -5.96875,-2.5 l -3,3.03125 c -0.849114,0.849022 -2.196407,0.866084 -3.03125,0.03125 l -5.875,-5.875 c -0.280821,-0.280819 -0.444032,-0.636954 -0.53125,-1 z m 49.375,0 c -0.08476,0.362824 -0.244784,0.713537 -0.53125,1 l -5.875,5.875 C 65.446406,72.991171 64.099112,72.97411 63.25,72.125 l -3,-3.03125 c -1.84561,1.073389 -3.857669,1.937515 -5.96875,2.5 v 1 c 2.111081,-0.562485 4.12314,-1.426611 5.96875,-2.5 l 3,3.03125 c 0.849112,0.84911 2.196406,0.866171 3.03125,0.03125 l 5.875,-5.875 c 0.546033,-0.546027 0.712161,-1.304967 0.53125,-2 z M 41.71875,75.8125 v 1 c 0,1.200827 0.944354,2.1875 2.125,2.1875 h 8.3125 c 1.180646,0 2.125,-0.986672 2.125,-2.1875 v -1 c 0,1.200828 -0.944354,2.1875 -2.125,2.1875 h -8.3125 c -1.180646,0 -2.125,-0.986673 -2.125,-2.1875 z"
       display="block"
       fill="#ffffff"
       id="path77" /></g></svg>
