<?xml version="1.0" encoding="UTF-8" standalone="no"?>
<svg
   height="50"
   width="50"
   version="1.1"
   id="svg83"
   sodipodi:docname="Makefile_Box.svg"
   inkscape:export-filename="Makefile_Box.svg"
   inkscape:export-xdpi="96"
   inkscape:export-ydpi="96"
   inkscape:version="1.2.2 (b0a8486541, 2022-12-01)"
   xml:space="preserve"
   xmlns:inkscape="http://www.inkscape.org/namespaces/inkscape"
   xmlns:sodipodi="http://sodipodi.sourceforge.net/DTD/sodipodi-0.dtd"
   xmlns:xlink="http://www.w3.org/1999/xlink"
   xmlns="http://www.w3.org/2000/svg"
   xmlns:svg="http://www.w3.org/2000/svg"><defs
     id="defs87"><linearGradient
       id="linearGradient15"><stop
         style="stop-color:#876612;stop-opacity:0.50196081;"
         offset="0"
         id="stop15" /><stop
         style="stop-color:#e8b923;stop-opacity:1;"
         offset="1"
         id="stop8" /></linearGradient><linearGradient
       id="linearGradient2"><stop
         style="stop-color:#8097fd;stop-opacity:1;"
         offset="0"
         id="stop2-3" /><stop
         style="stop-color:#7de567;stop-opacity:1;"
         offset="0.24879615"
         id="stop12" /><stop
         style="stop-color:#7de567;stop-opacity:1;"
         offset="0.74879616"
         id="stop11" /><stop
         style="stop-color:#b73a39;stop-opacity:1;"
         offset="1"
         id="stop3" /></linearGradient><linearGradient
       xlink:href="#linearGradient2"
       id="linearGradient9"
       x1="25.000004"
       y1="2.3639462"
       x2="25.000004"
       y2="47.63604"
       gradientUnits="userSpaceOnUse" /><radialGradient
       xlink:href="#linearGradient15"
       id="radialGradient16"
       cx="25"
       cy="25"
       fx="25"
       fy="25"
       r="25"
       gradientUnits="userSpaceOnUse"
       gradientTransform="translate(-2.4265137e-6)"
       spreadMethod="pad" /><linearGradient
       id="L0"><stop
         style="stop-color:#fe798e"
         id="stop1" /><stop
         style="stop-color:#9c2219"
         offset="1"
         id="stop2-0" /></linearGradient><linearGradient
       id="L1"><stop
         style="stop-color:#bff872"
         id="stop3-9" /><stop
         style="stop-color:#7de567"
         offset="1"
         id="stop4-4" /></linearGradient><linearGradient
       id="L2"><stop
         style="stop-color:#92cbe2"
         id="stop5" /><stop
         style="stop-color:#7f95fe"
         offset="1"
         id="stop6" /></linearGradient><linearGradient
       xlink:href="#L2"
       id="L3"
       gradientUnits="userSpaceOnUse"
       gradientTransform="translate(92.2254,-0.313709)"
       x1="-143"
       y1="207.36218"
       x2="-129.5"
       y2="108.86218" /><linearGradient
       xlink:href="#L1"
       id="L4"
       gradientUnits="userSpaceOnUse"
       gradientTransform="translate(92.2254,-0.313709)"
       x1="-133.5"
       y1="221.86218"
       x2="-50"
       y2="279.36218" /><linearGradient
       xlink:href="#L0"
       id="L5"
       gradientUnits="userSpaceOnUse"
       gradientTransform="translate(92.2254,-0.313709)"
       x1="-157.5"
       y1="222.86218"
       x2="-247.5"
       y2="276.86218" /><filter
       inkscape:collect="always"
       style="color-interpolation-filters:sRGB"
       id="filter994"
       x="-0.015493505"
       y="-0.019532177"
       width="1.030987"
       height="1.0390644"><feGaussianBlur
         inkscape:collect="always"
         stdDeviation="0.38734368"
         id="feGaussianBlur996" /></filter></defs><sodipodi:namedview
     id="namedview85"
     pagecolor="#ffffff"
     bordercolor="#000000"
     borderopacity="0.25"
     inkscape:showpageshadow="2"
     inkscape:pageopacity="0.0"
     inkscape:pagecheckerboard="0"
     inkscape:deskcolor="#d1d1d1"
     showgrid="false"
     inkscape:zoom="14.934095"
     inkscape:cx="16.338452"
     inkscape:cy="26.282141"
     inkscape:window-width="2560"
     inkscape:window-height="1369"
     inkscape:window-x="0"
     inkscape:window-y="0"
     inkscape:window-maximized="1"
     inkscape:current-layer="g79" /><linearGradient
     id="a"
     gradientUnits="userSpaceOnUse"
     x1="48"
     x2="48"
     y1="90"
     y2="5.9877172"><stop
       offset="0"
       stop-color="#ebebeb"
       id="stop2"
       style="stop-color:#585858;stop-opacity:1;" /><stop
       offset="1"
       stop-color="#fafafa"
       id="stop4"
       style="stop-color:#818181;stop-opacity:1;" /></linearGradient><linearGradient
     id="b"
     gradientTransform="matrix(1.0058652,0,0,0.994169,100,0)"
     gradientUnits="userSpaceOnUse"
     x1="45.447727"
     x2="45.447727"
     y1="92.539597"
     y2="7.0165401"><stop
       offset="0"
       id="stop7" /><stop
       offset="1"
       stop-opacity=".588235"
       id="stop9" /></linearGradient><linearGradient
     id="c"
     gradientTransform="matrix(1.0238095,0,0,1.0119048,-1.142857,-98.071429)"
     gradientUnits="userSpaceOnUse"
     x1="32.251034"
     x2="32.251034"
     xlink:href="#b"
     y1="6.1317081"
     y2="90.238609" /><linearGradient
     id="d"
     gradientTransform="translate(0,-97)"
     gradientUnits="userSpaceOnUse"
     x1="32.251034"
     x2="32.251034"
     xlink:href="#b"
     y1="6.1317081"
     y2="90.238609" /><linearGradient
     id="e"><stop
       offset="0"
       stop-color="#fff"
       id="stop14" /><stop
       offset="1"
       stop-color="#fff"
       stop-opacity="0"
       id="stop16" /></linearGradient><radialGradient
     id="f"
     cx="48"
     cy="90.171875"
     gradientTransform="matrix(1.1573129,0,0,0.99590774,-7.551021,0.197132)"
     gradientUnits="userSpaceOnUse"
     r="42"
     xlink:href="#e" /><linearGradient
     id="g"
     gradientUnits="userSpaceOnUse"
     x1="36.357143"
     x2="36.357143"
     xlink:href="#e"
     y1="6"
     y2="63.893143"
     gradientTransform="matrix(0.91995739,0,0,0.98668795,0.48025569,1.1935087)" /><linearGradient
     id="h"
     gradientTransform="rotate(-90,48.000087,47.999896)"
     gradientUnits="userSpaceOnUse"
     x1="18.000002"
     x2="78.000175"
     y1="47.999897"
     y2="47.999897"><stop
       offset="0"
       stop-color="#bababa"
       id="stop21"
       style="stop-color:#818181;stop-opacity:1;" /><stop
       offset="1"
       stop-color="#d2d2d2"
       id="stop23"
       style="stop-color:#a7a7a7;stop-opacity:1;" /></linearGradient><clipPath
     id="i"><path
       d="m -88,6 c -3.324,0 -6,2.676 -6,6 v 72 c 0,3.324 2.676,6 6,6 h 72 c 3.324,0 6,-2.676 6,-6 V 12 c 0,-3.324 -2.676,-6 -6,-6 z m 31.84375,12 h 8.3125 c 1.180648,0 2.125,0.986683 2.125,2.1875 v 4.21875 c 2.111082,0.562476 4.123141,1.426616 5.96875,2.5 l 3,-3.03125 c 0.849111,-0.849025 2.196406,-0.866085 3.03125,-0.03125 l 5.875,5.875 c 0.834848,0.834847 0.817863,2.18214 -0.03125,3.03125 l -3.03125,3 c 1.073391,1.845617 1.937528,3.857672 2.5,5.96875 h 4.21875 c 1.200827,0 2.1875,0.944356 2.1875,2.125 v 8.3125 c 0,1.180653 -0.986672,2.125 -2.1875,2.125 h -4.21875 c -0.562472,2.111079 -1.426609,4.123134 -2.5,5.96875 l 3.03125,3 c 0.849106,0.849111 0.866094,2.196416 0.03125,3.03125 l -5.875,5.875 c -0.834844,0.834921 -2.182138,0.81786 -3.03125,-0.03125 l -3,-3.03125 c -1.84561,1.073389 -3.857669,1.937515 -5.96875,2.5 v 4.21875 c 0,1.200828 -0.944354,2.1875 -2.125,2.1875 h -8.3125 c -1.180646,0 -2.125,-0.986673 -2.125,-2.1875 v -4.21875 c -2.111081,-0.562485 -4.123141,-1.426613 -5.96875,-2.5 l -3,3.03125 c -0.849114,0.849022 -2.196407,0.866084 -3.03125,0.03125 l -5.875,-5.875 c -0.417421,-0.417418 -0.6298,-0.981833 -0.625,-1.53125 0.0047,-0.549422 0.231693,-1.075441 0.65625,-1.5 l 3.03125,-3 c -1.073391,-1.845614 -1.937528,-3.857673 -2.5,-5.96875 h -4.21875 c -1.200828,0 -2.1875,-0.944347 -2.1875,-2.125 v -8.3125 c 0,-1.180643 0.986672,-2.125 2.1875,-2.125 h 4.21875 c 0.562472,-2.111076 1.426609,-4.123135 2.5,-5.96875 l -3.03125,-3 c -0.849107,-0.84911 -0.866093,-2.196403 -0.03125,-3.03125 l 5.875,-5.875 c 0.834843,-0.834932 2.182137,-0.817858 3.03125,0.03125 l 3,3.03125 c 1.845609,-1.073383 3.85767,-1.937533 5.96875,-2.5 V 20.1875 c 0,-1.200817 0.944355,-2.1875 2.125,-2.1875 z M -52,38.9375 c -5.006511,0 -9.0625,4.055982 -9.0625,9.0625 0,5.006505 4.055989,9.0625 9.0625,9.0625 5.00651,0 9.0625,-4.055995 9.0625,-9.0625 0,-5.00652 -4.05599,-9.0625 -9.0625,-9.0625 z"
       id="path26" /></clipPath><filter
     id="j"
     color-interpolation-filters="sRGB"
     height="1.3213328"
     width="1.3213337"
     x="-0.16066687"
     y="-0.16066641"><feGaussianBlur
       stdDeviation="3.6000051"
       id="feGaussianBlur29" /></filter><clipPath
     id="k"><rect
       height="84"
       rx="6"
       width="84"
       x="6"
       y="6"
       id="rect32" /></clipPath><filter
     id="l"
     color-interpolation-filters="sRGB"
     height="1.3915758"
     width="1.3915758"
     x="-0.19578789"
     y="-0.19578789"><feGaussianBlur
       stdDeviation="5.28"
       id="feGaussianBlur35" /></filter><linearGradient
     id="m"
     gradientUnits="userSpaceOnUse"
     x1="48"
     x2="48"
     xlink:href="#e"
     y1="20.220806"
     y2="138.66119" /><g
     id="g79"
     transform="matrix(0.5952381,0,0,0.5952381,-3.5714286,-3.5714286)"><rect
       fill="url(#a)"
       height="84"
       rx="10.709455"
       width="84"
       x="6"
       y="6"
       id="rect53"
       style="fill:url(#a)"
       ry="10.709455" /><path
       d="m 18.000089,52.142336 c 0,1.180653 0.979404,2.136636 2.180232,2.136636 h 4.22965 c 0.562472,2.111077 1.412074,4.128219 2.485465,5.973833 l -3.00872,3.008727 c -0.424557,0.424559 -0.649414,0.933132 -0.654072,1.482554 -0.0048,0.549417 0.193045,1.10874 0.610466,1.526158 l 5.886628,5.886633 c 0.834843,0.834834 2.159607,0.805502 3.008721,-0.04352 l 3.008721,-3.008725 c 1.845609,1.073387 3.862754,1.922985 5.973835,2.48547 v 4.229646 c 0,1.200827 0.955981,2.180234 2.136627,2.180234 h 8.284884 c 1.180646,0 2.136628,-0.979407 2.136628,-2.180235 v -4.229645 c 2.111081,-0.562485 4.128226,-1.412083 5.973836,-2.485472 l 3.008721,3.008727 c 0.849112,0.84911 2.173875,0.878441 3.008719,0.04352 l 5.886628,-5.886633 c 0.834844,-0.834834 0.805506,-2.159603 -0.0436,-3.008714 l -3.00872,-3.008725 c 1.073391,-1.845616 1.922992,-3.862756 2.485464,-5.973835 h 4.229651 c 1.200828,0 2.180233,-0.955981 2.180233,-2.136634 v -8.284881 c 0,-1.180644 -0.979405,-2.136624 -2.180232,-2.136624 H 71.590203 C 71.027731,39.609753 70.17813,37.592613 69.104739,35.746996 l 3.00872,-3.008725 c 0.849113,-0.84911 0.878448,-2.173877 0.0436,-3.008724 l -5.886627,-5.886621 c -0.834844,-0.834835 -2.159609,-0.805505 -3.00872,0.04352 l -3.008721,3.008711 C 58.407382,25.821773 56.390237,24.972176 54.279155,24.4097 v -4.229657 c 0,-1.200817 -0.95598,-2.180232 -2.136628,-2.180232 h -8.284884 c -1.180645,0 -2.136628,0.979415 -2.136628,2.180232 V 24.4097 c -2.11108,0.562467 -4.128225,1.412068 -5.973834,2.485451 l -3.008722,-3.008713 c -0.849113,-0.849108 -2.173877,-0.878452 -3.00872,-0.04352 l -5.886628,5.886625 c -0.834843,0.834847 -0.805507,2.159615 0.0436,3.008725 l 3.008722,3.008725 c -1.073391,1.845615 -1.922994,3.862756 -2.485466,5.973832 h -4.22965 c -1.200828,0 -2.180231,0.955982 -2.180231,2.136625 v 8.284881 z m 20.930229,-4.142435 c 0,-5.006518 4.063256,-9.069769 9.069767,-9.069769 5.00651,0 9.069766,4.063249 9.069766,9.069769 0,5.006505 -4.063256,9.069769 -9.069766,9.069769 -5.006511,0 -9.069767,-4.063263 -9.069767,-9.069768 z"
       display="block"
       fill="url(#h)"
       id="path432"
       style="fill:url(#h)" /><path
       id="rect359"
       clip-path="none"
       style="fill:#000000;stroke-width:2.7252;-inkscape-stroke:none;stop-color:#000000;filter:url(#filter994)"
       d="M 43.859062 17.999531 C 42.67842 17.999531 41.719687 18.980747 41.719687 20.181562 L 41.719687 21.740156 C 41.719687 20.539342 42.67842 19.558125 43.859062 19.558125 L 52.140937 19.558125 C 53.321581 19.558125 54.280312 20.539342 54.280312 21.740156 L 54.280312 20.181562 C 54.280312 18.980747 53.321584 17.999531 52.140937 17.999531 L 43.859062 17.999531 z M 31.229531 23.233125 C 30.687846 23.224018 30.147421 23.425968 29.73 23.843437 L 23.843437 29.73 C 23.231204 30.342237 23.087571 31.215999 23.387344 31.974375 C 23.488876 31.725971 23.639459 31.492571 23.843437 31.288594 L 29.73 25.402031 C 30.564841 24.5671 31.889797 24.595586 32.738906 25.444687 L 35.747812 28.453594 C 37.593418 27.380213 39.608611 26.532154 41.719687 25.969687 L 41.719687 24.411094 C 39.608609 24.973561 37.59342 25.821619 35.747812 26.895 L 32.738906 23.886094 C 32.314349 23.461541 31.771216 23.242232 31.229531 23.233125 z M 64.770468 23.233125 C 64.228783 23.24223 63.685648 23.461587 63.261093 23.886094 L 60.252187 26.895 C 58.406578 25.821626 56.391393 24.973569 54.280312 24.411094 L 54.280312 25.969687 C 56.39139 26.532163 58.406583 27.380211 60.252187 28.453594 L 63.261093 25.444687 C 64.110203 24.595665 65.435156 24.567193 66.27 25.402031 L 72.156562 31.288594 C 72.36054 31.492571 72.511123 31.725971 72.612656 31.974375 C 72.91243 31.215998 72.768798 30.342238 72.156562 29.73 L 66.27 23.843437 C 65.852578 23.426021 65.312153 23.22402 64.770468 23.233125 z M 26.350312 36.761719 C 25.536714 38.325086 24.872797 39.986821 24.411094 41.719687 L 20.181562 41.719687 C 18.980736 41.719687 17.999531 42.67842 17.999531 43.859062 L 17.999531 45.417656 C 17.999531 44.237015 18.980738 43.278281 20.181562 43.278281 L 24.411094 43.278281 C 24.973566 41.167208 25.82161 39.152017 26.895 37.306406 L 26.350312 36.761719 z M 69.649687 36.761719 L 69.104999 37.306406 C 70.178387 39.15202 71.026435 41.167207 71.588906 43.278281 L 75.818437 43.278281 C 77.019263 43.278281 78.000468 44.237014 78.000468 45.417656 L 78.000468 43.859062 C 78.000468 42.678418 77.019263 41.719687 75.818437 41.719687 L 71.588906 41.719687 C 71.127204 39.98682 70.463285 38.325088 69.649687 36.761719 z M 38.986406 48.994218 C 38.974483 49.184445 38.930625 49.365377 38.930625 49.558593 C 38.930625 54.565087 42.993499 58.627968 48 58.627968 C 53.006499 58.627968 57.069375 54.565087 57.069375 49.558593 C 57.069375 49.365377 57.025517 49.184445 57.013593 48.994218 C 56.516896 53.532425 52.669739 57.069375 48 57.069375 C 43.330261 57.069375 39.483104 53.532425 38.986406 48.994218 z M 26.350312 60.796875 L 23.886094 63.261093 C 23.461536 63.685651 23.237783 64.194797 23.233125 64.744218 C 23.230611 65.02613 23.284081 65.311037 23.390625 65.577656 C 23.499904 65.306306 23.657032 65.048751 23.886094 64.819687 L 26.895 61.810781 C 26.702697 61.480131 26.527803 61.137986 26.350312 60.796875 z M 69.649687 60.796875 C 69.472196 61.137986 69.297302 61.480131 69.104999 61.810781 L 72.113906 64.819687 C 72.342768 65.048551 72.500591 65.314974 72.609374 65.594062 C 72.928535 64.82386 72.758231 63.905425 72.113906 63.261093 L 69.649687 60.796875 z " /></g></svg>
