<?xml version="1.0" encoding="UTF-8" standalone="no"?>
<svg
   height="50"
   width="50"
   version="1.1"
   id="svg83"
   sodipodi:docname="Makefile_Box.svg"
   inkscape:export-filename="Makefile_Box.svg"
   inkscape:export-xdpi="96"
   inkscape:export-ydpi="96"
   inkscape:version="1.4.2 (ebf0e940d0, 2025-05-08)"
   xml:space="preserve"
   xmlns:inkscape="http://www.inkscape.org/namespaces/inkscape"
   xmlns:sodipodi="http://sodipodi.sourceforge.net/DTD/sodipodi-0.dtd"
   xmlns:xlink="http://www.w3.org/1999/xlink"
   xmlns="http://www.w3.org/2000/svg"
   xmlns:svg="http://www.w3.org/2000/svg"><defs
     id="defs87"><linearGradient
       id="linearGradient15"><stop
         style="stop-color:#876612;stop-opacity:0.50196081;"
         offset="0"
         id="stop15" /><stop
         style="stop-color:#e8b923;stop-opacity:1;"
         offset="1"
         id="stop8" /></linearGradient><linearGradient
       id="linearGradient2"><stop
         style="stop-color:#8097fd;stop-opacity:1;"
         offset="0"
         id="stop2-3" /><stop
         style="stop-color:#7de567;stop-opacity:1;"
         offset="0.24879615"
         id="stop12" /><stop
         style="stop-color:#7de567;stop-opacity:1;"
         offset="0.74879616"
         id="stop11" /><stop
         style="stop-color:#b73a39;stop-opacity:1;"
         offset="1"
         id="stop3" /></linearGradient><linearGradient
       xlink:href="#linearGradient2"
       id="linearGradient9"
       x1="25.000004"
       y1="2.3639462"
       x2="25.000004"
       y2="47.63604"
       gradientUnits="userSpaceOnUse" /><radialGradient
       xlink:href="#linearGradient15"
       id="radialGradient16"
       cx="25"
       cy="25"
       fx="25"
       fy="25"
       r="25"
       gradientUnits="userSpaceOnUse"
       gradientTransform="translate(-2.4265137e-6)"
       spreadMethod="pad" /><linearGradient
       id="L0"><stop
         style="stop-color:#fe798e"
         id="stop1" /><stop
         style="stop-color:#9c2219"
         offset="1"
         id="stop2-0" /></linearGradient><linearGradient
       id="L1"><stop
         style="stop-color:#bff872"
         id="stop3-9" /><stop
         style="stop-color:#7de567"
         offset="1"
         id="stop4-4" /></linearGradient><linearGradient
       id="L2"><stop
         style="stop-color:#92cbe2"
         id="stop5" /><stop
         style="stop-color:#7f95fe"
         offset="1"
         id="stop6" /></linearGradient><linearGradient
       xlink:href="#L2"
       id="L3"
       gradientUnits="userSpaceOnUse"
       gradientTransform="translate(92.2254,-0.313709)"
       x1="-143"
       y1="207.36218"
       x2="-129.5"
       y2="108.86218" /><linearGradient
       xlink:href="#L1"
       id="L4"
       gradientUnits="userSpaceOnUse"
       gradientTransform="translate(92.2254,-0.313709)"
       x1="-133.5"
       y1="221.86218"
       x2="-50"
       y2="279.36218" /><linearGradient
       xlink:href="#L0"
       id="L5"
       gradientUnits="userSpaceOnUse"
       gradientTransform="translate(92.2254,-0.313709)"
       x1="-157.5"
       y1="222.86218"
       x2="-247.5"
       y2="276.86218" /><clipPath
       clipPathUnits="userSpaceOnUse"
       id="clipPath422"><path
         d="m 18.000089,52.142335 c 0,1.180654 0.979404,2.136638 2.180232,2.136638 h 4.22965 c 0.562472,2.111076 1.412073,4.128218 2.485466,5.973833 l -3.008721,3.008727 c -0.424558,0.424558 -0.649414,0.933131 -0.654072,1.482553 -0.0049,0.549417 0.193045,1.108739 0.610466,1.526159 l 5.886628,5.886632 c 0.834844,0.834834 2.159608,0.805502 3.008722,-0.04353 l 3.00872,-3.008726 c 1.84561,1.073387 3.862754,1.922985 5.973835,2.485471 v 4.229645 c 0,1.200827 0.95598,2.180234 2.136627,2.180234 h 8.284885 c 1.180645,0 2.136627,-0.979407 2.136627,-2.180234 v -4.229645 c 2.111081,-0.562486 4.128226,-1.412084 5.973837,-2.485473 l 3.00872,3.008728 c 0.849112,0.84911 2.173875,0.878441 3.008719,0.04353 l 5.886629,-5.886632 c 0.834842,-0.834834 0.805504,-2.159603 -0.0436,-3.008716 l -3.008721,-3.008723 c 1.073393,-1.845616 1.922992,-3.862757 2.485465,-5.973837 h 4.229652 c 1.200827,0 2.180231,-0.95598 2.180231,-2.136634 v -8.284879 c 0,-1.180645 -0.979404,-2.136624 -2.180231,-2.136624 H 71.590204 C 71.027732,39.609754 70.178131,37.592613 69.10474,35.746995 l 3.008721,-3.008723 c 0.849112,-0.849111 0.878446,-2.173878 0.0436,-3.008726 l -5.886628,-5.886621 c -0.834844,-0.834834 -2.159608,-0.805504 -3.008719,0.04351 l -3.008722,3.008712 C 58.407381,25.821772 56.390237,24.972176 54.279154,24.4097 v -4.229657 c 0,-1.200817 -0.955979,-2.180232 -2.136627,-2.180232 h -8.284885 c -1.180643,0 -2.136627,0.979415 -2.136627,2.180232 V 24.4097 c -2.11108,0.562468 -4.128225,1.412069 -5.973835,2.485451 L 32.73846,23.886437 C 31.889346,23.03733 30.564582,23.007986 29.729739,23.842925 L 23.84311,29.72955 c -0.834842,0.834847 -0.805506,2.159614 0.0436,3.008725 L 26.895428,35.747 c -1.07339,1.845615 -1.922993,3.862755 -2.485466,5.973832 h -4.229645 c -1.200828,0 -2.180231,0.955982 -2.180231,2.136625 v 8.28488 z m 20.930229,-4.142434 c 0,-5.006518 4.063257,-9.069769 9.069767,-9.069769 5.00651,0 9.069766,4.063249 9.069766,9.069769 0,5.006505 -4.063256,9.069768 -9.069766,9.069768 -5.00651,0 -9.069767,-4.063263 -9.069767,-9.069767 z"
         display="block"
         fill="url(#h)"
         id="path424"
         style="fill:url(#linearGradient426);stroke-width:1" /></clipPath><linearGradient
       inkscape:collect="always"
       xlink:href="#h"
       id="linearGradient426"
       gradientUnits="userSpaceOnUse"
       gradientTransform="rotate(-90,48.000087,47.999896)"
       x1="18.000002"
       y1="47.999897"
       x2="78.000175"
       y2="47.999897" /><filter
       inkscape:collect="always"
       style="color-interpolation-filters:sRGB"
       id="filter983"
       x="-0.028307426"
       y="-0.025808014"
       width="1.0566149"
       height="1.051616"><feGaussianBlur
         inkscape:collect="always"
         stdDeviation="0.88235683"
         id="feGaussianBlur985" /></filter><linearGradient
       inkscape:collect="always"
       xlink:href="#h"
       id="linearGradient14"
       gradientUnits="userSpaceOnUse"
       gradientTransform="rotate(-90,48.000087,47.999896)"
       x1="18.000002"
       y1="47.999897"
       x2="78.000175"
       y2="47.999897" /></defs><sodipodi:namedview
     id="namedview85"
     pagecolor="#ffffff"
     bordercolor="#000000"
     borderopacity="0.25"
     inkscape:showpageshadow="2"
     inkscape:pageopacity="0.0"
     inkscape:pagecheckerboard="0"
     inkscape:deskcolor="#d1d1d1"
     showgrid="false"
     inkscape:zoom="3.7335238"
     inkscape:cx="3.7498087"
     inkscape:cy="53.970461"
     inkscape:window-width="2560"
     inkscape:window-height="1412"
     inkscape:window-x="0"
     inkscape:window-y="0"
     inkscape:window-maximized="1"
     inkscape:current-layer="svg83"><inkscape:page
       x="0"
       y="0"
       width="50"
       height="50"
       id="page1"
       margin="0"
       bleed="0" /></sodipodi:namedview><linearGradient
     id="a"
     gradientUnits="userSpaceOnUse"
     x1="48"
     x2="48"
     y1="90"
     y2="5.9877172"><stop
       offset="0"
       stop-color="#ebebeb"
       id="stop2"
       style="stop-color:#585858;stop-opacity:1;" /><stop
       offset="1"
       stop-color="#fafafa"
       id="stop4"
       style="stop-color:#818181;stop-opacity:1;" /></linearGradient><linearGradient
     id="b"
     gradientTransform="matrix(1.0058652,0,0,0.994169,100,0)"
     gradientUnits="userSpaceOnUse"
     x1="45.447727"
     x2="45.447727"
     y1="92.539597"
     y2="7.0165401"><stop
       offset="0"
       id="stop7" /><stop
       offset="1"
       stop-opacity=".588235"
       id="stop9" /></linearGradient><linearGradient
     id="c"
     gradientTransform="matrix(1.0238095,0,0,1.0119048,-1.142857,-98.071429)"
     gradientUnits="userSpaceOnUse"
     x1="32.251034"
     x2="32.251034"
     xlink:href="#b"
     y1="6.1317081"
     y2="90.238609" /><linearGradient
     id="d"
     gradientTransform="translate(0,-97)"
     gradientUnits="userSpaceOnUse"
     x1="32.251034"
     x2="32.251034"
     xlink:href="#b"
     y1="6.1317081"
     y2="90.238609" /><linearGradient
     id="e"><stop
       offset="0"
       stop-color="#fff"
       id="stop14" /><stop
       offset="1"
       stop-color="#fff"
       stop-opacity="0"
       id="stop16" /></linearGradient><radialGradient
     id="f"
     cx="48"
     cy="90.171875"
     gradientTransform="matrix(1.1573129,0,0,0.99590774,-7.551021,0.197132)"
     gradientUnits="userSpaceOnUse"
     r="42"
     xlink:href="#e" /><linearGradient
     id="g"
     gradientUnits="userSpaceOnUse"
     x1="36.357143"
     x2="36.357143"
     xlink:href="#e"
     y1="6"
     y2="63.893143"
     gradientTransform="matrix(0.91995739,0,0,0.98668795,0.48025569,1.1935087)" /><linearGradient
     id="h"
     gradientTransform="rotate(-90,48.000087,47.999896)"
     gradientUnits="userSpaceOnUse"
     x1="18.000002"
     x2="78.000175"
     y1="47.999897"
     y2="47.999897"><stop
       offset="0"
       stop-color="#bababa"
       id="stop21"
       style="stop-color:#818181;stop-opacity:1;" /><stop
       offset="1"
       stop-color="#d2d2d2"
       id="stop23"
       style="stop-color:#a7a7a7;stop-opacity:1;" /></linearGradient><clipPath
     id="i"><path
       d="m -88,6 c -3.324,0 -6,2.676 -6,6 v 72 c 0,3.324 2.676,6 6,6 h 72 c 3.324,0 6,-2.676 6,-6 V 12 c 0,-3.324 -2.676,-6 -6,-6 z m 31.84375,12 h 8.3125 c 1.180648,0 2.125,0.986683 2.125,2.1875 v 4.21875 c 2.111082,0.562476 4.123141,1.426616 5.96875,2.5 l 3,-3.03125 c 0.849111,-0.849025 2.196406,-0.866085 3.03125,-0.03125 l 5.875,5.875 c 0.834848,0.834847 0.817863,2.18214 -0.03125,3.03125 l -3.03125,3 c 1.073391,1.845617 1.937528,3.857672 2.5,5.96875 h 4.21875 c 1.200827,0 2.1875,0.944356 2.1875,2.125 v 8.3125 c 0,1.180653 -0.986672,2.125 -2.1875,2.125 h -4.21875 c -0.562472,2.111079 -1.426609,4.123134 -2.5,5.96875 l 3.03125,3 c 0.849106,0.849111 0.866094,2.196416 0.03125,3.03125 l -5.875,5.875 c -0.834844,0.834921 -2.182138,0.81786 -3.03125,-0.03125 l -3,-3.03125 c -1.84561,1.073389 -3.857669,1.937515 -5.96875,2.5 v 4.21875 c 0,1.200828 -0.944354,2.1875 -2.125,2.1875 h -8.3125 c -1.180646,0 -2.125,-0.986673 -2.125,-2.1875 v -4.21875 c -2.111081,-0.562485 -4.123141,-1.426613 -5.96875,-2.5 l -3,3.03125 c -0.849114,0.849022 -2.196407,0.866084 -3.03125,0.03125 l -5.875,-5.875 c -0.417421,-0.417418 -0.6298,-0.981833 -0.625,-1.53125 0.0047,-0.549422 0.231693,-1.075441 0.65625,-1.5 l 3.03125,-3 c -1.073391,-1.845614 -1.937528,-3.857673 -2.5,-5.96875 h -4.21875 c -1.200828,0 -2.1875,-0.944347 -2.1875,-2.125 v -8.3125 c 0,-1.180643 0.986672,-2.125 2.1875,-2.125 h 4.21875 c 0.562472,-2.111076 1.426609,-4.123135 2.5,-5.96875 l -3.03125,-3 c -0.849107,-0.84911 -0.866093,-2.196403 -0.03125,-3.03125 l 5.875,-5.875 c 0.834843,-0.834932 2.182137,-0.817858 3.03125,0.03125 l 3,3.03125 c 1.845609,-1.073383 3.85767,-1.937533 5.96875,-2.5 V 20.1875 c 0,-1.200817 0.944355,-2.1875 2.125,-2.1875 z M -52,38.9375 c -5.006511,0 -9.0625,4.055982 -9.0625,9.0625 0,5.006505 4.055989,9.0625 9.0625,9.0625 5.00651,0 9.0625,-4.055995 9.0625,-9.0625 0,-5.00652 -4.05599,-9.0625 -9.0625,-9.0625 z"
       id="path26" /></clipPath><filter
     id="j"
     color-interpolation-filters="sRGB"
     height="1.3213328"
     width="1.3213336"
     x="-0.16066687"
     y="-0.16066641"><feGaussianBlur
       stdDeviation="3.6000051"
       id="feGaussianBlur29" /></filter><clipPath
     id="k"><rect
       height="84"
       rx="6"
       width="84"
       x="6"
       y="6"
       id="rect32" /></clipPath><filter
     id="l"
     color-interpolation-filters="sRGB"
     height="1.3915758"
     width="1.3915758"
     x="-0.19578789"
     y="-0.19578789"><feGaussianBlur
       stdDeviation="5.28"
       id="feGaussianBlur35" /></filter><linearGradient
     id="m"
     gradientUnits="userSpaceOnUse"
     x1="48"
     x2="48"
     xlink:href="#e"
     y1="20.220806"
     y2="138.66119" /><g
     id="g79"
     transform="matrix(0.5952381,0,0,0.5952381,-3.5714286,-3.5714286)"><rect
       fill="url(#a)"
       height="84"
       rx="18.544682"
       width="84"
       x="6"
       y="6"
       id="rect53"
       style="fill:url(#a)"
       ry="18.544682" /><path
       d="m 18.000089,52.142336 c 0,1.180653 0.979404,2.136636 2.180232,2.136636 h 4.22965 c 0.562472,2.111077 1.412074,4.128219 2.485465,5.973833 l -3.00872,3.008727 c -0.424557,0.424559 -0.649414,0.933132 -0.654072,1.482554 -0.0048,0.549417 0.193045,1.10874 0.610466,1.526158 l 5.886628,5.886633 c 0.834843,0.834834 2.159607,0.805502 3.008721,-0.04352 l 3.008721,-3.008725 c 1.845609,1.073387 3.862754,1.922985 5.973835,2.48547 v 4.229646 c 0,1.200827 0.955981,2.180234 2.136627,2.180234 h 8.284884 c 1.180646,0 2.136628,-0.979407 2.136628,-2.180235 v -4.229645 c 2.111081,-0.562485 4.128226,-1.412083 5.973836,-2.485472 l 3.008721,3.008727 c 0.849112,0.84911 2.173875,0.878441 3.008719,0.04352 l 5.886628,-5.886633 c 0.834844,-0.834834 0.805506,-2.159603 -0.0436,-3.008714 l -3.00872,-3.008725 c 1.073391,-1.845616 1.922992,-3.862756 2.485464,-5.973835 h 4.229651 c 1.200828,0 2.180233,-0.955981 2.180233,-2.136634 v -8.284881 c 0,-1.180644 -0.979405,-2.136624 -2.180232,-2.136624 H 71.590203 C 71.027731,39.609753 70.17813,37.592613 69.104739,35.746996 l 3.00872,-3.008725 c 0.849113,-0.84911 0.878448,-2.173877 0.0436,-3.008724 l -5.886627,-5.886621 c -0.834844,-0.834835 -2.159609,-0.805505 -3.00872,0.04352 l -3.008721,3.008711 C 58.407382,25.821773 56.390237,24.972176 54.279155,24.4097 v -4.229657 c 0,-1.200817 -0.95598,-2.180232 -2.136628,-2.180232 h -8.284884 c -1.180645,0 -2.136628,0.979415 -2.136628,2.180232 V 24.4097 c -2.11108,0.562467 -4.128225,1.412068 -5.973834,2.485451 l -3.008722,-3.008713 c -0.849113,-0.849108 -2.173877,-0.878452 -3.00872,-0.04352 l -5.886628,5.886625 c -0.834843,0.834847 -0.805507,2.159615 0.0436,3.008725 l 3.008722,3.008725 c -1.073391,1.845615 -1.922994,3.862756 -2.485466,5.973832 h -4.22965 c -1.200828,0 -2.180231,0.955982 -2.180231,2.136625 v 8.284881 z m 20.930229,-4.142435 c 0,-5.006518 4.063256,-9.069769 9.069767,-9.069769 5.00651,0 9.069766,4.063249 9.069766,9.069769 0,5.006505 -4.063256,9.069769 -9.069766,9.069769 -5.006511,0 -9.069767,-4.063263 -9.069767,-9.069768 z"
       display="block"
       fill="url(#h)"
       id="path366"
       style="fill:url(#linearGradient14)" /><path
       id="rect360"
       style="fill:#000000;stroke-width:2.7252;-inkscape-stroke:none;filter:url(#filter983);stop-color:#000000"
       d="m 23.64,6.3379112 c -5.933032,0 -10.71,4.7769678 -10.71,10.7099998 v 60.634218 c 0,5.933032 4.776968,10.71 10.71,10.71 h 53.389218 c 5.933032,0 10.71,-4.776968 10.71,-10.71 V 17.047911 c 0,-5.933032 -4.776968,-10.7099998 -10.71,-10.7099998 z M 43.859062,19.101973 h 8.281875 c 1.180647,0 2.139375,0.981216 2.139375,2.182031 v 4.229532 c 2.11108,0.562475 4.126268,1.410523 5.971875,2.483906 l 3.008906,-3.008906 c 0.84911,-0.849025 2.174063,-0.877491 3.008907,-0.04266 l 5.886562,5.886563 c 0.834847,0.834846 0.806456,2.159797 -0.04266,3.008906 l -3.008907,3.008906 c 1.07339,1.845615 1.921435,3.860799 2.483907,5.971875 h 4.229531 c 1.200826,0 2.182031,0.958732 2.182031,2.139375 v 8.281875 c 0,1.180652 -0.981204,2.139375 -2.182031,2.139375 h -4.229531 c -0.562472,2.111077 -1.410517,4.126261 -2.483907,5.971875 l 3.008907,3.008906 c 0.849105,0.84911 0.877499,2.174073 0.04266,3.008907 L 66.27,73.259004 c -0.834844,0.83492 -2.159796,0.806453 -3.008907,-0.04266 l -3.008906,-3.008907 c -1.845608,1.073388 -3.860796,1.921422 -5.971875,2.483907 v 4.229531 c 0,1.200827 -0.95873,2.182031 -2.139375,2.182031 h -8.281875 c -1.180645,0 -2.139375,-0.981205 -2.139375,-2.182031 v -4.229531 c -2.111079,-0.562485 -4.126268,-1.410521 -5.971875,-2.483907 l -3.008906,3.008907 c -0.849113,0.849021 -2.174064,0.877489 -3.008906,0.04266 l -5.886563,-5.886562 c -0.41742,-0.417418 -0.615112,-0.976365 -0.610312,-1.525782 0.0047,-0.549421 0.228412,-1.058566 0.652969,-1.483125 L 26.895,61.354629 c -1.07339,-1.845612 -1.921435,-3.8608 -2.483906,-5.971875 h -4.229532 c -1.200826,0 -2.182031,-0.958723 -2.182031,-2.139375 v -8.281875 c 0,-1.180642 0.981205,-2.139375 2.182031,-2.139375 h 4.229532 C 24.973565,40.711055 25.82161,38.695867 26.895,36.850254 l -3.008906,-3.008906 c -0.849107,-0.849109 -0.877499,-2.17406 -0.04266,-3.008906 L 29.73,24.945879 c 0.834842,-0.834931 2.159794,-0.806451 3.008906,0.04266 l 3.008906,3.008906 c 1.845607,-1.073382 3.860797,-1.92144 5.971875,-2.483906 v -4.229532 c 0,-1.200815 0.958731,-2.182031 2.139375,-2.182031 z M 48,40.033067 c -5.006506,0 -9.069375,4.062862 -9.069375,9.069375 0,5.0065 4.062869,9.069375 9.069375,9.069375 5.006505,0 9.069375,-4.062875 9.069375,-9.069375 0,-5.006515 -4.06287,-9.069375 -9.069375,-9.069375 z"
       clip-path="url(#clipPath422)" /></g><linearGradient
     id="linearGradient4"
     gradientUnits="userSpaceOnUse"
     x1="48"
     x2="48"
     y1="90"
     y2="5.9877172"><stop
       offset="0"
       stop-color="#ebebeb"
       id="stop2-6"
       style="stop-color:#585858;stop-opacity:1;" /><stop
       offset="1"
       stop-color="#fafafa"
       id="stop4-2"
       style="stop-color:#818181;stop-opacity:1;" /></linearGradient><linearGradient
     id="linearGradient5"
     gradientTransform="matrix(1.0058652,0,0,0.994169,100,0)"
     gradientUnits="userSpaceOnUse"
     x1="45.447727"
     x2="45.447727"
     y1="92.539597"
     y2="7.0165401"><stop
       offset="0"
       id="stop7-9" /><stop
       offset="1"
       stop-opacity=".588235"
       id="stop9-1" /></linearGradient><linearGradient
     id="linearGradient6"
     gradientTransform="matrix(1.0238095,0,0,1.0119048,-1.142857,-98.071429)"
     gradientUnits="userSpaceOnUse"
     x1="32.251034"
     x2="32.251034"
     xlink:href="#b"
     y1="6.1317081"
     y2="90.238609" /><linearGradient
     id="linearGradient7"
     gradientTransform="translate(0,-97)"
     gradientUnits="userSpaceOnUse"
     x1="32.251034"
     x2="32.251034"
     xlink:href="#b"
     y1="6.1317081"
     y2="90.238609" /><linearGradient
     id="linearGradient8"><stop
       offset="0"
       stop-color="#fff"
       id="stop14-2" /><stop
       offset="1"
       stop-color="#fff"
       stop-opacity="0"
       id="stop16-7" /></linearGradient><radialGradient
     id="f-0"
     cx="48"
     cy="90.171875"
     gradientTransform="matrix(1.1573129,0,0,0.99590774,-7.551021,0.197132)"
     gradientUnits="userSpaceOnUse"
     r="42"
     xlink:href="#e" /><linearGradient
     id="linearGradient10"
     gradientUnits="userSpaceOnUse"
     x1="36.357143"
     x2="36.357143"
     xlink:href="#e"
     y1="6"
     y2="63.893143"
     gradientTransform="matrix(0.91995739,0,0,0.98668795,0.48025569,1.1935087)" /><linearGradient
     id="linearGradient11"
     gradientTransform="rotate(-90,48.000087,47.999896)"
     gradientUnits="userSpaceOnUse"
     x1="18.000002"
     x2="78.000175"
     y1="47.999897"
     y2="47.999897"><stop
       offset="0"
       stop-color="#bababa"
       id="stop21-9"
       style="stop-color:#818181;stop-opacity:1;" /><stop
       offset="1"
       stop-color="#d2d2d2"
       id="stop23-3"
       style="stop-color:#a7a7a7;stop-opacity:1;" /></linearGradient><clipPath
     id="i-6"><path
       d="m -88,6 c -3.324,0 -6,2.676 -6,6 v 72 c 0,3.324 2.676,6 6,6 h 72 c 3.324,0 6,-2.676 6,-6 V 12 c 0,-3.324 -2.676,-6 -6,-6 z m 31.84375,12 h 8.3125 c 1.180648,0 2.125,0.986683 2.125,2.1875 v 4.21875 c 2.111082,0.562476 4.123141,1.426616 5.96875,2.5 l 3,-3.03125 c 0.849111,-0.849025 2.196406,-0.866085 3.03125,-0.03125 l 5.875,5.875 c 0.834848,0.834847 0.817863,2.18214 -0.03125,3.03125 l -3.03125,3 c 1.073391,1.845617 1.937528,3.857672 2.5,5.96875 h 4.21875 c 1.200827,0 2.1875,0.944356 2.1875,2.125 v 8.3125 c 0,1.180653 -0.986672,2.125 -2.1875,2.125 h -4.21875 c -0.562472,2.111079 -1.426609,4.123134 -2.5,5.96875 l 3.03125,3 c 0.849106,0.849111 0.866094,2.196416 0.03125,3.03125 l -5.875,5.875 c -0.834844,0.834921 -2.182138,0.81786 -3.03125,-0.03125 l -3,-3.03125 c -1.84561,1.073389 -3.857669,1.937515 -5.96875,2.5 v 4.21875 c 0,1.200828 -0.944354,2.1875 -2.125,2.1875 h -8.3125 c -1.180646,0 -2.125,-0.986673 -2.125,-2.1875 v -4.21875 c -2.111081,-0.562485 -4.123141,-1.426613 -5.96875,-2.5 l -3,3.03125 c -0.849114,0.849022 -2.196407,0.866084 -3.03125,0.03125 l -5.875,-5.875 c -0.417421,-0.417418 -0.6298,-0.981833 -0.625,-1.53125 0.0047,-0.549422 0.231693,-1.075441 0.65625,-1.5 l 3.03125,-3 c -1.073391,-1.845614 -1.937528,-3.857673 -2.5,-5.96875 h -4.21875 c -1.200828,0 -2.1875,-0.944347 -2.1875,-2.125 v -8.3125 c 0,-1.180643 0.986672,-2.125 2.1875,-2.125 h 4.21875 c 0.562472,-2.111076 1.426609,-4.123135 2.5,-5.96875 l -3.03125,-3 c -0.849107,-0.84911 -0.866093,-2.196403 -0.03125,-3.03125 l 5.875,-5.875 c 0.834843,-0.834932 2.182137,-0.817858 3.03125,0.03125 l 3,3.03125 c 1.845609,-1.073383 3.85767,-1.937533 5.96875,-2.5 V 20.1875 c 0,-1.200817 0.944355,-2.1875 2.125,-2.1875 z M -52,38.9375 c -5.006511,0 -9.0625,4.055982 -9.0625,9.0625 0,5.006505 4.055989,9.0625 9.0625,9.0625 5.00651,0 9.0625,-4.055995 9.0625,-9.0625 0,-5.00652 -4.05599,-9.0625 -9.0625,-9.0625 z"
       id="path26-0" /></clipPath><filter
     id="j-6"
     color-interpolation-filters="sRGB"
     height="1.3213328"
     width="1.3213336"
     x="-0.16066687"
     y="-0.16066641"><feGaussianBlur
       stdDeviation="3.6000051"
       id="feGaussianBlur29-2" /></filter><clipPath
     id="k-6"><rect
       height="84"
       rx="6"
       width="84"
       x="6"
       y="6"
       id="rect32-1" /></clipPath><filter
     id="l-8"
     color-interpolation-filters="sRGB"
     height="1.3915758"
     width="1.3915758"
     x="-0.19578789"
     y="-0.19578789"><feGaussianBlur
       stdDeviation="5.28"
       id="feGaussianBlur35-7" /></filter><linearGradient
     id="linearGradient13"
     gradientUnits="userSpaceOnUse"
     x1="48"
     x2="48"
     xlink:href="#e"
     y1="20.220806"
     y2="138.66119" /></svg>
