<?xml version="1.0" encoding="UTF-8" standalone="no"?>
<!-- Created with Inkscape (http://www.inkscape.org/) -->

<svg
   width="50mm"
   height="50mm"
   viewBox="0 0 50 50"
   version="1.1"
   id="svg1"
   xml:space="preserve"
   sodipodi:docname="Meson_Box.svg"
   inkscape:version="1.4.3 (0d15f75, 2025-12-25)"
   inkscape:export-filename="Cairo_Box.png"
   inkscape:export-xdpi="96"
   inkscape:export-ydpi="96"
   xmlns:inkscape="http://www.inkscape.org/namespaces/inkscape"
   xmlns:sodipodi="http://sodipodi.sourceforge.net/DTD/sodipodi-0.dtd"
   xmlns:xlink="http://www.w3.org/1999/xlink"
   xmlns="http://www.w3.org/2000/svg"
   xmlns:svg="http://www.w3.org/2000/svg"><sodipodi:namedview
     id="namedview1"
     pagecolor="#ffffff"
     bordercolor="#000000"
     borderopacity="0.25"
     inkscape:showpageshadow="2"
     inkscape:pageopacity="0.0"
     inkscape:pagecheckerboard="0"
     inkscape:deskcolor="#d1d1d1"
     inkscape:document-units="mm"
     inkscape:zoom="3.0929791"
     inkscape:cx="10.669325"
     inkscape:cy="58.357976"
     inkscape:window-width="2560"
     inkscape:window-height="1369"
     inkscape:window-x="-8"
     inkscape:window-y="-8"
     inkscape:window-maximized="1"
     inkscape:current-layer="layer1"><inkscape:page
       x="0"
       y="0"
       width="50"
       height="50"
       id="page1"
       margin="0"
       bleed="0" /></sodipodi:namedview><defs
     id="defs1"><linearGradient
       id="linearGradient5"><stop
         style="stop-color:#5032b0;stop-opacity:1;"
         offset="0.00462963"
         id="stop1" /><stop
         style="stop-color:#7e6cd8;stop-opacity:1;"
         offset="0.9999367"
         id="stop5" /></linearGradient><linearGradient
       xlink:href="#linearGradient5"
       id="linearGradient1"
       x1="25"
       y1="7.0902283e-06"
       x2="25"
       y2="50.000031"
       gradientUnits="userSpaceOnUse"
       gradientTransform="matrix(0.98039216,0,0,0.98039216,0.49019623,0.49019623)" /><filter
       inkscape:collect="always"
       style="color-interpolation-filters:sRGB"
       id="filter1"
       x="-0.06882552"
       y="-0.06882552"
       width="1.137651"
       height="1.137651"><feGaussianBlur
         inkscape:collect="always"
         stdDeviation="0.9600145"
         id="feGaussianBlur1" /></filter><filter
       inkscape:collect="always"
       style="color-interpolation-filters:sRGB"
       id="filter2"
       x="-0.047743555"
       y="-0.04825922"
       width="1.0954871"
       height="1.0965184"><feGaussianBlur
         inkscape:collect="always"
         stdDeviation="1.2735935"
         id="feGaussianBlur2" /></filter><filter
       inkscape:collect="always"
       style="color-interpolation-filters:sRGB"
       id="filter3"
       x="-0.045343881"
       y="-0.21677989"
       width="1.0906878"
       height="1.4335598"><feGaussianBlur
         inkscape:collect="always"
         stdDeviation="2.565562"
         id="feGaussianBlur3" /></filter></defs><g
     id="layer1"
     inkscape:label="Meson"><rect
       style="font-variation-settings:normal;display:inline;fill:url(#linearGradient1);stroke:none;stroke-width:0.980392;stroke-linecap:butt;stroke-linejoin:miter;stroke-miterlimit:4;stroke-dasharray:none;stroke-dashoffset:0;stroke-opacity:1;stop-color:#000000"
       id="rect1-18"
       width="49.019608"
       height="49.019608"
       x="0.49019623"
       y="0.49019623"
       rx="7.0571675"
       ry="7.0571675"
       inkscape:label="Background" /><g
       inkscape:label="Logo"
       id="layer1-0"
       transform="matrix(1.314564,0,0,1.314564,-37.90653,-16.706118)"><path
         id="path2"
         style="fill:#000000;fill-opacity:0.75315315;stroke:none;stroke-width:0.264583px;stroke-linecap:butt;stroke-linejoin:miter;stroke-opacity:1;filter:url(#filter3)"
         d="M 33.334918 102.25707 L 32.057664 126.06383 L 32.051778 126.06579 C 31.962438 127.64166 31.498761 127.86433 31.408246 127.95126 C 30.987803 128.35512 30.43862 128.2316 29.975996 128.27302 C 29.786277 128.29012 29.700527 129.43256 30.025045 129.43256 C 30.428143 129.43256 32.309637 129.33955 32.732588 129.34035 C 33.075028 129.34088 35.180154 129.43256 35.681454 129.43256 C 35.924899 129.43256 36.052481 128.3983 35.787402 128.36524 C 35.452968 128.32354 34.586048 128.05416 34.51211 127.60987 C 34.50194 127.54847 34.49154 127.25761 34.48268 126.6897 L 35.187034 113.38743 L 45.361899 130.66076 L 55.358224 110.78583 L 56.562884 126.36205 C 56.582784 127.16194 56.524885 127.87134 56.484405 127.94341 C 56.326261 128.22485 55.887332 128.395 55.38373 128.53005 C 54.98923 128.63576 54.974013 129.43845 55.546575 129.43845 C 56.611131 129.43845 57.748762 129.18062 58.171714 129.18142 C 58.514151 129.18195 61.58233 129.42667 62.509667 129.39724 C 62.884259 129.38594 62.995308 128.61092 62.605805 128.52612 C 61.945667 128.3824 60.742787 127.84246 60.520212 127.3195 C 60.474592 127.21233 60.067821 126.14168 59.992438 125.55763 L 56.994521 102.32771 L 45.889674 124.45696 L 33.334918 102.25707 z M 66.900595 102.70048 L 66.900595 102.70441 C 66.588278 102.67981 66.482924 103.33501 66.847621 103.41661 C 68.046326 103.68487 68.390836 104.4652 68.613409 104.98816 C 68.662349 105.1031 69.059149 106.35627 69.05878 106.84224 C 69.05408 112.96557 69.404534 118.99592 69.194158 125.07106 C 69.294414 126.31486 68.999525 127.461 68.684041 128.00619 C 68.498991 128.32597 67.80043 128.67367 67.243942 128.67719 C 67.016197 128.67819 66.911512 129.43256 67.236094 129.43256 C 71.546702 129.40756 76.120467 129.4386 80.053757 129.4306 L 80.053757 129.41098 C 80.484997 128.97596 81.649449 127.3262 81.882329 126.14034 C 81.98151 125.86536 82.024968 125.60809 81.947074 125.56548 C 81.873993 125.53307 81.700309 125.67457 81.376136 126.12857 C 80.912536 126.77784 80.785775 127.03101 80.051795 127.28026 C 78.228905 127.66546 75.452759 127.66255 73.696918 127.31754 C 72.710382 127.12367 71.857017 126.64033 71.84284 125.23979 L 71.84284 117.24273 L 77.832787 117.24273 C 78.572043 117.24273 79.150284 118.28315 79.172824 118.84764 C 79.191324 119.31059 79.91908 119.33056 79.92819 118.85549 L 79.953695 114.35469 C 79.957695 113.821 79.172824 113.79183 79.172824 114.36254 C 79.172824 115.09701 78.250338 115.09568 77.74646 115.1336 C 75.80509 115.1336 73.772457 115.14537 71.793791 115.14537 L 71.793791 105.34328 L 78.945234 105.34328 L 78.945234 105.35113 C 79.799524 105.81381 80.2101 106.37068 80.23426 106.97565 C 80.25276 107.4386 80.862785 107.45859 80.871905 106.9835 L 80.899373 103.5461 L 79.013903 103.5461 L 71.778095 103.5461 C 71.299357 103.4595 70.806993 103.39098 70.365464 103.33813 C 68.747588 103.14447 67.728684 102.92366 66.96534 102.71226 C 66.94277 102.70626 66.921405 102.70178 66.900595 102.70048 z M 139.90025 102.70637 L 139.52551 126.42483 C 139.51151 127.31586 139.35104 127.74225 139.20767 127.97873 C 138.96728 128.37528 138.3482 128.66473 137.73618 128.6615 C 137.47182 128.6605 137.43523 129.48749 137.75972 129.48749 C 138.51719 129.48749 140.43868 129.27676 140.86163 129.27756 C 141.20405 129.27809 142.73312 129.43368 143.94783 129.43452 C 144.56039 129.43452 144.36734 128.67269 144.04397 128.61441 C 143.77342 128.56561 142.80337 128.17282 142.72944 127.79038 C 142.70104 127.64368 142.57254 126.09698 142.56071 125.12796 C 142.50171 120.29287 142.48903 115.59639 142.50773 110.68185 L 163.65011 130.3959 L 163.59713 106.5911 C 163.59713 105.90172 163.77027 105.38908 163.96795 105.03329 C 164.2563 104.51428 164.88175 104.42869 165.37469 104.38583 C 165.6276 104.36383 165.74251 103.52452 165.30995 103.52452 C 164.7727 103.52452 162.80315 103.55887 162.23944 103.55787 C 161.78303 103.55714 159.44064 103.38937 158.77261 103.37737 C 158.17613 103.36737 158.25599 104.27741 158.82558 104.27204 C 159.94778 104.26204 160.29753 104.94305 160.56979 105.95542 C 160.61409 106.12059 160.78976 106.79158 160.86801 108.18816 L 161.00535 123.85659 L 139.90025 102.70637 z M 119.70356 102.99086 C 111.70993 102.99086 106.12072 108.86969 106.12072 117.59197 C 106.12072 123.61 111.61484 130.02508 120.12342 130.02508 C 129.3445 130.02508 133.97116 122.81161 133.94366 116.53642 C 133.91556 110.12168 129.51078 102.99086 119.70356 102.99086 z M 94.756889 103.02617 C 94.643436 103.0264 94.528226 103.02908 94.411579 103.03206 C 91.825629 103.11636 87.712194 105.64772 87.870314 109.89509 C 87.957084 112.226 90.618141 115.50292 92.902811 117.48013 C 95.075891 119.36078 98.489715 120.92726 98.449349 123.5878 C 98.398349 125.87263 96.642797 127.86101 93.177489 127.86101 C 91.012239 127.74678 90.035567 127.69557 88.643337 126.33458 C 88.082687 125.78258 87.950863 124.47902 87.938983 123.81539 L 86.699007 123.80754 L 86.673501 127.85905 C 88.570471 129.01163 90.976249 129.6448 93.108819 129.60718 C 98.464439 129.47163 100.78408 126.3028 100.86652 123.05218 C 101.07185 118.49305 97.708927 116.4172 95.021757 114.27228 C 92.791077 112.49174 90.28552 111.20435 90.28552 108.23721 C 90.28552 106.96487 92.322132 104.81952 94.888342 104.66443 C 96.356211 104.66395 97.550437 104.82846 98.468968 105.85732 C 98.992946 106.44423 99.385148 107.05168 99.396988 107.71532 L 100.38191 107.77026 L 100.34659 103.69521 C 99.764595 103.71271 99.134306 103.64354 98.574916 103.52648 C 98.538516 103.51848 98.507116 103.51741 98.476816 103.51471 C 97.497589 103.32555 96.27026 103.02402 94.758851 103.02617 L 94.756889 103.02617 z M 118.89914 104.66051 C 127.33519 104.82097 130.08497 112.77403 130.01184 117.5645 C 129.88912 125.59984 125.83266 128.18519 120.43734 128.25929 C 114.29152 128.34369 109.84062 121.78659 109.82691 116.24604 C 109.70582 106.12568 115.9852 104.74647 118.89914 104.66051 z "
         transform="matrix(0.20036166,0,0,0.20036166,28.277456,17.580208)"
         inkscape:label="TextShadow" /><path
         id="path904-6-67"
         style="fill:#000000;fill-opacity:1;stroke:none;stroke-width:0.264583px;stroke-linecap:butt;stroke-linejoin:miter;stroke-opacity:1"
         d="M 33.334918 102.25707 L 32.057664 126.06383 L 32.051778 126.06579 C 31.962438 127.64166 31.498761 127.86433 31.408246 127.95126 C 30.987803 128.35512 30.43862 128.2316 29.975996 128.27302 C 29.786277 128.29012 29.700527 129.43256 30.025045 129.43256 C 30.428143 129.43256 32.309637 129.33955 32.732588 129.34035 C 33.075028 129.34088 35.180154 129.43256 35.681454 129.43256 C 35.924899 129.43256 36.052481 128.3983 35.787402 128.36524 C 35.452968 128.32354 34.586048 128.05416 34.51211 127.60987 C 34.50194 127.54847 34.49154 127.25761 34.48268 126.6897 L 35.187034 113.38743 L 45.361899 130.66076 L 55.358224 110.78583 L 56.562884 126.36205 C 56.582784 127.16194 56.524885 127.87134 56.484405 127.94341 C 56.326261 128.22485 55.887332 128.395 55.38373 128.53005 C 54.98923 128.63576 54.974013 129.43845 55.546575 129.43845 C 56.611131 129.43845 57.748762 129.18062 58.171714 129.18142 C 58.514151 129.18195 61.58233 129.42667 62.509667 129.39724 C 62.884259 129.38594 62.995308 128.61092 62.605805 128.52612 C 61.945667 128.3824 60.742787 127.84246 60.520212 127.3195 C 60.474592 127.21233 60.067821 126.14168 59.992438 125.55763 L 56.994521 102.32771 L 45.889674 124.45696 L 33.334918 102.25707 z M 66.900595 102.70048 L 66.900595 102.70441 C 66.588278 102.67981 66.482924 103.33501 66.847621 103.41661 C 68.046326 103.68487 68.390836 104.4652 68.613409 104.98816 C 68.662349 105.1031 69.059149 106.35627 69.05878 106.84224 C 69.05408 112.96557 69.404534 118.99592 69.194158 125.07106 C 69.294414 126.31486 68.999525 127.461 68.684041 128.00619 C 68.498991 128.32597 67.80043 128.67367 67.243942 128.67719 C 67.016197 128.67819 66.911512 129.43256 67.236094 129.43256 C 71.546702 129.40756 76.120467 129.4386 80.053757 129.4306 L 80.053757 129.41098 C 80.484997 128.97596 81.649449 127.3262 81.882329 126.14034 C 81.98151 125.86536 82.024968 125.60809 81.947074 125.56548 C 81.873993 125.53307 81.700309 125.67457 81.376136 126.12857 C 80.912536 126.77784 80.785775 127.03101 80.051795 127.28026 C 78.228905 127.66546 75.452759 127.66255 73.696918 127.31754 C 72.710382 127.12367 71.857017 126.64033 71.84284 125.23979 L 71.84284 117.24273 L 77.832787 117.24273 C 78.572043 117.24273 79.150284 118.28315 79.172824 118.84764 C 79.191324 119.31059 79.91908 119.33056 79.92819 118.85549 L 79.953695 114.35469 C 79.957695 113.821 79.172824 113.79183 79.172824 114.36254 C 79.172824 115.09701 78.250338 115.09568 77.74646 115.1336 C 75.80509 115.1336 73.772457 115.14537 71.793791 115.14537 L 71.793791 105.34328 L 78.945234 105.34328 L 78.945234 105.35113 C 79.799524 105.81381 80.2101 106.37068 80.23426 106.97565 C 80.25276 107.4386 80.862785 107.45859 80.871905 106.9835 L 80.899373 103.5461 L 79.013903 103.5461 L 71.778095 103.5461 C 71.299357 103.4595 70.806993 103.39098 70.365464 103.33813 C 68.747588 103.14447 67.728684 102.92366 66.96534 102.71226 C 66.94277 102.70626 66.921405 102.70178 66.900595 102.70048 z M 139.90025 102.70637 L 139.52551 126.42483 C 139.51151 127.31586 139.35104 127.74225 139.20767 127.97873 C 138.96728 128.37528 138.3482 128.66473 137.73618 128.6615 C 137.47182 128.6605 137.43523 129.48749 137.75972 129.48749 C 138.51719 129.48749 140.43868 129.27676 140.86163 129.27756 C 141.20405 129.27809 142.73312 129.43368 143.94783 129.43452 C 144.56039 129.43452 144.36734 128.67269 144.04397 128.61441 C 143.77342 128.56561 142.80337 128.17282 142.72944 127.79038 C 142.70104 127.64368 142.57254 126.09698 142.56071 125.12796 C 142.50171 120.29287 142.48903 115.59639 142.50773 110.68185 L 163.65011 130.3959 L 163.59713 106.5911 C 163.59713 105.90172 163.77027 105.38908 163.96795 105.03329 C 164.2563 104.51428 164.88175 104.42869 165.37469 104.38583 C 165.6276 104.36383 165.74251 103.52452 165.30995 103.52452 C 164.7727 103.52452 162.80315 103.55887 162.23944 103.55787 C 161.78303 103.55714 159.44064 103.38937 158.77261 103.37737 C 158.17613 103.36737 158.25599 104.27741 158.82558 104.27204 C 159.94778 104.26204 160.29753 104.94305 160.56979 105.95542 C 160.61409 106.12059 160.78976 106.79158 160.86801 108.18816 L 161.00535 123.85659 L 139.90025 102.70637 z M 119.70356 102.99086 C 111.70993 102.99086 106.12072 108.86969 106.12072 117.59197 C 106.12072 123.61 111.61484 130.02508 120.12342 130.02508 C 129.3445 130.02508 133.97116 122.81161 133.94366 116.53642 C 133.91556 110.12168 129.51078 102.99086 119.70356 102.99086 z M 94.756889 103.02617 C 94.643436 103.0264 94.528226 103.02908 94.411579 103.03206 C 91.825629 103.11636 87.712194 105.64772 87.870314 109.89509 C 87.957084 112.226 90.618141 115.50292 92.902811 117.48013 C 95.075891 119.36078 98.489715 120.92726 98.449349 123.5878 C 98.398349 125.87263 96.642797 127.86101 93.177489 127.86101 C 91.012239 127.74678 90.035567 127.69557 88.643337 126.33458 C 88.082687 125.78258 87.950863 124.47902 87.938983 123.81539 L 86.699007 123.80754 L 86.673501 127.85905 C 88.570471 129.01163 90.976249 129.6448 93.108819 129.60718 C 98.464439 129.47163 100.78408 126.3028 100.86652 123.05218 C 101.07185 118.49305 97.708927 116.4172 95.021757 114.27228 C 92.791077 112.49174 90.28552 111.20435 90.28552 108.23721 C 90.28552 106.96487 92.322132 104.81952 94.888342 104.66443 C 96.356211 104.66395 97.550437 104.82846 98.468968 105.85732 C 98.992946 106.44423 99.385148 107.05168 99.396988 107.71532 L 100.38191 107.77026 L 100.34659 103.69521 C 99.764595 103.71271 99.134306 103.64354 98.574916 103.52648 C 98.538516 103.51848 98.507116 103.51741 98.476816 103.51471 C 97.497589 103.32555 96.27026 103.02402 94.758851 103.02617 L 94.756889 103.02617 z M 118.89914 104.66051 C 127.33519 104.82097 130.08497 112.77403 130.01184 117.5645 C 129.88912 125.59984 125.83266 128.18519 120.43734 128.25929 C 114.29152 128.34369 109.84062 121.78659 109.82691 116.24604 C 109.70582 106.12568 115.9852 104.74647 118.89914 104.66051 z "
         transform="matrix(0.20036166,0,0,0.20036166,28.277456,17.580208)"
         inkscape:label="Text" /><path
         style="fill:#000000;fill-opacity:1;stroke:none;stroke-width:1.71902;stroke-miterlimit:4;stroke-dasharray:none;stroke-opacity:1;filter:url(#filter2)"
         d="m 181.30469,74.429688 c -19.83782,11.200316 -32.15467,32.185892 -32.26758,54.980472 20.7545,11.31558 45.12547,10.92965 64.01172,0.11914 0.002,-0.0546 0.005,-0.10968 0.01,-0.16407 -0.0238,-22.67226 -12.12742,-43.6119 -31.7539,-54.935542 z m 10.67969,24.269531 c 2.94116,1.998651 2.50501,6.810621 2.03124,10.105471 -0.60285,3.62947 -4.08263,9.59638 -8.60351,13.49023 0.5848,0.83848 0.92679,1.87103 0.92187,2.97266 -2.80149,1.41608 -5.58135,-0.1815 -8.94336,-3.06055 -3.362,-2.87908 -6.98806,-8.6473 -8.1914,-14.57617 -1.06733,0.11302 -2.16025,-0.1255 -3.09766,-0.7168 0.24484,-3.3245 3.7733,-5.29916 6.90039,-6.46484 3.1271,-1.165683 11.1832,-1.560241 16.86328,0.45898 0.4429,-0.929889 1.17656,-1.711687 2.11915,-2.207028 z"
         transform="scale(0.26458333)"
         id="path817-6-2-9-7-9-93-9-8-1"
         inkscape:label="IconShadow" /><path
         style="fill:#39207c;fill-opacity:1;stroke:none;stroke-width:1.71902;stroke-miterlimit:4;stroke-dasharray:none;stroke-opacity:1"
         d="m 181.30469,74.429688 c -19.83782,11.200316 -32.15467,32.185892 -32.26758,54.980472 20.7545,11.31558 45.12547,10.92965 64.01172,0.11914 0.002,-0.0546 0.005,-0.10968 0.01,-0.16407 -0.0238,-22.67226 -12.12742,-43.6119 -31.7539,-54.935542 z m 10.67969,24.269531 c 2.94116,1.998651 2.50501,6.810621 2.03124,10.105471 -0.60285,3.62947 -4.08263,9.59638 -8.60351,13.49023 0.5848,0.83848 0.92679,1.87103 0.92187,2.97266 -2.80149,1.41608 -5.58135,-0.1815 -8.94336,-3.06055 -3.362,-2.87908 -6.98806,-8.6473 -8.1914,-14.57617 -1.06733,0.11302 -2.16025,-0.1255 -3.09766,-0.7168 0.24484,-3.3245 3.7733,-5.29916 6.90039,-6.46484 3.1271,-1.165683 11.1832,-1.560241 16.86328,0.45898 0.4429,-0.929889 1.17656,-1.711687 2.11915,-2.207028 z"
         transform="scale(0.26458333)"
         id="path1"
         inkscape:label="Icon" /></g><rect
       style="font-variation-settings:normal;display:inline;fill:none;stroke:#000000;stroke-width:1.99928;stroke-linecap:butt;stroke-linejoin:miter;stroke-miterlimit:4;stroke-dasharray:none;stroke-dashoffset:0;stroke-opacity:1;stop-color:#000000;filter:url(#filter1)"
       id="rect1"
       width="48.000725"
       height="48.000725"
       x="0.99963778"
       y="0.99963778"
       rx="6.9104829"
       ry="6.9104829"
       inkscape:label="Shadow" /><rect
       style="font-variation-settings:normal;display:inline;fill:none;stroke:#39207c;stroke-width:1.99928;stroke-linecap:butt;stroke-linejoin:miter;stroke-miterlimit:4;stroke-dasharray:none;stroke-dashoffset:0;stroke-opacity:1;stop-color:#000000"
       id="rect1-18-1"
       width="48.000725"
       height="48.000725"
       x="0.99963778"
       y="0.99963778"
       rx="6.9104829"
       ry="6.9104829"
       inkscape:label="Frame" /></g><style
     type="text/css"
     id="style1">
	.st0{fill:url(#ICON_00000088831890668800157600000002638584723837204667_);}
</style><style
     id="style1-7">.st10{fill:#333}</style><style
     type="text/css"
     id="style1-1">
	.st0{fill:url(#ICON_00000088831890668800157600000002638584723837204667_);}
</style><style
     id="style1-7-2">.st10{fill:#333}</style></svg>
