<?xml version="1.0" encoding="UTF-8" standalone="no"?>
<!-- Created with Inkscape (http://www.inkscape.org/) -->

<svg
   width="50mm"
   height="50mm"
   viewBox="0 0 50 50"
   version="1.1"
   id="svg1"
   xml:space="preserve"
   sodipodi:docname="Meson_Box.svg"
   inkscape:version="1.4.3 (0d15f75, 2025-12-25)"
   inkscape:export-filename="Cairo_Box.png"
   inkscape:export-xdpi="96"
   inkscape:export-ydpi="96"
   xmlns:inkscape="http://www.inkscape.org/namespaces/inkscape"
   xmlns:sodipodi="http://sodipodi.sourceforge.net/DTD/sodipodi-0.dtd"
   xmlns:xlink="http://www.w3.org/1999/xlink"
   xmlns="http://www.w3.org/2000/svg"
   xmlns:svg="http://www.w3.org/2000/svg"><sodipodi:namedview
     id="namedview1"
     pagecolor="#ffffff"
     bordercolor="#000000"
     borderopacity="0.25"
     inkscape:showpageshadow="2"
     inkscape:pageopacity="0.0"
     inkscape:pagecheckerboard="0"
     inkscape:deskcolor="#d1d1d1"
     inkscape:document-units="mm"
     inkscape:zoom="0.38662239"
     inkscape:cx="-543.16565"
     inkscape:cy="-702.23559"
     inkscape:window-width="2560"
     inkscape:window-height="1369"
     inkscape:window-x="-8"
     inkscape:window-y="-8"
     inkscape:window-maximized="1"
     inkscape:current-layer="layer1-0"><inkscape:page
       x="0"
       y="0"
       width="50"
       height="50"
       id="page1"
       margin="0"
       bleed="0" /></sodipodi:namedview><defs
     id="defs1"><linearGradient
       id="linearGradient5"><stop
         style="stop-color:#1f1351;stop-opacity:1;"
         offset="0.00462963"
         id="stop1" /><stop
         style="stop-color:#b4aeed;stop-opacity:1;"
         offset="0.9999367"
         id="stop5" /></linearGradient><linearGradient
       xlink:href="#linearGradient5"
       id="linearGradient1"
       x1="25"
       y1="7.0902283e-06"
       x2="25"
       y2="50.000031"
       gradientUnits="userSpaceOnUse"
       gradientTransform="matrix(0.98039216,0,0,0.98039216,0.49019623,0.49019623)" /><filter
       inkscape:collect="always"
       style="color-interpolation-filters:sRGB"
       id="filter1"
       x="-0.06882552"
       y="-0.06882552"
       width="1.137651"
       height="1.137651"><feGaussianBlur
         inkscape:collect="always"
         stdDeviation="0.9600145"
         id="feGaussianBlur1" /></filter><filter
       inkscape:collect="always"
       style="color-interpolation-filters:sRGB"
       id="filter2"
       x="-0.074599299"
       y="-0.075405026"
       width="1.1491986"
       height="1.1508101"><feGaussianBlur
         inkscape:collect="always"
         stdDeviation="1.9899898"
         id="feGaussianBlur2" /></filter><filter
       inkscape:collect="always"
       style="color-interpolation-filters:sRGB"
       id="filter3"
       x="-0.029020062"
       y="-0.13873964"
       width="1.0580401"
       height="1.2774793"><feGaussianBlur
         inkscape:collect="always"
         stdDeviation="0.34493425"
         id="feGaussianBlur3" /></filter></defs><g
     id="layer1"
     inkscape:label="Meson"><rect
       style="font-variation-settings:normal;display:inline;fill:url(#linearGradient1);stroke:none;stroke-width:0.980392;stroke-linecap:butt;stroke-linejoin:miter;stroke-miterlimit:4;stroke-dasharray:none;stroke-dashoffset:0;stroke-opacity:1;stop-color:#000000"
       id="rect1-18"
       width="49.019608"
       height="49.019608"
       x="0.49019623"
       y="0.49019623"
       rx="7.0571675"
       ry="7.0571675"
       inkscape:label="Background" /><g
       inkscape:label="Logo"
       id="layer1-0"
       transform="matrix(1.314564,0,0,1.314564,-37.90653,-16.706118)"><path
         id="path2"
         style="fill:#000000;fill-opacity:1;stroke:none;stroke-width:0.055582px;stroke-linecap:butt;stroke-linejoin:miter;stroke-opacity:1;filter:url(#filter3)"
         d="m 34.331352,37.85686 -0.268318,5.001182 -0.0013,4.13e-4 c -0.01877,0.331048 -0.116175,0.377826 -0.13519,0.396088 -0.08832,0.08484 -0.203693,0.05889 -0.300878,0.06759 -0.03985,0.0036 -0.05787,0.243589 0.0103,0.243589 0.08468,0 0.479933,-0.01954 0.568784,-0.01937 0.07194,1.13e-4 0.51417,0.01937 0.619481,0.01937 0.05114,0 0.07794,-0.217272 0.02225,-0.224217 -0.07025,-0.0088 -0.252374,-0.06535 -0.267906,-0.158682 -0.0021,-0.0129 -0.0043,-0.074 -0.0062,-0.193304 l 0.147966,-2.794462 2.137475,3.628679 2.09997,-4.175209 0.253067,3.272161 c 0.0042,0.168035 -0.008,0.317062 -0.01648,0.332202 -0.03321,0.05913 -0.125429,0.09486 -0.231222,0.123238 -0.08287,0.02221 -0.08607,0.190832 0.0342,0.190832 0.223636,0 0.462621,-0.05416 0.551473,-0.05399 0.07194,1.11e-4 0.716482,0.05152 0.911291,0.04534 0.0787,-0.0024 0.102021,-0.165185 0.0202,-0.183 -0.138678,-0.0302 -0.391371,-0.143617 -0.438129,-0.253479 -0.0096,-0.02251 -0.09504,-0.247429 -0.110872,-0.370124 l -0.629784,-4.880002 -2.332841,4.648781 z m 7.051276,0.09315 v 7.89e-4 c -0.0656,-0.0051 -0.08774,0.132473 -0.01113,0.149615 0.251817,0.05635 0.32419,0.220281 0.370945,0.330142 0.01029,0.02414 0.09365,0.287403 0.09356,0.389494 -9.47e-4,1.286353 0.07262,2.553172 0.02844,3.829401 0.02105,0.26129 -0.04089,0.502065 -0.107162,0.616595 -0.03888,0.06718 -0.185624,0.140221 -0.302528,0.14096 -0.04785,2.09e-4 -0.06984,0.158684 -0.0017,0.158684 0.905548,-0.0053 1.866377,0.0013 2.692659,-4.12e-4 v -0.0041 c 0.09059,-0.09139 0.335213,-0.437958 0.384136,-0.687077 0.02083,-0.05776 0.02997,-0.111812 0.0136,-0.120763 -0.01535,-0.0069 -0.05184,0.02291 -0.119938,0.118291 -0.09739,0.136395 -0.12402,0.189579 -0.27821,0.241939 -0.382943,0.08092 -0.966137,0.08032 -1.334994,0.0078 -0.207246,-0.04074 -0.386516,-0.142265 -0.389494,-0.436482 v -1.679975 h 1.258332 c 0.155298,0 0.276771,0.218565 0.281507,0.337149 0.0039,0.09726 0.156769,0.10145 0.158683,0.0017 l 0.0054,-0.945502 c 8.69e-4,-0.112113 -0.16404,-0.11824 -0.16404,0.0017 0,0.154293 -0.193791,0.154014 -0.299642,0.16198 -0.407832,0 -0.834836,0.0024 -1.250502,0.0024 v -2.059165 h 1.502333 v 0.0017 c 0.179464,0.09719 0.265716,0.21418 0.270791,0.341269 0.0039,0.09725 0.132037,0.101453 0.133952,0.0017 l 0.0057,-0.722109 h -0.396088 -1.520056 c -0.10057,-0.01819 -0.204003,-0.03259 -0.296757,-0.04369 -0.339874,-0.04069 -0.553918,-0.08707 -0.714278,-0.131478 -0.0048,-0.0013 -0.0093,-0.0023 -0.0136,-0.0024 z m 15.335331,0.0013 -0.07872,4.982633 c -0.0029,0.187182 -0.03666,0.276754 -0.06677,0.326434 -0.0505,0.08331 -0.180552,0.14411 -0.309122,0.143432 -0.05554,-2.11e-4 -0.06322,0.173518 0.005,0.173518 0.159124,0 0.562779,-0.04427 0.651631,-0.0441 0.07194,1.11e-4 0.39315,0.0328 0.64833,0.03297 0.128683,0 0.08814,-0.160041 0.0202,-0.172285 -0.05683,-0.01026 -0.260619,-0.09276 -0.276149,-0.173107 -0.0059,-0.03081 -0.03296,-0.355738 -0.03545,-0.559304 -0.01239,-1.015728 -0.01505,-2.002335 -0.01114,-3.034754 l 4.441465,4.141411 -0.01113,-5.000771 c 0,-0.14482 0.03638,-0.252512 0.07791,-0.327254 0.06057,-0.109032 0.191966,-0.127012 0.29552,-0.136015 0.05313,-0.0046 0.07727,-0.180939 -0.0136,-0.180939 -0.112862,0 -0.526614,0.0072 -0.645034,0.007 -0.09588,-1.53e-4 -0.587955,-0.03539 -0.728291,-0.03792 -0.125305,-0.0021 -0.108529,0.189074 0.01112,0.187945 0.235746,-0.0021 0.309219,0.140963 0.366414,0.353636 0.0093,0.0347 0.04621,0.175655 0.06265,0.46904 l 0.02885,3.29153 z m -4.242799,0.05976 c -1.679254,0 -2.853402,1.234989 -2.853402,3.067314 0,1.264232 1.154173,2.611873 2.941604,2.611873 1.93711,0 2.909051,-1.515362 2.903273,-2.833616 -0.0058,-1.347571 -0.931232,-2.845571 -2.991475,-2.845571 z m -5.240647,0.0074 c -0.02384,4.9e-5 -0.04803,6.12e-4 -0.07255,0.0013 -0.54324,0.01771 -1.407367,0.549483 -1.374149,1.441746 0.01823,0.489663 0.577246,1.178058 1.057196,1.593419 0.456508,0.395076 1.173664,0.724153 1.165183,1.283063 -0.01071,0.479983 -0.379509,0.89769 -1.10748,0.89769 -0.454863,-0.024 -0.660036,-0.03475 -0.952508,-0.320663 -0.117778,-0.115961 -0.145471,-0.389804 -0.147966,-0.529217 l -0.260487,-0.0017 -0.0054,0.851116 c 0.398505,0.242128 0.903895,0.375141 1.351892,0.367237 1.125079,-0.02847 1.612375,-0.694164 1.629693,-1.377034 0.04314,-0.957755 -0.663328,-1.393838 -1.227833,-1.84443 -0.468607,-0.374045 -0.994961,-0.644492 -0.994961,-1.267811 0,-0.267286 0.42784,-0.717968 0.966934,-0.750549 0.308361,-1.01e-4 0.559237,0.03445 0.752197,0.250596 0.110073,0.123294 0.192466,0.250904 0.194953,0.390317 l 0.206906,0.01154 -0.0074,-0.856062 c -0.122261,0.0038 -0.254669,-0.01085 -0.372182,-0.03545 -0.0076,-0.0017 -0.01424,-0.002 -0.02061,-0.0024 -0.205709,-0.03974 -0.463539,-0.103081 -0.781047,-0.10263 z m 5.07166,0.343333 c 1.772195,0.0337 2.349852,1.704441 2.334489,2.710793 -0.02578,1.688016 -0.877937,2.231132 -2.011354,2.246698 -1.291077,0.01773 -2.226095,-1.359746 -2.228975,-2.523672 -0.02544,-2.126024 1.293697,-2.41576 1.90584,-2.433819 z"
         inkscape:label="TextShadow" /><path
         id="path904-6-67"
         style="fill:#000000;fill-opacity:1;stroke:none;stroke-width:0.055582px;stroke-linecap:butt;stroke-linejoin:miter;stroke-opacity:1"
         d="m 34.331352,37.85686 -0.268318,5.001182 -0.0013,4.13e-4 c -0.01877,0.331048 -0.116175,0.377826 -0.13519,0.396088 -0.08832,0.08484 -0.203693,0.05889 -0.300878,0.06759 -0.03985,0.0036 -0.05787,0.243589 0.0103,0.243589 0.08468,0 0.479933,-0.01954 0.568784,-0.01937 0.07194,1.13e-4 0.51417,0.01937 0.619481,0.01937 0.05114,0 0.07794,-0.217272 0.02225,-0.224217 -0.07025,-0.0088 -0.252374,-0.06535 -0.267906,-0.158682 -0.0021,-0.0129 -0.0043,-0.074 -0.0062,-0.193304 l 0.147966,-2.794462 2.137475,3.628679 2.09997,-4.175209 0.253067,3.272161 c 0.0042,0.168035 -0.008,0.317062 -0.01648,0.332202 -0.03321,0.05913 -0.125429,0.09486 -0.231222,0.123238 -0.08287,0.02221 -0.08607,0.190832 0.0342,0.190832 0.223636,0 0.462621,-0.05416 0.551473,-0.05399 0.07194,1.11e-4 0.716482,0.05152 0.911291,0.04534 0.0787,-0.0024 0.102021,-0.165185 0.0202,-0.183 -0.138678,-0.0302 -0.391371,-0.143617 -0.438129,-0.253479 -0.0096,-0.02251 -0.09504,-0.247429 -0.110872,-0.370124 l -0.629784,-4.880002 -2.332841,4.648781 z m 7.051276,0.09315 v 7.89e-4 c -0.0656,-0.0051 -0.08774,0.132473 -0.01113,0.149615 0.251817,0.05635 0.32419,0.220281 0.370945,0.330142 0.01029,0.02414 0.09365,0.287403 0.09356,0.389494 -9.47e-4,1.286353 0.07262,2.553172 0.02844,3.829401 0.02105,0.26129 -0.04089,0.502065 -0.107162,0.616595 -0.03888,0.06718 -0.185624,0.140221 -0.302528,0.14096 -0.04785,2.09e-4 -0.06984,0.158684 -0.0017,0.158684 0.905548,-0.0053 1.866377,0.0013 2.692659,-4.12e-4 v -0.0041 c 0.09059,-0.09139 0.335213,-0.437958 0.384136,-0.687077 0.02083,-0.05776 0.02997,-0.111812 0.0136,-0.120763 -0.01535,-0.0069 -0.05184,0.02291 -0.119938,0.118291 -0.09739,0.136395 -0.12402,0.189579 -0.27821,0.241939 -0.382943,0.08092 -0.966137,0.08032 -1.334994,0.0078 -0.207246,-0.04074 -0.386516,-0.142265 -0.389494,-0.436482 v -1.679975 h 1.258332 c 0.155298,0 0.276771,0.218565 0.281507,0.337149 0.0039,0.09726 0.156769,0.10145 0.158683,0.0017 l 0.0054,-0.945502 c 8.69e-4,-0.112113 -0.16404,-0.11824 -0.16404,0.0017 0,0.154293 -0.193791,0.154014 -0.299642,0.16198 -0.407832,0 -0.834836,0.0024 -1.250502,0.0024 v -2.059165 h 1.502333 v 0.0017 c 0.179464,0.09719 0.265716,0.21418 0.270791,0.341269 0.0039,0.09725 0.132037,0.101453 0.133952,0.0017 l 0.0057,-0.722109 h -0.396088 -1.520056 c -0.10057,-0.01819 -0.204003,-0.03259 -0.296757,-0.04369 -0.339874,-0.04069 -0.553918,-0.08707 -0.714278,-0.131478 -0.0048,-0.0013 -0.0093,-0.0023 -0.0136,-0.0024 z m 15.335331,0.0013 -0.07872,4.982633 c -0.0029,0.187182 -0.03666,0.276754 -0.06677,0.326434 -0.0505,0.08331 -0.180552,0.14411 -0.309122,0.143432 -0.05554,-2.11e-4 -0.06322,0.173518 0.005,0.173518 0.159124,0 0.562779,-0.04427 0.651631,-0.0441 0.07194,1.11e-4 0.39315,0.0328 0.64833,0.03297 0.128683,0 0.08814,-0.160041 0.0202,-0.172285 -0.05683,-0.01026 -0.260619,-0.09276 -0.276149,-0.173107 -0.0059,-0.03081 -0.03296,-0.355738 -0.03545,-0.559304 -0.01239,-1.015728 -0.01505,-2.002335 -0.01114,-3.034754 l 4.441465,4.141411 -0.01113,-5.000771 c 0,-0.14482 0.03638,-0.252512 0.07791,-0.327254 0.06057,-0.109032 0.191966,-0.127012 0.29552,-0.136015 0.05313,-0.0046 0.07727,-0.180939 -0.0136,-0.180939 -0.112862,0 -0.526614,0.0072 -0.645034,0.007 -0.09588,-1.53e-4 -0.587955,-0.03539 -0.728291,-0.03792 -0.125305,-0.0021 -0.108529,0.189074 0.01112,0.187945 0.235746,-0.0021 0.309219,0.140963 0.366414,0.353636 0.0093,0.0347 0.04621,0.175655 0.06265,0.46904 l 0.02885,3.29153 z m -4.242799,0.05976 c -1.679254,0 -2.853402,1.234989 -2.853402,3.067314 0,1.264232 1.154173,2.611873 2.941604,2.611873 1.93711,0 2.909051,-1.515362 2.903273,-2.833616 -0.0058,-1.347571 -0.931232,-2.845571 -2.991475,-2.845571 z m -5.240647,0.0074 c -0.02384,4.9e-5 -0.04803,6.12e-4 -0.07255,0.0013 -0.54324,0.01771 -1.407367,0.549483 -1.374149,1.441746 0.01823,0.489663 0.577246,1.178058 1.057196,1.593419 0.456508,0.395076 1.173664,0.724153 1.165183,1.283063 -0.01071,0.479983 -0.379509,0.89769 -1.10748,0.89769 -0.454863,-0.024 -0.660036,-0.03475 -0.952508,-0.320663 -0.117778,-0.115961 -0.145471,-0.389804 -0.147966,-0.529217 l -0.260487,-0.0017 -0.0054,0.851116 c 0.398505,0.242128 0.903895,0.375141 1.351892,0.367237 1.125079,-0.02847 1.612375,-0.694164 1.629693,-1.377034 0.04314,-0.957755 -0.663328,-1.393838 -1.227833,-1.84443 -0.468607,-0.374045 -0.994961,-0.644492 -0.994961,-1.267811 0,-0.267286 0.42784,-0.717968 0.966934,-0.750549 0.308361,-1.01e-4 0.559237,0.03445 0.752197,0.250596 0.110073,0.123294 0.192466,0.250904 0.194953,0.390317 l 0.206906,0.01154 -0.0074,-0.856062 c -0.122261,0.0038 -0.254669,-0.01085 -0.372182,-0.03545 -0.0076,-0.0017 -0.01424,-0.002 -0.02061,-0.0024 -0.205709,-0.03974 -0.463539,-0.103081 -0.781047,-0.10263 z m 5.07166,0.343333 c 1.772195,0.0337 2.349852,1.704441 2.334489,2.710793 -0.02578,1.688016 -0.877937,2.231132 -2.011354,2.246698 -1.291077,0.01773 -2.226095,-1.359746 -2.228975,-2.523672 -0.02544,-2.126024 1.293697,-2.41576 1.90584,-2.433819 z"
         inkscape:label="Text" /><path
         style="fill:#000000;fill-opacity:1;stroke:none;stroke-width:1.71902;stroke-miterlimit:4;stroke-dasharray:none;stroke-opacity:1;filter:url(#filter2)"
         d="m 181.30469,74.429688 c -19.83782,11.200316 -32.15467,32.185892 -32.26758,54.980472 20.7545,11.31558 45.12547,10.92965 64.01172,0.11914 0.002,-0.0546 0.005,-0.10968 0.01,-0.16407 -0.0238,-22.67226 -12.12742,-43.6119 -31.7539,-54.935542 z m 10.67969,24.269531 c 2.94116,1.998651 2.50501,6.810621 2.03124,10.105471 -0.60285,3.62947 -4.08263,9.59638 -8.60351,13.49023 0.5848,0.83848 0.92679,1.87103 0.92187,2.97266 -2.80149,1.41608 -5.58135,-0.1815 -8.94336,-3.06055 -3.362,-2.87908 -6.98806,-8.6473 -8.1914,-14.57617 -1.06733,0.11302 -2.16025,-0.1255 -3.09766,-0.7168 0.24484,-3.3245 3.7733,-5.29916 6.90039,-6.46484 3.1271,-1.165683 11.1832,-1.560241 16.86328,0.45898 0.4429,-0.929889 1.17656,-1.711687 2.11915,-2.207028 z"
         transform="scale(0.26458333)"
         id="path817-6-2-9-7-9-93-9-8-1"
         inkscape:label="IconShadow" /><path
         style="fill:#39207c;fill-opacity:1;stroke:none;stroke-width:1.71902;stroke-miterlimit:4;stroke-dasharray:none;stroke-opacity:1"
         d="m 181.30469,74.429688 c -19.83782,11.200316 -32.15467,32.185892 -32.26758,54.980472 20.7545,11.31558 45.12547,10.92965 64.01172,0.11914 0.002,-0.0546 0.005,-0.10968 0.01,-0.16407 -0.0238,-22.67226 -12.12742,-43.6119 -31.7539,-54.935542 z m 10.67969,24.269531 c 2.94116,1.998651 2.50501,6.810621 2.03124,10.105471 -0.60285,3.62947 -4.08263,9.59638 -8.60351,13.49023 0.5848,0.83848 0.92679,1.87103 0.92187,2.97266 -2.80149,1.41608 -5.58135,-0.1815 -8.94336,-3.06055 -3.362,-2.87908 -6.98806,-8.6473 -8.1914,-14.57617 -1.06733,0.11302 -2.16025,-0.1255 -3.09766,-0.7168 0.24484,-3.3245 3.7733,-5.29916 6.90039,-6.46484 3.1271,-1.165683 11.1832,-1.560241 16.86328,0.45898 0.4429,-0.929889 1.17656,-1.711687 2.11915,-2.207028 z"
         transform="scale(0.26458333)"
         id="path1"
         inkscape:label="Icon" /></g><rect
       style="font-variation-settings:normal;display:inline;fill:none;stroke:#000000;stroke-width:1.99928;stroke-linecap:butt;stroke-linejoin:miter;stroke-miterlimit:4;stroke-dasharray:none;stroke-dashoffset:0;stroke-opacity:1;stop-color:#000000;filter:url(#filter1)"
       id="rect1"
       width="48.000725"
       height="48.000725"
       x="0.99963778"
       y="0.99963778"
       rx="6.9104829"
       ry="6.9104829"
       inkscape:label="Shadow" /><rect
       style="font-variation-settings:normal;display:inline;fill:none;stroke:#39207c;stroke-width:1.99928;stroke-linecap:butt;stroke-linejoin:miter;stroke-miterlimit:4;stroke-dasharray:none;stroke-dashoffset:0;stroke-opacity:1;stop-color:#000000"
       id="rect1-18-1"
       width="48.000725"
       height="48.000725"
       x="0.99963778"
       y="0.99963778"
       rx="6.9104829"
       ry="6.9104829"
       inkscape:label="Frame" /></g><style
     type="text/css"
     id="style1">
	.st0{fill:url(#ICON_00000088831890668800157600000002638584723837204667_);}
</style><style
     id="style1-7">.st10{fill:#333}</style><style
     type="text/css"
     id="style1-1">
	.st0{fill:url(#ICON_00000088831890668800157600000002638584723837204667_);}
</style><style
     id="style1-7-2">.st10{fill:#333}</style></svg>
