<?xml version="1.0" encoding="UTF-8" standalone="no"?>
<!-- Created with Inkscape (http://www.inkscape.org/) -->

<svg
   width="50mm"
   height="50mm"
   viewBox="0 0 50 50"
   version="1.1"
   id="svg1"
   xml:space="preserve"
   sodipodi:docname="Meson_Box.svg"
   inkscape:version="1.4.3 (0d15f75, 2025-12-25)"
   inkscape:export-filename="Cairo_Box.png"
   inkscape:export-xdpi="96"
   inkscape:export-ydpi="96"
   xmlns:inkscape="http://www.inkscape.org/namespaces/inkscape"
   xmlns:sodipodi="http://sodipodi.sourceforge.net/DTD/sodipodi-0.dtd"
   xmlns:xlink="http://www.w3.org/1999/xlink"
   xmlns="http://www.w3.org/2000/svg"
   xmlns:svg="http://www.w3.org/2000/svg"><sodipodi:namedview
     id="namedview1"
     pagecolor="#ffffff"
     bordercolor="#000000"
     borderopacity="0.25"
     inkscape:showpageshadow="2"
     inkscape:pageopacity="0.0"
     inkscape:pagecheckerboard="0"
     inkscape:deskcolor="#d1d1d1"
     inkscape:document-units="mm"
     inkscape:zoom="4.374133"
     inkscape:cx="76.357989"
     inkscape:cy="118.08054"
     inkscape:window-width="2560"
     inkscape:window-height="1417"
     inkscape:window-x="2552"
     inkscape:window-y="-8"
     inkscape:window-maximized="1"
     inkscape:current-layer="layer1"><inkscape:page
       x="0"
       y="0"
       width="50"
       height="50"
       id="page1"
       margin="0"
       bleed="0" /></sodipodi:namedview><defs
     id="defs1"><linearGradient
       id="linearGradient5"><stop
         style="stop-color:#321b6b;stop-opacity:1;"
         offset="0.00462963"
         id="stop1" /><stop
         style="stop-color:#927ae6;stop-opacity:1;"
         offset="0.99840766"
         id="stop5" /></linearGradient><linearGradient
       xlink:href="#linearGradient5"
       id="linearGradient1"
       x1="25"
       y1="7.0902283e-06"
       x2="25"
       y2="50.000031"
       gradientUnits="userSpaceOnUse"
       gradientTransform="matrix(0.98039216,0,0,0.98039216,0.49019623,0.49019623)" /><filter
       inkscape:collect="always"
       style="color-interpolation-filters:sRGB"
       id="filter1"
       x="-0.06882552"
       y="-0.06882552"
       width="1.137651"
       height="1.137651"><feGaussianBlur
         inkscape:collect="always"
         stdDeviation="0.9600145"
         id="feGaussianBlur1" /></filter><filter
       inkscape:collect="always"
       style="color-interpolation-filters:sRGB"
       id="filter4"
       x="-0.047792673"
       y="-0.048209136"
       width="1.0955853"
       height="1.0964183"><feGaussianBlur
         inkscape:collect="always"
         stdDeviation="0.34524055"
         id="feGaussianBlur4" /></filter></defs><g
     id="layer1"
     inkscape:label="Meson"><rect
       style="font-variation-settings:normal;display:inline;fill:url(#linearGradient1);stroke:none;stroke-width:0.980392;stroke-linecap:butt;stroke-linejoin:miter;stroke-miterlimit:4;stroke-dasharray:none;stroke-dashoffset:0;stroke-opacity:1;stop-color:#000000"
       id="rect1-18"
       width="49.019608"
       height="49.019608"
       x="0.49019623"
       y="0.49019623"
       rx="7.0571675"
       ry="7.0571675"
       inkscape:label="Background" /><g
       inkscape:label="Logo"
       id="layer1-0"
       transform="matrix(1.314564,0,0,1.314564,-37.90653,-16.706118)"><path
         id="path904-6-67"
         style="fill:#000000;fill-opacity:1;stroke:none;stroke-width:0.0530123px;stroke-linecap:butt;stroke-linejoin:miter;stroke-opacity:1"
         d="m 34.956496,39.333283 -0.255913,4.769962 -0.0012,3.93e-4 c -0.0179,0.315744 -0.110803,0.360358 -0.128939,0.377776 -0.08424,0.08092 -0.194276,0.05617 -0.286968,0.06447 -0.03801,0.0034 -0.05519,0.232328 0.0098,0.232328 0.08076,0 0.457745,-0.01864 0.542488,-0.01848 0.06861,1.06e-4 0.490398,0.01848 0.590839,0.01848 0.04878,0 0.07434,-0.207227 0.02123,-0.213851 -0.06701,-0.0084 -0.240705,-0.06233 -0.255519,-0.151347 -0.002,-0.0123 -0.0041,-0.07058 -0.0059,-0.184366 l 0.141126,-2.665265 2.038652,3.460913 2.002881,-3.982174 0.241367,3.120877 c 0.004,0.160267 -0.0076,0.302404 -0.01572,0.316844 -0.03169,0.05639 -0.11963,0.09048 -0.220533,0.11754 -0.07904,0.02118 -0.08209,0.182009 0.03263,0.182009 0.213296,0 0.441234,-0.05166 0.525977,-0.0515 0.06861,1.06e-4 0.683357,0.04914 0.86916,0.04324 0.07505,-0.0023 0.0973,-0.157549 0.01926,-0.174539 -0.132266,-0.0288 -0.373277,-0.13698 -0.417873,-0.241761 -0.0091,-0.02147 -0.09064,-0.23599 -0.105746,-0.353011 l -0.600667,-4.654385 -2.224986,4.433853 z m 6.725274,0.08884 v 7.87e-4 c -0.06258,-0.0049 -0.08369,0.126348 -0.01061,0.142698 0.240175,0.05375 0.309201,0.210097 0.353797,0.314878 0.0098,0.02303 0.08931,0.274117 0.08924,0.371486 -9.42e-4,1.226881 0.06928,2.435132 0.02712,3.652357 0.02009,0.24921 -0.039,0.478852 -0.102208,0.588088 -0.03708,0.06407 -0.177041,0.133737 -0.28854,0.134442 -0.04563,2.01e-4 -0.06661,0.151348 -0.0016,0.151348 0.863681,-0.005 1.780088,0.0012 2.568169,-3.93e-4 v -0.0039 c 0.0864,-0.08716 0.319715,-0.41771 0.366375,-0.655311 0.01987,-0.0551 0.02858,-0.106643 0.01297,-0.11518 -0.01464,-0.0065 -0.04944,0.02186 -0.114394,0.112822 -0.09289,0.130088 -0.118286,0.180814 -0.265347,0.230754 -0.365238,0.07718 -0.921471,0.0766 -1.273274,0.0075 -0.197664,-0.03884 -0.368646,-0.135687 -0.371486,-0.416302 v -1.602304 h 1.200155 c 0.148119,0 0.263976,0.20846 0.268492,0.321562 0.0037,0.09276 0.149522,0.09676 0.151347,0.0016 l 0.0051,-0.901788 c 8.01e-4,-0.106931 -0.156457,-0.112775 -0.156457,0.0016 0,0.14716 -0.18483,0.146893 -0.285788,0.154491 -0.388976,0 -0.796238,0.0024 -1.192687,0.0024 v -1.963963 h 1.432875 v 0.0016 c 0.171167,0.0927 0.253431,0.204279 0.258272,0.325492 0.0037,0.09276 0.125932,0.09676 0.127759,0.0016 l 0.0055,-0.688724 h -0.377776 -1.449779 c -0.09592,-0.01735 -0.194571,-0.03108 -0.283037,-0.04167 -0.32416,-0.0388 -0.528309,-0.08304 -0.681254,-0.1254 -0.0045,-0.0012 -0.0088,-0.0021 -0.01297,-0.0024 z m 14.626332,0.0012 -0.07508,4.75227 c -0.0028,0.178528 -0.03496,0.26396 -0.06368,0.311342 -0.04817,0.07945 -0.172205,0.137448 -0.29483,0.136801 -0.05297,-2.01e-4 -0.0603,0.165496 0.0047,0.165496 0.151768,0 0.536761,-0.04222 0.621504,-0.04206 0.06861,1.07e-4 0.374975,0.03128 0.618356,0.03145 0.122734,0 0.08405,-0.152641 0.01926,-0.164318 -0.05421,-0.0098 -0.248569,-0.08848 -0.263381,-0.165104 -0.0057,-0.02939 -0.03144,-0.339293 -0.03381,-0.533447 -0.01182,-0.968767 -0.01436,-1.909761 -0.01062,-2.894447 l 4.236123,3.94994 -0.01062,-4.769569 c 0,-0.138126 0.03469,-0.240839 0.0743,-0.312126 0.05777,-0.103989 0.18309,-0.121138 0.281856,-0.129726 0.05067,-0.0044 0.0737,-0.172573 -0.01297,-0.172573 -0.107644,0 -0.502267,0.0069 -0.615212,0.0067 -0.09145,-1.47e-4 -0.560773,-0.03376 -0.69462,-0.03617 -0.119512,-0.002 -0.103511,0.180334 0.01061,0.179258 0.224846,-0.002 0.294922,0.134445 0.349473,0.337285 0.0089,0.03309 0.04407,0.167534 0.05975,0.447355 l 0.02752,3.139353 z m -4.046642,0.057 c -1.601617,0 -2.72148,1.177892 -2.72148,2.925502 0,1.205783 1.100811,2.491119 2.805604,2.491119 1.847551,0 2.774556,-1.445303 2.769046,-2.702611 -0.0056,-1.285267 -0.888179,-2.71401 -2.85317,-2.71401 z m -4.998356,0.0071 c -0.02273,4.6e-5 -0.04582,5.83e-4 -0.06919,0.0012 -0.518126,0.01689 -1.3423,0.524078 -1.310619,1.375089 0.01738,0.467025 0.550559,1.123594 1.008319,1.519751 0.435402,0.37681 1.119402,0.690672 1.111314,1.223743 -0.01022,0.457792 -0.361964,0.856187 -1.056279,0.856187 -0.433833,-0.02289 -0.62952,-0.03315 -0.90847,-0.305838 -0.112333,-0.1106 -0.138745,-0.371783 -0.141125,-0.504749 l -0.248444,-0.0016 -0.0051,0.811767 c 0.38008,0.230933 0.862105,0.357796 1.289391,0.350259 1.07306,-0.02716 1.537828,-0.662071 1.554345,-1.313371 0.04114,-0.913475 -0.63266,-1.329396 -1.171066,-1.759155 -0.446943,-0.356752 -0.94896,-0.614696 -0.94896,-1.209197 0,-0.254928 0.408059,-0.684774 0.922229,-0.715848 0.294104,-9.6e-5 0.533381,0.03287 0.71742,0.239009 0.104985,0.117595 0.183567,0.239304 0.18594,0.372272 l 0.19734,0.01101 -0.0071,-0.816484 c -0.116609,0.0035 -0.242895,-0.01035 -0.354975,-0.03381 -0.0073,-0.0016 -0.01358,-0.0018 -0.01966,-0.0024 -0.196199,-0.0379 -0.442109,-0.09831 -0.744937,-0.09788 z m 4.837181,0.327459 c 1.690261,0.03215 2.241212,1.625639 2.226559,2.585465 -0.02459,1.609974 -0.837347,2.127979 -1.918363,2.142826 -1.231386,0.01691 -2.123176,-1.296881 -2.125923,-2.406995 -0.02426,-2.027732 1.233885,-2.304072 1.817727,-2.321296 z"
         inkscape:label="Text" /><path
         id="path1"
         style="fill:#000000;fill-opacity:0.75043029;stroke:none;stroke-width:0.454824;stroke-miterlimit:4;stroke-dasharray:none;stroke-opacity:1;filter:url(#filter4)"
         inkscape:label="IconShadow"
         d="m 47.869945,19.518188 c -3.305831,1.855537 -5.947915,4.855903 -7.37359,8.368178 -0.840097,2.047708 -1.268799,4.260371 -1.266193,6.473293 5.104236,2.873761 11.673599,3.113344 16.854493,0.298749 0.161692,-0.08477 0.319365,-0.176821 0.478816,-0.265676 0.03286,-1.466411 -0.16134,-2.935576 -0.519316,-4.3566 -0.943224,-3.731711 -3.201832,-7.112 -6.290863,-9.408964 -0.568666,-0.426395 -1.166217,-0.812794 -1.782062,-1.167374 -0.03376,0.01947 -0.06752,0.03893 -0.101285,0.05839 z m 2.927988,6.853845 c 0.439552,0.438966 0.441113,1.115201 0.412893,1.694988 -0.02901,0.56383 -0.138348,1.126522 -0.395534,1.633328 -0.476879,1.004179 -1.17503,1.900243 -2.019821,2.621709 0.139475,0.207499 0.290685,0.444415 0.29042,0.696082 -0.555075,0.202181 -1.114179,-0.139129 -1.549257,-0.45837 -1.116918,-0.796446 -1.877904,-2.004356 -2.338877,-3.279386 -0.116917,-0.330893 -0.197009,-0.672645 -0.272333,-1.014926 -0.248259,0.02066 -0.561385,0.046 -0.75706,-0.104904 0.140179,-0.607399 0.723558,-0.96611 1.248325,-1.217023 0.830403,-0.409514 1.782358,-0.432469 2.689556,-0.412192 0.756642,0.03111 1.514993,0.148157 2.227117,0.412753 0.108275,-0.22203 0.23359,-0.449768 0.449066,-0.584978 z" /><path
         style="fill:#39207c;fill-opacity:1;stroke:none;stroke-width:1.71902;stroke-miterlimit:4;stroke-dasharray:none;stroke-opacity:1"
         d="m 181.30469,74.429688 c -19.83782,11.200316 -32.15467,32.185892 -32.26758,54.980472 20.7545,11.31558 45.12547,10.92965 64.01172,0.11914 0.002,-0.0546 0.005,-0.10968 0.01,-0.16407 -0.0238,-22.67226 -12.12742,-43.6119 -31.7539,-54.935542 z m 10.67969,24.269531 c 2.94116,1.998651 2.50501,6.810621 2.03124,10.105471 -0.60285,3.62947 -4.08263,9.59638 -8.60351,13.49023 0.5848,0.83848 0.92679,1.87103 0.92187,2.97266 -2.80149,1.41608 -5.58135,-0.1815 -8.94336,-3.06055 -3.362,-2.87908 -6.98806,-8.6473 -8.1914,-14.57617 -1.06733,0.11302 -2.16025,-0.1255 -3.09766,-0.7168 0.24484,-3.3245 3.7733,-5.29916 6.90039,-6.46484 3.1271,-1.165683 11.1832,-1.560241 16.86328,0.45898 0.4429,-0.929889 1.17656,-1.711687 2.11915,-2.207028 z"
         transform="scale(0.26458333)"
         id="path3"
         inkscape:label="Icon" /></g><rect
       style="font-variation-settings:normal;display:inline;fill:none;stroke:#000000;stroke-width:1.99928;stroke-linecap:butt;stroke-linejoin:miter;stroke-miterlimit:4;stroke-dasharray:none;stroke-dashoffset:0;stroke-opacity:1;stop-color:#000000;filter:url(#filter1)"
       id="rect1"
       width="48.000725"
       height="48.000725"
       x="0.99963778"
       y="0.99963778"
       rx="6.9104829"
       ry="6.9104829"
       inkscape:label="Shadow" /><rect
       style="font-variation-settings:normal;display:inline;fill:none;stroke:#39207c;stroke-width:1.99928;stroke-linecap:butt;stroke-linejoin:miter;stroke-miterlimit:4;stroke-dasharray:none;stroke-dashoffset:0;stroke-opacity:1;stop-color:#000000"
       id="rect1-18-1"
       width="48.000725"
       height="48.000725"
       x="0.99963778"
       y="0.99963778"
       rx="6.9104829"
       ry="6.9104829"
       inkscape:label="Frame" /></g><style
     type="text/css"
     id="style1">
	.st0{fill:url(#ICON_00000088831890668800157600000002638584723837204667_);}
</style><style
     id="style1-7">.st10{fill:#333}</style><style
     type="text/css"
     id="style1-1">
	.st0{fill:url(#ICON_00000088831890668800157600000002638584723837204667_);}
</style><style
     id="style1-7-2">.st10{fill:#333}</style></svg>
