<?xml version="1.0" encoding="UTF-8" standalone="no"?>
<!-- Created with Inkscape (http://www.inkscape.org/) -->

<svg
   width="50mm"
   height="50mm"
   viewBox="0 0 50 50"
   version="1.1"
   id="svg1"
   xml:space="preserve"
   sodipodi:docname="Meson_Box.svg"
   inkscape:version="1.4.3 (0d15f75, 2025-12-25)"
   inkscape:export-filename="Cairo_Box.png"
   inkscape:export-xdpi="96"
   inkscape:export-ydpi="96"
   xmlns:inkscape="http://www.inkscape.org/namespaces/inkscape"
   xmlns:sodipodi="http://sodipodi.sourceforge.net/DTD/sodipodi-0.dtd"
   xmlns:xlink="http://www.w3.org/1999/xlink"
   xmlns="http://www.w3.org/2000/svg"
   xmlns:svg="http://www.w3.org/2000/svg"><sodipodi:namedview
     id="namedview1"
     pagecolor="#ffffff"
     bordercolor="#000000"
     borderopacity="0.25"
     inkscape:showpageshadow="2"
     inkscape:pageopacity="0.0"
     inkscape:pagecheckerboard="0"
     inkscape:deskcolor="#d1d1d1"
     inkscape:document-units="mm"
     inkscape:zoom="3.0929791"
     inkscape:cx="34.756135"
     inkscape:cy="138.53957"
     inkscape:window-width="2560"
     inkscape:window-height="1369"
     inkscape:window-x="-8"
     inkscape:window-y="-8"
     inkscape:window-maximized="1"
     inkscape:current-layer="layer1-0"><inkscape:page
       x="0"
       y="0"
       width="50"
       height="50"
       id="page1"
       margin="0"
       bleed="0" /></sodipodi:namedview><defs
     id="defs1"><linearGradient
       id="linearGradient5"><stop
         style="stop-color:#1b0d40;stop-opacity:1;"
         offset="0.00307924"
         id="stop1" /><stop
         style="stop-color:#907ddd;stop-opacity:1;"
         offset="0.99840766"
         id="stop5" /></linearGradient><linearGradient
       xlink:href="#linearGradient5"
       id="linearGradient1"
       x1="25"
       y1="7.0902283e-06"
       x2="25"
       y2="50.000031"
       gradientUnits="userSpaceOnUse"
       gradientTransform="matrix(0.98039216,0,0,0.98039216,0.49019623,0.49019623)" /><filter
       inkscape:collect="always"
       style="color-interpolation-filters:sRGB"
       id="filter1"
       x="-0.06882552"
       y="-0.06882552"
       width="1.137651"
       height="1.137651"><feGaussianBlur
         inkscape:collect="always"
         stdDeviation="0.9600145"
         id="feGaussianBlur1" /></filter><filter
       inkscape:collect="always"
       style="color-interpolation-filters:sRGB"
       id="filter2"
       x="-0.04773024"
       y="-0.048272827"
       width="1.0954605"
       height="1.0965457"><feGaussianBlur
         inkscape:collect="always"
         stdDeviation="0.39517731"
         id="feGaussianBlur2" /></filter><filter
       inkscape:collect="always"
       style="color-interpolation-filters:sRGB"
       id="filter3"
       x="-0.029020085"
       y="-0.13873914"
       width="1.0580402"
       height="1.2774783"><feGaussianBlur
         inkscape:collect="always"
         stdDeviation="0.34493463"
         id="feGaussianBlur3" /></filter></defs><g
     id="layer1"
     inkscape:label="Meson"><rect
       style="font-variation-settings:normal;display:inline;fill:url(#linearGradient1);stroke:none;stroke-width:0.980392;stroke-linecap:butt;stroke-linejoin:miter;stroke-miterlimit:4;stroke-dasharray:none;stroke-dashoffset:0;stroke-opacity:1;stop-color:#000000"
       id="rect1-18"
       width="49.019608"
       height="49.019608"
       x="0.49019623"
       y="0.49019623"
       rx="7.0571675"
       ry="7.0571675"
       inkscape:label="Background" /><g
       inkscape:label="Logo"
       id="layer1-0"
       transform="matrix(1.314564,0,0,1.314564,-37.90653,-16.706118)"><path
         id="path2"
         style="fill:#000000;fill-opacity:1;stroke:none;stroke-width:0.0555823px;stroke-linecap:butt;stroke-linejoin:miter;stroke-opacity:1;filter:url(#filter3)"
         d="m 34.33135,39.333283 -0.26832,5.001207 -0.0013,4.12e-4 c -0.01877,0.331051 -0.116174,0.377827 -0.13519,0.39609 -0.08832,0.08484 -0.203694,0.05889 -0.30088,0.06759 -0.03985,0.0036 -0.05786,0.243591 0.01028,0.243591 0.08468,0 0.479937,-0.01954 0.568788,-0.01937 0.07194,1.11e-4 0.514172,0.01937 0.619482,0.01937 0.05114,0 0.07794,-0.217273 0.02226,-0.224218 -0.07026,-0.0088 -0.252375,-0.06535 -0.267907,-0.158684 -0.0021,-0.0129 -0.0043,-0.074 -0.0062,-0.193304 l 0.147968,-2.794475 2.137484,3.628695 2.09998,-4.175227 0.253068,3.272175 c 0.0042,0.168037 -0.008,0.317065 -0.01648,0.332205 -0.03323,0.05912 -0.12543,0.09487 -0.231224,0.123238 -0.08287,0.02221 -0.08607,0.190833 0.03421,0.190833 0.223637,0 0.462625,-0.05416 0.551476,-0.054 0.07194,1.11e-4 0.716486,0.05152 0.911297,0.04534 0.07869,-0.0024 0.102017,-0.165187 0.02019,-0.183 -0.138678,-0.0302 -0.391373,-0.143621 -0.438131,-0.253482 -0.0095,-0.02251 -0.09503,-0.24743 -0.110872,-0.370124 l -0.629787,-4.880027 -2.332852,4.648803 z m 7.051311,0.09315 v 8.25e-4 c -0.06561,-0.0051 -0.08775,0.132473 -0.01112,0.149616 0.251819,0.05636 0.324191,0.220282 0.370949,0.330143 0.01028,0.02415 0.09364,0.287406 0.09357,0.389495 -9.87e-4,1.28636 0.07264,2.553186 0.02843,3.829421 0.02106,0.261292 -0.04089,0.502067 -0.107163,0.616598 -0.03888,0.06718 -0.185624,0.140221 -0.302528,0.14096 -0.04784,2.11e-4 -0.06984,0.158685 -0.0017,0.158685 0.905552,-0.0052 1.866386,0.0013 2.692672,-4.12e-4 v -0.0041 c 0.09059,-0.09139 0.335215,-0.43796 0.384137,-0.68708 0.02083,-0.05777 0.02997,-0.111813 0.0136,-0.120764 -0.01535,-0.0068 -0.05184,0.02292 -0.11994,0.118292 -0.09739,0.136394 -0.12402,0.189579 -0.278211,0.241941 -0.382944,0.08092 -0.966143,0.08031 -1.335001,0.0079 -0.207247,-0.04072 -0.386518,-0.142265 -0.389496,-0.436484 v -1.679983 h 1.258338 c 0.1553,0 0.276773,0.218566 0.281508,0.337152 0.0039,0.09726 0.156771,0.10145 0.158685,0.0017 l 0.0053,-0.945506 c 8.4e-4,-0.112115 -0.164042,-0.118242 -0.164042,0.0017 0,0.154294 -0.193791,0.154014 -0.299643,0.16198 -0.407833,0 -0.834839,0.0025 -1.250508,0.0025 V 39.98178 h 1.50234 v 0.0017 c 0.179465,0.09719 0.265717,0.214182 0.270793,0.341271 0.0039,0.09726 0.132037,0.101451 0.133953,0.0017 l 0.0058,-0.722113 h -0.39609 -1.520063 c -0.10057,-0.01819 -0.204004,-0.03259 -0.296759,-0.04369 -0.339875,-0.04068 -0.553921,-0.08707 -0.71428,-0.13148 -0.0047,-0.0013 -0.0092,-0.0022 -0.0136,-0.0025 z m 15.335406,0.0013 -0.07872,4.982657 c -0.0029,0.187183 -0.03665,0.276756 -0.06677,0.326436 -0.05051,0.0833 -0.180553,0.144111 -0.309123,0.143433 -0.05554,-2.11e-4 -0.06322,0.173519 0.0049,0.173519 0.159126,0 0.562783,-0.04427 0.651634,-0.0441 0.07194,1.12e-4 0.393154,0.0328 0.648333,0.03297 0.128685,0 0.08812,-0.160041 0.02019,-0.172284 -0.05684,-0.01028 -0.260619,-0.09277 -0.276149,-0.173108 -0.006,-0.03081 -0.03297,-0.355742 -0.03545,-0.559308 -0.01239,-1.015732 -0.01506,-2.002345 -0.01114,-3.034768 l 4.441487,4.141431 -0.01114,-5.000795 c 0,-0.144822 0.03637,-0.252515 0.0779,-0.327258 0.06057,-0.10903 0.191966,-0.12701 0.29552,-0.136015 0.05313,-0.0046 0.07727,-0.180939 -0.0136,-0.180939 -0.112863,0 -0.526617,0.0072 -0.645037,0.007 -0.09588,-1.54e-4 -0.587959,-0.0354 -0.728295,-0.03792 -0.125306,-0.0021 -0.108529,0.189076 0.01112,0.187948 0.235747,-0.0021 0.30922,0.140963 0.366415,0.353636 0.0093,0.03469 0.04621,0.175656 0.06265,0.469043 l 0.02885,3.291546 z m -4.24282,0.05976 c -1.679263,0 -2.853416,1.234996 -2.853416,3.067329 0,1.264238 1.154178,2.611886 2.941618,2.611886 1.937119,0 2.909065,-1.51537 2.903288,-2.833631 -0.0059,-1.347576 -0.931238,-2.845584 -2.99149,-2.845584 z m -5.240673,0.0074 c -0.02383,4.8e-5 -0.04804,6.11e-4 -0.07254,0.0013 -0.543245,0.01771 -1.407374,0.549485 -1.374157,1.441752 0.01822,0.489666 0.577249,1.178065 1.057201,1.593428 0.45651,0.395077 1.17367,0.724155 1.16519,1.283069 -0.01071,0.479985 -0.379512,0.897694 -1.107487,0.897694 -0.454865,-0.024 -0.660038,-0.03476 -0.952512,-0.320665 -0.117778,-0.115961 -0.145471,-0.389806 -0.147966,-0.529218 l -0.260489,-0.0017 -0.0053,0.851121 c 0.398506,0.242128 0.903899,0.375142 1.3519,0.367239 1.125081,-0.02848 1.612381,-0.694168 1.629698,-1.377042 0.04313,-0.95776 -0.66333,-1.393844 -1.227838,-1.844438 -0.468611,-0.374047 -0.994965,-0.644496 -0.994965,-1.267818 0,-0.267287 0.427841,-0.717971 0.966938,-0.750552 0.308362,-1e-4 0.559239,0.03446 0.7522,0.250596 0.110075,0.123296 0.192466,0.250906 0.194954,0.39032 l 0.206907,0.01154 -0.0074,-0.856067 c -0.122262,0.0037 -0.25467,-0.01085 -0.372184,-0.03545 -0.0077,-0.0017 -0.01424,-0.0019 -0.02061,-0.0025 -0.205711,-0.03974 -0.463542,-0.103076 -0.781051,-0.102626 z m 5.071684,0.343334 c 1.772204,0.03371 2.349865,1.704448 2.334501,2.710806 -0.02578,1.688025 -0.877941,2.231142 -2.011364,2.246709 -1.291083,0.01773 -2.226106,-1.359753 -2.228986,-2.523685 -0.02544,-2.126035 1.293703,-2.415771 1.905849,-2.43383 z"
         inkscape:label="TextShadow" /><path
         id="path904-6-67"
         style="fill:#000000;fill-opacity:1;stroke:none;stroke-width:0.0555823px;stroke-linecap:butt;stroke-linejoin:miter;stroke-opacity:1"
         d="m 34.33135,39.333283 -0.26832,5.001207 -0.0013,4.12e-4 c -0.01877,0.331051 -0.116174,0.377827 -0.13519,0.39609 -0.08832,0.08484 -0.203694,0.05889 -0.30088,0.06759 -0.03985,0.0036 -0.05786,0.243591 0.01028,0.243591 0.08468,0 0.479937,-0.01954 0.568788,-0.01937 0.07194,1.11e-4 0.514172,0.01937 0.619482,0.01937 0.05114,0 0.07794,-0.217273 0.02226,-0.224218 -0.07026,-0.0088 -0.252375,-0.06535 -0.267907,-0.158684 -0.0021,-0.0129 -0.0043,-0.074 -0.0062,-0.193304 l 0.147968,-2.794475 2.137484,3.628695 2.09998,-4.175227 0.253068,3.272175 c 0.0042,0.168037 -0.008,0.317065 -0.01648,0.332205 -0.03323,0.05912 -0.12543,0.09487 -0.231224,0.123238 -0.08287,0.02221 -0.08607,0.190833 0.03421,0.190833 0.223637,0 0.462625,-0.05416 0.551476,-0.054 0.07194,1.11e-4 0.716486,0.05152 0.911297,0.04534 0.07869,-0.0024 0.102017,-0.165187 0.02019,-0.183 -0.138678,-0.0302 -0.391373,-0.143621 -0.438131,-0.253482 -0.0095,-0.02251 -0.09503,-0.24743 -0.110872,-0.370124 l -0.629787,-4.880027 -2.332852,4.648803 z m 7.051311,0.09315 v 8.25e-4 c -0.06561,-0.0051 -0.08775,0.132473 -0.01112,0.149616 0.251819,0.05636 0.324191,0.220282 0.370949,0.330143 0.01028,0.02415 0.09364,0.287406 0.09357,0.389495 -9.87e-4,1.28636 0.07264,2.553186 0.02843,3.829421 0.02106,0.261292 -0.04089,0.502067 -0.107163,0.616598 -0.03888,0.06718 -0.185624,0.140221 -0.302528,0.14096 -0.04784,2.11e-4 -0.06984,0.158685 -0.0017,0.158685 0.905552,-0.0052 1.866386,0.0013 2.692672,-4.12e-4 v -0.0041 c 0.09059,-0.09139 0.335215,-0.43796 0.384137,-0.68708 0.02083,-0.05777 0.02997,-0.111813 0.0136,-0.120764 -0.01535,-0.0068 -0.05184,0.02292 -0.11994,0.118292 -0.09739,0.136394 -0.12402,0.189579 -0.278211,0.241941 -0.382944,0.08092 -0.966143,0.08031 -1.335001,0.0079 -0.207247,-0.04072 -0.386518,-0.142265 -0.389496,-0.436484 v -1.679983 h 1.258338 c 0.1553,0 0.276773,0.218566 0.281508,0.337152 0.0039,0.09726 0.156771,0.10145 0.158685,0.0017 l 0.0053,-0.945506 c 8.4e-4,-0.112115 -0.164042,-0.118242 -0.164042,0.0017 0,0.154294 -0.193791,0.154014 -0.299643,0.16198 -0.407833,0 -0.834839,0.0025 -1.250508,0.0025 V 39.98178 h 1.50234 v 0.0017 c 0.179465,0.09719 0.265717,0.214182 0.270793,0.341271 0.0039,0.09726 0.132037,0.101451 0.133953,0.0017 l 0.0058,-0.722113 h -0.39609 -1.520063 c -0.10057,-0.01819 -0.204004,-0.03259 -0.296759,-0.04369 -0.339875,-0.04068 -0.553921,-0.08707 -0.71428,-0.13148 -0.0047,-0.0013 -0.0092,-0.0022 -0.0136,-0.0025 z m 15.335406,0.0013 -0.07872,4.982657 c -0.0029,0.187183 -0.03665,0.276756 -0.06677,0.326436 -0.05051,0.0833 -0.180553,0.144111 -0.309123,0.143433 -0.05554,-2.11e-4 -0.06322,0.173519 0.0049,0.173519 0.159126,0 0.562783,-0.04427 0.651634,-0.0441 0.07194,1.12e-4 0.393154,0.0328 0.648333,0.03297 0.128685,0 0.08812,-0.160041 0.02019,-0.172284 -0.05684,-0.01028 -0.260619,-0.09277 -0.276149,-0.173108 -0.006,-0.03081 -0.03297,-0.355742 -0.03545,-0.559308 -0.01239,-1.015732 -0.01506,-2.002345 -0.01114,-3.034768 l 4.441487,4.141431 -0.01114,-5.000795 c 0,-0.144822 0.03637,-0.252515 0.0779,-0.327258 0.06057,-0.10903 0.191966,-0.12701 0.29552,-0.136015 0.05313,-0.0046 0.07727,-0.180939 -0.0136,-0.180939 -0.112863,0 -0.526617,0.0072 -0.645037,0.007 -0.09588,-1.54e-4 -0.587959,-0.0354 -0.728295,-0.03792 -0.125306,-0.0021 -0.108529,0.189076 0.01112,0.187948 0.235747,-0.0021 0.30922,0.140963 0.366415,0.353636 0.0093,0.03469 0.04621,0.175656 0.06265,0.469043 l 0.02885,3.291546 z m -4.24282,0.05976 c -1.679263,0 -2.853416,1.234996 -2.853416,3.067329 0,1.264238 1.154178,2.611886 2.941618,2.611886 1.937119,0 2.909065,-1.51537 2.903288,-2.833631 -0.0059,-1.347576 -0.931238,-2.845584 -2.99149,-2.845584 z m -5.240673,0.0074 c -0.02383,4.8e-5 -0.04804,6.11e-4 -0.07254,0.0013 -0.543245,0.01771 -1.407374,0.549485 -1.374157,1.441752 0.01822,0.489666 0.577249,1.178065 1.057201,1.593428 0.45651,0.395077 1.17367,0.724155 1.16519,1.283069 -0.01071,0.479985 -0.379512,0.897694 -1.107487,0.897694 -0.454865,-0.024 -0.660038,-0.03476 -0.952512,-0.320665 -0.117778,-0.115961 -0.145471,-0.389806 -0.147966,-0.529218 l -0.260489,-0.0017 -0.0053,0.851121 c 0.398506,0.242128 0.903899,0.375142 1.3519,0.367239 1.125081,-0.02848 1.612381,-0.694168 1.629698,-1.377042 0.04313,-0.95776 -0.66333,-1.393844 -1.227838,-1.844438 -0.468611,-0.374047 -0.994965,-0.644496 -0.994965,-1.267818 0,-0.267287 0.427841,-0.717971 0.966938,-0.750552 0.308362,-1e-4 0.559239,0.03446 0.7522,0.250596 0.110075,0.123296 0.192466,0.250906 0.194954,0.39032 l 0.206907,0.01154 -0.0074,-0.856067 c -0.122262,0.0037 -0.25467,-0.01085 -0.372184,-0.03545 -0.0077,-0.0017 -0.01424,-0.0019 -0.02061,-0.0025 -0.205711,-0.03974 -0.463542,-0.103076 -0.781051,-0.102626 z m 5.071684,0.343334 c 1.772204,0.03371 2.349865,1.704448 2.334501,2.710806 -0.02578,1.688025 -0.877941,2.231142 -2.011364,2.246709 -1.291083,0.01773 -2.226106,-1.359753 -2.228986,-2.523685 -0.02544,-2.126035 1.293703,-2.415771 1.905849,-2.43383 z"
         inkscape:label="Text" /><path
         id="path3"
         style="fill:#000000;fill-opacity:0.74650347;stroke:none;stroke-width:0.510636;stroke-miterlimit:4;stroke-dasharray:none;stroke-opacity:1;filter:url(#filter2)"
         inkscape:label="IconShadow"
         d="m 47.865234,18.451172 c -5.813806,3.141054 -9.704383,9.503655 -9.914296,16.101078 -0.09862,0.51643 0.02847,1.108201 0.622661,1.228696 5.836684,3.062152 13.270006,3.136288 19.00062,-0.21454 0.448814,-0.534881 0.04955,-1.298702 0.128906,-1.929687 -0.473977,-6.247526 -4.240042,-12.184207 -9.732422,-15.19336 l -0.05273,-0.01172 z m 3.208985,8.169922 c 0.611101,1.004657 0.306105,2.318024 -0.09018,3.344042 -0.528845,1.184957 -1.375488,2.200176 -2.345364,3.050489 0.07809,0.162786 0.632791,0.844082 0.114053,0.691826 -1.562303,-0.330564 -2.584553,-1.777265 -3.321084,-3.090263 -0.372455,-0.727919 -0.623428,-1.511323 -0.78125,-2.3125 -0.248879,0.08276 -1.118054,0.09543 -0.617662,-0.303702 1.285714,-1.464381 3.397449,-1.373145 5.168443,-1.167002 0.499939,0.0031 1.102742,0.40045 1.505465,0.300341 0.111951,-0.158005 0.212758,-0.450662 0.367582,-0.513231 z" /><path
         style="fill:#39207c;fill-opacity:1;stroke:none;stroke-width:0.510636;stroke-miterlimit:4;stroke-dasharray:none;stroke-opacity:1"
         d="m 47.929776,18.87006 c -5.892841,3.327064 -9.551572,9.560846 -9.585112,16.331996 6.165142,3.361302 13.404559,3.246662 19.014735,0.03539 5.95e-4,-0.01622 0.0014,-0.03258 0.003,-0.04874 -0.0071,-6.734813 -3.60246,-12.954952 -9.432522,-16.318649 z m 3.172411,7.209284 c 0.873674,0.593701 0.744116,2.023101 0.603382,3.00184 -0.179078,1.078137 -1.212749,2.850612 -2.555681,4.007284 0.173716,0.249071 0.275304,0.555791 0.273843,0.883031 -0.832185,0.420648 -1.657945,-0.05391 -2.656633,-0.909139 -0.998684,-0.855233 -2.075809,-2.568688 -2.433262,-4.329863 -0.317051,0.03357 -0.641704,-0.03728 -0.920163,-0.212927 0.07273,-0.987545 1.120862,-1.57412 2.049767,-1.920386 0.928908,-0.346267 3.321979,-0.463471 5.009251,0.136341 0.131564,-0.276225 0.349499,-0.508459 0.629496,-0.6556 z"
         id="path1"
         inkscape:label="Icon" /></g><rect
       style="font-variation-settings:normal;display:inline;fill:none;stroke:#000000;stroke-width:1.99928;stroke-linecap:butt;stroke-linejoin:miter;stroke-miterlimit:4;stroke-dasharray:none;stroke-dashoffset:0;stroke-opacity:1;stop-color:#000000;filter:url(#filter1)"
       id="rect1"
       width="48.000725"
       height="48.000725"
       x="0.99963778"
       y="0.99963778"
       rx="6.9104829"
       ry="6.9104829"
       inkscape:label="Shadow" /><rect
       style="font-variation-settings:normal;display:inline;fill:none;stroke:#39207c;stroke-width:1.99928;stroke-linecap:butt;stroke-linejoin:miter;stroke-miterlimit:4;stroke-dasharray:none;stroke-dashoffset:0;stroke-opacity:1;stop-color:#000000"
       id="rect1-18-1"
       width="48.000725"
       height="48.000725"
       x="0.99963778"
       y="0.99963778"
       rx="6.9104829"
       ry="6.9104829"
       inkscape:label="Frame" /></g><style
     type="text/css"
     id="style1">
	.st0{fill:url(#ICON_00000088831890668800157600000002638584723837204667_);}
</style><style
     id="style1-7">.st10{fill:#333}</style><style
     type="text/css"
     id="style1-1">
	.st0{fill:url(#ICON_00000088831890668800157600000002638584723837204667_);}
</style><style
     id="style1-7-2">.st10{fill:#333}</style></svg>
