<?xml version="1.0" encoding="UTF-8" standalone="no"?>
<svg
   width="50"
   height="50"
   viewBox="0 0 50 50"
   version="1.1"
   xml:space="preserve"
   style="clip-rule:evenodd;fill-rule:evenodd;stroke-linejoin:round;stroke-miterlimit:2"
   id="svg5"
   sodipodi:docname="NativeScript_Logo_White_Blue_Rounded.svg"
   xmlns:inkscape="http://www.inkscape.org/namespaces/inkscape"
   xmlns:sodipodi="http://sodipodi.sourceforge.net/DTD/sodipodi-0.dtd"
   xmlns="http://www.w3.org/2000/svg"
   xmlns:svg="http://www.w3.org/2000/svg"
   xmlns:serif="http://www.serif.com/"><defs
   id="defs5"><style
     id="style1-0">.cls-1{fill:#01579b;}.cls-2{fill:#40c4ff;}.cls-3{fill:#29b6f6;}.cls-4{fill:#fff;}.cls-4,.cls-5,.cls-6{opacity:0.2;isolation:isolate;}.cls-5{fill:#263238;}.cls-6{fill:url(#radial-gradient);}</style></defs><sodipodi:namedview
   id="namedview5"
   pagecolor="#505050"
   bordercolor="#ffffff"
   borderopacity="1"
   inkscape:showpageshadow="0"
   inkscape:pageopacity="0"
   inkscape:pagecheckerboard="1"
   inkscape:deskcolor="#505050"><inkscape:page
     x="0"
     y="0"
     width="50"
     height="50"
     id="page2"
     margin="0"
     bleed="0" /></sodipodi:namedview>
    
<style
   id="style1">.st0{fill:#007acc}.st1{fill:#fff}</style><g
   id="g6"
   transform="matrix(6.25,0,0,6.25,-46.600458,1.2918419)"
   inkscape:label="NativeScript"><rect
     style="fill:#65adf1;fill-opacity:1;stroke-width:0.142003;-inkscape-stroke:none"
     id="rect2-0"
     width="8"
     height="8"
     x="7.4560733"
     y="-0.20669471"
     rx="1.1538929"
     ry="1.1538929"
     inkscape:label="rect" /><g
     transform="matrix(0.0078125,0,0,0.0078125,14.042011,3.7943639)"
     id="g3"
     style="clip-rule:evenodd;fill-rule:evenodd;stroke-linejoin:round;stroke-miterlimit:2"
     inkscape:label="icon">
                    <g
   id="NativeScript-Logo"
   serif:id="NativeScript Logo">
                        <path
   d="M 0,-0.271 V 0.828 C 0,1.084 -0.195,1.296 -0.451,1.32 -33.815,4.443 -59.93,31.553 -59.93,65.729 V 202.67 c 0,9.569 -2.01,18.8 -5.64,27.229 -10.35,24.071 -33.84,41.571 -61.16,41.571 h -69.2 l -0.48,-0.601 -269.18,-337.32 V 271.47 h -69.68 c -36.893,0 -66.8,-29.908 -66.8,-66.8 V 65.729 C -602.07,31.554 -628.185,4.443 -661.549,1.32 -661.805,1.296 -662,1.084 -662,0.828 v -1.099 c 0,-0.255 0.194,-0.467 0.449,-0.492 33.245,-3.237 59.221,-31.021 59.221,-65.117 v -139.06 c 0,-9.29 1.9,-18.15 5.33,-26.181 10.18,-23.879 33.87,-40.62 61.47,-40.62 h 69.66 l 0.28,0.35 269.18,337.33 v -337.68 h 69.94 c 36.893,0 66.8,29.908 66.8,66.801 v 139.06 c 0,34.096 25.976,61.88 59.222,65.117 C -0.194,-0.738 0,-0.526 0,-0.271"
   style="fill:#ffffff;fill-rule:nonzero"
   id="path3" />
                    </g>
                </g></g></svg>
