<?xml version="1.0" encoding="UTF-8" standalone="no"?>
<!-- Created with Inkscape (http://www.inkscape.org/) -->

<svg
   width="50mm"
   height="50mm"
   viewBox="0 0 50 50"
   version="1.1"
   id="svg1"
   xml:space="preserve"
   sodipodi:docname="Rust_Box.svg"
   inkscape:version="1.4.3 (0d15f75, 2025-12-25)"
   inkscape:export-filename="Rust_Box.png"
   inkscape:export-xdpi="260.09595"
   inkscape:export-ydpi="260.09595"
   xmlns:inkscape="http://www.inkscape.org/namespaces/inkscape"
   xmlns:sodipodi="http://sodipodi.sourceforge.net/DTD/sodipodi-0.dtd"
   xmlns:xlink="http://www.w3.org/1999/xlink"
   xmlns="http://www.w3.org/2000/svg"
   xmlns:svg="http://www.w3.org/2000/svg"><sodipodi:namedview
     id="namedview1"
     pagecolor="#505050"
     bordercolor="#ffffff"
     borderopacity="1"
     inkscape:showpageshadow="0"
     inkscape:pageopacity="0"
     inkscape:pagecheckerboard="1"
     inkscape:deskcolor="#505050"
     inkscape:document-units="mm"
     inkscape:zoom="2.8284272"
     inkscape:cx="-21.036426"
     inkscape:cy="147.96209"
     inkscape:window-width="2560"
     inkscape:window-height="1369"
     inkscape:window-x="-8"
     inkscape:window-y="-8"
     inkscape:window-maximized="1"
     inkscape:current-layer="layer1"><inkscape:page
       x="0"
       y="0"
       width="50"
       height="50"
       id="page1"
       margin="0"
       bleed="0" /></sodipodi:namedview><defs
     id="defs1"><linearGradient
       id="linearGradient7"><stop
         style="stop-color:#5f4f00;stop-opacity:1;"
         offset="0"
         id="stop1" /><stop
         style="stop-color:#000000;stop-opacity:1;"
         offset="1"
         id="stop7" /></linearGradient><radialGradient
       inkscape:collect="always"
       xlink:href="#linearGradient7"
       id="radialGradient3"
       cx="12.776269"
       cy="12.657328"
       fx="12.776269"
       fy="12.657328"
       r="24.509804"
       gradientUnits="userSpaceOnUse"
       gradientTransform="matrix(1.0404003,0,0,1.0404004,11.707571,11.831316)" /><linearGradient
       id="linearGradient2-8"><stop
         style="stop-color:#f0c700;stop-opacity:0.85000002;"
         offset="0"
         id="stop2" /><stop
         style="stop-color:#000000;stop-opacity:0;"
         offset="0.30000001"
         id="stop4-8" /></linearGradient><linearGradient
       inkscape:collect="always"
       xlink:href="#linearGradient2-8"
       id="linearGradient12"
       x1="25.000004"
       y1="3.9286751e-06"
       x2="25.000004"
       y2="50.000004"
       gradientUnits="userSpaceOnUse"
       gradientTransform="matrix(0.96153846,0,0,0.96153846,0.96153847,0.96153847)" /></defs><g
     id="layer1"
     inkscape:label="Nim"><rect
       style="font-variation-settings:normal;display:inline;fill:url(#radialGradient3);fill-opacity:1;stroke:none;stroke-width:1;stroke-linecap:butt;stroke-linejoin:miter;stroke-miterlimit:4;stroke-dasharray:none;stroke-dashoffset:0;stroke-opacity:1;stop-color:#000000"
       id="rect26"
       width="50"
       height="50"
       x="4.0426535e-06"
       y="4.0426535e-06"
       rx="7.1983113"
       ry="7.1983113"
       inkscape:label="Background" /><rect
       style="font-variation-settings:normal;display:inline;fill:none;fill-opacity:1;stroke:url(#linearGradient12);stroke-width:1.923;stroke-linecap:butt;stroke-linejoin:miter;stroke-miterlimit:4;stroke-dasharray:none;stroke-dashoffset:0;stroke-opacity:1;stop-color:#000000"
       id="rect10"
       width="48.076923"
       height="48.076923"
       x="0.96154237"
       y="0.96154237"
       rx="6.231564"
       ry="6.231564"
       inkscape:label="Border" /><g
       id="g4218"
       transform="matrix(0.11245986,0,0,0.11245986,-46.974305,-36.178159)"
       inkscape:label="Icon"><path
         d="m 773,548 c -10.76065,-35.73309 -66.4635,-67 -133,-67 -67.86983,0 -122.23935,31.26691 -133,67 L 494.16667,559 476,524 l -14,-59 24,10 c 6.56269,-6.64067 11.24201,-11.8105 28,-21 l 16,-33 27,21 c 18.1706,-4.32547 36.23715,-8.85903 57,-8 l 26,-25 26,25 c 20.76285,-0.85903 38.8294,3.67453 57,8 l 27,-21 16,33 c 16.75799,9.1895 21.43731,14.35933 28,21 l 24,-10 -14,59 -18.16667,35 z"
         style="fill:#f2c700;fill-opacity:1;stroke:none"
         id="path3799" /><path
         d="m 788,551 -15,-4 -27,35 -37,11 -69,-39 -69,39 -37,-11 -27,-35 -15,4 -16,-28 31,88 c 21.90144,45.58806 89.3614,68 133,68 43.6386,0 111.09856,-22.41194 133,-68 l 31,-88 z"
         style="color:#000000;display:inline;overflow:visible;visibility:visible;fill:#000000;fill-opacity:1;stroke:none;stroke-width:5;marker:none;enable-background:accumulate"
         id="path3801" /></g></g><style
     type="text/css"
     id="style1">
	.st0{fill:url(#ICON_00000088831890668800157600000002638584723837204667_);}
</style><style
     id="style1-7">.st10{fill:#333}</style><style
     type="text/css"
     id="style1-1">
	.st0{fill:url(#ICON_00000088831890668800157600000002638584723837204667_);}
</style><style
     id="style1-7-2">.st10{fill:#333}</style></svg>
