<?xml version="1.0" encoding="UTF-8" standalone="no"?>
<!-- Created with Inkscape (http://www.inkscape.org/) -->

<svg
   width="50mm"
   height="50mm"
   viewBox="0 0 50 50"
   version="1.1"
   id="svg1"
   xml:space="preserve"
   sodipodi:docname="Haskell_Box.svg"
   inkscape:version="1.4.3 (0d15f75, 2025-12-25)"
   inkscape:export-filename="Cairo_Box.png"
   inkscape:export-xdpi="96"
   inkscape:export-ydpi="96"
   xmlns:inkscape="http://www.inkscape.org/namespaces/inkscape"
   xmlns:sodipodi="http://sodipodi.sourceforge.net/DTD/sodipodi-0.dtd"
   xmlns:xlink="http://www.w3.org/1999/xlink"
   xmlns="http://www.w3.org/2000/svg"
   xmlns:svg="http://www.w3.org/2000/svg"><sodipodi:namedview
     id="namedview1"
     pagecolor="#ffffff"
     bordercolor="#000000"
     borderopacity="0.25"
     inkscape:showpageshadow="2"
     inkscape:pageopacity="0.0"
     inkscape:pagecheckerboard="0"
     inkscape:deskcolor="#d1d1d1"
     inkscape:document-units="mm"
     inkscape:zoom="0.38662239"
     inkscape:cx="-814.74847"
     inkscape:cy="-24.571779"
     inkscape:window-width="2560"
     inkscape:window-height="1369"
     inkscape:window-x="-8"
     inkscape:window-y="-8"
     inkscape:window-maximized="1"
     inkscape:current-layer="layer1"><inkscape:page
       x="0"
       y="0"
       width="50"
       height="50"
       id="page1"
       margin="0"
       bleed="0" /></sodipodi:namedview><defs
     id="defs1"><linearGradient
       xlink:href="#paint1_linear_2992_6245"
       id="linearGradient1"
       x1="25"
       y1="7.0902283e-06"
       x2="25"
       y2="50.000031"
       gradientUnits="userSpaceOnUse"
       gradientTransform="matrix(0.98039216,0,0,0.98039216,0.49019623,0.49019623)" /><filter
       inkscape:collect="always"
       style="color-interpolation-filters:sRGB"
       id="filter1"
       x="-0.06882552"
       y="-0.06882552"
       width="1.137651"
       height="1.137651"><feGaussianBlur
         inkscape:collect="always"
         stdDeviation="0.9600145"
         id="feGaussianBlur1" /></filter><linearGradient
       id="paint1_linear_2992_6245"
       x1="22.9406"
       y1="0.0189121"
       x2="22.9406"
       y2="40.0244"
       gradientUnits="userSpaceOnUse"><stop
         stop-color="#F29100"
         id="stop7" /><stop
         offset="1"
         stop-color="#EC670F"
         id="stop8" /></linearGradient></defs><g
     id="layer1"
     inkscape:label="Haskell"><rect
       style="font-variation-settings:normal;display:inline;fill:url(#linearGradient1);stroke:none;stroke-width:0.980392;stroke-linecap:butt;stroke-linejoin:miter;stroke-miterlimit:4;stroke-dasharray:none;stroke-dashoffset:0;stroke-opacity:1;stop-color:#000000"
       id="rect1-18"
       width="49.019608"
       height="49.019608"
       x="0.49019623"
       y="0.49019623"
       rx="7.0571675"
       ry="7.0571675"
       inkscape:label="Background" /><g
       style="fill:none"
       id="g1"
       transform="matrix(0.26458333,0,0,0.26458333,61.559308,11.407497)"
       inkscape:label="Logo"><path
         d="m -127.06265,78.605283 c -0.37436,-1.497037 0.37395,-3.368025 -0.37436,-4.864651 -0.37437,-1.497037 -1.49704,-1.497037 -1.87099,-2.619713 -1.49704,-2.993663 -3.36803,-6.361277 -3.36803,-10.103665 0,-2.993663 -1.12267,-5.987326 -1.49662,-8.980989 v -4.490701 c 0,-0.748313 0,-1.496626 -0.37437,-2.244939 0,-0.374362 0,-1.122675 -0.37436,-1.122675 l 0.37436,-1.122675 c 0,-0.374362 3.36803,-0.374362 4.4907,-0.374362 1.87099,0 3.36762,0 5.23861,0.374362 3.74238,0 6.73605,0 10.47802,-0.374362 7.85832,-1.122675 11.22634,-4.49029 13.09733,-5.612965 7.110004,-4.864651 10.478029,-13.47169 10.478029,-13.47169 1.122675,-2.619301 1.122675,-7.484364 3.741977,-9.355352 2.993663,-2.619301 7.858725,-2.24535 11.22634,-3.741976 1.870988,-0.7483136 3.368025,-1.4970376 5.613375,-1.1226756 1.496626,0.374362 4.116339,2.2453506 4.864652,-0.374362 -0.374362,-0.3739511 -0.748313,-0.7483131 -1.122675,-1.1226751 2.993663,-0.3739511 0,-6.7356397 -1.122676,-8.23226587 -1.870988,-1.87139913 -4.490289,-2.99407423 -7.484363,-3.74238733 -3.741977,-1.1226751 -7.109591,-2.2453502 -10.477616,-1.4966262 -5.987327,1.1226751 -5.613376,-2.2453502 -8.98099,-2.2453502 -4.116339,0 -11.600703,0.374362 -13.097743,4.4902895 -0.74831,1.8713991 -1.12226,1.8713991 -2.24494,3.36802531 -0.74872,1.12267509 0,2.24535019 -0.37436,3.74197639 -0.37436,1.4970371 -1.12267,6.7360511 -1.87099,8.6070391 -1.12267,2.993663 -2.61971,6.735639 -5.23901,6.735639 -3.74198,0.374362 -6.73564,0.748724 -9.7293,-0.373951 -1.8714,-0.748313 -4.86506,-1.870988 -6.36169,-2.24535 -7.11,-2.993663 -8.23268,-5.987326 -8.23268,-5.987326 -0.74831,-1.1226756 -2.6193,-3.3680258 -3.36802,-5.9873271 -0.74832,-2.9936633 -2.24535,-5.23901348 -2.6193,-6.7360506 -0.74832,-1.4966262 -1.87099,-4.1163384 -2.99367,-6.7356397 -1.49703,-3.3680256 -3.36802,-5.9873266 -4.86465,-7.1100016 -2.24535,-1.870988 -4.11634,-4.864652 -8.60704,-4.116338 -0.74831,0 -3.74197,0.374362 -5.98732,2.24535 -1.49704,1.122675 -1.87099,3.741976 -3.36803,5.987326 -0.74831,1.122675 -2.24535,4.8646518 -3.36761,7.8583151 -0.74873,2.2453502 -1.12268,3.74238733 -2.24535,4.49070042 -0.74873,0.74831308 -1.49704,1.49662618 -2.61972,1.12267508 -0.74831,-0.374362 -1.49662,-0.748724 -2.24494,-1.12267508 -1.12284,-0.74831309 -3.3681,-4.86465152 -4.86494,-7.48436372 -1.12263,-2.6193013 -3.74209,-6.3616888 -5.23893,-8.2326768 -2.24526,-2.993663 -3.3679,-3.741976 -6.7358,-3.741976 -6.7358,0 -7.48424,3.741976 -10.4779,9.3553515 -1.49684,2.6193013 -1.87107,6.3612777 -4.49054,9.35535193 -1.12263,1.49662617 -5.98737,8.60662787 -9.35527,9.72930297 V 61.017254 60.643303 c 0.37421,-0.748724 0.37421,-1.497037 0.74842,-1.871399 1.49684,-2.619301 4.49051,-5.238602 5.98738,-8.232677 0.7484,-1.496626 1.87103,-2.993663 2.61947,-4.864651 0.3742,-1.122675 0.74844,-3.367614 1.49683,-4.490289 0.74844,-1.497038 2.24527,-1.870989 3.74214,-2.245351 2.61947,-0.374362 4.4905,3.368026 7.4842,4.864652 1.12264,0.748313 7.11,2.619712 8.98107,2.993663 2.99367,0.748313 5.98737,1.122675 8.98103,1.870988 1.4968,0.374362 2.99383,0.374362 4.86482,0.748724 1.49663,0 7.11,0.373951 7.11,0.748313 -2.61971,1.496627 -4.4907,5.239014 -5.61337,8.232677 -1.12268,2.993663 -1.87099,6.361689 -2.99367,8.98099 -1.49662,2.993663 -4.49041,4.4907 -4.11617,8.232677 0,1.496626 0.3742,2.993663 0,4.490289 -0.37424,1.871399 -1.12263,2.994075 -1.49687,4.865063 -0.7484,2.244939 -1.49684,9.354941 -2.24527,11.22634 l 5.98733,-0.748724 c 0.74831,-1.496626 1.12267,-8.232677 1.49703,-8.98099 1.12268,-3.368025 2.6193,-5.987327 4.86465,-8.606628 2.24535,-2.619712 2.24535,-5.613375 3.36803,-8.607039 1.49663,-3.368025 3.36761,-5.612964 5.2386,-8.606628 3.36803,-5.239013 5.61338,-12.349015 12.34902,-13.846052 0.74872,0 4.86506,2.993663 6.73605,4.864652 2.24494,2.24535 4.49029,4.4907 5.98732,7.484363 2.61931,5.613376 5.23902,13.845642 5.98733,17.96198 0.37436,2.619712 0.74831,2.619712 2.6193,4.865062 0.74873,0.748314 2.24535,3.741977 2.99367,4.864652 0.37436,1.122675 1.49703,3.741976 1.87139,5.239013 0.37396,0.748314 5.48876,7.129658 6.23707,9.375007 h 5.0227 c -2.24535,-6.361688 -7.51779,-16.485008 -8.2661,-22.846697 z"
         fill="#ffffff"
         fill-opacity="0.87"
         id="path1"
         inkscape:label="Icon"
         style="fill:#ffffff;fill-opacity:1;stroke-width:4.10935"
         sodipodi:nodetypes="cccscscccsccccccccccccscccccccccccccccccccccscccccccccccccccscccccccccccccccccccc" /><path
         d="m -182.99797,122.50444 c -1.8562,0 -3.49395,-0.32757 -5.02258,-0.98272 -1.52863,-0.65514 -2.8388,-1.63774 -3.93075,-2.8388 -1.09182,-1.20106 -1.96531,-2.72969 -2.51122,-4.47666 -0.54592,-1.74697 -0.87349,-3.71241 -0.87349,-6.00529 0,-2.18378 0.32757,-4.14909 0.87349,-5.89607 0.54591,-1.74697 1.4194,-3.166372 2.51122,-4.367432 1.09195,-1.20106 2.40212,-2.07454 3.93075,-2.72969 1.52863,-0.65514 3.16638,-0.98272 5.02258,-0.98272 1.8562,0 3.49394,0.32758 5.02257,0.98272 1.52864,0.65515 2.83892,1.52863 3.93075,2.72969 1.09183,1.20106 1.96532,2.620462 2.51123,4.367432 0.54603,1.74698 0.87361,3.71229 0.87361,5.89607 0,2.18377 -0.32758,4.14908 -0.87361,6.00529 -0.54591,1.74697 -1.4194,3.2756 -2.51123,4.47666 -1.09183,1.20106 -2.40211,2.18366 -3.93075,2.8388 -1.52863,0.65515 -3.16637,0.98272 -5.02257,0.98272 z m 0,-5.24092 c 1.8562,0 3.2756,-0.76438 4.36743,-2.40212 1.09195,-1.63786 1.63786,-3.7124 1.63786,-6.5512 0,-2.72969 -0.54591,-4.80424 -1.63786,-6.33287 -1.09183,-1.52863 -2.51123,-2.292892 -4.36743,-2.292892 -1.8562,0 -3.2756,0.764262 -4.36743,2.292892 -1.09183,1.52863 -1.63786,3.60318 -1.63786,6.33287 0,2.72957 0.54603,4.91334 1.63786,6.5512 0.98271,1.63774 2.51123,2.40212 4.36743,2.40212 z m 14.4127,-8.62575 c 0,-2.29301 0.32745,-4.25832 1.09183,-6.00529 0.65514,-1.74698 1.63774,-3.275612 2.8388,-4.476672 1.20106,-1.20106 2.62046,-2.18377 4.14909,-2.83892 1.52863,-0.65502 3.2756,-0.98259 5.02258,-0.98259 1.63786,0 3.2756,0.32757 4.58589,1.09182 1.4194,0.65515 2.51135,1.52863 3.38483,2.51135 l -3.38483,3.821522 c -0.65515,-0.65515 -1.4194,-1.09195 -2.07455,-1.52863 -0.65514,-0.327572 -1.52863,-0.545922 -2.51134,-0.545922 -0.9826,0 -1.85609,0.21835 -2.62046,0.655152 -0.76426,0.43668 -1.52863,0.9826 -2.18366,1.74697 -0.65514,0.76426 -1.09195,1.63774 -1.41952,2.72957 -0.32757,1.09195 -0.54591,2.29301 -0.54591,3.71241 0,2.8388 0.54591,5.02257 1.74697,6.5512 1.20106,1.52864 2.83892,2.29289 4.80423,2.29289 1.09183,0 2.07455,-0.21834 2.94804,-0.65514 0.87348,-0.43669 1.52863,-0.9826 2.293,-1.74698 l 3.38472,3.71241 c -1.09183,1.31017 -2.40212,2.29289 -3.93075,2.94803 -1.4194,0.65515 -3.05714,0.98272 -4.69501,0.98272 -1.74697,0 -3.38471,-0.32757 -4.91334,-0.87361 -1.52863,-0.54591 -2.94803,-1.52851 -4.03998,-2.62046 -1.09183,-1.09182 -2.07454,-2.62046 -2.72957,-4.36743 -0.87361,-1.8562 -1.20106,-3.82152 -1.20106,-6.1144 z m 23.47514,7.64303 c 0,-2.18377 0.87349,-3.82151 2.72957,-5.02257 1.8562,-1.20106 4.80423,-2.07455 8.84445,-2.40212 -0.10911,-0.87349 -0.32733,-1.63786 -0.87408,-2.18378 -0.54556,-0.54591 -1.30993,-0.76425 -2.40176,-0.76425 -0.87349,0 -1.74709,0.21834 -2.62058,0.54591 -0.87349,0.32757 -1.85608,0.76426 -2.8388,1.4194 l -2.18378,-4.03986 c 1.31029,-0.76437 2.72969,-1.4194 4.14909,-1.96543 1.4194,-0.54591 3.05727,-0.76426 4.5859,-0.76426 2.62046,0 4.69476,0.76426 6.1144,2.29289 1.41964,1.52863 2.07431,3.82152 2.07431,7.09712 v 11.79225 h -4.80448 l -0.43644,-2.07455 h -0.10911 c -0.87289,0.76426 -1.85609,1.4194 -2.83868,1.85608 -0.98272,0.43681 -2.07455,0.76438 -3.27561,0.76438 -0.98271,0 -1.74697,-0.10923 -2.51134,-0.4368 -0.76426,-0.32758 -1.4194,-0.76426 -1.96532,-1.31017 -0.54591,-0.54592 -0.98272,-1.20106 -1.20106,-1.96544 -0.32757,-1.09182 -0.43668,-1.96531 -0.43668,-2.8388 z m 5.78683,-0.4368 c 0,0.65514 0.21834,1.20106 0.65515,1.52863 0.43668,0.32757 0.98271,0.4368 1.74697,0.4368 0.76425,0 1.31077,-0.10923 1.85632,-0.4368 0.54556,-0.32757 0.982,-0.76425 1.52875,-1.31017 v -3.60317 c -2.18401,0.32757 -3.71264,0.76425 -4.58613,1.31017 -0.76438,0.54591 -1.20106,1.31028 -1.20106,2.07454 z m 15.50405,-14.41258 h 5.0227 l 0.43764,2.62046 h 0.21822 c 0.87289,-0.87349 1.74698,-1.63775 2.72897,-2.18378 0.9832,-0.65503 2.18462,-0.9826 3.49395,-0.9826 1.41964,0 2.62106,0.32757 3.60306,0.87349 0.87408,0.54591 1.63786,1.4194 2.18461,2.51123 0.87289,-0.9826 1.85609,-1.74698 2.83808,-2.40212 0.9832,-0.65503 2.18462,-0.9826 3.603063,-0.9826 2.184615,0 3.822477,0.76426 4.913585,2.18366 1.092308,1.52863 1.528751,3.49406 1.528751,6.11452 v 12.77484 h -6.113804 v -12.01058 c 0,-1.52863 -0.219421,-2.51123 -0.655865,-3.05726 -0.43645,-0.54592 -1.09111,-0.87349 -1.9652,-0.87349 -0.98319,0 -2.18341,0.65514 -3.49394,1.96543 v 13.9759 h -6.11501 v -12.01058 c 0,-1.52863 -0.21822,-2.51123 -0.65466,-3.05726 -0.43645,-0.54592 -1.09231,-0.87349 -1.9652,-0.87349 -1.09231,0 -2.18341,0.65514 -3.49394,1.96543 v 13.9759 h -6.11501 z m 34.066573,-8.516522 h 6.114999 v 23.038332 c 0,0.65515 0.109111,1.09183 0.327332,1.31029 0.218222,0.21834 0.436444,0.32745 0.763776,0.32745 h 0.327333 c 0.11031,0 0.21942,0 0.437642,-0.10911 l 0.763776,4.58577 c -0.327332,0.10924 -0.763776,0.21847 -1.310529,0.32758 -0.545554,0.10923 -1.091109,0.10923 -1.856083,0.10923 -1.091109,0 -1.965195,-0.21834 -2.61986,-0.54592 -0.76497,-0.32757 -1.310524,-0.76437 -1.746967,-1.4194 -0.436444,-0.54603 -0.764975,-1.31029 -0.983197,-2.18377 -0.218222,-0.76438 -0.218222,-1.63786 -0.218222,-2.72969 z"
         fill="#ffffff"
         fill-opacity="0.87"
         id="path5"
         inkscape:label="Text"
         style="fill:#ffffff;fill-opacity:1;stroke-width:1.19902" /></g><rect
       style="font-variation-settings:normal;display:inline;fill:none;stroke:#000000;stroke-width:1.99928;stroke-linecap:butt;stroke-linejoin:miter;stroke-miterlimit:4;stroke-dasharray:none;stroke-dashoffset:0;stroke-opacity:1;filter:url(#filter1);stop-color:#000000"
       id="rect1"
       width="48.000725"
       height="48.000725"
       x="0.99963778"
       y="0.99963778"
       rx="6.9104829"
       ry="6.9104829"
       inkscape:label="Shadow" /><rect
       style="font-variation-settings:normal;display:inline;fill:none;stroke:#ec670f;stroke-width:1.99928;stroke-linecap:butt;stroke-linejoin:miter;stroke-miterlimit:4;stroke-dasharray:none;stroke-dashoffset:0;stroke-opacity:1;stop-color:#000000"
       id="rect1-18-1"
       width="48.000725"
       height="48.000725"
       x="0.99963778"
       y="0.99963778"
       rx="6.9104829"
       ry="6.9104829"
       inkscape:label="Frame" /></g><style
     type="text/css"
     id="style1">
	.st0{fill:url(#ICON_00000088831890668800157600000002638584723837204667_);}
</style><style
     id="style1-7">.st10{fill:#333}</style><style
     type="text/css"
     id="style1-1">
	.st0{fill:url(#ICON_00000088831890668800157600000002638584723837204667_);}
</style><style
     id="style1-7-2">.st10{fill:#333}</style><style
     type="text/css"
     id="style1-8">
	.st0{fill:url(#ICON_00000088831890668800157600000002638584723837204667_);}
</style><style
     id="style1-7-7">.st10{fill:#333}</style><style
     type="text/css"
     id="style1-1-4">
	.st0{fill:url(#ICON_00000088831890668800157600000002638584723837204667_);}
</style><style
     id="style1-7-2-2">.st10{fill:#333}</style></svg>
