<?xml version="1.0" encoding="UTF-8" standalone="no"?>
<!-- Created with Inkscape (http://www.inkscape.org/) -->

<svg
   width="50mm"
   height="50mm"
   viewBox="0 0 50 50"
   version="1.1"
   id="svg1"
   xml:space="preserve"
   sodipodi:docname="Odin_Box.svg"
   inkscape:version="1.4.2 (f4327f4, 2025-05-13)"
   xmlns:inkscape="http://www.inkscape.org/namespaces/inkscape"
   xmlns:sodipodi="http://sodipodi.sourceforge.net/DTD/sodipodi-0.dtd"
   xmlns:xlink="http://www.w3.org/1999/xlink"
   xmlns="http://www.w3.org/2000/svg"
   xmlns:svg="http://www.w3.org/2000/svg"><sodipodi:namedview
     id="namedview1"
     pagecolor="#ffffff"
     bordercolor="#000000"
     borderopacity="0.25"
     inkscape:showpageshadow="2"
     inkscape:pageopacity="0.0"
     inkscape:pagecheckerboard="0"
     inkscape:deskcolor="#d1d1d1"
     inkscape:document-units="mm"
     inkscape:zoom="1.5438438"
     inkscape:cx="44.693642"
     inkscape:cy="13.92628"
     inkscape:window-width="2560"
     inkscape:window-height="1369"
     inkscape:window-x="-8"
     inkscape:window-y="-8"
     inkscape:window-maximized="1"
     inkscape:current-layer="svg1" /><defs
     id="defs1"><linearGradient
       id="linearGradient2"
       inkscape:collect="always"><stop
         style="stop-color:#179afc;stop-opacity:1;"
         offset="0"
         id="stop2" /><stop
         style="stop-color:#808080;stop-opacity:0;"
         offset="0.30000001"
         id="stop4" /><stop
         style="stop-color:#7f7f7f;stop-opacity:0;"
         offset="0.69999999"
         id="stop17" /><stop
         style="stop-color:#005493;stop-opacity:1;"
         offset="1"
         id="stop3" /></linearGradient><linearGradient
       xlink:href="#linearGradient2"
       id="linearGradient9"
       x1="25.000004"
       y1="2.3639462"
       x2="25.000004"
       y2="47.63604"
       gradientUnits="userSpaceOnUse" /><radialGradient
       xlink:href="#_Radial1"
       id="radialGradient16"
       cx="25"
       cy="25"
       fx="25"
       fy="25"
       r="25"
       gradientUnits="userSpaceOnUse"
       gradientTransform="translate(-2.4265137e-6)" /><radialGradient
       id="_Radial1"
       cx="0"
       cy="0"
       r="1"
       gradientUnits="userSpaceOnUse"
       gradientTransform="matrix(49.999986,0,0,49.999751,2.5e-6,2.15e-5)"><stop
         offset="0"
         style="stop-color:rgb(24,156,255);stop-opacity:1"
         id="stop2-9" /><stop
         offset="0.58"
         style="stop-color:rgb(19,142,235);stop-opacity:1"
         id="stop3-4" /><stop
         offset="0.8"
         style="stop-color:rgb(9,113,191);stop-opacity:1"
         id="stop4-8" /><stop
         offset="1"
         style="stop-color:rgb(0,84,147);stop-opacity:1"
         id="stop5" /></radialGradient><radialGradient
       inkscape:collect="always"
       xlink:href="#_Radial1"
       id="radialGradient4"
       cx="0.026397478"
       cy="-0.0038984425"
       fx="0.026397478"
       fy="-0.0038984425"
       r="25"
       gradientUnits="userSpaceOnUse"
       gradientTransform="matrix(1.9871465,0,0,1.9871465,-0.02605818,0.00384833)" /></defs><g
     id="layer1"><rect
       style="font-variation-settings:normal;vector-effect:none;fill:url(#radialGradient4);stroke:none;stroke-width:0.260698;stroke-linecap:butt;stroke-linejoin:miter;stroke-miterlimit:4;stroke-dasharray:none;stroke-dashoffset:0;stroke-opacity:1;-inkscape-stroke:none;stop-color:#000000"
       id="rect1-18"
       width="50"
       height="50"
       x="0"
       y="-4.4408921e-16"
       rx="7.1983109"
       ry="7.1983109" /><path
       d="M 15.26555,39.077476 C 14.609347,38.62698 14.090709,38.190713 14.090709,38.190713 L 30.966303,8.9612292 c 0,0 0.69464,0.2576551 1.268423,0.5327313 0.723264,0.3466774 1.322337,0.6846275 1.322337,0.6846275 8.180004,4.722811 10.987154,15.198385 6.264366,23.378389 C 35.098521,41.737373 24.623,44.54414 16.44288,39.821328 c 0,0 -0.572949,-0.329358 -1.17733,-0.743852 z M 32.130888,12.648821 17.86906,37.351061 c 6.816765,3.935806 15.546363,1.596569 19.482029,-5.220036 3.935472,-6.816998 1.596642,-15.546475 -5.220201,-19.482204 z M 10.956175,34.786172 c -0.573507,-0.83055 -0.777656,-1.228802 -0.777656,-1.228802 -2.9482808,-5.121059 -3.1645054,-11.633232 0,-17.114542 3.164621,-5.48131 8.912251,-8.5500306 14.821436,-8.5573125 0,0 0.797804,-0.00206 1.462084,0.061564 1.00077,0.095863 1.666118,0.2250055 1.666118,0.2250055 l -16.138392,27.95254 c 0,0 -0.382869,-0.396258 -1.033711,-1.338457 z M 23.292901,10.842436 c -4.300705,0.522675 -8.313134,2.989343 -10.644047,7.026732 -2.330907,4.037151 -2.460836,8.745316 -0.763165,12.731397 z"
       style="clip-rule:evenodd;fill:#ffffff;fill-rule:evenodd;stroke-width:0.0395876;stroke-linejoin:round;stroke-miterlimit:2"
       id="path2" /></g></svg>
