<?xml version="1.0" encoding="UTF-8" standalone="no"?>
<!-- Created with Inkscape (http://www.inkscape.org/) -->

<svg
   width="50mm"
   height="50mm"
   viewBox="0 0 50 50"
   version="1.1"
   id="svg1"
   xml:space="preserve"
   sodipodi:docname="WinUI_Box.svg"
   inkscape:version="1.4.3 (0d15f75, 2025-12-25)"
   inkscape:export-filename="WinUI_Box.svg"
   inkscape:export-xdpi="96"
   inkscape:export-ydpi="96"
   inkscape:export-batch-name="WinUI_Box"
   inkscape:export-batch-path="C:\Users\justc\Downloads"
   xmlns:inkscape="http://www.inkscape.org/namespaces/inkscape"
   xmlns:sodipodi="http://sodipodi.sourceforge.net/DTD/sodipodi-0.dtd"
   xmlns:xlink="http://www.w3.org/1999/xlink"
   xmlns="http://www.w3.org/2000/svg"
   xmlns:svg="http://www.w3.org/2000/svg"><sodipodi:namedview
     id="namedview1"
     pagecolor="#ffffff"
     bordercolor="#000000"
     borderopacity="0.25"
     inkscape:showpageshadow="2"
     inkscape:pageopacity="0.0"
     inkscape:pagecheckerboard="0"
     inkscape:deskcolor="#d1d1d1"
     inkscape:document-units="mm"
     inkscape:zoom="5.12"
     inkscape:cx="65.625"
     inkscape:cy="94.824219"
     inkscape:window-width="2560"
     inkscape:window-height="1369"
     inkscape:window-x="-8"
     inkscape:window-y="-8"
     inkscape:window-maximized="1"
     inkscape:current-layer="g10"><inkscape:page
       x="0"
       y="0"
       width="50"
       height="50"
       id="page2"
       margin="0"
       bleed="0" /></sodipodi:namedview><defs
     id="defs1"><linearGradient
       id="linearGradient112"><stop
         style="stop-color:#dda105;stop-opacity:0.50278294;"
         offset="0"
         id="stop111" /><stop
         style="stop-color:#dda105;stop-opacity:0;"
         offset="1"
         id="stop112" /></linearGradient><linearGradient
       id="linearGradient110"><stop
         style="stop-color:#109d58;stop-opacity:0;"
         offset="0.49854651"
         id="stop109" /><stop
         style="stop-color:#109d58;stop-opacity:1;"
         offset="1"
         id="stop110" /></linearGradient><linearGradient
       id="linearGradient37"><stop
         style="stop-color:#4385f3;stop-opacity:0;"
         offset="0.50290698"
         id="stop36" /><stop
         style="stop-color:#4385f3;stop-opacity:1;"
         offset="1"
         id="stop37" /></linearGradient><linearGradient
       id="linearGradient35"><stop
         style="stop-color:#e94436;stop-opacity:1;"
         offset="0"
         id="stop34" /><stop
         style="stop-color:#e94436;stop-opacity:0;"
         offset="0.49854651"
         id="stop35" /></linearGradient><linearGradient
       id="linearGradient33"><stop
         style="stop-color:#fabc05;stop-opacity:1;"
         offset="0"
         id="stop32" /><stop
         style="stop-color:#fabc05;stop-opacity:0;"
         offset="0.49641919"
         id="stop33" /></linearGradient><linearGradient
       id="linearGradient24"><stop
         style="stop-color:#bd382b;stop-opacity:0;"
         offset="0"
         id="stop28" /><stop
         style="stop-color:#bd382b;stop-opacity:0.50278294;"
         offset="1"
         id="stop29" /></linearGradient><linearGradient
       id="linearGradient24-3"><stop
         style="stop-color:#0c8045;stop-opacity:0;"
         offset="0"
         id="stop26" /><stop
         style="stop-color:#0c8045;stop-opacity:0.49536178;"
         offset="1"
         id="stop27" /></linearGradient><linearGradient
       id="linearGradient24-1"><stop
         style="stop-color:#286dd0;stop-opacity:0;"
         offset="0"
         id="stop24" /><stop
         style="stop-color:#286dd0;stop-opacity:0.49907234;"
         offset="1"
         id="stop25" /></linearGradient><linearGradient
       id="swatch9"
       inkscape:swatch="solid"><stop
         style="stop-color:#522d61;stop-opacity:1;"
         offset="0"
         id="stop11" /></linearGradient><linearGradient
       inkscape:collect="always"
       xlink:href="#linearGradient37"
       id="linearGradient7"
       x1="48.519539"
       y1="1.4804639"
       x2="1.4804705"
       y2="48.519531"
       gradientUnits="userSpaceOnUse" /><linearGradient
       inkscape:collect="always"
       xlink:href="#linearGradient110"
       id="linearGradient10"
       x1="1.4804723"
       y1="48.519512"
       x2="48.519516"
       y2="1.4804688"
       gradientUnits="userSpaceOnUse" /><linearGradient
       inkscape:collect="always"
       xlink:href="#linearGradient35"
       id="linearGradient14"
       x1="1.4804826"
       y1="1.4804749"
       x2="48.519531"
       y2="48.519524"
       gradientUnits="userSpaceOnUse" /><linearGradient
       inkscape:collect="always"
       xlink:href="#linearGradient24"
       id="linearGradient25"
       x1="1.0833144e-05"
       y1="1.0833144e-05"
       x2="50"
       y2="50"
       gradientUnits="userSpaceOnUse"
       gradientTransform="translate(-50,-50)" /><linearGradient
       inkscape:collect="always"
       xlink:href="#linearGradient24-1"
       id="linearGradient27"
       gradientUnits="userSpaceOnUse"
       x1="-4.3362379e-06"
       y1="50.000011"
       x2="50"
       y2="6.6712446e-06"
       gradientTransform="translate(-50,-50)" /><linearGradient
       inkscape:collect="always"
       xlink:href="#linearGradient24-3"
       id="linearGradient28"
       gradientUnits="userSpaceOnUse"
       x1="1.0043383e-05"
       y1="1.385808e-05"
       x2="49.999996"
       y2="50"
       gradientTransform="translate(0,-50)" /><filter
       inkscape:collect="always"
       style="color-interpolation-filters:sRGB"
       id="filter13"
       x="-0.075000001"
       y="-0.075000001"
       width="1.15"
       height="1.15"><feGaussianBlur
         inkscape:collect="always"
         stdDeviation="1.4699684"
         id="feGaussianBlur13" /></filter><linearGradient
       inkscape:collect="always"
       xlink:href="#linearGradient33"
       id="linearGradient17"
       gradientUnits="userSpaceOnUse"
       x1="48.519531"
       y1="48.519531"
       x2="1.4804688"
       y2="1.4804688" /><linearGradient
       inkscape:collect="always"
       xlink:href="#linearGradient112"
       id="linearGradient111"
       gradientUnits="userSpaceOnUse"
       gradientTransform="translate(0,-50)"
       x1="49.999992"
       y1="1.3589859e-05"
       x2="5.6222475e-06"
       y2="50" /><filter
       inkscape:collect="always"
       style="color-interpolation-filters:sRGB"
       id="filter115"
       x="-0.056028294"
       y="-0.11339745"
       width="1.1120566"
       height="1.2267949"><feGaussianBlur
         inkscape:collect="always"
         stdDeviation="6.0588234"
         id="feGaussianBlur115" /></filter></defs><g
     id="g1"
     inkscape:label="Protobuf"><g
       id="g2"
       inkscape:label="Rect"
       style="display:inline"><rect
         style="display:inline;font-variation-settings:normal;opacity:1;vector-effect:none;fill:#000000;stroke:none;stroke-width:0.260698;stroke-linecap:butt;stroke-linejoin:miter;stroke-miterlimit:4;stroke-dasharray:none;stroke-dashoffset:0;stroke-opacity:1;-inkscape-stroke:none;stop-color:#000000;stop-opacity:1;fill-opacity:1"
         id="rect112"
         width="50"
         height="50"
         x="0"
         y="-50"
         rx="7.1983109"
         ry="7.1983109"
         transform="scale(1,-1)"
         inkscape:label="Background" /><rect
         style="display:inline;font-variation-settings:normal;opacity:1;vector-effect:none;fill:url(#linearGradient111);stroke:none;stroke-width:0.260698;stroke-linecap:butt;stroke-linejoin:miter;stroke-miterlimit:4;stroke-dasharray:none;stroke-dashoffset:0;stroke-opacity:1;-inkscape-stroke:none;stop-color:#000000;stop-opacity:1"
         id="rect110"
         width="50"
         height="50"
         x="0"
         y="-50"
         rx="7.1983109"
         ry="7.1983109"
         transform="scale(1,-1)"
         inkscape:label="rect4" /><rect
         style="font-variation-settings:normal;display:inline;opacity:1;vector-effect:none;fill:url(#linearGradient28);stroke:none;stroke-width:0.260698;stroke-linecap:butt;stroke-linejoin:miter;stroke-miterlimit:4;stroke-dasharray:none;stroke-dashoffset:0;stroke-opacity:1;-inkscape-stroke:none;stop-color:#000000;stop-opacity:1"
         id="rect25"
         width="50"
         height="50"
         x="0"
         y="-50"
         rx="7.1983109"
         ry="7.1983109"
         transform="scale(1,-1)"
         inkscape:label="rect3" /><rect
         style="display:inline;font-variation-settings:normal;opacity:1;vector-effect:none;fill:url(#linearGradient25);fill-opacity:1;stroke:none;stroke-width:0.260698;stroke-linecap:butt;stroke-linejoin:miter;stroke-miterlimit:4;stroke-dasharray:none;stroke-dashoffset:0;stroke-opacity:1;-inkscape-stroke:none;stop-color:#000000;stop-opacity:1"
         id="rect1"
         width="50"
         height="50"
         x="-50"
         y="-50"
         rx="7.1983109"
         ry="7.1983109"
         transform="scale(-1)"
         inkscape:label="rect2" /><rect
         style="font-variation-settings:normal;display:inline;opacity:1;vector-effect:none;fill:url(#linearGradient27);stroke:none;stroke-width:0.260698;stroke-linecap:butt;stroke-linejoin:miter;stroke-miterlimit:4;stroke-dasharray:none;stroke-dashoffset:0;stroke-opacity:1;-inkscape-stroke:none;stop-color:#000000;stop-opacity:1"
         id="rect26"
         width="50"
         height="50"
         x="-50"
         y="-50"
         rx="7.1983109"
         ry="7.1983109"
         transform="scale(-1)"
         inkscape:label="rect1" /></g><g
       id="g5"
       inkscape:label="Icon"
       style="fill:none"
       transform="matrix(0.14985938,0,0,0.14985938,5.8180168,15.694327)"><path
         id="path112"
         style="display:inline;fill:#000000;fill-opacity:0.7495935;filter:url(#filter115)"
         inkscape:label="Shadow"
         d="m 163.43555,-2.2792969 c -6.29169,0.065303 -12.46548,2.97813192 -16.5267,7.7826684 -4.32617,4.9012475 -6.33685,11.7590565 -5.22526,18.2134255 1.05755,6.636796 5.31749,12.564845 11.06004,15.985969 12.63162,7.486254 25.33085,14.855884 38.01223,22.258172 -12.28932,7.012241 -24.38791,14.312999 -36.72554,21.223094 -4.80921,2.755526 -9.01337,6.843596 -11.14218,12.031617 -0.81413,1.810788 -1.26524,3.754563 -1.412,5.731501 -0.58084,5.32552 0.59019,10.93718 3.81984,15.27882 2.89791,3.90397 6.99429,6.91598 11.56136,8.57246 4.85584,1.77639 10.35981,1.45379 15.05477,-0.66562 2.99187,-1.39325 5.77028,-3.19736 8.66439,-4.77748 21.27613,-12.11199 42.44305,-24.417578 63.61615,-36.711061 4.9238,-2.138603 9.23802,-5.929541 11.43352,-10.88805 2.13235,-4.784148 2.68328,-10.266763 1.59649,-15.387078 -1.11234,-5.260809 -4.52216,-9.883072 -9.01827,-12.776113 -4.96175,-3.023553 -9.99988,-5.919413 -15.00042,-8.877474 C 213.41916,23.111571 193.57139,11.609798 173.6875,0.171875 c -3.13675,-1.6731608 -6.7001,-2.507699 -10.25195,-2.4511719 z m -71.232425,0.5175781 c -4.215599,0.041747 -8.276997,1.5655272 -11.83326,3.756162 C 57.339459,15.106108 34.407107,28.390781 11.501815,41.719409 6.6124777,43.938663 2.3598301,47.800543 0.23896741,52.792354 c -1.68913531,3.884553 -2.34338321,8.20503 -1.84131731,12.41395 0.4998051,5.27209 3.2068888,10.257872 7.3121367,13.594622 1.8015691,1.644701 3.906316,2.914767 6.1006542,3.959069 23.279267,13.591233 46.617624,27.080075 70.038146,40.425995 6.113064,3.37533 13.835419,3.58178 20.116713,0.52706 5.67785,-2.65164 9.98354,-7.88276 11.73614,-13.87378 1.90091,-6.19412 0.86349,-13.203162 -2.79786,-18.555773 -2.21379,-3.343277 -5.39018,-5.941991 -8.89615,-7.838891 C 94.782724,79.219957 87.50192,75.091874 80.302095,70.823523 75.366136,67.933597 70.434649,65.036576 65.501953,62.140625 74.271194,57.196629 82.942945,52.081917 91.63351,47.002254 c 3.892438,-2.331842 7.828264,-4.600155 11.62976,-7.07815 2.9316,-2.08666 5.58898,-4.571832 7.88894,-7.33631 1.37958,-1.918495 2.01504,-4.238614 2.97013,-6.368001 1.06819,-5.497948 0.63124,-11.475118 -2.22842,-16.3896845 C 109.1946,5.1484333 104.73861,1.5849863 99.748047,-0.40625 97.345069,-1.3223825 94.777304,-1.8059916 92.203125,-1.7617188 Z" /><path
         d="m 184.31481,67.704459 c 13.469,-7.736 26.902,-15.535 40.417,-23.191 12.828,-7.268 27.921,-0.565 30.829,13.579 1.683,8.182 -1.97,17.021 -9.357,21.326 -24.218,14.113 -48.471,28.170001 -72.845,42.012001 -7.544,4.284 -15.315,3.496 -22.19,-1.754 -6.984,-5.33 -9.185,-12.682 -7.547,-21.239001 1.87,-6.514 6.15,-10.869 11.987,-14.127 9.651,-5.386 19.145,-11.056 28.706,-16.606"
         fill="#fabc05"
         id="path1-0" /><path
         d="m 194.20341,61.927271 c -13.435,-7.85359 -26.904,-15.645729 -40.292,-23.578902 -12.709,-7.531227 -14.449,-24.074538 -3.655,-33.7373953 6.244,-5.58797632 15.725,-6.8542619 23.147,-2.5779036 24.332,14.0198069 48.632,28.0990489 72.806,42.3908499 7.482,4.423437 10.684,11.60107 9.577,20.243444 -1.125,8.776357 -6.391,14.399592 -14.62,17.281726 -6.577,1.6501 -12.488,0.108798 -18.228,-3.34251 -9.491,-5.706848 -19.148,-11.13465 -28.735,-16.679309"
         fill="#109d58"
         id="path2-9"
         style="stroke-width:1.00369" /><path
         d="m 71.75181,56.562859 c -8.621,4.898 -17.247,9.787 -25.859,14.7 -5.038,2.874 -10.02,5.846 -15.084,8.672 -10.203,5.695 -22.3249998,2.357 -28.1099998,-7.674 -5.521,-9.572 -2.34800003,-21.982 7.4779998,-27.718 24.025,-14.023 48.112,-27.944 72.286,-41.7090003 7.414,-4.222 15.106,-3.69099999 21.962,1.356 7.236,5.327 9.605,12.8230003 7.98,21.6110003 -1.008,2.126 -1.61,4.619 -3.119,6.294 -2.455,2.725 -5.245,5.334 -8.351,7.25 -9.612,5.927 -19.439,11.505 -29.183,17.218"
         fill="#e94436"
         id="path3-4" /><path
         d="m 61.86701,62.056959 c 8.553,5.016 17.1,10.043 25.661,15.045 5.007,2.926 10.072,5.755 15.051,8.726 10.034,5.99 13.205,18.156001 7.41,28.181001 -5.53,9.568 -17.863,13.026 -27.744,7.383 -24.157,-13.795 -48.256,-27.693001 -72.2639998,-41.746001 -7.363,-4.31 -10.74900003,-11.237 -9.80600003,-19.698 0.99500003,-8.931 6.30200003,-14.73 14.72499983,-17.717 2.345,-0.189 4.805,-0.915 7.011,-0.445 3.587,0.764 7.242,1.875 10.454,3.607 9.939,5.36 19.683,11.082 29.502,16.664"
         fill="#4385f3"
         id="path4" /></g><g
       id="layer1"
       inkscape:label="Border"
       style="display:inline"><path
         id="path3"
         style="baseline-shift:baseline;display:inline;overflow:visible;opacity:1;vector-effect:none;fill:#000000;fill-opacity:1;filter:url(#filter13);enable-background:accumulate;stop-color:#000000;stop-opacity:1"
         inkscape:label="pathShadow"
         d="m 8.9648275,1.4805298 c -4.1287536,0 -7.4842977,3.3555441 -7.4842977,7.4842977 V 41.035221 c 0,4.128754 3.3555441,7.484298 7.4842977,7.484298 H 41.035221 c 4.128754,0 7.484298,-3.355544 7.484298,-7.484298 V 8.9648275 c 0,-4.1287536 -3.355544,-7.4842977 -7.484298,-7.4842977 z m 0,1.9998779 H 41.035221 c 3.055348,0 5.48442,2.4290717 5.48442,5.4844198 V 41.035221 c 0,3.055348 -2.429072,5.48442 -5.48442,5.48442 H 8.9648275 c -3.0553481,0 -5.4844198,-2.429072 -5.4844198,-5.48442 V 8.9648275 c 0,-0.1909593 0.00937,-0.3791974 0.027905,-0.5648234 C 3.7863629,5.6156139 6.1004386,3.4804076 8.9648275,3.4804077 Z" /><path
         style="baseline-shift:baseline;display:inline;overflow:visible;opacity:1;vector-effect:none;fill:url(#linearGradient17);enable-background:accumulate;stop-color:#000000;stop-opacity:1"
         d="m 8.9648438,1.4804687 c -4.1287536,0 -7.4843751,3.3556215 -7.4843751,7.4843751 V 41.035156 c 0,4.128754 3.3556215,7.484375 7.4843751,7.484375 H 41.035156 c 4.128754,0 7.484375,-3.355621 7.484375,-7.484375 V 8.9648438 c 0,-4.1287536 -3.355621,-7.4843751 -7.484375,-7.4843751 z m 0,2.0000001 H 41.035156 c 3.055348,0 5.484375,2.4290269 5.484375,5.484375 V 41.035156 c 0,3.055348 -2.429027,5.484375 -5.484375,5.484375 H 8.9648438 c -3.0553481,0 -5.484375,-2.429027 -5.484375,-5.484375 V 8.9648438 c 0,-3.0553481 2.4290269,-5.4843751 5.484375,-5.484375 z"
         id="path11"
         inkscape:label="path4" /><path
         style="baseline-shift:baseline;display:inline;overflow:visible;opacity:1;vector-effect:none;fill:url(#linearGradient7);fill-opacity:1;enable-background:accumulate;stop-color:#000000;stop-opacity:1"
         d="m 8.9648438,1.4804687 c -4.1287536,0 -7.4843751,3.3556215 -7.4843751,7.4843751 V 41.035156 c 0,4.128754 3.3556215,7.484375 7.4843751,7.484375 H 41.035156 c 4.128754,0 7.484375,-3.355621 7.484375,-7.484375 V 8.9648438 c 0,-4.1287536 -3.355621,-7.4843751 -7.484375,-7.4843751 z m 0,2.0000001 H 41.035156 c 3.055348,0 5.484375,2.4290269 5.484375,5.484375 V 41.035156 c 0,3.055348 -2.429027,5.484375 -5.484375,5.484375 H 8.9648438 c -3.0553481,0 -5.484375,-2.429027 -5.484375,-5.484375 V 8.9648438 c 0,-3.0553481 2.4290269,-5.4843751 5.484375,-5.484375 z"
         id="path12"
         inkscape:label="path3" /><path
         style="baseline-shift:baseline;display:inline;overflow:visible;opacity:1;vector-effect:none;fill:url(#linearGradient14);enable-background:accumulate;stop-color:#000000;stop-opacity:1"
         d="m 8.9648438,1.4804687 c -4.1287536,0 -7.4843751,3.3556215 -7.4843751,7.4843751 V 41.035156 c 0,4.128754 3.3556215,7.484375 7.4843751,7.484375 H 41.035156 c 4.128754,0 7.484375,-3.355621 7.484375,-7.484375 V 8.9648438 c 0,-4.1287536 -3.355621,-7.4843751 -7.484375,-7.4843751 z m 0,2.0000001 H 41.035156 c 3.055348,0 5.484375,2.4290269 5.484375,5.484375 V 41.035156 c 0,3.055348 -2.429027,5.484375 -5.484375,5.484375 H 8.9648438 c -3.0553481,0 -5.484375,-2.429027 -5.484375,-5.484375 V 8.9648438 c 0,-3.0553481 2.4290269,-5.4843751 5.484375,-5.484375 z"
         id="path13"
         inkscape:label="path2" /><path
         style="baseline-shift:baseline;display:inline;overflow:visible;opacity:1;vector-effect:none;fill:url(#linearGradient10);enable-background:accumulate;stop-color:#000000;stop-opacity:1"
         d="m 8.9648438,1.4804687 c -4.1287536,0 -7.4843751,3.3556215 -7.4843751,7.4843751 V 41.035156 c 0,4.128754 3.3556215,7.484375 7.4843751,7.484375 H 41.035156 c 4.128754,0 7.484375,-3.355621 7.484375,-7.484375 V 8.9648438 c 0,-4.1287536 -3.355621,-7.4843751 -7.484375,-7.4843751 z m 0,2.0000001 H 41.035156 c 3.055348,0 5.484375,2.4290269 5.484375,5.484375 V 41.035156 c 0,3.055348 -2.429027,5.484375 -5.484375,5.484375 H 8.9648438 c -3.0553481,0 -5.484375,-2.429027 -5.484375,-5.484375 V 8.9648438 c 0,-3.0553481 2.4290269,-5.4843751 5.484375,-5.484375 z"
         id="path16"
         inkscape:label="path1" /></g></g></svg>
