<?xml version="1.0" encoding="UTF-8" standalone="no"?>
<!-- Created with Inkscape (http://www.inkscape.org/) -->

<svg
   width="10.687218mm"
   height="10.789982mm"
   viewBox="0 0 10.687218 10.789982"
   version="1.1"
   id="svg5"
   xml:space="preserve"
   sodipodi:docname="QT.svg"
   inkscape:version="1.2.2 (b0a8486541, 2022-12-01)"
   xmlns:inkscape="http://www.inkscape.org/namespaces/inkscape"
   xmlns:sodipodi="http://sodipodi.sourceforge.net/DTD/sodipodi-0.dtd"
   xmlns="http://www.w3.org/2000/svg"
   xmlns:svg="http://www.w3.org/2000/svg"><sodipodi:namedview
     id="namedview8"
     pagecolor="#ffffff"
     bordercolor="#000000"
     borderopacity="0.25"
     inkscape:showpageshadow="2"
     inkscape:pageopacity="0.0"
     inkscape:pagecheckerboard="0"
     inkscape:deskcolor="#d1d1d1"
     inkscape:document-units="mm"
     showgrid="false"
     inkscape:zoom="9.1550495"
     inkscape:cx="-1.0922934"
     inkscape:cy="22.22817"
     inkscape:window-width="2560"
     inkscape:window-height="1369"
     inkscape:window-x="0"
     inkscape:window-y="0"
     inkscape:window-maximized="1"
     inkscape:current-layer="svg5" /><defs
     id="defs2" /><g
     id="layer1"
     transform="translate(-93.1747,-45.301512)"><path
       id="rect1017"
       style="fill:#2cde85;fill-opacity:1;stroke-width:0.269928"
       d="M 94.715691 45.301512 C 94.715691 45.301512 93.179 46.868858 93.1747 46.868858 L 93.1747 56.091551 L 102.57826 56.091551 C 102.57826 56.091551 103.8629 54.827261 103.8619 54.821861 L 103.8619 45.301512 L 94.715691 45.301512 z M 96.095969 50.551321 C 96.482274 50.551321 96.800149 50.62809 97.049916 50.781281 C 97.299682 50.93114 97.484516 51.14411 97.604404 51.420518 C 97.727622 51.693596 97.789405 52.015146 97.789405 52.384801 C 97.789405 52.784426 97.717631 53.130955 97.574431 53.424014 C 97.431232 53.713743 97.210108 53.926713 96.910389 54.063251 L 97.769252 55.022366 L 96.800318 55.022366 L 96.146095 54.222931 L 96.090801 54.222931 C 95.704495 54.222931 95.384783 54.146678 95.131686 53.993488 C 94.881921 53.840298 94.695766 53.625491 94.572547 53.349083 C 94.45266 53.072675 94.392714 52.749287 94.392714 52.379633 C 94.392714 52.009979 94.45266 51.688945 94.572547 51.415867 C 94.695766 51.142789 94.881921 50.93114 95.131686 50.781281 C 95.384783 50.62809 95.706333 50.551321 96.095969 50.551321 z M 98.818283 50.86603 L 99.29319 50.86603 L 99.29319 51.44584 L 100.05748 51.44584 L 100.05748 52.004979 L 99.29319 52.004979 L 99.29319 53.31911 C 99.29319 53.422347 99.32316 53.500438 99.383107 53.553721 C 99.443053 53.603675 99.521144 53.628652 99.617718 53.628652 C 99.700973 53.628652 99.780901 53.620501 99.857496 53.603848 C 99.934091 53.587194 100.01086 53.56721 100.08746 53.543903 L 100.08746 54.098391 C 100.00753 54.131691 99.907621 54.159827 99.787733 54.18314 C 99.671176 54.20978 99.542613 54.222931 99.402744 54.222931 C 99.239563 54.222931 99.093372 54.196636 98.963494 54.14335 C 98.836945 54.090063 98.735198 53.998307 98.658603 53.868431 C 98.585338 53.735222 98.548532 53.552226 98.548532 53.31911 L 98.548532 52.004979 L 98.194032 52.004979 L 98.194032 51.690269 L 98.603826 51.440672 L 98.818283 50.86603 z M 96.095969 51.18074 C 95.776268 51.18074 95.544637 51.287483 95.401437 51.500617 C 95.258238 51.713751 95.18698 52.008486 95.18698 52.384801 C 95.18698 52.757784 95.258238 53.05252 95.401437 53.268984 C 95.544637 53.482118 95.77443 53.588861 96.090801 53.588861 C 96.413832 53.588861 96.645463 53.482118 96.785332 53.268984 C 96.925201 53.05252 96.995139 52.757784 96.995139 52.384801 C 96.995139 52.008486 96.925201 51.713751 96.785332 51.500617 C 96.645463 51.287483 96.41567 51.18074 96.095969 51.18074 z " /></g></svg>
