<?xml version="1.0" encoding="UTF-8" standalone="no"?>
<!-- Created with Inkscape (http://www.inkscape.org/) -->

<svg
   width="50mm"
   height="50mm"
   viewBox="0 0 50 50"
   version="1.1"
   id="svg1"
   xml:space="preserve"
   sodipodi:docname="Stride_Box.svg"
   inkscape:version="1.4.2 (f4327f4, 2025-05-13)"
   inkscape:export-filename="Cairo_Box.png"
   inkscape:export-xdpi="96"
   inkscape:export-ydpi="96"
   xmlns:inkscape="http://www.inkscape.org/namespaces/inkscape"
   xmlns:sodipodi="http://sodipodi.sourceforge.net/DTD/sodipodi-0.dtd"
   xmlns:xlink="http://www.w3.org/1999/xlink"
   xmlns="http://www.w3.org/2000/svg"
   xmlns:svg="http://www.w3.org/2000/svg"><sodipodi:namedview
     id="namedview1"
     pagecolor="#ffffff"
     bordercolor="#000000"
     borderopacity="0.25"
     inkscape:showpageshadow="2"
     inkscape:pageopacity="0.0"
     inkscape:pagecheckerboard="0"
     inkscape:deskcolor="#d1d1d1"
     inkscape:document-units="mm"
     inkscape:zoom="3.0929791"
     inkscape:cx="62.076074"
     inkscape:cy="92.305829"
     inkscape:window-width="2560"
     inkscape:window-height="1417"
     inkscape:window-x="2552"
     inkscape:window-y="-8"
     inkscape:window-maximized="1"
     inkscape:current-layer="layer1"><inkscape:page
       x="0"
       y="0"
       width="50"
       height="50"
       id="page1"
       margin="0"
       bleed="0" /></sodipodi:namedview><defs
     id="defs1"><linearGradient
       id="linearGradient5"><stop
         style="stop-color:#020e05;stop-opacity:1;"
         offset="0.00462963"
         id="stop1" /><stop
         style="stop-color:#209f5d;stop-opacity:1;"
         offset="0.99834436"
         id="stop5" /></linearGradient><linearGradient
       xlink:href="#linearGradient5"
       id="linearGradient1"
       x1="25"
       y1="7.0902283e-06"
       x2="25"
       y2="50.000031"
       gradientUnits="userSpaceOnUse"
       gradientTransform="matrix(0.98039216,0,0,0.98039216,0.49019623,0.49019623)" /><filter
       inkscape:collect="always"
       style="color-interpolation-filters:sRGB"
       id="filter1"
       x="-0.06882552"
       y="-0.06882552"
       width="1.137651"
       height="1.137651"><feGaussianBlur
         inkscape:collect="always"
         stdDeviation="0.9600145"
         id="feGaussianBlur1" /></filter><filter
       inkscape:collect="always"
       style="color-interpolation-filters:sRGB"
       id="filter2"
       x="-0.048000003"
       y="-0.047999995"
       width="1.096"
       height="1.096"><feGaussianBlur
         inkscape:collect="always"
         stdDeviation="0.47989828"
         id="feGaussianBlur2" /></filter></defs><g
     id="layer1"
     inkscape:label="Qt"><rect
       style="font-variation-settings:normal;display:inline;fill:url(#linearGradient1);stroke:none;stroke-width:0.980392;stroke-linecap:butt;stroke-linejoin:miter;stroke-miterlimit:4;stroke-dasharray:none;stroke-dashoffset:0;stroke-opacity:1;stop-color:#000000"
       id="rect1-18"
       width="49.019608"
       height="49.019608"
       x="0.49019623"
       y="0.49019623"
       rx="7.0571675"
       ry="7.0571675"
       inkscape:label="Background" /><rect
       style="font-variation-settings:normal;display:inline;fill:none;stroke:#000000;stroke-width:1.99928;stroke-linecap:butt;stroke-linejoin:miter;stroke-miterlimit:4;stroke-dasharray:none;stroke-dashoffset:0;stroke-opacity:1;stop-color:#000000;filter:url(#filter1)"
       id="rect1"
       width="48.000725"
       height="48.000725"
       x="0.99963778"
       y="0.99963778"
       rx="6.9104829"
       ry="6.9104829"
       inkscape:label="Shadow" /><path
       id="rect1017"
       style="fill:#000000;fill-opacity:1;stroke-width:0.603145;filter:url(#filter2)"
       inkscape:label="Shadow"
       d="m 16.462308,13.002542 c 0,0 -3.45011,3.485557 -3.459764,3.485557 v 20.509359 h 21.112974 c 0,0 2.884183,-2.811652 2.881937,-2.823661 V 13.002542 Z m 4.124637,9.536116 c 0.778116,0.0096 1.59448,0.14617 2.239388,0.610562 0.468522,0.329344 0.773079,0.83803 0.976105,1.363968 0.328426,0.863555 0.425088,1.795545 0.435973,2.713303 0.0014,0.92418 -0.04055,1.868717 -0.346448,2.749262 -0.204874,0.598977 -0.59482,1.130807 -1.109278,1.500116 0.370224,0.599892 0.747734,1.195589 1.117958,1.795479 -0.465306,0.214507 -0.929449,0.430696 -1.395216,0.644288 -0.396408,-0.654093 -0.790849,-1.309943 -1.188635,-1.963122 -0.537882,0.08822 -1.088187,0.08148 -1.628825,0.02179 -0.647665,-0.07761 -1.307377,-0.27509 -1.807134,-0.710999 -0.384007,-0.332558 -0.625447,-0.798347 -0.790357,-1.271465 -0.27009,-0.800163 -0.34222,-1.651683 -0.354631,-2.49135 -0.0065,-0.907648 0.05088,-1.829505 0.324624,-2.700407 0.211745,-0.655012 0.562328,-1.30806 1.154414,-1.692063 0.694975,-0.459789 1.554904,-0.576772 2.372062,-0.569396 z m 5.5201,0.539387 c 0.486122,-4.56e-4 0.972394,-4.58e-4 1.458455,0 0.0014,0.643988 -6.72e-4,1.287636 7.2e-4,1.931626 0.622391,9.12e-4 1.244992,-2.09e-4 1.867406,2.49e-4 -0.01122,0.417997 -0.02245,0.836109 -0.03391,1.254106 -0.621942,0.0014 -1.24346,-3.85e-4 -1.865403,10e-4 0.0014,1.055556 -0.0045,2.111082 0.0045,3.166636 0.01122,0.288923 0.0067,0.593912 0.132669,0.860789 0.09273,0.20579 0.342602,0.258461 0.546084,0.265352 0.383518,-0.0014 0.766639,-0.02384 1.150186,-0.03076 0.02357,0.384005 0.0458,0.768425 0.06803,1.152428 -0.762964,0.128158 -1.56333,0.28168 -2.321226,0.04192 -0.319276,-0.09464 -0.616938,-0.306404 -0.746464,-0.621967 -0.231976,-0.536964 -0.250786,-1.134446 -0.26089,-1.710913 -9.11e-4,-1.041312 -3.6e-5,-2.08217 -4.79e-4,-3.123485 -0.339454,-9.12e-4 -0.678816,3.87e-4 -1.018266,-10e-4 -9.12e-4,-0.417536 -9.12e-4,-0.835613 0,-1.253609 0.33945,-0.0014 0.678317,6.23e-4 1.017769,-7.68e-4 0.0014,-0.643984 -3.84e-4,-1.287645 0.001,-1.931627 z m -5.782229,0.750926 c -0.119961,0.0045 -0.23994,0.01557 -0.358103,0.03076 -0.367469,0.0519 -0.735334,0.190557 -0.999913,0.459286 -0.304078,0.313727 -0.45386,0.740236 -0.556746,1.156396 -0.249888,1.103323 -0.206379,2.252303 -0.02355,3.362057 0.06062,0.350015 0.147195,0.699345 0.304287,1.019503 0.129526,0.267335 0.351432,0.485265 0.612794,0.624448 0.447854,0.23472 0.9713,0.271642 1.467381,0.235347 0.47036,-0.03676 0.960301,-0.194382 1.278162,-0.560466 0.313278,-0.364713 0.421188,-0.851819 0.49698,-1.314369 0.107949,-0.777194 0.115111,-1.56622 0.06273,-2.348008 -0.04823,-0.587493 -0.143626,-1.182526 -0.393069,-1.721326 -0.162598,-0.355528 -0.470347,-0.636383 -0.832765,-0.779694 -0.335543,-0.134028 -0.698295,-0.17677 -1.058192,-0.163916 z" /><path
       id="path1"
       style="fill:#2cde85;fill-opacity:1;stroke-width:0.603145"
       inkscape:label="Qt"
       d="m 16.462308,13.002542 c 0,0 -3.45011,3.485557 -3.459764,3.485557 v 20.509359 h 21.112974 c 0,0 2.884183,-2.811652 2.881937,-2.823661 V 13.002542 Z m 4.124637,9.536116 c 0.778116,0.0096 1.59448,0.14617 2.239388,0.610562 0.468522,0.329344 0.773079,0.83803 0.976105,1.363968 0.328426,0.863555 0.425088,1.795545 0.435973,2.713303 0.0014,0.92418 -0.04055,1.868717 -0.346448,2.749262 -0.204874,0.598977 -0.59482,1.130807 -1.109278,1.500116 0.370224,0.599892 0.747734,1.195589 1.117958,1.795479 -0.465306,0.214507 -0.929449,0.430696 -1.395216,0.644288 -0.396408,-0.654093 -0.790849,-1.309943 -1.188635,-1.963122 -0.537882,0.08822 -1.088187,0.08148 -1.628825,0.02179 -0.647665,-0.07761 -1.307377,-0.27509 -1.807134,-0.710999 -0.384007,-0.332558 -0.625447,-0.798347 -0.790357,-1.271465 -0.27009,-0.800163 -0.34222,-1.651683 -0.354631,-2.49135 -0.0065,-0.907648 0.05088,-1.829505 0.324624,-2.700407 0.211745,-0.655012 0.562328,-1.30806 1.154414,-1.692063 0.694975,-0.459789 1.554904,-0.576772 2.372062,-0.569396 z m 5.5201,0.539387 c 0.486122,-4.56e-4 0.972394,-4.58e-4 1.458455,0 0.0014,0.643988 -6.72e-4,1.287636 7.2e-4,1.931626 0.622391,9.12e-4 1.244992,-2.09e-4 1.867406,2.49e-4 -0.01122,0.417997 -0.02245,0.836109 -0.03391,1.254106 -0.621942,0.0014 -1.24346,-3.85e-4 -1.865403,10e-4 0.0014,1.055556 -0.0045,2.111082 0.0045,3.166636 0.01122,0.288923 0.0067,0.593912 0.132669,0.860789 0.09273,0.20579 0.342602,0.258461 0.546084,0.265352 0.383518,-0.0014 0.766639,-0.02384 1.150186,-0.03076 0.02357,0.384005 0.0458,0.768425 0.06803,1.152428 -0.762964,0.128158 -1.56333,0.28168 -2.321226,0.04192 -0.319276,-0.09464 -0.616938,-0.306404 -0.746464,-0.621967 -0.231976,-0.536964 -0.250786,-1.134446 -0.26089,-1.710913 -9.11e-4,-1.041312 -3.6e-5,-2.08217 -4.79e-4,-3.123485 -0.339454,-9.12e-4 -0.678816,3.87e-4 -1.018266,-10e-4 -9.12e-4,-0.417536 -9.12e-4,-0.835613 0,-1.253609 0.33945,-0.0014 0.678317,6.23e-4 1.017769,-7.68e-4 0.0014,-0.643984 -3.84e-4,-1.287645 0.001,-1.931627 z m -5.782229,0.750926 c -0.119961,0.0045 -0.23994,0.01557 -0.358103,0.03076 -0.367469,0.0519 -0.735334,0.190557 -0.999913,0.459286 -0.304078,0.313727 -0.45386,0.740236 -0.556746,1.156396 -0.249888,1.103323 -0.206379,2.252303 -0.02355,3.362057 0.06062,0.350015 0.147195,0.699345 0.304287,1.019503 0.129526,0.267335 0.351432,0.485265 0.612794,0.624448 0.447854,0.23472 0.9713,0.271642 1.467381,0.235347 0.47036,-0.03676 0.960301,-0.194382 1.278162,-0.560466 0.313278,-0.364713 0.421188,-0.851819 0.49698,-1.314369 0.107949,-0.777194 0.115111,-1.56622 0.06273,-2.348008 -0.04823,-0.587493 -0.143626,-1.182526 -0.393069,-1.721326 -0.162598,-0.355528 -0.470347,-0.636383 -0.832765,-0.779694 -0.335543,-0.134028 -0.698295,-0.17677 -1.058192,-0.163916 z" /><rect
       style="font-variation-settings:normal;display:inline;fill:none;stroke:#2cde85;stroke-width:1.99928;stroke-linecap:butt;stroke-linejoin:miter;stroke-miterlimit:4;stroke-dasharray:none;stroke-dashoffset:0;stroke-opacity:1;stop-color:#000000"
       id="rect1-18-1"
       width="48.000725"
       height="48.000725"
       x="0.99963778"
       y="0.99963778"
       rx="6.9104829"
       ry="6.9104829"
       inkscape:label="Frame" /></g><style
     type="text/css"
     id="style1">
	.st0{fill:url(#ICON_00000088831890668800157600000002638584723837204667_);}
</style><style
     id="style1-7">.st10{fill:#333}</style><style
     type="text/css"
     id="style1-1">
	.st0{fill:url(#ICON_00000088831890668800157600000002638584723837204667_);}
</style><style
     id="style1-7-2">.st10{fill:#333}</style></svg>
