<?xml version="1.0" encoding="UTF-8" standalone="no"?>
<!-- Created with Inkscape (http://www.inkscape.org/) -->

<svg
   width="50mm"
   height="50mm"
   viewBox="0 0 50 50"
   version="1.1"
   id="svg1"
   xml:space="preserve"
   sodipodi:docname="redis_Box.svg"
   inkscape:version="1.4.3 (0d15f75, 2025-12-25)"
   inkscape:export-filename="Cairo_Box.png"
   inkscape:export-xdpi="96"
   inkscape:export-ydpi="96"
   xmlns:inkscape="http://www.inkscape.org/namespaces/inkscape"
   xmlns:sodipodi="http://sodipodi.sourceforge.net/DTD/sodipodi-0.dtd"
   xmlns:xlink="http://www.w3.org/1999/xlink"
   xmlns="http://www.w3.org/2000/svg"
   xmlns:svg="http://www.w3.org/2000/svg"><sodipodi:namedview
     id="namedview1"
     pagecolor="#ffffff"
     bordercolor="#000000"
     borderopacity="0.25"
     inkscape:showpageshadow="2"
     inkscape:pageopacity="0.0"
     inkscape:pagecheckerboard="0"
     inkscape:deskcolor="#d1d1d1"
     inkscape:document-units="mm"
     inkscape:zoom="0.27338331"
     inkscape:cx="-14.631471"
     inkscape:cy="203.01166"
     inkscape:window-width="2560"
     inkscape:window-height="1369"
     inkscape:window-x="-8"
     inkscape:window-y="-8"
     inkscape:window-maximized="1"
     inkscape:current-layer="Layer_1-2"><inkscape:page
       x="0"
       y="0"
       width="50"
       height="50"
       id="page1"
       margin="0"
       bleed="0" /></sodipodi:namedview><defs
     id="defs1"><linearGradient
       id="linearGradient8"><stop
         style="stop-color:#9a281c;stop-opacity:1;"
         offset="0.00155039"
         id="stop7" /><stop
         style="stop-color:#781817;stop-opacity:1;"
         offset="0.9968909"
         id="stop8" /></linearGradient><linearGradient
       id="linearGradient4"
       inkscape:collect="always"><stop
         style="stop-color:#dc382c;stop-opacity:1;"
         offset="0"
         id="stop4" /><stop
         style="stop-color:#a32422;stop-opacity:1;"
         offset="1"
         id="stop6" /></linearGradient><linearGradient
       xlink:href="#linearGradient8"
       id="linearGradient1"
       x1="-1.1713675e-05"
       y1="25.000019"
       x2="50.000011"
       y2="25.000019"
       gradientUnits="userSpaceOnUse"
       gradientTransform="matrix(0.98039216,0,0,0.98039216,0.49019623,0.49019623)" /><filter
       inkscape:collect="always"
       style="color-interpolation-filters:sRGB"
       id="filter1"
       x="-0.06882552"
       y="-0.06882552"
       width="1.137651"
       height="1.137651"><feGaussianBlur
         inkscape:collect="always"
         stdDeviation="0.9600145"
         id="feGaussianBlur1" /></filter><linearGradient
       inkscape:collect="always"
       xlink:href="#linearGradient4"
       id="linearGradient6"
       x1="-2.2053719e-06"
       y1="25"
       x2="50.000003"
       y2="25"
       gradientUnits="userSpaceOnUse" /><style
       id="style1-9">.cls-1{fill:none;}.cls-2{clip-path:url(#clip-path);}.cls-3{fill:#a32422;}.cls-4{fill:#dc382c;}.cls-5{fill:#fff;}.cls-6{fill:#741113;}.cls-7{fill:#ac2724;}</style><clipPath
       id="clip-path"
       transform="translate(0.01 0.01)"><rect
         class="cls-1"
         width="146.42"
         height="125.48"
         id="rect1-4" /></clipPath></defs><g
     id="layer1"
     inkscape:label="redis"><rect
       style="font-variation-settings:normal;display:inline;fill:url(#linearGradient1);stroke:none;stroke-width:0.980392;stroke-linecap:butt;stroke-linejoin:miter;stroke-miterlimit:4;stroke-dasharray:none;stroke-dashoffset:0;stroke-opacity:1;stop-color:#000000"
       id="rect1-18"
       width="49.019608"
       height="49.019608"
       x="0.49019623"
       y="0.49019623"
       rx="7.0571675"
       ry="7.0571675"
       inkscape:label="Background" /><rect
       style="font-variation-settings:normal;display:inline;fill:none;stroke:#000000;stroke-width:1.99928;stroke-linecap:butt;stroke-linejoin:miter;stroke-miterlimit:4;stroke-dasharray:none;stroke-dashoffset:0;stroke-opacity:1;stop-color:#000000;filter:url(#filter1)"
       id="rect1"
       width="48.000725"
       height="48.000725"
       x="0.99963778"
       y="0.99963778"
       rx="6.9104829"
       ry="6.9104829"
       inkscape:label="Shadow" /><g
       id="Layer_1-2"
       data-name="Layer 1"
       transform="matrix(0.26458333,0,0,0.26458333,6.6922743,1.6291489)"
       inkscape:label="Logo"><g
         id="g3"
         inkscape:label="Icon"
         transform="matrix(0.74492873,0,0,0.74492873,14.66204,21.475674)"><g
           class="cls-2"
           clip-path="url(#clip-path)"
           id="g6"><path
             class="cls-3"
             d="m 140.66,96.74 c -7.8,4.08 -48.28,20.73 -57,25.3 -8.72,4.57 -13.39,4.44 -20.21,1.18 C 56.63,119.96 13.7,102.5 5.92,98.78 2,96.94 0,95.37 0,93.9 V 79.09 c 0,0 56.08,-12.17 65.13,-15.45 9.05,-3.28 12.18,-3.36 19.87,-0.54 7.69,2.82 53.79,11.14 61.4,13.9 v 14.6 c 0,1.52 -1.75,3 -5.74,5.13 z"
             transform="translate(0.01,0.01)"
             id="path1" /><path
             class="cls-4"
             d="m 140.66,82 c -7.8,4.06 -48.28,20.71 -57,25.2 -8.72,4.49 -13.39,4.45 -20.21,1.2 C 56.63,105.15 13.7,87.69 5.92,84 -1.86,80.31 -2.01,77.73 5.62,74.75 13.25,71.77 56.08,55 65.13,51.7 74.18,48.4 77.31,48.33 85,51.16 c 7.69,2.83 48,18.84 55.57,21.63 7.57,2.79 7.92,5.08 0.09,9.13 z"
             transform="translate(0.01,0.01)"
             id="path2-8" /><path
             class="cls-3"
             d="m 140.66,72.62 c -7.8,4.07 -48.28,20.71 -57,25.2 C 74.94,102.31 70.31,102.27 63.49,99 56.67,95.73 13.7,78.37 5.92,74.66 2,72.8 0,71.24 0,69.76 V 55 C 0,55 56.08,42.79 65.13,39.51 74.18,36.23 77.31,36.14 85,39 c 7.69,2.86 53.79,11.1 61.4,13.88 v 14.6 c 0,1.52 -1.75,3.04 -5.74,5.14 z"
             transform="translate(0.01,0.01)"
             id="path3-8" /><path
             class="cls-4"
             d="m 140.66,57.81 c -7.8,4.08 -48.28,20.72 -57,25.21 -8.72,4.49 -13.39,4.46 -20.21,1.2 C 56.63,80.96 13.7,63.57 5.92,59.85 -1.86,56.13 -2,53.6 5.62,50.62 13.24,47.64 56.08,30.83 65.13,27.62 74.18,24.41 77.31,24.21 85,27 c 7.69,2.79 48,18.94 55.57,21.65 7.57,2.71 7.92,5.09 0.09,9.13 z"
             transform="translate(0.01,0.01)"
             id="path4" /><path
             class="cls-3"
             d="m 140.66,47.59 c -7.8,4.08 -48.28,20.73 -57,25.21 C 74.94,77.28 70.31,77.25 63.49,74 56.67,70.75 13.7,53.34 5.92,49.63 2,47.79 0,46.22 0,44.74 V 29.93 c 0,0 56.08,-12.17 65.13,-15.44 9.05,-3.27 12.18,-3.37 19.87,-0.55 7.69,2.82 53.77,11.14 61.38,13.92 v 14.6 c 0.02,1.54 -1.73,3.04 -5.72,5.13 z"
             transform="translate(0.01,0.01)"
             id="path5" /><path
             class="cls-4"
             d="m 140.66,32.8 c -7.8,4 -48.28,20.75 -57,25.2 -8.72,4.45 -13.39,4.44 -20.21,1.2 C 56.63,55.96 13.7,38.53 5.92,34.83 -1.86,31.13 -2.01,28.56 5.62,25.58 13.25,22.6 56.08,5.8 65.13,2.54 74.18,-0.72 77.31,-0.82 85,2 c 7.69,2.82 48,18.85 55.57,21.63 7.57,2.78 7.92,5.09 0.09,9.14 z"
             transform="translate(0.01,0.01)"
             id="path6" /></g><polygon
           class="cls-5"
           points="75.51,11.78 85.17,8.61 82.55,14.87 92.38,18.55 79.71,19.87 76.86,26.71 72.28,19.08 57.63,17.76 68.57,13.82 65.28,7.76 75.51,11.78 "
           id="polygon6" /><polygon
           class="cls-5"
           points="52.44,41.88 86.36,36.67 76.12,51.71 "
           id="polygon7" /><path
           class="cls-5"
           d="m 43.28,22.34 c 10,0 18.13,3.15 18.13,7 0,3.85 -8.15,7 -18.13,7 -9.98,0 -18.14,-3.15 -18.14,-7 0,-3.85 8.13,-7 18.14,-7 z"
           transform="translate(0.01,0.01)"
           id="path7" /><polygon
           class="cls-6"
           points="127.46,28.35 107.41,36.28 107.39,20.42 "
           id="polygon8" /><polygon
           class="cls-7"
           points="105.23,37.13 85.17,29.2 107.39,20.42 107.41,36.28 "
           id="polygon9" /></g><g
         id="g1"
         inkscape:label="Text"
         transform="matrix(0.60726834,0,0,0.60726834,-97.984761,105.7699)"><path
           class="cls-5"
           d="m 193,41.4 a 17.36,17.36 0 0 1 6.23,-4.34 20,20 0 0 1 7.3,-1.61 6.71,6.71 0 0 1 5,1.61 5,5 0 0 1 1.52,3.79 5.39,5.39 0 0 1 -1.52,3.79 4.9,4.9 0 0 1 -3.79,1.63 c -6.24,0.55 -14.9,6.77 -14.9,15.22 v 19.18 a 5.57,5.57 0 0 1 -5.42,5.41 4.92,4.92 0 0 1 -3.87,-1.67 5.36,5.36 0 0 1 -1.62,-3.79 v -40 a 5.35,5.35 0 0 1 1.62,-3.79 7.2,7.2 0 0 1 4.07,-1.36 5.52,5.52 0 0 1 5.41,5.4 z"
           transform="translate(0.01,0.01)"
           id="path9" /><path
           class="cls-5"
           d="m 258.71,59 a 5.25,5.25 0 0 1 -1.35,3.54 6.11,6.11 0 0 1 -3.79,1.62 h -32 a 10.31,10.31 0 0 0 3.47,6.56 14.46,14.46 0 0 0 9.48,4.57 14.07,14.07 0 0 0 10.56,-2.44 5.52,5.52 0 0 1 4.07,-1.63 4.65,4.65 0 0 1 3.51,1.36 4.41,4.41 0 0 1 0.26,6.24 c -0.08,0.09 -0.17,0.17 -0.26,0.26 a 24.49,24.49 0 0 1 -17.59,6.5 23,23 0 0 1 -17.57,-7.58 26.67,26.67 0 0 1 -7.3,-17.9 24.31,24.31 0 0 1 7.3,-17.88 22.59,22.59 0 0 1 17.06,-7.31 22,22 0 0 1 16.74,6.78 24.78,24.78 0 0 1 7.61,16.74 v 0.53 z m -24.1,-14.35 a 14.2,14.2 0 0 0 -9.13,3.53 13.17,13.17 0 0 0 -4.33,7 h 28.43 a 12.39,12.39 0 0 0 -4.88,-6.76 17.3,17.3 0 0 0 -10,-3.81"
           transform="translate(0.01,0.01)"
           id="path10" /><path
           class="cls-5"
           d="m 309.66,80.12 a 5.57,5.57 0 0 1 -5.41,5.42 5.85,5.85 0 0 1 -5.42,-4.34 23.23,23.23 0 0 1 -13.83,4.34 23.57,23.57 0 0 1 -17.33,-7.31 24.14,24.14 0 0 1 -7.05,-17.88 25.75,25.75 0 0 1 7.05,-17.87 23.85,23.85 0 0 1 17.33,-7.61 22.34,22.34 0 0 1 13.53,4.34 V 20.28 a 4.92,4.92 0 0 1 1.63,-3.79 5.37,5.37 0 0 1 3.84,-1.63 4.92,4.92 0 0 1 3.79,1.63 5.36,5.36 0 0 1 1.63,3.79 V 80.12 Z M 285.31,74.7 a 12,12 0 0 0 9.47,-4.32 14.4,14.4 0 0 0 0,-20 13,13 0 0 0 -9.47,-4.38 11.65,11.65 0 0 0 -9.48,4.34 14.4,14.4 0 0 0 0,20 12.49,12.49 0 0 0 9.48,4.32"
           transform="translate(0.01,0.01)"
           id="path11" /><path
           class="cls-5"
           d="m 325.67,20.28 v 2.18 a 5.5,5.5 0 0 1 -1.67,4.12 4.64,4.64 0 0 1 -3.79,1.35 4.86,4.86 0 0 1 -3.78,-1.61 5.44,5.44 0 0 1 -1.63,-4.06 v -2 a 5.28,5.28 0 0 1 1.63,-3.79 5.33,5.33 0 0 1 3.78,-1.63 5,5 0 0 1 3.79,1.65 4.9,4.9 0 0 1 1.66,3.79 m -9.13,16.53 a 5.28,5.28 0 0 1 3.79,-1.63 4.85,4.85 0 0 1 3.79,1.63 5.48,5.48 0 0 1 1.55,4 v 39.61 a 4.55,4.55 0 0 1 -1.66,3.79 5.33,5.33 0 0 1 -3.78,1.63 4.9,4.9 0 0 1 -3.79,-1.63 5.28,5.28 0 0 1 -1.63,-3.79 V 40.85 a 5.39,5.39 0 0 1 1.63,-4"
           transform="translate(0.01,0.01)"
           id="path12" /><path
           class="cls-5"
           d="m 364.08,40.6 a 5.29,5.29 0 0 1 2.17,3.24 7.17,7.17 0 0 1 -0.54,4.06 5.4,5.4 0 0 1 -3.25,2.16 5.61,5.61 0 0 1 -4.07,-0.81 c -3.79,-2.43 -6.75,-3.78 -9.2,-3.78 a 8.74,8.74 0 0 0 -6,1.88 c -1.08,0.82 -1.62,1.36 -1.62,1.9 a 2,2 0 0 0 0.27,1.36 3.74,3.74 0 0 0 1.08,0.81 16.19,16.19 0 0 0 7.32,2.43 v 0 a 37.75,37.75 0 0 1 9.74,3 13.57,13.57 0 0 1 6.5,5.7 13.46,13.46 0 0 1 -4.06,18.67 21.79,21.79 0 0 1 -13,4.06 c -6.23,0 -12.18,-2.43 -17.87,-7 a 5.77,5.77 0 0 1 -1.9,-3.53 5.2,5.2 0 0 1 8.4,-4.56 15.73,15.73 0 0 0 11.1,4.33 11.61,11.61 0 0 0 6.77,-1.9 c 1.08,-1.08 1.9,-1.89 1.9,-2.71 0,-0.82 0,-1.08 -0.27,-1.35 0,-0.28 -0.55,-0.81 -1.36,-1.08 a 20.15,20.15 0 0 0 -8.13,-2.86 v 0 a 28.26,28.26 0 0 1 -9.2,-3 16.56,16.56 0 0 1 -6.5,-5.67 12.61,12.61 0 0 1 -1.61,-6.23 13.3,13.3 0 0 1 5.95,-11.11 21.82,21.82 0 0 1 12.45,-3.79 c 4.56,0.28 9.48,2.16 14.89,5.69"
           transform="translate(0.01,0.01)"
           id="path13" /></g></g><rect
       style="font-variation-settings:normal;display:inline;fill:none;stroke:url(#linearGradient6);stroke-width:1.99928;stroke-linecap:butt;stroke-linejoin:miter;stroke-miterlimit:4;stroke-dasharray:none;stroke-dashoffset:0;stroke-opacity:1;stop-color:#000000"
       id="rect1-18-1"
       width="48.000725"
       height="48.000725"
       x="0.99963778"
       y="0.99963778"
       rx="6.9104829"
       ry="6.9104829"
       inkscape:label="Frame" /></g><style
     type="text/css"
     id="style1">
	.st0{fill:url(#ICON_00000088831890668800157600000002638584723837204667_);}
</style><style
     id="style1-7">.st10{fill:#333}</style><style
     type="text/css"
     id="style1-1">
	.st0{fill:url(#ICON_00000088831890668800157600000002638584723837204667_);}
</style><style
     id="style1-7-2">.st10{fill:#333}</style></svg>
