<?xml version="1.0" encoding="UTF-8" standalone="no"?>
<!-- Created with Inkscape (http://www.inkscape.org/) -->

<svg
   width="50mm"
   height="50mm"
   viewBox="0 0 50 50"
   version="1.1"
   id="svg1"
   xml:space="preserve"
   sodipodi:docname="redis_Box.svg"
   inkscape:version="1.4.3 (0d15f75, 2025-12-25)"
   inkscape:export-filename="Redis_Box.svg"
   inkscape:export-xdpi="96"
   inkscape:export-ydpi="96"
   xmlns:inkscape="http://www.inkscape.org/namespaces/inkscape"
   xmlns:sodipodi="http://sodipodi.sourceforge.net/DTD/sodipodi-0.dtd"
   xmlns:xlink="http://www.w3.org/1999/xlink"
   xmlns="http://www.w3.org/2000/svg"
   xmlns:svg="http://www.w3.org/2000/svg"><sodipodi:namedview
     id="namedview1"
     pagecolor="#ffffff"
     bordercolor="#000000"
     borderopacity="0.25"
     inkscape:showpageshadow="2"
     inkscape:pageopacity="0.0"
     inkscape:pagecheckerboard="0"
     inkscape:deskcolor="#d1d1d1"
     inkscape:document-units="mm"
     inkscape:zoom="0.27338331"
     inkscape:cx="-14.631471"
     inkscape:cy="203.01166"
     inkscape:window-width="2560"
     inkscape:window-height="1369"
     inkscape:window-x="-8"
     inkscape:window-y="-8"
     inkscape:window-maximized="1"
     inkscape:current-layer="Layer_1-2"><inkscape:page
       x="0"
       y="0"
       width="50"
       height="50"
       id="page1"
       margin="0"
       bleed="0" /></sodipodi:namedview><defs
     id="defs1"><linearGradient
       id="linearGradient8"><stop
         style="stop-color:#9a281c;stop-opacity:1;"
         offset="0.00155039"
         id="stop7" /><stop
         style="stop-color:#781817;stop-opacity:1;"
         offset="0.9968909"
         id="stop8" /></linearGradient><linearGradient
       id="linearGradient4"
       inkscape:collect="always"><stop
         style="stop-color:#dc382c;stop-opacity:1;"
         offset="0"
         id="stop4" /><stop
         style="stop-color:#a32422;stop-opacity:1;"
         offset="1"
         id="stop6" /></linearGradient><linearGradient
       xlink:href="#linearGradient8"
       id="linearGradient1"
       x1="-1.1713675e-05"
       y1="25.000019"
       x2="50.000011"
       y2="25.000019"
       gradientUnits="userSpaceOnUse"
       gradientTransform="matrix(0.98039216,0,0,0.98039216,0.49019623,0.49019623)" /><filter
       inkscape:collect="always"
       style="color-interpolation-filters:sRGB"
       id="filter1"
       x="-0.06882552"
       y="-0.06882552"
       width="1.137651"
       height="1.137651"><feGaussianBlur
         inkscape:collect="always"
         stdDeviation="0.9600145"
         id="feGaussianBlur1" /></filter><linearGradient
       inkscape:collect="always"
       xlink:href="#linearGradient4"
       id="linearGradient6"
       x1="-2.2053719e-06"
       y1="25"
       x2="50.000003"
       y2="25"
       gradientUnits="userSpaceOnUse" /><style
       id="style1-9">.cls-1{fill:none;}.cls-2{clip-path:url(#clip-path);}.cls-3{fill:#a32422;}.cls-4{fill:#dc382c;}.cls-5{fill:#fff;}.cls-6{fill:#741113;}.cls-7{fill:#ac2724;}</style><clipPath
       id="clip-path"
       transform="translate(0.01 0.01)"><rect
         class="cls-1"
         width="146.42"
         height="125.48"
         id="rect1-4" /></clipPath><style
       id="style1-9-7">.cls-1{fill:none;}.cls-2{clip-path:url(#clip-path);}.cls-3{fill:#a32422;}.cls-4{fill:#dc382c;}.cls-5{fill:#fff;}.cls-6{fill:#741113;}.cls-7{fill:#ac2724;}</style></defs><g
     id="layer1"
     inkscape:label="Redis"
     style="display:inline"><rect
       style="font-variation-settings:normal;display:inline;fill:url(#linearGradient1);stroke:none;stroke-width:0.980392;stroke-linecap:butt;stroke-linejoin:miter;stroke-miterlimit:4;stroke-dasharray:none;stroke-dashoffset:0;stroke-opacity:1;stop-color:#000000"
       id="rect1-18"
       width="49.019608"
       height="49.019608"
       x="0.49019623"
       y="0.49019623"
       rx="7.0571675"
       ry="7.0571675"
       inkscape:label="Background" /><rect
       style="font-variation-settings:normal;display:inline;fill:none;stroke:#000000;stroke-width:1.99928;stroke-linecap:butt;stroke-linejoin:miter;stroke-miterlimit:4;stroke-dasharray:none;stroke-dashoffset:0;stroke-opacity:1;filter:url(#filter1);stop-color:#000000"
       id="rect1"
       width="48.000725"
       height="48.000725"
       x="0.99963778"
       y="0.99963778"
       rx="6.9104829"
       ry="6.9104829"
       inkscape:label="Shadow" /><g
       id="Layer_1-2"
       data-name="Layer 1"
       transform="matrix(0.26458333,0,0,0.26458333,6.6922743,1.6291489)"
       inkscape:label="Logo"><g
         id="g3"
         inkscape:label="Icon"
         transform="matrix(0.74492873,0,0,0.74492873,14.66204,21.475674)"><g
           class="cls-2"
           clip-path="url(#clip-path)"
           id="g6"><path
             class="cls-3"
             d="m 140.66,96.74 c -7.8,4.08 -48.28,20.73 -57,25.3 -8.72,4.57 -13.39,4.44 -20.21,1.18 C 56.63,119.96 13.7,102.5 5.92,98.78 2,96.94 0,95.37 0,93.9 V 79.09 c 0,0 56.08,-12.17 65.13,-15.45 9.05,-3.28 12.18,-3.36 19.87,-0.54 7.69,2.82 53.79,11.14 61.4,13.9 v 14.6 c 0,1.52 -1.75,3 -5.74,5.13 z"
             transform="translate(0.01,0.01)"
             id="path1" /><path
             class="cls-4"
             d="m 140.66,82 c -7.8,4.06 -48.28,20.71 -57,25.2 -8.72,4.49 -13.39,4.45 -20.21,1.2 C 56.63,105.15 13.7,87.69 5.92,84 -1.86,80.31 -2.01,77.73 5.62,74.75 13.25,71.77 56.08,55 65.13,51.7 74.18,48.4 77.31,48.33 85,51.16 c 7.69,2.83 48,18.84 55.57,21.63 7.57,2.79 7.92,5.08 0.09,9.13 z"
             transform="translate(0.01,0.01)"
             id="path2-8" /><path
             class="cls-3"
             d="m 140.66,72.62 c -7.8,4.07 -48.28,20.71 -57,25.2 C 74.94,102.31 70.31,102.27 63.49,99 56.67,95.73 13.7,78.37 5.92,74.66 2,72.8 0,71.24 0,69.76 V 55 C 0,55 56.08,42.79 65.13,39.51 74.18,36.23 77.31,36.14 85,39 c 7.69,2.86 53.79,11.1 61.4,13.88 v 14.6 c 0,1.52 -1.75,3.04 -5.74,5.14 z"
             transform="translate(0.01,0.01)"
             id="path3-8" /><path
             class="cls-4"
             d="m 140.66,57.81 c -7.8,4.08 -48.28,20.72 -57,25.21 -8.72,4.49 -13.39,4.46 -20.21,1.2 C 56.63,80.96 13.7,63.57 5.92,59.85 -1.86,56.13 -2,53.6 5.62,50.62 13.24,47.64 56.08,30.83 65.13,27.62 74.18,24.41 77.31,24.21 85,27 c 7.69,2.79 48,18.94 55.57,21.65 7.57,2.71 7.92,5.09 0.09,9.13 z"
             transform="translate(0.01,0.01)"
             id="path4" /><path
             class="cls-3"
             d="m 140.66,47.59 c -7.8,4.08 -48.28,20.73 -57,25.21 C 74.94,77.28 70.31,77.25 63.49,74 56.67,70.75 13.7,53.34 5.92,49.63 2,47.79 0,46.22 0,44.74 V 29.93 c 0,0 56.08,-12.17 65.13,-15.44 9.05,-3.27 12.18,-3.37 19.87,-0.55 7.69,2.82 53.77,11.14 61.38,13.92 v 14.6 c 0.02,1.54 -1.73,3.04 -5.72,5.13 z"
             transform="translate(0.01,0.01)"
             id="path5" /><path
             class="cls-4"
             d="m 140.66,32.8 c -7.8,4 -48.28,20.75 -57,25.2 -8.72,4.45 -13.39,4.44 -20.21,1.2 C 56.63,55.96 13.7,38.53 5.92,34.83 -1.86,31.13 -2.01,28.56 5.62,25.58 13.25,22.6 56.08,5.8 65.13,2.54 74.18,-0.72 77.31,-0.82 85,2 c 7.69,2.82 48,18.85 55.57,21.63 7.57,2.78 7.92,5.09 0.09,9.14 z"
             transform="translate(0.01,0.01)"
             id="path6" /></g><polygon
           class="cls-5"
           points="57.63,17.76 68.57,13.82 65.28,7.76 75.51,11.78 85.17,8.61 82.55,14.87 92.38,18.55 79.71,19.87 76.86,26.71 72.28,19.08 "
           id="polygon6" /><polygon
           class="cls-5"
           points="86.36,36.67 76.12,51.71 52.44,41.88 "
           id="polygon7" /><path
           class="cls-5"
           d="m 43.28,22.34 c 10,0 18.13,3.15 18.13,7 0,3.85 -8.15,7 -18.13,7 -9.98,0 -18.14,-3.15 -18.14,-7 0,-3.85 8.13,-7 18.14,-7 z"
           transform="translate(0.01,0.01)"
           id="path7" /><polygon
           class="cls-6"
           points="107.41,36.28 107.39,20.42 127.46,28.35 "
           id="polygon8" /><polygon
           class="cls-7"
           points="107.41,36.28 105.23,37.13 85.17,29.2 107.39,20.42 "
           id="polygon9" /></g><g
         style="fill:#ffffff;fill-opacity:1"
         id="g2"
         transform="matrix(1.4209231,0,0,1.4209231,8.8053237,116.38868)"
         inkscape:label="Text"><path
           fill-rule="evenodd"
           clip-rule="evenodd"
           d="m 75.2909,13.8125 c 0,-2.9677 2.1983,-4.68966 4.9462,-4.68966 2.0517,0 3.8836,0.98926 4.7629,3.44396 -0.2565,1.2457 -1.7953,2.6379 -2.4547,2.8578 -0.5496,-1.1724 -1.1725,-1.8686 -1.7587,-1.8686 -0.7327,0 -0.7694,0.513 -0.7694,1.1724 0,0.4671 0.1338,1.155 0.2947,1.9828 0.243,1.2503 0.548,2.8197 0.548,4.4289 0,2.931 -2.0517,5.0927 -5.2026,5.0927 -2.8852,0 -4.4795,-1.8914 -5.1908,-4.913 -1.8847,3.3774 -4.6408,4.913 -6.7531,4.913 -3.3024,0 -4.0796,-2.4409 -4.0013,-4.9167 -1.3269,2.3451 -3.8811,4.9167 -6.3306,4.9167 -2.5006,0 -3.3839,-2.1765 -3.1813,-4.7113 -1.4982,2.7907 -4.2083,4.7113 -6.8209,4.7113 -2.8351,0 -4.2383,-2.2522 -3.7842,-5.0438 -1.9073,2.3443 -5.4577,5.0438 -9.149,5.0438 -4.2088,0 -6.0408,-2.2696 -6.2579,-5.1135 -2.0314,3.2557 -4.7695,5.2234 -8.0309,5.2234 -4.708,0 -6.39193,-4.1866 -6.63698,-7.6112 -1.74485,2.3366 -3.70655,4.7608 -6.11299,7.4646 -0.25647,0.2565 -0.4763,0.403 -0.73276,0.403 C 1.8319,26.5991 0.109914,22.8621 0,21.4698 0.723099,20.3478 5.28119,15.3398 8.95093,11.3079 10.2409,9.89066 11.4211,8.594 12.2863,7.6291 10.0389,8.30726 7.72169,9.65975 4.79957,11.7608 4.28664,12.1272 2.85776,8.7931 2.8944,6.22845 c 3.37069,-2.49138 8.5,-4.06681 12.6401,-4.06681 5.7888,0 9.1228,3.22414 9.1228,7.69396 0,3.7371 -3.1142,7.8405 -7.6573,7.9871 -2.3623,0.0613 -3.8763,-1.2647 -4.6506,-2.9022 0.0925,2.5325 1.4093,5.65 4.9437,5.65 3.8531,0 5.7034,-2.3259 8.4628,-5.7947 0.1793,-0.2254 0.3624,-0.4555 0.5501,-0.6902 2.3449,-2.8944 5.0561,-5.45905 9.013,-5.45905 2.4181,0 4.0668,1.50215 4.0668,3.77375 0,2.7478 -3.2242,6.5581 -7.7306,6.5581 -0.7697,0 -1.4713,-0.1014 -2.0635,-0.3018 -0.0149,0.1155 -0.0249,0.2292 -0.0249,0.3385 0,1.2823 0.4763,2.0517 2.5647,2.0517 3.0776,0 5.9719,-1.8319 9.4892,-6.1185 3.444,-4.2134 6.0452,-6.04528 8.7931,-6.04528 1.8549,0 3.2627,1.0053 3.8831,2.69838 C 57.9796,6.28253 61.1038,2.51388 63.75,0 c 2.6013,1.09914 4.4698,3.26078 3.9569,3.70043 -1.9418,1.75862 -8.4267,8.82977 -10.9914,13.04307 -0.6595,1.0992 -1.2823,2.3082 -1.2823,2.8944 0,0.5496 0.3297,0.7328 0.6961,0.7328 1.7605,0 5.2883,-4.156 8.3352,-7.7454 1.1381,-1.3408 2.2091,-2.6025 3.0958,-3.53909 2.0518,0.84267 4.1401,2.63789 3.6272,3.26079 -2.7112,3.2241 -4.7629,5.8621 -4.7629,7.3642 0,0.403 0.1465,0.6595 0.6961,0.6595 1.0259,0 1.9784,-0.916 3.5539,-2.8578 0.3297,-0.403 0.7327,-0.403 0.9892,0.2199 0.6961,1.6853 1.722,2.6013 2.528,2.6013 0.9526,0 1.4289,-0.8427 1.4289,-2.125 0,-0.8764 -0.107,-1.8953 -0.199,-2.7726 -0.0696,-0.6632 -0.1308,-1.2455 -0.1308,-1.624 z M 16.194,13.3362 c 1.9418,0 4.0668,-1.0625 4.0668,-3.2241 0,-1.31186 -0.8142,-2.52126 -2.99,-2.88953 -0.1148,0.17935 -0.2288,0.3576 -0.3421,0.53482 -1.1056,1.72841 -2.1483,3.35861 -3.2006,4.95211 0.6305,0.3541 1.4279,0.6267 2.4659,0.6267 z m 19.6379,0.6595 c 0,-0.5862 -0.3664,-0.9892 -0.9526,-0.9892 -1.4699,0 -3.687,2.0628 -4.7303,4.0548 0.3851,0.1488 0.8372,0.2318 1.323,0.2318 2.6013,0 4.3599,-1.9784 4.3599,-3.2974 z m 9.6358,5.3125 c 0,0.6595 0.3663,1.0991 1.1357,1.0991 2.3815,0 5.3492,-4.3232 5.3492,-6.0819 0,-0.7327 -0.403,-1.1724 -1.0625,-1.1724 -2.1616,0 -5.4224,4.1035 -5.4224,6.1552 z M 76.0599,6.08207 c -0.8427,1.39224 -2.125,2.96767 -2.6013,3.44396 -2.1983,-0.91595 -4.25,-2.74784 -3.9569,-3.26078 0.806,-1.42887 2.125,-2.96767 2.6013,-3.44396 2.1982,0.91595 4.25,2.78448 3.9569,3.26078 z"
           fill="#ff4438"
           id="path1-8"
           style="fill:#ffffff;fill-opacity:1" /></g></g><rect
       style="font-variation-settings:normal;display:inline;fill:none;stroke:url(#linearGradient6);stroke-width:1.99928;stroke-linecap:butt;stroke-linejoin:miter;stroke-miterlimit:4;stroke-dasharray:none;stroke-dashoffset:0;stroke-opacity:1;stop-color:#000000"
       id="rect1-18-1"
       width="48.000725"
       height="48.000725"
       x="0.99963778"
       y="0.99963778"
       rx="6.9104829"
       ry="6.9104829"
       inkscape:label="Frame" /></g><style
     type="text/css"
     id="style1">
	.st0{fill:url(#ICON_00000088831890668800157600000002638584723837204667_);}
</style><style
     id="style1-7">.st10{fill:#333}</style><style
     type="text/css"
     id="style1-1">
	.st0{fill:url(#ICON_00000088831890668800157600000002638584723837204667_);}
</style><style
     id="style1-7-2">.st10{fill:#333}</style><style
     type="text/css"
     id="style1-4">
	.st0{fill:url(#ICON_00000088831890668800157600000002638584723837204667_);}
</style><style
     id="style1-7-3">.st10{fill:#333}</style><style
     type="text/css"
     id="style1-1-1">
	.st0{fill:url(#ICON_00000088831890668800157600000002638584723837204667_);}
</style><style
     id="style1-7-2-2">.st10{fill:#333}</style></svg>
