<?xml version="1.0" encoding="UTF-8" standalone="no"?>
<!-- Created with Inkscape (http://www.inkscape.org/) -->

<svg
   width="50.000008mm"
   height="50.000008mm"
   viewBox="0 0 50.000008 50.000008"
   version="1.1"
   id="svg1"
   xml:space="preserve"
   sodipodi:docname="Sass_Box.svg"
   inkscape:version="1.4.3 (0d15f75, 2025-12-25)"
   inkscape:export-filename="Sass_Box.png"
   inkscape:export-xdpi="260.09595"
   inkscape:export-ydpi="260.09595"
   xmlns:inkscape="http://www.inkscape.org/namespaces/inkscape"
   xmlns:sodipodi="http://sodipodi.sourceforge.net/DTD/sodipodi-0.dtd"
   xmlns:xlink="http://www.w3.org/1999/xlink"
   xmlns="http://www.w3.org/2000/svg"
   xmlns:svg="http://www.w3.org/2000/svg"><sodipodi:namedview
     id="namedview1"
     pagecolor="#505050"
     bordercolor="#ffffff"
     borderopacity="1"
     inkscape:showpageshadow="0"
     inkscape:pageopacity="0"
     inkscape:pagecheckerboard="1"
     inkscape:deskcolor="#505050"
     inkscape:document-units="mm"
     inkscape:zoom="2.8284272"
     inkscape:cx="-21.036426"
     inkscape:cy="147.96209"
     inkscape:window-width="2560"
     inkscape:window-height="1369"
     inkscape:window-x="-8"
     inkscape:window-y="-8"
     inkscape:window-maximized="1"
     inkscape:current-layer="layer1"><inkscape:page
       x="0"
       y="0"
       width="50.000008"
       height="50.000008"
       id="page2"
       margin="0"
       bleed="0" /></sodipodi:namedview><defs
     id="defs1"><linearGradient
       id="linearGradient1"
       inkscape:collect="always"><stop
         style="stop-color:#dccde8;stop-opacity:1;"
         offset="0"
         id="stop1" /><stop
         style="stop-color:#d99ac5;stop-opacity:1;"
         offset="1"
         id="stop2" /></linearGradient><filter
       style="color-interpolation-filters:sRGB"
       id="filter1"
       x="-0.06882552"
       y="-0.06882552"
       width="1.137651"
       height="1.137651"><feGaussianBlur
         stdDeviation="0.9600145"
         id="feGaussianBlur1" /></filter><clipPath
       clipPathUnits="userSpaceOnUse"
       id="clipPath29"><use
         x="0"
         y="0"
         xlink:href="#g28"
         id="use29" /></clipPath><radialGradient
       inkscape:collect="always"
       xlink:href="#linearGradient1"
       id="radialGradient4"
       cx="0"
       cy="0"
       fx="0"
       fy="0"
       r="24.509804"
       gradientUnits="userSpaceOnUse"
       gradientTransform="scale(2.0400003)" /><filter
       inkscape:collect="always"
       style="color-interpolation-filters:sRGB"
       id="filter2"
       x="-0.032347408"
       y="-0.093003467"
       width="1.0646948"
       height="1.1860069"><feGaussianBlur
         inkscape:collect="always"
         stdDeviation="0.5812714"
         id="feGaussianBlur2" /></filter></defs><g
     id="layer1"
     inkscape:label="Sass"><g
       id="g29"
       clip-path="url(#clipPath29)"
       style="display:inline"><g
         inkscape:label="Clip"
         id="g28"><rect
           style="font-variation-settings:normal;display:inline;fill:url(#radialGradient4);fill-opacity:1;stroke:none;stroke-width:0.980392;stroke-linecap:butt;stroke-linejoin:miter;stroke-miterlimit:4;stroke-dasharray:none;stroke-dashoffset:0;stroke-opacity:1;stop-color:#000000"
           id="rect26"
           width="49.019608"
           height="49.019608"
           x="0.49019623"
           y="0.3712548"
           rx="7.0571675"
           ry="7.0571675"
           inkscape:label="Background" /><rect
           style="font-variation-settings:normal;display:inline;fill:none;stroke:#000000;stroke-width:1.99928;stroke-linecap:butt;stroke-linejoin:miter;stroke-miterlimit:4;stroke-dasharray:none;stroke-dashoffset:0;stroke-opacity:1;filter:url(#filter1);stop-color:#000000"
           id="rect1"
           width="48.000725"
           height="48.000725"
           x="0.99963778"
           y="0.99963778"
           rx="6.9104829"
           ry="6.9104829"
           inkscape:label="Shadow" /></g></g><path
       d="m 46.442418,22.107581 c -0.325692,-0.650071 -0.621805,-1.388737 -0.621805,-1.388737 -0.207284,-0.975059 -0.473772,-0.975059 -0.473772,-0.975059 -0.296113,-0.413677 -1.302814,-0.177284 -1.302814,-0.177284 -0.473772,0.265926 -3.997318,1.241032 -4.855985,1.476582 -0.858668,0.236394 -6.780651,1.920634 -6.780651,1.920634 -1.865415,-0.679602 -6.395709,-0.738712 -6.395709,-0.738712 -4.944814,-0.177284 -7.757772,0.915996 -7.757772,0.915996 -1.776586,1.122811 -2.783333,0.502319 -2.783333,0.502319 -0.947497,0 -1.717382,-0.620493 -1.717382,-0.620493 -1.125109,-0.94309 -4.2053044,-2.09623 -4.2053044,-2.097167 0.9474964,-0.177284 6.5437404,-2.18656 6.5437404,-2.18656 3.760456,-1.241032 5.212568,0.117189 5.212568,0.117189 1.243188,0.710915 3.693892,2.77813 3.693892,2.778505 1.14789,0.825011 1.398534,-0.325036 1.398534,-0.325036 0.0592,-0.827354 -0.177659,-0.915996 -2.102277,-1.891056 -1.924619,-0.975059 -2.428016,-1.389018 -3.791628,-1.743303 -1.362064,-0.354568 -3.13865,-0.118174 -5.62587,0.236393 -2.48722,0.354567 -8.8517084,1.83354 -8.8540054,1.831946 l -0.207284,0.02812 c -1.154781,-0.08864 -1.450894,0.02953 -1.450894,0.02953 -1.300517,0.117376 -0.854355,1.772086 -0.854355,1.774336 0.829089,3.721923 3.018789,6.412583 3.018789,6.412583 2.250358,2.451594 4.8844384,2.128153 4.8844384,2.12745 1.865415,0.06094 2.842537,-1.772883 2.842537,-1.772883 0.681009,-0.797776 0.858668,-2.342515 0.858668,-2.342515 1.213984,0.285941 1.392205,0.806261 1.392205,0.806026 0.473772,0.562508 1.275017,1.950026 1.275017,1.950166 2.576049,4.256306 7.345408,3.721924 7.345408,3.721924 3.967692,0.06094 5.951562,-3.988974 5.951562,-3.988974 0.503351,-0.768244 1.598927,-2.629769 1.598927,-2.629769 0.02963,0 2.457595,-1.05606 2.457595,-1.05606 1.983869,-0.494632 6.366083,-2.607925 6.366083,-2.607925 0.917918,-0.53185 2.931366,-1.62513 2.931366,-1.62513 0.858667,0.08906 1.185953,2.835974 1.242204,3.042227 0.0592,0.206252 0.501569,1.003138 0.769838,-0.118174 0.268269,-1.121311 -0.0025,-1.386815 -0.0013,-1.387096 z m -33.34056,6.262863 c -0.621805,1.831993 -3.2570574,0.915996 -3.2570574,0.915996 -2.264139,-0.759525 -3.22748,-2.71841 -3.73083,-3.81169 -0.01627,-0.03539 -0.03202,-0.07064 -0.0472,-0.105798 -0.454271,-1.05142 -0.426568,-1.99212 -0.426568,-1.99212 0.414521,-0.827354 0.473772,-1.359205 0.473772,-1.359205 0.355317,0.06094 1.89504,-0.650071 1.89504,-0.650071 2.7537074,0.707822 4.1156784,1.978151 4.1156784,1.979698 2.724129,2.482532 0.976372,5.02319 0.976372,5.024502 z m 16.166929,-0.590633 c 0,0 -0.710634,5.318648 -6.425333,3.693517 0,0 -1.510098,0.02953 -2.605675,-2.18656 -0.281628,-0.569679 -0.428021,-0.851823 -0.490412,-0.957387 0.237425,0.515632 0.342192,0.867199 0.342192,0.868746 0,0.0015 -0.522757,-1.173813 -0.34238,-0.868746 -0.267285,-0.58032 -0.702478,-1.366283 -1.345377,-2.086058 -0.166971,-0.18694 -0.287769,-0.323864 -0.372333,-0.421459 -0.230675,-0.239253 -0.46585,-0.56382 -0.36788,-0.822761 0,0 0.0968,-0.735525 1.065952,-1.178734 0,0 2.724082,-1.211453 7.550489,-0.177283 1.87e-4,0.0023 4.02638,0.827307 2.990429,4.13771 z"
       class="style1"
       id="path1-2"
       style="mix-blend-mode:normal;fill:#000000;fill-opacity:1;stroke-width:0.0468756;filter:url(#filter2)"
       inkscape:label="Shadow" /><g
       id="g1"
       transform="matrix(0.04687561,0,0,0.04687561,3.4353123,17.499986)"
       inkscape:label="Logo"><path
         d="M 917.473,98.294 C 910.525,84.426 904.208,68.668 904.208,68.668 899.786,47.867 894.101,47.867 894.101,47.867 887.784,39.042 866.308,44.085 866.308,44.085 856.201,49.758 781.033,70.56 762.715,75.585 744.397,80.628 618.063,116.558 618.063,116.558 578.268,102.06 481.623,100.799 481.623,100.799 376.135,97.017 316.126,120.34 316.126,120.34 c -37.9,23.953 -59.377,10.716 -59.377,10.716 -20.213,0 -36.637,-13.237 -36.637,-13.237 C 196.11,97.7 130.4,73.1 130.4,73.08 150.613,69.298 269.998,26.434 269.998,26.434 c 80.222,-26.475 111.2,2.5 111.2,2.5 C 407.719,44.1 460,88.2 460,88.208 c 24.488,17.6 29.835,-6.934 29.835,-6.934 1.263,-17.65 -3.79,-19.541 -44.848,-40.342 C 403.929,20.131 393.19,11.3 364.1,3.742 335.043,-3.822 297.143,1.221 244.083,8.785 191.023,16.349 55.249,47.9 55.2,47.866 l -4.422,0.6 C 26.143,46.575 19.826,49.096 19.826,49.096 -7.918,51.6 1.6,86.9 1.6,86.948 c 17.687,79.4 64.4,136.8 64.4,136.8 48.007,52.3 104.2,45.4 104.2,45.385 39.795,1.3 60.64,-37.821 60.64,-37.821 14.528,-17.019 18.318,-49.973 18.318,-49.973 25.898,6.1 29.7,17.2 29.7,17.195 10.107,12 27.2,41.6 27.2,41.603 54.955,90.8 156.7,79.4 156.7,79.4 84.643,1.3 126.965,-85.097 126.965,-85.097 10.738,-16.389 34.11,-56.101 34.11,-56.101 0.632,0 52.428,-22.529 52.428,-22.529 42.322,-10.552 135.808,-55.635 135.808,-55.635 19.582,-11.346 62.535,-34.669 62.535,-34.669 18.318,1.9 25.3,60.5 26.5,64.9 1.263,4.4 10.7,21.4 16.423,-2.521 C 923.25,103.964 917.473,98.3 917.5,98.294 Z M 206.217,231.9 c -13.265,39.082 -69.483,19.541 -69.483,19.541 -48.301,-16.203 -68.852,-57.992 -79.59,-81.315 -0.347,-0.755 -0.683,-1.507 -1.007,-2.257 -9.691,-22.43 -9.1,-42.498 -9.1,-42.498 8.843,-17.65 10.107,-28.996 10.107,-28.996 7.58,1.3 40.427,-13.868 40.427,-13.868 58.745,15.1 87.8,42.2 87.8,42.233 58.114,52.96 20.829,107.16 20.829,107.188 z m 344.89,-12.6 c 0,0 -15.16,113.463 -137.072,78.794 0,0 -32.215,0.63 -55.587,-46.646 -6.008,-12.153 -9.131,-18.172 -10.462,-20.424 5.065,11 7.3,18.5 7.3,18.533 0,0.033 -11.152,-25.041 -7.304,-18.533 -5.702,-12.38 -14.986,-29.147 -28.701,-44.502 -3.562,-3.988 -6.139,-6.909 -7.943,-8.991 -4.921,-5.104 -9.938,-12.028 -7.848,-17.552 0,0 2.065,-15.691 22.74,-25.146 0,0 58.113,-25.844 161.075,-3.782 0.004,0.049 85.895,17.649 63.795,88.27 z"
         class="style1"
         id="path1"
         style="fill:#cf649a;fill-opacity:1" /><g
         class="style2"
         id="g2"><path
           d="m 537.413,112.862 c 14.971,1.1 31.1,7.8 31.1,7.8 19.339,11.9 32.7,18.3 32.7,18.308 8.43,-8.412 6.042,-11.29 6.042,-11.29 C 604.35,115.8 537.4,112.9 537.4,112.862 Z m 31.639,37.515 c 0,0 10.909,-11.381 -5.454,-11.381 0,0.004 -8.398,11.904 5.502,11.381 z m -5.454,14.844 c 0.496,9.4 6,6.9 6,6.928 2.479,3.959 -2.71,9.896 -2.71,9.9 12.659,-7.039 5.686,-16.824 5.686,-16.824 -4.51,-6.425 -8.974,-0.025 -8.974,-0.004 z M 851.899,49.56 c 0,0 -90.92,26.462 -127.413,36.806 -36.493,10.344 -97.081,27.58 -106.423,30.2 0,0 -2.622,-3.716 -31.124,-7.483 0,0 39.6,9.6 38.6,21.987 l 1.983,-8.907 c 0,0 110.08,-35.132 142.807,-44.039 32.727,-8.907 65.949,-18.308 78.346,-22.762 12.396,-4.453 35.234,-15.998 45.385,-7.504 C 894.102,47.9 884.6,34.6 851.9,49.56 Z M 627,176.602 v -26.211 c 0,17.334 -4.311,27.962 -4.311,27.962 z m -265.052,81.482 c -19.004,-47.573 -50.606,-80.532 -50.606,-80.532 -4.823,10.8 11.8,36.7 11.8,36.657 20.295,36.091 38.758,43.891 38.758,43.875 z m 0,19.462 c 0,0 -50.742,-38.101 -61.651,-89.068 0,0 -6.942,-25.221 10.165,-43.784 0,0 -23.057,13.105 -9.669,56.65 0,0 13.9,43 52.1,74.223 0,0 30.2,25.7 70.9,32.658 0,0 56,11 83.385,-17.196 C 507.151,291 450.9,334.9 361.9,277.546 Z M 187.242,108.811 c 0,0 -14.876,-5.443 0,1.484 0.988,0.5 1.9,0.9 2.8,1.4 C 188.307,110 187.2,108.8 187.2,108.811 Z m 2.833,2.856 c 3.769,3.6 10.7,9.6 17.5,12 -0.003,0.033 -4.775,-5.667 -17.475,-12 z m -154.07,21.391 c 0,0 -12.396,-42.06 8.925,-52.946 0,0 -31.239,-2.969 -2.479,78.7 0,0 24.3,54.4 57.5,78.182 C 99.971,237 53.4,194.4 36,133.058 Z M 11.708,94.462 c -0.992,10.9 4,6.9 4,6.928 C 16.667,91.5 11.7,94.5 11.7,94.462 Z M 8.733,74.174 c 0,0 -1.983,9.4 5,9.402 C 13.692,83.6 17.4,75.2 8.7,74.174 Z"
           class="style3"
           id="path2" /></g><g
         class="style4"
         id="g3"><path
           d="m 919.274,102.466 c -4.317,-11.789 -11.551,-17.901 -15.881,-37.349 -0.201,-0.904 -0.404,-1.762 -0.608,-2.575 -4.174,-16.673 -8.683,-14.676 -8.683,-14.676 -11.638,-6.02 -47.865,11.463 -47.865,11.5 -24.777,12.207 -38.921,43.084 -38.921,43.084 4.009,-1.894 67.204,-36.897 67.204,-36.897 30.897,-16.92 41.1,68.6 41.1,68.6 4.87,-8.853 3.68,-31.653 3.68,-31.687 z m -593.192,13.397 c 0,0 56.032,-11.01 130.411,-10.515 0,0 106.9,0.7 151.1,10.5 0,0 -21.321,-12.846 -111.026,-14.649 C 496.612,101.2 386.3,97.7 326.1,115.863 Z m 20.826,139.911 c 0,0 9.7,12.1 18.3,15.8 0.047,0.026 -5.808,-17.774 -18.308,-15.8 z m -36.445,-24.246 c 14.132,35.1 67.2,66.3 67.2,66.3 C 338.479,271.6 310.5,231.5 310.5,231.528 Z m -80.081,-31.669 c -6.446,31.174 -29.572,61.672 -29.572,61.7 9.819,-4.422 24.521,-21.899 24.521,-21.899 18.25,-17.935 23.84,-58.307 23.84,-58.307 C 228.291,178.6 230.4,199.9 230.4,199.859 Z m 44.131,-65.812 c 0,0 -26.964,-0.251 -49.523,-12.864 0,0 -24.261,-17.823 -48.067,-28.406 0,0 38.6,21 40.6,30.878 0,0 -5.95,7.4 4.5,10.391 0,0 50.1,5.9 58.5,6.433 1.075,0.1 1.9,0.1 2.5,0.2 4.524,-3.192 14.356,-9.986 21.287,-13.726 C 304.202,127 285.4,137 274.5,134.047 Z m 8.402,6.666 c -1.528,1.078 -2.452,1.747 -2.452,1.7 0,-0.047 6.414,-1.113 2.437,-1.7 z M 44.931,80.112 c 0,0 -16.858,11.574 -4.959,51.956 0,0 10.8,45.6 32.4,66.9 0,0 -25.489,-42.119 -26.481,-68.344 0,0 1.488,-7.422 5.95,-16.824 0,0 6.08,-7.993 5.271,-17.357 0,0 14.721,-3.032 40.427,-13.868 C 97.571,82.5 63.3,72.7 44.9,80.112 Z"
           class="style5"
           id="path3" /></g><path
         d="m 130.417,73.08 c 0,0 -43.446,-18.757 -79.59,-24.584 0,0 168.067,-36.198 193.29,-39.712 C 244.117,8.8 170.1,26.3 130.4,73.08 Z m 779.587,31.898 c 0,0 -10.672,-50.924 -35.484,-39.462 0,-0.016 21.08,-1.116 35.48,39.462 z M 533.521,297.834 c 0,0 73.547,-79.487 82.803,-153.14 0,0 10.6,14.3 6.9,33.7 C 623.253,178.4 575,274.6 533.5,297.834 Z M 387.14,291.641 c 0,0 -93.12,-46.534 -88.659,-129.279 0,0.038 -2.381,70.838 88.619,129.279 z M 66.646,77.342 c 0,0 -61.559,-14.989 -19.737,85.02 C 46.909,162.4 10.2,75.7 66.6,77.342 Z M 249.17,181.325 c 0,0 -15.979,-5.712 -18.789,18.534 0,0 13.1,37.08 -29.572,61.7 0,-0.059 45.491,-30.059 48.391,-80.234 z m 25.343,-36.631 c 0,0 -16.579,30.861 -56.553,-12.49 0,-0.004 22.14,21.496 56.54,12.49 z M 136.734,251.469 c 0,0 -44.474,-0.784 -85.907,-81.04 h -2.629 c 0,0 39.35,68.771 88.502,81.04 z"
         class="style4"
         id="path4"
         style="display:inline" /><path
         fill="#cf649a"
         d="m 35.668395,19.887483 c -0.09245,0.02358 -0.167076,0.06578 -0.226068,0.115631 -0.03706,-0.04295 -0.07258,-0.07969 -0.0847,-0.110731 -0.0139,-0.03608 -0.02528,-0.05742 -0.03065,-0.103325 -0.0054,-0.04589 0.0048,-0.115435 0.0035,-0.120608 -0.0017,-0.0045 -0.01251,-0.026 -0.06592,-0.01324 -0.0534,0.01273 -0.09672,0.03508 -0.09842,0.05033 -0.0017,0.01525 -0.0041,0.04989 -0.0025,0.08467 0.0028,0.05093 -0.05154,0.24738 -0.08434,0.351674 -0.02686,-0.03067 -0.05011,-0.05783 -0.0594,-0.08188 -0.0139,-0.03608 -0.02528,-0.05742 -0.03065,-0.103325 -0.0054,-0.04589 0.0048,-0.115435 0.0035,-0.120608 -0.0017,-0.0045 -0.01251,-0.026 -0.06592,-0.01324 -0.0534,0.01273 -0.09672,0.03508 -0.09842,0.05033 -0.0017,0.01525 8.6e-4,0.04977 -0.0025,0.08467 -0.0029,0.03477 -0.06055,0.354538 -0.07549,0.437905 -0.0075,0.04252 -0.01493,0.07678 -0.02064,0.100166 -0.0058,0.02339 -1.33e-4,0.0017 -6.86e-4,0.0041 -0.0049,0.0199 -0.0076,0.03102 -0.0076,0.03102 l 1.32e-4,5.31e-4 c -0.004,0.01472 -0.0087,0.02908 -0.0123,0.02998 -0.0026,6.42e-4 -0.01639,-0.03271 -0.01942,-0.0825 -0.0058,-0.104591 0.002,-0.271856 1.14e-4,-0.277417 -6.41e-4,-0.0026 0.0014,-0.03219 -0.04095,-0.03648 -0.04123,-0.0045 -0.04889,0.02207 -0.05198,0.02284 -0.0031,7.74e-4 -0.0036,0.0097 -0.0036,0.0097 0,0 -0.0018,-0.185765 -0.123834,-0.155363 -0.07654,0.01907 -0.161315,0.128611 -0.194616,0.21765 -0.0286,0.02635 -0.0894,0.08214 -0.153699,0.141546 -0.02458,0.0226 -0.04993,0.04649 -0.07413,0.06844 l -0.0073,-0.0048 c -0.187207,-0.120905 -0.488629,-0.164477 -0.530066,-0.379362 -0.01502,-0.0781 -0.03879,-0.288052 0.394341,-0.657387 0.354729,-0.30257 0.692796,-0.327997 0.779831,-0.218942 0.123962,0.15588 -0.04806,0.54587 -0.457333,0.697791 -0.155823,0.05804 -0.255584,0.01697 -0.282586,-0.001 -0.02829,-0.01876 -0.03166,-0.01904 -0.03877,-0.01232 -0.01165,0.01056 0.002,0.03024 0.01046,0.0419 0.02053,0.0295 0.08667,0.07454 0.181812,0.0816 0.08338,0.0062 0.275114,-0.02677 0.480784,-0.171378 0.230376,-0.162291 0.361226,-0.486001 0.245716,-0.700563 -0.117573,-0.218444 -0.523504,-0.198635 -0.856832,0.02225 -0.198418,0.131811 -0.404118,0.311576 -0.534213,0.512607 -0.15482,0.2385 -0.145923,0.410956 -0.115472,0.475877 0.10774,0.231877 0.482946,0.307058 0.64666,0.390969 -0.0059,0.0053 -0.01113,0.01046 -0.01604,0.01499 -0.059,0.04985 -0.281643,0.247566 -0.31048,0.405251 -0.03248,0.178368 0.08004,0.272834 0.139762,0.274438 0.184725,0.0051 0.340094,-0.125349 0.400352,-0.291414 0.05974,-0.165931 0.0023,-0.347738 -0.06259,-0.421093 l -0.0023,-0.0027 0.04502,-0.04418 c 0.02911,-0.02867 0.05809,-0.05566 0.08358,-0.07904 -0.0053,0.04912 -0.004,0.105353 0.0091,0.184479 0.01546,0.09282 0.08204,0.201477 0.142767,0.235788 0.02675,0.01476 0.05274,0.0089 0.06877,0.0048 0.0569,-0.01418 0.07103,-0.06768 0.08544,-0.131137 0.01805,-0.07755 0.02924,-0.164926 0.02924,-0.164926 0,0 0.01493,0.225335 0.120955,0.198926 0.03879,-0.0096 0.06509,-0.06949 0.07623,-0.09973 l 1.32e-4,5.3e-4 c 0,0 6.65e-4,-0.0019 0.0018,-0.006 0.0026,-0.0072 0.0038,-0.01138 0.0038,-0.01138 l -2.65e-4,-10e-4 c 0.0088,-0.03077 0.02814,-0.10094 0.05448,-0.215706 0.03401,-0.147987 0.05717,-0.328429 0.05717,-0.328429 0,0 0.01627,0.03879 0.05189,0.100229 0.02117,0.03648 0.05669,0.07322 0.08626,0.110344 -0.01015,0.02559 -0.01632,0.04032 -0.01632,0.04032 l 6.63e-4,4e-4 c -0.0083,0.01965 -0.01787,0.0407 -0.02797,0.06189 -0.03704,0.07623 -0.08224,0.163845 -0.08535,0.186592 -0.0038,0.02675 0.0028,0.04434 0.02555,0.05405 0.01654,0.0069 0.04189,0.0027 0.06775,-0.0059 0.04681,-0.01496 0.07694,-0.0351 0.09169,-0.04646 0.02354,-0.01575 0.04954,-0.03705 0.07284,-0.06483 0.04219,-0.05115 0.0602,-0.113319 0.03907,-0.184954 -0.01152,-0.03943 -0.0342,-0.07552 -0.05949,-0.10877 0.0029,-0.008 0.006,-0.01577 0.0088,-0.02417 0.05196,-0.139826 0.08234,-0.28691 0.08234,-0.28691 0,0 0.01627,0.03879 0.05188,0.100229 0.0182,0.03117 0.047,0.063 0.07361,0.09482 -0.06096,0.08165 -0.09102,0.166034 -0.09572,0.217739 -0.0086,0.09552 0.02507,0.129429 0.0724,0.127526 0.0212,-8.6e-4 0.04785,-0.0174 0.06725,-0.03213 0.02471,-0.01549 0.05355,-0.03861 0.07801,-0.06831 0.04219,-0.05114 0.07857,-0.116793 0.05808,-0.188039 -0.0098,-0.03271 -0.02671,-0.06311 -0.04633,-0.09118 0.05847,-0.04313 0.138909,-0.07964 0.249188,-0.09338 0.236853,-0.03042 0.318177,0.102018 0.324327,0.164204 0.0062,0.06219 -0.03371,0.107264 -0.04716,0.121602 -0.01359,0.01383 -0.01786,0.01874 -0.0145,0.02559 0.0048,0.01036 0.01189,0.0081 0.02534,0.0025 0.01836,-0.0078 0.108788,-0.07928 0.08536,-0.190988 -0.02921,-0.143779 -0.202853,-0.265316 -0.441929,-0.204122 z m -1.62599,1.040497 c -0.05529,0.102205 -0.154492,0.160418 -0.206703,0.144859 -0.05622,-0.0162 -0.06761,-0.14355 0.004,-0.255307 0.0435,-0.06796 0.105089,-0.13603 0.146105,-0.178654 0.0092,-0.0094 0.0233,-0.02338 0.03998,-0.04016 0.0026,-0.0028 0.0044,-0.0044 0.0044,-0.0044 0.0031,-0.0029 0.0067,-0.0066 0.01015,-0.01015 0.06608,0.117568 0.06059,0.236481 0.0022,0.343865 z m 0.461826,-0.516551 c -0.01025,0.07122 -0.02478,0.251153 -0.06072,0.250217 -0.03089,-5.47e-4 -0.07978,-0.121845 -0.06984,-0.256149 0.0051,-0.06774 0.03052,-0.15316 0.04917,-0.188564 0.0303,-0.05698 0.07195,-0.08384 0.08809,-0.06753 0.01962,0.02148 -1.91e-4,0.217562 -0.0067,0.262028 z m 0.513375,0.105034 c -0.0099,0.0085 -0.01928,0.01523 -0.0247,0.01332 -0.0042,-0.0012 0.0022,-0.01097 0.0022,-0.01097 0,0 0.04208,-0.07585 0.05776,-0.109959 0.0088,-0.01977 0.01956,-0.04278 0.03069,-0.06862 l 0.0016,0.0063 c 0.01855,0.07447 -0.04045,0.141904 -0.06751,0.170063 z m 0.333668,-0.168795 c -0.0098,-0.0042 -0.01352,-0.02355 -5.68e-4,-0.09049 0.0049,-0.0265 0.01984,-0.07252 0.05336,-0.120951 0.009,0.01423 0.01588,0.02845 0.01884,0.04255 0.02266,0.09323 -0.0349,0.144366 -0.07164,0.168895 z"
         id="path1-8"
         style="fill:#e7b2cd;fill-opacity:1;stroke-width:0.00533004"
         transform="matrix(21.333056,0,0,21.333056,-73.285709,-288.06763)"
         inkscape:label="Wordmark" /></g><rect
       style="font-variation-settings:normal;display:inline;fill:none;stroke:#cf649a;stroke-width:1.99928;stroke-linecap:butt;stroke-linejoin:miter;stroke-miterlimit:4;stroke-dasharray:none;stroke-dashoffset:0;stroke-opacity:1;stop-color:#000000"
       id="rect1-18-1"
       width="48.000725"
       height="48.000725"
       x="0.99963778"
       y="0.99963778"
       rx="6.9104829"
       ry="6.9104829"
       inkscape:label="Border" /></g><style
     type="text/css"
     id="style1">
	.st0{fill:url(#ICON_00000088831890668800157600000002638584723837204667_);}
</style><style
     id="style1-7">.st10{fill:#333}</style><style
     type="text/css"
     id="style1-1">
	.st0{fill:url(#ICON_00000088831890668800157600000002638584723837204667_);}
</style><style
     id="style1-7-2">.st10{fill:#333}</style><style
     id="style1-0">.style0{enable-background: new 0 0 920 320;}.style1{fill: #669999;}.style2{opacity: 0.5;}.style3{fill: #FFFFFF;}.style4{opacity: 0.25;}.style5{opacity: 0.5;fill: #FFFFFF;}</style></svg>
