<?xml version="1.0" encoding="UTF-8" standalone="no"?>
<!-- Created with Inkscape (http://www.inkscape.org/) -->

<svg
   width="50mm"
   height="50mm"
   viewBox="0 0 50 50"
   version="1.1"
   id="svg1"
   xml:space="preserve"
   xmlns:xlink="http://www.w3.org/1999/xlink"
   xmlns="http://www.w3.org/2000/svg"
   xmlns:svg="http://www.w3.org/2000/svg"><defs
     id="defs1"><linearGradient
       id="linearGradient15"><stop
         style="stop-color:#e40097;stop-opacity:0.50059229;"
         offset="0"
         id="stop15" /><stop
         style="stop-color:#a33277;stop-opacity:0.80000001;"
         offset="1"
         id="stop16" /></linearGradient><linearGradient
       id="linearGradient2"><stop
         style="stop-color:#d84fa5;stop-opacity:1;"
         offset="0"
         id="stop2" /><stop
         style="stop-color:#d84fa5;stop-opacity:0;"
         offset="0.30000001"
         id="stop4" /><stop
         style="stop-color:#ce3a99;stop-opacity:0;"
         offset="0.70323098"
         id="stop17" /><stop
         style="stop-color:#ce3a99;stop-opacity:1;"
         offset="0.99775267"
         id="stop3" /></linearGradient><linearGradient
       xlink:href="#linearGradient2"
       id="linearGradient9"
       x1="25.000004"
       y1="2.3639462"
       x2="25.000004"
       y2="47.63604"
       gradientUnits="userSpaceOnUse" /><radialGradient
       xlink:href="#linearGradient15"
       id="radialGradient16"
       cx="25"
       cy="25"
       fx="25"
       fy="25"
       r="25"
       gradientUnits="userSpaceOnUse"
       gradientTransform="translate(-1.4131944e-6)" /></defs><g
     id="layer1"><rect
       style="font-variation-settings:normal;opacity:1;vector-effect:none;fill:#000000;fill-opacity:1;stroke:none;stroke-width:0.260698;stroke-linecap:butt;stroke-linejoin:miter;stroke-miterlimit:4;stroke-dasharray:none;stroke-dashoffset:0;stroke-opacity:1;-inkscape-stroke:none;stop-color:#000000;stop-opacity:1"
       id="rect1"
       width="50"
       height="50"
       x="0"
       y="0"
       rx="7.1983109"
       ry="7.1983109" /><rect
       style="font-variation-settings:normal;vector-effect:none;fill:url(#radialGradient16);stroke:none;stroke-width:0.260698;stroke-linecap:butt;stroke-linejoin:miter;stroke-miterlimit:4;stroke-dasharray:none;stroke-dashoffset:0;stroke-opacity:1;-inkscape-stroke:none;stop-color:#000000"
       id="rect1-18"
       width="50"
       height="50"
       x="-2.5812685e-15"
       y="6.9388939e-16"
       rx="7.1983109"
       ry="7.1983109" /><rect
       style="fill:none;fill-opacity:1;stroke:url(#linearGradient9);stroke-width:1;stroke-dasharray:none"
       id="rect1-1"
       width="45.037273"
       height="45.037273"
       x="2.4813633"
       y="2.4813633"
       rx="6.4838462"
       ry="6.4838462" /></g><path
     d="m 31.947951,31.430481 c -0.106462,-0.07578 -0.08876,-0.320666 0.261372,-1.083406 0.137454,-0.299473 0.451077,-0.803657 0.996302,-1.285484 0.06315,0.198157 0.101687,0.388169 0.100577,0.565072 -0.007,1.180126 -0.849047,1.620853 -1.358254,1.803818 z m -4.481862,1.021651 c -0.142723,0.07467 -0.273562,0.121596 -0.334388,0.08539 -0.04459,-0.02663 0.05886,-0.124947 0.05886,-0.124947 0,0 0.727763,-0.782836 1.014373,-1.139338 0.166733,-0.207285 0.360054,-0.453344 0.570706,-0.72856 0.0017,0.02751 0.0026,0.05477 0.0026,0.08171 -0.0022,0.937927 -0.908158,1.571171 -1.312193,1.825736 z m -5.817821,-2.775915 c -0.336653,0.820748 -1.041262,2.920483 -1.470105,2.807951 -0.368138,-0.09659 -0.59233,-1.692753 -0.0735,-3.263622 0.261127,-0.790732 0.81897,-1.735582 1.146682,-2.102312 0.527584,-0.590125 1.108459,-0.783137 1.24959,-0.543878 0.179904,0.304864 -0.641578,2.587385 -0.852662,3.101861 z m -7.041804,4.787159 c -0.966576,1.054489 -2.317016,1.452998 -2.89609,1.117349 -0.625296,-0.362577 -0.377645,-1.915015 0.80854,-3.03401 0.722991,-0.681934 1.656307,-1.310042 2.275478,-1.696925 0.140886,-0.08478 0.347925,-0.209305 0.599496,-0.360054 0.04171,-0.02377 0.06523,-0.03694 0.06523,-0.03694 l -9.21e-4,-0.0015 c 0.04858,-0.02904 0.09831,-0.05887 0.149706,-0.08956 0.431598,1.592736 0.01311,2.99496 -1.001448,4.101722 z M 37.09969,26.8802 c -1.172715,0.0061 -2.188435,0.287711 -3.039873,0.707365 -0.311417,-0.621487 -0.62657,-1.168244 -0.679494,-1.574789 -0.0618,-0.4746 -0.133412,-0.757717 -0.05881,-1.323095 0.07466,-0.565378 0.401766,-1.365973 0.39699,-1.425941 -0.0047,-0.05996 -0.07338,-0.347986 -0.749754,-0.352887 -0.676433,-0.0049 -1.255042,0.130105 -1.323095,0.308722 -0.06811,0.178618 -0.198342,0.580569 -0.279381,0.999672 -0.118466,0.61334 -1.350475,2.800735 -2.050002,3.94509 -0.228785,-0.446607 -0.423329,-0.840411 -0.463878,-1.151828 -0.06174,-0.474599 -0.133412,-0.757717 -0.05881,-1.323156 0.07467,-0.565317 0.401767,-1.366034 0.396989,-1.426003 -0.0047,-0.05997 -0.07332,-0.347925 -0.749754,-0.352825 -0.676431,-0.0049 -1.255041,0.130104 -1.323094,0.308722 -0.06811,0.178618 -0.140823,0.595945 -0.27938,0.999672 -0.138559,0.403789 -1.776255,4.052652 -2.205159,4.998419 -0.218555,0.481889 -0.408751,0.869017 -0.54302,1.133453 -3.65e-4,-6.96e-4 -8.52e-4,-0.0014 -8.52e-4,-0.0014 0,0 -0.0083,0.01758 -0.02254,0.04729 -0.114913,0.225048 -0.183335,0.349566 -0.183335,0.349566 0,0 7.3e-4,0.0017 0.002,0.0046 -0.09115,0.165269 -0.188847,0.318761 -0.237238,0.318761 -0.03381,0 -0.101504,-0.439928 0.01477,-1.043764 0.243671,-1.26576 0.82908,-3.239744 0.82326,-3.307736 -0.003,-0.03486 0.108788,-0.378797 -0.382288,-0.55864 -0.477356,-0.174698 -0.647336,0.11669 -0.690889,0.117608 -0.04221,9.21e-4 -0.07357,0.10297 -0.07357,0.10297 0,0 0.53181,-2.219859 -1.014373,-2.219859 -0.966656,0 -2.306105,1.057434 -2.965938,2.015943 -0.416408,0.227131 -1.307476,0.713552 -2.252875,1.23299 -0.363116,0.199443 -0.733644,0.403359 -1.084999,0.596923 -0.02389,-0.02646 -0.04772,-0.05299 -0.07228,-0.0792 -1.874845,-2.000334 -5.340697,-3.415127 -5.193613,-6.104256 0.05346,-0.977621 0.393272,-3.551776 6.659608,-6.674279 5.133118,-2.557861 9.24243,-1.853987 9.952614,-0.294021 1.014494,2.228679 -2.196215,6.370763 -7.527001,6.9683 -2.031074,0.227682 -3.100514,-0.559437 -3.366542,-0.852661 -0.279994,-0.3086 -0.32177,-0.322505 -0.42633,-0.264619 -0.170288,0.09439 -0.06236,0.366852 0,0.529237 0.159199,0.414264 0.812293,1.148826 1.925837,1.514209 0.979581,0.321463 3.364215,0.498059 6.247948,-0.617444 3.229945,-1.249345 5.752034,-4.724797 5.011223,-7.629848 -0.753369,-2.954606 -5.652312,-3.925916 -10.288839,-2.278663 -2.75945,0.980315 -5.746667,2.518965 -7.894473,4.527925 -2.5538066,2.388737 -2.9610523,4.467773 -2.7932485,5.336482 0.5962483,3.086671 4.8506795,5.096734 6.5543355,6.586441 -0.08411,0.04637 -0.162936,0.08992 -0.234666,0.129491 -0.854149,0.422533 -4.097165,2.119703 -4.9083577,3.912926 -0.9201519,2.034079 0.1464899,3.493463 0.8526627,3.689957 2.187902,0.608811 4.433084,-0.48623 5.639673,-2.285941 1.206343,-1.799297 1.059027,-4.142144 0.505348,-5.211583 -0.0069,-0.0133 -0.01445,-0.02628 -0.0215,-0.03945 0.220515,-0.130533 0.445441,-0.263271 0.668346,-0.394172 0.434722,-0.255247 0.861421,-0.493404 1.231764,-0.694932 -0.207163,0.567768 -0.35895,1.248305 -0.437908,2.231132 -0.09274,1.154657 0.380452,2.647108 0.999673,3.234286 0.272643,0.258493 0.60066,0.264571 0.808557,0.264571 0.720536,0 1.04935,-0.599435 1.411302,-1.308408 0.444033,-0.869499 0.837959,-1.881727 0.837959,-1.881727 0,0 -0.494444,2.734384 0.852724,2.734384 0.49083,0 0.984603,-0.636496 1.204506,-0.961022 6.08e-4,0.0036 9.2e-4,0.0055 9.2e-4,0.0055 0,0 0.01281,-0.02113 0.03779,-0.0635 0.05096,-0.07793 0.07982,-0.127533 0.07982,-0.127533 0,0 9.72e-4,-0.0052 0.0026,-0.0141 0.197301,-0.342596 0.634902,-1.123657 1.291181,-2.411647 0.847884,-1.664098 1.661158,-3.748769 1.661158,-3.748769 0,0 0.07565,0.509698 0.323423,1.352497 0.145787,0.495915 0.45549,1.044081 0.699831,1.569766 -0.196686,0.272889 -0.317604,0.429639 -0.317604,0.429639 0,0 0.0012,0.0029 0.0033,0.0082 -0.157177,0.208632 -0.333408,0.433803 -0.517783,0.65334 -0.669203,0.797041 -1.466307,1.707214 -1.573074,1.969941 -0.125693,0.309524 -0.09598,0.537196 0.14701,0.720365 0.177515,0.133773 0.493526,0.154519 0.82326,0.13229 0.601395,-0.04041 1.02454,-0.189576 1.233295,-0.280428 0.325444,-0.115091 0.704426,-0.296105 1.060131,-0.557538 0.656463,-0.482617 1.05241,-1.173023 1.014372,-2.087539 -0.02107,-0.504001 -0.181803,-1.00353 -0.385107,-1.475128 0.05961,-0.08564 0.119325,-0.172063 0.179231,-0.259596 1.034893,-1.512922 1.837633,-3.175428 1.837633,-3.175428 0,0 0.07565,0.509637 0.323483,1.352498 0.125388,0.426637 0.372794,0.891986 0.595271,1.348454 -0.973088,0.790671 -1.576567,1.709364 -1.786117,2.312109 -0.387434,1.114651 -0.08398,1.619737 0.485195,1.734711 0.257821,0.05214 0.621917,-0.06602 0.895846,-0.181967 0.340821,-0.113016 0.750367,-0.301251 1.132899,-0.582419 0.656464,-0.482619 1.287631,-1.158438 1.24959,-2.072905 -0.0174,-0.416346 -0.130288,-0.829568 -0.283485,-1.226558 0.824852,-0.343575 1.892822,-0.534628 3.2531,-0.375795 2.918158,0.340757 3.490642,2.162831 3.381242,2.925449 -0.109462,0.762677 -0.721577,1.181841 -0.926228,1.308466 -0.20459,0.126527 -0.267069,0.170458 -0.249856,0.264614 0.02487,0.136841 0.119507,0.131573 0.293959,0.102172 0.24024,-0.04055 1.532401,-0.620322 1.587714,-2.028015 0.07026,-1.787159 -1.641985,-3.75024 -4.674935,-3.734069"
     style="fill:#cd4a9c;fill-opacity:1;fill-rule:nonzero;stroke:none;stroke-width:0.00612542"
     id="path264" /></svg>
