<?xml version="1.0" encoding="UTF-8" standalone="no"?>
<svg
   height="50"
   width="50"
   version="1.1"
   id="svg83"
   xml:space="preserve"
   sodipodi:docname="Sass_Box.svg"
   inkscape:version="1.2.2 (b0a8486541, 2022-12-01)"
   xmlns:inkscape="http://www.inkscape.org/namespaces/inkscape"
   xmlns:sodipodi="http://sodipodi.sourceforge.net/DTD/sodipodi-0.dtd"
   xmlns:xlink="http://www.w3.org/1999/xlink"
   xmlns="http://www.w3.org/2000/svg"
   xmlns:svg="http://www.w3.org/2000/svg"><sodipodi:namedview
     id="namedview39"
     pagecolor="#ffffff"
     bordercolor="#000000"
     borderopacity="0.25"
     inkscape:showpageshadow="2"
     inkscape:pageopacity="0.0"
     inkscape:pagecheckerboard="0"
     inkscape:deskcolor="#d1d1d1"
     showgrid="false"
     inkscape:zoom="7.4670476"
     inkscape:cx="12.990409"
     inkscape:cy="26.717387"
     inkscape:window-width="2560"
     inkscape:window-height="1369"
     inkscape:window-x="0"
     inkscape:window-y="0"
     inkscape:window-maximized="1"
     inkscape:current-layer="g79" /><defs
     id="defs87"><linearGradient
       xlink:href="#h"
       id="linearGradient946"
       x1="90.365692"
       y1="44.776981"
       x2="192.66156"
       y2="44.776981"
       gradientUnits="userSpaceOnUse"
       gradientTransform="matrix(0.66198084,0,0,0.66198084,-45.679322,18.358495)" /><clipPath
       clipPathUnits="userSpaceOnUse"
       id="clipPath1028"><path
         d="m 62.022617,60.977617 c -0.214859,-0.152931 -0.179132,-0.647172 0.527506,-2.186542 0.27741,-0.604395 0.910371,-1.621946 2.010747,-2.594376 0.127462,0.399929 0.205214,0.783408 0.202989,1.140435 -0.01428,2.381739 -1.713556,3.271217 -2.741242,3.640483 z m -9.045327,2.061906 c -0.288046,0.150712 -0.552103,0.245402 -0.674867,0.172339 -0.09,-0.05374 0.118809,-0.252168 0.118809,-0.252168 0,0 1.468777,-1.579929 2.047216,-2.299418 0.336506,-0.418343 0.726662,-0.914943 1.151806,-1.470384 0.0034,0.05554 0.0054,0.11051 0.0054,0.164908 -0.0045,1.892935 -1.832853,3.170948 -2.648274,3.684719 z M 41.235717,57.437144 c -0.679438,1.656443 -2.101484,5.894141 -2.966978,5.667033 -0.742981,-0.194945 -1.195446,-3.41633 -0.148344,-6.58667 0.527011,-1.595864 1.652855,-3.502764 2.314246,-4.242905 1.06477,-1.190989 2.237098,-1.580533 2.521928,-1.097657 0.363083,0.615278 -1.294835,5.221884 -1.720846,6.260199 z m -14.211828,9.661485 c -1.950752,2.128177 -4.676219,2.93245 -5.844913,2.255046 -1.261982,-0.731761 -0.762167,-3.864902 1.631803,-6.123264 1.45915,-1.376285 3.34277,-2.643939 4.592386,-3.424751 0.28434,-0.171096 0.702189,-0.422424 1.209909,-0.726664 0.08418,-0.048 0.131661,-0.07454 0.131661,-0.07454 l -0.002,-0.0034 c 0.09803,-0.05858 0.198415,-0.11881 0.302142,-0.180741 0.871053,3.214475 0.02648,6.044455 -2.021135,8.278131 z M 72.4199,51.794202 c -2.366781,0.01243 -4.416717,0.580664 -6.135093,1.427607 -0.628505,-1.254288 -1.264548,-2.357755 -1.371365,-3.178247 -0.124724,-0.957841 -0.269247,-1.529237 -0.118676,-2.670286 0.150696,-1.14105 0.810847,-2.756813 0.801202,-2.877844 -0.0097,-0.121027 -0.148092,-0.702309 -1.513155,-0.712199 -1.365184,-0.0097 -2.532938,0.262576 -2.670278,0.623064 -0.137474,0.360489 -0.4003,1.171712 -0.563857,2.017547 -0.239087,1.237851 -2.725539,5.652467 -4.137327,7.962014 -0.461732,-0.901347 -0.854366,-1.696122 -0.936206,-2.324633 -0.124605,-0.95784 -0.269248,-1.529228 -0.118675,-2.670404 0.150696,-1.140925 0.810847,-2.756939 0.801202,-2.877967 -0.0097,-0.121028 -0.147974,-0.702183 -1.513156,-0.712073 -1.365183,-0.0097 -2.532937,0.262573 -2.670279,0.623063 -0.137474,0.360488 -0.284214,1.202739 -0.563855,2.017544 -0.279633,0.814932 -3.584851,8.179098 -4.450463,10.087854 -0.441092,0.972548 -0.824949,1.753857 -1.095931,2.28754 -6.62e-4,-0.0013 -0.002,-0.0025 -0.002,-0.0025 0,0 -0.01663,0.03548 -0.04548,0.09544 -0.231918,0.454191 -0.370007,0.7055 -0.370007,0.7055 0,0 0.0013,0.0034 0.004,0.0094 -0.183958,0.333546 -0.381137,0.643326 -0.478798,0.643326 -0.06824,0 -0.204849,-0.887868 0.02979,-2.106528 0.49178,-2.554571 1.673257,-6.538485 1.661513,-6.675707 -0.006,-0.07034 0.219553,-0.764487 -0.771538,-1.127453 -0.963401,-0.352572 -1.306459,0.235507 -1.394358,0.23736 -0.08518,0.002 -0.148478,0.207816 -0.148478,0.207816 0,0 1.07331,-4.480141 -2.047216,-4.480141 -1.950909,0 -4.654195,2.134127 -5.985876,4.068593 -0.840396,0.458397 -2.638761,1.440101 -4.546775,2.488433 -0.73284,0.402518 -1.480646,0.814064 -2.189752,1.204713 -0.04818,-0.05342 -0.0963,-0.106932 -0.145875,-0.159835 -3.78383,-4.036995 -10.778638,-6.892343 -10.481793,-12.319566 0.107883,-1.973041 0.793702,-7.168221 13.440476,-13.470087 10.359704,-5.162291 18.653151,-3.741726 20.086445,-0.593393 2.047461,4.497941 -4.432418,12.857529 -15.191057,14.06348 -4.099123,0.459514 -6.257478,-1.129062 -6.794379,-1.720846 -0.565086,-0.622818 -0.649397,-0.650881 -0.860422,-0.53406 -0.343674,0.190505 -0.125849,0.740386 0,1.068112 0.321298,0.836069 1.639376,2.318576 3.88674,3.055989 1.976999,0.648781 6.789687,1.005193 12.609664,-1.246133 6.518697,-2.521432 11.608793,-9.535622 10.113684,-15.398615 -1.520452,-5.963009 -11.40754,-7.92332 -20.765015,-4.59882 -5.569146,1.978482 -11.597971,5.083794 -15.93269,9.138294 -5.154117,4.820969 -5.976025,9.016895 -5.637363,10.770138 1.203356,6.229537 9.789686,10.286261 13.228021,13.292806 -0.169739,0.09358 -0.328846,0.181477 -0.473607,0.261338 -1.723851,0.852764 -8.268937,4.278005 -9.906089,7.8971 -1.857061,4.105194 0.295648,7.050533 1.720846,7.447099 4.415646,1.22871 8.946891,-0.981313 11.382041,-4.613503 2.434653,-3.631356 2.137338,-8.359706 1.0199,-10.518062 -0.01378,-0.02681 -0.02918,-0.05302 -0.04343,-0.07961 0.445043,-0.263443 0.898989,-0.531332 1.34886,-0.795516 0.877361,-0.515146 1.738526,-0.995798 2.485955,-1.402519 -0.418094,1.145876 -0.724432,2.519333 -0.883785,4.502886 -0.187167,2.330338 0.767826,5.342416 2.017546,6.527461 0.550252,0.521696 1.212259,0.533962 1.631836,0.533962 1.454193,0 2.117803,-1.20979 2.848299,-2.640635 0.896156,-1.754832 1.691182,-3.797725 1.691182,-3.797725 0,0 -0.997896,5.518558 1.720972,5.518558 0.990593,0 1.987132,-1.28458 2.43094,-1.939538 0.0013,0.0072 0.002,0.01092 0.002,0.01092 0,0 0.02582,-0.04262 0.07627,-0.128151 0.102866,-0.157265 0.161078,-0.257384 0.161078,-0.257384 0,0 0.002,-0.01042 0.0054,-0.02846 0.398194,-0.691431 1.281363,-2.267773 2.605867,-4.867207 1.711207,-3.3585 3.352569,-7.5658 3.352569,-7.5658 0,0 0.152678,1.02868 0.652732,2.729626 0.294225,1.000855 0.919267,2.107172 1.412403,3.168114 -0.396957,0.550742 -0.640989,0.867096 -0.640989,0.867096 0,0 0.0025,0.006 0.0067,0.01646 -0.317221,0.421065 -0.67289,0.875509 -1.044997,1.318573 -1.350592,1.6086 -2.959312,3.445517 -3.174793,3.975751 -0.253679,0.624686 -0.193716,1.084173 0.296699,1.45385 0.358265,0.269981 0.996037,0.311851 1.661505,0.266989 1.213743,-0.08156 2.067737,-0.382605 2.489048,-0.565967 0.656819,-0.232277 1.421678,-0.597596 2.139562,-1.125222 1.324883,-0.974025 2.123992,-2.367402 2.047216,-4.213084 -0.0425,-1.017179 -0.366917,-2.025337 -0.777218,-2.977119 0.120288,-0.172824 0.240816,-0.347263 0.361719,-0.523918 2.08863,-3.053394 3.708729,-6.408676 3.708729,-6.408676 0,0 0.152679,1.028551 0.652858,2.729623 0.253055,0.861039 0.752375,1.800211 1.201375,2.721458 -1.963891,1.595743 -3.181836,3.449859 -3.604756,4.666315 -0.781919,2.249603 -0.169487,3.268966 0.979229,3.501011 0.520336,0.105219 1.255154,-0.133241 1.808002,-0.367248 0.687844,-0.228083 1.514394,-0.607982 2.286428,-1.175445 1.324883,-0.974019 2.598706,-2.337964 2.521929,-4.183546 -0.03508,-0.840279 -0.262946,-1.674243 -0.572131,-2.475452 1.664724,-0.693411 3.820113,-1.078995 6.565433,-0.758438 5.889453,0.687725 7.04484,4.365049 6.824051,5.904167 -0.220917,1.539245 -1.456293,2.385204 -1.869323,2.64076 -0.412903,0.25536 -0.538997,0.344021 -0.504262,0.53404 0.05018,0.276181 0.241191,0.265548 0.593272,0.206209 0.484855,-0.08185 3.092702,-1.25194 3.204338,-4.092963 0.141792,-3.606855 -3.313869,-7.568757 -9.434994,-7.536122"
         style="fill:url(#linearGradient1032);fill-opacity:1;fill-rule:nonzero;stroke:none;stroke-width:0.0123624"
         id="path1030" /></clipPath><linearGradient
       xlink:href="#h"
       id="linearGradient1032"
       gradientUnits="userSpaceOnUse"
       gradientTransform="matrix(0.66198084,0,0,0.66198084,-45.679321,18.358495)"
       x1="90.365692"
       y1="44.776981"
       x2="192.66156"
       y2="44.776981" /><filter
       style="color-interpolation-filters:sRGB"
       id="filter1034"
       x="-0.026227828"
       y="-0.027819016"
       width="1.0524557"
       height="1.055638"><feGaussianBlur
         stdDeviation="0.89398476"
         id="feGaussianBlur1036" /></filter><clipPath
       clipPathUnits="userSpaceOnUse"
       id="clipPath969"><path
         d="m 62.022617,60.977617 c -0.214859,-0.152931 -0.179132,-0.647172 0.527506,-2.186542 0.27741,-0.604395 0.910371,-1.621946 2.010747,-2.594376 0.127462,0.399929 0.205214,0.783408 0.202989,1.140435 -0.01428,2.381739 -1.713556,3.271217 -2.741242,3.640483 z m -9.045327,2.061906 c -0.288046,0.150712 -0.552103,0.245402 -0.674867,0.172339 -0.09,-0.05374 0.118809,-0.252168 0.118809,-0.252168 0,0 1.468777,-1.579929 2.047216,-2.299418 0.336506,-0.418343 0.726662,-0.914943 1.151806,-1.470384 0.0034,0.05554 0.0054,0.11051 0.0054,0.164908 -0.0045,1.892935 -1.832853,3.170948 -2.648274,3.684719 z M 41.235717,57.437144 c -0.679438,1.656443 -2.101484,5.894141 -2.966978,5.667033 -0.742981,-0.194945 -1.195446,-3.41633 -0.148344,-6.58667 0.527011,-1.595864 1.652855,-3.502764 2.314246,-4.242905 1.06477,-1.190989 2.237098,-1.580533 2.521928,-1.097657 0.363083,0.615278 -1.294835,5.221884 -1.720846,6.260199 z m -14.211828,9.661485 c -1.950752,2.128177 -4.676219,2.93245 -5.844913,2.255046 -1.261982,-0.731761 -0.762167,-3.864902 1.631803,-6.123264 1.45915,-1.376285 3.34277,-2.643939 4.592386,-3.424751 0.28434,-0.171096 0.702189,-0.422424 1.209909,-0.726664 0.08418,-0.048 0.131661,-0.07454 0.131661,-0.07454 l -0.002,-0.0034 c 0.09803,-0.05858 0.198415,-0.11881 0.302142,-0.180741 0.871053,3.214475 0.02648,6.044455 -2.021135,8.278131 z M 72.4199,51.794202 c -2.366781,0.01243 -4.416717,0.580664 -6.135093,1.427607 -0.628505,-1.254288 -1.264548,-2.357755 -1.371365,-3.178247 -0.124724,-0.957841 -0.269247,-1.529237 -0.118676,-2.670286 0.150696,-1.14105 0.810847,-2.756813 0.801202,-2.877844 -0.0097,-0.121027 -0.148092,-0.702309 -1.513155,-0.712199 -1.365184,-0.0097 -2.532938,0.262576 -2.670278,0.623064 -0.137474,0.360489 -0.4003,1.171712 -0.563857,2.017547 -0.239087,1.237851 -2.725539,5.652467 -4.137327,7.962014 -0.461732,-0.901347 -0.854366,-1.696122 -0.936206,-2.324633 -0.124605,-0.95784 -0.269248,-1.529228 -0.118675,-2.670404 0.150696,-1.140925 0.810847,-2.756939 0.801202,-2.877967 -0.0097,-0.121028 -0.147974,-0.702183 -1.513156,-0.712073 -1.365183,-0.0097 -2.532937,0.262573 -2.670279,0.623063 -0.137474,0.360488 -0.284214,1.202739 -0.563855,2.017544 -0.279633,0.814932 -3.584851,8.179098 -4.450463,10.087854 -0.441092,0.972548 -0.824949,1.753857 -1.095931,2.28754 -6.62e-4,-0.0013 -0.002,-0.0025 -0.002,-0.0025 0,0 -0.01663,0.03548 -0.04548,0.09544 -0.231918,0.454191 -0.370007,0.7055 -0.370007,0.7055 0,0 0.0013,0.0034 0.004,0.0094 -0.183958,0.333546 -0.381137,0.643326 -0.478798,0.643326 -0.06824,0 -0.204849,-0.887868 0.02979,-2.106528 0.49178,-2.554571 1.673257,-6.538485 1.661513,-6.675707 -0.006,-0.07034 0.219553,-0.764487 -0.771538,-1.127453 -0.963401,-0.352572 -1.306459,0.235507 -1.394358,0.23736 -0.08518,0.002 -0.148478,0.207816 -0.148478,0.207816 0,0 1.07331,-4.480141 -2.047216,-4.480141 -1.950909,0 -4.654195,2.134127 -5.985876,4.068593 -0.840396,0.458397 -2.638761,1.440101 -4.546775,2.488433 -0.73284,0.402518 -1.480646,0.814064 -2.189752,1.204713 -0.04818,-0.05342 -0.0963,-0.106932 -0.145875,-0.159835 -3.78383,-4.036995 -10.778638,-6.892343 -10.481793,-12.319566 0.107883,-1.973041 0.793702,-7.168221 13.440476,-13.470087 10.359704,-5.162291 18.653151,-3.741726 20.086445,-0.593393 2.047461,4.497941 -4.432418,12.857529 -15.191057,14.06348 -4.099123,0.459514 -6.257478,-1.129062 -6.794379,-1.720846 -0.565086,-0.622818 -0.649397,-0.650881 -0.860422,-0.53406 -0.343674,0.190505 -0.125849,0.740386 0,1.068112 0.321298,0.836069 1.639376,2.318576 3.88674,3.055989 1.976999,0.648781 6.789687,1.005193 12.609664,-1.246133 6.518697,-2.521432 11.608793,-9.535622 10.113684,-15.398615 -1.520452,-5.963009 -11.40754,-7.92332 -20.765015,-4.59882 -5.569146,1.978482 -11.597971,5.083794 -15.93269,9.138294 -5.154117,4.820969 -5.976025,9.016895 -5.637363,10.770138 1.203356,6.229537 9.789686,10.286261 13.228021,13.292806 -0.169739,0.09358 -0.328846,0.181477 -0.473607,0.261338 -1.723851,0.852764 -8.268937,4.278005 -9.906089,7.8971 -1.857061,4.105194 0.295648,7.050533 1.720846,7.447099 4.415646,1.22871 8.946891,-0.981313 11.382041,-4.613503 2.434653,-3.631356 2.137338,-8.359706 1.0199,-10.518062 -0.01378,-0.02681 -0.02918,-0.05302 -0.04343,-0.07961 0.445043,-0.263443 0.898989,-0.531332 1.34886,-0.795516 0.877361,-0.515146 1.738526,-0.995798 2.485955,-1.402519 -0.418094,1.145876 -0.724432,2.519333 -0.883785,4.502886 -0.187167,2.330338 0.767826,5.342416 2.017546,6.527461 0.550252,0.521696 1.212259,0.533962 1.631836,0.533962 1.454193,0 2.117803,-1.20979 2.848299,-2.640635 0.896156,-1.754832 1.691182,-3.797725 1.691182,-3.797725 0,0 -0.997896,5.518558 1.720972,5.518558 0.990593,0 1.987132,-1.28458 2.43094,-1.939538 0.0013,0.0072 0.002,0.01092 0.002,0.01092 0,0 0.02582,-0.04262 0.07627,-0.128151 0.102866,-0.157265 0.161078,-0.257384 0.161078,-0.257384 0,0 0.002,-0.01042 0.0054,-0.02846 0.398194,-0.691431 1.281363,-2.267773 2.605867,-4.867207 1.711207,-3.3585 3.352569,-7.5658 3.352569,-7.5658 0,0 0.152678,1.02868 0.652732,2.729626 0.294225,1.000855 0.919267,2.107172 1.412403,3.168114 -0.396957,0.550742 -0.640989,0.867096 -0.640989,0.867096 0,0 0.0025,0.006 0.0067,0.01646 -0.317221,0.421065 -0.67289,0.875509 -1.044997,1.318573 -1.350592,1.6086 -2.959312,3.445517 -3.174793,3.975751 -0.253679,0.624686 -0.193716,1.084173 0.296699,1.45385 0.358265,0.269981 0.996037,0.311851 1.661505,0.266989 1.213743,-0.08156 2.067737,-0.382605 2.489048,-0.565967 0.656819,-0.232277 1.421678,-0.597596 2.139562,-1.125222 1.324883,-0.974025 2.123992,-2.367402 2.047216,-4.213084 -0.0425,-1.017179 -0.366917,-2.025337 -0.777218,-2.977119 0.120288,-0.172824 0.240816,-0.347263 0.361719,-0.523918 2.08863,-3.053394 3.708729,-6.408676 3.708729,-6.408676 0,0 0.152679,1.028551 0.652858,2.729623 0.253055,0.861039 0.752375,1.800211 1.201375,2.721458 -1.963891,1.595743 -3.181836,3.449859 -3.604756,4.666315 -0.781919,2.249603 -0.169487,3.268966 0.979229,3.501011 0.520336,0.105219 1.255154,-0.133241 1.808002,-0.367248 0.687844,-0.228083 1.514394,-0.607982 2.286428,-1.175445 1.324883,-0.974019 2.598706,-2.337964 2.521929,-4.183546 -0.03508,-0.840279 -0.262946,-1.674243 -0.572131,-2.475452 1.664724,-0.693411 3.820113,-1.078995 6.565433,-0.758438 5.889453,0.687725 7.04484,4.365049 6.824051,5.904167 -0.220917,1.539245 -1.456293,2.385204 -1.869323,2.64076 -0.412903,0.25536 -0.538997,0.344021 -0.504262,0.53404 0.05018,0.276181 0.241191,0.265548 0.593272,0.206209 0.484855,-0.08185 3.092702,-1.25194 3.204338,-4.092963 0.141792,-3.606855 -3.313869,-7.568757 -9.434994,-7.536122"
         style="fill:url(#linearGradient973);fill-opacity:1;fill-rule:nonzero;stroke:none;stroke-width:0.0123624"
         id="path971" /></clipPath><linearGradient
       inkscape:collect="always"
       xlink:href="#h"
       id="linearGradient973"
       gradientUnits="userSpaceOnUse"
       gradientTransform="matrix(0.66198084,0,0,0.66198084,-45.679321,18.358495)"
       x1="90.365692"
       y1="44.776981"
       x2="192.66156"
       y2="44.776981" /><filter
       inkscape:collect="always"
       style="color-interpolation-filters:sRGB"
       id="filter975"
       x="-0.026153784"
       y="-0.027902808"
       width="1.0523076"
       height="1.0558056"><feGaussianBlur
         inkscape:collect="always"
         stdDeviation="0.80718135"
         id="feGaussianBlur977" /></filter></defs><linearGradient
     id="a"
     gradientUnits="userSpaceOnUse"
     x1="48"
     x2="48"
     y1="90"
     y2="5.9877172"><stop
       offset="0"
       stop-color="#ebebeb"
       id="stop2"
       style="stop-color:#585858;stop-opacity:1;" /><stop
       offset="1"
       stop-color="#fafafa"
       id="stop4"
       style="stop-color:#818181;stop-opacity:1;" /></linearGradient><linearGradient
     id="b"
     gradientTransform="matrix(1.0058652,0,0,0.994169,100,0)"
     gradientUnits="userSpaceOnUse"
     x1="45.447727"
     x2="45.447727"
     y1="92.539597"
     y2="7.0165401"><stop
       offset="0"
       id="stop7" /><stop
       offset="1"
       stop-opacity=".588235"
       id="stop9" /></linearGradient><linearGradient
     id="c"
     gradientTransform="matrix(1.0238095,0,0,1.0119048,-1.142857,-98.071429)"
     gradientUnits="userSpaceOnUse"
     x1="32.251034"
     x2="32.251034"
     xlink:href="#b"
     y1="6.1317081"
     y2="90.238609" /><linearGradient
     id="d"
     gradientTransform="translate(0,-97)"
     gradientUnits="userSpaceOnUse"
     x1="32.251034"
     x2="32.251034"
     xlink:href="#b"
     y1="6.1317081"
     y2="90.238609" /><linearGradient
     id="e"><stop
       offset="0"
       stop-color="#fff"
       id="stop14" /><stop
       offset="1"
       stop-color="#fff"
       stop-opacity="0"
       id="stop16" /></linearGradient><radialGradient
     id="f"
     cx="48"
     cy="90.171875"
     gradientTransform="matrix(1.1573129,0,0,0.99590774,-7.551021,0.197132)"
     gradientUnits="userSpaceOnUse"
     r="42"
     xlink:href="#e" /><linearGradient
     id="g"
     gradientUnits="userSpaceOnUse"
     x1="36.357143"
     x2="36.357143"
     xlink:href="#e"
     y1="6"
     y2="63.893143"
     gradientTransform="matrix(0.91995739,0,0,0.98668795,0.48025569,1.1935087)" /><linearGradient
     id="h"
     gradientTransform="rotate(-90,48.000087,47.999896)"
     gradientUnits="userSpaceOnUse"
     x1="18.000002"
     x2="78.000175"
     y1="47.999897"
     y2="47.999897"><stop
       offset="0"
       stop-color="#bababa"
       id="stop21"
       style="stop-color:#818181;stop-opacity:1;" /><stop
       offset="1"
       stop-color="#d2d2d2"
       id="stop23"
       style="stop-color:#a7a7a7;stop-opacity:1;" /></linearGradient><clipPath
     id="i"><path
       d="m -88,6 c -3.324,0 -6,2.676 -6,6 v 72 c 0,3.324 2.676,6 6,6 h 72 c 3.324,0 6,-2.676 6,-6 V 12 c 0,-3.324 -2.676,-6 -6,-6 z m 31.84375,12 h 8.3125 c 1.180648,0 2.125,0.986683 2.125,2.1875 v 4.21875 c 2.111082,0.562476 4.123141,1.426616 5.96875,2.5 l 3,-3.03125 c 0.849111,-0.849025 2.196406,-0.866085 3.03125,-0.03125 l 5.875,5.875 c 0.834848,0.834847 0.817863,2.18214 -0.03125,3.03125 l -3.03125,3 c 1.073391,1.845617 1.937528,3.857672 2.5,5.96875 h 4.21875 c 1.200827,0 2.1875,0.944356 2.1875,2.125 v 8.3125 c 0,1.180653 -0.986672,2.125 -2.1875,2.125 h -4.21875 c -0.562472,2.111079 -1.426609,4.123134 -2.5,5.96875 l 3.03125,3 c 0.849106,0.849111 0.866094,2.196416 0.03125,3.03125 l -5.875,5.875 c -0.834844,0.834921 -2.182138,0.81786 -3.03125,-0.03125 l -3,-3.03125 c -1.84561,1.073389 -3.857669,1.937515 -5.96875,2.5 v 4.21875 c 0,1.200828 -0.944354,2.1875 -2.125,2.1875 h -8.3125 c -1.180646,0 -2.125,-0.986673 -2.125,-2.1875 v -4.21875 c -2.111081,-0.562485 -4.123141,-1.426613 -5.96875,-2.5 l -3,3.03125 c -0.849114,0.849022 -2.196407,0.866084 -3.03125,0.03125 l -5.875,-5.875 c -0.417421,-0.417418 -0.6298,-0.981833 -0.625,-1.53125 0.0047,-0.549422 0.231693,-1.075441 0.65625,-1.5 l 3.03125,-3 c -1.073391,-1.845614 -1.937528,-3.857673 -2.5,-5.96875 h -4.21875 c -1.200828,0 -2.1875,-0.944347 -2.1875,-2.125 v -8.3125 c 0,-1.180643 0.986672,-2.125 2.1875,-2.125 h 4.21875 c 0.562472,-2.111076 1.426609,-4.123135 2.5,-5.96875 l -3.03125,-3 c -0.849107,-0.84911 -0.866093,-2.196403 -0.03125,-3.03125 l 5.875,-5.875 c 0.834843,-0.834932 2.182137,-0.817858 3.03125,0.03125 l 3,3.03125 c 1.845609,-1.073383 3.85767,-1.937533 5.96875,-2.5 V 20.1875 c 0,-1.200817 0.944355,-2.1875 2.125,-2.1875 z M -52,38.9375 c -5.006511,0 -9.0625,4.055982 -9.0625,9.0625 0,5.006505 4.055989,9.0625 9.0625,9.0625 5.00651,0 9.0625,-4.055995 9.0625,-9.0625 0,-5.00652 -4.05599,-9.0625 -9.0625,-9.0625 z"
       id="path26" /></clipPath><filter
     id="j"
     color-interpolation-filters="sRGB"
     height="1.3213328"
     width="1.3213336"
     x="-0.16066687"
     y="-0.16066641"><feGaussianBlur
       stdDeviation="3.6000051"
       id="feGaussianBlur29" /></filter><clipPath
     id="k"><rect
       height="84"
       rx="6"
       width="84"
       x="6"
       y="6"
       id="rect32" /></clipPath><filter
     id="l"
     color-interpolation-filters="sRGB"
     height="1.3915758"
     width="1.3915758"
     x="-0.19578789"
     y="-0.19578789"><feGaussianBlur
       stdDeviation="5.28"
       id="feGaussianBlur35" /></filter><linearGradient
     id="m"
     gradientUnits="userSpaceOnUse"
     x1="48"
     x2="48"
     xlink:href="#e"
     y1="20.220806"
     y2="138.66119" /><g
     id="g79"
     transform="matrix(0.5952381,0,0,0.5952381,-3.5714286,-3.5714286)"><rect
       fill="url(#a)"
       height="84"
       rx="10.709455"
       width="84"
       x="6"
       y="6"
       id="rect53"
       style="fill:url(#a)"
       ry="10.709455" /><path
       d="m 62.022617,60.977617 c -0.214859,-0.152924 -0.179132,-0.647172 0.527506,-2.186542 0.27741,-0.604395 0.91037,-1.621946 2.010747,-2.594376 0.127458,0.399929 0.205214,0.783408 0.20299,1.140434 -0.01423,2.381741 -1.713557,3.271218 -2.741243,3.640484 z m -9.045326,2.061905 c -0.288047,0.150707 -0.552105,0.245403 -0.674869,0.17234 -0.09,-0.05375 0.118805,-0.252168 0.118805,-0.252168 0,0 1.468777,-1.57993 2.047216,-2.299417 0.336505,-0.418345 0.726663,-0.914944 1.151807,-1.470385 0.0033,0.05554 0.0053,0.110517 0.0053,0.164912 -0.0046,1.892935 -1.832853,3.170948 -2.648275,3.684718 z M 41.235717,57.437145 c -0.679437,1.656442 -2.101484,5.894139 -2.966978,5.667033 -0.742981,-0.194947 -1.195445,-3.416331 -0.14835,-6.58667 0.52701,-1.595864 1.652854,-3.502766 2.314245,-4.242906 1.06477,-1.19099 2.237098,-1.580533 2.521929,-1.097657 0.363083,0.615278 -1.294835,5.221883 -1.720846,6.2602 z M 27.023889,67.09863 c -1.950752,2.128176 -4.676219,2.932449 -5.844913,2.255044 -1.261982,-0.73176 -0.762167,-3.864902 1.631802,-6.123263 1.459151,-1.376285 3.342771,-2.643938 4.592386,-3.424751 0.284341,-0.171096 0.70219,-0.422424 1.209909,-0.726663 0.08419,-0.04799 0.131661,-0.07455 0.131661,-0.07455 l -0.002,-0.0033 c 0.09803,-0.05859 0.198415,-0.118806 0.302141,-0.180741 0.871054,3.214474 0.02648,6.044455 -2.021134,8.278131 z M 72.4199,51.794202 c -2.36678,0.01251 -4.416716,0.580663 -6.135093,1.427608 -0.628504,-1.254288 -1.264548,-2.357757 -1.371366,-3.178249 -0.12473,-0.95784 -0.269247,-1.529236 -0.118673,-2.670285 0.150693,-1.14105 0.810847,-2.756813 0.801202,-2.877843 -0.0097,-0.12103 -0.148098,-0.702309 -1.513156,-0.712199 -1.365183,-0.0097 -2.532937,0.262575 -2.670278,0.623063 -0.137474,0.360489 -0.4003,1.171713 -0.563856,2.017546 -0.239087,1.237851 -2.72554,5.652469 -4.137327,7.962014 -0.461732,-0.901346 -0.854366,-1.696121 -0.936206,-2.324632 -0.124612,-0.95784 -0.269248,-1.529228 -0.118674,-2.670404 0.150694,-1.140924 0.810847,-2.756938 0.801202,-2.877968 -0.0097,-0.121024 -0.147972,-0.702183 -1.513155,-0.712073 -1.365184,-0.0097 -2.532938,0.262574 -2.670279,0.623063 -0.137473,0.360488 -0.284215,1.202739 -0.563855,2.017545 -0.279634,0.814932 -3.584852,8.179098 -4.450464,10.087853 -0.441091,0.97255 -0.824948,1.753859 -1.09593,2.287541 -6.62e-4,-0.0013 -0.002,-0.0026 -0.002,-0.0026 0,0 -0.01668,0.03548 -0.04548,0.09544 -0.231918,0.454192 -0.370007,0.7055 -0.370007,0.7055 0,0 0.0013,0.0033 0.004,0.0094 -0.183958,0.333546 -0.381136,0.643326 -0.478798,0.643326 -0.06824,0 -0.20485,-0.887868 0.02979,-2.106529 0.491779,-2.554571 1.673256,-6.538484 1.661513,-6.675706 -0.006,-0.07034 0.219552,-0.764488 -0.771539,-1.127453 -0.963401,-0.352571 -1.306459,0.235507 -1.394357,0.23736 -0.08518,0.002 -0.148475,0.207816 -0.148475,0.207816 0,0 1.073309,-4.480141 -2.047216,-4.480141 -1.95091,0 -4.654195,2.134127 -5.985876,4.068594 -0.840397,0.458395 -2.638761,1.4401 -4.546775,2.488432 -0.73284,0.402518 -1.480646,0.814065 -2.189753,1.204713 -0.04819,-0.05342 -0.0963,-0.10693 -0.145875,-0.159842 C 25.949315,51.888097 18.954507,49.032749 19.251352,43.605526 19.359235,41.632485 20.045054,36.437306 32.691828,30.13544 43.051531,24.973149 51.344979,26.393713 52.778273,29.542047 54.825734,34.039988 48.345855,42.399575 37.587216,43.605526 33.488092,44.06504 31.329737,42.476464 30.792837,41.88468 30.22775,41.261862 30.14344,41.2338 29.932414,41.35062 c -0.343674,0.190505 -0.125849,0.740386 0,1.068113 0.321299,0.836068 1.639376,2.318575 3.886741,3.055988 1.976999,0.648781 6.789686,1.005192 12.609663,-1.246133 6.518697,-2.521432 11.608794,-9.535622 10.113684,-15.398614 -1.520451,-5.96301 -11.407539,-7.923321 -20.765015,-4.59882 -5.569146,1.978482 -11.597971,5.083794 -15.932689,9.138294 -5.154117,4.820968 -5.976025,9.016894 -5.637363,10.770137 1.203356,6.229538 9.789685,10.286262 13.228021,13.292807 -0.169739,0.09358 -0.328846,0.181476 -0.473608,0.261337 -1.723851,0.852764 -8.268936,4.278005 -9.906088,7.8971 -1.857061,4.105195 0.295648,7.050533 1.720846,7.4471 4.415645,1.228709 8.946891,-0.981314 11.38204,-4.613504 2.434653,-3.631355 2.137338,-8.359706 1.019901,-10.518061 -0.01384,-0.02681 -0.02919,-0.05302 -0.04343,-0.07962 0.445043,-0.263442 0.89899,-0.531332 1.348859,-0.795515 0.877363,-0.515147 1.738527,-0.995798 2.485956,-1.402519 -0.418094,1.145875 -0.724432,2.519333 -0.883784,4.502886 -0.187168,2.330338 0.767825,5.342417 2.017545,6.527462 0.550252,0.521694 1.21226,0.533961 1.631836,0.533961 1.454193,0 2.117803,-1.20979 2.848299,-2.640635 0.896156,-1.754832 1.691182,-3.797725 1.691182,-3.797725 0,0 -0.997897,5.518557 1.720971,5.518557 0.990595,0 1.987134,-1.28458 2.43094,-1.939538 0.0013,0.0072 0.002,0.01099 0.002,0.01099 0,0 0.02582,-0.04263 0.07627,-0.128159 0.102859,-0.157274 0.16108,-0.257385 0.16108,-0.257385 0,0 0.002,-0.01039 0.0053,-0.02846 0.398194,-0.691432 1.281363,-2.267774 2.605867,-4.867208 1.711208,-3.3585 3.352569,-7.565799 3.352569,-7.565799 0,0 0.152673,1.028679 0.652733,2.729626 0.294224,1.000855 0.919267,2.107171 1.412403,3.168114 -0.396957,0.550742 -0.64099,0.867096 -0.64099,0.867096 0,0 0.0026,0.006 0.0067,0.01642 -0.317221,0.421066 -0.67289,0.875509 -1.044996,1.318573 -1.350593,1.6086 -2.959313,3.445518 -3.174794,3.975751 -0.253678,0.624685 -0.193716,1.084172 0.2967,1.453849 0.358264,0.269982 0.996036,0.311852 1.661505,0.26699 1.213742,-0.08156 2.067737,-0.382605 2.489048,-0.565967 0.656818,-0.232276 1.421677,-0.597597 2.139562,-1.125222 1.324882,-0.974025 2.123992,-2.367402 2.047216,-4.213084 -0.0425,-1.01718 -0.366917,-2.025337 -0.777219,-2.97712 0.120282,-0.172823 0.240816,-0.347262 0.36172,-0.523918 2.088629,-3.053393 3.708728,-6.408676 3.708728,-6.408676 0,0 0.152672,1.028552 0.652858,2.729625 0.253056,0.861038 0.752375,1.80021 1.201376,2.721456 -1.963892,1.595744 -3.181837,3.44986 -3.604757,4.666316 -0.781918,2.249603 -0.169487,3.268967 0.979229,3.501011 0.520337,0.105216 1.255155,-0.133243 1.808002,-0.367247 0.687844,-0.228085 1.514394,-0.607983 2.286429,-1.175446 1.324882,-0.974019 2.598705,-2.337964 2.521928,-4.183547 -0.03508,-0.840279 -0.262945,-1.674242 -0.57213,-2.475451 1.664723,-0.693411 3.820113,-1.078995 6.565433,-0.758438 5.889452,0.687726 7.04484,4.365049 6.82405,5.904168 -0.220916,1.539244 -1.456292,2.385203 -1.869322,2.64076 -0.412904,0.25536 -0.538998,0.344019 -0.504263,0.53404 0.05018,0.276179 0.241192,0.265547 0.593273,0.206207 0.484855,-0.08185 3.092702,-1.251938 3.204338,-4.092961 0.141797,-3.606856 -3.313869,-7.568758 -9.434994,-7.536122"
       style="fill:url(#linearGradient946);fill-opacity:1;fill-rule:nonzero;stroke:none;stroke-width:0.0123624"
       id="path403" /><path
       id="rect343"
       style="fill:#000000;stroke-width:5.88;stop-color:#000000;filter:url(#filter975)"
       d="m 21.786094,14.575 c -5.933032,0 -10.71,4.776968 -10.71,10.71 v 48.007969 c 0,5.93303 4.776968,10.71 10.71,10.71 h 52.650937 c 5.933031,0 10.71,-4.77697 10.71,-10.71 V 25.285 c 0,-5.933032 -4.776969,-10.71 -10.71,-10.71 z m 22.647187,8.747812 c 6.063543,-0.100856 11.062503,2.108559 12.107812,6.208126 1.495109,5.862985 -3.594121,12.877475 -10.112812,15.398905 -5.819972,2.251322 -10.632846,1.892374 -12.609843,1.243595 -2.247363,-0.737413 -3.563702,-2.218778 -3.885,-3.054845 -0.125849,-0.327726 -0.343674,-0.875902 0,-1.066405 0.211025,-0.116821 0.2946,-0.09126 0.859686,0.531562 0.5369,0.591783 2.69635,2.182168 6.795469,1.722655 10.758629,-1.20595 17.236365,-9.5655 15.188907,-14.063436 -1.433294,-3.148332 -9.72484,-4.568381 -20.084531,0.593905 -12.646762,6.30186 -13.332117,11.496492 -13.44,13.469531 -0.296845,5.427218 6.696487,8.280822 10.480312,12.317814 0.04957,0.05291 0.09618,0.10736 0.144376,0.160781 0.709106,-0.390649 1.459035,-0.801701 2.191874,-1.204219 1.908011,-1.048332 3.704135,-2.032075 4.544531,-2.490469 1.331681,-1.934465 4.037373,-4.06875 5.988281,-4.06875 3.120523,0 2.0475,4.482188 2.0475,4.482188 0,0 0.06248,-0.20472 0.147657,-0.206719 0.0879,-0.0019 0.431132,-0.592103 1.394531,-0.239531 0.991089,0.362964 0.765094,1.05841 0.771093,1.12875 0.01174,0.13722 -1.168534,4.119494 -1.660312,6.674062 -0.234639,1.21866 -0.09777,2.106562 -0.02953,2.106562 0.09766,0 0.291823,-0.309579 0.475781,-0.643124 -0.0027,-0.0061 -0.0033,-0.0098 -0.0033,-0.0098 0,0 0.138864,-0.251276 0.370781,-0.705469 0.02799,-0.05828 0.04503,-0.08995 0.04594,-0.09187 0.270929,-0.533635 0.655361,-1.315617 1.095938,-2.287031 0.86561,-1.908754 4.173022,-9.271631 4.452655,-10.086562 0.279639,-0.814805 0.426903,-1.657482 0.564376,-2.017969 0.13734,-0.36049 1.302474,-0.633139 2.667655,-0.623438 1.365182,0.0099 1.506238,0.591007 1.515938,0.712031 0.0096,0.12103 -0.653212,1.736733 -0.803907,2.877657 -0.150573,1.141175 -0.0032,1.713097 0.121407,2.670938 0.08184,0.628509 0.473424,1.421779 0.935157,2.323124 1.411785,-2.309543 3.898569,-6.722463 4.137655,-7.960312 0.163557,-0.845833 0.426902,-1.65748 0.564376,-2.017969 0.13734,-0.360488 1.302474,-0.633139 2.667655,-0.623438 1.365057,0.0099 1.506238,0.591002 1.515938,0.712031 0.0096,0.12103 -0.653212,1.736607 -0.803907,2.877657 -0.150573,1.141047 -0.0033,1.713097 0.121407,2.670938 0.106818,0.82049 0.743059,1.921962 1.371562,3.17625 1.718376,-0.846946 3.76588,-1.414834 6.132657,-1.427345 6.121119,-0.03264 9.578671,3.930178 9.436874,7.537031 -0.111636,2.841021 -2.720926,4.01315 -3.205781,4.095 -0.352081,0.05934 -0.543725,0.06946 -0.593905,-0.206719 -0.03474,-0.19002 0.09241,-0.279483 0.505312,-0.534843 0.41303,-0.255557 1.649397,-1.102164 1.870312,-2.641407 0.220791,-1.539117 -0.935553,-5.215243 -6.825,-5.902967 -2.745316,-0.320558 -4.901059,0.06456 -6.565781,0.757969 0.309186,0.801207 0.535858,1.633783 0.570938,2.474062 0.07678,1.84558 -1.19512,3.209574 -2.52,4.183593 -0.772034,0.567462 -1.599189,0.949884 -2.287031,1.177969 -0.552848,0.234004 -1.287633,0.469434 -1.807969,0.364219 -1.148715,-0.232044 -1.759729,-1.251493 -0.977812,-3.501095 0.422918,-1.216455 1.638922,-3.070195 3.602812,-4.665936 -0.449,-0.921245 -0.947881,-1.85912 -1.200938,-2.720157 -0.500185,-1.701071 -0.652969,-2.73 -0.652969,-2.73 0,0 -1.619186,3.354891 -3.707812,6.408281 -0.120904,0.176657 -0.240655,0.352178 -0.360938,0.525 0.410302,0.951782 0.731875,1.958915 0.774376,2.976095 0.07678,1.84568 -0.72262,3.2391 -2.0475,4.213124 -0.717884,0.527624 -1.482558,0.893194 -2.139376,1.125469 -0.42131,0.183362 -1.273447,0.486096 -2.487186,0.567657 -0.66547,0.04486 -1.30205,9.19e-4 -1.660314,-0.269064 -0.490415,-0.369676 -0.552271,-0.828909 -0.298593,-1.453593 0.21548,-0.530233 1.825658,-2.368276 3.17625,-3.976876 0.372105,-0.443063 0.726217,-0.894714 1.043438,-1.315781 -0.0041,-0.01042 -0.0066,-0.0164 -0.0066,-0.0164 0,0 0.242888,-0.31879 0.639845,-0.869531 -0.493135,-1.060942 -1.116714,-2.165554 -1.410938,-3.166407 -0.500059,-1.700945 -0.652969,-2.73 -0.652969,-2.73 0,0 -1.64223,4.208065 -3.353438,7.566562 -1.324502,2.599432 -2.207118,4.174662 -2.605312,4.866095 -0.0033,0.01807 -0.0033,0.02953 -0.0033,0.02953 0,0 -0.0612,0.09866 -0.164062,0.255936 -0.05045,0.08553 -0.07547,0.127969 -0.07547,0.127969 0,0 0.0013,-0.0026 0,-0.0098 -0.443806,0.654958 -1.440812,1.939219 -2.431407,1.939219 -2.718865,0 -1.722655,-5.519062 -1.722655,-5.519062 0,0 -0.793689,2.044857 -1.689845,3.799686 -0.730494,1.430844 -1.393933,2.638126 -2.848124,2.638126 -0.419577,0 -1.083812,-0.0099 -1.634062,-0.531562 -1.24972,-1.185046 -2.201857,-4.199354 -2.014688,-6.529688 0.159351,-1.983551 0.464562,-3.356002 0.882655,-4.501876 -0.747427,0.406721 -1.609825,0.885948 -2.487186,1.401095 -0.449869,0.264181 -0.903551,0.533902 -1.348595,0.797343 0.01424,0.0266 0.02882,0.05194 0.04266,0.07875 1.117435,2.158353 1.417463,6.888336 -1.017188,10.519688 -2.435146,3.632187 -6.967015,5.842144 -11.382656,4.613438 -1.425196,-0.396568 -3.579715,-3.343247 -1.722656,-7.448438 1.63715,-3.619092 8.182245,-7.045206 9.906093,-7.897969 0.144762,-0.07986 0.306044,-0.16564 0.475783,-0.259219 -3.438333,-3.006542 -12.026646,-7.066094 -13.230001,-13.295624 -0.338661,-1.753242 0.483076,-5.948101 5.637188,-10.769064 4.334713,-4.054495 10.36461,-7.159801 15.933749,-9.138281 2.924208,-1.038905 5.899782,-1.561968 8.655938,-1.607812 z M 42.5925,51.676093 c -0.499792,-0.03833 -1.360486,0.406133 -2.159062,1.299376 -0.661391,0.740139 -1.786272,2.646793 -2.313283,4.242655 -1.047093,3.170336 -0.595323,6.390522 0.147657,6.585469 0.865494,0.227106 2.290095,-4.010278 2.969531,-5.666719 0.426011,-1.038316 2.082458,-5.645348 1.719376,-6.260624 -0.07121,-0.12072 -0.197622,-0.187381 -0.364219,-0.200157 z m 21.967969,5.220469 c -1.100377,0.972429 -1.733997,1.991074 -2.011407,2.595469 -0.706636,1.539369 -0.739858,2.032388 -0.525,2.185312 1.027685,-0.369266 2.725614,-1.257168 2.739843,-3.638905 0.0022,-0.357027 -0.07598,-0.741947 -0.203436,-1.141876 z m -35.51625,2.625 c -0.103727,0.06193 -0.203846,0.121879 -0.301876,0.180469 l 0.0033,0.0033 c 0,0 -0.04706,0.0242 -0.13125,0.07219 -0.507718,0.304238 -0.926439,0.557341 -1.210781,0.728436 -1.249612,0.780813 -3.134599,2.049343 -4.59375,3.425626 -2.393966,2.258358 -2.892761,5.391053 -1.630781,6.122812 1.168693,0.677404 3.893156,-0.126046 5.843907,-2.254219 2.047611,-2.233673 2.892303,-5.064123 2.02125,-8.278593 z m 26.574843,0.3675 c -0.425144,0.55544 -0.815213,1.051655 -1.151719,1.47 -0.578437,0.719487 -2.0475,2.300157 -2.0475,2.300157 0,0 -0.208125,0.198905 -0.118124,0.252655 0.122763,0.07306 0.38789,-0.0232 0.675936,-0.173905 0.815422,-0.513771 2.643369,-1.788631 2.647969,-3.681564 0,-0.05439 -0.0033,-0.111804 -0.0066,-0.167343 z"
       clip-path="url(#clipPath969)" /></g></svg>
