<?xml version="1.0" encoding="UTF-8" standalone="no"?>
<!-- Created with Inkscape (http://www.inkscape.org/) -->

<svg
   width="50mm"
   height="50mm"
   viewBox="0 0 50 50"
   version="1.1"
   id="svg1"
   xml:space="preserve"
   sodipodi:docname="Scala_Box.svg"
   inkscape:version="1.4.2 (f4327f4, 2025-05-13)"
   xmlns:inkscape="http://www.inkscape.org/namespaces/inkscape"
   xmlns:sodipodi="http://sodipodi.sourceforge.net/DTD/sodipodi-0.dtd"
   xmlns:xlink="http://www.w3.org/1999/xlink"
   xmlns="http://www.w3.org/2000/svg"
   xmlns:svg="http://www.w3.org/2000/svg"><sodipodi:namedview
     id="namedview1"
     pagecolor="#ffffff"
     bordercolor="#000000"
     borderopacity="0.25"
     inkscape:showpageshadow="2"
     inkscape:pageopacity="0.0"
     inkscape:pagecheckerboard="0"
     inkscape:deskcolor="#d1d1d1"
     inkscape:document-units="mm"
     inkscape:zoom="6.175375"
     inkscape:cx="94.488189"
     inkscape:cy="94.488189"
     inkscape:window-width="2560"
     inkscape:window-height="1369"
     inkscape:window-x="-8"
     inkscape:window-y="-8"
     inkscape:window-maximized="1"
     inkscape:current-layer="svg1" /><defs
     id="defs1"><linearGradient
       id="linearGradient15"><stop
         style="stop-color:#390d09;stop-opacity:0.50107068;"
         offset="0"
         id="stop15" /><stop
         style="stop-color:#de3423;stop-opacity:0.80299789;"
         offset="1"
         id="stop16" /></linearGradient><linearGradient
       id="linearGradient2"><stop
         style="stop-color:#de3423;stop-opacity:1;"
         offset="0"
         id="stop2" /><stop
         style="stop-color:#000000;stop-opacity:0;"
         offset="0.30000001"
         id="stop4" /><stop
         style="stop-color:#000000;stop-opacity:0;"
         offset="0.69999999"
         id="stop17" /><stop
         style="stop-color:#de3423;stop-opacity:1;"
         offset="1"
         id="stop3" /></linearGradient><linearGradient
       xlink:href="#linearGradient2"
       id="linearGradient9"
       x1="25.000004"
       y1="2.3639462"
       x2="25.000004"
       y2="47.63604"
       gradientUnits="userSpaceOnUse" /><radialGradient
       xlink:href="#linearGradient15"
       id="radialGradient16"
       cx="25"
       cy="25"
       fx="25"
       fy="25"
       r="25"
       gradientUnits="userSpaceOnUse"
       gradientTransform="translate(-2.4265137e-6)" /></defs><g
     id="layer1"><rect
       style="font-variation-settings:normal;opacity:1;vector-effect:none;fill:#000000;fill-opacity:1;stroke:none;stroke-width:0.260698;stroke-linecap:butt;stroke-linejoin:miter;stroke-miterlimit:4;stroke-dasharray:none;stroke-dashoffset:0;stroke-opacity:1;-inkscape-stroke:none;stop-color:#000000;stop-opacity:1"
       id="rect1"
       width="50"
       height="50"
       x="0"
       y="0"
       rx="7.1983109"
       ry="7.1983109" /><rect
       style="font-variation-settings:normal;vector-effect:none;fill:url(#radialGradient16);stroke:none;stroke-width:0.260698;stroke-linecap:butt;stroke-linejoin:miter;stroke-miterlimit:4;stroke-dasharray:none;stroke-dashoffset:0;stroke-opacity:1;-inkscape-stroke:none;stop-color:#000000"
       id="rect1-18"
       width="50"
       height="50"
       x="0"
       y="-4.4408921e-16"
       rx="7.1983109"
       ry="7.1983109" /><rect
       style="fill:none;fill-opacity:1;stroke:url(#linearGradient9);stroke-width:1;stroke-dasharray:none"
       id="rect1-1"
       width="45.037273"
       height="45.037273"
       x="2.4813633"
       y="2.4813633"
       rx="6.4838462"
       ry="6.4838462" /></g><g
     id="g1"
     transform="matrix(0.26458333,0,0,0.26458333,7.9121502,8.0588001)"><path
       d="M 25,110.437 V 94.874 h 5.616 c 3.113,0 8.052,-0.203 11.03,-0.474 L 46.924,93.994 39.886,92.1 C 35.962,91.085 31.022,89.596 28.925,88.784 L 25,87.364 V 55.627 h 6.293 c 3.383,0 8.323,-0.203 10.894,-0.473 l 4.737,-0.406 -8.323,-2.233 C 34,51.366 29.128,49.809 27.639,49.2 L 25,47.982 v -30.72 l 2.098,-0.473 c 1.15,-0.203 3.992,-0.406 6.293,-0.406 11.367,0 38.366,-3.722 51.628,-7.105 9.27,-2.436 15.698,-4.872 17.931,-6.902 1.15,-1.015 1.218,-0.406 1.218,14.548 v 15.63 l -1.624,1.219 -1.624,1.285 3.248,2.842 v 33.9 l -1.624,1.218 -1.624,1.286 3.248,2.842 v 33.9 l -1.76,1.353 c -1.894,1.489 -9.202,3.993 -17.524,6.09 C 71.892,121.737 40.157,126 29.33,126 H 25 Z"
       fill="#390d09"
       id="path1-0" /><g
       fill="#de3423"
       id="g2"><path
         d="M 25,110.572 V 95.077 l 11.842,-0.474 c 12.315,-0.473 21.45,-1.488 34.847,-3.789 15.225,-2.639 30.246,-7.375 31.803,-10.082 0.406,-0.677 0.676,4.534 0.676,14.616 v 15.698 l -1.76,1.353 c -1.894,1.489 -9.202,3.993 -17.524,6.09 C 71.892,121.737 40.157,126 29.33,126 H 25 Z M 25,71.327 V 55.83 l 11.842,-0.406 c 13.127,-0.541 23.344,-1.691 36.877,-4.195 15.157,-2.842 28.96,-7.443 29.976,-9.947 0.203,-0.473 0.406,6.09 0.406,14.616 0.067,13.533 -0.068,15.698 -1.083,16.78 -2.368,2.64 -20.638,7.376 -39.449,10.286 -11.435,1.76 -30.381,3.79 -35.66,3.79 H 25 Z M 25,32.352 V 17.195 l 2.098,-0.406 c 1.15,-0.203 3.992,-0.406 6.293,-0.406 11.367,0 38.366,-3.722 51.628,-7.105 9.27,-2.436 15.698,-4.872 17.931,-6.902 1.15,-1.015 1.218,-0.406 1.218,14.48 0,14.548 -0.067,15.63 -1.285,16.714 -1.827,1.691 -14.345,5.548 -24.09,7.51 -15.765,3.113 -41.951,6.429 -50.883,6.429 H 25 Z"
         id="path2" /></g></g></svg>
