<?xml version="1.0" encoding="UTF-8" standalone="no"?>
<!-- Created with Inkscape (http://www.inkscape.org/) -->

<svg
   width="50mm"
   height="50mm"
   viewBox="0 0 50 50"
   version="1.1"
   id="svg1"
   xml:space="preserve"
   sodipodi:docname="Sass_Box.svg"
   inkscape:version="1.4.2 (f4327f4, 2025-05-13)"
   inkscape:export-filename="Cairo_Box.png"
   inkscape:export-xdpi="96"
   inkscape:export-ydpi="96"
   xmlns:inkscape="http://www.inkscape.org/namespaces/inkscape"
   xmlns:sodipodi="http://sodipodi.sourceforge.net/DTD/sodipodi-0.dtd"
   xmlns:xlink="http://www.w3.org/1999/xlink"
   xmlns="http://www.w3.org/2000/svg"
   xmlns:svg="http://www.w3.org/2000/svg"><sodipodi:namedview
     id="namedview1"
     pagecolor="#ffffff"
     bordercolor="#000000"
     borderopacity="0.25"
     inkscape:showpageshadow="2"
     inkscape:pageopacity="0.0"
     inkscape:pagecheckerboard="0"
     inkscape:deskcolor="#d1d1d1"
     inkscape:document-units="mm"
     inkscape:zoom="3.0929791"
     inkscape:cx="62.076074"
     inkscape:cy="92.305829"
     inkscape:window-width="2560"
     inkscape:window-height="1417"
     inkscape:window-x="2552"
     inkscape:window-y="-8"
     inkscape:window-maximized="1"
     inkscape:current-layer="layer1"><inkscape:page
       x="0"
       y="0"
       width="50"
       height="50"
       id="page1"
       margin="0"
       bleed="0" /></sodipodi:namedview><defs
     id="defs1"><linearGradient
       id="linearGradient5"><stop
         style="stop-color:#788a8c;stop-opacity:1;"
         offset="0.00462963"
         id="stop1" /><stop
         style="stop-color:#234d7a;stop-opacity:1;"
         offset="0.99834436"
         id="stop5" /></linearGradient><linearGradient
       xlink:href="#linearGradient5"
       id="linearGradient1"
       x1="25"
       y1="7.0902283e-06"
       x2="25"
       y2="50.000031"
       gradientUnits="userSpaceOnUse"
       gradientTransform="matrix(0.98039216,0,0,0.98039216,0.49019623,0.49019623)" /><filter
       inkscape:collect="always"
       style="color-interpolation-filters:sRGB"
       id="filter1"
       x="-0.06882552"
       y="-0.06882552"
       width="1.137651"
       height="1.137651"><feGaussianBlur
         inkscape:collect="always"
         stdDeviation="0.9600145"
         id="feGaussianBlur1" /></filter><filter
       inkscape:collect="always"
       style="color-interpolation-filters:sRGB"
       id="filter7-4"
       x="-0.056353727"
       y="-0.11208737"
       width="1.1127075"
       height="1.2241747"><feGaussianBlur
         inkscape:collect="always"
         stdDeviation="17.326073"
         id="feGaussianBlur7-8" /></filter><radialGradient
       id="vlpa"
       cx="204.89999"
       cy="-244"
       r="25.719999"
       gradientTransform="matrix(-4.228,-8.251,14.01,-7.18,5688,455.1)"
       gradientUnits="userSpaceOnUse"><stop
         style="stop-color:#656f71"
         offset="0"
         id="stop1-8" /><stop
         style="stop-color:#d3d4cf"
         offset="1"
         id="stop2-0" /></radialGradient></defs><g
     id="layer1"
     inkscape:label="Stride"><rect
       style="font-variation-settings:normal;display:inline;fill:url(#linearGradient1);stroke:none;stroke-width:0.980392;stroke-linecap:butt;stroke-linejoin:miter;stroke-miterlimit:4;stroke-dasharray:none;stroke-dashoffset:0;stroke-opacity:1;stop-color:#000000"
       id="rect1-18"
       width="49.019608"
       height="49.019608"
       x="0.49019623"
       y="0.49019623"
       rx="7.0571675"
       ry="7.0571675"
       inkscape:label="Background" /><rect
       style="font-variation-settings:normal;display:inline;fill:none;stroke:#000000;stroke-width:1.99928;stroke-linecap:butt;stroke-linejoin:miter;stroke-miterlimit:4;stroke-dasharray:none;stroke-dashoffset:0;stroke-opacity:1;stop-color:#000000;filter:url(#filter1)"
       id="rect1"
       width="48.000725"
       height="48.000725"
       x="0.99963778"
       y="0.99963778"
       rx="6.9104829"
       ry="6.9104829"
       inkscape:label="Shadow" /><g
       transform="matrix(0.05160946,0,0,0.05160946,-31.561503,1.4629421)"
       id="g7"
       inkscape:label="Logo"><path
         id="path2-9"
         style="fill:#d3d4cf;fill-opacity:1;filter:url(#filter7-4)"
         d="m 1324.3995,270.5692 c -0.163,0 2.9738,1.79106 6.9688,3.97806 11.8878,6.50521 22.8506,13.36885 32.8789,20.58047 -0.2103,0.33223 -0.3259,0.71557 -0.3259,1.12153 0,1.285 1.201,2.32932 2.684,2.32932 0.6293,0 1.2006,-0.1938 1.6583,-0.50804 6.831,5.10519 13.2102,10.38326 19.1139,15.81639 -0.402,0.54365 -0.6422,1.18484 -0.6422,1.87879 0,1.927 1.8039,3.48919 4.0259,3.48919 0.6674,0 1.2958,-0.13422 1.8501,-0.38342 5.969,5.87355 11.412,11.92053 16.3148,18.14571 -0.9355,0.92209 -1.5049,2.13586 -1.5049,3.46043 0,2.892 2.704,5.23379 6.039,5.23379 0.6022,0 1.1863,-0.0687 1.735,-0.21089 2.3119,3.33635 4.4747,6.71393 6.4895,10.14166 3.1485,5.3521 5.8833,10.78081 8.2053,16.26692 -2.529,1.26727 -4.2273,3.64011 -4.2273,6.35531 0,4.051 3.777,7.33305 8.445,7.33305 0.228,0 0.4572,-0.0134 0.6806,-0.0288 3.366,11.4013 5.0125,22.98549 4.9462,34.57558 -6.0749,0.43544 -10.851,4.84188 -10.851,10.22793 0,4.82231 3.8291,8.86922 9.001,9.96912 -2.1386,12.05719 -6.1251,24.02191 -11.9534,35.71628 -1.5123,-0.4311 -3.1333,-0.66141 -4.812,-0.66141 -8.499,0 -15.385,5.97886 -15.385,13.35286 0,4.27333 2.3109,8.07158 5.9144,10.5155 -1.131,1.53248 -2.2905,3.06477 -3.4892,4.58196 -7.3878,9.33665 -15.9205,18.33743 -25.5075,26.93579 -1.9876,-1.30846 -4.4703,-2.08968 -7.1606,-2.08968 -6.537,0 -11.8383,4.60127 -11.8383,10.26627 0,2.14139 0.7577,4.1244 2.0514,5.77059 -11.532,8.735 -24.2292,16.95741 -37.969,24.58729 -1.9309,-1.69569 -4.6087,-2.7415 -7.5727,-2.7415 -5.883,0 -10.6497,4.1376 -10.6497,9.2406 0,0.95595 0.1687,1.87426 0.4793,2.74151 -2.1559,1.05145 -4.3381,2.09169 -6.5374,3.11535 -11.5809,5.39124 -23.6254,10.35761 -36.071,14.88657 -1.7263,-2.19474 -4.6329,-3.63297 -7.9273,-3.63297 -5.295,0 -9.5857,3.71879 -9.5857,8.31079 0,0.43657 0.04,0.86606 0.115,1.28448 -15.3949,4.95681 -31.3413,9.26674 -47.7367,12.91192 -1.3965,-1.64539 -3.6454,-2.71275 -6.1828,-2.71275 -3.8215,0 -6.9883,2.42834 -7.5727,5.59805 -16.4752,3.23991 -33.3671,5.81576 -50.5837,7.70689 -1.0876,-1.49176 -3.0003,-2.48269 -5.1858,-2.48269 -2.6902,0 -4.982,1.50373 -5.809,3.59463 -17.5348,1.61865 -35.1514,2.52303 -52.7117,2.71275 -0.6125,-1.74639 -2.4842,-3.01949 -4.6969,-3.01949 -2.2286,0 -4.1069,1.28454 -4.7066,3.04825 -17.6634,-0.0645 -35.2461,-0.84246 -52.6159,-2.33891 -0.284,-1.64013 -1.9133,-2.90446 -3.8822,-2.90446 -1.6787,0 -3.1095,0.919 -3.6713,2.2047 -16.61509,-1.63538 -33.01666,-3.92346 -49.07872,-6.86335 -0.009,-1.49828 -1.41473,-2.71275 -3.14411,-2.71275 -1.26438,0 -2.3481,0.64826 -2.84695,1.58164 -4.25973,-0.827 -8.49359,-1.70746 -12.70103,-2.62648 -11.3503,-2.47759 -22.67853,-5.36407 -33.77997,-8.60795 0.0188,-0.10746 0.0288,-0.22351 0.0288,-0.3355 0,-1.203 -1.12445,-2.17595 -2.51145,-2.17595 -0.9438,0 -1.7655,0.44567 -2.19512,1.11194 -25.2718,-7.65143 -49.26152,-17.09037 -69.74548,-27.54927 -2.5,-1.2762 -4.54361,-2.24408 -4.54361,-2.15678 0,0.26 12.88395,7.43757 18.78795,10.46757 62.69761,32.14878 143.3346,51.32212 228.10109,54.22625 25.4779,0.8725 54.916,0.10905 79.983,-2.08968 92.4,-8.1 175.7004,-35.37173 233.9004,-76.54173 35.83,-25.35 60.3253,-54.63334 72.2953,-86.45334 8.901,-23.65 10.1516,-50.31577 3.4796,-74.36577 -7.22,-26 -21.9749,-49.42107 -45.4649,-72.16107 -18.7,-18.1 -40.1307,-33.30337 -67.0807,-47.58337 -5.52,-2.93 -23.1682,-11.43572 -23.715,-11.43572 z m -502.7598,19.23848 c -26.63,0 -48.83096,6.1883 -66.61096,18.5483 -17.779,12.36 -26.66738,28.50608 -26.66738,48.44608 0,14.79 3.75694,27.10466 11.29194,36.93366 7.53,9.82 19.9946,17.64477 37.3746,23.46577 7.54,2.481 15.64807,4.5798 24.33807,6.2978 8.69,1.717 16.85643,3.52708 24.49143,5.43508 6.125,1.527 11.39539,3.9643 15.81639,7.3043 4.421,3.344 6.63316,7.68295 6.6333,13.02695 0,4.769 -1.35233,8.612 -4.06433,11.522 -2.713,2.91 -6.03195,5.17425 -9.94995,6.79625 -3.211,1.431 -7.4558,2.48609 -12.7298,3.15369 -5.271,0.6672 -9.51479,0.99691 -12.72979,0.99691 -12.76,0 -25.92346,-2.42771 -39.48346,-7.29471 -13.56,-4.87 -25.96164,-11.84138 -37.21164,-20.90638 h -5.12835 v 50.66995 c 11.15,4.678 23.2335,8.59347 36.2435,11.74247 13.01,3.149 28.09321,4.72574 45.27321,4.72574 v -0.01 c 29.83,0 53.51913,-6.44475 71.04913,-19.32475 17.534,-12.88 26.30303,-29.92131 26.30313,-51.10131 0,-14.79 -3.79322,-26.68869 -11.37822,-35.70669 -7.59,-9.02 -19.16853,-16.19505 -34.73853,-21.53905 -7.94,-2.672 -15.40059,-4.7708 -22.38259,-6.2978 -6.99,-1.526 -14.24368,-3.10374 -21.77868,-4.72574 -11.65,-2.577 -19.5118,-5.45888 -23.5808,-8.65588 -4.069,-3.193 -6.10622,-7.51126 -6.10608,-12.95026 0,-3.72 1.28186,-7.08774 3.84386,-10.09374 2.562,-3.006 5.59999,-5.26925 9.11599,-6.79625 4.323,-1.909 8.44754,-3.19423 12.36554,-3.86303 3.917,-0.6672 8.33401,-1.0064 13.25701,-1.0065 12.66,0 24.99076,2.34073 37.00076,7.01673 12.01,4.68 22.18183,10.40255 30.52083,17.17755 h 4.96539 V 304.1287 c -10.45,-4.39 -22.27622,-7.87141 -35.48622,-10.44841 -13.21,-2.577 -26.4973,-3.87237 -39.8573,-3.87261 z m 94.43821,3.93971 v 213.09946 h 70.22476 c 15.47003,0 30.06783,-1.025 43.77783,-3.077 13.71,-2.05 26.3956,-6.65598 38.0456,-13.81298 13.96,-8.4 25.5189,-20.43805 34.6619,-36.13805 9.1338,-15.69118 13.7022,-33.45033 13.7075,-53.28685 v -0.0288 c 0,-20.59905 -4.2711,-38.51421 -12.8065,-53.72779 -8.54,-15.22 -20.189,-27.31184 -34.959,-36.28184 -12.06,-7.343 -24.9662,-11.97107 -38.7262,-13.88007 -13.76,-1.909 -28.535,-2.86587 -44.30503,-2.86613 z m 215.12209,0.0479 v 213.10905 h 149.7955 l -0.01,-40.60498 h -93.4221 V 293.79532 Z M 972.43218,333.5088 h 1.05443 c 11.65,0 21.67172,0.19405 30.06069,0.57515 8.39,0.382 16.4059,2.57736 24.0409,6.58536 10.55,5.63 18.3535,13.42667 23.4275,23.39867 5.073,9.97 7.6109,21.97385 7.611,36.00385 h 0.01 c -10e-4,14.03 -2.4152,25.90659 -7.2372,35.63959 -4.82,9.73 -11.8551,17.36622 -21.0981,22.90022 -7.84,4.676 -16.0986,7.22916 -24.7886,7.65896 -8.69001,0.4299 -19.36579,0.64238 -32.02579,0.64224 h -1.05443 z m 191.75212,187.38106 v 7.07424 c -0.779,-0.3848 -1.4647,-0.66993 -2.0513,-0.85313 -0.587,-0.1869 -1.3386,-0.2684 -2.2527,-0.2684 -1.007,0 -1.9631,0.20337 -2.8661,0.62307 -0.904,0.419 -1.6667,0.99594 -2.3006,1.71584 -0.6957,0.789 -1.2443,1.71485 -1.6391,2.77985 -0.1294,0.35006 -0.2389,0.72021 -0.3259,1.11194 -0.2375,-1.76485 -0.8746,-3.17812 -1.9172,-4.23687 -1.35,-1.372 -3.3695,-2.05134 -6.0485,-2.05134 -2.95,0 -5.2416,0.80718 -6.8826,2.42518 -1.6402,1.618 -2.4635,3.77651 -2.4635,6.48951 0,2.772 0.8857,4.91383 2.6457,6.41283 1.76,1.4992 4.2888,2.24305 7.5918,2.24305 0.904,0 1.673,-0.0373 2.3006,-0.12462 0.628,-0.0836 1.2394,-0.19678 1.8309,-0.34508 0.6434,-0.1484 1.1457,-0.29764 1.5145,-0.44094 0.3687,-0.1434 0.7798,-0.29202 1.227,-0.46012 v -4.27521 h -0.5847 c -0.238,0.167 -0.5419,0.35844 -0.9203,0.57514 -0.3786,0.2166 -0.7892,0.4156 -1.2365,0.6039 -0.509,0.2179 -1.0743,0.39401 -1.6871,0.52721 -0.612,0.1369 -1.2353,0.2013 -1.8692,0.2013 -0.738,0 -1.419,-0.0681 -2.0418,-0.2013 -0.624,-0.1332 -1.1625,-0.35601 -1.6295,-0.66141 -0.478,-0.3059 -0.8683,-0.71846 -1.1599,-1.23656 -0.2913,-0.518 -0.457,-1.15702 -0.508,-1.92672 h 11.5986 c 0.1153,2.22734 0.692,4.04176 1.7255,5.43508 1.163,1.5684 2.7413,2.3485 4.7353,2.3485 0.5918,0 1.098,-0.0441 1.5241,-0.14379 0.4263,-0.0997 0.8584,-0.25262 1.2941,-0.45052 0.3426,-0.157 0.7367,-0.39434 1.1886,-0.70934 0.451,-0.3163 0.8542,-0.60549 1.2078,-0.88189 v 1.72543 h 5.4543 v -23.02483 z m 7.5439,0.01 v 4.03557 h 5.761 v -4.03557 z m -126.5982,0.01 v 4.03558 h 5.761 v -4.03558 z m -108.80711,0.01 v 4.03557 h 5.77058 v -4.03557 z m 54.55216,0 v 23.01524 h 5.45425 v -23.01524 z m -63.8407,0.59431 c -2.752,0 -5.04452,0.63055 -6.88252,1.90755 -1.8378,1.278 -2.76068,2.95132 -2.76068,5.01332 0,1.529 0.39106,2.7991 1.16946,3.8151 0.779,1.016 2.06603,1.82358 3.86303,2.42518 0.779,0.2565 1.61355,0.47363 2.51145,0.65183 0.898,0.1769 1.74102,0.36855 2.53062,0.56555 0.633,0.1582 1.18225,0.41237 1.63915,0.75727 0.4572,0.346 0.69017,0.789 0.69017,1.342 0,0.4936 -0.14167,0.89701 -0.42177,1.19821 -0.2807,0.3002 -0.63025,0.53166 -1.03525,0.69976 -0.3321,0.1469 -0.76774,0.25101 -1.31324,0.32591 -0.5451,0.063 -0.98074,0.0959 -1.31324,0.0959 -1.318,0 -2.6815,-0.25407 -4.0835,-0.75727 -1.402,-0.503 -2.68087,-1.22018 -3.84387,-2.15678 h -0.53679 v 5.23378 c 1.153,0.4832 2.403,0.89229 3.748,1.21739 1.345,0.3252 2.9114,0.48887 4.6874,0.48887 3.084,0 5.53064,-0.66183 7.34264,-1.99383 1.8126,-1.331 2.71275,-3.09171 2.71275,-5.28171 0,-1.529 -0.38485,-2.75769 -1.16945,-3.69049 -0.784,-0.932 -1.98464,-1.68047 -3.59464,-2.23347 -0.82,-0.2767 -1.58785,-0.49383 -2.31015,-0.65183 -0.722,-0.158 -1.47424,-0.32077 -2.25264,-0.48887 -1.205,-0.2665 -2.01366,-0.56126 -2.43476,-0.89146 -0.4212,-0.33 -0.63266,-0.7804 -0.63266,-1.342 0,-0.3852 0.12762,-0.73484 0.39302,-1.04484 0.2653,-0.3102 0.58528,-0.54176 0.94898,-0.69976 0.4463,-0.1984 0.8703,-0.3277 1.2749,-0.4026 0.4045,-0.063 0.86135,-0.0959 1.37075,-0.0959 1.308,0 2.58469,0.24521 3.82469,0.72851 1.242,0.484 2.29189,1.07335 3.15369,1.77335 h 0.51763 v -5.03248 c -1.08,-0.4536 -2.30532,-0.81689 -3.67132,-1.08319 -1.365,-0.2668 -2.74085,-0.39292 -4.12185,-0.39301 z m 277.51525,0.37384 v 22.02792 h 15.4809 v -1.95548 c 0.2103,0.32842 0.4615,0.63475 0.7573,0.92022 1.024,0.9868 2.3065,1.48578 3.8535,1.48578 0.832,0 1.4839,-0.0576 1.9458,-0.18213 0.4632,-0.1181 0.9305,-0.29072 1.4187,-0.51762 0.4984,-0.2366 0.9015,-0.47284 1.1982,-0.70934 0.2964,-0.2379 0.6327,-0.509 1.0065,-0.8052 l -0.01,1.76377 h 5.4255 V 532.6144 c 0,-1.954 -0.685,-3.40999 -2.061,-4.36149 -1.376,-0.9522 -3.5733,-1.42827 -6.5853,-1.42827 -1.225,0 -2.4386,0.10514 -3.6426,0.30674 -1.204,0.2032 -2.0764,0.37892 -2.6169,0.52722 v 4.00681 h 0.4601 c 0.821,-0.345 1.6688,-0.63132 2.5306,-0.85312 0.862,-0.2204 1.6088,-0.32592 2.2527,-0.32592 1.422,0 2.4904,0.17732 3.2016,0.52722 0.7106,0.35 1.0736,0.98006 1.0736,1.89796 v 0.0863 c -1.578,0.0982 -3.0576,0.23398 -4.4286,0.41218 -1.371,0.1768 -2.5509,0.49578 -3.5371,0.94898 -0.976,0.444 -1.7237,1.04241 -2.2431,1.80211 -0.5195,0.76 -0.7764,1.75774 -0.7764,2.99074 0,0.19229 0.012,0.38172 0.029,0.56555 h -8.9052 V 521.8868 Z m -181.1887,0.0192 v 22.02792 h 7.2564 c 1.599,0 3.1065,-0.11422 4.5245,-0.32592 1.417,-0.212 2.7357,-0.67888 3.9397,-1.41868 1.444,-0.868 2.6398,-2.11542 3.585,-3.73842 0.9459,-1.623 1.4091,-3.45977 1.4091,-5.51177 h 0.01 c 0,-2.131 -0.4494,-3.9867 -1.3324,-5.5597 -0.883,-1.573 -2.0868,-2.8202 -3.6138,-3.748 -1.247,-0.7587 -2.5742,-1.24086 -3.9972,-1.43786 -1.423,-0.1965 -2.952,-0.28757 -4.582,-0.28757 z m 73.8099,0.65183 v 4.74492 h -2.0897 v 0.40259 c -0.6044,-0.2293 -1.2013,-0.40517 -1.8021,-0.53679 -0.966,-0.2057 -1.938,-0.31633 -2.9045,-0.31633 -1.277,0 -2.5019,0.15867 -3.6809,0.48887 -1.179,0.331 -2.2053,0.84241 -3.077,1.53371 -0.904,0.72 -1.6179,1.63609 -2.1472,2.75109 -0.2083,0.43835 -0.3816,0.91634 -0.508,1.42827 -0.2405,-1.75177 -0.8802,-3.15498 -1.9172,-4.20812 -1.35,-1.372 -3.359,-2.05134 -6.039,-2.05134 -2.949,0 -5.2415,0.80718 -6.8825,2.42518 -0.5483,0.54088 -1.0056,1.13895 -1.3707,1.80211 v -3.70966 c -0.1756,-0.027 -0.3762,-0.0376 -0.5944,-0.0479 -0.2177,-0.008 -0.4175,-0.009 -0.5943,-0.01 -0.468,0 -0.9615,0.0766 -1.4858,0.23964 -0.5237,0.1621 -0.9854,0.35793 -1.3803,0.58473 -0.3638,0.198 -0.767,0.46541 -1.2078,0.79561 -0.4418,0.33 -0.7863,0.59798 -1.0352,0.81478 v -2.37725 h -5.4543 v 16.62159 h 5.4543 V 532.8049 c 0.592,-0.218 1.2019,-0.40755 1.8308,-0.56555 0.628,-0.1616 1.2305,-0.23965 1.8021,-0.23965 0.4783,0 0.9088,0.0112 1.3037,0.0479 0.3507,0.0279 0.6303,0.0723 0.8339,0.1342 -0.3786,1.05046 -0.5655,2.22428 -0.5655,3.52754 0,2.772 0.876,4.91382 2.636,6.41282 1.76,1.4992 4.2889,2.24305 7.5919,2.24305 v 0.01 c 0.904,0 1.6729,-0.0469 2.3006,-0.1342 0.628,-0.0836 1.2393,-0.19679 1.8308,-0.34509 0.6435,-0.1484 1.1459,-0.28805 1.5146,-0.43135 0.3686,-0.143 0.7811,-0.3016 1.227,-0.4697 v -4.27522 h -0.5752 c -0.2392,0.167 -0.5514,0.35844 -0.9298,0.57514 -0.3786,0.2166 -0.7894,0.4156 -1.2366,0.6039 -0.509,0.2179 -1.0647,0.39401 -1.6774,0.52721 -0.613,0.1369 -1.2448,0.2013 -1.8788,0.2013 -0.738,0 -1.4095,-0.0681 -2.0322,-0.2013 -0.623,-0.1332 -1.172,-0.35601 -1.6392,-0.66141 -0.4779,-0.3069 -0.8599,-0.71845 -1.1502,-1.23655 -0.2916,-0.518 -0.4677,-1.15713 -0.5177,-1.92673 h 11.5891 c 0.082,1.09725 0.3066,2.07677 0.6902,2.93323 0.488,1.09 1.1698,2.00243 2.0417,2.72233 0.882,0.7199 1.926,1.24633 3.125,1.59123 1.199,0.345 2.5159,0.51762 3.9589,0.51762 h 0.01 c 0.758,0 1.3688,-0.0305 1.8308,-0.10544 0.463,-0.0735 0.9565,-0.17813 1.4858,-0.31633 0.4259,-0.1083 0.8461,-0.25367 1.2557,-0.42177 0.4096,-0.1671 0.772,-0.31284 1.0832,-0.44094 v -4.43817 h -0.6997 c -0.1868,0.177 -0.412,0.37251 -0.671,0.59431 -0.2604,0.2219 -0.5758,0.44523 -0.9394,0.65183 -0.3735,0.2079 -0.8226,0.37891 -1.342,0.52721 -0.519,0.147 -1.1171,0.22057 -1.8021,0.22047 -1.35,0 -2.4337,-0.40747 -3.2496,-1.22697 -0.8158,-0.819 -1.227,-2.06183 -1.227,-3.72883 0,-1.558 0.387,-2.79635 1.1503,-3.71925 0.763,-0.9232 1.8384,-1.38021 3.2304,-1.38034 0.613,0 1.1698,0.0676 1.6679,0.21089 0.4993,0.1431 0.9471,0.32051 1.342,0.52721 0.3733,0.1981 0.7189,0.41533 1.0353,0.65183 0.3163,0.2367 0.5773,0.45482 0.7956,0.65182 h 0.6997 v -1.70625 h 0.9874 v 7.76441 c 0,1.972 0.5015,3.39753 1.5145,4.26563 1.012,0.8685 2.6379,1.29407 4.8599,1.29407 l -0.01,0.01 c 0.966,0 1.7793,-0.0469 2.4443,-0.13419 0.665,-0.0836 1.2969,-0.19689 1.8884,-0.34509 v -3.65215 h -0.4697 c -0.1869,0.0983 -0.5152,0.20142 -0.9873,0.32592 -0.4715,0.1158 -0.8491,0.17254 -1.1407,0.17254 -0.7054,0 -1.2417,-0.0956 -1.6104,-0.29716 -0.3687,-0.2018 -0.6309,-0.47947 -0.7765,-0.82437 -0.1609,-0.3458 -0.2382,-0.73455 -0.2492,-1.16945 -0.013,-0.434 -0.01,-0.94253 -0.01,-1.52413 v -5.88561 h 5.2434 v -3.6138 h -5.2434 v -4.74492 z m -67.9913,3.44126 h 0.115 c 1.205,0 2.239,0.0304 3.1058,0.0671 0.867,0.0399 1.7025,0.26589 2.4922,0.68059 1.09,0.582 1.8912,1.38459 2.4156,2.41559 0.5243,1.03 0.7861,2.27883 0.7861,3.72883 0,1.45 -0.2495,2.67491 -0.7477,3.68091 -0.499,1.006 -1.2207,1.79596 -2.176,2.36766 -0.811,0.4831 -1.6709,0.73603 -2.5689,0.78603 -0.898,0.0394 -1.9991,0.0671 -3.3071,0.0671 h -0.115 z m 233.1048,0.78603 c -2.95,0 -5.2416,0.80718 -6.8826,2.42518 -1.6411,1.618 -2.4635,3.77651 -2.4635,6.48951 0,2.772 0.8761,4.91363 2.6361,6.41283 1.76,1.4992 4.2898,2.24305 7.5918,2.24305 0.904,0 1.6729,-0.0373 2.3006,-0.12462 0.628,-0.0836 1.2392,-0.19678 1.8309,-0.34508 0.6433,-0.1484 1.1457,-0.29764 1.5145,-0.44094 0.3687,-0.1434 0.7798,-0.29202 1.227,-0.46012 v -4.27521 h -0.5752 c -0.239,0.167 -0.5513,0.35844 -0.9298,0.57514 -0.3786,0.2166 -0.7892,0.4156 -1.2365,0.6039 -0.509,0.2179 -1.0742,0.39401 -1.6871,0.52721 -0.612,0.1369 -1.2352,0.2013 -1.8692,0.2013 -0.737,0 -1.4096,-0.0681 -2.0322,-0.2013 -0.623,-0.1332 -1.172,-0.35601 -1.6391,-0.66141 -0.4779,-0.3059 -0.8588,-0.71846 -1.1503,-1.23656 -0.2913,-0.518 -0.4676,-1.15702 -0.5176,-1.92672 h 11.9533 v -1.85962 c 0,-2.555 -0.6822,-4.5242 -2.0322,-5.8952 -1.35,-1.372 -3.3599,-2.05134 -6.0389,-2.05134 z m -255.6216,0.01 c -2.95,0 -5.2511,0.80718 -6.89213,2.42518 -1.6403,1.618 -2.45394,3.7861 -2.45394,6.4991 0,2.772 0.87606,4.91383 2.63606,6.41283 1.76001,1.4992 4.28991,2.24305 7.59191,2.24305 0.904,0 1.6715,-0.0373 2.3005,-0.12462 0.628,-0.0836 1.2393,-0.19688 1.8309,-0.34508 0.6433,-0.1483 1.1456,-0.29764 1.5145,-0.44094 0.3687,-0.143 0.7798,-0.29201 1.227,-0.46011 v -4.28481 h -0.5751 c -0.2379,0.167 -0.5511,0.36803 -0.9299,0.58473 -0.3787,0.2166 -0.7892,0.4156 -1.2365,0.6039 -0.509,0.2179 -1.0743,0.39401 -1.6871,0.52721 -0.612,0.1369 -1.2257,0.19171 -1.8596,0.19171 -0.738,0 -1.4191,-0.0585 -2.0418,-0.19171 -0.623,-0.1332 -1.172,-0.35601 -1.6391,-0.66141 -0.478,-0.3059 -0.8601,-0.71846 -1.1503,-1.23656 -0.2912,-0.518 -0.4676,-1.15712 -0.5176,-1.92672 h 11.9533 v -1.86921 c 0,-2.555 -0.6821,-4.51461 -2.0321,-5.88561 -1.35,-1.372 -3.36,-2.06093 -6.039,-2.06093 z m 179.3578,0.0288 c -1.225,0 -2.4386,0.10514 -3.6426,0.30674 -1.205,0.2032 -2.0763,0.37892 -2.6168,0.52722 v 4.00681 h 0.4697 c 0.821,-0.345 1.6592,-0.63132 2.521,-0.85312 0.862,-0.2204 1.6184,-0.32592 2.2622,-0.32592 1.423,0 2.481,0.17732 3.192,0.52722 0.7106,0.35 1.0736,0.98006 1.0736,1.89796 v 0.0863 c -1.578,0.0982 -3.0575,0.23398 -4.4285,0.41218 -1.371,0.1768 -2.5508,0.49578 -3.5372,0.94898 -0.976,0.444 -1.7236,1.04241 -2.243,1.80211 -0.5195,0.76 -0.7765,1.75774 -0.7765,2.99074 0,1.5 0.5108,2.74243 1.5338,3.72883 1.023,0.9868 2.3064,1.48578 3.8534,1.48578 0.832,0 1.4838,-0.0576 1.9459,-0.18213 0.4622,-0.1181 0.9305,-0.29072 1.4187,-0.51762 0.4983,-0.2366 0.9014,-0.47284 1.1982,-0.70934 0.2964,-0.2379 0.6328,-0.509 1.0065,-0.8052 v 1.76377 h 5.4159 v -11.30153 c 0,-1.954 -0.6849,-3.40999 -2.0609,-4.36149 -1.376,-0.9522 -3.5734,-1.42827 -6.5854,-1.42827 z m -67.1861,0.0192 c -0.987,0 -1.8752,0.1993 -2.6648,0.6039 -0.79,0.405 -1.628,0.96718 -2.521,1.68708 v -1.83086 h -5.4543 v 16.62158 h 5.4543 v -11.78081 c 0.4052,-0.2651 0.8199,-0.50316 1.2461,-0.69976 0.425,-0.1969 0.8563,-0.29715 1.3036,-0.29715 0.582,0 1.0434,0.0862 1.3708,0.24923 0.3277,0.1632 0.5631,0.42144 0.7189,0.77644 0.1556,0.354 0.2506,0.81364 0.2876,1.38034 0.038,0.567 0.048,1.261 0.048,2.0705 v 8.30121 h 5.4926 v -11.78081 c 0.4773,-0.3149 0.9184,-0.565 1.3229,-0.7381 0.4053,-0.1717 0.8108,-0.25881 1.2269,-0.25881 0.5919,0 1.0529,0.0862 1.3804,0.24923 0.3276,0.1632 0.5729,0.42144 0.7285,0.77644 0.1556,0.355 0.241,0.80905 0.278,1.37075 0.038,0.563 0.048,1.26179 0.048,2.08009 v 8.30121 h 5.483 v -10.82224 c 0,-1.184 -0.12,-2.14091 -0.3643,-2.87571 -0.2436,-0.734 -0.6141,-1.36487 -1.1023,-1.89797 -0.447,-0.4935 -0.9856,-0.86534 -1.6296,-1.11194 -0.644,-0.2456 -1.3761,-0.37384 -2.1855,-0.37384 -0.955,0 -1.8987,0.24949 -2.8278,0.74769 -0.93,0.498 -1.913,1.20981 -2.962,2.13761 -0.426,-0.957 -1.0501,-1.67358 -1.8596,-2.15678 -0.811,-0.4833 -1.7482,-0.72852 -2.8182,-0.72852 z m -163.99196,0.0192 c -0.987,0 -1.87522,0.1989 -2.66482,0.6039 -0.79,0.405 -1.62804,0.96728 -2.52104,1.68708 v -1.83086 h -5.45426 v 16.62158 h 5.45426 v -11.78081 c 0.4041,-0.2652 0.82004,-0.50275 1.24614,-0.69975 0.425,-0.1965 0.85775,-0.29716 1.30365,-0.29716 0.5821,0 1.03377,0.0862 1.36117,0.24923 0.3276,0.1632 0.57282,0.42144 0.72852,0.77644 0.1557,0.354 0.25087,0.81364 0.28757,1.38034 0.0364,0.567 0.0479,1.25132 0.0479,2.06092 v 8.30121 h 5.48302 v -11.78082 c 0.4771,-0.3149 0.91782,-0.55541 1.32282,-0.72851 0.4042,-0.1717 0.82056,-0.25881 1.23656,-0.25881 0.5919,0 1.04335,0.0766 1.37075,0.23964 0.3277,0.1631 0.57281,0.43103 0.72851,0.78603 0.1557,0.355 0.25499,0.80905 0.27799,1.37075 0.0369,0.563 0.0575,1.25221 0.0575,2.07051 v 8.30121 h 5.48302 v -10.81266 c 0,-1.184 -0.12046,-2.15049 -0.36426,-2.88529 -0.2436,-0.734 -0.61415,-1.36487 -1.10235,-1.89797 -0.447,-0.4935 -0.98567,-0.86534 -1.62957,-1.11194 -0.644,-0.2453 -1.37604,-0.36426 -2.18554,-0.36426 -0.955,0 -1.89868,0.24949 -2.82778,0.74769 -0.93,0.498 -1.92256,1.20981 -2.97156,2.13761 -0.426,-0.957 -1.03924,-1.68317 -1.85004,-2.16637 -0.81,-0.4833 -1.74819,-0.71893 -2.81819,-0.71893 z m 28.66121,0 c -1.091,0 -2.05459,0.1989 -2.88529,0.6039 -0.831,0.405 -1.64475,0.93983 -2.44435,1.59123 v -1.73501 h -5.45426 v 22.7085 h 5.45426 v -6.92087 c 0.727,0.3948 1.40753,0.684 2.05133,0.8723 0.643,0.1818 1.4084,0.27798 2.2814,0.27798 2.077,0 3.81579,-0.80676 5.23379,-2.43476 1.4174,-1.628 2.12793,-3.76842 2.12802,-6.42242 0,-2.634 -0.54733,-4.72087 -1.65833,-6.24987 -1.112,-1.5283 -2.68157,-2.29098 -4.70657,-2.29098 z m 298.31625,0.38343 c -0.468,0 -0.9712,0.0766 -1.4954,0.23964 -0.5248,0.1621 -0.9757,0.35793 -1.3707,0.58473 -0.3627,0.198 -0.7669,0.46541 -1.2078,0.79561 -0.4419,0.33 -0.7865,0.60767 -1.0353,0.82437 v -2.38683 h -5.4542 v 16.62158 h 5.4542 v -11.12898 c 0.592,-0.2181 1.2032,-0.40756 1.8309,-0.56556 0.628,-0.1616 1.2208,-0.23964 1.7925,-0.23964 0.4773,0 0.9183,0.0208 1.3132,0.0575 0.3949,0.0313 0.693,0.0785 0.9011,0.15337 h 0.4505 v -4.89828 c -0.1757,-0.0266 -0.3761,-0.0376 -0.5943,-0.0479 -0.2177,-0.008 -0.4077,-0.009 -0.5847,-0.01 z m -109.9383,0.0479 v 16.62159 h 5.4543 v -16.62159 z m 63.7353,0 6.4224,16.21899 -2.6553,6.49909 h 5.8569 l 8.838,-22.70849 -5.6076,-0.01 -3.4413,10.41964 -3.6809,-10.41964 z m -190.3335,0.01 v 16.62158 h 5.4543 v -16.62158 z m -108.79756,0.01 v 16.62159 h 5.44468 V 527.3123 Z m 207.88486,2.79902 c 1.038,0 1.8071,0.28143 2.3101,0.85313 0.5032,0.572 0.7682,1.40686 0.8052,2.50186 h -6.5949 c 0.062,-1.036 0.3907,-1.85233 0.9873,-2.45393 0.597,-0.6018 1.4333,-0.90092 2.4923,-0.90106 z m 117.4918,0 c 1.038,0 1.8069,0.28143 2.3101,0.85313 0.5031,0.572 0.7692,1.40686 0.8052,2.50186 h -6.5853 c 0.062,-1.036 0.3906,-1.85233 0.9873,-2.45393 0.597,-0.6018 1.4227,-0.90092 2.4827,-0.90106 z m -189.279,0.01 c 1.039,0 1.8057,0.28143 2.3101,0.85313 0.503,0.572 0.7822,1.40686 0.8052,2.50186 h -6.5854 c 0.062,-1.036 0.3909,-1.85234 0.9874,-2.45394 0.597,-0.6018 1.4237,-0.9009 2.4827,-0.90105 z m -66.3426,0.01 c 1.038,0 1.807,0.28143 2.3102,0.85313 0.5031,0.572 0.7822,1.40687 0.8052,2.50187 h -6.5854 c 0.062,-1.036 0.3895,-1.85234 0.9873,-2.45394 0.597,-0.6018 1.4237,-0.90091 2.4827,-0.90106 z m 155.7579,0.6039 c 0.3125,0 0.6856,0.0373 1.1215,0.12462 0.4373,0.0836 0.7935,0.18822 1.064,0.31632 v 8.15743 c -0.406,0.3052 -0.8539,0.54072 -1.342,0.71892 -0.4887,0.1791 -0.9691,0.2684 -1.4474,0.2684 -1.174,0 -2.0255,-0.36297 -2.5498,-1.09277 -0.5245,-0.73 -0.786,-1.91829 -0.786,-3.55629 0,-1.559 0.3272,-2.76487 0.9873,-3.63297 0.66,-0.8671 1.6434,-1.30366 2.9524,-1.30366 z m -180.94909,0.14379 c 1.112,0 1.92964,0.37255 2.45394,1.10235 0.5244,0.73 0.78603,1.89995 0.78603,3.51795 0,1.657 -0.31467,2.89605 -0.95857,3.71925 -0.644,0.8236 -1.63298,1.23655 -2.96198,1.23655 -0.477,0 -0.88895,-0.0266 -1.23655,-0.0767 -0.3474,-0.05 -0.66837,-0.12473 -0.95857,-0.24923 v -8.35872 c 0.4672,-0.2962 0.93538,-0.5227 1.41868,-0.671 0.4831,-0.1469 0.96882,-0.22047 1.45702,-0.22047 z m 208.20119,5.24337 v 3.46043 c -0.4049,0.3749 -0.863,0.6656 -1.3612,0.8723 -0.4974,0.2103 -0.9787,0.30674 -1.457,0.30674 -0.861,0 -1.5146,-0.13975 -1.9555,-0.43135 -0.4419,-0.291 -0.671,-0.8308 -0.671,-1.6104 0,-0.5327 0.1372,-0.95349 0.4026,-1.27489 0.2646,-0.3202 0.6338,-0.56093 1.112,-0.71893 0.55,-0.1883 1.1153,-0.31144 1.687,-0.37384 0.571,-0.0634 1.3191,-0.14276 2.2431,-0.23006 z m 40.9596,0 v 3.46043 c -0.4047,0.3749 -0.8629,0.6656 -1.3611,0.8723 -0.4987,0.2103 -0.979,0.30674 -1.4571,0.30674 -0.861,0 -1.5144,-0.13975 -1.9554,-0.43135 -0.442,-0.291 -0.6614,-0.8308 -0.6614,-1.6104 0,-0.5327 0.1276,-0.95349 0.393,-1.27489 0.2636,-0.3202 0.6338,-0.56093 1.1119,-0.71893 0.551,-0.1883 1.1155,-0.31144 1.6871,-0.37384 0.571,-0.0634 1.3189,-0.14276 2.243,-0.23006 z"
         inkscape:label="Light Shadow"
         transform="translate(9.2747207e-6)" /><path
         d="m 1071,641.2 c -84.77,-2.903 -165.4,-22.08 -228.1,-54.23 -5.904,-3.03 -18.79,-10.2 -18.79,-10.46 0,-0.0873 2.045,0.8768 4.545,2.153 30.69,15.67 69.26,29.06 108.2,37.56 61.76,13.49 129.4,17.08 195.7,10.37 62.56,-6.33 121,-21.69 170.9,-44.92 44.86,-20.88 80.78,-47.6 104.7,-77.83 36.74,-46.5 41.65,-100.4 13.53,-148.2 -18.21,-30.98 -48.6,-58.27 -90.32,-81.1 -3.995,-2.187 -7.129,-3.976 -6.966,-3.976 0.5468,0 18.2,8.51 23.72,11.44 26.95,14.28 48.38,29.48 67.08,47.58 23.49,22.74 38.24,46.16 45.46,72.16 6.672,24.05 5.427,50.72 -3.474,74.37 -11.97,31.82 -36.47,61.1 -72.3,86.45 -58.2,41.17 -141.5,68.44 -233.9,76.54 -25.07,2.199 -54.51,2.97 -79.99,2.097 z"
         style="fill:url(#vlpa)"
         id="path1-5" /><path
         d="m 1283,532.2 h -0.4518 c -0.2081,-0.0749 -0.5093,-0.1244 -0.9042,-0.1557 -0.3949,-0.0367 -0.8307,-0.05 -1.308,-0.05 -0.5717,0 -1.171,0.0749 -1.799,0.2365 -0.6277,0.158 -1.238,0.3449 -1.83,0.563 v 11.13 h -5.452 v -16.62 h 5.452 v 2.382 c 0.2488,-0.2167 0.5941,-0.4907 1.036,-0.8207 0.4409,-0.3302 0.8443,-0.5941 1.207,-0.7921 0.395,-0.2268 0.8542,-0.422 1.379,-0.5841 0.5242,-0.163 1.02,-0.2443 1.488,-0.2443 0.177,1.3e-4 0.3739,0.005 0.5916,0.0132 0.2182,0.0103 0.416,0.023 0.5917,0.0496 z m -19.83,12.16 c -3.302,0 -5.834,-0.7498 -7.594,-2.249 -1.76,-1.4992 -2.641,-3.635 -2.641,-6.407 0,-2.713 0.8209,-4.878 2.462,-6.496 1.641,-1.618 3.936,-2.427 6.886,-2.427 2.679,0 4.694,0.685 6.044,2.057 1.35,1.371 2.025,3.334 2.025,5.889 v 1.864 h -11.95 c 0.05,0.7697 0.2231,1.413 0.5144,1.931 0.2915,0.5181 0.6751,0.9291 1.153,1.235 0.4671,0.3054 1.013,0.5256 1.636,0.6588 0.6226,0.1332 1.303,0.1993 2.04,0.1993 0.634,0 1.257,-0.0624 1.869,-0.1993 0.6129,-0.1332 1.173,-0.3077 1.682,-0.5256 0.4473,-0.1883 0.8594,-0.3899 1.238,-0.6065 0.3785,-0.2167 0.6876,-0.4096 0.9266,-0.5766 h 0.5766 v 4.276 c -0.4472,0.1681 -0.8543,0.3224 -1.223,0.4658 -0.3688,0.1433 -0.8757,0.2888 -1.519,0.4372 -0.5917,0.1483 -1.202,0.264 -1.83,0.3476 -0.6277,0.0873 -1.394,0.1258 -2.298,0.1258 z m 1.807,-10.89 c -0.036,-1.095 -0.299,-1.929 -0.8021,-2.501 -0.5032,-0.5717 -1.275,-0.8581 -2.313,-0.8581 -1.06,1.4e-4 -1.888,0.3012 -2.485,0.903 -0.5967,0.6016 -0.9267,1.42 -0.9889,2.456 z m -10.9,-6.17 -8.833,22.71 h -5.857 l 2.648,-6.496 -6.418,-16.22 h 5.733 l 3.676,10.42 3.443,-10.42 z m -23.87,12.28 v -3.462 c -0.9241,0.0873 -1.672,0.1658 -2.243,0.2292 -0.5716,0.0624 -1.132,0.1892 -1.683,0.3775 -0.4781,0.158 -0.8494,0.3972 -1.113,0.7174 -0.2654,0.3214 -0.3971,0.7473 -0.3971,1.28 0,0.7796 0.2205,1.314 0.6625,1.605 0.441,0.2916 1.094,0.4358 1.955,0.4358 0.4781,0 0.9653,-0.0997 1.464,-0.31 0.4982,-0.2067 0.9503,-0.4982 1.355,-0.8731 z m 0,2.575 c -0.3738,0.2962 -0.7086,0.5617 -1.005,0.7996 -0.2967,0.2365 -0.6936,0.4733 -1.192,0.7099 -0.4882,0.2269 -0.9628,0.4 -1.426,0.5181 -0.4619,0.1245 -1.108,0.1782 -1.94,0.1782 -1.547,0 -2.832,-0.4932 -3.856,-1.48 -1.022,-0.9864 -1.534,-2.229 -1.534,-3.729 0,-1.233 0.259,-2.229 0.7785,-2.989 0.5194,-0.7597 1.267,-1.361 2.243,-1.805 0.9862,-0.4532 2.165,-0.7697 3.536,-0.9465 1.371,-0.1782 2.846,-0.3164 4.424,-0.4146 v -0.0873 c 0,-0.9179 -0.3564,-1.551 -1.067,-1.901 -0.7112,-0.3499 -1.779,-0.5256 -3.201,-0.5256 -0.6439,0 -1.397,0.1121 -2.259,0.3325 -0.8618,0.2218 -1.703,0.5056 -2.524,0.8506 h -0.4671 v -4.01 c 0.5405,-0.1483 1.413,-0.3224 2.617,-0.5256 1.204,-0.2016 2.42,-0.3026 3.645,-0.3026 3.012,0 5.206,0.4758 6.582,1.428 1.376,0.9515 2.064,2.404 2.064,4.358 v 11.3 h -5.421 z m -10.18,1.761 h -15.48 v -22.03 h 5.826 v 17.83 h 9.658 z m -30.78,-4.336 v -3.462 c -0.924,0.0873 -1.672,0.1658 -2.243,0.2292 -0.5717,0.0624 -1.132,0.1892 -1.682,0.3775 -0.4782,0.158 -0.8494,0.3972 -1.114,0.7174 -0.2654,0.3214 -0.3972,0.7473 -0.3972,1.28 0,0.7796 0.2206,1.314 0.6625,1.605 0.4409,0.2916 1.094,0.4358 1.955,0.4358 0.4783,0 0.9666,-0.0997 1.464,-0.31 0.4982,-0.2067 0.9501,-0.4982 1.355,-0.8731 z m 0,2.575 c -0.3737,0.2962 -0.7086,0.5617 -1.005,0.7996 -0.2968,0.2365 -0.6937,0.4733 -1.192,0.7099 -0.4882,0.2269 -0.9628,0.4 -1.425,0.5181 -0.4621,0.1245 -1.108,0.1782 -1.94,0.1782 -1.547,0 -2.832,-0.4932 -3.855,-1.48 -1.023,-0.9864 -1.534,-2.229 -1.534,-3.729 0,-1.233 0.2588,-2.229 0.7783,-2.989 0.5194,-0.7597 1.267,-1.361 2.243,-1.805 0.9864,-0.4532 2.165,-0.7697 3.536,-0.9465 1.371,-0.1782 2.846,-0.3164 4.424,-0.4146 v -0.0873 c 0,-0.9179 -0.3564,-1.551 -1.067,-1.901 -0.711,-0.3499 -1.778,-0.5256 -3.201,-0.5256 -0.6438,0 -1.397,0.1121 -2.259,0.3325 -0.8618,0.2218 -1.703,0.5056 -2.524,0.8506 h -0.4671 v -4.01 c 0.5405,-0.1483 1.412,-0.3224 2.617,-0.5256 1.204,-0.2016 2.42,-0.3026 3.645,-0.3026 3.012,0 5.206,0.4758 6.582,1.428 1.376,0.9515 2.064,2.404 2.064,4.358 v 11.3 h -5.421 z m -11.91,1.761 h -5.452 v -16.62 h 5.452 z m 0.1556,-18.98 h -5.764 v -4.04 h 5.764 z m -7.856,18.98 h -5.452 v -1.731 c -0.3536,0.2764 -0.756,0.5717 -1.207,0.888 -0.4519,0.315 -0.8494,0.5529 -1.192,0.7099 -0.4357,0.1979 -0.8667,0.3448 -1.293,0.4445 -0.4261,0.0997 -0.9352,0.1483 -1.527,0.1483 -1.994,0 -3.573,-0.7846 -4.736,-2.353 -1.163,-1.568 -1.745,-3.665 -1.745,-6.289 0,-1.45 0.198,-2.708 0.5916,-3.773 0.3948,-1.065 0.9403,-1.993 1.636,-2.782 0.6339,-0.7199 1.402,-1.29 2.306,-1.709 0.903,-0.4197 1.859,-0.629 2.866,-0.629 0.9141,0 1.664,0.0873 2.251,0.2742 0.5866,0.1832 1.27,0.4658 2.049,0.8506 v -7.073 h 5.452 z m -5.452,-4.587 v -8.153 c -0.2705,-0.1281 -0.6227,-0.2342 -1.06,-0.3178 -0.4359,-0.0873 -0.8095,-0.1258 -1.122,-0.1258 -1.309,0 -2.292,0.4349 -2.952,1.302 -0.6601,0.8681 -0.989,2.081 -0.989,3.64 0,1.638 0.2627,2.821 0.7872,3.551 0.5243,0.7298 1.373,1.095 2.547,1.095 0.4783,0 0.9603,-0.0873 1.449,-0.2664 0.4881,-0.1782 0.934,-0.4197 1.34,-0.7249 z m -18.51,5.031 c -3.303,0 -5.834,-0.7498 -7.594,-2.249 -1.76,-1.499 -2.64,-3.635 -2.64,-6.407 0,-2.713 0.8208,-4.878 2.461,-6.496 1.641,-1.618 3.936,-2.427 6.886,-2.427 2.679,0 4.694,0.685 6.044,2.057 1.35,1.371 2.025,3.334 2.025,5.889 v 1.864 h -11.95 c 0.051,0.7697 0.2232,1.413 0.5145,1.931 0.2916,0.5181 0.675,0.9291 1.153,1.235 0.467,0.3054 1.012,0.5256 1.636,0.6588 0.6228,0.1332 1.303,0.1993 2.041,0.1993 0.6339,0 1.257,-0.0624 1.869,-0.1993 0.6128,-0.1332 1.173,-0.3077 1.682,-0.5256 0.4473,-0.1883 0.8594,-0.3899 1.238,-0.6065 0.3784,-0.2167 0.6887,-0.4096 0.9267,-0.5766 h 0.5765 v 4.276 c -0.4472,0.1681 -0.8543,0.3224 -1.223,0.4658 -0.3688,0.1433 -0.8756,0.2888 -1.519,0.4372 -0.5915,0.1483 -1.202,0.264 -1.83,0.3476 -0.6276,0.0873 -1.394,0.1258 -2.298,0.1258 z m 1.807,-10.89 c -0.037,-1.095 -0.2989,-1.929 -0.8021,-2.501 -0.503,-0.5717 -1.275,-0.8581 -2.313,-0.8581 -1.059,1.4e-4 -1.888,0.3012 -2.485,0.903 -0.5966,0.6016 -0.9266,1.42 -0.9888,2.456 z m -18.38,10.45 v -8.301 c 0,-0.8183 -0.013,-1.509 -0.051,-2.072 -0.037,-0.5617 -0.1245,-1.021 -0.2801,-1.376 -0.1556,-0.355 -0.3972,-0.614 -0.7248,-0.7772 -0.3275,-0.163 -0.7871,-0.2443 -1.379,-0.2443 -0.4161,0 -0.8257,0.0873 -1.231,0.259 -0.4045,0.1731 -0.8467,0.4174 -1.324,0.7323 v 11.78 h -5.484 v -8.301 c 0,-0.8095 -0.013,-1.497 -0.051,-2.064 -0.037,-0.5667 -0.1318,-1.029 -0.2874,-1.383 -0.1558,-0.355 -0.3972,-0.614 -0.7249,-0.7772 -0.3274,-0.163 -0.781,-0.2443 -1.363,-0.2443 -0.4473,0 -0.883,0.0997 -1.308,0.2966 -0.4262,0.1966 -0.8408,0.4298 -1.246,0.6949 v 11.78 h -5.452 v -16.62 h 5.452 v 1.835 c 0.893,-0.7199 1.734,-1.282 2.524,-1.687 0.7896,-0.4046 1.677,-0.6065 2.664,-0.6065 1.07,0 2.009,0.2415 2.82,0.7248 0.8095,0.4832 1.428,1.203 1.854,2.16 1.049,-0.9278 2.038,-1.64 2.968,-2.138 0.9291,-0.4982 1.872,-0.7473 2.827,-0.7473 0.8094,0 1.537,0.1245 2.181,0.3701 0.644,0.2466 1.189,0.6165 1.636,1.11 0.4882,0.5331 0.8544,1.167 1.098,1.901 0.2443,0.7348 0.3659,1.694 0.3659,2.878 v 10.82 z m -25.56,0.3251 c -2.222,0 -3.84,-0.4335 -4.852,-1.302 -1.013,-0.8681 -1.519,-2.289 -1.519,-4.261 v -7.768 h -2.088 v -3.61 h 2.088 v -4.75 h 5.452 v 4.75 h 5.25 v 3.61 h -5.25 v 5.889 c 0,0.5816 0,1.09 0.013,1.524 0.011,0.4349 0.088,0.8232 0.2489,1.169 0.1456,0.3449 0.4023,0.619 0.771,0.8208 0.3687,0.2016 0.9066,0.304 1.612,0.304 0.2916,0 0.6725,-0.0624 1.144,-0.1782 0.4721,-0.1245 0.8021,-0.2268 0.989,-0.3251 h 0.4669 v 3.655 c -0.5915,0.1482 -1.22,0.264 -1.885,0.3476 -0.665,0.0873 -1.48,0.1258 -2.446,0.1258 z m -13.01,0.1245 c -1.443,0 -2.765,-0.1731 -3.964,-0.5181 -1.199,-0.3449 -2.241,-0.8781 -3.123,-1.598 -0.8719,-0.7199 -1.553,-1.625 -2.041,-2.715 -0.4882,-1.09 -0.7324,-2.375 -0.7324,-3.855 0,-1.588 0.2654,-2.94 0.7947,-4.054 0.5293,-1.115 1.246,-2.032 2.15,-2.752 0.8717,-0.6913 1.898,-1.201 3.077,-1.532 1.179,-0.3302 2.407,-0.4957 3.684,-0.4957 0.9665,0 1.932,0.1121 2.898,0.3178 0.9664,0.2117 1.937,0.5505 2.913,1.014 v 4.439 h -0.7011 c -0.2183,-0.197 -0.4858,-0.4147 -0.8021,-0.6514 -0.3164,-0.2365 -0.6627,-0.4532 -1.036,-0.6513 -0.3949,-0.2067 -0.8407,-0.3825 -1.34,-0.5256 -0.4981,-0.1433 -1.054,-0.214 -1.667,-0.214 -1.392,1.3e-4 -2.469,0.4608 -3.232,1.384 -0.7633,0.9229 -1.144,2.163 -1.144,3.721 0,1.667 0.4072,2.91 1.223,3.729 0.8159,0.8195 1.898,1.228 3.248,1.228 0.685,10e-5 1.288,-0.0748 1.807,-0.2218 0.5194,-0.1483 0.9665,-0.3251 1.34,-0.533 0.3636,-0.2066 0.675,-0.422 0.9354,-0.6439 0.259,-0.2218 0.4832,-0.422 0.67,-0.599 h 0.7011 v 4.439 c -0.3112,0.1281 -0.6724,0.2765 -1.082,0.4436 -0.4096,0.1681 -0.8281,0.3063 -1.254,0.4146 -0.5293,0.1382 -1.025,0.2443 -1.488,0.3178 -0.462,0.0749 -1.072,0.1121 -1.83,0.1121 z m -16.64,0 c -3.303,0 -5.834,-0.7498 -7.594,-2.249 -1.76,-1.499 -2.64,-3.635 -2.64,-6.407 0,-2.713 0.8208,-4.878 2.461,-6.496 1.641,-1.618 3.936,-2.427 6.885,-2.427 2.68,0 4.694,0.685 6.044,2.057 1.35,1.371 2.025,3.334 2.025,5.889 v 1.864 h -11.95 c 0.05,0.7696 0.2227,1.413 0.5143,1.931 0.2903,0.5181 0.6751,0.9291 1.153,1.236 0.4672,0.3054 1.013,0.5256 1.636,0.6588 0.6227,0.1332 1.303,0.1993 2.041,0.1993 0.634,0 1.257,-0.0624 1.87,-0.1993 0.6127,-0.1332 1.173,-0.3077 1.682,-0.5256 0.4472,-0.1883 0.8594,-0.3899 1.238,-0.6065 0.3784,-0.2167 0.6875,-0.4096 0.9267,-0.5766 h 0.5766 v 4.276 c -0.4459,0.1681 -0.8544,0.3228 -1.223,0.4658 -0.3687,0.1433 -0.8755,0.2888 -1.519,0.4372 -0.5915,0.1483 -1.202,0.264 -1.83,0.3476 -0.6277,0.0873 -1.394,0.1258 -2.298,0.1258 z m 1.807,-10.89 c -0.023,-1.095 -0.2989,-1.929 -0.8019,-2.501 -0.5044,-0.5717 -1.275,-0.8581 -2.314,-0.8581 -1.059,1.5e-4 -1.888,0.3012 -2.485,0.903 -0.5965,0.6016 -0.9266,1.42 -0.9889,2.456 z m -10.95,-1.273 h -0.4518 c -0.2082,-0.0749 -0.5095,-0.1244 -0.903,-0.1557 -0.3949,-0.0367 -0.8307,-0.05 -1.309,-0.05 -0.5716,0 -1.171,0.0749 -1.799,0.2365 -0.6289,0.158 -1.238,0.3449 -1.83,0.5629 v 11.13 h -5.452 v -16.62 h 5.452 v 2.382 c 0.2489,-0.2168 0.5942,-0.4907 1.036,-0.8207 0.4408,-0.3302 0.8432,-0.5941 1.207,-0.7921 0.3949,-0.2268 0.8543,-0.422 1.378,-0.5841 0.5243,-0.163 1.02,-0.2443 1.488,-0.2443 0.1768,1.5e-4 0.3738,0.005 0.5915,0.0132 0.2182,0.0103 0.4161,0.023 0.5917,0.05 z m -14.01,11.72 h -5.452 v -16.62 h 5.452 z m 0.1557,-18.98 h -5.764 v -4.04 h 5.764 z m -6.814,7.99 c 0,2.052 -0.4721,3.889 -1.418,5.512 -0.9452,1.623 -2.139,2.868 -3.583,3.736 -1.204,0.7398 -2.516,1.216 -3.933,1.428 -1.418,0.2117 -2.926,0.3187 -4.525,0.3187 h -7.259 v -22.03 h 7.197 c 1.63,0 3.157,0.0997 4.58,0.2962 1.423,0.197 2.757,0.6763 4.004,1.435 1.527,0.9278 2.731,2.178 3.614,3.751 0.883,1.573 1.324,3.425 1.324,5.556 z m -5.982,-0.0501 c 0,-1.45 -0.2627,-2.691 -0.787,-3.721 -0.5244,-1.031 -1.332,-1.837 -2.422,-2.419 -0.7897,-0.4147 -1.618,-0.6414 -2.485,-0.6813 -0.8668,-0.0367 -1.903,-0.0624 -3.108,-0.0624 h -0.1121 v 13.79 h 0.1121 c 1.308,0 2.412,-0.023 3.31,-0.0624 0.898,-0.05 1.752,-0.309 2.563,-0.7921 0.9553,-0.5717 1.682,-1.361 2.181,-2.367 0.4982,-1.006 0.7472,-2.234 0.7472,-3.684 z m -30.55,11.49 c -3.302,0 -5.834,-0.7498 -7.594,-2.249 -1.76,-1.499 -2.64,-3.635 -2.64,-6.407 0,-2.713 0.8207,-4.878 2.461,-6.496 1.641,-1.618 3.936,-2.427 6.886,-2.427 2.679,0 4.694,0.685 6.044,2.057 1.35,1.371 2.025,3.334 2.025,5.889 v 1.864 h -11.95 c 0.05,0.7696 0.2232,1.413 0.5144,1.931 0.2902,0.5181 0.675,0.9291 1.153,1.235 0.4671,0.3054 1.013,0.5256 1.636,0.6588 0.6227,0.1332 1.303,0.1993 2.041,0.1993 0.6339,0 1.257,-0.0624 1.869,-0.1993 0.6128,-0.1332 1.173,-0.3077 1.682,-0.5256 0.4473,-0.1883 0.8593,-0.3899 1.238,-0.6065 0.3788,-0.2167 0.6887,-0.4096 0.9266,-0.5766 h 0.5766 v 4.276 c -0.4472,0.1681 -0.8543,0.3228 -1.223,0.4658 -0.3689,0.1433 -0.8757,0.2889 -1.519,0.4372 -0.5916,0.1482 -1.202,0.264 -1.83,0.3476 -0.629,0.0873 -1.394,0.1258 -2.298,0.1258 z m 1.807,-10.89 c -0.023,-1.095 -0.299,-1.929 -0.8021,-2.501 -0.5032,-0.5717 -1.275,-0.8581 -2.313,-0.8581 -1.059,1.5e-4 -1.888,0.3012 -2.485,0.903 -0.5978,0.6016 -0.9266,1.42 -0.9888,2.456 z m -13.03,10.45 h -5.452 v -23.02 h 5.452 z m -6.454,-8.538 c -9e-5,2.654 -0.7086,4.794 -2.126,6.422 -1.418,1.628 -3.165,2.441 -5.242,2.441 -0.873,0 -1.631,-0.0997 -2.274,-0.2815 -0.6438,-0.1883 -1.329,-0.4783 -2.056,-0.8731 v 6.925 h -5.452 v -22.71 h 5.452 v 1.731 c 0.7996,-0.6514 1.615,-1.178 2.446,-1.583 0.8307,-0.405 1.791,-0.6066 2.882,-0.6066 2.025,0 3.593,0.7647 4.705,2.293 1.111,1.529 1.667,3.61 1.667,6.244 z m -5.577,0.0997 c 0,-1.618 -0.2627,-2.792 -0.7871,-3.522 -0.5243,-0.7298 -1.342,-1.095 -2.454,-1.095 -0.4882,0 -0.9739,0.0749 -1.457,0.2218 -0.4833,0.1483 -0.9578,0.3701 -1.425,0.6663 v 8.36 c 0.2902,0.1245 0.6103,0.2016 0.9577,0.2516 0.3476,0.0501 0.761,0.0749 1.238,0.0749 1.329,0 2.316,-0.4124 2.96,-1.236 0.6439,-0.8232 0.9665,-2.064 0.9665,-3.721 z m -19.19,8.438 v -8.301 c 0,-0.8183 -0.0132,-1.509 -0.0501,-2.072 -0.023,-0.5617 -0.1244,-1.021 -0.2801,-1.376 -0.1557,-0.355 -0.3972,-0.614 -0.7249,-0.7771 -0.3274,-0.163 -0.7871,-0.2443 -1.379,-0.2443 -0.416,0 -0.8258,0.0873 -1.23,0.259 -0.405,0.1731 -0.8469,0.4174 -1.324,0.7323 v 11.78 h -5.484 v -8.301 c 0,-0.8096 -0.0132,-1.497 -0.0496,-2.064 -0.0367,-0.5667 -0.1322,-1.029 -0.2879,-1.383 -0.1557,-0.355 -0.3972,-0.614 -0.7248,-0.7772 -0.3274,-0.163 -0.7809,-0.2443 -1.363,-0.2443 -0.4459,0 -0.883,0.0997 -1.308,0.2962 -0.4261,0.197 -0.8419,0.4298 -1.246,0.695 v 11.78 h -5.452 v -16.62 h 5.452 v 1.835 c 0.893,-0.7198 1.734,-1.282 2.524,-1.687 0.7896,-0.405 1.677,-0.6066 2.664,-0.6066 1.07,0 2.01,0.2416 2.82,0.7249 0.8108,0.4832 1.428,1.203 1.854,2.16 1.049,-0.9278 2.038,-1.64 2.968,-2.138 0.9291,-0.4982 1.872,-0.7473 2.827,-0.7473 0.8095,0 1.537,0.1244 2.181,0.3697 0.6439,0.2466 1.189,0.6165 1.636,1.11 0.4882,0.5331 0.8544,1.167 1.098,1.901 0.2438,0.7348 0.366,1.694 0.366,2.878 v 10.82 z m -23.17,0 h -5.452 v -16.62 h 5.452 z m 0.1557,-18.98 h -5.764 v -4.04 h 5.764 z m -16.41,19.38 c -1.776,0 -3.336,-0.163 -4.681,-0.4882 -1.345,-0.3251 -2.594,-0.7298 -3.747,-1.213 v -5.238 h 0.5293 c 1.163,0.9366 2.446,1.657 3.848,2.16 1.402,0.5032 2.763,0.7547 4.081,0.7547 0.3325,0 0.7709,-0.0367 1.316,-0.0997 0.5455,-0.0749 0.9839,-0.1782 1.316,-0.3251 0.405,-0.1681 0.7473,-0.4023 1.028,-0.7025 0.2801,-0.3012 0.4211,-0.6974 0.4211,-1.191 0,-0.553 -0.2278,-1.001 -0.685,-1.347 -0.4569,-0.3449 -1.003,-0.5966 -1.636,-0.7548 -0.7896,-0.197 -1.633,-0.3848 -2.531,-0.5617 -0.8979,-0.1782 -1.737,-0.3949 -2.516,-0.6514 -1.797,-0.6016 -3.084,-1.411 -3.863,-2.427 -0.7784,-1.016 -1.168,-2.289 -1.168,-3.818 0,-2.062 0.9192,-3.731 2.757,-5.009 1.838,-1.277 4.133,-1.916 6.885,-1.916 1.381,9e-5 2.755,0.1332 4.12,0.4 1.366,0.2663 2.589,0.6264 3.669,1.08 v 5.031 h -0.5144 c -0.8618,-0.7 -1.913,-1.292 -3.155,-1.776 -1.24,-0.4833 -2.516,-0.7249 -3.824,-0.7249 -0.5094,0 -0.9665,0.0367 -1.371,0.0997 -0.4046,0.0749 -0.8307,0.2016 -1.277,0.4 -0.3637,0.158 -0.6775,0.3922 -0.9428,0.7024 -0.2654,0.31 -0.3972,0.6588 -0.3972,1.044 0,0.5616 0.2103,1.009 0.6315,1.339 0.4211,0.3302 1.233,0.6289 2.438,0.8954 0.7784,0.1681 1.529,0.3302 2.251,0.4882 0.7223,0.158 1.493,0.3747 2.313,0.6514 1.61,0.553 2.807,1.295 3.591,2.227 0.7846,0.9328 1.176,2.163 1.176,3.692 0,2.19 -0.9054,3.951 -2.718,5.282 -1.812,1.332 -4.261,1.998 -7.345,1.998 z"
         style="fill:#173556"
         id="path2" /><path
         d="M 1281,506.9 H 1131.2 V 293.8 h 56.36 v 172.5 h 93.43 z M 1116.5,400.5 c -2e-4,19.85 -4.571,37.62 -13.71,53.32 -9.143,15.7 -20.7,27.74 -34.66,36.14 -11.65,7.157 -24.34,11.76 -38.05,13.81 -13.71,2.052 -28.31,3.077 -43.78,3.077 h -70.22 v -213.1 h 69.62 c 15.77,2.6e-4 30.54,0.954 44.3,2.863 13.76,1.909 26.67,6.537 38.73,13.88 14.77,8.97 26.42,21.07 34.96,36.29 8.539,15.22 12.81,33.14 12.81,53.75 z m -57.87,-0.4298 c -1e-4,-14.03 -2.537,-26.03 -7.61,-36 -5.074,-9.972 -12.88,-17.77 -23.43,-23.4 -7.635,-4.008 -15.65,-6.202 -24.04,-6.584 -8.389,-0.3811 -18.41,-0.5729 -30.06,-0.5729 h -1.055 v 133.4 h 1.055 c 12.66,1.4e-4 23.33,-0.214 32.02,-0.6439 8.69,-0.4298 16.95,-2.982 24.79,-7.658 9.243,-5.534 16.28,-13.17 21.1,-22.9 4.822,-9.733 7.233,-21.61 7.234,-35.64 z m -250.1,110.6 c -17.18,0 -32.27,-1.574 -45.28,-4.723 -13.01,-3.149 -25.09,-7.062 -36.24,-11.74 v -50.67 h 5.124 c 11.25,9.065 23.66,16.03 37.22,20.9 13.56,4.867 26.72,7.3 39.48,7.3 3.215,0 7.459,-0.3338 12.73,-1.001 5.274,-0.6676 9.519,-1.718 12.73,-3.149 3.918,-1.622 7.233,-3.889 9.946,-6.799 2.712,-2.91 4.069,-6.751 4.069,-11.52 -1.4e-4,-5.344 -2.21,-9.686 -6.631,-13.03 -4.421,-3.34 -9.695,-5.773 -15.82,-7.3 -7.635,-1.908 -15.8,-3.722 -24.49,-5.439 -8.69,-1.718 -16.8,-3.817 -24.34,-6.298 -17.38,-5.821 -29.84,-13.65 -37.37,-23.47 -7.535,-9.829 -11.3,-22.14 -11.3,-36.93 0,-19.94 8.891,-36.09 26.67,-48.45 17.78,-12.36 39.98,-18.54 66.61,-18.54 13.36,2.4e-4 26.65,1.288 39.86,3.865 13.21,2.577 25.04,6.06 35.49,10.45 v 48.67 h -4.973 c -8.339,-6.775 -18.51,-12.5 -30.52,-17.18 -12.01,-4.676 -24.34,-7.014 -37,-7.014 -4.923,1e-4 -9.343,0.3338 -13.26,1.001 -3.918,0.6688 -8.037,1.956 -12.36,3.865 -3.516,1.527 -6.555,3.793 -9.117,6.799 -2.562,3.006 -3.843,6.37 -3.843,10.09 -1.4e-4,5.439 2.034,9.757 6.103,12.95 4.069,3.197 11.93,6.083 23.58,8.66 7.535,1.622 14.79,3.197 21.78,4.723 6.982,1.527 14.44,3.626 22.38,6.298 15.57,5.344 27.15,12.52 34.74,21.54 7.585,9.018 11.38,20.92 11.38,35.71 -1e-4,21.18 -8.766,38.22 -26.3,51.1 -17.53,12.88 -41.22,19.32 -71.05,19.32 z"
         style="fill:#173556"
         id="path6" /><path
         d="m 900.6,605.1 c -1.389,0 -2.513,0.9752 -2.513,2.179 0,1.203 1.125,2.179 2.513,2.179 1.387,0 2.513,-0.9765 2.513,-2.179 0,-1.203 -1.126,-2.179 -2.513,-2.179 z m 107.7,19.54 c -2.169,0 -3.927,1.524 -3.927,3.407 0,1.881 1.758,3.405 3.927,3.405 2.169,0 3.927,-1.524 3.927,-3.405 0,-1.883 -1.758,-3.407 -3.927,-3.407 z m -55.89,-7.379 c -1.736,0 -3.143,1.221 -3.143,2.726 0,1.506 1.407,2.725 3.143,2.725 1.736,0 3.141,-1.219 3.141,-2.725 0,-1.505 -1.406,-2.726 -3.141,-2.726 z m 117.1,9.57 c -2.712,0 -4.909,1.905 -4.909,4.257 0,2.352 2.198,4.257 4.909,4.257 2.71,0 4.909,-1.905 4.909,-4.257 0,-2.352 -2.199,-4.257 -4.909,-4.257 z m 63.21,-3.286 c -3.387,0 -6.134,2.382 -6.134,5.321 0,2.94 2.747,5.323 6.134,5.323 3.389,0 6.138,-2.383 6.138,-5.323 0,-2.938 -2.749,-5.321 -6.138,-5.321 z m 63.35,-10.82 c -4.237,0 -7.67,2.98 -7.67,6.652 0,3.674 3.433,6.653 7.67,6.653 4.237,0 7.672,-2.979 7.672,-6.653 0,-3.673 -3.434,-6.652 -7.672,-6.652 z m 63.39,-19.8 c -5.295,0 -9.587,3.722 -9.587,8.314 0,4.592 4.292,8.316 9.587,8.316 5.295,0 9.589,-3.724 9.589,-8.316 0,-4.592 -4.294,-8.314 -9.589,-8.314 z m 60.7,-26.35 c -5.883,0 -10.65,4.137 -10.65,9.24 0,5.103 4.769,9.239 10.65,9.239 5.883,0 10.65,-4.136 10.65,-9.239 0,-5.103 -4.769,-9.24 -10.65,-9.24 z m 55.33,-37.88 c -6.537,0 -11.84,4.595 -11.84,10.26 0,5.669 5.3,10.27 11.84,10.27 6.539,0 11.84,-4.597 11.84,-10.27 0,-5.669 -5.298,-10.26 -11.84,-10.26 z m 45.63,-53.3 c -8.499,0 -15.39,5.976 -15.39,13.35 0,7.37 6.889,13.35 15.39,13.35 8.501,0 15.39,-5.975 15.39,-13.35 0,-7.369 -6.889,-13.35 -15.39,-13.35 z m 19.6,-55.29 c -6.537,0 -11.84,4.595 -11.84,10.27 0,5.669 5.298,10.26 11.84,10.26 6.542,0 11.84,-4.595 11.84,-10.26 0,-5.67 -5.298,-10.27 -11.84,-10.27 z m -6.608,-34.51 c 4.671,0 8.457,-3.281 8.457,-7.332 0,-4.049 -3.785,-7.332 -8.457,-7.332 -4.668,0 -8.453,3.283 -8.453,7.332 0,4.051 3.785,7.332 8.453,7.332 z m -20.65,-39.88 c 3.337,0 6.038,-2.346 6.038,-5.238 0,-2.892 -2.702,-5.236 -6.038,-5.236 -3.335,0 -6.04,2.344 -6.04,5.236 0,2.892 2.705,5.238 6.04,5.238 z m -22.7,-33.44 c -2.223,0 -4.024,1.564 -4.024,3.493 0,1.927 1.802,3.491 4.024,3.491 2.224,0 4.028,-1.564 4.028,-3.491 0,-1.929 -1.803,-3.493 -4.028,-3.493 z m -24.16,-13.7 c 1.483,0 2.685,-1.042 2.685,-2.328 0,-1.285 -1.202,-2.328 -2.685,-2.328 -1.483,0 -2.683,1.042 -2.683,2.328 0,1.285 1.2,2.328 2.683,2.328"
         style="fill:#173556;fill-rule:evenodd"
         id="path7-5" /></g><rect
       style="font-variation-settings:normal;display:inline;fill:none;stroke:#173556;stroke-width:1.99928;stroke-linecap:butt;stroke-linejoin:miter;stroke-miterlimit:4;stroke-dasharray:none;stroke-dashoffset:0;stroke-opacity:1;stop-color:#000000"
       id="rect1-18-1"
       width="48.000725"
       height="48.000725"
       x="0.99963778"
       y="0.99963778"
       rx="6.9104829"
       ry="6.9104829"
       inkscape:label="Frame" /></g><style
     type="text/css"
     id="style1">
	.st0{fill:url(#ICON_00000088831890668800157600000002638584723837204667_);}
</style><style
     id="style1-7">.st10{fill:#333}</style><style
     type="text/css"
     id="style1-1">
	.st0{fill:url(#ICON_00000088831890668800157600000002638584723837204667_);}
</style><style
     id="style1-7-2">.st10{fill:#333}</style></svg>
