<?xml version="1.0" encoding="UTF-8" standalone="no"?>
<!-- Created with Inkscape (http://www.inkscape.org/) -->

<svg
   width="50.000008mm"
   height="50.000008mm"
   viewBox="0 0 50.000008 50.000008"
   version="1.1"
   id="svg1"
   xml:space="preserve"
   sodipodi:docname="Rust_Box.svg"
   inkscape:version="1.4.3 (0d15f75, 2025-12-25)"
   inkscape:export-filename="Rust_Box.png"
   inkscape:export-xdpi="260.09595"
   inkscape:export-ydpi="260.09595"
   xmlns:inkscape="http://www.inkscape.org/namespaces/inkscape"
   xmlns:sodipodi="http://sodipodi.sourceforge.net/DTD/sodipodi-0.dtd"
   xmlns:xlink="http://www.w3.org/1999/xlink"
   xmlns="http://www.w3.org/2000/svg"
   xmlns:svg="http://www.w3.org/2000/svg"><sodipodi:namedview
     id="namedview1"
     pagecolor="#505050"
     bordercolor="#ffffff"
     borderopacity="1"
     inkscape:showpageshadow="0"
     inkscape:pageopacity="0"
     inkscape:pagecheckerboard="1"
     inkscape:deskcolor="#505050"
     inkscape:document-units="mm"
     inkscape:zoom="2.8284272"
     inkscape:cx="-21.036426"
     inkscape:cy="147.96209"
     inkscape:window-width="2560"
     inkscape:window-height="1369"
     inkscape:window-x="-8"
     inkscape:window-y="-8"
     inkscape:window-maximized="1"
     inkscape:current-layer="layer1"><inkscape:page
       x="0"
       y="0"
       width="50.000008"
       height="50.000008"
       id="page1"
       margin="0"
       bleed="0" /></sodipodi:namedview><defs
     id="defs1"><linearGradient
       id="linearGradient11"
       inkscape:collect="always"><stop
         style="stop-color:#3f80b6;stop-opacity:1;"
         offset="0"
         id="stop18" /><stop
         style="stop-color:#2e5592;stop-opacity:1;"
         offset="1"
         id="stop19" /></linearGradient><linearGradient
       id="linearGradient3"
       inkscape:collect="always"><stop
         style="stop-color:#ffffff;stop-opacity:0.25239617;"
         offset="0"
         id="stop3" /><stop
         style="stop-color:#ffffff;stop-opacity:0.04792332;"
         offset="1"
         id="stop5" /></linearGradient><linearGradient
       id="linearGradient2"><stop
         style="stop-color:#004995;stop-opacity:1;"
         offset="0.00129032"
         id="stop4" /><stop
         style="stop-color:#003f5a;stop-opacity:1;"
         offset="1"
         id="stop6" /></linearGradient><filter
       style="color-interpolation-filters:sRGB"
       id="filter1"
       x="-0.06882552"
       y="-0.06882552"
       width="1.137651"
       height="1.137651"><feGaussianBlur
         stdDeviation="0.9600145"
         id="feGaussianBlur1" /></filter><radialGradient
       inkscape:collect="always"
       xlink:href="#linearGradient2"
       id="radialGradient3"
       cx="0.49261644"
       cy="0.37367609"
       fx="0.49261644"
       fy="0.37367609"
       r="24.509804"
       gradientUnits="userSpaceOnUse"
       gradientTransform="matrix(1.995122,0,0,1.995122,-0.49021345,-0.37185329)" /><clipPath
       clipPathUnits="userSpaceOnUse"
       id="clipPath29"><use
         x="0"
         y="0"
         xlink:href="#g28"
         id="use29" /></clipPath><linearGradient
       inkscape:collect="always"
       xlink:href="#linearGradient3"
       id="linearGradient5"
       x1="49.881046"
       y1="5.8749299e-17"
       x2="0.11894228"
       y2="49.762104"
       gradientUnits="userSpaceOnUse" /><linearGradient
       id="d"
       gradientUnits="userSpaceOnUse"
       x1="75.199997"
       y1="74.5"
       x2="24.4"
       y2="260.79999"
       gradientTransform="matrix(0.26458333,0,0,0.26458333,48.947917,4.5900961)"><stop
         offset="0"
         stop-color="#4377bb"
         id="stop10" /><stop
         offset=".5"
         stop-color="#1a336b"
         id="stop11" /><stop
         offset="1"
         stop-color="#1a336b"
         id="stop12" /></linearGradient><linearGradient
       id="c"
       gradientUnits="userSpaceOnUse"
       x1="18.4"
       y1="64.199997"
       x2="144.3"
       y2="149.8"
       gradientTransform="matrix(0.26458333,0,0,0.26458333,48.947917,4.5900961)"><stop
         offset="0"
         stop-color="#315aa9"
         id="stop7" /><stop
         offset=".5"
         stop-color="#518ac8"
         id="stop8" /><stop
         offset="1"
         stop-color="#315aa9"
         id="stop9" /></linearGradient><linearGradient
       id="b"
       gradientUnits="userSpaceOnUse"
       x1="95.800003"
       y1="32.599998"
       x2="74"
       y2="105.2"
       gradientTransform="matrix(0.26458333,0,0,0.26458333,48.947917,4.5900961)"><stop
         offset="0"
         stop-color="#76b3e1"
         id="stop4-4" /><stop
         offset=".5"
         stop-color="#4377bb"
         id="stop5-4" /><stop
         offset="1"
         stop-color="#1f3b77"
         id="stop6-5" /></linearGradient><linearGradient
       id="a"
       gradientUnits="userSpaceOnUse"
       x1="27.5"
       y1="3"
       x2="152"
       y2="63.5"
       gradientTransform="matrix(0.26458333,0,0,0.26458333,48.947917,4.5900961)"><stop
         offset=".1"
         stop-color="#76b3e1"
         id="stop1" /><stop
         offset=".3"
         stop-color="#dcf2fd"
         id="stop2-5" /><stop
         offset="1"
         stop-color="#76b3e1"
         id="stop3-5" /></linearGradient><filter
       inkscape:collect="always"
       style="color-interpolation-filters:sRGB"
       id="filter11"
       x="-0.046332658"
       y="-0.049791817"
       width="1.0926653"
       height="1.0995836"><feGaussianBlur
         inkscape:collect="always"
         stdDeviation="0.81214982"
         id="feGaussianBlur11" /></filter><linearGradient
       inkscape:collect="always"
       xlink:href="#linearGradient11"
       id="linearGradient19"
       x1="25.000004"
       y1="2.9374649e-17"
       x2="50.000004"
       y2="25"
       gradientUnits="userSpaceOnUse" /></defs><g
     id="layer1"
     inkscape:label="Solid"><g
       id="g29"
       clip-path="url(#clipPath29)"
       style="display:inline"><g
         inkscape:label="Clip"
         id="g28"><rect
           style="font-variation-settings:normal;display:inline;fill:url(#radialGradient3);fill-opacity:1;stroke:none;stroke-width:0.980392;stroke-linecap:butt;stroke-linejoin:miter;stroke-miterlimit:4;stroke-dasharray:none;stroke-dashoffset:0;stroke-opacity:1;stop-color:#000000"
           id="rect26"
           width="49.019608"
           height="49.019608"
           x="0.49019623"
           y="0.3712548"
           rx="7.0571675"
           ry="7.0571675"
           inkscape:label="Background" /><rect
           style="font-variation-settings:normal;display:inline;fill:none;stroke:#000000;stroke-width:1.99928;stroke-linecap:butt;stroke-linejoin:miter;stroke-miterlimit:4;stroke-dasharray:none;stroke-dashoffset:0;stroke-opacity:1;filter:url(#filter1);stop-color:#000000"
           id="rect1"
           width="48.000725"
           height="48.000725"
           x="0.99963778"
           y="0.99963778"
           rx="6.9104829"
           ry="6.9104829"
           inkscape:label="Shadow" /></g></g><rect
       style="font-variation-settings:normal;display:inline;fill:url(#linearGradient5);stroke:none;stroke-width:0.980392;stroke-linecap:butt;stroke-linejoin:miter;stroke-miterlimit:4;stroke-dasharray:none;stroke-dashoffset:0;stroke-opacity:1;stop-color:#000000"
       id="rect2"
       width="49.019608"
       height="49.019608"
       x="0.49019623"
       y="0.3712548"
       rx="7.0571675"
       ry="7.0571675"
       inkscape:label="Light" /><path
       id="path2"
       style="display:inline;stroke-width:0.264583;filter:url(#filter11)"
       d="m 71.387496,5.5701345 c -1.421618,-0.05426 -2.827147,0.045119 -4.183136,0.3427751 l -0.793795,0.2647923 c -1.5875,0.5291666 -2.910433,1.3230515 -3.704183,2.3813849 l -0.529584,0.793795 -3.968393,6.8787802 0.05121,0.0099 c -1.579247,1.922959 -1.649517,4.647427 -0.05121,7.133679 0.595009,0.773512 1.336939,1.467002 2.18119,2.061888 l -5.091578,1.642294 -5.291772,9.260748 c 0,0 14.022774,10.5832 24.87069,7.937367 L 75.67073,44.01274 c 1.758116,-0.517093 3.071517,-1.478431 3.861312,-2.663636 l 0.107663,0.01804 5.291772,-9.524958 c 1.058333,-1.852083 0.793333,-3.9689 -0.529584,-6.085567 a 11.90625,11.90625 0 0 0 -2.30864,-2.200977 l 5.219027,-1.767416 4.76277,-7.93795 c 0,0 -10.736223,-7.9003206 -20.687554,-8.2801415 z"
       transform="matrix(0.88797053,0,0,0.88797053,-38.081977,2.685977)"
       inkscape:label="Shadow" /><g
       id="g5"
       transform="matrix(0.88797053,0,0,0.88797053,-38.081977,2.6859769)"
       inkscape:label="Icon"
       style="display:inline"><path
         d="m 92.075,13.850513 c 0,0 -14.022917,-10.3187502 -24.870833,-7.9375003 l -0.79375,0.2645834 C 64.822917,6.7067627 63.5,7.5005127 62.70625,8.5588461 l -0.529167,0.7937499 -3.968749,6.879167 6.879166,1.322916 c 2.910417,1.852084 6.614583,2.645834 10.054167,1.852084 l 12.170833,2.38125 z"
         fill="#76b3e1"
         id="path1"
         style="stroke-width:0.264583" /><path
         d="m 92.075,13.850513 c 0,0 -14.022917,-10.3187502 -24.870833,-7.9375003 l -0.79375,0.2645834 C 64.822917,6.7067627 63.5,7.5005127 62.70625,8.5588461 l -0.529167,0.7937499 -3.968749,6.879167 6.879166,1.322916 c 2.910417,1.852084 6.614583,2.645834 10.054167,1.852084 l 12.170833,2.38125 z"
         opacity="0.3"
         fill="url(#a)"
         id="path3"
         style="fill:url(#a);stroke-width:0.264583" /><path
         d="m 62.70625,13.850513 -1.058333,0.264583 c -4.497917,1.322917 -5.820833,5.55625 -3.439583,9.260417 2.645833,3.439583 8.202083,5.291666 12.699999,3.968749 L 87.3125,21.788013 c 0,0 -14.022917,-10.31875 -24.60625,-7.9375 z"
         fill="#518ac8"
         id="path4"
         style="stroke-width:0.264583" /><path
         d="m 62.70625,13.850513 -1.058333,0.264583 c -4.497917,1.322917 -5.820833,5.55625 -3.439583,9.260417 2.645833,3.439583 8.202083,5.291666 12.699999,3.968749 L 87.3125,21.788013 c 0,0 -14.022917,-10.31875 -24.60625,-7.9375 z"
         opacity="0.3"
         fill="url(#b)"
         id="path6"
         style="fill:url(#b);stroke-width:0.264583" /><path
         d="m 84.402083,25.756762 a 11.90625,11.90625 0 0 0 -12.7,-3.968749 l -16.404166,5.291666 -5.291667,9.260417 29.633333,5.027083 5.291667,-9.525 c 1.058333,-1.852083 0.79375,-3.96875 -0.529167,-6.085417 z"
         fill="url(#c)"
         id="path9"
         style="fill:url(#c);stroke-width:0.264583" /><path
         d="m 79.110417,35.017179 a 11.90625,11.90625 0 0 0 -12.7,-3.96875 L 50.00625,36.340096 c 0,0 14.022917,10.583333 24.870833,7.9375 l 0.79375,-0.264584 c 4.497917,-1.322916 6.085417,-5.55625 3.439584,-8.995833 z"
         fill="url(#d)"
         id="path12"
         style="fill:url(#d);stroke-width:0.264583" /></g><rect
       style="font-variation-settings:normal;display:inline;fill:none;stroke:url(#linearGradient19);stroke-width:1.99928;stroke-linecap:butt;stroke-linejoin:miter;stroke-miterlimit:4;stroke-dasharray:none;stroke-dashoffset:0;stroke-opacity:1;stop-color:#000000"
       id="rect1-18-1"
       width="48.000725"
       height="48.000725"
       x="0.99963778"
       y="0.99963778"
       rx="6.9104829"
       ry="6.9104829"
       inkscape:label="Border" /></g><style
     type="text/css"
     id="style1">
	.st0{fill:url(#ICON_00000088831890668800157600000002638584723837204667_);}
</style><style
     id="style1-7">.st10{fill:#333}</style><style
     type="text/css"
     id="style1-1">
	.st0{fill:url(#ICON_00000088831890668800157600000002638584723837204667_);}
</style><style
     id="style1-7-2">.st10{fill:#333}</style></svg>
