<?xml version="1.0" encoding="UTF-8" standalone="no"?>
<!-- Created with Inkscape (http://www.inkscape.org/) -->

<svg
   width="50mm"
   height="50mm"
   viewBox="0 0 50 50"
   version="1.1"
   id="svg1"
   xml:space="preserve"
   sodipodi:docname="Solid_Box.svg"
   inkscape:version="1.4.2 (f4327f4, 2025-05-13)"
   xmlns:inkscape="http://www.inkscape.org/namespaces/inkscape"
   xmlns:sodipodi="http://sodipodi.sourceforge.net/DTD/sodipodi-0.dtd"
   xmlns:xlink="http://www.w3.org/1999/xlink"
   xmlns="http://www.w3.org/2000/svg"
   xmlns:svg="http://www.w3.org/2000/svg"><sodipodi:namedview
     id="namedview1"
     pagecolor="#ffffff"
     bordercolor="#000000"
     borderopacity="0.25"
     inkscape:showpageshadow="2"
     inkscape:pageopacity="0.0"
     inkscape:pagecheckerboard="0"
     inkscape:deskcolor="#d1d1d1"
     inkscape:document-units="mm"
     inkscape:zoom="6.175375"
     inkscape:cx="94.488189"
     inkscape:cy="94.488189"
     inkscape:window-width="2560"
     inkscape:window-height="1369"
     inkscape:window-x="-8"
     inkscape:window-y="-8"
     inkscape:window-maximized="1"
     inkscape:current-layer="svg1" /><defs
     id="defs1"><linearGradient
       id="linearGradient15"><stop
         style="stop-color:#7eb8e3;stop-opacity:0.50106609;"
         offset="0"
         id="stop15" /><stop
         style="stop-color:#2c508d;stop-opacity:0.79744136;"
         offset="1"
         id="stop16" /></linearGradient><linearGradient
       id="linearGradient2"><stop
         style="stop-color:#7fb9e3;stop-opacity:0.50106609;"
         offset="0"
         id="stop2" /><stop
         style="stop-color:#7f7f7f;stop-opacity:0;"
         offset="0.30000001"
         id="stop4" /><stop
         style="stop-color:#7f7f7f;stop-opacity:0;"
         offset="0.69999999"
         id="stop17" /><stop
         style="stop-color:#2f5694;stop-opacity:0.4946695;"
         offset="1"
         id="stop3" /></linearGradient><linearGradient
       xlink:href="#linearGradient2"
       id="linearGradient9"
       x1="25.000004"
       y1="2.3639462"
       x2="25.000004"
       y2="47.63604"
       gradientUnits="userSpaceOnUse" /><radialGradient
       xlink:href="#linearGradient15"
       id="radialGradient16"
       cx="25"
       cy="25"
       fx="25"
       fy="25"
       r="25"
       gradientUnits="userSpaceOnUse"
       gradientTransform="translate(-2.4265137e-6)" /><linearGradient
       id="d"
       gradientUnits="userSpaceOnUse"
       x1="75.199997"
       y1="74.5"
       x2="24.4"
       y2="260.79999"
       gradientTransform="matrix(0.26458333,0,0,0.26458333,48.947917,4.5900961)"><stop
         offset="0"
         stop-color="#4377bb"
         id="stop10" /><stop
         offset=".5"
         stop-color="#1a336b"
         id="stop11" /><stop
         offset="1"
         stop-color="#1a336b"
         id="stop12" /></linearGradient><linearGradient
       id="c"
       gradientUnits="userSpaceOnUse"
       x1="18.4"
       y1="64.199997"
       x2="144.3"
       y2="149.8"
       gradientTransform="matrix(0.26458333,0,0,0.26458333,48.947917,4.5900961)"><stop
         offset="0"
         stop-color="#315aa9"
         id="stop7" /><stop
         offset=".5"
         stop-color="#518ac8"
         id="stop8" /><stop
         offset="1"
         stop-color="#315aa9"
         id="stop9" /></linearGradient><linearGradient
       id="b"
       gradientUnits="userSpaceOnUse"
       x1="95.800003"
       y1="32.599998"
       x2="74"
       y2="105.2"
       gradientTransform="matrix(0.26458333,0,0,0.26458333,48.947917,4.5900961)"><stop
         offset="0"
         stop-color="#76b3e1"
         id="stop4-4" /><stop
         offset=".5"
         stop-color="#4377bb"
         id="stop5" /><stop
         offset="1"
         stop-color="#1f3b77"
         id="stop6" /></linearGradient><linearGradient
       id="a"
       gradientUnits="userSpaceOnUse"
       x1="27.5"
       y1="3"
       x2="152"
       y2="63.5"
       gradientTransform="matrix(0.26458333,0,0,0.26458333,48.947917,4.5900961)"><stop
         offset=".1"
         stop-color="#76b3e1"
         id="stop1" /><stop
         offset=".3"
         stop-color="#dcf2fd"
         id="stop2-5" /><stop
         offset="1"
         stop-color="#76b3e1"
         id="stop3-5" /></linearGradient></defs><g
     id="layer1"><rect
       style="font-variation-settings:normal;opacity:1;vector-effect:none;fill:#000000;fill-opacity:1;stroke:none;stroke-width:0.260698;stroke-linecap:butt;stroke-linejoin:miter;stroke-miterlimit:4;stroke-dasharray:none;stroke-dashoffset:0;stroke-opacity:1;-inkscape-stroke:none;stop-color:#000000;stop-opacity:1"
       id="rect1"
       width="50"
       height="50"
       x="0"
       y="0"
       rx="7.1983109"
       ry="7.1983109" /><rect
       style="font-variation-settings:normal;vector-effect:none;fill:url(#radialGradient16);stroke:none;stroke-width:0.260698;stroke-linecap:butt;stroke-linejoin:miter;stroke-miterlimit:4;stroke-dasharray:none;stroke-dashoffset:0;stroke-opacity:1;-inkscape-stroke:none;stop-color:#000000"
       id="rect1-18"
       width="50"
       height="50"
       x="0"
       y="-4.4408921e-16"
       rx="7.1983109"
       ry="7.1983109" /><rect
       style="fill:none;fill-opacity:1;stroke:url(#linearGradient9);stroke-width:1;stroke-dasharray:none"
       id="rect1-1"
       width="45.037273"
       height="45.037273"
       x="2.4813633"
       y="2.4813633"
       rx="6.4838462"
       ry="6.4838462" /></g><g
     id="g5"
     transform="translate(-46.040625,-0.12924289)"><path
       d="m 92.075,13.850513 c 0,0 -14.022917,-10.3187502 -24.870833,-7.9375003 l -0.79375,0.2645834 C 64.822917,6.7067627 63.5,7.5005127 62.70625,8.5588461 l -0.529167,0.7937499 -3.968749,6.879167 6.879166,1.322916 c 2.910417,1.852084 6.614583,2.645834 10.054167,1.852084 l 12.170833,2.38125 z"
       fill="#76b3e1"
       id="path1"
       style="stroke-width:0.264583" /><path
       d="m 92.075,13.850513 c 0,0 -14.022917,-10.3187502 -24.870833,-7.9375003 l -0.79375,0.2645834 C 64.822917,6.7067627 63.5,7.5005127 62.70625,8.5588461 l -0.529167,0.7937499 -3.968749,6.879167 6.879166,1.322916 c 2.910417,1.852084 6.614583,2.645834 10.054167,1.852084 l 12.170833,2.38125 z"
       opacity="0.3"
       fill="url(#a)"
       id="path3"
       style="fill:url(#a);stroke-width:0.264583" /><path
       d="m 62.70625,13.850513 -1.058333,0.264583 c -4.497917,1.322917 -5.820833,5.55625 -3.439583,9.260417 2.645833,3.439583 8.202083,5.291666 12.699999,3.968749 L 87.3125,21.788013 c 0,0 -14.022917,-10.31875 -24.60625,-7.9375 z"
       fill="#518ac8"
       id="path4"
       style="stroke-width:0.264583" /><path
       d="m 62.70625,13.850513 -1.058333,0.264583 c -4.497917,1.322917 -5.820833,5.55625 -3.439583,9.260417 2.645833,3.439583 8.202083,5.291666 12.699999,3.968749 L 87.3125,21.788013 c 0,0 -14.022917,-10.31875 -24.60625,-7.9375 z"
       opacity="0.3"
       fill="url(#b)"
       id="path6"
       style="fill:url(#b);stroke-width:0.264583" /><path
       d="m 84.402083,25.756762 a 11.90625,11.90625 0 0 0 -12.7,-3.968749 l -16.404166,5.291666 -5.291667,9.260417 29.633333,5.027083 5.291667,-9.525 c 1.058333,-1.852083 0.79375,-3.96875 -0.529167,-6.085417 z"
       fill="url(#c)"
       id="path9"
       style="fill:url(#c);stroke-width:0.264583" /><path
       d="m 79.110417,35.017179 a 11.90625,11.90625 0 0 0 -12.7,-3.96875 L 50.00625,36.340096 c 0,0 14.022917,10.583333 24.870833,7.9375 l 0.79375,-0.264584 c 4.497917,-1.322916 6.085417,-5.55625 3.439584,-8.995833 z"
       fill="url(#d)"
       id="path12"
       style="fill:url(#d);stroke-width:0.264583" /></g></svg>
