<?xml version="1.0" encoding="UTF-8" standalone="no"?>
<!-- Uploaded to: SVG Repo, www.svgrepo.com, Generator: SVG Repo Mixer Tools -->

<svg
   width="49.410828"
   height="50.010769"
   viewBox="0 0 1.9764331 2.0004308"
   version="1.1"
   id="svg5"
   sodipodi:docname="SQLite_Box.svg"
   inkscape:version="1.4.2 (ebf0e940d0, 2025-05-08)"
   xmlns:inkscape="http://www.inkscape.org/namespaces/inkscape"
   xmlns:sodipodi="http://sodipodi.sourceforge.net/DTD/sodipodi-0.dtd"
   xmlns="http://www.w3.org/2000/svg"
   xmlns:svg="http://www.w3.org/2000/svg">
  <sodipodi:namedview
     id="namedview1"
     pagecolor="#ffffff"
     bordercolor="#000000"
     borderopacity="0.25"
     inkscape:showpageshadow="2"
     inkscape:pageopacity="0.0"
     inkscape:pagecheckerboard="0"
     inkscape:deskcolor="#d1d1d1"
     inkscape:zoom="5.6568543"
     inkscape:cx="-12.28598"
     inkscape:cy="18.649941"
     inkscape:window-width="2560"
     inkscape:window-height="1378"
     inkscape:window-x="0"
     inkscape:window-y="0"
     inkscape:window-maximized="1"
     inkscape:current-layer="svg5" />
  <defs
     id="defs3">
    <linearGradient
       id="a"
       x1="-118.318"
       y1="45.638"
       x2="-116.751"
       y2="45.638"
       gradientTransform="matrix(0,0.97100344,0.97100344,0,-40.001895,118.21917)"
       gradientUnits="userSpaceOnUse">
      <stop
         offset="0"
         stop-color="#97d9f6"
         id="stop1" />
      <stop
         offset="0.92"
         stop-color="#0f80cc"
         id="stop2" />
      <stop
         offset="1"
         stop-color="#0f80cc"
         id="stop3" />
    </linearGradient>
  </defs>
  <title
     id="title3">file_type_sqlite</title>
  <g
     id="g5"
     transform="translate(-3.4819988,-3.2415858)">
    <path
       d="M 5.148244,3.242 H 3.6629958 A 0.18150308,0.18150308 0 0 0 3.482,3.4229958 V 5.0610042 A 0.18150308,0.18150308 0 0 0 3.6629958,5.242 h 0.9782738 c -0.011159,-0.4867698 0.1551272,-1.4313974 0.5069744,-2 z"
       style="fill:#0f80cc;stroke-width:0.0845377"
       id="path3" />
    <path
       d="M 5.0943088,3.2948363 H 3.6629958 A 0.12832869,0.12832869 0 0 0 3.5348363,3.4229958 V 4.9414674 A 3.5514415,3.5514415 0 0 1 4.6819324,4.7145675 10.445093,10.445093 0 0 1 5.0943088,3.2948363 Z"
       style="fill:url(#a);stroke-width:0.0845377"
       id="path4" />
  </g>
  <path
     d="m 1.8925795,0.04385422 c -0.08571,-0.07664 -0.222649,-0.04706 -0.325498,0.04407 -0.01521,0.01357 -0.03043,0.02857 -0.04557,0.04464 -0.193478,0.228823 -0.294597,0.503218 -0.356734,0.796361 0.01918,0.04185 0.03434,0.08542 0.04528,0.13013198 0.0026,0.01 0.0049,0.01943 0.0071,0.02743 0.0044,0.01893 0.0071,0.03121 0.0071,0.03121 0,0 -0.0016,-0.0059 -0.0081,-0.02471 l -0.0042,-0.01214 c -7.09e-4,-0.0019 -0.0016,-0.0042 -0.0027,-0.0067 -0.01143,-0.02664 -0.04285,-0.08285 -0.05714,-0.10713398 -0.01193,0.03521 -0.0225,0.06814 -0.03128,0.09792 0.02965,0.06378 0.05143,0.130937 0.06485,0.199984 0,0 -0.0021,-0.0082 -0.01221,-0.03678 -0.01935,-0.04172 -0.0408,-0.08244 -0.06428,-0.12199 -0.01518,0.03918 -0.02161,0.08121 -0.01885,0.123133 0.01573,0.03136 0.02755,0.06454 0.03521,0.09878 0.02385,0.09164 0.04042,0.203269 0.04042,0.203269 0,0 5.74e-4,0.0071 0.0014,0.01878 -0.0032,0.07633 -0.0016,0.152773 0.0046,0.228911 0.0035,0.07538 0.01758,0.149906 0.04171,0.221411 l 0.01286,-0.0071 c -0.02988,-0.107481 -0.04137,-0.219239 -0.03399,-0.33055 0.01345,-0.236 0.06004,-0.468934 0.138418,-0.69194496 0.143559,-0.379113 0.342829,-0.683375 0.524958,-0.828506 -0.16613,0.149988 -0.390969,0.635664 -0.458321,0.815506 -0.07092,0.18517096 -0.124809,0.37642396 -0.160987,0.57138396 0.04306,-0.108805 0.127362,-0.19619 0.234552,-0.243124 0,0 0.08807,-0.108634 0.190985,-0.263765 -0.06649,0.01387 -0.132178,0.03134 -0.19677,0.05235 -0.05,0.021 -0.06349,0.02814 -0.06349,0.02814 0.09544,-0.05748 0.196269,-0.10548596 0.301049,-0.14334496 0.191127,-0.301048 0.399396,-0.728514 0.189699,-0.915927"
     style="fill:#003b57;stroke-width:0.0714228"
     id="path5" />
</svg>
