<?xml version="1.0" encoding="UTF-8" standalone="no"?>
<!-- Created with Inkscape (http://www.inkscape.org/) -->

<svg
   width="50mm"
   height="50mm"
   viewBox="0 0 50 50"
   version="1.1"
   id="svg1"
   xml:space="preserve"
   sodipodi:docname="Stride_Box.svg"
   inkscape:version="1.4.2 (f4327f4, 2025-05-13)"
   inkscape:export-filename="Cairo_Box.png"
   inkscape:export-xdpi="96"
   inkscape:export-ydpi="96"
   xmlns:inkscape="http://www.inkscape.org/namespaces/inkscape"
   xmlns:sodipodi="http://sodipodi.sourceforge.net/DTD/sodipodi-0.dtd"
   xmlns:xlink="http://www.w3.org/1999/xlink"
   xmlns="http://www.w3.org/2000/svg"
   xmlns:svg="http://www.w3.org/2000/svg"><sodipodi:namedview
     id="namedview1"
     pagecolor="#ffffff"
     bordercolor="#000000"
     borderopacity="0.25"
     inkscape:showpageshadow="2"
     inkscape:pageopacity="0.0"
     inkscape:pagecheckerboard="0"
     inkscape:deskcolor="#d1d1d1"
     inkscape:document-units="mm"
     inkscape:zoom="2.1870665"
     inkscape:cx="-24.233374"
     inkscape:cy="67.89917"
     inkscape:window-width="2560"
     inkscape:window-height="1369"
     inkscape:window-x="-8"
     inkscape:window-y="-8"
     inkscape:window-maximized="1"
     inkscape:current-layer="g2"><inkscape:page
       x="0"
       y="0"
       width="50"
       height="50"
       id="page1"
       margin="0"
       bleed="0" /></sodipodi:namedview><defs
     id="defs1"><linearGradient
       id="linearGradient5"><stop
         style="stop-color:#520416;stop-opacity:1;"
         offset="0.00462963"
         id="stop1" /><stop
         style="stop-color:#fc4664;stop-opacity:1;"
         offset="0.99834436"
         id="stop5" /></linearGradient><linearGradient
       xlink:href="#linearGradient5"
       id="linearGradient1"
       x1="25"
       y1="7.0902283e-06"
       x2="25"
       y2="50.000031"
       gradientUnits="userSpaceOnUse"
       gradientTransform="matrix(0.98039216,0,0,0.98039216,0.49019623,0.49019623)" /><filter
       inkscape:collect="always"
       style="color-interpolation-filters:sRGB"
       id="filter1"
       x="-0.06882552"
       y="-0.06882552"
       width="1.137651"
       height="1.137651"><feGaussianBlur
         inkscape:collect="always"
         stdDeviation="0.9600145"
         id="feGaussianBlur1" /></filter><filter
       inkscape:collect="always"
       style="color-interpolation-filters:sRGB"
       id="filter12"
       x="-0.11828647"
       y="-0.099359465"
       width="1.2365729"
       height="1.1987189"><feGaussianBlur
         inkscape:collect="always"
         stdDeviation="5.1749291"
         id="feGaussianBlur12" /></filter><filter
       inkscape:collect="always"
       style="color-interpolation-filters:sRGB"
       id="filter17"
       x="-0.028623903"
       y="-0.1485701"
       width="1.0572478"
       height="1.2971402"><feGaussianBlur
         inkscape:collect="always"
         stdDeviation="3.292659"
         id="feGaussianBlur17" /></filter></defs><g
     id="layer1"
     inkscape:label="Stride"><rect
       style="font-variation-settings:normal;display:inline;fill:url(#linearGradient1);stroke:none;stroke-width:0.980392;stroke-linecap:butt;stroke-linejoin:miter;stroke-miterlimit:4;stroke-dasharray:none;stroke-dashoffset:0;stroke-opacity:1;stop-color:#000000"
       id="rect1-18"
       width="49.019608"
       height="49.019608"
       x="0.49019623"
       y="0.49019623"
       rx="7.0571675"
       ry="7.0571675"
       inkscape:label="Background" /><g
       style="fill:none"
       id="g2"
       transform="matrix(0.26458333,0,0,0.26458333,-30.346864,8.4635422)"
       inkscape:label="Icon"><g
         id="g3"
         inkscape:label="Text"
         transform="matrix(0.4730279,0,0,0.4730279,76.580144,86.620092)"><path
           id="path12"
           d="M 160.65357 33.575087 C 155.07357 33.575087 150.75268 34.775561 147.69268 37.175561 C 144.63268 39.575561 143.10538 42.965251 143.10538 47.345251 C 143.10538 50.165251 143.794 52.473687 145.174 54.273687 C 146.554 56.013687 148.29304 57.395059 150.39304 58.415059 C 152.55304 59.435059 155.70429 60.662243 159.84429 62.102243 C 164.70429 64.022243 168.12481 65.734571 170.10481 67.234571 C 172.08481 68.734571 173.07355 70.592829 173.07355 72.812829 C 173.07355 75.392829 172.08481 77.436114 170.10481 78.936114 C 168.12481 80.436114 165.27369 81.182282 161.55369 81.182282 C 157.41369 81.182282 154.20489 80.343601 151.92489 78.663601 C 149.64489 76.983601 148.50197 74.794386 148.50197 72.094386 L 148.50197 70.744208 C 148.50197 70.144208 148.20598 69.844089 147.60598 69.844089 L 143.19209 69.844089 C 142.59209 69.844089 142.29197 70.144208 142.29197 70.744208 L 142.29197 72.635283 C 142.29197 77.075283 143.94263 80.553357 147.24263 83.073357 C 150.60263 85.533357 155.19279 86.764669 161.01279 86.764669 C 166.89279 86.764669 171.45212 85.502519 174.69212 82.982519 C 177.93212 80.402519 179.55606 76.924445 179.55606 72.544445 C 179.55606 69.664445 178.77493 67.294334 177.21493 65.434334 C 175.71493 63.514334 173.76415 61.956194 171.36415 60.756194 C 168.96415 59.556194 165.69369 58.232368 161.55369 56.792368 C 158.13369 55.472368 155.67519 54.483628 154.17519 53.823628 C 152.73519 53.103628 151.56555 52.23411 150.66555 51.21411 C 149.82555 50.13411 149.40208 48.783576 149.40208 47.163576 C 149.40208 44.583576 150.33328 42.632804 152.19328 41.312804 C 154.11328 39.932804 156.81435 39.244183 160.29435 39.244183 C 164.31435 39.244183 167.37308 40.113701 169.47308 41.853701 C 171.63308 43.533701 172.71433 45.722916 172.71433 48.422916 L 172.71433 49.323035 C 172.71433 49.923035 173.01445 50.223153 173.61445 50.223153 L 178.11504 50.223153 C 178.71504 50.223153 179.01516 49.923035 179.01516 49.323035 L 179.01516 48.154532 C 179.01516 43.654532 177.39535 40.114783 174.15535 37.534783 C 170.97535 34.894783 166.47357 33.575087 160.65357 33.575087 z M 243.45623 34.115984 C 242.85623 34.115984 242.55611 34.416102 242.55611 35.016102 L 242.55611 85.232816 C 242.55611 85.832816 242.85623 86.132934 243.45623 86.132934 L 248.04766 86.132934 C 248.64766 86.132934 248.94778 85.832816 248.94778 85.232816 L 248.94778 63.543258 C 248.94778 63.303258 249.067 63.184037 249.307 63.184037 L 261.00442 63.184037 C 261.18442 63.184037 261.30777 63.272421 261.36777 63.452421 L 272.34674 85.505329 C 272.52674 85.925329 272.8844 86.132934 273.4244 86.132934 L 278.28422 86.132934 C 278.76422 86.132934 279.00679 85.925329 279.00679 85.505329 C 279.00679 85.325329 278.97595 85.175269 278.91595 85.055269 L 267.57776 63.093199 C 267.45776 62.913199 267.54614 62.76314 267.84614 62.64314 C 271.08614 61.86314 273.66799 60.243325 275.58799 57.783325 C 277.50799 55.323325 278.46589 52.326267 278.46589 48.786267 C 278.46589 44.406267 277.08452 40.862389 274.32452 38.162389 C 271.56452 35.462389 267.90555 34.115984 263.34555 34.115984 L 243.45623 34.115984 z M 191.51773 34.202692 C 190.91773 34.202692 190.61761 34.502811 190.61761 35.102811 L 190.61761 38.975799 C 190.61761 39.575799 190.91773 39.875917 191.51773 39.875917 L 206.00634 39.875917 C 206.24634 39.875917 206.36556 39.995139 206.36556 40.235139 L 206.36556 85.232816 C 206.36556 85.832816 206.66568 86.132934 207.26568 86.132934 L 211.85711 86.132934 C 212.45711 86.132934 212.75723 85.832816 212.75723 85.232816 L 212.75723 40.235139 C 212.75723 39.995139 212.87645 39.875917 213.11645 39.875917 L 228.05512 39.875917 C 228.65512 39.875917 228.95524 39.575799 228.95524 38.975799 L 228.95524 35.102811 C 228.95524 34.502811 228.65512 34.202692 228.05512 34.202692 L 191.51773 34.202692 z M 328.25319 34.202692 C 327.65319 34.202692 327.35307 34.502811 327.35307 35.102811 L 327.35307 85.232816 C 327.35307 85.832816 327.65319 86.132934 328.25319 86.132934 L 346.52395 86.132934 C 351.74395 86.132934 355.88394 84.813238 358.94394 82.173238 C 362.06394 79.533238 363.62208 75.962651 363.62208 71.462651 L 363.62208 48.872975 C 363.62208 44.432975 362.06394 40.893226 358.94394 38.253226 C 355.82394 35.553226 351.68395 34.202692 346.52395 34.202692 L 328.25319 34.202692 z M 299.21404 34.29353 C 298.61404 34.29353 298.31392 34.593649 298.31392 35.193649 L 298.31392 85.232816 C 298.31392 85.832816 298.61404 86.132934 299.21404 86.132934 L 303.80547 86.132934 C 304.40547 86.132934 304.70559 85.832816 304.70559 85.232816 L 304.70559 35.193649 C 304.70559 34.593649 304.40547 34.29353 303.80547 34.29353 L 299.21404 34.29353 z M 383.99036 34.29353 C 383.39036 34.29353 383.09024 34.593649 383.09024 35.193649 L 383.09024 85.232816 C 383.09024 85.832816 383.39036 86.132934 383.99036 86.132934 L 417.46817 86.132934 C 418.06817 86.132934 418.36829 85.832816 418.36829 85.232816 L 418.36829 81.454795 C 418.36829 80.854795 418.06817 80.554676 417.46817 80.554676 L 389.84113 80.554676 C 389.60113 80.554676 389.48191 80.435454 389.48191 80.195454 L 389.48191 63.184037 C 389.48191 62.944037 389.60113 62.824815 389.84113 62.824815 L 409.01201 62.824815 C 409.61201 62.824815 409.908 62.524696 409.908 61.924696 L 409.908 58.142546 C 409.908 57.542546 409.61201 57.242428 409.01201 57.242428 L 389.84113 57.242428 C 389.60113 57.242428 389.48191 57.123206 389.48191 56.883206 L 389.48191 40.235139 C 389.48191 39.995139 389.60113 39.875917 389.84113 39.875917 L 417.46817 39.875917 C 418.06817 39.875917 418.36829 39.575799 418.36829 38.975799 L 418.36829 35.193649 C 418.36829 34.593649 418.06817 34.29353 417.46817 34.29353 L 383.99036 34.29353 z M 249.307 39.694242 L 262.71794 39.694242 C 265.53794 39.694242 267.81554 40.56376 269.55554 42.30376 C 271.29554 43.98376 272.16506 46.203813 272.16506 48.963813 C 272.16506 51.663813 271.29554 53.853028 269.55554 55.533028 C 267.81554 57.213028 265.53794 58.055838 262.71794 58.055838 L 249.307 58.055838 C 249.067 58.055838 248.94778 57.932487 248.94778 57.692487 L 248.94778 40.053464 C 248.94778 39.813464 249.067 39.694242 249.307 39.694242 z M 334.10396 39.875917 L 346.79233 39.875917 C 349.97233 39.875917 352.4925 40.776273 354.3525 42.576273 C 356.2725 44.316273 357.23454 46.713094 357.23454 49.773094 L 357.23454 70.65337 C 357.23454 73.65337 356.2725 76.05432 354.3525 77.85432 C 352.4925 79.65432 349.97233 80.554676 346.79233 80.554676 L 334.10396 80.554676 C 333.86396 80.554676 333.74474 80.435454 333.74474 80.195454 L 333.74474 40.235139 C 333.74474 39.995139 333.86396 39.875917 334.10396 39.875917 z "
           style="fill:#000000;fill-opacity:0.75141245;filter:url(#filter17)"
           transform="translate(-4.5729469e-7)"
           inkscape:label="Shadow" /><path
           d="m 161.014,86.7643 c -5.82,0 -10.41,-1.23 -13.77,-3.69 -3.3,-2.52 -4.95,-6 -4.95,-10.44 v -1.89 c 0,-0.6 0.3,-0.9 0.9,-0.9 h 4.41 c 0.6,0 0.9,0.3 0.9,0.9 v 1.35 c 0,2.7 1.14,4.89 3.42,6.57 2.28,1.68 5.49,2.52 9.63,2.52 3.72,0 6.57,-0.75 8.55,-2.25 1.98,-1.5 2.97,-3.54 2.97,-6.12 0,-2.22 -0.99,-4.08 -2.97,-5.58 -1.98,-1.5 -5.4,-3.21 -10.26,-5.13 -4.14,-1.44 -7.29,-2.67 -9.45,-3.69 -2.1,-1.02 -3.84,-2.4 -5.22,-4.14 -1.38,-1.8 -2.07,-4.11 -2.07,-6.93 0,-4.38 1.53,-7.77 4.59,-10.17 3.06,-2.4 7.38,-3.6 12.96,-3.6 5.82,0 10.32,1.32 13.5,3.96 3.24,2.58 4.86,6.12 4.86,10.62 v 1.17 c 0,0.6 -0.3,0.9 -0.9,0.9 h -4.5 c -0.6,0 -0.9,-0.3 -0.9,-0.9 v -0.9 c 0,-2.7 -1.08,-4.89 -3.24,-6.57 -2.1,-1.74 -5.16,-2.61 -9.18,-2.61 -3.48,0 -6.18,0.69 -8.1,2.07 -1.86,1.32 -2.79,3.27 -2.79,5.85 0,1.62 0.42,2.97 1.26,4.05 0.9,1.02 2.07,1.89 3.51,2.61 1.5,0.66 3.96,1.65 7.38,2.97 4.14,1.44 7.41,2.76 9.81,3.96 2.4,1.2 4.35,2.76 5.85,4.68 1.56,1.86 2.34,4.23 2.34,7.11 0,4.38 -1.62,7.86 -4.86,10.44 -3.24,2.52 -7.8,3.78 -13.68,3.78 z"
           fill="#fc365b"
           id="path1-0"
           style="fill:#ffffff;fill-opacity:1" /><path
           d="m 228.056,34.2043 c 0.6,0 0.9,0.3 0.9,0.9 v 3.87 c 0,0.6 -0.3,0.9 -0.9,0.9 h -14.94 c -0.24,0 -0.36,0.12 -0.36,0.36 v 45 c 0,0.6 -0.3,0.9 -0.9,0.9 h -4.59 c -0.6,0 -0.9,-0.3 -0.9,-0.9 v -45 c 0,-0.24 -0.12,-0.36 -0.36,-0.36 h -14.49 c -0.6,0 -0.9,-0.3 -0.9,-0.9 v -3.87 c 0,-0.6 0.3,-0.9 0.9,-0.9 z"
           fill="#fc365b"
           id="path2-9"
           style="fill:#ffffff;fill-opacity:1" /><path
           d="m 273.426,86.1343 c -0.54,0 -0.9,-0.21 -1.08,-0.63 l -10.98,-22.05 c -0.06,-0.18 -0.18,-0.27 -0.36,-0.27 h -11.7 c -0.24,0 -0.36,0.12 -0.36,0.36 v 21.69 c 0,0.6 -0.3,0.9 -0.9,0.9 h -4.59 c -0.6,0 -0.9,-0.3 -0.9,-0.9 v -50.22 c 0,-0.6 0.3,-0.9 0.9,-0.9 h 19.89 c 4.56,0 8.22,1.35 10.98,4.05 2.76,2.7 4.14,6.24 4.14,10.62 0,3.54 -0.96,6.54 -2.88,9 -1.92,2.46 -4.5,4.08 -7.74,4.86 -0.3,0.12 -0.39,0.27 -0.27,0.45 l 11.34,21.96 c 0.06,0.12 0.09,0.27 0.09,0.45 0,0.42 -0.24,0.63 -0.72,0.63 z m -24.12,-46.44 c -0.24,0 -0.36,0.12 -0.36,0.36 v 17.64 c 0,0.24 0.12,0.36 0.36,0.36 h 13.41 c 2.82,0 5.1,-0.84 6.84,-2.52 1.74,-1.68 2.61,-3.87 2.61,-6.57 0,-2.76 -0.87,-4.98 -2.61,-6.66 -1.74,-1.74 -4.02,-2.61 -6.84,-2.61 z"
           fill="#fc365b"
           id="path3-4"
           style="fill:#ffffff;fill-opacity:1" /><path
           d="m 299.214,86.1343 c -0.6,0 -0.9,-0.3 -0.9,-0.9 v -50.04 c 0,-0.6 0.3,-0.9 0.9,-0.9 h 4.59 c 0.6,0 0.9,0.3 0.9,0.9 v 50.04 c 0,0.6 -0.3,0.9 -0.9,0.9 z"
           fill="#fc365b"
           id="path4-8"
           style="fill:#ffffff;fill-opacity:1" /><path
           d="m 328.253,86.1343 c -0.6,0 -0.9,-0.3 -0.9,-0.9 v -50.13 c 0,-0.6 0.3,-0.9 0.9,-0.9 h 18.27 c 5.16,0 9.3,1.35 12.42,4.05 3.12,2.64 4.68,6.18 4.68,10.62 v 22.59 c 0,4.5 -1.56,8.07 -4.68,10.71 -3.06,2.64 -7.2,3.96 -12.42,3.96 z m 5.49,-5.94 c 0,0.24 0.12,0.36 0.36,0.36 h 12.69 c 3.18,0 5.7,-0.9 7.56,-2.7 1.92,-1.8 2.88,-4.2 2.88,-7.2 v -20.88 c 0,-3.06 -0.96,-5.46 -2.88,-7.2 -1.86,-1.8 -4.38,-2.7 -7.56,-2.7 h -12.69 c -0.24,0 -0.36,0.12 -0.36,0.36 z"
           fill="#fc365b"
           id="path5"
           style="fill:#ffffff;fill-opacity:1" /><path
           d="m 418.37,38.9743 c 0,0.6 -0.3,0.9 -0.9,0.9 h -27.63 c -0.24,0 -0.36,0.12 -0.36,0.36 v 16.65 c 0,0.24 0.12,0.36 0.36,0.36 h 19.17 c 0.6,0 0.9,0.3 0.9,0.9 v 3.78 c 0,0.6 -0.3,0.9 -0.9,0.9 h -19.17 c -0.24,0 -0.36,0.12 -0.36,0.36 v 17.01 c 0,0.24 0.12,0.36 0.36,0.36 h 27.63 c 0.6,0 0.9,0.3 0.9,0.9 v 3.78 c 0,0.6 -0.3,0.9 -0.9,0.9 h -33.48 c -0.6,0 -0.9,-0.3 -0.9,-0.9 v -50.04 c 0,-0.6 0.3,-0.9 0.9,-0.9 h 33.48 c 0.6,0 0.9,0.3 0.9,0.9 z"
           fill="#fc365b"
           id="path6-8"
           style="fill:#ffffff;fill-opacity:1" /></g><g
         id="g4"
         inkscape:label="Logo"
         transform="matrix(0.69517768,0,0,0.69517768,172.68817,-0.15241191)"><path
           id="path4"
           d="M 55.202907 0.00022787837 L 3.4119655 30.503334 L 53.092948 59.666292 L 104.88951 29.165996 L 55.202907 0.00022787837 z M 1.1840054 34.366442 L 1.1840054 60.939011 L 50.923988 90.135684 L 50.923988 63.563115 L 1.1840054 34.366442 z M 80.131899 48.964779 L 55.261907 63.563115 L 55.261907 90.135684 L 102.7655 62.251063 L 80.131899 48.964779 z M 104.99908 66.108553 L 84.534438 78.122118 L 104.99908 90.135684 L 104.99908 66.108553 z M 25.048183 79.956744 L 0.0011917737 94.091507 L 52.963709 124.99919 L 104.38941 94.765795 L 80.129089 80.706889 L 53.092948 96.577944 L 25.048183 79.956744 z "
           style="fill:#000000;fill-opacity:0.75329566;filter:url(#filter12)"
           inkscape:label="Shadow" /><path
           d="M 3.41175,30.5046 55.2038,0 104.889,29.1649 53.0925,59.6668 Z"
           fill="#fc365b"
           id="path7" /><path
           d="M 1.18387,60.9401 V 34.3657 L 50.9227,63.562 v 26.5745 z"
           fill="#fc365b"
           id="path8-2" /><path
           d="M 55.2613,90.1362 V 63.562 L 80.1306,48.9638 102.766,62.251 Z"
           fill="#fc365b"
           id="path9" /><path
           d="M 105,90.1362 84.5335,78.1225 105,66.1088 Z"
           fill="#fc365b"
           id="path10-4" /><path
           d="M 52.9645,125 0,94.0908 25.0476,79.9563 53.0918,96.5785 80.1285,80.7081 104.389,94.7652 Z"
           fill="#fc365b"
           id="path11" /></g></g><rect
       style="font-variation-settings:normal;display:inline;fill:none;stroke:#000000;stroke-width:1.99928;stroke-linecap:butt;stroke-linejoin:miter;stroke-miterlimit:4;stroke-dasharray:none;stroke-dashoffset:0;stroke-opacity:0.74952918;stop-color:#000000;filter:url(#filter1)"
       id="rect1"
       width="48.000725"
       height="48.000725"
       x="0.99963778"
       y="0.99963778"
       rx="6.9104829"
       ry="6.9104829"
       inkscape:label="Shadow" /><rect
       style="font-variation-settings:normal;display:inline;fill:none;stroke:#fc365b;stroke-width:1.99928;stroke-linecap:butt;stroke-linejoin:miter;stroke-miterlimit:4;stroke-dasharray:none;stroke-dashoffset:0;stroke-opacity:1;stop-color:#000000"
       id="rect1-18-1"
       width="48.000725"
       height="48.000725"
       x="0.99963778"
       y="0.99963778"
       rx="6.9104829"
       ry="6.9104829"
       inkscape:label="Frame" /></g><style
     type="text/css"
     id="style1">
	.st0{fill:url(#ICON_00000088831890668800157600000002638584723837204667_);}
</style><style
     id="style1-7">.st10{fill:#333}</style><style
     type="text/css"
     id="style1-1">
	.st0{fill:url(#ICON_00000088831890668800157600000002638584723837204667_);}
</style><style
     id="style1-7-2">.st10{fill:#333}</style></svg>
