<?xml version="1.0" encoding="UTF-8" standalone="no"?>
<!-- Created with Inkscape (http://www.inkscape.org/) -->

<svg
   width="50mm"
   height="50mm"
   viewBox="0 0 50 50"
   version="1.1"
   id="svg1"
   xml:space="preserve"
   xmlns:xlink="http://www.w3.org/1999/xlink"
   xmlns="http://www.w3.org/2000/svg"
   xmlns:svg="http://www.w3.org/2000/svg"><defs
     id="defs1"><linearGradient
       id="linearGradient7"><stop
         style="stop-color:#ff00a0;stop-opacity:0.49847478;"
         offset="0"
         id="stop6" /><stop
         style="stop-color:#9600ff;stop-opacity:0.50043213;"
         offset="1"
         id="stop7" /></linearGradient><linearGradient
       id="linearGradient2"><stop
         style="stop-color:#ff00a0;stop-opacity:0.50043213;"
         offset="0"
         id="stop2" /><stop
         style="stop-color:#ff00a0;stop-opacity:0;"
         offset="0.30000001"
         id="stop4" /><stop
         style="stop-color:#9600ff;stop-opacity:0;"
         offset="0.69999999"
         id="stop17" /><stop
         style="stop-color:#9600ff;stop-opacity:0.50043213;"
         offset="0.99775267"
         id="stop3" /></linearGradient><linearGradient
       xlink:href="#linearGradient2"
       id="linearGradient9"
       x1="25.000004"
       y1="2.3639462"
       x2="25.000004"
       y2="47.63604"
       gradientUnits="userSpaceOnUse" /><linearGradient
       xlink:href="#linearGradient7"
       id="linearGradient3"
       x1="37.500008"
       y1="46.650639"
       x2="12.500005"
       y2="3.3493645"
       gradientUnits="userSpaceOnUse" /><linearGradient
       x1="85.84404"
       y1="32.364006"
       x2="190.66393"
       y2="244.15468"
       id="surrealDBLinearGradient-1-3"
       gradientTransform="scale(0.92586734,1.0800683)"
       gradientUnits="userSpaceOnUse"><stop
         stop-color="#FF00A0"
         offset="0%"
         id="stop1-6" /><stop
         stop-color="#9600FF"
         offset="100%"
         id="stop2-0" /></linearGradient></defs><g
     id="layer1"><rect
       style="font-variation-settings:normal;opacity:1;vector-effect:none;fill:#000000;fill-opacity:1;stroke:none;stroke-width:0.260698;stroke-linecap:butt;stroke-linejoin:miter;stroke-miterlimit:4;stroke-dasharray:none;stroke-dashoffset:0;stroke-opacity:1;-inkscape-stroke:none;stop-color:#000000;stop-opacity:1"
       id="rect1"
       width="50"
       height="50"
       x="0"
       y="0"
       rx="7.1983109"
       ry="7.1983109" /><rect
       style="font-variation-settings:normal;vector-effect:none;fill:url(#linearGradient3);stroke:none;stroke-width:0.260698;stroke-linecap:butt;stroke-linejoin:miter;stroke-miterlimit:4;stroke-dasharray:none;stroke-dashoffset:0;stroke-opacity:1;-inkscape-stroke:none;stop-color:#000000"
       id="rect1-18"
       width="50"
       height="50"
       x="0"
       y="-4.4408921e-16"
       rx="7.1983109"
       ry="7.1983109" /><rect
       style="fill:none;fill-opacity:1;stroke:url(#linearGradient9);stroke-width:1;stroke-dasharray:none"
       id="rect1-1"
       width="45.037273"
       height="45.037273"
       x="2.4813633"
       y="2.4813633"
       rx="6.4838462"
       ry="6.4838462" /><path
       d="m 128,78.567619 71.10095,39.375241 V 102.15619 L 128,62.872381 c -10.57524,5.851429 -61.683809,34.102857 -71.100952,39.283809 8.746666,4.84571 100.601902,55.58857 156.434282,86.43048 v 15.72571 C 205.74476,208.51809 128,251.45905 128,251.45905 106.72762,239.72571 63.908571,216.07619 42.666667,204.31238 V 157.16571 L 128,204.31238 142.23238,196.44952 28.434286,133.60762 v 78.59809 L 128,267.18476 c 9.81333,-5.42476 92.2819,-50.98667 99.53524,-55.00952 V 180.75429 L 85.333333,102.15619 Z M 28.434286,86.430476 V 117.88191 L 170.63619,196.48 127.96952,220.06857 56.868571,180.69333 V 196.48 l 71.100949,39.28381 C 138.54476,229.91238 189.65333,201.66095 199.07048,196.48 190.32381,191.63429 98.499048,140.89143 42.666667,110.01905 V 94.293333 C 50.255238,90.087619 128,47.146667 128,47.146667 149.2419,58.910476 192.06095,82.56 213.33333,94.293333 V 141.44 L 128,94.293333 113.76762,102.15619 227.53524,165.02857 V 86.430476 L 128,31.420952 C 118.15619,36.87619 35.718095,82.438095 28.434286,86.430476 Z M 128,0 0,70.735238 V 227.90095 l 128,70.73524 128,-70.70476 V 70.735238 Z M 241.73714,220.03809 128,282.91048 14.232381,220.03809 V 78.598095 L 128,15.725714 241.76762,78.598095 Z"
       fill="url(#surrealDBLinearGradient-1)"
       id="path2"
       style="fill:url(#surrealDBLinearGradient-1-3)"
       transform="matrix(0.10546875,0,0,0.10546875,11.5,9.2516071)" /></g></svg>
