<?xml version="1.0" encoding="UTF-8" standalone="no"?>
<!-- Created with Inkscape (http://www.inkscape.org/) -->

<svg
   width="50mm"
   height="50mm"
   viewBox="0 0 50 50"
   version="1.1"
   id="svg1"
   xml:space="preserve"
   sodipodi:docname="Svelte_Box.svg"
   inkscape:version="1.4.2 (f4327f4, 2025-05-13)"
   xmlns:inkscape="http://www.inkscape.org/namespaces/inkscape"
   xmlns:sodipodi="http://sodipodi.sourceforge.net/DTD/sodipodi-0.dtd"
   xmlns:xlink="http://www.w3.org/1999/xlink"
   xmlns="http://www.w3.org/2000/svg"
   xmlns:svg="http://www.w3.org/2000/svg"><sodipodi:namedview
     id="namedview1"
     pagecolor="#ffffff"
     bordercolor="#000000"
     borderopacity="0.25"
     inkscape:showpageshadow="2"
     inkscape:pageopacity="0.0"
     inkscape:pagecheckerboard="0"
     inkscape:deskcolor="#d1d1d1"
     inkscape:document-units="mm"
     inkscape:zoom="6.175375"
     inkscape:cx="94.488189"
     inkscape:cy="94.488189"
     inkscape:window-width="2560"
     inkscape:window-height="1369"
     inkscape:window-x="-8"
     inkscape:window-y="-8"
     inkscape:window-maximized="1"
     inkscape:current-layer="svg1" /><defs
     id="defs1"><linearGradient
       id="linearGradient1"><stop
         style="stop-color:#ff3e00;stop-opacity:1;"
         offset="0"
         id="stop1" /><stop
         style="stop-color:#ffffff;stop-opacity:1;"
         offset="1"
         id="stop5" /></linearGradient><linearGradient
       id="linearGradient2"><stop
         style="stop-color:#ffffff;stop-opacity:1;"
         offset="0"
         id="stop2" /><stop
         style="stop-color:#7f7f7f;stop-opacity:0;"
         offset="0.30000001"
         id="stop4" /><stop
         style="stop-color:#7f7f7f;stop-opacity:0;"
         offset="0.69999999"
         id="stop17" /><stop
         style="stop-color:#ff3e00;stop-opacity:1;"
         offset="1"
         id="stop3" /></linearGradient><linearGradient
       xlink:href="#linearGradient2"
       id="linearGradient9"
       x1="25.000004"
       y1="2.3639462"
       x2="25.000004"
       y2="47.63604"
       gradientUnits="userSpaceOnUse" /><radialGradient
       xlink:href="#linearGradient1"
       id="radialGradient5"
       cx="25"
       cy="25"
       fx="25"
       fy="25"
       r="25"
       gradientUnits="userSpaceOnUse" /></defs><g
     id="layer1"><rect
       style="font-variation-settings:normal;opacity:1;vector-effect:none;fill:#000000;fill-opacity:1;stroke:none;stroke-width:0.260698;stroke-linecap:butt;stroke-linejoin:miter;stroke-miterlimit:4;stroke-dasharray:none;stroke-dashoffset:0;stroke-opacity:1;-inkscape-stroke:none;stop-color:#000000;stop-opacity:1"
       id="rect1"
       width="50"
       height="50"
       x="0"
       y="0"
       rx="7.1983109"
       ry="7.1983109" /><rect
       style="font-variation-settings:normal;vector-effect:none;fill:url(#radialGradient5);stroke:none;stroke-width:0.260698;stroke-linecap:butt;stroke-linejoin:miter;stroke-miterlimit:4;stroke-dasharray:none;stroke-dashoffset:0;stroke-opacity:1;-inkscape-stroke:none;stop-color:#000000"
       id="rect1-18"
       width="50"
       height="50"
       x="0"
       y="-4.4408921e-16"
       rx="7.1983109"
       ry="7.1983109" /><rect
       style="fill:none;fill-opacity:1;stroke:url(#linearGradient9);stroke-width:1;stroke-dasharray:none"
       id="rect1-1"
       width="45.037273"
       height="45.037273"
       x="2.4813633"
       y="2.4813633"
       rx="6.4838462"
       ry="6.4838462" /></g><style
     type="text/css"
     id="style1">
	.st0{fill:#FF3E00;}
	.st1{fill:#FFFFFF;}
</style><g
     id="g1"
     transform="matrix(0.32992491,0,0,0.32992491,8.8250774,5.5344303)"><path
       class="st0"
       d="M 91.8,15.6 C 80.9,-0.1 59.2,-4.7 43.6,5.2 L 16.1,22.8 C 8.6,27.5 3.4,35.2 1.9,43.9 0.6,51.2 1.7,58.7 5.2,65.2 2.8,68.8 1.2,72.8 0.5,77 c -1.6,8.9 0.5,18.1 5.7,25.4 11,15.7 32.6,20.3 48.2,10.4 L 81.9,95.3 c 7.5,-4.7 12.7,-12.4 14.2,-21.1 1.3,-7.3 0.2,-14.8 -3.3,-21.3 2.4,-3.6 4,-7.6 4.7,-11.8 1.7,-9 -0.4,-18.2 -5.7,-25.5"
       id="path1" /><path
       class="st1"
       d="M 40.9,103.9 C 32,106.2 22.7,102.7 17.5,95.2 14.3,90.8 13.1,85.3 14,79.9 14.2,79 14.4,78.2 14.6,77.3 l 0.5,-1.6 1.4,1 c 3.3,2.4 6.9,4.2 10.8,5.4 l 1,0.3 -0.1,1 c -0.1,1.4 0.3,2.9 1.1,4.1 1.6,2.3 4.4,3.4 7.1,2.7 0.6,-0.2 1.2,-0.4 1.7,-0.7 L 65.5,72 c 1.4,-0.9 2.3,-2.2 2.6,-3.8 0.3,-1.6 -0.1,-3.3 -1,-4.6 -1.6,-2.3 -4.4,-3.3 -7.1,-2.6 -0.6,0.2 -1.2,0.4 -1.7,0.7 l -10.5,6.7 c -1.7,1.1 -3.6,1.9 -5.6,2.4 C 33.3,73.1 24,69.6 18.8,62.1 15.7,57.7 14.4,52.2 15.4,46.8 16.3,41.6 19.5,36.9 24,34.1 L 51.5,16.6 c 1.7,-1.1 3.6,-1.9 5.6,-2.5 8.9,-2.3 18.2,1.2 23.4,8.7 3.2,4.4 4.4,9.9 3.5,15.3 -0.2,0.9 -0.4,1.7 -0.7,2.6 l -0.5,1.6 -1.4,-1 C 78.1,38.9 74.5,37.1 70.6,35.9 l -1,-0.3 0.1,-1 c 0.1,-1.4 -0.3,-2.9 -1.1,-4.1 -1.6,-2.3 -4.4,-3.3 -7.1,-2.6 -0.6,0.2 -1.2,0.4 -1.7,0.7 L 32.4,46.1 c -1.4,0.9 -2.3,2.2 -2.6,3.8 -0.3,1.6 0.1,3.3 1,4.6 1.6,2.3 4.4,3.3 7.1,2.6 0.6,-0.2 1.2,-0.4 1.7,-0.7 l 10.5,-6.7 c 1.7,-1.1 3.6,-1.9 5.6,-2.5 8.9,-2.3 18.2,1.2 23.4,8.7 3.2,4.4 4.4,9.9 3.5,15.3 -0.9,5.2 -4.1,9.9 -8.6,12.7 l -27.5,17.5 c -1.7,1.1 -3.6,1.9 -5.6,2.5"
       id="path2" /></g></svg>
