<?xml version="1.0" encoding="UTF-8" standalone="no"?>
<!-- Created with Inkscape (http://www.inkscape.org/) -->

<svg
   width="50.000008mm"
   height="50.000008mm"
   viewBox="0 0 50.000008 50.000008"
   version="1.1"
   id="svg1"
   xml:space="preserve"
   sodipodi:docname="Rust_Box.svg"
   inkscape:version="1.4.3 (0d15f75, 2025-12-25)"
   inkscape:export-filename="Svelte_Box.png"
   inkscape:export-xdpi="260.09595"
   inkscape:export-ydpi="260.09595"
   xmlns:inkscape="http://www.inkscape.org/namespaces/inkscape"
   xmlns:sodipodi="http://sodipodi.sourceforge.net/DTD/sodipodi-0.dtd"
   xmlns:xlink="http://www.w3.org/1999/xlink"
   xmlns="http://www.w3.org/2000/svg"
   xmlns:svg="http://www.w3.org/2000/svg"><sodipodi:namedview
     id="namedview1"
     pagecolor="#505050"
     bordercolor="#ffffff"
     borderopacity="1"
     inkscape:showpageshadow="0"
     inkscape:pageopacity="0"
     inkscape:pagecheckerboard="1"
     inkscape:deskcolor="#505050"
     inkscape:document-units="mm"
     inkscape:zoom="2.8284272"
     inkscape:cx="-21.036426"
     inkscape:cy="147.96209"
     inkscape:window-width="2560"
     inkscape:window-height="1369"
     inkscape:window-x="-8"
     inkscape:window-y="-8"
     inkscape:window-maximized="1"
     inkscape:current-layer="layer1"><inkscape:page
       x="0"
       y="0"
       width="50.000008"
       height="50.000008"
       id="page1"
       margin="0"
       bleed="0" /></sodipodi:namedview><defs
     id="defs1"><linearGradient
       id="linearGradient13"><stop
         style="stop-color:#d13400;stop-opacity:1;"
         offset="0"
         id="stop12" /><stop
         style="stop-color:#7a1f00;stop-opacity:1;"
         offset="1"
         id="stop13" /></linearGradient><filter
       style="color-interpolation-filters:sRGB"
       id="filter1"
       x="-0.06882552"
       y="-0.06882552"
       width="1.137651"
       height="1.137651"><feGaussianBlur
         stdDeviation="0.9600145"
         id="feGaussianBlur1" /></filter><radialGradient
       inkscape:collect="always"
       xlink:href="#linearGradient13"
       id="radialGradient3"
       cx="-7.8855996"
       cy="37.65733"
       fx="-9.8812361"
       fy="42.432919"
       r="24.509804"
       gradientUnits="userSpaceOnUse"
       gradientTransform="matrix(0,2.0400003,-2.0400003,0,76.820964,16.086626)" /><clipPath
       clipPathUnits="userSpaceOnUse"
       id="clipPath29"><use
         x="0"
         y="0"
         xlink:href="#g28"
         id="use29" /></clipPath><filter
       inkscape:collect="always"
       style="color-interpolation-filters:sRGB"
       id="filter14"
       x="-0.052874429"
       y="-0.043948444"
       width="1.1057489"
       height="1.0878969"><feGaussianBlur
         inkscape:collect="always"
         stdDeviation="2.1612962"
         id="feGaussianBlur14" /></filter></defs><g
     id="layer1"
     inkscape:label="Svelte"><g
       id="g29"
       clip-path="url(#clipPath29)"
       style="display:inline"><g
         inkscape:label="Clip"
         id="g28"><rect
           style="font-variation-settings:normal;display:inline;fill:url(#radialGradient3);fill-opacity:1;stroke:none;stroke-width:0.980392;stroke-linecap:butt;stroke-linejoin:miter;stroke-miterlimit:4;stroke-dasharray:none;stroke-dashoffset:0;stroke-opacity:1;stop-color:#000000"
           id="rect26"
           width="49.019608"
           height="49.019608"
           x="0.49019623"
           y="0.3712548"
           rx="7.0571675"
           ry="7.0571675"
           inkscape:label="Background" /><rect
           style="font-variation-settings:normal;display:inline;fill:none;stroke:#000000;stroke-width:1.99928;stroke-linecap:butt;stroke-linejoin:miter;stroke-miterlimit:4;stroke-dasharray:none;stroke-dashoffset:0;stroke-opacity:1;filter:url(#filter1);stop-color:#000000"
           id="rect1"
           width="48.000725"
           height="48.000725"
           x="0.99963778"
           y="0.99963778"
           rx="6.9104829"
           ry="6.9104829"
           inkscape:label="Shadow" /></g></g><path
       class="st0"
       d="M 91.8,15.6 C 80.9,-0.1 59.2,-4.7 43.6,5.2 L 16.1,22.8 C 8.6,27.5 3.4,35.2 1.9,43.9 0.6,51.2 1.7,58.7 5.2,65.2 2.8,68.8 1.2,72.8 0.5,77 c -1.6,8.9 0.5,18.1 5.7,25.4 11,15.7 32.6,20.3 48.2,10.4 L 81.9,95.3 c 7.5,-4.7 12.7,-12.4 14.2,-21.1 1.3,-7.3 0.2,-14.8 -3.3,-21.3 2.4,-3.6 4,-7.6 4.7,-11.8 1.7,-9 -0.4,-18.2 -5.7,-25.5"
       id="path13"
       inkscape:label="Shadow"
       transform="matrix(0.30580277,0,0,0.30580277,10.007695,6.95764)"
       style="fill:#000000;fill-opacity:1;filter:url(#filter14)" /><g
       id="g1"
       transform="matrix(0.30580278,0,0,0.30580278,10.007695,6.95764)"
       inkscape:label="Icon"><path
         class="st0"
         d="M 91.8,15.6 C 80.9,-0.1 59.2,-4.7 43.6,5.2 L 16.1,22.8 C 8.6,27.5 3.4,35.2 1.9,43.9 0.6,51.2 1.7,58.7 5.2,65.2 2.8,68.8 1.2,72.8 0.5,77 c -1.6,8.9 0.5,18.1 5.7,25.4 11,15.7 32.6,20.3 48.2,10.4 L 81.9,95.3 c 7.5,-4.7 12.7,-12.4 14.2,-21.1 1.3,-7.3 0.2,-14.8 -3.3,-21.3 2.4,-3.6 4,-7.6 4.7,-11.8 1.7,-9 -0.4,-18.2 -5.7,-25.5"
         id="path1" /><path
         class="st1"
         d="M 40.9,103.9 C 32,106.2 22.7,102.7 17.5,95.2 14.3,90.8 13.1,85.3 14,79.9 14.2,79 14.4,78.2 14.6,77.3 l 0.5,-1.6 1.4,1 c 3.3,2.4 6.9,4.2 10.8,5.4 l 1,0.3 -0.1,1 c -0.1,1.4 0.3,2.9 1.1,4.1 1.6,2.3 4.4,3.4 7.1,2.7 0.6,-0.2 1.2,-0.4 1.7,-0.7 L 65.5,72 c 1.4,-0.9 2.3,-2.2 2.6,-3.8 0.3,-1.6 -0.1,-3.3 -1,-4.6 -1.6,-2.3 -4.4,-3.3 -7.1,-2.6 -0.6,0.2 -1.2,0.4 -1.7,0.7 l -10.5,6.7 c -1.7,1.1 -3.6,1.9 -5.6,2.4 C 33.3,73.1 24,69.6 18.8,62.1 15.7,57.7 14.4,52.2 15.4,46.8 16.3,41.6 19.5,36.9 24,34.1 L 51.5,16.6 c 1.7,-1.1 3.6,-1.9 5.6,-2.5 8.9,-2.3 18.2,1.2 23.4,8.7 3.2,4.4 4.4,9.9 3.5,15.3 -0.2,0.9 -0.4,1.7 -0.7,2.6 l -0.5,1.6 -1.4,-1 C 78.1,38.9 74.5,37.1 70.6,35.9 l -1,-0.3 0.1,-1 c 0.1,-1.4 -0.3,-2.9 -1.1,-4.1 -1.6,-2.3 -4.4,-3.3 -7.1,-2.6 -0.6,0.2 -1.2,0.4 -1.7,0.7 L 32.4,46.1 c -1.4,0.9 -2.3,2.2 -2.6,3.8 -0.3,1.6 0.1,3.3 1,4.6 1.6,2.3 4.4,3.3 7.1,2.6 0.6,-0.2 1.2,-0.4 1.7,-0.7 l 10.5,-6.7 c 1.7,-1.1 3.6,-1.9 5.6,-2.5 8.9,-2.3 18.2,1.2 23.4,8.7 3.2,4.4 4.4,9.9 3.5,15.3 -0.9,5.2 -4.1,9.9 -8.6,12.7 l -27.5,17.5 c -1.7,1.1 -3.6,1.9 -5.6,2.5"
         id="path2" /></g><rect
       style="font-variation-settings:normal;display:inline;fill:none;stroke:#ff3e00;stroke-width:1.99928;stroke-linecap:butt;stroke-linejoin:miter;stroke-miterlimit:4;stroke-dasharray:none;stroke-dashoffset:0;stroke-opacity:1;stop-color:#000000"
       id="rect1-18-1"
       width="48.000725"
       height="48.000725"
       x="0.99963778"
       y="0.99963778"
       rx="6.9104829"
       ry="6.9104829"
       inkscape:label="Border" /></g><style
     type="text/css"
     id="style1">
	.st0{fill:url(#ICON_00000088831890668800157600000002638584723837204667_);}
</style><style
     id="style1-7">.st10{fill:#333}</style><style
     type="text/css"
     id="style1-1">
	.st0{fill:url(#ICON_00000088831890668800157600000002638584723837204667_);}
</style><style
     id="style1-7-2">.st10{fill:#333}</style><style
     type="text/css"
     id="style1-17">
	.st0{fill:#FF3E00;}
	.st1{fill:#FFFFFF;}
</style></svg>
