<?xml version="1.0" encoding="UTF-8" standalone="no"?>
<!-- Created with Inkscape (http://www.inkscape.org/) -->

<svg
   width="50mm"
   height="50mm"
   viewBox="0 0 50 50"
   version="1.1"
   id="svg1"
   xml:space="preserve"
   sodipodi:docname="Swift_Box.svg"
   inkscape:version="1.4.3 (0d15f75, 2025-12-25)"
   xmlns:inkscape="http://www.inkscape.org/namespaces/inkscape"
   xmlns:sodipodi="http://sodipodi.sourceforge.net/DTD/sodipodi-0.dtd"
   xmlns:xlink="http://www.w3.org/1999/xlink"
   xmlns="http://www.w3.org/2000/svg"
   xmlns:svg="http://www.w3.org/2000/svg"><sodipodi:namedview
     id="namedview172"
     pagecolor="#ffffff"
     bordercolor="#000000"
     borderopacity="0.25"
     inkscape:showpageshadow="2"
     inkscape:pageopacity="0.0"
     inkscape:pagecheckerboard="0"
     inkscape:deskcolor="#d1d1d1"
     inkscape:document-units="mm"
     showgrid="false"
     inkscape:zoom="2.794"
     inkscape:cx="18.074445"
     inkscape:cy="85.719399"
     inkscape:window-width="2560"
     inkscape:window-height="1369"
     inkscape:window-x="-8"
     inkscape:window-y="-8"
     inkscape:window-maximized="1"
     inkscape:current-layer="layer1"><inkscape:page
       x="0"
       y="0"
       width="50"
       height="50"
       id="page2"
       margin="0"
       bleed="0" /></sodipodi:namedview><defs
     id="defs1"><linearGradient
       id="linearGradient33"
       x1="15.0103"
       y1="2"
       x2="15.0103"
       y2="27.001301"
       gradientUnits="userSpaceOnUse"
       spreadMethod="pad"><stop
         stop-color="#F88A36"
         id="stop32"
         offset="0"
         style="stop-color:#000000;stop-opacity:1;" /><stop
         offset="1"
         stop-color="#FD2020"
         id="stop33" /></linearGradient><linearGradient
       id="linearGradient31"
       x1="15.0103"
       y1="2"
       x2="15.0103"
       y2="27.001301"
       gradientUnits="userSpaceOnUse"
       spreadMethod="pad"><stop
         stop-color="#F88A36"
         id="stop30"
         offset="0"
         style="stop-color:#000000;stop-opacity:1;" /><stop
         offset="1"
         stop-color="#FD2020"
         id="stop31" /></linearGradient><linearGradient
       id="linearGradient29"
       x1="15.0103"
       y1="2"
       x2="15.0103"
       y2="27.001301"
       gradientUnits="userSpaceOnUse"
       spreadMethod="pad"><stop
         stop-color="#F88A36"
         id="stop28"
         offset="0"
         style="stop-color:#000000;stop-opacity:1;" /><stop
         offset="1"
         stop-color="#FD2020"
         id="stop29" /></linearGradient><linearGradient
       id="linearGradient27"
       x1="15.0103"
       y1="2"
       x2="15.0103"
       y2="27.001301"
       gradientUnits="userSpaceOnUse"
       spreadMethod="pad"><stop
         stop-color="#F88A36"
         id="stop26"
         offset="0"
         style="stop-color:#000000;stop-opacity:1;" /><stop
         offset="1"
         stop-color="#FD2020"
         id="stop27" /></linearGradient><linearGradient
       id="linearGradient25"
       x1="15.0103"
       y1="2"
       x2="15.0103"
       y2="27.001301"
       gradientUnits="userSpaceOnUse"
       spreadMethod="pad"><stop
         stop-color="#F88A36"
         id="stop20"
         offset="0"
         style="stop-color:#000000;stop-opacity:1;" /><stop
         offset="1"
         stop-color="#FD2020"
         id="stop25" /></linearGradient><linearGradient
       id="linearGradient19"
       x1="15.0103"
       y1="2"
       x2="15.0103"
       y2="27.001301"
       gradientUnits="userSpaceOnUse"
       spreadMethod="pad"><stop
         stop-color="#F88A36"
         id="stop18"
         offset="0"
         style="stop-color:#140601;stop-opacity:1;" /><stop
         offset="1"
         stop-color="#FD2020"
         id="stop19" /></linearGradient><linearGradient
       id="linearGradient13"
       x1="15.0103"
       y1="2"
       x2="15.0103"
       y2="27.001301"
       gradientUnits="userSpaceOnUse"
       spreadMethod="pad"><stop
         stop-color="#F88A36"
         id="stop11"
         offset="0"
         style="stop-color:#261003;stop-opacity:1;" /><stop
         offset="1"
         stop-color="#FD2020"
         id="stop12" /></linearGradient><linearGradient
       id="linearGradient11"
       x1="15.0103"
       y1="2"
       x2="15.0103"
       y2="27.001301"
       gradientUnits="userSpaceOnUse"
       spreadMethod="pad"><stop
         stop-color="#F88A36"
         id="stop8"
         offset="0"
         style="stop-color:#2e1504;stop-opacity:1;" /><stop
         offset="1"
         stop-color="#FD2020"
         id="stop9" /></linearGradient><linearGradient
       id="linearGradient6"
       x1="15.0103"
       y1="2"
       x2="15.0103"
       y2="27.0013"
       gradientUnits="userSpaceOnUse"><stop
         stop-color="#F88A36"
         id="stop5"
         offset="0"
         style="stop-color:#301604;stop-opacity:1;" /><stop
         offset="1"
         stop-color="#FD2020"
         id="stop6" /></linearGradient><linearGradient
       id="linearGradient2"><stop
         style="stop-color:#f88a36;stop-opacity:1;"
         offset="0.00162602"
         id="stop21" /><stop
         style="stop-color:#f88a36;stop-opacity:0;"
         offset="0.30000001"
         id="stop22" /><stop
         style="stop-color:#fd2020;stop-opacity:0;"
         offset="0.70323098"
         id="stop23" /><stop
         style="stop-color:#fd2020;stop-opacity:1;"
         offset="0.99837399"
         id="stop24" /></linearGradient><linearGradient
       id="linearGradient12"><stop
         style="stop-color:#f21a00;stop-opacity:1;"
         offset="0"
         id="stop13" /><stop
         style="stop-color:#9e6f39;stop-opacity:1;"
         offset="0.99999774"
         id="stop14" /></linearGradient><linearGradient
       id="linearGradient10"><stop
         style="stop-color:#de7d30;stop-opacity:1;"
         offset="0.15121952"
         id="stop7" /><stop
         style="stop-color:#7e0606;stop-opacity:1;"
         offset="1"
         id="stop10" /></linearGradient><linearGradient
       id="linearGradient2-2"><stop
         style="stop-color:#000000;stop-opacity:0.50429183;"
         offset="0.00162602"
         id="stop2" /><stop
         style="stop-color:#000000;stop-opacity:0;"
         offset="0.30000001"
         id="stop4" /><stop
         style="stop-color:#000000;stop-opacity:0;"
         offset="0.70323098"
         id="stop17" /><stop
         style="stop-color:#000000;stop-opacity:0.5;"
         offset="1"
         id="stop3" /></linearGradient><linearGradient
       xlink:href="#linearGradient2"
       id="linearGradient9"
       x1="25.000004"
       y1="2.3639462"
       x2="25.000004"
       y2="47.63604"
       gradientUnits="userSpaceOnUse" /><radialGradient
       xlink:href="#linearGradient10"
       id="radialGradient16"
       cx="1.4131944e-06"
       cy="0"
       fx="1.4131944e-06"
       fy="0"
       r="25"
       gradientUnits="userSpaceOnUse"
       gradientTransform="matrix(2,0,0,2,-2.8263888e-6,0)" /><linearGradient
       inkscape:collect="always"
       xlink:href="#linearGradient2-2"
       id="linearGradient24"
       gradientUnits="userSpaceOnUse"
       x1="25.000004"
       y1="2.3639462"
       x2="25.000004"
       y2="47.63604" /><filter
       inkscape:collect="always"
       style="color-interpolation-filters:sRGB"
       id="filter24"
       x="-0.038101916"
       y="-0.038101916"
       width="1.0762038"
       height="1.0762038"><feGaussianBlur
         inkscape:collect="always"
         stdDeviation="0.50666933"
         id="feGaussianBlur24" /></filter><linearGradient
       id="SVGID_2_"
       gradientUnits="userSpaceOnUse"
       x1="-5.7851996"
       y1="-4.1952829"
       x2="218.22554"
       y2="209.55074"
       gradientTransform="matrix(0.17604903,0,0,0.17604903,3.4999811,3.2200778)"><stop
         offset="0"
         style="stop-color:#ffffff;stop-opacity:0;"
         id="stop3-9" /><stop
         offset="1"
         style="stop-color:#ffffff;stop-opacity:0.10085837;"
         id="stop4-86" /></linearGradient><linearGradient
       id="linearGradient15"><stop
         style="stop-color:#c216e3;stop-opacity:0.5025773;"
         offset="0"
         id="stop15" /><stop
         style="stop-color:#820f8e;stop-opacity:0.51340193;"
         offset="1"
         id="stop16" /></linearGradient><linearGradient
       id="linearGradient2-8"><stop
         style="stop-color:#c711e1;stop-opacity:1;"
         offset="0"
         id="stop2-8" /><stop
         style="stop-color:#c711e1;stop-opacity:0;"
         offset="0.30000001"
         id="stop4-2" /><stop
         style="stop-color:#c711e1;stop-opacity:0;"
         offset="0.70323098"
         id="stop17-4" /><stop
         style="stop-color:#7f52ff;stop-opacity:1;"
         offset="1"
         id="stop3-5" /></linearGradient><linearGradient
       xlink:href="#linearGradient2-8"
       id="linearGradient9-1"
       x1="25.000004"
       y1="2.3639462"
       x2="25.000004"
       y2="47.63604"
       gradientUnits="userSpaceOnUse" /><radialGradient
       xlink:href="#linearGradient15"
       id="radialGradient16-5"
       cx="25"
       cy="25"
       fx="25"
       fy="25"
       r="25"
       gradientUnits="userSpaceOnUse"
       gradientTransform="translate(-1.4131944e-6)" /><linearGradient
       x1="255.97676"
       y1="-0.02747168"
       x2="0.025491772"
       y2="256.02625"
       id="linearGradient-1"
       gradientUnits="userSpaceOnUse"><stop
         stop-color="#E44857"
         offset="0.3435144%"
         id="stop2540" /><stop
         stop-color="#C711E1"
         offset="46.89%"
         id="stop2542" /><stop
         stop-color="#7F52FF"
         offset="100%"
         id="stop2544" /></linearGradient><linearGradient
       id="paint0_linear_87_8231"
       x1="15.0103"
       y1="2"
       x2="15.0103"
       y2="27.0013"
       gradientUnits="userSpaceOnUse"
       xlink:href="#linearGradient33"><stop
         stop-color="#F88A36"
         id="stop1" /><stop
         offset="1"
         stop-color="#FD2020"
         id="stop2-5" /></linearGradient><filter
       inkscape:collect="always"
       style="color-interpolation-filters:sRGB"
       id="filter33"
       x="-0.045428563"
       y="-0.050880009"
       width="1.0908571"
       height="1.10176"><feGaussianBlur
         inkscape:collect="always"
         stdDeviation="0.52999974"
         id="feGaussianBlur33" /></filter></defs><g
     id="layer1"
     inkscape:label="Swift"><rect
       style="font-variation-settings:normal;vector-effect:none;fill:url(#radialGradient16);stroke:none;stroke-width:0.260698;stroke-linecap:butt;stroke-linejoin:miter;stroke-miterlimit:4;stroke-dasharray:none;stroke-dashoffset:0;stroke-opacity:1;-inkscape-stroke:none;stop-color:#000000"
       id="rect1-18"
       width="50"
       height="50"
       x="-2.5812685e-15"
       y="6.9388939e-16"
       rx="7.1983109"
       ry="7.1983109"
       inkscape:label="Background" /><g
       id="g25"
       inkscape:label="Icon"><path
         d="M 22.1356,25.2715 C 18.835,27.17 14.2967,27.3651 9.73079,25.4166 6.03387,23.8505 2.96639,21.109 1,17.9767 1.94387,18.7598 3.04503,19.3865 4.22484,19.9344 8.9401,22.135 13.6544,21.9843 16.972,19.94 12.2526,16.3374 8.23626,11.6326 5.2475,7.79547 4.61799,7.16887 4.14605,6.38567 3.67412,5.68084 7.29225,8.97014 13.0343,13.1207 15.0789,14.296 10.7535,9.75321 6.8991,4.1147 7.0561,4.27103 13.8993,11.163 20.2707,15.079 20.2707,15.079 c 0.2108,0.1184 0.3735,0.2169 0.5043,0.305 0.1379,-0.3493 0.2588,-0.712 0.3607,-1.088 C 22.2368,10.3018 20.9787,5.759 18.2254,2 c 6.3708,3.83752 10.1467,11.0425 8.5731,17.0732 -0.041,0.1627 -0.0856,0.3233 -0.1337,0.481 3.1458,3.9161 2.336,8.1342 1.9428,7.3511 -1.7066,-3.3252 -4.8658,-2.3084 -6.472,-1.6338 z"
         fill="url(#paint0_linear_87_8231)"
         id="path2"
         style="fill:#000000;fill-opacity:0.50369;filter:url(#filter33)"
         transform="matrix(1.2066457,0,0,1.2066457,6.9003206,7.5036484)" /><path
         id="path4"
         style="display:inline;opacity:1;fill:url(#SVGID_2_);stroke:none;stroke-width:0.176049"
         d="m 8.9653442,2.4815023 c -2.9376967,0 -5.4072649,1.9342857 -6.2094401,4.6038533 C 2.6286894,12.054588 2.5380862,17.843918 2.4815023,24.557157 l 5.6663208,5.017265 c 0.1584439,0.281679 0.334479,0.563782 0.5281331,0.827857 0.4753317,0.668984 0.9859727,1.320145 1.5141198,1.936316 0.774616,0.880243 1.601739,1.707915 2.499589,2.482535 1.091504,0.933054 2.253715,1.760219 3.503662,2.482019 1.425998,0.827431 2.939829,1.479074 4.524271,1.954403 1.7957,0.528149 3.679242,0.80967 5.562968,0.84491 1.038688,0.0176 2.094964,-0.05284 3.133659,-0.246497 0.827432,-0.176046 1.637636,-0.422604 2.412256,-0.73949 0.651376,-0.264075 1.267437,-0.580733 1.883606,-0.897619 0.528149,-0.281678 1.073752,-0.563401 1.637109,-0.75706 l 3.644222,-6.302974 c 0,0 4.806443,-11.143619 -10.052099,-21.2488326 L 22.354708,3.2199585 C 21.991761,3.0016371 21.634914,2.7546089 21.283455,2.4815023 Z" /><path
         d="M 22.1356,25.2715 C 18.835,27.17 14.2967,27.3651 9.73079,25.4166 6.03387,23.8505 2.96639,21.109 1,17.9767 1.94387,18.7598 3.04503,19.3865 4.22484,19.9344 8.9401,22.135 13.6544,21.9843 16.972,19.94 12.2526,16.3374 8.23626,11.6326 5.2475,7.79547 4.61799,7.16887 4.14605,6.38567 3.67412,5.68084 7.29225,8.97014 13.0343,13.1207 15.0789,14.296 10.7535,9.75321 6.8991,4.1147 7.0561,4.27103 13.8993,11.163 20.2707,15.079 20.2707,15.079 c 0.2108,0.1184 0.3735,0.2169 0.5043,0.305 0.1379,-0.3493 0.2588,-0.712 0.3607,-1.088 C 22.2368,10.3018 20.9787,5.759 18.2254,2 c 6.3708,3.83752 10.1467,11.0425 8.5731,17.0732 -0.041,0.1627 -0.0856,0.3233 -0.1337,0.481 3.1458,3.9161 2.336,8.1342 1.9428,7.3511 -1.7066,-3.3252 -4.8658,-2.3084 -6.472,-1.6338 z"
         fill="url(#paint0_linear_87_8231)"
         id="path1"
         style="fill:url(#paint0_linear_87_8231)"
         transform="matrix(1.2066457,0,0,1.2066457,6.9003206,7.5036484)" /></g><g
       id="g26"
       inkscape:label="Border"><rect
         style="fill:none;fill-opacity:1;stroke:url(#linearGradient24);stroke-width:1;stroke-dasharray:none;filter:url(#filter24)"
         id="rect1-1"
         width="45.037273"
         height="45.037273"
         x="2.4813633"
         y="2.4813633"
         rx="6.4838462"
         ry="6.4838462"
         inkscape:label="Border Shadow" /><rect
         style="fill:none;fill-opacity:1;stroke:url(#linearGradient9);stroke-width:1;stroke-dasharray:none"
         id="rect20"
         width="45.037273"
         height="45.037273"
         x="2.4813633"
         y="2.4813633"
         rx="6.4838462"
         ry="6.4838462"
         inkscape:label="Border" /></g></g><style
     type="text/css"
     id="style1">
	.st0{fill:url(#ICON_00000088831890668800157600000002638584723837204667_);}
</style><style
     id="style1-7">.st10{fill:#333}</style><style
     type="text/css"
     id="style1-1">
	.st0{fill:url(#ICON_00000088831890668800157600000002638584723837204667_);}
</style><style
     id="style1-7-2">.st10{fill:#333}</style></svg>
