<?xml version="1.0" encoding="UTF-8" standalone="no"?>
<!-- Created with Inkscape (http://www.inkscape.org/) -->

<svg
   width="50mm"
   height="50mm"
   viewBox="0 0 50 50"
   version="1.1"
   id="svg1"
   xml:space="preserve"
   sodipodi:docname="elixir_Box.svg"
   inkscape:version="1.4.2 (f4327f4, 2025-05-13)"
   inkscape:export-filename="Cairo_Box.png"
   inkscape:export-xdpi="96"
   inkscape:export-ydpi="96"
   xmlns:inkscape="http://www.inkscape.org/namespaces/inkscape"
   xmlns:sodipodi="http://sodipodi.sourceforge.net/DTD/sodipodi-0.dtd"
   xmlns:xlink="http://www.w3.org/1999/xlink"
   xmlns="http://www.w3.org/2000/svg"
   xmlns:svg="http://www.w3.org/2000/svg"><sodipodi:namedview
     id="namedview1"
     pagecolor="#ffffff"
     bordercolor="#000000"
     borderopacity="0.25"
     inkscape:showpageshadow="2"
     inkscape:pageopacity="0.0"
     inkscape:pagecheckerboard="0"
     inkscape:deskcolor="#d1d1d1"
     inkscape:document-units="mm"
     inkscape:zoom="6.1859582"
     inkscape:cx="70.805522"
     inkscape:cy="93.194939"
     inkscape:window-width="2560"
     inkscape:window-height="1369"
     inkscape:window-x="-8"
     inkscape:window-y="-8"
     inkscape:window-maximized="1"
     inkscape:current-layer="svg1"><inkscape:page
       x="0"
       y="0"
       width="50"
       height="50"
       id="page1"
       margin="0"
       bleed="0" /></sodipodi:namedview><defs
     id="defs1"><linearGradient
       id="linearGradient5"><stop
         style="stop-color:#ff3f30;stop-opacity:1;"
         offset="0.00462963"
         id="stop1" /><stop
         style="stop-color:#f9ac3f;stop-opacity:1;"
         offset="0.99834436"
         id="stop5" /></linearGradient><linearGradient
       xlink:href="#linearGradient5"
       id="linearGradient1"
       x1="25"
       y1="7.0902283e-06"
       x2="25"
       y2="50.000031"
       gradientUnits="userSpaceOnUse"
       gradientTransform="matrix(0.98039216,0,0,0.98039216,0.49019623,0.49019623)" /><filter
       inkscape:collect="always"
       style="color-interpolation-filters:sRGB"
       id="filter1"
       x="-0.06882552"
       y="-0.06882552"
       width="1.137651"
       height="1.137651"><feGaussianBlur
         inkscape:collect="always"
         stdDeviation="0.9600145"
         id="feGaussianBlur1" /></filter></defs><g
     id="layer1"
     inkscape:label="elixir"><rect
       style="font-variation-settings:normal;display:inline;fill:url(#linearGradient1);stroke:none;stroke-width:0.980392;stroke-linecap:butt;stroke-linejoin:miter;stroke-miterlimit:4;stroke-dasharray:none;stroke-dashoffset:0;stroke-opacity:1;stop-color:#000000"
       id="rect1-18"
       width="49.019608"
       height="49.019608"
       x="0.49019623"
       y="0.49019623"
       rx="7.0571675"
       ry="7.0571675"
       inkscape:label="Background" /><g
       id="g4"
       inkscape:label="Logo"
       transform="matrix(0.23622047,0,0,0.23622047,-14.182993,5.5367408e-8)"><path
         fill="url(#SVGID_1_)"
         d="m 107.04622,0 c 1.24024,0 115.17644,0 117.24349,0 5.70508,0 11.24479,0.9095052 16.61914,2.8111979 7.77214,2.8111979 14.80013,7.7721351 20.0918,14.2213541 5.37435,6.449219 8.92969,14.386719 10.16992,22.654948 0.4961,3.059244 0.57878,6.118489 0.57878,9.177734 0,2.811198 0,101.864586 0,106.329426 0,2.64583 0,5.37435 0,8.02018 0,3.63802 -0.16537,7.35873 -0.90951,10.91406 -1.65364,8.18555 -5.53971,15.875 -11.16211,22.07618 -5.53971,6.20117 -12.81575,10.83138 -20.67057,13.31185 -4.79557,1.48828 -9.75651,2.14974 -14.80013,2.14974 -2.23242,0 -117.49154,0 -119.22786,-0.0827 -8.433597,-0.41341 -16.784508,-3.14192 -23.812503,-7.85481 -6.86263,-4.63021 -12.485026,-11.07943 -16.123047,-18.52084 -3.141927,-6.36653 -4.71289,-13.47721 -4.71289,-20.58789 0,-1.65364 0,-115.920571 0,-117.574216 C 60.165365,40.018229 61.653646,33.072916 64.712891,26.789062 68.26823,19.347656 73.807943,12.815755 80.670573,8.1855468 87.698568,3.3899739 95.966797,0.57877604 104.40039,0.16536458 105.22721,0 106.13672,0 107.04622,0 Z"
         id="path2"
         style="fill:url(#SVGID_1_);stroke-width:0.826823" /><path
         fill="url(#SVGID_2_)"
         d="m 238.59375,173.13672 c -0.74414,-1.15755 -1.57096,-2.31511 -2.48047,-3.38998 -2.06706,-2.48047 -4.46484,-4.6302 -7.11068,-6.44922 -3.30729,-2.23242 -7.19336,-3.63802 -11.16211,-3.80338 -2.81119,-0.16537 -5.62239,0.33073 -8.26823,1.32292 -2.64583,0.9095 -5.20898,2.23242 -7.68945,3.55533 -2.89388,1.48829 -5.78776,2.97657 -8.847,4.2168 -3.63802,1.48828 -7.44141,2.64583 -11.32748,3.47266 -4.87825,0.9095 -9.83919,1.24023 -14.71744,1.15755 -8.84701,-0.16536 -17.69402,-1.48828 -26.12761,-3.96875 -7.44141,-2.23242 -14.55208,-5.29167 -21.24935,-9.17773 -5.87044,-3.38998 -11.32747,-7.27605 -16.45377,-11.65821 -4.2168,-3.63802 -8.102868,-7.52409 -11.740889,-11.6582 -2.480469,-2.89388 -4.878255,-5.95313 -7.110677,-9.09505 -0.909505,-1.24024 -1.736328,-2.56315 -2.480469,-3.88607 0,0 0,0 0,0 0,0 0,0 0,0 L 60,100.21094 V 46.880859 C 60,21.001302 80.91862,0 106.79818,0 h 41.75455 l 30.92318,31.419271 c 0,0 0,0 0,0 69.78385,47.459635 47.21159,99.797529 47.21159,99.797529 0,0 19.84375,22.32421 11.90625,41.91992 z"
         id="path4"
         style="fill:url(#SVGID_2_);stroke-width:0.826823" /><path
         fill="#ffffff"
         d="m 179.64128,31.419271 c 69.78385,47.459635 47.21158,99.797529 47.21158,99.797529 0,0 19.84375,22.4069 11.82357,42.0026 0,0 -8.18555,-13.72526 -21.91081,-13.72526 -13.22916,0 -21.0013,13.72526 -47.625,13.72526 -59.2832,0 -87.312495,-49.52669 -87.312495,-49.52669 53.412765,35.13997 89.875655,10.2526 89.875655,10.2526 C 147.64323,119.972 96.462891,53.164713 96.462891,53.164713 141.02865,91.115885 160.29362,101.12044 160.29362,101.12044 148.80078,91.611978 116.55469,45.144531 116.55469,45.144531 c 25.79687,26.127604 77.05989,62.590499 77.05989,62.590499 14.55209,-40.348963 -13.9733,-76.315759 -13.9733,-76.315759 z"
         id="path5-2"
         style="stroke-width:0.826823" /></g><rect
       style="font-variation-settings:normal;display:inline;fill:none;stroke:#000000;stroke-width:1.99928;stroke-linecap:butt;stroke-linejoin:miter;stroke-miterlimit:4;stroke-dasharray:none;stroke-dashoffset:0;stroke-opacity:1;filter:url(#filter1);stop-color:#000000"
       id="rect1"
       width="48.000725"
       height="48.000725"
       x="0.99963778"
       y="0.99963778"
       rx="6.9104829"
       ry="6.9104829"
       inkscape:label="Shadow" /><rect
       style="font-variation-settings:normal;display:inline;fill:none;stroke:#d95d2f;stroke-width:1.99928;stroke-linecap:butt;stroke-linejoin:miter;stroke-miterlimit:4;stroke-dasharray:none;stroke-dashoffset:0;stroke-opacity:1;stop-color:#000000"
       id="rect1-18-1"
       width="48.000725"
       height="48.000725"
       x="0.99963778"
       y="0.99963778"
       rx="6.9104829"
       ry="6.9104829"
       inkscape:label="Frame" /></g><style
     type="text/css"
     id="style1">
	.st0{fill:url(#ICON_00000088831890668800157600000002638584723837204667_);}
</style><style
     id="style1-7">.st10{fill:#333}</style><style
     type="text/css"
     id="style1-1">
	.st0{fill:url(#ICON_00000088831890668800157600000002638584723837204667_);}
</style><style
     id="style1-7-2">.st10{fill:#333}</style><linearGradient
     id="SVGID_1_"
     gradientUnits="userSpaceOnUse"
     x1="-1845.5007"
     y1="1255.6392"
     x2="-1797.1339"
     y2="981.33789"
     gradientTransform="matrix(-0.82682291,0,0,-0.82682291,-1339.9854,1030.6384)"><stop
       offset="0"
       style="stop-color:#FAAE42"
       id="stop1-4" /><stop
       offset="1"
       style="stop-color:#EF3E31"
       id="stop2" /></linearGradient><linearGradient
     id="SVGID_2_"
     gradientUnits="userSpaceOnUse"
     x1="130.61169"
     y1="4.1363001"
     x2="95.212997"
     y2="204.8927"
     gradientTransform="matrix(0.82682291,0,0,0.82682291,60,0)"><stop
       offset="0"
       style="stop-color:#E39F3A"
       id="stop3" /><stop
       offset="1"
       style="stop-color:#D33929"
       id="stop4" /></linearGradient></svg>
