<?xml version="1.0" encoding="UTF-8" standalone="no"?>
<!-- Created with Inkscape (http://www.inkscape.org/) -->

<svg
   width="50mm"
   height="50mm"
   viewBox="0 0 50 50"
   version="1.1"
   id="svg1"
   xml:space="preserve"
   sodipodi:docname="Kotlin_Box.svg"
   inkscape:version="1.2.2 (b0a8486541, 2022-12-01)"
   xmlns:inkscape="http://www.inkscape.org/namespaces/inkscape"
   xmlns:sodipodi="http://sodipodi.sourceforge.net/DTD/sodipodi-0.dtd"
   xmlns:xlink="http://www.w3.org/1999/xlink"
   xmlns="http://www.w3.org/2000/svg"
   xmlns:svg="http://www.w3.org/2000/svg"><sodipodi:namedview
     id="namedview172"
     pagecolor="#ffffff"
     bordercolor="#000000"
     borderopacity="0.25"
     inkscape:showpageshadow="2"
     inkscape:pageopacity="0.0"
     inkscape:pagecheckerboard="0"
     inkscape:deskcolor="#d1d1d1"
     inkscape:document-units="mm"
     showgrid="false"
     inkscape:zoom="2.794"
     inkscape:cx="-31.138153"
     inkscape:cy="128.31067"
     inkscape:window-width="2560"
     inkscape:window-height="1369"
     inkscape:window-x="0"
     inkscape:window-y="0"
     inkscape:window-maximized="1"
     inkscape:current-layer="svg1"><inkscape:page
       x="0"
       y="0"
       width="50"
       height="50"
       id="page2"
       margin="0"
       bleed="0" /></sodipodi:namedview><defs
     id="defs1"><linearGradient
       id="linearGradient2"><stop
         style="stop-color:#f1aa5a;stop-opacity:1;"
         offset="0.00162602"
         id="stop21" /><stop
         style="stop-color:#f1aa5a;stop-opacity:0;"
         offset="0.30000001"
         id="stop22" /><stop
         style="stop-color:#f21a00;stop-opacity:0;"
         offset="0.70323098"
         id="stop23" /><stop
         style="stop-color:#f21a00;stop-opacity:1;"
         offset="1"
         id="stop24" /></linearGradient><linearGradient
       id="linearGradient12"><stop
         style="stop-color:#f21a00;stop-opacity:1;"
         offset="0"
         id="stop13" /><stop
         style="stop-color:#f1ac5b;stop-opacity:1;"
         offset="0.99999774"
         id="stop14" /></linearGradient><linearGradient
       id="linearGradient10"><stop
         style="stop-color:#795119;stop-opacity:1;"
         offset="0.24715447"
         id="stop7" /><stop
         style="stop-color:#a01500;stop-opacity:1;"
         offset="1"
         id="stop10" /></linearGradient><linearGradient
       id="linearGradient2-2"><stop
         style="stop-color:#000000;stop-opacity:0.50429183;"
         offset="0.00162602"
         id="stop2" /><stop
         style="stop-color:#000000;stop-opacity:0;"
         offset="0.30000001"
         id="stop4" /><stop
         style="stop-color:#000000;stop-opacity:0;"
         offset="0.70323098"
         id="stop17" /><stop
         style="stop-color:#000000;stop-opacity:0.5;"
         offset="1"
         id="stop3" /></linearGradient><linearGradient
       xlink:href="#linearGradient2"
       id="linearGradient9"
       x1="25.000004"
       y1="2.3639462"
       x2="25.000004"
       y2="47.63604"
       gradientUnits="userSpaceOnUse" /><radialGradient
       xlink:href="#linearGradient10"
       id="radialGradient16"
       cx="1.4131944e-06"
       cy="0"
       fx="1.4131944e-06"
       fy="0"
       r="25"
       gradientUnits="userSpaceOnUse"
       gradientTransform="matrix(2,0,0,2,-2.8263888e-6,0)" /><linearGradient
       inkscape:collect="always"
       xlink:href="#linearGradient12"
       id="linearGradient7"
       x1="427.97092"
       y1="378.47192"
       x2="269.21353"
       y2="236.6718"
       gradientUnits="userSpaceOnUse"
       gradientTransform="matrix(0.21313496,0,0,0.21313496,-49.297189,-40.554317)" /><filter
       inkscape:collect="always"
       style="color-interpolation-filters:sRGB"
       id="filter20"
       x="-0.0454365"
       y="-0.050870058"
       width="1.090873"
       height="1.1017401"><feGaussianBlur
         inkscape:collect="always"
         stdDeviation="0.64059317"
         id="feGaussianBlur20" /></filter><linearGradient
       inkscape:collect="always"
       xlink:href="#linearGradient2-2"
       id="linearGradient24"
       gradientUnits="userSpaceOnUse"
       x1="25.000004"
       y1="2.3639462"
       x2="25.000004"
       y2="47.63604" /><filter
       inkscape:collect="always"
       style="color-interpolation-filters:sRGB"
       id="filter24"
       x="-0.038101916"
       y="-0.038101916"
       width="1.0762038"
       height="1.0762038"><feGaussianBlur
         inkscape:collect="always"
         stdDeviation="0.50666933"
         id="feGaussianBlur24" /></filter><linearGradient
       id="SVGID_2_"
       gradientUnits="userSpaceOnUse"
       x1="-5.7851996"
       y1="-4.1952829"
       x2="218.22554"
       y2="209.55074"
       gradientTransform="matrix(0.17604903,0,0,0.17604903,3.4999811,3.2200778)"><stop
         offset="0"
         style="stop-color:#ffffff;stop-opacity:0;"
         id="stop3-9" /><stop
         offset="1"
         style="stop-color:#ffffff;stop-opacity:0.14806867;"
         id="stop4-86" /></linearGradient></defs><g
     id="layer1"
     inkscape:label="Swift"><rect
       style="font-variation-settings:normal;vector-effect:none;fill:url(#radialGradient16);stroke:none;stroke-width:0.260698;stroke-linecap:butt;stroke-linejoin:miter;stroke-miterlimit:4;stroke-dasharray:none;stroke-dashoffset:0;stroke-opacity:1;-inkscape-stroke:none;stop-color:#000000"
       id="rect1-18"
       width="50"
       height="50"
       x="-2.5812685e-15"
       y="6.9388939e-16"
       rx="7.1983109"
       ry="7.1983109"
       inkscape:label="Background" /><g
       id="g25"
       inkscape:label="Icon"><path
         fill="#ffffff"
         d="M 28.929028,9.8887176 C 43.802406,20.004023 38.991467,31.159059 38.991467,31.159059 c 0,0 4.229396,4.775695 2.520016,8.952223 0,0 -1.744628,-2.925333 -4.66996,-2.925333 -2.819596,0 -4.476112,2.925333 -10.150553,2.925333 -12.635322,0 -18.609346,-10.555869 -18.609346,-10.555869 11.384129,7.489557 19.155645,2.185188 19.155645,2.185188 C 22.109125,28.762399 11.200805,14.523431 11.200805,14.523431 20.699326,22.612152 24.805366,24.744473 24.805366,24.744473 22.35584,22.717888 15.48307,12.81405 15.48307,12.81405 20.981285,18.382755 31.907226,26.154274 31.907226,26.154274 35.008786,17.554497 28.929028,9.8887176 28.929028,9.8887176 Z"
         id="path20"
         style="fill:#000000;fill-opacity:0.50369;stroke-width:0.176225;filter:url(#filter20)" /><path
         id="path4"
         style="opacity:1;fill:url(#SVGID_2_);stroke:none;stroke-width:0.176049"
         d="m 8.9653442,2.4815023 c -2.9376967,0 -5.4072649,1.9342857 -6.2094401,4.6038533 C 2.6286894,12.054588 2.5380862,17.843918 2.4815023,24.557157 l 5.6663208,5.017265 c 0.1584439,0.281679 0.334479,0.563782 0.5281331,0.827857 0.4753317,0.668984 0.9859727,1.320145 1.5141198,1.936316 0.774616,0.880243 1.601739,1.707915 2.499589,2.482535 1.091504,0.933054 2.253715,1.760219 3.503662,2.482019 1.425998,0.827431 2.939829,1.479074 4.524271,1.954403 1.7957,0.528149 3.679242,0.80967 5.562968,0.84491 1.038688,0.0176 2.094964,-0.05284 3.133659,-0.246497 0.827432,-0.176046 1.637636,-0.422604 2.412256,-0.73949 0.651376,-0.264075 1.267437,-0.580733 1.883606,-0.897619 0.528149,-0.281678 1.073752,-0.563401 1.637109,-0.75706 l 3.644222,-6.302974 c 0,0 4.806443,-11.143619 -10.052099,-21.2488326 L 22.354708,3.2199585 C 21.991761,3.0016371 21.634914,2.7546089 21.283455,2.4815023 Z" /><path
         fill="#ffffff"
         d="M 28.929028,9.8887176 C 43.802406,20.004023 38.991467,31.159059 38.991467,31.159059 c 0,0 4.229396,4.775695 2.520016,8.952223 0,0 -1.744628,-2.925333 -4.66996,-2.925333 -2.819596,0 -4.476112,2.925333 -10.150553,2.925333 -12.635322,0 -18.609346,-10.555869 -18.609346,-10.555869 11.384129,7.489557 19.155645,2.185188 19.155645,2.185188 C 22.109125,28.762399 11.200805,14.523431 11.200805,14.523431 20.699326,22.612152 24.805366,24.744473 24.805366,24.744473 22.35584,22.717888 15.48307,12.81405 15.48307,12.81405 20.981285,18.382755 31.907226,26.154274 31.907226,26.154274 35.008786,17.554497 28.929028,9.8887176 28.929028,9.8887176 Z"
         id="path5-2"
         style="fill:url(#linearGradient7);stroke-width:0.176225" /></g><g
       id="g26"
       inkscape:label="Border"><rect
         style="fill:none;fill-opacity:1;stroke:url(#linearGradient24);stroke-width:1;stroke-dasharray:none;filter:url(#filter24)"
         id="rect1-1"
         width="45.037273"
         height="45.037273"
         x="2.4813633"
         y="2.4813633"
         rx="6.4838462"
         ry="6.4838462"
         inkscape:label="Border Shadow" /><rect
         style="fill:none;fill-opacity:1;stroke:url(#linearGradient9);stroke-width:1;stroke-dasharray:none"
         id="rect20"
         width="45.037273"
         height="45.037273"
         x="2.4813633"
         y="2.4813633"
         rx="6.4838462"
         ry="6.4838462"
         inkscape:label="Border" /></g></g><style
     type="text/css"
     id="style1">
	.st0{fill:url(#ICON_00000088831890668800157600000002638584723837204667_);}
</style><style
     id="style1-7">.st10{fill:#333}</style><style
     type="text/css"
     id="style1-1">
	.st0{fill:url(#ICON_00000088831890668800157600000002638584723837204667_);}
</style><style
     id="style1-7-2">.st10{fill:#333}</style></svg>
