<?xml version="1.0" encoding="UTF-8" standalone="no"?>
<svg
   id="Layer_1"
   viewBox="0 0 8 8"
   width="50"
   height="50"
   version="1.1"
   sodipodi:docname="typescript(1).svg"
   xml:space="preserve"
   xmlns:inkscape="http://www.inkscape.org/namespaces/inkscape"
   xmlns:sodipodi="http://sodipodi.sourceforge.net/DTD/sodipodi-0.dtd"
   xmlns="http://www.w3.org/2000/svg"
   xmlns:svg="http://www.w3.org/2000/svg"><defs
     id="defs2"><style
       id="style1-0">.cls-1{fill:#01579b;}.cls-2{fill:#40c4ff;}.cls-3{fill:#29b6f6;}.cls-4{fill:#fff;}.cls-4,.cls-5,.cls-6{opacity:0.2;isolation:isolate;}.cls-5{fill:#263238;}.cls-6{fill:url(#radial-gradient);}</style></defs><sodipodi:namedview
     id="namedview2"
     pagecolor="#ffffff"
     bordercolor="#000000"
     borderopacity="0.25"
     inkscape:showpageshadow="2"
     inkscape:pageopacity="0.0"
     inkscape:pagecheckerboard="0"
     inkscape:deskcolor="#d1d1d1"><inkscape:page
       x="0"
       y="0"
       width="8"
       height="8"
       id="page2"
       margin="0"
       bleed="0" /></sodipodi:namedview><style
     id="style1">.st0{fill:#007acc}.st1{fill:#fff}</style><rect
     style="fill:#007acc;stroke-width:0.142003;-inkscape-stroke:none"
     id="rect2"
     width="8"
     height="8"
     x="0"
     y="0"
     rx="1.1538929"
     ry="1.1538929" /><path
     class="st1"
     d="M 1.754,4.014 V 4.34 h 1.04 V 7.3 H 3.532 V 4.34 h 1.04 V 4.02 c 0,-0.18 0,-0.326 -0.008,-0.33 C 4.564,3.684 3.93,3.682 3.16,3.682 L 1.76,3.688 V 4.016 Z M 6.428,3.68 c 0.204,0.048 0.36,0.14 0.5,0.286 0.074,0.08 0.184,0.22 0.192,0.256 0,0.012 -0.346,0.246 -0.556,0.376 C 6.556,4.604 6.524,4.57 6.492,4.518 6.388,4.37 6.282,4.306 6.116,4.294 c -0.24,-0.016 -0.4,0.11 -0.4,0.32 0,0.064 0.012,0.1 0.036,0.152 0.054,0.11 0.154,0.176 0.464,0.312 0.572,0.246 0.82,0.408 0.97,0.64 0.17,0.26 0.208,0.668 0.094,0.974 C 7.152,7.026 6.84,7.252 6.394,7.326 6.254,7.35 5.934,7.346 5.784,7.32 5.464,7.26 5.158,7.1 4.97,6.894 4.896,6.814 4.754,6.6 4.762,6.586 L 4.838,6.538 5.138,6.364 5.364,6.232 5.416,6.302 C 5.482,6.406 5.63,6.546 5.716,6.594 5.976,6.728 6.324,6.71 6.496,6.554 6.57,6.486 6.602,6.414 6.602,6.314 6.602,6.222 6.588,6.18 6.542,6.11 6.478,6.022 6.35,5.95 5.99,5.79 5.576,5.614 5.4,5.502 5.236,5.33 5.142,5.226 5.056,5.064 5.016,4.93 4.986,4.814 4.976,4.53 5.004,4.416 5.09,4.016 5.392,3.736 5.824,3.656 5.964,3.628 6.294,3.64 6.432,3.676 Z"
     id="path2"
     style="stroke-width:0.02" /></svg>
