<?xml version="1.0" encoding="UTF-8" standalone="no"?>
<svg
   height="50"
   width="50"
   version="1.1"
   id="svg59"
   sodipodi:docname="Vala_Logo_New.svg"
   inkscape:version="0.92.3 (2405546, 2018-03-11)"
   xml:space="preserve"
   inkscape:export-filename="Vala_Box.svg"
   inkscape:export-xdpi="96"
   inkscape:export-ydpi="96"
   xmlns:inkscape="http://www.inkscape.org/namespaces/inkscape"
   xmlns:sodipodi="http://sodipodi.sourceforge.net/DTD/sodipodi-0.dtd"
   xmlns="http://www.w3.org/2000/svg"
   xmlns:svg="http://www.w3.org/2000/svg"
   xmlns:rdf="http://www.w3.org/1999/02/22-rdf-syntax-ns#"
   xmlns:cc="http://creativecommons.org/ns#"
   xmlns:dc="http://purl.org/dc/elements/1.1/"><metadata
     id="metadata63"><rdf:RDF><cc:Work
         rdf:about=""><dc:format>image/svg+xml</dc:format><dc:type
           rdf:resource="http://purl.org/dc/dcmitype/StillImage" /></cc:Work></rdf:RDF></metadata><sodipodi:namedview
     pagecolor="#ffffff"
     bordercolor="#666666"
     borderopacity="1"
     objecttolerance="10"
     gridtolerance="10"
     guidetolerance="10"
     inkscape:pageopacity="0"
     inkscape:pageshadow="2"
     inkscape:window-width="1920"
     inkscape:window-height="1017"
     id="namedview61"
     showgrid="false"
     inkscape:zoom="1.3037281"
     inkscape:cx="-1.0451569"
     inkscape:cy="42.312376"
     inkscape:window-x="0"
     inkscape:window-y="30"
     inkscape:window-maximized="1"
     inkscape:current-layer="svg59"
     inkscape:showpageshadow="0"
     inkscape:pagecheckerboard="1"
     inkscape:deskcolor="#505050"><inkscape:page
       x="0"
       y="0"
       width="50"
       height="50"
       id="page2"
       margin="0"
       bleed="0" /></sodipodi:namedview><defs
     id="defs37"><linearGradient
       id="e"
       y2="43"
       gradientUnits="userSpaceOnUse"
       x2="24"
       gradientTransform="matrix(1.3021818,0,0,1.3057273,-6.2527282,-6.3363636)"
       y1="5"
       x1="24"><stop
         stop-color="#fff"
         offset="0"
         id="stop19" /><stop
         stop-color="#fff"
         stop-opacity=".235"
         offset=".063"
         id="stop21" /><stop
         stop-color="#fff"
         stop-opacity=".157"
         offset=".951"
         id="stop23" /><stop
         stop-color="#fff"
         stop-opacity=".392"
         offset="1"
         id="stop25" /></linearGradient><radialGradient
       id="d"
       fx="6.1999998"
       gradientUnits="userSpaceOnUse"
       cy="9.9569998"
       cx="6.73"
       gradientTransform="matrix(0,12.176364,-14.949091,0,174.90909,-108.53636)"
       r="12.672"><stop
         stop-color="#bd94e7"
         offset="0"
         id="stop28"
         style="stop-color:#e4c6fa;stop-opacity:1" /><stop
         stop-color="#7b6ca3"
         offset=".262"
         id="stop30"
         style="stop-color:#a56de2;stop-opacity:1" /><stop
         stop-color="#574a76"
         offset=".705"
         id="stop32"
         style="stop-color:#7239b3;stop-opacity:1" /><stop
         stop-color="#3f3654"
         offset="1"
         id="stop34"
         style="stop-color:#452981;stop-opacity:1" /></radialGradient></defs><rect
     height="50"
     width="50"
     y="0"
     x="0"
     fill="url(#d)"
     color="#000000"
     id="rect47"
     style="fill:url(#d);stroke-width:0.909091"
     ry="7.1856413"
     rx="7.1856413" /><rect
     opacity="0.3"
     stroke-linejoin="round"
     height="48.310909"
     width="48.18182"
     stroke="url(#e)"
     stroke-linecap="round"
     y="0.84454536"
     x="0.90909004"
     fill="none"
     id="rect49"
     style="display:inline;stroke:url(#e);stroke-width:0.909091"
     ry="6.4052267"
     rx="6.4052267" /><path
     opacity="0.15"
     style="display:inline;isolation:auto;mix-blend-mode:normal;stroke-width:0.909091"
     d="m 25.45422,8.622272 c -1.227273,0 -2.459091,0.150909 -3.690909,0.448182 -1.213636,0.281818 -2.385455,0.683636 -3.514545,1.205454 a 18.879091,18.879091 0 0 0 -3.151819,1.82 0.92363636,0.92363636 0 0 0 -0.0045,0.0036 15.730909,15.730909 0 0 0 -2.585455,2.329091 0.92363636,0.92363636 0 0 0 -0.0055,0.0073 11.403636,11.403636 0 0 0 -1.772727,2.738182 0.92363636,0.92363636 0 0 0 -0.0045,0.01 7.5890909,7.5890909 0 0 0 -0.662727,3.066364 c 0,0.829091 0.1,1.565454 0.339091,2.212727 a 0.92363636,0.92363636 0 0 0 0.0073,0.01909 c 0.247273,0.627273 0.618182,1.175455 1.106364,1.590909 a 0.92363636,0.92363636 0 0 0 0.01273,0.01091 c 0.490909,0.403637 1.08,0.685455 1.734546,0.860909 a 0.92363636,0.92363636 0 0 0 0.02091,0.0055 c 0.638182,0.155454 1.339091,0.229091 2.109091,0.229091 a 0.92363636,0.92363636 0 0 0 0.923636,-0.922728 c 0,-0.341818 -0.12,-0.578181 -0.241818,-0.772727 l 0.04273,0.07636 a 3.6490909,3.6490909 0 0 1 -0.134545,-0.337273 c 0,-9.09e-4 -0.0018,0 -0.0018,-0.0018 a 6.6027273,6.6027273 0 0 1 -0.161917,-0.639141 7.7527273,7.7527273 0 0 1 -0.06545,-1.123636 c 0,-2.150909 0.492727,-3.860909 1.443636,-5.227273 0.724546,-1.028182 1.727273,-1.783636 2.881818,-2.411818 l 0.628182,26.656363 a 0.92363636,0.92363636 0 0 0 0.923637,0.901819 h 5.936363 a 0.92363636,0.92363636 0 0 0 0.865455,-0.6 L 39.880584,10.069545 A 0.92363636,0.92363636 0 0 0 39.016038,8.82409 H 36.139675 A 0.92363636,0.92363636 0 0 0 35.266038,9.446817 L 28.312402,29.67409 28.026947,9.61409 A 0.92363636,0.92363636 0 0 0 27.196038,8.708636 17.145455,17.145455 0 0 0 26.346947,8.644996 h -0.0018 a 17.043636,17.043636 0 0 0 -0.890909,-0.02182 z"
     fill="#201c2c"
     color="#000000"
     id="path53" /><path
     style="display:inline;isolation:auto;mix-blend-mode:normal;stroke-width:0.909091"
     d="M 21.630455,40.453637 20.966818,12.301818 q -2.898182,1.086364 -4.527272,3.4 -1.61091,2.314545 -1.61091,5.755455 0,0.784545 0.08091,1.288181 0.1,0.482729 0.200909,0.784546 0.100909,0.281818 0.181818,0.442728 0.1,0.160909 0.1,0.281818 -1.066364,0 -1.890909,-0.200909 Q 12.675909,23.831818 12.112273,23.369091 11.568636,22.907273 11.266818,22.141818 10.985,21.378182 10.985,20.250909 q 0,-1.368182 0.582727,-2.696364 0.603637,-1.327272 1.63,-2.515454 1.046364,-1.186364 2.435455,-2.192728 1.409091,-1.006363 2.998182,-1.730909 1.609091,-0.744545 3.34,-1.146363 1.750909,-0.423637 3.481818,-0.423637 0.462727,0 0.845454,0.02 0.401819,0.02 0.803637,0.06 L 27.465,34.98 36.137727,9.745454 H 39.015 L 27.565909,40.454546 h -5.936363 z"
     opacity="0.3"
     fill="#201c2c"
     color="#000000"
     id="path55" /><path
     d="M 21.630455,40.453637 20.966818,12.301819 q -2.898182,1.086364 -4.527272,3.4 -1.61091,2.314546 -1.61091,5.755455 0,0.784545 0.08091,1.288181 0.1,0.482728 0.200909,0.784546 0.100909,0.281818 0.181818,0.442727 0.1,0.160909 0.1,0.281818 -1.066364,0 -1.890909,-0.200909 Q 12.675909,23.831818 12.112273,23.369092 11.568636,22.907274 11.266818,22.141819 10.985,21.378182 10.985,20.25091 q 0,-1.368182 0.582727,-2.696364 0.603637,-1.327272 1.63,-2.515454 1.046364,-1.186364 2.435455,-2.192727 1.409091,-1.006364 2.998182,-1.73091 1.609091,-0.744545 3.34,-1.146364 1.750909,-0.423636 3.481818,-0.423636 0.462727,0 0.845454,0.02 0.401819,0.02 0.803637,0.06 L 27.465,34.980001 36.137727,9.745454 H 39.015 L 27.565909,40.454546 h -5.936363 z"
     fill="#ffffff"
     id="path57"
     style="display:inline;stroke-width:0.909091" /></svg>
