<?xml version="1.0" encoding="UTF-8" standalone="no"?>
<!-- Created with Inkscape (http://www.inkscape.org/) -->

<svg
   width="50mm"
   height="50mm"
   viewBox="0 0 50 50"
   version="1.1"
   id="svg1"
   xml:space="preserve"
   sodipodi:docname="Vulkan_Box.svg"
   inkscape:version="1.4.2 (f4327f4, 2025-05-13)"
   xmlns:inkscape="http://www.inkscape.org/namespaces/inkscape"
   xmlns:sodipodi="http://sodipodi.sourceforge.net/DTD/sodipodi-0.dtd"
   xmlns:xlink="http://www.w3.org/1999/xlink"
   xmlns="http://www.w3.org/2000/svg"
   xmlns:svg="http://www.w3.org/2000/svg"><sodipodi:namedview
     id="namedview1"
     pagecolor="#ffffff"
     bordercolor="#000000"
     borderopacity="0.25"
     inkscape:showpageshadow="2"
     inkscape:pageopacity="0.0"
     inkscape:pagecheckerboard="0"
     inkscape:deskcolor="#d1d1d1"
     inkscape:document-units="mm"
     inkscape:zoom="6.1859583"
     inkscape:cx="88.426073"
     inkscape:cy="89.315183"
     inkscape:window-width="2560"
     inkscape:window-height="1417"
     inkscape:window-x="2552"
     inkscape:window-y="-8"
     inkscape:window-maximized="1"
     inkscape:current-layer="svg1" /><defs
     id="defs1"><linearGradient
       id="linearGradient15"><stop
         style="stop-color:#690c08;stop-opacity:0.49411765;"
         offset="0"
         id="stop15" /><stop
         style="stop-color:#9d0707;stop-opacity:0.5;"
         offset="1"
         id="stop16" /></linearGradient><linearGradient
       id="linearGradient2"><stop
         style="stop-color:#690c08;stop-opacity:1;"
         offset="0"
         id="stop2" /><stop
         style="stop-color:#690c08;stop-opacity:0;"
         offset="0.30000001"
         id="stop4" /><stop
         style="stop-color:#8f150b;stop-opacity:0;"
         offset="0.69999999"
         id="stop17" /><stop
         style="stop-color:#8f150b;stop-opacity:1;"
         offset="1"
         id="stop3" /></linearGradient><linearGradient
       xlink:href="#linearGradient2"
       id="linearGradient9"
       x1="25.000004"
       y1="2.3639462"
       x2="25.000004"
       y2="47.63604"
       gradientUnits="userSpaceOnUse" /><radialGradient
       xlink:href="#linearGradient15"
       id="radialGradient16"
       cx="25"
       cy="25"
       fx="25"
       fy="25"
       r="25"
       gradientUnits="userSpaceOnUse"
       gradientTransform="translate(-2.4265137e-6)" /></defs><g
     id="layer1"><rect
       style="font-variation-settings:normal;opacity:1;vector-effect:none;fill:#000000;fill-opacity:1;stroke:none;stroke-width:0.260698;stroke-linecap:butt;stroke-linejoin:miter;stroke-miterlimit:4;stroke-dasharray:none;stroke-dashoffset:0;stroke-opacity:1;-inkscape-stroke:none;stop-color:#000000;stop-opacity:1"
       id="rect1"
       width="50"
       height="50"
       x="0"
       y="0"
       rx="7.1983109"
       ry="7.1983109" /><rect
       style="font-variation-settings:normal;vector-effect:none;fill:url(#radialGradient16);stroke:none;stroke-width:0.260698;stroke-linecap:butt;stroke-linejoin:miter;stroke-miterlimit:4;stroke-dasharray:none;stroke-dashoffset:0;stroke-opacity:1;-inkscape-stroke:none;stop-color:#000000"
       id="rect1-18"
       width="50"
       height="50"
       x="0"
       y="-4.4408921e-16"
       rx="7.1983109"
       ry="7.1983109" /><rect
       style="fill:none;fill-opacity:1;stroke:url(#linearGradient9);stroke-width:1;stroke-dasharray:none"
       id="rect1-1"
       width="45.037273"
       height="45.037273"
       x="2.4813633"
       y="2.4813633"
       rx="6.4838462"
       ry="6.4838462" /></g><g
     fill="#ac162c"
     id="g9"
     transform="matrix(0.0359389,0,0,0.0359389,4.9987361,19.652392)"><path
       d="m 622.05,293.39 h -40.6 v -130 c 13,7.22 30.1,20.5 40.6,33.3 z"
       id="path1" /><g
       id="g3"><path
         d="m 280.05,293.39 h -50.6 l -66,-204 h 46 l 45.4,143 h 0.57 l 46,-143 h 46.3 z"
         id="path2-3" /><path
         d="m 484.05,293.39 h -38.6 v -20.6 c -2.218,0.332 -2.675,3.893 -4.446,5.291 -5.764,7.76 -14.189,13.219 -23.366,16.071 -11.679,3.922 -24.359,3.54 -36.332,1.275 -11.886,-2.331 -23.22,-9.46 -28.716,-20.513 -5.735,-11.137 -6.781,-23.952 -7.135,-36.274 -0.035,-31.007 -0.005,-62.014 -0.015,-93.02 h 40.6 c 0.023,28.734 -0.046,57.469 0.035,86.203 0.341,8.996 1.315,18.644 6.835,26.108 5.473,6.824 14.961,7.883 23.134,7.235 8.616,-0.502 17.559,-4.467 21.759,-12.372 5.544,-10.319 5.713,-22.407 5.687,-33.842 V 145.66 h 40.6 v 148 l -0.03,-0.203 z"
         id="path3" /></g><g
       id="g5"><polygon
         points="734.05,293.39 685.05,293.39 629.05,204.39 629.05,198.39 680.05,145.39 728.05,145.39 672.05,200.39 "
         id="polygon3" /><path
         d="m 742.05,191.39 c 0.486,-10.639 4.031,-21.361 11.412,-29.228 10.598,-11.909 26.568,-17.226 41.991,-19.095 14.696,-1.856 29.695,-1.186 44.246,1.498 12.149,2.531 24.373,8.288 31.428,18.914 5.144,7.589 5.435,17.008 5.273,25.863 0.034,25.313 -0.069,50.627 0.055,75.94 0.44,8.729 0.565,17.758 3.77,26.01 2.088,2.555 0.812,2.805 -1.644,2.548 H 840.35 c -1.543,-4.62 -2.488,-9.435 -2.86,-14.29 -7.917,8.393 -18.694,13.589 -29.92,15.84 -15.013,3.18 -31.195,3.316 -45.591,-2.513 -10.456,-4.263 -19.058,-13.06 -22.376,-23.935 -2.922,-9.873 -2.958,-20.67 -0.078,-30.556 3.351,-10.429 11.701,-18.806 21.738,-22.984 9.386,-3.915 19.518,-5.633 29.518,-7.183 11.909,-1.987 24.351,-1.706 35.739,-6.144 4.49,-1.745 8.975,-5.303 9.116,-10.524 0.442,-6.132 -0.704,-13.031 -5.725,-17.137 -6.075,-5.04 -14.48,-5.019 -21.961,-5.074 -8.269,0.143 -17.755,2.711 -22.048,10.444 -2.059,3.622 -2.978,7.772 -3.372,11.886 h -40.6 l 0.084,-0.195 z m 93.7,30 c -5.192,4.353 -12.251,5.183 -18.676,6.416 -10.145,1.549 -20.907,2.011 -30.049,7.152 -5.878,3.317 -9.378,10.009 -9.005,16.722 -0.316,6.522 3.102,13.29 9.217,15.992 7.435,3.337 15.94,3.233 23.884,2.297 10.052,-1.12 19.144,-8.276 22.354,-17.909 3.104,-9.169 2.104,-18.962 2.285,-28.476 -0.004,-0.677 0.009,-1.754 -0.01,-2.194 z"
         id="path4" /><path
         d="m 898.05,145.39 h 38.6 v 20.6 h 0.85 c 13.365,-22.284 36.291,-24.56 45.1,-24.56 7.312,0 30.388,0.051 43.098,16.73 9.33,12.601 10.73,28.925 10.86,44.1 v 90.9 H 995.96 v -83.4 c 0,-30.451 -11.466,-36.3 -26.01,-36.3 -23.213,0 -31.43,14.094 -31.43,42.26 v 77.4 h -40.6 v -148 z"
         id="path5" /></g><path
       d="m 510.05,120.39 v 173 h 40.6 v -151 c -13,-7.98 -26.6,-15.5 -40.6,-22.4 z"
       id="path6" /><path
       d="m 96.052,127.39 c 23.5,-68.9 164,-94.2 314,-56.4 90,22.6 163,66.5 212,110 -21.8,-57.6 -127,-140 -273,-168 -164,-31.8 -327,-3.85 -347,69.1 -14.5,52.7 49.2,114 148,157 -44.2,-35.8 -65.8,-76.1 -53.6,-112 z"
       id="path7" /><path
       d="m 622.05,156.39 v -66.6 h -40.6 v 20.2 c 17.3,15.5 31,31.2 40.6,46.4 z"
       id="path8" /><path
       d="m 1113,271.39 c 0,12.3 -9.63,21.9 -22.2,21.9 -12.4,0 -22.3,-9.63 -22.3,-21.9 0,-12 9.89,-21.6 22.3,-21.6 12.5,0 22.2,9.63 22.2,21.6 z m -38.9,0 c 0,9.63 7.12,17.3 16.9,17.3 9.49,0 16.5,-7.65 16.5,-17.1 0,-9.63 -6.99,-17.4 -16.6,-17.4 -9.62,0.01 -16.7,7.79 -16.7,17.3 z m 13.3,11.3 h -5.01 v -21.6 c 1.98,-0.4 4.75,-0.66 8.31,-0.66 4.09,0 5.93,0.66 7.52,1.58 1.19,0.92 2.11,2.64 2.11,4.75 0,2.37 -1.85,4.22 -4.48,5.01 v 0.26 c 2.11,0.79 3.3,2.37 3.96,5.27 0.66,3.3 1.05,4.62 1.58,5.41 h -5.41 c -0.66,-0.79 -1.05,-2.77 -1.71,-5.27 -0.4,-2.37 -1.71,-3.43 -4.48,-3.43 h -2.37 v 8.71 z m 0.14,-12.3 h 2.37 c 2.77,0 5.01,-0.92 5.01,-3.17 0,-1.98 -1.45,-3.3 -4.62,-3.3 -1.32,0 -2.24,0.13 -2.77,0.26 v 6.21 z"
       id="path9" /></g></svg>
