<?xml version="1.0" encoding="UTF-8" standalone="no"?>
<!-- Created with Inkscape (http://www.inkscape.org/) -->

<svg
   width="50.000008mm"
   height="50.000008mm"
   viewBox="0 0 50.000008 50.000008"
   version="1.1"
   id="svg1"
   xml:space="preserve"
   sodipodi:docname="Solidity_Box.svg"
   inkscape:version="1.4.3 (0d15f75, 2025-12-25)"
   inkscape:export-filename="Vyper_Box.svg"
   inkscape:export-xdpi="96"
   inkscape:export-ydpi="96"
   xmlns:inkscape="http://www.inkscape.org/namespaces/inkscape"
   xmlns:sodipodi="http://sodipodi.sourceforge.net/DTD/sodipodi-0.dtd"
   xmlns:xlink="http://www.w3.org/1999/xlink"
   xmlns="http://www.w3.org/2000/svg"
   xmlns:svg="http://www.w3.org/2000/svg"><sodipodi:namedview
     id="namedview1"
     pagecolor="#505050"
     bordercolor="#ffffff"
     borderopacity="1"
     inkscape:showpageshadow="0"
     inkscape:pageopacity="0"
     inkscape:pagecheckerboard="1"
     inkscape:deskcolor="#505050"
     inkscape:document-units="mm"
     inkscape:zoom="4.0000001"
     inkscape:cx="28.874999"
     inkscape:cy="91.874998"
     inkscape:window-width="2560"
     inkscape:window-height="1369"
     inkscape:window-x="-8"
     inkscape:window-y="-8"
     inkscape:window-maximized="1"
     inkscape:current-layer="layer1"><inkscape:page
       x="0"
       y="0"
       width="50.000008"
       height="50.000008"
       id="page1"
       margin="0"
       bleed="0" /></sodipodi:namedview><defs
     id="defs1"><linearGradient
       id="linearGradient2"><stop
         style="stop-color:#b892f5;stop-opacity:1;"
         offset="0"
         id="stop4" /><stop
         style="stop-color:#701eb5;stop-opacity:1;"
         offset="1"
         id="stop6" /></linearGradient><filter
       style="color-interpolation-filters:sRGB"
       id="filter1"
       x="-0.06882552"
       y="-0.06882552"
       width="1.137651"
       height="1.137651"><feGaussianBlur
         stdDeviation="0.9600145"
         id="feGaussianBlur1" /></filter><radialGradient
       inkscape:collect="always"
       xlink:href="#linearGradient2"
       id="radialGradient3"
       cx="0.49261644"
       cy="0.37367609"
       fx="0.49261644"
       fy="0.37367609"
       r="24.509804"
       gradientUnits="userSpaceOnUse"
       gradientTransform="matrix(1.995122,0,0,1.995122,-0.49021345,-0.37185329)" /><clipPath
       clipPathUnits="userSpaceOnUse"
       id="clipPath29"><use
         x="0"
         y="0"
         xlink:href="#g28"
         id="use29" /></clipPath><filter
       inkscape:collect="always"
       style="color-interpolation-filters:sRGB"
       id="filter3"
       x="-0.050665118"
       y="-0.045601249"
       width="1.1013302"
       height="1.0912025"><feGaussianBlur
         inkscape:collect="always"
         stdDeviation="7.1251107"
         id="feGaussianBlur3" /></filter><radialGradient
       inkscape:collect="always"
       xlink:href="#linearGradient2"
       id="radialGradient1"
       gradientUnits="userSpaceOnUse"
       gradientTransform="matrix(1.995122,0,0,1.995122,-0.49021345,-0.37185329)"
       cx="0.49261644"
       cy="0.37367609"
       fx="0.49261644"
       fy="0.37367609"
       r="24.509804" /></defs><g
     id="layer1"
     inkscape:label="Vyper"><rect
       style="font-variation-settings:normal;display:inline;fill:url(#radialGradient1);fill-opacity:1;stroke:none;stroke-width:0.980392;stroke-linecap:butt;stroke-linejoin:miter;stroke-miterlimit:4;stroke-dasharray:none;stroke-dashoffset:0;stroke-opacity:1;stop-color:#000000"
       id="rect1-18"
       width="49.019608"
       height="49.019608"
       x="0.49019623"
       y="0.3712548"
       rx="7.0571675"
       ry="7.0571675"
       inkscape:label="Background" /><g
       id="g29"
       clip-path="url(#clipPath29)"
       style="display:inline"><g
         inkscape:label="Clip"
         id="g28"><rect
           style="font-variation-settings:normal;display:inline;fill:url(#radialGradient3);fill-opacity:1;stroke:none;stroke-width:0.980392;stroke-linecap:butt;stroke-linejoin:miter;stroke-miterlimit:4;stroke-dasharray:none;stroke-dashoffset:0;stroke-opacity:1;stop-color:#000000"
           id="rect26"
           width="49.019608"
           height="49.019608"
           x="0.49019623"
           y="0.3712548"
           rx="7.0571675"
           ry="7.0571675"
           inkscape:label="Background" /><rect
           style="font-variation-settings:normal;display:inline;fill:none;stroke:#000000;stroke-width:1.99928;stroke-linecap:butt;stroke-linejoin:miter;stroke-miterlimit:4;stroke-dasharray:none;stroke-dashoffset:0;stroke-opacity:1;filter:url(#filter1);stop-color:#000000"
           id="rect1"
           width="48.000725"
           height="48.000725"
           x="0.99963778"
           y="0.99963778"
           rx="6.9104829"
           ry="6.9104829"
           inkscape:label="Shadow" /></g></g><g
       style="fill:none"
       id="g1"
       transform="matrix(0.0953283,0,0,0.0953283,8.9126827,7.0905732)"
       inkscape:label="Icon"><g
         style="fill:none"
         id="g3"
         inkscape:label="Shadow"><path
           id="path1"
           d="m 281.17027,0.37351776 c -9.375,0 -18.75087,9.37279104 -18.75087,18.74544124 V 179.95137 c 0,7.217 -2.81451,13.68171 -7.50251,18.55571 l -37.78361,37.77277 c -7.312,7.311 -10.96646,16.87042 -10.96646,26.52442 v 18.74544 c 0,10.404 8.43786,18.74544 18.75086,18.74544 h 18.75086 c 9.563,0 19.21684,-3.65546 26.52984,-10.96646 l 56.25259,-56.23632 c 7.032,-7.029 10.97188,-16.58942 10.97188,-26.52442 V 19.118959 h 0.0922 c 0,-9.4663702 -9.28186,-18.74544124 -18.75086,-18.74544124 z M 18.750354,0.46567291 c -9.37541,0 -18.75086195678,9.37280109 -18.75086195678,18.74544109 V 206.66552 c 0,9.935 3.65849705678,19.49442 10.68999695678,26.52442 L 141.94552,364.40261 c 7.313,7.311 16.87284,10.96646 26.52984,10.96646 h 18.75087 c 10.407,0 18.75086,-8.43544 18.75086,-18.74544 v -18.64786 c 0,-9.654 -3.65347,-19.21442 -10.96647,-26.52442 v -0.0976 L 82.223567,198.60466 c -4.5939,-4.78 -7.128472,-11.24656 -7.128472,-18.46356 V 19.211114 c 0,-9.37264 -9.375462,-18.74544109 -18.750862,-18.74544109 z"
           style="fill:#000000;fill-opacity:1;stroke:none;filter:url(#filter3)" /></g><path
         d="M 195.008,311.356 82.2221,198.603 c -4.5939,-4.78 -7.1253,-11.247 -7.1253,-18.464 V 19.2101 C 75.0968,9.83746 65.7215,0.464804 56.3461,0.464804 H 18.7508 C 9.37539,0.464804 0,9.83746 0,19.2101 V 206.663 c 0,9.935 3.6564,19.495 10.6879,26.525 L 141.943,364.405 c 7.313,7.311 16.876,10.966 26.533,10.966 h 18.75 c 10.407,0 18.751,-8.435 18.751,-18.745 v -18.652 c 0,-9.654 -3.656,-19.214 -10.969,-26.524 z"
         fill="#9f4cf2"
         id="path1-0" /><path
         d="m 337.514,19.1164 c 0,-9.46637 -9.281,-18.745306 -18.75,-18.745306 h -37.596 c -9.375,0 -18.75,9.372656 -18.75,18.745306 V 179.951 c 0,7.217 -2.813,13.684 -7.501,18.558 l -37.783,37.772 c -7.312,7.311 -10.969,16.871 -10.969,26.525 v 18.745 c 0,10.404 8.438,18.745 18.751,18.745 h 18.751 c 9.563,0 19.219,-3.655 26.532,-10.966 l 56.252,-56.236 c 7.032,-7.029 10.97,-16.589 10.97,-26.524 V 19.1164 Z"
         fill="#9f4cf2"
         id="path2" /></g><rect
       style="font-variation-settings:normal;display:inline;fill:none;stroke:#9f4cf2;stroke-width:1.99928;stroke-linecap:butt;stroke-linejoin:miter;stroke-miterlimit:4;stroke-dasharray:none;stroke-dashoffset:0;stroke-opacity:1;stop-color:#000000"
       id="rect1-18-1"
       width="48.000725"
       height="48.000725"
       x="0.99963778"
       y="0.99963778"
       rx="6.9104829"
       ry="6.9104829"
       inkscape:label="Border" /></g><style
     type="text/css"
     id="style1">
	.st0{fill:url(#ICON_00000088831890668800157600000002638584723837204667_);}
</style><style
     id="style1-7">.st10{fill:#333}</style><style
     type="text/css"
     id="style1-1">
	.st0{fill:url(#ICON_00000088831890668800157600000002638584723837204667_);}
</style><style
     id="style1-7-2">.st10{fill:#333}</style></svg>
