<?xml version="1.0" encoding="UTF-8" standalone="no"?>
<svg
   height="50"
   width="50"
   version="1.1"
   id="svg83"
   sodipodi:docname="Windows_Box.svg"
   inkscape:export-filename="Bash_Box.svg"
   inkscape:export-xdpi="96"
   inkscape:export-ydpi="96"
   inkscape:version="1.2.2 (b0a8486541, 2022-12-01)"
   xml:space="preserve"
   xmlns:inkscape="http://www.inkscape.org/namespaces/inkscape"
   xmlns:sodipodi="http://sodipodi.sourceforge.net/DTD/sodipodi-0.dtd"
   xmlns:xlink="http://www.w3.org/1999/xlink"
   xmlns="http://www.w3.org/2000/svg"
   xmlns:svg="http://www.w3.org/2000/svg"><defs
     id="defs87"><linearGradient
       id="linearGradient849"
       gradientTransform="rotate(-90,48.000087,47.999896)"
       gradientUnits="userSpaceOnUse"
       x1="18.000002"
       x2="78.000175"
       y1="47.999897"
       y2="47.999897"><stop
         offset="0"
         stop-color="#bababa"
         id="stop845"
         style="stop-color:#a7a7a7;stop-opacity:1;" /><stop
         offset="1"
         stop-color="#d2d2d2"
         id="stop847"
         style="stop-color:#818181;stop-opacity:1;" /></linearGradient><style
       id="style1502">.cls-1{fill:#1b1b1f;}</style><linearGradient
       inkscape:collect="always"
       xlink:href="#linearGradient849"
       id="linearGradient1730"
       gradientUnits="userSpaceOnUse"
       x1="1.6162218e-09"
       y1="10.699979"
       x2="24"
       y2="10.699979"
       gradientTransform="matrix(2.3873731,0,0,2.3873731,19.351403,22.455723)" /><clipPath
       clipPathUnits="userSpaceOnUse"
       id="clipPath1749"><path
         id="path1751"
         style="fill:url(#linearGradient1753);fill-opacity:1;stroke-width:2.38738"
         d="m 41.391563,22.45875 c -0.486939,0.01164 -0.97951,0.04464 -1.476562,0.09844 -2.957164,0.31959 -5.763853,1.188936 -8.511563,2.290312 -0.24606,0.099 -0.312309,0.273405 -0.374062,0.488907 -1.586811,5.495102 -3.175975,10.990533 -4.764376,16.485 -0.215818,0.747726 -0.428188,1.494694 -0.672655,2.349375 2.063329,-0.846086 4.045843,-1.524894 6.103124,-1.975313 2.887453,-0.632178 5.775245,-0.782963 8.669063,-0.03938 2.293473,0.589523 4.344499,1.696046 6.286876,3.015469 0.325645,0.222503 0.406952,0.165665 0.505311,-0.187031 0.442144,-1.585217 0.911497,-3.164881 1.368282,-4.744688 1.309554,-4.531558 2.615115,-9.06288 3.934219,-13.590937 0.092,-0.311314 0.05321,-0.485438 -0.232969,-0.649688 -0.448827,-0.256241 -0.873543,-0.554807 -1.3125,-0.830152 -2.949606,-1.848027 -6.113615,-2.791777 -9.522188,-2.710312 z m 14.060157,5.840626 c -0.09882,0.01394 -0.103404,0.188324 -0.196876,0.511874 -1.702995,5.868808 -3.394599,11.740708 -5.0925,17.610469 -0.278527,0.962273 -0.280019,0.957294 0.567657,1.515939 2.998862,1.969426 6.219543,3.250296 9.869999,3.225467 0.595571,-0.03247 1.189651,-0.04506 1.78172,-0.101724 2.992179,-0.285529 5.831631,-1.156416 8.606719,-2.267343 0.254337,-0.101858 0.398121,-0.236851 0.475783,-0.511875 1.690896,-5.888543 3.393104,-11.774329 5.095781,-17.659688 0.07132,-0.244786 0.178596,-0.485315 -0.0525,-0.698905 -0.236509,-0.218684 -0.472356,-0.07177 -0.702188,0.01646 -1.594448,0.615943 -3.217262,1.141597 -4.88906,1.515937 -2.658584,0.594934 -5.332025,0.781526 -8.025938,0.23625 -2.55163,-0.516946 -4.807319,-1.69556 -6.946409,-3.127031 -0.282567,-0.189398 -0.415324,-0.276642 -0.492186,-0.265781 z M 35.107969,44.945157 c -0.460288,0.0059 -0.925611,0.02901 -1.394531,0.07219 -3.041518,0.281392 -5.925518,1.162713 -8.744531,2.296876 -0.246379,0.09868 -0.36743,0.240838 -0.439688,0.485624 -1.694401,5.871032 -3.39428,11.740388 -5.0925,17.610471 -0.06908,0.238736 -0.179283,0.49062 0.07219,0.695624 0.224731,0.184064 0.446993,0.06308 0.662812,-0.01969 1.64156,-0.631223 3.308283,-1.1725 5.026876,-1.548751 2.74389,-0.601298 5.491997,-0.772315 8.255624,-0.141087 2.440536,0.5561 4.608235,1.702001 6.654376,3.097502 0.357151,0.243832 0.475786,0.235104 0.60375,-0.206721 1.474124,-5.151957 2.967488,-10.300942 4.455937,-15.448124 0.282983,-0.978504 0.566592,-1.956966 0.872812,-3.012188 0.07513,-0.158844 -0.117784,-0.23539 -0.255937,-0.324843 -0.542414,-0.346646 -1.085284,-0.693756 -1.634063,-1.027033 -2.811731,-1.7057 -5.821105,-2.571522 -9.043125,-2.529843 z m 13.873125,5.847187 c -0.08363,0.0267 -0.126184,0.16123 -0.206717,0.436406 -0.505171,1.745014 -1.008763,3.493555 -1.512657,5.240156 -1.240799,4.290914 -2.475779,8.5843 -3.72422,12.872345 -0.09072,0.305266 -0.06431,0.480972 0.223126,0.649688 0.581884,0.340598 1.138667,0.725684 1.716094,1.072969 3.490662,2.10311 7.248475,2.866759 11.29078,2.300157 2.612109,-0.36702 5.101983,-1.142748 7.550158,-2.086878 0.390575,-0.150561 0.595217,-0.358992 0.712031,-0.764529 1.42192,-4.972744 2.866426,-9.942667 4.301717,-14.910002 0.342828,-1.186048 0.684133,-2.369729 1.056564,-3.658593 -2.026723,0.820302 -3.982201,1.497909 -6.007969,1.945781 -3.04502,0.675159 -6.085867,0.817756 -9.125157,-0.04265 -2.107259,-0.597796 -3.996688,-1.637175 -5.811093,-2.834998 -0.252102,-0.16585 -0.379019,-0.246542 -0.462657,-0.219847 z" /></clipPath><linearGradient
       inkscape:collect="always"
       xlink:href="#h"
       id="linearGradient1753"
       gradientUnits="userSpaceOnUse"
       x1="1.6162218e-09"
       y1="10.699979"
       x2="24"
       y2="10.699979"
       gradientTransform="matrix(2.3873731,0,0,2.3873731,19.351524,22.45516)" /><clipPath
       clipPathUnits="userSpaceOnUse"
       id="clipPath970"><path
         id="path972"
         style="fill:url(#linearGradient974);fill-opacity:1;stroke-width:2.38738"
         d="m 41.391563,22.45875 c -0.486939,0.01164 -0.97951,0.04464 -1.476562,0.09844 -2.957164,0.31959 -5.763853,1.188936 -8.511563,2.290312 -0.24606,0.099 -0.312309,0.273405 -0.374062,0.488907 -1.586811,5.495102 -3.175975,10.990533 -4.764376,16.485 -0.215818,0.747726 -0.428188,1.494694 -0.672655,2.349375 2.063329,-0.846086 4.045843,-1.524894 6.103124,-1.975313 2.887453,-0.632178 5.775245,-0.782963 8.669063,-0.03938 2.293473,0.589523 4.344499,1.696046 6.286876,3.015469 0.325645,0.222503 0.406952,0.165665 0.505311,-0.187031 0.442144,-1.585217 0.911497,-3.164881 1.368282,-4.744688 1.309554,-4.531558 2.615115,-9.06288 3.934219,-13.590937 0.09198,-0.311314 0.05319,-0.485438 -0.23296,-0.649688 -0.448836,-0.256241 -0.873552,-0.554807 -1.312509,-0.830152 -2.949606,-1.848027 -6.113615,-2.791777 -9.522188,-2.710312 z m 14.060157,5.840626 c -0.09882,0.01394 -0.103421,0.188324 -0.196886,0.511874 -1.702994,5.868808 -3.394599,11.740708 -5.092498,17.610469 -0.278527,0.962273 -0.280021,0.957294 0.567655,1.515939 2.998862,1.969426 6.219543,3.250296 9.87,3.225467 0.59557,-0.03247 1.189652,-0.04507 1.781721,-0.101724 2.992177,-0.285529 5.831631,-1.156417 8.606717,-2.267343 0.254337,-0.101875 0.398121,-0.236851 0.475783,-0.511877 1.690898,-5.888541 3.393104,-11.774327 5.095781,-17.659686 0.07132,-0.244786 0.178599,-0.485315 -0.0525,-0.698907 -0.236517,-0.218682 -0.472356,-0.07177 -0.702188,0.01646 -1.594441,0.615955 -3.217256,1.141609 -4.889054,1.51595 -2.658583,0.594933 -5.332024,0.781525 -8.025938,0.23625 C 60.338684,31.175305 58.082995,29.996691 55.943905,28.565221 55.661337,28.375822 55.52858,28.288578 55.451719,28.29944 Z M 35.107969,44.945157 c -0.460288,0.0059 -0.925611,0.02901 -1.394531,0.07219 -3.041518,0.281392 -5.925518,1.162713 -8.744531,2.296876 -0.246379,0.09867 -0.36743,0.240838 -0.439688,0.485624 -1.694401,5.871032 -3.39428,11.740388 -5.0925,17.610471 -0.06908,0.238736 -0.179283,0.49062 0.07219,0.695624 0.224731,0.184067 0.446993,0.06308 0.662812,-0.01957 1.64156,-0.631225 3.308283,-1.172501 5.026876,-1.548752 2.74389,-0.601297 5.491997,-0.772314 8.255624,-0.141086 2.440536,0.5561 4.608235,1.702001 6.654376,3.097501 0.357151,0.243832 0.475786,0.23511 0.60375,-0.206722 1.474124,-5.151958 2.967488,-10.300942 4.455937,-15.448126 0.282983,-0.978502 0.566592,-1.956964 0.872812,-3.012186 0.07513,-0.158827 -0.117784,-0.235395 -0.255937,-0.324843 -0.542414,-0.346646 -1.085284,-0.693756 -1.634063,-1.027034 -2.811731,-1.70581 -5.821105,-2.571632 -9.043125,-2.529953 z m 13.873125,5.847187 c -0.08363,0.0267 -0.126168,0.161213 -0.206722,0.436406 -0.505171,1.745014 -1.008763,3.493555 -1.512657,5.240156 -1.240799,4.290914 -2.475779,8.5843 -3.72422,12.872345 -0.09072,0.305266 -0.06431,0.480972 0.223124,0.649688 0.581883,0.340598 1.138667,0.725684 1.716093,1.072969 3.490662,2.10311 7.248476,2.866759 11.290781,2.300157 2.612108,-0.36702 5.101983,-1.142748 7.550158,-2.086878 0.390573,-0.150561 0.595218,-0.358992 0.712031,-0.764529 1.42192,-4.972744 2.866426,-9.942667 4.301718,-14.910002 0.342825,-1.186048 0.684133,-2.369729 1.056562,-3.658593 -2.026722,0.820302 -3.9822,1.497909 -6.007968,1.945781 -3.04502,0.675159 -6.085867,0.817756 -9.125158,-0.04265 -2.107258,-0.597796 -3.996686,-1.637175 -5.811093,-2.834998 -0.252101,-0.16585 -0.379018,-0.246542 -0.462655,-0.219853 z" /></clipPath><linearGradient
       inkscape:collect="always"
       xlink:href="#linearGradient849"
       id="linearGradient974"
       gradientUnits="userSpaceOnUse"
       x1="1.6162218e-09"
       y1="10.699979"
       x2="24"
       y2="10.699979"
       gradientTransform="matrix(2.3873731,0,0,2.3873731,19.351524,22.45516)" /><filter
       inkscape:collect="always"
       style="color-interpolation-filters:sRGB"
       id="filter976"
       x="-0.025422951"
       y="-0.028785647"
       width="1.0508459"
       height="1.0575713"><feGaussianBlur
         inkscape:collect="always"
         stdDeviation="0.94260058"
         id="feGaussianBlur978" /></filter></defs><sodipodi:namedview
     id="namedview85"
     pagecolor="#ffffff"
     bordercolor="#000000"
     borderopacity="0.25"
     inkscape:showpageshadow="2"
     inkscape:pageopacity="0.0"
     inkscape:pagecheckerboard="0"
     inkscape:deskcolor="#d1d1d1"
     showgrid="false"
     inkscape:zoom="14.934095"
     inkscape:cx="12.387761"
     inkscape:cy="26.349103"
     inkscape:window-width="2560"
     inkscape:window-height="1369"
     inkscape:window-x="0"
     inkscape:window-y="0"
     inkscape:window-maximized="1"
     inkscape:current-layer="g79" /><linearGradient
     id="a"
     gradientUnits="userSpaceOnUse"
     x1="48"
     x2="48"
     y1="90"
     y2="5.9877172"><stop
       offset="0"
       stop-color="#ebebeb"
       id="stop2"
       style="stop-color:#585858;stop-opacity:1;" /><stop
       offset="1"
       stop-color="#fafafa"
       id="stop4"
       style="stop-color:#818181;stop-opacity:1;" /></linearGradient><linearGradient
     id="b"
     gradientTransform="matrix(1.0058652,0,0,0.994169,100,0)"
     gradientUnits="userSpaceOnUse"
     x1="45.447727"
     x2="45.447727"
     y1="92.539597"
     y2="7.0165401"><stop
       offset="0"
       id="stop7" /><stop
       offset="1"
       stop-opacity=".588235"
       id="stop9" /></linearGradient><linearGradient
     id="c"
     gradientTransform="matrix(1.0238095,0,0,1.0119048,-1.142857,-98.071429)"
     gradientUnits="userSpaceOnUse"
     x1="32.251034"
     x2="32.251034"
     xlink:href="#b"
     y1="6.1317081"
     y2="90.238609" /><linearGradient
     id="d"
     gradientTransform="translate(0,-97)"
     gradientUnits="userSpaceOnUse"
     x1="32.251034"
     x2="32.251034"
     xlink:href="#b"
     y1="6.1317081"
     y2="90.238609" /><linearGradient
     id="e"><stop
       offset="0"
       stop-color="#fff"
       id="stop14" /><stop
       offset="1"
       stop-color="#fff"
       stop-opacity="0"
       id="stop16" /></linearGradient><radialGradient
     id="f"
     cx="48"
     cy="90.171875"
     gradientTransform="matrix(1.1573129,0,0,0.99590774,-7.551021,0.197132)"
     gradientUnits="userSpaceOnUse"
     r="42"
     xlink:href="#e" /><linearGradient
     id="g"
     gradientUnits="userSpaceOnUse"
     x1="36.357143"
     x2="36.357143"
     xlink:href="#e"
     y1="6"
     y2="63.893143"
     gradientTransform="matrix(0.91995739,0,0,0.98668795,0.48025569,1.1935087)" /><linearGradient
     id="h"
     gradientTransform="rotate(-90,48.000087,47.999896)"
     gradientUnits="userSpaceOnUse"
     x1="18.000002"
     x2="78.000175"
     y1="47.999897"
     y2="47.999897"><stop
       offset="0"
       stop-color="#bababa"
       id="stop21"
       style="stop-color:#818181;stop-opacity:1;" /><stop
       offset="1"
       stop-color="#d2d2d2"
       id="stop23"
       style="stop-color:#a7a7a7;stop-opacity:1;" /></linearGradient><clipPath
     id="i"><path
       d="m -88,6 c -3.324,0 -6,2.676 -6,6 v 72 c 0,3.324 2.676,6 6,6 h 72 c 3.324,0 6,-2.676 6,-6 V 12 c 0,-3.324 -2.676,-6 -6,-6 z m 31.84375,12 h 8.3125 c 1.180648,0 2.125,0.986683 2.125,2.1875 v 4.21875 c 2.111082,0.562476 4.123141,1.426616 5.96875,2.5 l 3,-3.03125 c 0.849111,-0.849025 2.196406,-0.866085 3.03125,-0.03125 l 5.875,5.875 c 0.834848,0.834847 0.817863,2.18214 -0.03125,3.03125 l -3.03125,3 c 1.073391,1.845617 1.937528,3.857672 2.5,5.96875 h 4.21875 c 1.200827,0 2.1875,0.944356 2.1875,2.125 v 8.3125 c 0,1.180653 -0.986672,2.125 -2.1875,2.125 h -4.21875 c -0.562472,2.111079 -1.426609,4.123134 -2.5,5.96875 l 3.03125,3 c 0.849106,0.849111 0.866094,2.196416 0.03125,3.03125 l -5.875,5.875 c -0.834844,0.834921 -2.182138,0.81786 -3.03125,-0.03125 l -3,-3.03125 c -1.84561,1.073389 -3.857669,1.937515 -5.96875,2.5 v 4.21875 c 0,1.200828 -0.944354,2.1875 -2.125,2.1875 h -8.3125 c -1.180646,0 -2.125,-0.986673 -2.125,-2.1875 v -4.21875 c -2.111081,-0.562485 -4.123141,-1.426613 -5.96875,-2.5 l -3,3.03125 c -0.849114,0.849022 -2.196407,0.866084 -3.03125,0.03125 l -5.875,-5.875 c -0.417421,-0.417418 -0.6298,-0.981833 -0.625,-1.53125 0.0047,-0.549422 0.231693,-1.075441 0.65625,-1.5 l 3.03125,-3 c -1.073391,-1.845614 -1.937528,-3.857673 -2.5,-5.96875 h -4.21875 c -1.200828,0 -2.1875,-0.944347 -2.1875,-2.125 v -8.3125 c 0,-1.180643 0.986672,-2.125 2.1875,-2.125 h 4.21875 c 0.562472,-2.111076 1.426609,-4.123135 2.5,-5.96875 l -3.03125,-3 c -0.849107,-0.84911 -0.866093,-2.196403 -0.03125,-3.03125 l 5.875,-5.875 c 0.834843,-0.834932 2.182137,-0.817858 3.03125,0.03125 l 3,3.03125 c 1.845609,-1.073383 3.85767,-1.937533 5.96875,-2.5 V 20.1875 c 0,-1.200817 0.944355,-2.1875 2.125,-2.1875 z M -52,38.9375 c -5.006511,0 -9.0625,4.055982 -9.0625,9.0625 0,5.006505 4.055989,9.0625 9.0625,9.0625 5.00651,0 9.0625,-4.055995 9.0625,-9.0625 0,-5.00652 -4.05599,-9.0625 -9.0625,-9.0625 z"
       id="path26" /></clipPath><filter
     id="j"
     color-interpolation-filters="sRGB"
     height="1.3213328"
     width="1.3213336"
     x="-0.16066687"
     y="-0.16066641"><feGaussianBlur
       stdDeviation="3.6000051"
       id="feGaussianBlur29" /></filter><clipPath
     id="k"><rect
       height="84"
       rx="6"
       width="84"
       x="6"
       y="6"
       id="rect32" /></clipPath><filter
     id="l"
     color-interpolation-filters="sRGB"
     height="1.3915758"
     width="1.3915758"
     x="-0.19578789"
     y="-0.19578789"><feGaussianBlur
       stdDeviation="5.28"
       id="feGaussianBlur35" /></filter><linearGradient
     id="m"
     gradientUnits="userSpaceOnUse"
     x1="48"
     x2="48"
     xlink:href="#e"
     y1="20.220806"
     y2="138.66119" /><g
     id="g79"
     transform="matrix(0.5952381,0,0,0.5952381,-3.5714286,-3.5714286)"><rect
       fill="url(#a)"
       height="84"
       rx="10.709455"
       width="84"
       x="6"
       y="6"
       id="rect53"
       style="fill:url(#a)"
       ry="10.709455" /><path
       id="path1701"
       style="fill:url(#linearGradient1730);fill-opacity:1;stroke-width:2.38737"
       d="m 41.391443,22.459313 c -0.486939,0.01164 -0.979511,0.04464 -1.476563,0.09844 -2.957163,0.31959 -5.763852,1.188937 -8.511563,2.290313 -0.246059,0.099 -0.312308,0.273405 -0.374062,0.488906 -1.58681,5.495103 -3.175974,10.990534 -4.764376,16.485001 -0.215818,0.747726 -0.428189,1.494694 -0.672656,2.349375 2.06333,-0.846086 4.045844,-1.524894 6.103125,-1.975313 2.887452,-0.632177 5.775245,-0.782963 8.669063,-0.03937 2.293473,0.589523 4.3445,1.696045 6.286876,3.015469 0.325645,0.222503 0.406952,0.165665 0.505311,-0.187031 0.442144,-1.585218 0.911497,-3.164882 1.368283,-4.744688 1.309553,-4.531558 2.615114,-9.062881 3.934219,-13.590938 0.09199,-0.311314 0.05319,-0.485436 -0.23296,-0.649688 -0.448836,-0.256244 -0.873552,-0.554811 -1.312509,-0.830156 -2.949606,-1.848028 -6.113616,-2.791777 -9.522188,-2.710312 z M 55.4516,28.299938 c -0.09881,0.01397 -0.103421,0.188326 -0.196886,0.511875 -1.702995,5.868807 -3.394599,11.740708 -5.092499,17.610469 -0.278528,0.962274 -0.28002,0.957294 0.567655,1.515939 2.998863,1.969425 6.219544,3.250296 9.87,3.225468 0.595571,-0.03247 1.189652,-0.04507 1.78172,-0.101726 2.992179,-0.28553 5.831632,-1.156417 8.606719,-2.267343 0.254337,-0.10187 0.398121,-0.236852 0.475782,-0.511877 1.690898,-5.888542 3.393104,-11.774328 5.095781,-17.659687 0.07131,-0.244786 0.1786,-0.485315 -0.0525,-0.698906 -0.236517,-0.218684 -0.472356,-0.07177 -0.702189,0.0164 -1.59444,0.615955 -3.217255,1.141609 -4.889053,1.51595 -2.658584,0.594933 -5.332024,0.781526 -8.025938,0.23625 C 60.338565,31.175804 58.082877,29.99719 55.943786,28.565719 55.661219,28.376321 55.528462,28.289078 55.4516,28.299938 Z M 35.107849,44.94572 c -0.460289,0.0059 -0.925611,0.02902 -1.394532,0.07219 -3.041517,0.281392 -5.925517,1.162713 -8.744531,2.296876 -0.246378,0.09867 -0.367429,0.240838 -0.439688,0.485625 -1.6944,5.871032 -3.39428,11.740387 -5.0925,17.610469 -0.06908,0.238738 -0.179283,0.490622 0.07219,0.695626 0.224731,0.184066 0.446993,0.06307 0.662812,-0.01958 1.64156,-0.631223 3.308283,-1.172501 5.026875,-1.548751 2.743891,-0.601298 5.491999,-0.772315 8.255626,-0.141093 2.440535,0.5561 4.608234,1.702001 6.654375,3.097502 0.357151,0.243832 0.475787,0.235108 0.60375,-0.206723 1.474125,-5.151958 2.967488,-10.300942 4.455938,-15.448125 0.282983,-0.978504 0.566591,-1.956966 0.872812,-3.012187 0.07513,-0.158832 -0.117793,-0.235395 -0.255938,-0.324843 -0.542414,-0.346647 -1.085283,-0.693756 -1.634062,-1.027034 -2.811733,-1.70581 -5.821105,-2.571631 -9.043125,-2.529952 z m 13.873125,5.847188 c -0.08363,0.02669 -0.126173,0.16122 -0.206723,0.436405 -0.50517,1.745014 -1.008763,3.493555 -1.512656,5.240157 -1.240799,4.290912 -2.47578,8.584299 -3.724221,12.872344 -0.09072,0.305266 -0.06432,0.480972 0.223124,0.649687 0.581884,0.3406 1.138667,0.725685 1.716094,1.072969 3.490662,2.103111 7.248475,2.86676 11.29078,2.300158 2.612109,-0.36702 5.101984,-1.142747 7.550158,-2.086877 0.390575,-0.150571 0.595218,-0.358994 0.712032,-0.76453 1.421919,-4.972745 2.866426,-9.942666 4.301717,-14.910002 0.342827,-1.186047 0.684133,-2.369728 1.056563,-3.658592 -2.026722,0.820302 -3.982201,1.497907 -6.007968,1.945781 -3.04502,0.675159 -6.085867,0.817754 -9.125158,-0.04266 -2.107258,-0.597795 -3.996687,-1.637174 -5.811093,-2.834998 -0.252102,-0.165851 -0.379019,-0.246542 -0.462656,-0.219853 z" /><path
       id="rect903"
       style="mix-blend-mode:normal;fill:#000000;stroke-width:2.688;filter:url(#filter976);stop-color:#000000"
       d="m 14.564062,7.394477 c -5.2062353,0 -9.3974995,4.191264 -9.3974995,9.3975 v 59.794218 c 0,5.206236 4.1912642,9.3975 9.3974995,9.3975 h 70.189219 c 5.206235,0 9.3975,-4.191264 9.3975,-9.3975 V 16.791977 c 0,-5.206236 -4.191265,-9.3975 -9.3975,-9.3975 z m 26.8275,16.166719 c 3.408569,-0.08146 6.572584,0.862286 9.522188,2.710312 0.438956,0.275344 0.863664,0.573912 1.3125,0.830157 0.28615,0.16425 0.324954,0.338373 0.232968,0.649687 -1.319103,4.528052 -2.624667,9.059384 -3.934218,13.590937 -0.456786,1.579805 -0.926138,3.159472 -1.368282,4.744688 -0.09836,0.352696 -0.179668,0.409534 -0.505312,0.187031 -1.942374,-1.319422 -3.993405,-2.425946 -6.286875,-3.015469 -2.893815,-0.743587 -5.781613,-0.592801 -8.669062,0.03937 -2.05728,0.450418 -4.039798,1.129228 -6.103125,1.975313 0.244467,-0.85468 0.456837,-1.601649 0.672656,-2.349375 1.588399,-5.494461 3.177567,-10.989902 4.764375,-16.485 0.06175,-0.2155 0.128003,-0.38991 0.374062,-0.488906 2.747709,-1.101375 5.554402,-1.970723 8.511563,-2.290313 0.497051,-0.0538 0.989624,-0.0868 1.476562,-0.09844 z m 14.060156,5.840625 c 0.07686,-0.01086 0.209621,0.07638 0.492188,0.265781 2.139089,1.431469 4.394779,2.610085 6.946406,3.127031 2.693912,0.545276 5.367357,0.358683 8.025937,-0.23625 1.671797,-0.37434 3.294624,-0.899982 4.889063,-1.515937 0.229832,-0.08817 0.465671,-0.23509 0.702187,-0.01641 0.231098,0.21359 0.123811,0.45412 0.0525,0.698906 -1.702675,5.885353 -3.404885,11.771151 -5.095781,17.659687 -0.07766,0.275025 -0.221445,0.410006 -0.475781,0.511875 -2.775085,1.110925 -5.614543,1.981814 -8.606719,2.267344 -0.592068,0.05665 -1.186148,0.06925 -1.781718,0.101719 -3.650453,0.02483 -6.87114,-1.256046 -9.87,-3.225469 -0.847675,-0.558645 -0.846184,-0.553665 -0.567657,-1.515938 1.697898,-5.869755 3.389508,-11.741667 5.0925,-17.610468 0.09347,-0.323549 0.09806,-0.497909 0.196875,-0.511875 z M 35.107969,46.047602 c 3.222017,-0.04168 6.231394,0.824035 9.043124,2.529844 0.548778,0.333277 1.09165,0.680385 1.634063,1.027031 0.138145,0.08945 0.331068,0.166012 0.255937,0.324844 -0.30622,1.05522 -0.58983,2.033685 -0.872812,3.012187 -1.488449,5.147179 -2.981814,10.296172 -4.455938,15.448125 -0.127962,0.441831 -0.246598,0.45055 -0.60375,0.206719 -2.046138,-1.3955 -4.213842,-2.5414 -6.654374,-3.0975 -2.763624,-0.631221 -5.511737,-0.460204 -8.255625,0.141094 -1.718591,0.376249 -3.385317,0.917526 -5.026875,1.54875 -0.215819,0.08265 -0.438081,0.203753 -0.662813,0.01969 -0.25147,-0.205004 -0.141262,-0.456888 -0.07219,-0.695625 1.698218,-5.870077 3.398101,-11.739442 5.0925,-17.610469 0.07226,-0.244786 0.19331,-0.386955 0.439687,-0.485625 2.819011,-1.134161 5.703017,-2.015483 8.744531,-2.296875 0.46892,-0.04317 0.934243,-0.06624 1.394532,-0.07219 z m 13.873124,5.847187 c 0.08364,-0.02669 0.210555,0.05399 0.462657,0.219844 1.814404,1.197823 3.703838,2.237205 5.811093,2.835 3.039288,0.860416 6.080139,0.717814 9.125157,0.04266 2.025765,-0.447873 3.981248,-1.12548 6.007968,-1.945781 -0.37243,1.288863 -0.713736,2.472548 -1.056562,3.658594 -1.43529,4.96733 -2.879801,9.937259 -4.301719,14.91 -0.116814,0.405535 -0.321457,0.61396 -0.712031,0.764531 -2.448172,0.944129 -4.938051,1.719855 -7.550156,2.086875 -4.042301,0.566602 -7.800123,-0.197047 -11.290782,-2.300156 -0.577426,-0.347284 -1.13421,-0.73237 -1.716093,-1.072969 -0.28744,-0.168716 -0.313845,-0.344422 -0.223125,-0.649688 1.248439,-4.28804 2.483421,-8.581436 3.724218,-12.872343 0.503893,-1.746601 1.007487,-3.495144 1.512657,-5.240156 0.08055,-0.275185 0.123089,-0.409716 0.206718,-0.436407 z"
       clip-path="url(#clipPath970)"
       transform="translate(-1.2143324e-4,5.6579244e-4)" /></g></svg>
