<?xml version="1.0" encoding="UTF-8" standalone="no"?>
<svg
   height="50"
   width="50"
   version="1.1"
   id="svg83"
   sodipodi:docname="DaVinci_Resolve_Box.svg"
   inkscape:export-filename="Bash_Box.svg"
   inkscape:export-xdpi="96"
   inkscape:export-ydpi="96"
   inkscape:version="1.2.2 (b0a8486541, 2022-12-01)"
   xml:space="preserve"
   xmlns:inkscape="http://www.inkscape.org/namespaces/inkscape"
   xmlns:sodipodi="http://sodipodi.sourceforge.net/DTD/sodipodi-0.dtd"
   xmlns:xlink="http://www.w3.org/1999/xlink"
   xmlns="http://www.w3.org/2000/svg"
   xmlns:svg="http://www.w3.org/2000/svg"><defs
     id="defs87"><style
       id="style1502">.cls-1{fill:#1b1b1f;}</style><linearGradient
       inkscape:collect="always"
       xlink:href="#h"
       id="linearGradient1730"
       gradientUnits="userSpaceOnUse"
       x1="1.6162218e-09"
       y1="10.699979"
       x2="24"
       y2="10.699979" /><clipPath
       clipPathUnits="userSpaceOnUse"
       id="clipPath1749"><path
         id="path1751"
         style="fill:url(#linearGradient1753);fill-opacity:1;stroke-width:2.38738"
         d="m 41.391563,22.45875 c -0.486939,0.01164 -0.97951,0.04464 -1.476562,0.09844 -2.957164,0.31959 -5.763853,1.188936 -8.511563,2.290312 -0.24606,0.099 -0.312309,0.273405 -0.374062,0.488907 -1.586811,5.495102 -3.175975,10.990533 -4.764376,16.485 -0.215818,0.747726 -0.428188,1.494694 -0.672655,2.349375 2.063329,-0.846086 4.045843,-1.524894 6.103124,-1.975313 2.887453,-0.632178 5.775245,-0.782963 8.669063,-0.03938 2.293473,0.589523 4.344499,1.696046 6.286876,3.015469 0.325645,0.222503 0.406952,0.165665 0.505311,-0.187031 0.442144,-1.585217 0.911497,-3.164881 1.368282,-4.744688 1.309554,-4.531558 2.615115,-9.06288 3.934219,-13.590937 0.092,-0.311314 0.05321,-0.485438 -0.232969,-0.649688 -0.448827,-0.256241 -0.873543,-0.554807 -1.3125,-0.830152 -2.949606,-1.848027 -6.113615,-2.791777 -9.522188,-2.710312 z m 14.060157,5.840626 c -0.09882,0.01394 -0.103404,0.188324 -0.196876,0.511874 -1.702995,5.868808 -3.394599,11.740708 -5.0925,17.610469 -0.278527,0.962273 -0.280019,0.957294 0.567657,1.515939 2.998862,1.969426 6.219543,3.250296 9.869999,3.225467 0.595571,-0.03247 1.189651,-0.04506 1.78172,-0.101724 2.992179,-0.285529 5.831631,-1.156416 8.606719,-2.267343 0.254337,-0.101858 0.398121,-0.236851 0.475783,-0.511875 1.690896,-5.888543 3.393104,-11.774329 5.095781,-17.659688 0.07132,-0.244786 0.178596,-0.485315 -0.0525,-0.698905 -0.236509,-0.218684 -0.472356,-0.07177 -0.702188,0.01646 -1.594448,0.615943 -3.217262,1.141597 -4.88906,1.515937 -2.658584,0.594934 -5.332025,0.781526 -8.025938,0.23625 -2.55163,-0.516946 -4.807319,-1.69556 -6.946409,-3.127031 -0.282567,-0.189398 -0.415324,-0.276642 -0.492186,-0.265781 z M 35.107969,44.945157 c -0.460288,0.0059 -0.925611,0.02901 -1.394531,0.07219 -3.041518,0.281392 -5.925518,1.162713 -8.744531,2.296876 -0.246379,0.09868 -0.36743,0.240838 -0.439688,0.485624 -1.694401,5.871032 -3.39428,11.740388 -5.0925,17.610471 -0.06908,0.238736 -0.179283,0.49062 0.07219,0.695624 0.224731,0.184064 0.446993,0.06308 0.662812,-0.01969 1.64156,-0.631223 3.308283,-1.1725 5.026876,-1.548751 2.74389,-0.601298 5.491997,-0.772315 8.255624,-0.141087 2.440536,0.5561 4.608235,1.702001 6.654376,3.097502 0.357151,0.243832 0.475786,0.235104 0.60375,-0.206721 1.474124,-5.151957 2.967488,-10.300942 4.455937,-15.448124 0.282983,-0.978504 0.566592,-1.956966 0.872812,-3.012188 0.07513,-0.158844 -0.117784,-0.23539 -0.255937,-0.324843 -0.542414,-0.346646 -1.085284,-0.693756 -1.634063,-1.027033 -2.811731,-1.7057 -5.821105,-2.571522 -9.043125,-2.529843 z m 13.873125,5.847187 c -0.08363,0.0267 -0.126184,0.16123 -0.206717,0.436406 -0.505171,1.745014 -1.008763,3.493555 -1.512657,5.240156 -1.240799,4.290914 -2.475779,8.5843 -3.72422,12.872345 -0.09072,0.305266 -0.06431,0.480972 0.223126,0.649688 0.581884,0.340598 1.138667,0.725684 1.716094,1.072969 3.490662,2.10311 7.248475,2.866759 11.29078,2.300157 2.612109,-0.36702 5.101983,-1.142748 7.550158,-2.086878 0.390575,-0.150561 0.595217,-0.358992 0.712031,-0.764529 1.42192,-4.972744 2.866426,-9.942667 4.301717,-14.910002 0.342828,-1.186048 0.684133,-2.369729 1.056564,-3.658593 -2.026723,0.820302 -3.982201,1.497909 -6.007969,1.945781 -3.04502,0.675159 -6.085867,0.817756 -9.125157,-0.04265 -2.107259,-0.597796 -3.996688,-1.637175 -5.811093,-2.834998 -0.252102,-0.16585 -0.379019,-0.246542 -0.462657,-0.219847 z" /></clipPath><linearGradient
       inkscape:collect="always"
       xlink:href="#h"
       id="linearGradient1753"
       gradientUnits="userSpaceOnUse"
       x1="1.6162218e-09"
       y1="10.699979"
       x2="24"
       y2="10.699979"
       gradientTransform="matrix(2.3873731,0,0,2.3873731,19.351524,22.45516)" /><filter
       inkscape:collect="always"
       style="color-interpolation-filters:sRGB"
       id="filter1755"
       x="-0.027631897"
       y="-0.026396357"
       width="1.0552638"
       height="1.0527927"><feGaussianBlur
         inkscape:collect="always"
         stdDeviation="0.76674198"
         id="feGaussianBlur1757" /></filter></defs><sodipodi:namedview
     id="namedview85"
     pagecolor="#ffffff"
     bordercolor="#000000"
     borderopacity="0.25"
     inkscape:showpageshadow="2"
     inkscape:pageopacity="0.0"
     inkscape:pagecheckerboard="0"
     inkscape:deskcolor="#d1d1d1"
     showgrid="false"
     inkscape:zoom="14.934095"
     inkscape:cx="14.530509"
     inkscape:cy="26.282142"
     inkscape:window-width="2560"
     inkscape:window-height="1369"
     inkscape:window-x="0"
     inkscape:window-y="0"
     inkscape:window-maximized="1"
     inkscape:current-layer="g79" /><linearGradient
     id="a"
     gradientUnits="userSpaceOnUse"
     x1="48"
     x2="48"
     y1="90"
     y2="5.9877172"><stop
       offset="0"
       stop-color="#ebebeb"
       id="stop2"
       style="stop-color:#585858;stop-opacity:1;" /><stop
       offset="1"
       stop-color="#fafafa"
       id="stop4"
       style="stop-color:#818181;stop-opacity:1;" /></linearGradient><linearGradient
     id="b"
     gradientTransform="matrix(1.0058652,0,0,0.994169,100,0)"
     gradientUnits="userSpaceOnUse"
     x1="45.447727"
     x2="45.447727"
     y1="92.539597"
     y2="7.0165401"><stop
       offset="0"
       id="stop7" /><stop
       offset="1"
       stop-opacity=".588235"
       id="stop9" /></linearGradient><linearGradient
     id="c"
     gradientTransform="matrix(1.0238095,0,0,1.0119048,-1.142857,-98.071429)"
     gradientUnits="userSpaceOnUse"
     x1="32.251034"
     x2="32.251034"
     xlink:href="#b"
     y1="6.1317081"
     y2="90.238609" /><linearGradient
     id="d"
     gradientTransform="translate(0,-97)"
     gradientUnits="userSpaceOnUse"
     x1="32.251034"
     x2="32.251034"
     xlink:href="#b"
     y1="6.1317081"
     y2="90.238609" /><linearGradient
     id="e"><stop
       offset="0"
       stop-color="#fff"
       id="stop14" /><stop
       offset="1"
       stop-color="#fff"
       stop-opacity="0"
       id="stop16" /></linearGradient><radialGradient
     id="f"
     cx="48"
     cy="90.171875"
     gradientTransform="matrix(1.1573129,0,0,0.99590774,-7.551021,0.197132)"
     gradientUnits="userSpaceOnUse"
     r="42"
     xlink:href="#e" /><linearGradient
     id="g"
     gradientUnits="userSpaceOnUse"
     x1="36.357143"
     x2="36.357143"
     xlink:href="#e"
     y1="6"
     y2="63.893143"
     gradientTransform="matrix(0.91995739,0,0,0.98668795,0.48025569,1.1935087)" /><linearGradient
     id="h"
     gradientTransform="rotate(-90,48.000087,47.999896)"
     gradientUnits="userSpaceOnUse"
     x1="18.000002"
     x2="78.000175"
     y1="47.999897"
     y2="47.999897"><stop
       offset="0"
       stop-color="#bababa"
       id="stop21"
       style="stop-color:#818181;stop-opacity:1;" /><stop
       offset="1"
       stop-color="#d2d2d2"
       id="stop23"
       style="stop-color:#a7a7a7;stop-opacity:1;" /></linearGradient><clipPath
     id="i"><path
       d="m -88,6 c -3.324,0 -6,2.676 -6,6 v 72 c 0,3.324 2.676,6 6,6 h 72 c 3.324,0 6,-2.676 6,-6 V 12 c 0,-3.324 -2.676,-6 -6,-6 z m 31.84375,12 h 8.3125 c 1.180648,0 2.125,0.986683 2.125,2.1875 v 4.21875 c 2.111082,0.562476 4.123141,1.426616 5.96875,2.5 l 3,-3.03125 c 0.849111,-0.849025 2.196406,-0.866085 3.03125,-0.03125 l 5.875,5.875 c 0.834848,0.834847 0.817863,2.18214 -0.03125,3.03125 l -3.03125,3 c 1.073391,1.845617 1.937528,3.857672 2.5,5.96875 h 4.21875 c 1.200827,0 2.1875,0.944356 2.1875,2.125 v 8.3125 c 0,1.180653 -0.986672,2.125 -2.1875,2.125 h -4.21875 c -0.562472,2.111079 -1.426609,4.123134 -2.5,5.96875 l 3.03125,3 c 0.849106,0.849111 0.866094,2.196416 0.03125,3.03125 l -5.875,5.875 c -0.834844,0.834921 -2.182138,0.81786 -3.03125,-0.03125 l -3,-3.03125 c -1.84561,1.073389 -3.857669,1.937515 -5.96875,2.5 v 4.21875 c 0,1.200828 -0.944354,2.1875 -2.125,2.1875 h -8.3125 c -1.180646,0 -2.125,-0.986673 -2.125,-2.1875 v -4.21875 c -2.111081,-0.562485 -4.123141,-1.426613 -5.96875,-2.5 l -3,3.03125 c -0.849114,0.849022 -2.196407,0.866084 -3.03125,0.03125 l -5.875,-5.875 c -0.417421,-0.417418 -0.6298,-0.981833 -0.625,-1.53125 0.0047,-0.549422 0.231693,-1.075441 0.65625,-1.5 l 3.03125,-3 c -1.073391,-1.845614 -1.937528,-3.857673 -2.5,-5.96875 h -4.21875 c -1.200828,0 -2.1875,-0.944347 -2.1875,-2.125 v -8.3125 c 0,-1.180643 0.986672,-2.125 2.1875,-2.125 h 4.21875 c 0.562472,-2.111076 1.426609,-4.123135 2.5,-5.96875 l -3.03125,-3 c -0.849107,-0.84911 -0.866093,-2.196403 -0.03125,-3.03125 l 5.875,-5.875 c 0.834843,-0.834932 2.182137,-0.817858 3.03125,0.03125 l 3,3.03125 c 1.845609,-1.073383 3.85767,-1.937533 5.96875,-2.5 V 20.1875 c 0,-1.200817 0.944355,-2.1875 2.125,-2.1875 z M -52,38.9375 c -5.006511,0 -9.0625,4.055982 -9.0625,9.0625 0,5.006505 4.055989,9.0625 9.0625,9.0625 5.00651,0 9.0625,-4.055995 9.0625,-9.0625 0,-5.00652 -4.05599,-9.0625 -9.0625,-9.0625 z"
       id="path26" /></clipPath><filter
     id="j"
     color-interpolation-filters="sRGB"
     height="1.3213328"
     width="1.3213336"
     x="-0.16066687"
     y="-0.16066641"><feGaussianBlur
       stdDeviation="3.6000051"
       id="feGaussianBlur29" /></filter><clipPath
     id="k"><rect
       height="84"
       rx="6"
       width="84"
       x="6"
       y="6"
       id="rect32" /></clipPath><filter
     id="l"
     color-interpolation-filters="sRGB"
     height="1.3915758"
     width="1.3915758"
     x="-0.19578789"
     y="-0.19578789"><feGaussianBlur
       stdDeviation="5.28"
       id="feGaussianBlur35" /></filter><linearGradient
     id="m"
     gradientUnits="userSpaceOnUse"
     x1="48"
     x2="48"
     xlink:href="#e"
     y1="20.220806"
     y2="138.66119" /><g
     id="g79"
     transform="matrix(0.5952381,0,0,0.5952381,-3.5714286,-3.5714286)"><rect
       fill="url(#a)"
       height="84"
       rx="10.709455"
       width="84"
       x="6"
       y="6"
       id="rect53"
       style="fill:url(#a)"
       ry="10.709455" /><path
       id="path1701"
       style="fill:url(#linearGradient1730);fill-opacity:1"
       d="M 9.2319207,0.00150369 C 9.0279564,0.00637844 8.8216326,0.02020289 8.6134323,0.04273625 7.374764,0.17660309 6.1991252,0.54074655 5.0481903,1.0020805 4.9451234,1.0435472 4.9173736,1.1166019 4.8915066,1.2068688 4.2268391,3.5086051 3.561185,5.8104786 2.8958507,8.1119481 2.8054506,8.4251486 2.716495,8.7380314 2.6140949,9.0960319 3.4783626,8.7416314 4.3087792,8.4572988 5.1705136,8.2686319 6.3799818,8.0038315 7.5895928,7.9406718 8.8017277,8.2521388 9.7623955,8.4990725 10.62151,8.962562 11.435114,9.5152296 c 0.136403,0.0932 0.17046,0.069392 0.21166,-0.078342 0.185201,-0.6640008 0.381799,-1.3256752 0.573133,-1.9874094 0.548533,-1.8981357 1.095394,-3.7961729 1.647928,-5.692842 0.03853,-0.1304002 0.02228,-0.203335 -0.09758,-0.2721349 C 13.582251,1.3771679 13.40435,1.252107 13.220484,1.1367735 11.984981,0.36268922 10.659671,-0.03261953 9.2319207,0.00150369 Z M 15.121305,2.4479689 c -0.04139,0.00585 -0.04332,0.078884 -0.08247,0.2144093 -0.713334,2.4582698 -1.421897,4.9178353 -2.133097,7.3765048 -0.116667,0.403068 -0.117292,0.400982 0.237774,0.634982 1.256135,0.824934 2.605183,1.361453 4.134251,1.351053 0.249467,-0.0136 0.49831,-0.01888 0.74631,-0.04261 1.253335,-0.1196 2.442698,-0.484389 3.6051,-0.949723 0.106534,-0.04267 0.166761,-0.09921 0.199291,-0.21441 0.708267,-2.4665362 1.421271,-4.9319177 2.134472,-7.3971207 0.02987,-0.1025335 0.07481,-0.2032843 -0.02199,-0.2927512 -0.09907,-0.0916 -0.197856,-0.030061 -0.294126,0.00687 C 22.978956,3.3931786 22.299207,3.6133594 21.59894,3.7701596 20.485338,4.0193597 19.365513,4.097518 18.237112,3.8691178 17.16831,3.6525842 16.223469,3.1588975 15.327467,2.5592968 15.209108,2.4799634 15.1535,2.44342 15.121305,2.4479689 Z M 6.599909,9.4203947 c -0.1928013,0.00249 -0.387711,0.012154 -0.5841279,0.030237 -1.2740017,0.1178668 -2.4820242,0.4870262 -3.6628257,0.9620933 -0.1032003,0.04133 -0.1539052,0.10088 -0.1841721,0.203414 -0.7097342,2.459202 -1.42176355,4.917701 -2.13309778,7.376505 -0.02893337,0.1 -0.07509626,0.205507 0.03023721,0.291377 0.09413345,0.0771 0.18723246,0.02642 0.27763257,-0.0082 0.6876008,-0.264401 1.3857418,-0.491126 2.1056094,-0.648726 1.1493347,-0.251866 2.3004358,-0.3235 3.4580373,-0.0591 1.022268,0.232934 1.9302533,0.712918 2.787321,1.297452 0.1496003,0.102134 0.1992931,0.09848 0.252893,-0.08659 0.6174675,-2.158003 1.242993,-4.31476 1.866461,-6.470763 0.118533,-0.409866 0.237328,-0.819715 0.365595,-1.261716 0.03147,-0.06653 -0.04934,-0.0986 -0.107205,-0.136067 -0.227201,-0.1452 -0.454593,-0.290594 -0.68446,-0.430194 C 9.2100552,9.7656035 7.949518,9.4029366 6.599909,9.4203947 Z m 5.811042,2.4492143 c -0.03503,0.01118 -0.05285,0.06753 -0.08659,0.182797 -0.211601,0.730935 -0.422541,1.463347 -0.633607,2.194947 -0.519734,1.797336 -1.037031,3.595709 -1.559966,5.391844 -0.038,0.127867 -0.02694,0.201465 0.09346,0.272135 0.243734,0.142667 0.476954,0.303968 0.718821,0.449435 1.462135,0.880931 3.036172,1.200801 4.729374,0.963468 1.094135,-0.153734 2.13707,-0.478663 3.162538,-0.874131 0.1636,-0.06307 0.249319,-0.150372 0.298249,-0.320239 0.5956,-2.082936 1.200661,-4.164689 1.801862,-6.245359 0.1436,-0.4968 0.286563,-0.992609 0.442563,-1.532476 -0.848934,0.3436 -1.668026,0.627429 -2.51656,0.81503 -1.275469,0.282804 -2.54919,0.342533 -3.822259,-0.01787 -0.882668,-0.250399 -1.674094,-0.685764 -2.434095,-1.187497 -0.105598,-0.06947 -0.15876,-0.103269 -0.193793,-0.09209 z"
       transform="matrix(2.3873731,0,0,2.3873731,19.351524,22.45516)" /><path
       id="rect1742"
       style="fill:#000000;fill-opacity:1;stroke-width:2.7252;-inkscape-stroke:none;filter:url(#filter1755);stop-color:#000000"
       d="m 25.11,13.158598 c -5.933032,0 -10.71,4.776968 -10.71,10.71 v 48.293437 c 0,5.933032 4.776968,10.71 10.71,10.71 h 45.176249 c 5.933032,0 10.71,-4.776968 10.71,-10.71 V 23.868598 c 0,-5.933032 -4.776968,-10.71 -10.71,-10.71 z m 16.281562,11.750156 c 3.408569,-0.08146 6.572584,0.862286 9.522188,2.710312 0.438956,0.275344 0.863674,0.573912 1.3125,0.830157 0.286167,0.16425 0.324956,0.338373 0.232968,0.649687 -1.319103,4.528052 -2.624667,9.059384 -3.934218,13.590937 -0.456786,1.579805 -0.926138,3.159472 -1.368282,4.744688 -0.09836,0.352695 -0.179668,0.409534 -0.505312,0.187031 -1.942374,-1.319422 -3.993405,-2.425946 -6.286875,-3.015469 -2.893815,-0.743587 -5.781613,-0.592801 -8.669062,0.03937 -2.05728,0.450418 -4.039798,1.129228 -6.103125,1.975313 0.244467,-0.85468 0.456837,-1.601649 0.672656,-2.349375 1.588399,-5.494461 3.177567,-10.989902 4.764375,-16.485 0.06175,-0.2155 0.128003,-0.38991 0.374062,-0.488906 2.747709,-1.101375 5.554402,-1.970723 8.511563,-2.290313 0.497051,-0.05379 0.989624,-0.0868 1.476562,-0.09844 z m 14.060156,5.840625 c 0.07686,-0.01086 0.209621,0.07638 0.492188,0.265781 2.139089,1.431469 4.394779,2.610085 6.946406,3.127031 2.693912,0.545276 5.367357,0.358683 8.025937,-0.23625 1.671797,-0.37434 3.294617,-0.899995 4.889063,-1.515937 0.229832,-0.08817 0.465678,-0.235089 0.702187,-0.01641 0.231098,0.21359 0.123811,0.45412 0.0525,0.698906 -1.702675,5.885353 -3.404885,11.771151 -5.095781,17.659687 -0.07766,0.275025 -0.221445,0.410016 -0.475781,0.511875 -2.775085,1.110925 -5.614543,1.981814 -8.606719,2.267344 -0.592068,0.05665 -1.186148,0.06925 -1.781718,0.101719 -3.650453,0.02483 -6.87114,-1.256046 -9.87,-3.225469 -0.847675,-0.558645 -0.846184,-0.553665 -0.567657,-1.515938 1.697898,-5.869755 3.389508,-11.741667 5.0925,-17.610468 0.09347,-0.323549 0.09805,-0.497913 0.196875,-0.511875 z M 35.107969,47.39516 c 3.222017,-0.04168 6.231394,0.824145 9.043124,2.529844 0.548778,0.333277 1.09165,0.680385 1.634063,1.027031 0.138157,0.08945 0.331061,0.166002 0.255937,0.324844 -0.30622,1.05522 -0.58983,2.033685 -0.872812,3.012187 -1.488449,5.147179 -2.981814,10.296172 -4.455938,15.448125 -0.127962,0.441824 -0.246598,0.45055 -0.60375,0.206719 -2.046138,-1.3955 -4.213842,-2.5414 -6.654374,-3.0975 -2.763624,-0.631221 -5.511737,-0.460204 -8.255625,0.141094 -1.718591,0.376249 -3.385317,0.917526 -5.026875,1.54875 -0.215819,0.08277 -0.438081,0.203751 -0.662813,0.01969 -0.25147,-0.205004 -0.141262,-0.456888 -0.07219,-0.695625 1.698218,-5.870077 3.398101,-11.739442 5.0925,-17.610469 0.07226,-0.244786 0.19331,-0.386945 0.439687,-0.485625 2.819011,-1.13416 5.703017,-2.015483 8.744531,-2.296875 0.46892,-0.04317 0.934243,-0.06623 1.394532,-0.07219 z m 13.873124,5.847187 c 0.08364,-0.0267 0.210555,0.054 0.462657,0.219844 1.814404,1.197823 3.703838,2.237205 5.811093,2.835 3.039288,0.860411 6.080139,0.717814 9.125157,0.04266 2.025765,-0.447873 3.981248,-1.12548 6.007968,-1.945781 -0.37243,1.288863 -0.713736,2.472548 -1.056562,3.658594 -1.43529,4.96733 -2.879801,9.937259 -4.301719,14.91 -0.116814,0.405535 -0.321457,0.613967 -0.712031,0.764531 -2.448172,0.944129 -4.938051,1.719855 -7.550156,2.086875 -4.042301,0.566602 -7.800123,-0.197047 -11.290782,-2.300156 -0.577426,-0.347284 -1.13421,-0.73237 -1.716093,-1.072969 -0.28744,-0.168716 -0.313853,-0.344422 -0.223125,-0.649688 1.248439,-4.28804 2.483421,-8.581436 3.724218,-12.872343 0.503893,-1.746601 1.007487,-3.495144 1.512657,-5.240156 0.08054,-0.275183 0.123082,-0.409709 0.206718,-0.436407 z"
       clip-path="url(#clipPath1749)" /></g></svg>
