<?xml version="1.0" encoding="UTF-8" standalone="no"?>
<!-- Created with Inkscape (http://www.inkscape.org/) -->

<svg
   width="50mm"
   height="50mm"
   viewBox="0 0 50 50"
   version="1.1"
   id="svg1"
   xml:space="preserve"
   sodipodi:docname="Julia_Box.svg"
   inkscape:version="1.4.2 (f4327f4, 2025-05-13)"
   inkscape:export-filename="GTK_Box.png"
   inkscape:export-xdpi="96"
   inkscape:export-ydpi="96"
   xmlns:inkscape="http://www.inkscape.org/namespaces/inkscape"
   xmlns:sodipodi="http://sodipodi.sourceforge.net/DTD/sodipodi-0.dtd"
   xmlns:xlink="http://www.w3.org/1999/xlink"
   xmlns="http://www.w3.org/2000/svg"
   xmlns:svg="http://www.w3.org/2000/svg"><sodipodi:namedview
     id="namedview1"
     pagecolor="#ffffff"
     bordercolor="#000000"
     borderopacity="0.25"
     inkscape:showpageshadow="2"
     inkscape:pageopacity="0.0"
     inkscape:pagecheckerboard="0"
     inkscape:deskcolor="#d1d1d1"
     inkscape:document-units="mm"
     inkscape:zoom="5.12"
     inkscape:cx="80.664063"
     inkscape:cy="103.22266"
     inkscape:window-width="2560"
     inkscape:window-height="1369"
     inkscape:window-x="-8"
     inkscape:window-y="-8"
     inkscape:window-maximized="1"
     inkscape:current-layer="g1"><inkscape:page
       x="0"
       y="0"
       width="50"
       height="50"
       id="page2"
       margin="0"
       bleed="0" /></sodipodi:namedview><defs
     id="defs1"><linearGradient
       id="linearGradient37"><stop
         style="stop-color:#0078d4;stop-opacity:0;"
         offset="0"
         id="stop36" /><stop
         style="stop-color:#0078d4;stop-opacity:1;"
         offset="1"
         id="stop37" /></linearGradient><linearGradient
       id="linearGradient35"><stop
         style="stop-color:#004695;stop-opacity:1;"
         offset="0"
         id="stop34" /><stop
         style="stop-color:#004695;stop-opacity:0;"
         offset="0.32947019"
         id="stop35" /></linearGradient><linearGradient
       id="linearGradient33"><stop
         style="stop-color:#3bd5ff;stop-opacity:0;"
         offset="0"
         id="stop32" /><stop
         style="stop-color:#3bd5ff;stop-opacity:1;"
         offset="0.32781455"
         id="stop33" /></linearGradient><linearGradient
       id="linearGradient24"><stop
         style="stop-color:#0078d4;stop-opacity:0;"
         offset="0"
         id="stop28" /><stop
         style="stop-color:#0078d4;stop-opacity:1;"
         offset="1"
         id="stop29" /></linearGradient><linearGradient
       id="linearGradient24-3"><stop
         style="stop-color:#3bd5ff;stop-opacity:0;"
         offset="0"
         id="stop26" /><stop
         style="stop-color:#3bd5ff;stop-opacity:1;"
         offset="0.99834436"
         id="stop27" /></linearGradient><linearGradient
       id="linearGradient24-1"><stop
         style="stop-color:#004695;stop-opacity:1;"
         offset="0"
         id="stop24" /><stop
         style="stop-color:#004695;stop-opacity:0;"
         offset="1"
         id="stop25" /></linearGradient><linearGradient
       id="swatch9"
       inkscape:swatch="solid"><stop
         style="stop-color:#522d61;stop-opacity:1;"
         offset="0"
         id="stop11" /></linearGradient><linearGradient
       inkscape:collect="always"
       xlink:href="#linearGradient37"
       id="linearGradient7"
       x1="48.519535"
       y1="24.999994"
       x2="1.4804688"
       y2="24.999994"
       gradientUnits="userSpaceOnUse" /><linearGradient
       inkscape:collect="always"
       xlink:href="#linearGradient33"
       id="linearGradient10"
       x1="24.999998"
       y1="48.519524"
       x2="24.999998"
       y2="1.4804654"
       gradientUnits="userSpaceOnUse" /><linearGradient
       inkscape:collect="always"
       xlink:href="#linearGradient35"
       id="linearGradient14"
       x1="45.368523"
       y1="36.759766"
       x2="4.6314898"
       y2="13.24023"
       gradientUnits="userSpaceOnUse" /><linearGradient
       inkscape:collect="always"
       xlink:href="#linearGradient24"
       id="linearGradient25"
       x1="7.322329"
       y1="42.677673"
       x2="42.67767"
       y2="7.3223386"
       gradientUnits="userSpaceOnUse"
       gradientTransform="translate(-50,-50)" /><linearGradient
       inkscape:collect="always"
       xlink:href="#linearGradient24-1"
       id="linearGradient27"
       gradientUnits="userSpaceOnUse"
       x1="7.3223314"
       y1="7.32234"
       x2="42.677666"
       y2="42.677673"
       gradientTransform="translate(-50,-50)" /><linearGradient
       inkscape:collect="always"
       xlink:href="#linearGradient24-3"
       id="linearGradient28"
       gradientUnits="userSpaceOnUse"
       x1="25"
       y1="6.9783769e-06"
       x2="25"
       y2="50.000004"
       gradientTransform="translate(0,-50)" /><filter
       inkscape:collect="always"
       style="color-interpolation-filters:sRGB"
       id="filter13"
       x="-0.075000001"
       y="-0.075000001"
       width="1.15"
       height="1.15"><feGaussianBlur
         inkscape:collect="always"
         stdDeviation="1.4699684"
         id="feGaussianBlur13" /></filter><linearGradient
       id="paint0_linear_4303_1230"
       x1="48"
       y1="6.14258"
       x2="120.248"
       y2="47.5674"
       gradientUnits="userSpaceOnUse"><stop
         stop-color="#0FAFFF"
         id="stop11-4" /><stop
         offset="1"
         stop-color="#0078D4"
         id="stop12" /></linearGradient><linearGradient
       id="paint1_linear_4303_1230"
       x1="52"
       y1="6.14258"
       x2="120.953"
       y2="42.383"
       gradientUnits="userSpaceOnUse"><stop
         stop-color="#0078D4"
         id="stop13-2" /><stop
         offset="1"
         stop-color="#004695"
         id="stop14-3" /></linearGradient><linearGradient
       id="paint2_linear_4303_1230"
       x1="56.5938"
       y1="15.7124"
       x2="103.043"
       y2="35.4277"
       gradientUnits="userSpaceOnUse"><stop
         stop-color="#9DEAFF"
         id="stop15" /><stop
         offset="1"
         stop-color="#3BD5FF"
         id="stop16" /></linearGradient><linearGradient
       id="paint3_linear_4303_1230"
       x1="-0.000123103"
       y1="47.9995"
       x2="39.2727"
       y2="111.839"
       gradientUnits="userSpaceOnUse"><stop
         stop-color="#0078D4"
         id="stop17" /><stop
         offset="1"
         stop-color="#004695"
         id="stop18" /></linearGradient><linearGradient
       id="paint4_linear_4303_1230"
       x1="26.0202"
       y1="47.9995"
       x2="22.5976"
       y2="92.4324"
       gradientUnits="userSpaceOnUse"><stop
         stop-color="#0FAFFF"
         id="stop19" /><stop
         offset="1"
         stop-color="#0078D4"
         id="stop20" /></linearGradient><linearGradient
       id="paint5_linear_4303_1230"
       x1="12"
       y1="51.9813"
       x2="39.1928"
       y2="86.7545"
       gradientUnits="userSpaceOnUse"><stop
         stop-color="#E6F9FE"
         id="stop21" /><stop
         offset="1"
         stop-color="#9DEAFF"
         id="stop22" /></linearGradient><linearGradient
       id="paint6_linear_4303_1230"
       x1="0"
       y1="4"
       x2="39.2735"
       y2="67.8415"
       gradientUnits="userSpaceOnUse"><stop
         stop-color="#3BD5FF"
         id="stop23" /><stop
         offset="1"
         stop-color="#0FAFFF"
         id="stop24-2" /></linearGradient><linearGradient
       id="paint7_linear_4303_1230"
       x1="26.0211"
       y1="6.20004"
       x2="7.04304"
       y2="35.8557"
       gradientUnits="userSpaceOnUse"><stop
         stop-color="#3BD5FF"
         id="stop25-2" /><stop
         offset="1"
         stop-color="#0FAFFF"
         id="stop26-1" /></linearGradient><linearGradient
       id="paint8_linear_4303_1230"
       x1="12"
       y1="16"
       x2="43.7966"
       y2="51.6021"
       gradientUnits="userSpaceOnUse"><stop
         stop-color="#FEFEFE"
         id="stop27-6" /><stop
         offset="1"
         stop-color="#E6F9FE"
         id="stop28-8" /></linearGradient><clipPath
       id="clip1_4303_1230"><rect
         width="96"
         height="96"
         fill="white"
         id="rect29" /></clipPath><filter
       inkscape:collect="always"
       style="color-interpolation-filters:sRGB"
       id="filter21"
       x="-0.071874299"
       y="-0.078409923"
       width="1.1437486"
       height="1.1568198"><feGaussianBlur
         inkscape:collect="always"
         stdDeviation="2.8750441"
         id="feGaussianBlur21" /></filter></defs><g
     id="g1"
     inkscape:label="WinUI"><g
       id="g2"
       inkscape:label="Rect"><rect
         style="font-variation-settings:normal;display:inline;opacity:1;vector-effect:none;fill:url(#linearGradient28);stroke:none;stroke-width:0.260698;stroke-linecap:butt;stroke-linejoin:miter;stroke-miterlimit:4;stroke-dasharray:none;stroke-dashoffset:0;stroke-opacity:1;-inkscape-stroke:none;stop-color:#000000;stop-opacity:1"
         id="rect25"
         width="50"
         height="50"
         x="0"
         y="-50"
         rx="7.1983109"
         ry="7.1983109"
         transform="scale(1,-1)"
         inkscape:label="rectTop" /><rect
         style="font-variation-settings:normal;display:inline;opacity:1;vector-effect:none;fill:url(#linearGradient25);fill-opacity:1;stroke:none;stroke-width:0.260698;stroke-linecap:butt;stroke-linejoin:miter;stroke-miterlimit:4;stroke-dasharray:none;stroke-dashoffset:0;stroke-opacity:1;-inkscape-stroke:none;stop-color:#000000;stop-opacity:1"
         id="rect1"
         width="50"
         height="50"
         x="-50"
         y="-50"
         rx="7.1983109"
         ry="7.1983109"
         transform="scale(-1)"
         inkscape:label="rectLeft" /><rect
         style="font-variation-settings:normal;display:inline;opacity:1;vector-effect:none;fill:url(#linearGradient27);stroke:none;stroke-width:0.260698;stroke-linecap:butt;stroke-linejoin:miter;stroke-miterlimit:4;stroke-dasharray:none;stroke-dashoffset:0;stroke-opacity:1;-inkscape-stroke:none;stop-color:#000000;stop-opacity:1"
         id="rect26"
         width="50"
         height="50"
         x="-50"
         y="-50"
         rx="7.1983109"
         ry="7.1983109"
         transform="scale(-1)"
         inkscape:label="rectRight" /></g><g
       id="layer1"
       inkscape:label="Border"
       style="display:inline"><path
         id="path3"
         style="baseline-shift:baseline;display:inline;overflow:visible;opacity:1;vector-effect:none;fill:#000000;fill-opacity:1;filter:url(#filter13);enable-background:accumulate;stop-color:#000000;stop-opacity:1"
         inkscape:label="pathShadow"
         d="m 8.9648275,1.4805298 c -4.1287536,0 -7.4842977,3.3555441 -7.4842977,7.4842977 V 41.035221 c 0,4.128754 3.3555441,7.484298 7.4842977,7.484298 H 41.035221 c 4.128754,0 7.484298,-3.355544 7.484298,-7.484298 V 8.9648275 c 0,-4.1287536 -3.355544,-7.4842977 -7.484298,-7.4842977 z m 0,1.9998779 H 41.035221 c 3.055348,0 5.48442,2.4290717 5.48442,5.4844198 V 41.035221 c 0,3.055348 -2.429072,5.48442 -5.48442,5.48442 H 8.9648275 c -3.0553481,0 -5.4844198,-2.429072 -5.4844198,-5.48442 V 8.9648275 c 0,-0.1909593 0.00937,-0.3791974 0.027905,-0.5648234 C 3.7863629,5.6156139 6.1004386,3.4804076 8.9648275,3.4804077 Z" /><path
         style="baseline-shift:baseline;display:inline;overflow:visible;opacity:1;vector-effect:none;fill:url(#linearGradient10);enable-background:accumulate;stop-color:#000000;stop-opacity:1"
         d="m 8.9648438,1.4804687 c -4.1287536,0 -7.4843751,3.3556215 -7.4843751,7.4843751 V 41.035156 c 0,4.128754 3.3556215,7.484375 7.4843751,7.484375 H 41.035156 c 4.128754,0 7.484375,-3.355621 7.484375,-7.484375 V 8.9648438 c 0,-4.1287536 -3.355621,-7.4843751 -7.484375,-7.4843751 z m 0,2.0000001 H 41.035156 c 3.055348,0 5.484375,2.4290269 5.484375,5.484375 V 41.035156 c 0,3.055348 -2.429027,5.484375 -5.484375,5.484375 H 8.9648438 c -3.0553481,0 -5.484375,-2.429027 -5.484375,-5.484375 V 8.9648438 c 0,-3.0553481 2.4290269,-5.4843751 5.484375,-5.484375 z"
         id="path11"
         inkscape:label="pathTop" /><path
         style="baseline-shift:baseline;display:inline;overflow:visible;opacity:1;vector-effect:none;fill:url(#linearGradient7);fill-opacity:1;enable-background:accumulate;stop-color:#000000;stop-opacity:1"
         d="m 8.9648438,1.4804687 c -4.1287536,0 -7.4843751,3.3556215 -7.4843751,7.4843751 V 41.035156 c 0,4.128754 3.3556215,7.484375 7.4843751,7.484375 H 41.035156 c 4.128754,0 7.484375,-3.355621 7.484375,-7.484375 V 8.9648438 c 0,-4.1287536 -3.355621,-7.4843751 -7.484375,-7.4843751 z m 0,2.0000001 H 41.035156 c 3.055348,0 5.484375,2.4290269 5.484375,5.484375 V 41.035156 c 0,3.055348 -2.429027,5.484375 -5.484375,5.484375 H 8.9648438 c -3.0553481,0 -5.484375,-2.429027 -5.484375,-5.484375 V 8.9648438 c 0,-3.0553481 2.4290269,-5.4843751 5.484375,-5.484375 z"
         id="path12"
         inkscape:label="pathLeft" /><path
         style="baseline-shift:baseline;display:inline;overflow:visible;opacity:1;vector-effect:none;fill:url(#linearGradient14);enable-background:accumulate;stop-color:#000000;stop-opacity:1"
         d="m 8.9648438,1.4804687 c -4.1287536,0 -7.4843751,3.3556215 -7.4843751,7.4843751 V 41.035156 c 0,4.128754 3.3556215,7.484375 7.4843751,7.484375 H 41.035156 c 4.128754,0 7.484375,-3.355621 7.484375,-7.484375 V 8.9648438 c 0,-4.1287536 -3.355621,-7.4843751 -7.484375,-7.4843751 z m 0,2.0000001 H 41.035156 c 3.055348,0 5.484375,2.4290269 5.484375,5.484375 V 41.035156 c 0,3.055348 -2.429027,5.484375 -5.484375,5.484375 H 8.9648438 c -3.0553481,0 -5.484375,-2.429027 -5.484375,-5.484375 V 8.9648438 c 0,-3.0553481 2.4290269,-5.4843751 5.484375,-5.484375 z"
         id="path13"
         inkscape:label="pathRight" /></g><g
       style="fill:none"
       id="g3"
       transform="matrix(0.3125,0,0,0.3125,10,10.000016)"
       inkscape:label="Icon"><path
         id="path8"
         style="fill:#000000;fill-opacity:0.50282484;filter:url(#filter21)"
         d="M 32.641016 3.9998186 C 26.924816 3.9998186 21.643217 7.0497371 18.785117 12.000157 L 1.7327214 41.535925 C 0.59789136 43.501496 -0.00019522657 45.730362 -0.00029947917 48.000027 C -0.00029947917 50.269427 0.59655171 52.500282 1.7310677 54.465782 L 18.78181 83.999897 C 21.64001 88.950297 26.921508 92.000235 32.637708 92.000235 L 63.527812 92.000235 C 66.384412 92.000235 69.13169 91.238664 71.52319 89.858764 L 71.428932 89.695053 L 71.524844 89.858764 C 73.917844 88.478064 75.953911 86.478404 77.383711 84.003204 L 94.123568 55.011485 C 95.353968 52.879785 96.002109 50.462881 96.002109 48.001681 C 96.002109 45.539881 95.352814 43.120469 94.121914 40.988569 L 77.385365 12.000157 C 75.955865 9.5241671 73.921451 7.5241936 71.528151 6.1429436 L 71.43224 6.3066545 L 71.526497 6.1429436 C 69.134697 4.7625636 66.385012 3.9998186 63.527812 3.9998186 L 32.641016 3.9998186 z " /><g
         clip-path="url(#clip1_4303_1230)"
         id="g10"><path
           d="m 96.0016,48.0011 c 0,-2.4618 -0.648,-4.8801 -1.8789,-7.012 L 77.3861,12.0003 C 75.9566,9.52431 73.9207,7.52383 71.5274,6.14258 L 48.1565,45.9295 c -0.3636,0.6297 -0.5549,1.3439 -0.5549,2.071 0,0.7269 0.1913,1.4411 0.5547,2.0706 l 23.3689,39.7877 c 2.393,-1.3807 4.4288,-3.3806 5.8586,-5.8558 L 94.1234,55.0119 c 1.2304,-2.1317 1.8782,-4.5496 1.8782,-7.0108 z"
           fill="url(#paint0_linear_4303_1230)"
           id="path1"
           style="fill:url(#paint0_linear_4303_1230)" /><path
           d="m 96.0016,48.0011 c 0,-2.4618 -0.648,-4.8801 -1.8789,-7.012 L 77.3861,12.0003 C 75.9566,9.52431 73.9207,7.52383 71.5274,6.14258 L 48.1565,45.9295 c -0.3636,0.6297 -0.5549,1.3439 -0.5549,2.071 0,0.7269 0.1913,1.4411 0.5547,2.0706 l 23.3689,39.7877 c 2.393,-1.3807 4.4288,-3.3806 5.8586,-5.8558 L 94.1234,55.0119 c 1.2304,-2.1317 1.8782,-4.5496 1.8782,-7.0108 z"
           fill="url(#paint1_linear_4303_1230)"
           id="path2"
           style="fill:url(#paint1_linear_4303_1230)" /><path
           d="m 64.6759,49.9994 -8.0821,14.0008 0.7011,8.1435 8.7012,8.1436 9.2384,-15.9988 0.0045,-6e-4 8.2085,-14.2176 c 0.3636,-0.6297 0.555,-1.3439 0.555,-2.071 0,-0.727 -0.1914,-1.4403 -0.555,-2.0699 l -8.2085,-14.2176 -0.0045,-6e-4 -9.2384,-15.9988 -8.7012,8.1435 -0.7011,8.1436 8.082,14.0003 c 0.7144,1.2375 0.7144,2.7621 1e-4,3.9996 z"
           fill="#d9d9d9"
           id="path3-5" /><path
           d="m 64.6759,49.9994 -8.0821,14.0008 0.7011,8.1435 8.7012,8.1436 9.2384,-15.9988 0.0045,-6e-4 8.2085,-14.2176 c 0.3636,-0.6297 0.555,-1.3439 0.555,-2.071 0,-0.727 -0.1914,-1.4403 -0.555,-2.0699 l -8.2085,-14.2176 -0.0045,-6e-4 -9.2384,-15.9988 -8.7012,8.1435 -0.7011,8.1436 8.082,14.0003 c 0.7144,1.2375 0.7144,2.7621 1e-4,3.9996 z"
           fill="url(#paint2_linear_4303_1230)"
           id="path4-2"
           style="fill:url(#paint2_linear_4303_1230)" /><path
           d="m 32.638,91.9999 h 30.8892 c 2.8566,0 5.6048,-0.7616 7.9963,-2.1415 L 48.5546,50.0707 C 48.1912,49.4411 47.9999,48.727 47.9999,48.0001 l -24,-0.4 -24.00002207,0.4005 c 0,2.2694 0.59726607,4.4989 1.73178207,6.4644 L 18.7816,83.9999 c 2.8582,4.9504 8.1402,8 13.8564,8 z"
           fill="url(#paint3_linear_4303_1230)"
           id="path5"
           style="fill:url(#paint3_linear_4303_1230)" /><path
           d="m 32.638,91.9999 h 30.8892 c 2.8566,0 5.6048,-0.7616 7.9963,-2.1415 L 48.5546,50.0707 C 48.1912,49.4411 47.9999,48.727 47.9999,48.0001 l -24,-0.4 -24.00002207,0.4005 c 0,2.2694 0.59726607,4.4989 1.73178207,6.4644 L 18.7816,83.9999 c 2.8582,4.9504 8.1402,8 13.8564,8 z"
           fill="url(#paint4_linear_4303_1230)"
           id="path6"
           style="fill:url(#paint4_linear_4303_1230)" /><path
           d="M 12.5547,50.0709 C 12.1913,49.4413 12,48.7268 12,47.9999 l 8.9889,-0.4 8.989,0.4 c -1e-4,0.6905 0.1785,1.381 0.5356,1.9998 L 47.8298,80.0001 H 32.1399 c -1.4292,0 -2.7497,-0.7625 -3.4642,-2.0002 z"
           fill="url(#paint5_linear_4303_1230)"
           id="path7"
           style="fill:url(#paint5_linear_4303_1230)" /><path
           d="m 32.641,4 h 30.8871 c 2.8572,0 5.606,0.76192 7.9978,2.1423 l -22.971,39.787 C 48.1914,46.5589 48,47.2732 48,48.0002 l -48,5e-4 C 8.63496e-5,45.731 0.597573,43.5009 1.73242,41.5353 L 18.7846,12 C 21.6427,7.04958 26.9248,4 32.641,4 Z"
           fill="url(#paint6_linear_4303_1230)"
           id="path8-7"
           style="fill:url(#paint6_linear_4303_1230)" /><path
           d="m 32.641,4 h 30.8871 c 2.8572,0 5.606,0.76192 7.9978,2.1423 l -22.971,39.787 C 48.1914,46.5589 48,47.2732 48,48.0002 l -48,5e-4 C 8.63496e-5,45.731 0.597573,43.5009 1.73242,41.5353 L 18.7846,12 C 21.6427,7.04958 26.9248,4 32.641,4 Z"
           fill="url(#paint7_linear_4303_1230)"
           id="path9-6"
           style="fill:url(#paint7_linear_4303_1230)" /><path
           d="m 12,48 h 17.9779 c 0,-0.6904 0.1786,-1.381 0.5356,-1.9996 L 47.8298,16 H 32.1399 c -1.4292,0 -2.7497,0.7625 -3.4642,2.0002 l -16.121,27.929 C 12.1913,46.5587 12,47.2731 12,48 Z"
           fill="url(#paint8_linear_4303_1230)"
           id="path10-1"
           style="fill:url(#paint8_linear_4303_1230)" /></g></g></g></svg>
