<?xml version="1.0" encoding="UTF-8" standalone="no"?>
<!-- Created with Inkscape (http://www.inkscape.org/) -->

<svg
   width="50mm"
   height="50mm"
   viewBox="0 0 50 50"
   version="1.1"
   id="svg1"
   xml:space="preserve"
   sodipodi:docname="WinUI_Box.svg"
   inkscape:version="1.4.3 (0d15f75, 2025-12-25)"
   inkscape:export-filename="WinUI_Box.svg"
   inkscape:export-xdpi="96"
   inkscape:export-ydpi="96"
   inkscape:export-batch-name="WinUI_Box"
   inkscape:export-batch-path="C:\Users\justc\Downloads"
   xmlns:inkscape="http://www.inkscape.org/namespaces/inkscape"
   xmlns:sodipodi="http://sodipodi.sourceforge.net/DTD/sodipodi-0.dtd"
   xmlns:xlink="http://www.w3.org/1999/xlink"
   xmlns="http://www.w3.org/2000/svg"
   xmlns:svg="http://www.w3.org/2000/svg"><sodipodi:namedview
     id="namedview1"
     pagecolor="#ffffff"
     bordercolor="#000000"
     borderopacity="0.25"
     inkscape:showpageshadow="2"
     inkscape:pageopacity="0.0"
     inkscape:pagecheckerboard="0"
     inkscape:deskcolor="#d1d1d1"
     inkscape:document-units="mm"
     inkscape:zoom="5.12"
     inkscape:cx="65.625"
     inkscape:cy="94.824219"
     inkscape:window-width="2560"
     inkscape:window-height="1369"
     inkscape:window-x="-8"
     inkscape:window-y="-8"
     inkscape:window-maximized="1"
     inkscape:current-layer="g10"><inkscape:page
       x="0"
       y="0"
       width="50"
       height="50"
       id="page2"
       margin="0"
       bleed="0" /></sodipodi:namedview><defs
     id="defs1"><linearGradient
       id="linearGradient106"
       inkscape:collect="always"><stop
         style="stop-color:#000000;stop-opacity:0;"
         offset="0"
         id="stop106" /><stop
         style="stop-color:#000000;stop-opacity:1;"
         offset="1"
         id="stop107" /></linearGradient><linearGradient
       id="linearGradient105"
       x1="26.020201"
       y1="47.9995"
       x2="22.597601"
       y2="92.432404"
       gradientUnits="userSpaceOnUse"
       spreadMethod="pad"><stop
         stop-color="#0FAFFF"
         id="stop104"
         offset="0"
         style="stop-color:#003653;stop-opacity:1;" /><stop
         offset="1"
         stop-color="#0078D4"
         id="stop105" /></linearGradient><linearGradient
       id="linearGradient103"
       x1="26.020201"
       y1="47.9995"
       x2="22.597601"
       y2="92.432404"
       gradientUnits="userSpaceOnUse"
       spreadMethod="pad"><stop
         stop-color="#0FAFFF"
         id="stop102"
         offset="0"
         style="stop-color:#003552;stop-opacity:1;" /><stop
         offset="1"
         stop-color="#0078D4"
         id="stop103" /></linearGradient><linearGradient
       id="linearGradient101"
       x1="26.020201"
       y1="47.9995"
       x2="22.597601"
       y2="92.432404"
       gradientUnits="userSpaceOnUse"
       spreadMethod="pad"><stop
         stop-color="#0FAFFF"
         id="stop100"
         offset="0"
         style="stop-color:#00334f;stop-opacity:1;" /><stop
         offset="1"
         stop-color="#0078D4"
         id="stop101" /></linearGradient><linearGradient
       id="linearGradient99"
       x1="26.020201"
       y1="47.9995"
       x2="22.597601"
       y2="92.432404"
       gradientUnits="userSpaceOnUse"
       spreadMethod="pad"><stop
         stop-color="#0FAFFF"
         id="stop98"
         offset="0"
         style="stop-color:#00314b;stop-opacity:1;" /><stop
         offset="1"
         stop-color="#0078D4"
         id="stop99" /></linearGradient><linearGradient
       id="linearGradient97"
       x1="26.020201"
       y1="47.9995"
       x2="22.597601"
       y2="92.432404"
       gradientUnits="userSpaceOnUse"
       spreadMethod="pad"><stop
         stop-color="#0FAFFF"
         id="stop96"
         offset="0"
         style="stop-color:#002d46;stop-opacity:1;" /><stop
         offset="1"
         stop-color="#0078D4"
         id="stop97" /></linearGradient><linearGradient
       id="linearGradient95"
       x1="26.020201"
       y1="47.9995"
       x2="22.597601"
       y2="92.432404"
       gradientUnits="userSpaceOnUse"
       spreadMethod="pad"><stop
         stop-color="#0FAFFF"
         id="stop94"
         offset="0"
         style="stop-color:#002b43;stop-opacity:1;" /><stop
         offset="1"
         stop-color="#0078D4"
         id="stop95" /></linearGradient><linearGradient
       id="linearGradient93"
       x1="26.020201"
       y1="47.9995"
       x2="22.597601"
       y2="92.432404"
       gradientUnits="userSpaceOnUse"
       spreadMethod="pad"><stop
         stop-color="#0FAFFF"
         id="stop92"
         offset="0"
         style="stop-color:#00283f;stop-opacity:1;" /><stop
         offset="1"
         stop-color="#0078D4"
         id="stop93" /></linearGradient><linearGradient
       id="linearGradient91"
       x1="26.020201"
       y1="47.9995"
       x2="22.597601"
       y2="92.432404"
       gradientUnits="userSpaceOnUse"
       spreadMethod="pad"><stop
         stop-color="#0FAFFF"
         id="stop90"
         offset="0"
         style="stop-color:#00273d;stop-opacity:1;" /><stop
         offset="1"
         stop-color="#0078D4"
         id="stop91" /></linearGradient><linearGradient
       id="linearGradient89"
       x1="26.020201"
       y1="47.9995"
       x2="22.597601"
       y2="92.432404"
       gradientUnits="userSpaceOnUse"
       spreadMethod="pad"><stop
         stop-color="#0FAFFF"
         id="stop88"
         offset="0"
         style="stop-color:#00253b;stop-opacity:1;" /><stop
         offset="1"
         stop-color="#0078D4"
         id="stop89" /></linearGradient><linearGradient
       id="linearGradient87"
       x1="26.020201"
       y1="47.9995"
       x2="22.597601"
       y2="92.432404"
       gradientUnits="userSpaceOnUse"
       spreadMethod="pad"><stop
         stop-color="#0FAFFF"
         id="stop86"
         offset="0"
         style="stop-color:#00243a;stop-opacity:1;" /><stop
         offset="1"
         stop-color="#0078D4"
         id="stop87" /></linearGradient><linearGradient
       id="linearGradient85"
       x1="26.020201"
       y1="47.9995"
       x2="22.597601"
       y2="92.432404"
       gradientUnits="userSpaceOnUse"
       spreadMethod="pad"><stop
         stop-color="#0FAFFF"
         id="stop84"
         offset="0"
         style="stop-color:#002439;stop-opacity:1;" /><stop
         offset="1"
         stop-color="#0078D4"
         id="stop85" /></linearGradient><linearGradient
       id="linearGradient83"
       x1="26.020201"
       y1="47.9995"
       x2="22.597601"
       y2="92.432404"
       gradientUnits="userSpaceOnUse"
       spreadMethod="pad"><stop
         stop-color="#0FAFFF"
         id="stop82"
         offset="0"
         style="stop-color:#002339;stop-opacity:1;" /><stop
         offset="1"
         stop-color="#0078D4"
         id="stop83" /></linearGradient><linearGradient
       id="linearGradient81"
       x1="26.020201"
       y1="47.9995"
       x2="22.597601"
       y2="92.432404"
       gradientUnits="userSpaceOnUse"
       spreadMethod="pad"><stop
         stop-color="#0FAFFF"
         id="stop80"
         offset="0"
         style="stop-color:#003a58;stop-opacity:1;" /><stop
         offset="1"
         stop-color="#0078D4"
         id="stop81" /></linearGradient><linearGradient
       id="linearGradient79"
       x1="26.020201"
       y1="47.9995"
       x2="22.597601"
       y2="92.432404"
       gradientUnits="userSpaceOnUse"
       spreadMethod="pad"><stop
         stop-color="#0FAFFF"
         id="stop78"
         offset="0"
         style="stop-color:#003958;stop-opacity:1;" /><stop
         offset="1"
         stop-color="#0078D4"
         id="stop79" /></linearGradient><linearGradient
       id="linearGradient77"
       x1="26.020201"
       y1="47.9995"
       x2="22.597601"
       y2="92.432404"
       gradientUnits="userSpaceOnUse"
       spreadMethod="pad"><stop
         stop-color="#0FAFFF"
         id="stop76"
         offset="0"
         style="stop-color:#003957;stop-opacity:1;" /><stop
         offset="1"
         stop-color="#0078D4"
         id="stop77" /></linearGradient><linearGradient
       id="linearGradient75"
       x1="26.020201"
       y1="47.9995"
       x2="22.597601"
       y2="92.432404"
       gradientUnits="userSpaceOnUse"
       spreadMethod="pad"><stop
         stop-color="#0FAFFF"
         id="stop74"
         offset="0"
         style="stop-color:#003856;stop-opacity:1;" /><stop
         offset="1"
         stop-color="#0078D4"
         id="stop75" /></linearGradient><linearGradient
       id="linearGradient73"
       x1="26.020201"
       y1="47.9995"
       x2="22.597601"
       y2="92.432404"
       gradientUnits="userSpaceOnUse"
       spreadMethod="pad"><stop
         stop-color="#0FAFFF"
         id="stop72"
         offset="0"
         style="stop-color:#003755;stop-opacity:1;" /><stop
         offset="1"
         stop-color="#0078D4"
         id="stop73" /></linearGradient><linearGradient
       id="linearGradient71"
       x1="26.020201"
       y1="47.9995"
       x2="22.597601"
       y2="92.432404"
       gradientUnits="userSpaceOnUse"
       spreadMethod="pad"><stop
         stop-color="#0FAFFF"
         id="stop70"
         offset="0"
         style="stop-color:#003754;stop-opacity:1;" /><stop
         offset="1"
         stop-color="#0078D4"
         id="stop71" /></linearGradient><linearGradient
       id="linearGradient69"
       x1="26.020201"
       y1="47.9995"
       x2="22.597601"
       y2="92.432404"
       gradientUnits="userSpaceOnUse"
       spreadMethod="pad"><stop
         stop-color="#0FAFFF"
         id="stop68"
         offset="0"
         style="stop-color:#000c18;stop-opacity:1;" /><stop
         offset="1"
         stop-color="#0078D4"
         id="stop69" /></linearGradient><linearGradient
       id="linearGradient67"
       x1="26.020201"
       y1="47.9995"
       x2="22.597601"
       y2="92.432404"
       gradientUnits="userSpaceOnUse"
       spreadMethod="pad"><stop
         stop-color="#0FAFFF"
         id="stop66"
         offset="0"
         style="stop-color:#000a15;stop-opacity:1;" /><stop
         offset="1"
         stop-color="#0078D4"
         id="stop67" /></linearGradient><linearGradient
       id="linearGradient65"
       x1="26.020201"
       y1="47.9995"
       x2="22.597601"
       y2="92.432404"
       gradientUnits="userSpaceOnUse"
       spreadMethod="pad"><stop
         stop-color="#0FAFFF"
         id="stop64"
         offset="0"
         style="stop-color:#00060e;stop-opacity:1;" /><stop
         offset="1"
         stop-color="#0078D4"
         id="stop65" /></linearGradient><linearGradient
       id="linearGradient63"
       x1="26.020201"
       y1="47.9995"
       x2="22.597601"
       y2="92.432404"
       gradientUnits="userSpaceOnUse"
       spreadMethod="pad"><stop
         stop-color="#0FAFFF"
         id="stop62"
         offset="0"
         style="stop-color:#00050d;stop-opacity:1;" /><stop
         offset="1"
         stop-color="#0078D4"
         id="stop63" /></linearGradient><linearGradient
       id="linearGradient61"
       x1="26.020201"
       y1="47.9995"
       x2="22.597601"
       y2="92.432404"
       gradientUnits="userSpaceOnUse"
       spreadMethod="pad"><stop
         stop-color="#0FAFFF"
         id="stop60"
         offset="0"
         style="stop-color:#00060e;stop-opacity:1;" /><stop
         offset="1"
         stop-color="#0078D4"
         id="stop61" /></linearGradient><linearGradient
       id="linearGradient59"
       x1="26.020201"
       y1="47.9995"
       x2="22.597601"
       y2="92.432404"
       gradientUnits="userSpaceOnUse"
       spreadMethod="pad"><stop
         stop-color="#0FAFFF"
         id="stop58"
         offset="0"
         style="stop-color:#000811;stop-opacity:1;" /><stop
         offset="1"
         stop-color="#0078D4"
         id="stop59" /></linearGradient><linearGradient
       id="linearGradient57"
       x1="26.020201"
       y1="47.9995"
       x2="22.597601"
       y2="92.432404"
       gradientUnits="userSpaceOnUse"
       spreadMethod="pad"><stop
         stop-color="#0FAFFF"
         id="stop56"
         offset="0"
         style="stop-color:#000a15;stop-opacity:1;" /><stop
         offset="1"
         stop-color="#0078D4"
         id="stop57" /></linearGradient><linearGradient
       id="linearGradient55"
       x1="26.020201"
       y1="47.9995"
       x2="22.597601"
       y2="92.432404"
       gradientUnits="userSpaceOnUse"
       spreadMethod="pad"><stop
         stop-color="#0FAFFF"
         id="stop54"
         offset="0"
         style="stop-color:#00101c;stop-opacity:1;" /><stop
         offset="1"
         stop-color="#0078D4"
         id="stop55" /></linearGradient><linearGradient
       id="linearGradient53"
       x1="26.020201"
       y1="47.9995"
       x2="22.597601"
       y2="92.432404"
       gradientUnits="userSpaceOnUse"
       spreadMethod="pad"><stop
         stop-color="#0FAFFF"
         id="stop52"
         offset="0"
         style="stop-color:#001422;stop-opacity:1;" /><stop
         offset="1"
         stop-color="#0078D4"
         id="stop53" /></linearGradient><linearGradient
       id="linearGradient51"
       x1="26.020201"
       y1="47.9995"
       x2="22.597601"
       y2="92.432404"
       gradientUnits="userSpaceOnUse"
       spreadMethod="pad"><stop
         stop-color="#0FAFFF"
         id="stop50"
         offset="0"
         style="stop-color:#001929;stop-opacity:1;" /><stop
         offset="1"
         stop-color="#0078D4"
         id="stop51" /></linearGradient><linearGradient
       id="linearGradient49"
       x1="26.020201"
       y1="47.9995"
       x2="22.597601"
       y2="92.432404"
       gradientUnits="userSpaceOnUse"
       spreadMethod="pad"><stop
         stop-color="#0FAFFF"
         id="stop48"
         offset="0"
         style="stop-color:#001d2f;stop-opacity:1;" /><stop
         offset="1"
         stop-color="#0078D4"
         id="stop49" /></linearGradient><linearGradient
       id="linearGradient47"
       x1="26.020201"
       y1="47.9995"
       x2="22.597601"
       y2="92.432404"
       gradientUnits="userSpaceOnUse"
       spreadMethod="pad"><stop
         stop-color="#0FAFFF"
         id="stop46"
         offset="0"
         style="stop-color:#001d2f;stop-opacity:1;" /><stop
         offset="1"
         stop-color="#0078D4"
         id="stop47" /></linearGradient><linearGradient
       id="linearGradient45"
       x1="26.020201"
       y1="47.9995"
       x2="22.597601"
       y2="92.432404"
       gradientUnits="userSpaceOnUse"
       spreadMethod="pad"><stop
         stop-color="#0FAFFF"
         id="stop44"
         offset="0"
         style="stop-color:#000000;stop-opacity:1;" /><stop
         offset="1"
         stop-color="#0078D4"
         id="stop45" /></linearGradient><linearGradient
       id="linearGradient43"
       x1="26.020201"
       y1="47.9995"
       x2="22.597601"
       y2="92.432404"
       gradientUnits="userSpaceOnUse"
       spreadMethod="pad"><stop
         stop-color="#0FAFFF"
         id="stop42"
         offset="0"
         style="stop-color:#000000;stop-opacity:1;" /><stop
         offset="1"
         stop-color="#0078D4"
         id="stop43" /></linearGradient><linearGradient
       id="linearGradient41"
       x1="26.020201"
       y1="47.9995"
       x2="22.597601"
       y2="92.432404"
       gradientUnits="userSpaceOnUse"
       spreadMethod="pad"><stop
         stop-color="#0FAFFF"
         id="stop40"
         offset="0"
         style="stop-color:#000000;stop-opacity:1;" /><stop
         offset="1"
         stop-color="#0078D4"
         id="stop41" /></linearGradient><linearGradient
       id="linearGradient39"
       x1="26.020201"
       y1="47.9995"
       x2="22.597601"
       y2="92.432404"
       gradientUnits="userSpaceOnUse"
       spreadMethod="pad"><stop
         stop-color="#0FAFFF"
         id="stop38"
         offset="0"
         style="stop-color:#000000;stop-opacity:1;" /><stop
         offset="1"
         stop-color="#0078D4"
         id="stop39" /></linearGradient><linearGradient
       id="linearGradient31"
       x1="26.020201"
       y1="47.9995"
       x2="22.597601"
       y2="92.432404"
       gradientUnits="userSpaceOnUse"
       spreadMethod="pad"><stop
         stop-color="#0FAFFF"
         id="stop30"
         offset="0"
         style="stop-color:#000000;stop-opacity:1;" /><stop
         offset="1"
         stop-color="#0078D4"
         id="stop31" /></linearGradient><linearGradient
       id="linearGradient15"
       x1="26.020201"
       y1="47.9995"
       x2="22.597601"
       y2="92.432404"
       gradientUnits="userSpaceOnUse"
       spreadMethod="pad"><stop
         stop-color="#0FAFFF"
         id="stop13"
         offset="0"
         style="stop-color:#001321;stop-opacity:1;" /><stop
         offset="1"
         stop-color="#0078D4"
         id="stop14" /></linearGradient><linearGradient
       id="linearGradient11"
       x1="26.020201"
       y1="47.9995"
       x2="22.597601"
       y2="92.432404"
       gradientUnits="userSpaceOnUse"><stop
         stop-color="#0FAFFF"
         id="stop9"
         offset="0"
         style="stop-color:#001524;stop-opacity:1;" /><stop
         offset="1"
         stop-color="#0078D4"
         id="stop10" /></linearGradient><linearGradient
       id="linearGradient37"><stop
         style="stop-color:#0078d4;stop-opacity:0;"
         offset="0"
         id="stop36" /><stop
         style="stop-color:#0078d4;stop-opacity:1;"
         offset="1"
         id="stop37" /></linearGradient><linearGradient
       id="linearGradient35"><stop
         style="stop-color:#004695;stop-opacity:1;"
         offset="0"
         id="stop34" /><stop
         style="stop-color:#004695;stop-opacity:0;"
         offset="0.32947019"
         id="stop35" /></linearGradient><linearGradient
       id="linearGradient33"><stop
         style="stop-color:#3bd5ff;stop-opacity:0;"
         offset="0"
         id="stop32" /><stop
         style="stop-color:#3bd5ff;stop-opacity:1;"
         offset="0.32781455"
         id="stop33" /></linearGradient><linearGradient
       id="linearGradient24"><stop
         style="stop-color:#0078d4;stop-opacity:0;"
         offset="0"
         id="stop28" /><stop
         style="stop-color:#0078d4;stop-opacity:1;"
         offset="1"
         id="stop29" /></linearGradient><linearGradient
       id="linearGradient24-3"><stop
         style="stop-color:#3bd5ff;stop-opacity:0;"
         offset="0"
         id="stop26" /><stop
         style="stop-color:#3bd5ff;stop-opacity:1;"
         offset="0.99834436"
         id="stop27" /></linearGradient><linearGradient
       id="linearGradient24-1"><stop
         style="stop-color:#004695;stop-opacity:1;"
         offset="0"
         id="stop24" /><stop
         style="stop-color:#004695;stop-opacity:0;"
         offset="1"
         id="stop25" /></linearGradient><linearGradient
       id="swatch9"
       inkscape:swatch="solid"><stop
         style="stop-color:#522d61;stop-opacity:1;"
         offset="0"
         id="stop11" /></linearGradient><linearGradient
       inkscape:collect="always"
       xlink:href="#linearGradient37"
       id="linearGradient7"
       x1="48.519535"
       y1="24.999994"
       x2="1.4804688"
       y2="24.999994"
       gradientUnits="userSpaceOnUse" /><linearGradient
       inkscape:collect="always"
       xlink:href="#linearGradient33"
       id="linearGradient10"
       x1="24.999998"
       y1="48.519524"
       x2="24.999998"
       y2="1.4804654"
       gradientUnits="userSpaceOnUse" /><linearGradient
       inkscape:collect="always"
       xlink:href="#linearGradient35"
       id="linearGradient14"
       x1="45.368523"
       y1="36.759766"
       x2="4.6314898"
       y2="13.24023"
       gradientUnits="userSpaceOnUse" /><linearGradient
       inkscape:collect="always"
       xlink:href="#linearGradient24"
       id="linearGradient25"
       x1="7.322329"
       y1="42.677673"
       x2="42.67767"
       y2="7.3223386"
       gradientUnits="userSpaceOnUse"
       gradientTransform="translate(-50,-50)" /><linearGradient
       inkscape:collect="always"
       xlink:href="#linearGradient24-1"
       id="linearGradient27"
       gradientUnits="userSpaceOnUse"
       x1="7.3223314"
       y1="7.32234"
       x2="42.677666"
       y2="42.677673"
       gradientTransform="translate(-50,-50)" /><linearGradient
       inkscape:collect="always"
       xlink:href="#linearGradient24-3"
       id="linearGradient28"
       gradientUnits="userSpaceOnUse"
       x1="25"
       y1="6.9783769e-06"
       x2="25"
       y2="50.000004"
       gradientTransform="translate(0,-50)" /><filter
       inkscape:collect="always"
       style="color-interpolation-filters:sRGB"
       id="filter13"
       x="-0.075000001"
       y="-0.075000001"
       width="1.15"
       height="1.15"><feGaussianBlur
         inkscape:collect="always"
         stdDeviation="1.4699684"
         id="feGaussianBlur13" /></filter><linearGradient
       id="paint0_linear_4303_1230"
       x1="48"
       y1="6.14258"
       x2="120.248"
       y2="47.567402"
       gradientUnits="userSpaceOnUse"><stop
         stop-color="#0FAFFF"
         id="stop11-4" /><stop
         offset="1"
         stop-color="#0078D4"
         id="stop12" /></linearGradient><linearGradient
       id="paint1_linear_4303_1230"
       x1="52"
       y1="6.14258"
       x2="120.953"
       y2="42.382999"
       gradientUnits="userSpaceOnUse"><stop
         stop-color="#0078D4"
         id="stop13-2" /><stop
         offset="1"
         stop-color="#004695"
         id="stop14-3" /></linearGradient><linearGradient
       id="paint2_linear_4303_1230"
       x1="56.5938"
       y1="15.7124"
       x2="103.043"
       y2="35.4277"
       gradientUnits="userSpaceOnUse"><stop
         stop-color="#9DEAFF"
         id="stop15" /><stop
         offset="1"
         stop-color="#3BD5FF"
         id="stop16" /></linearGradient><linearGradient
       id="paint3_linear_4303_1230"
       x1="-0.000123103"
       y1="47.9995"
       x2="39.272701"
       y2="111.839"
       gradientUnits="userSpaceOnUse"><stop
         stop-color="#0078D4"
         id="stop17" /><stop
         offset="1"
         stop-color="#004695"
         id="stop18" /></linearGradient><linearGradient
       id="paint4_linear_4303_1230"
       x1="26.020201"
       y1="47.9995"
       x2="22.597601"
       y2="92.432404"
       gradientUnits="userSpaceOnUse"
       xlink:href="#linearGradient105"><stop
         stop-color="#0FAFFF"
         id="stop19" /><stop
         offset="1"
         stop-color="#0078D4"
         id="stop20" /></linearGradient><linearGradient
       id="paint5_linear_4303_1230"
       x1="12"
       y1="51.9813"
       x2="39.192799"
       y2="86.754501"
       gradientUnits="userSpaceOnUse"><stop
         stop-color="#E6F9FE"
         id="stop21" /><stop
         offset="1"
         stop-color="#9DEAFF"
         id="stop22" /></linearGradient><linearGradient
       id="paint6_linear_4303_1230"
       x1="0"
       y1="4"
       x2="39.273499"
       y2="67.841499"
       gradientUnits="userSpaceOnUse"><stop
         stop-color="#3BD5FF"
         id="stop23" /><stop
         offset="1"
         stop-color="#0FAFFF"
         id="stop24-2" /></linearGradient><linearGradient
       id="paint7_linear_4303_1230"
       x1="26.021099"
       y1="6.2000399"
       x2="7.0430398"
       y2="35.855701"
       gradientUnits="userSpaceOnUse"><stop
         stop-color="#3BD5FF"
         id="stop25-2" /><stop
         offset="1"
         stop-color="#0FAFFF"
         id="stop26-1" /></linearGradient><linearGradient
       id="paint8_linear_4303_1230"
       x1="12"
       y1="16"
       x2="43.7966"
       y2="51.6021"
       gradientUnits="userSpaceOnUse"><stop
         stop-color="#FEFEFE"
         id="stop27-6" /><stop
         offset="1"
         stop-color="#E6F9FE"
         id="stop28-8" /></linearGradient><clipPath
       id="clip1_4303_1230"><rect
         width="96"
         height="96"
         fill="#ffffff"
         id="rect29"
         x="0"
         y="0" /></clipPath><filter
       inkscape:collect="always"
       style="color-interpolation-filters:sRGB"
       id="filter21"
       x="-0.071874299"
       y="-0.078409923"
       width="1.1437486"
       height="1.1568198"><feGaussianBlur
         inkscape:collect="always"
         stdDeviation="2.8750441"
         id="feGaussianBlur21" /></filter><linearGradient
       inkscape:collect="always"
       xlink:href="#linearGradient106"
       id="linearGradient107"
       x1="12"
       y1="48.000027"
       x2="71.526497"
       y2="48.000027"
       gradientUnits="userSpaceOnUse" /><filter
       inkscape:collect="always"
       style="color-interpolation-filters:sRGB"
       id="filter107"
       x="-0.08363841"
       y="-0.067978943"
       width="1.1672768"
       height="1.1359579"><feGaussianBlur
         inkscape:collect="always"
         stdDeviation="2.492573"
         id="feGaussianBlur107" /></filter><clipPath
       id="clip1_4303_1230-1"><rect
         width="96"
         height="96"
         fill="#ffffff"
         id="rect29-2"
         x="0"
         y="0" /></clipPath><clipPath
       clipPathUnits="userSpaceOnUse"
       id="clipPath138"><use
         x="0"
         y="0"
         xlink:href="#g137"
         id="use138" /></clipPath></defs><g
     id="g1"
     inkscape:label="WinUI"><g
       id="g2"
       inkscape:label="Rect"><rect
         style="font-variation-settings:normal;display:inline;opacity:1;vector-effect:none;fill:url(#linearGradient28);stroke:none;stroke-width:0.260698;stroke-linecap:butt;stroke-linejoin:miter;stroke-miterlimit:4;stroke-dasharray:none;stroke-dashoffset:0;stroke-opacity:1;-inkscape-stroke:none;stop-color:#000000;stop-opacity:1"
         id="rect25"
         width="50"
         height="50"
         x="0"
         y="-50"
         rx="7.1983109"
         ry="7.1983109"
         transform="scale(1,-1)"
         inkscape:label="rectTop" /><rect
         style="font-variation-settings:normal;display:inline;opacity:1;vector-effect:none;fill:url(#linearGradient25);fill-opacity:1;stroke:none;stroke-width:0.260698;stroke-linecap:butt;stroke-linejoin:miter;stroke-miterlimit:4;stroke-dasharray:none;stroke-dashoffset:0;stroke-opacity:1;-inkscape-stroke:none;stop-color:#000000;stop-opacity:1"
         id="rect1"
         width="50"
         height="50"
         x="-50"
         y="-50"
         rx="7.1983109"
         ry="7.1983109"
         transform="scale(-1)"
         inkscape:label="rectLeft" /><rect
         style="font-variation-settings:normal;display:inline;opacity:1;vector-effect:none;fill:url(#linearGradient27);stroke:none;stroke-width:0.260698;stroke-linecap:butt;stroke-linejoin:miter;stroke-miterlimit:4;stroke-dasharray:none;stroke-dashoffset:0;stroke-opacity:1;-inkscape-stroke:none;stop-color:#000000;stop-opacity:1"
         id="rect26"
         width="50"
         height="50"
         x="-50"
         y="-50"
         rx="7.1983109"
         ry="7.1983109"
         transform="scale(-1)"
         inkscape:label="rectRight" /></g><g
       id="layer1"
       inkscape:label="Border"
       style="display:inline"><path
         id="path3"
         style="baseline-shift:baseline;display:inline;overflow:visible;opacity:1;vector-effect:none;fill:#000000;fill-opacity:1;filter:url(#filter13);enable-background:accumulate;stop-color:#000000;stop-opacity:1"
         inkscape:label="pathShadow"
         d="m 8.9648275,1.4805298 c -4.1287536,0 -7.4842977,3.3555441 -7.4842977,7.4842977 V 41.035221 c 0,4.128754 3.3555441,7.484298 7.4842977,7.484298 H 41.035221 c 4.128754,0 7.484298,-3.355544 7.484298,-7.484298 V 8.9648275 c 0,-4.1287536 -3.355544,-7.4842977 -7.484298,-7.4842977 z m 0,1.9998779 H 41.035221 c 3.055348,0 5.48442,2.4290717 5.48442,5.4844198 V 41.035221 c 0,3.055348 -2.429072,5.48442 -5.48442,5.48442 H 8.9648275 c -3.0553481,0 -5.4844198,-2.429072 -5.4844198,-5.48442 V 8.9648275 c 0,-0.1909593 0.00937,-0.3791974 0.027905,-0.5648234 C 3.7863629,5.6156139 6.1004386,3.4804076 8.9648275,3.4804077 Z" /><path
         style="baseline-shift:baseline;display:inline;overflow:visible;opacity:1;vector-effect:none;fill:url(#linearGradient10);enable-background:accumulate;stop-color:#000000;stop-opacity:1"
         d="m 8.9648438,1.4804687 c -4.1287536,0 -7.4843751,3.3556215 -7.4843751,7.4843751 V 41.035156 c 0,4.128754 3.3556215,7.484375 7.4843751,7.484375 H 41.035156 c 4.128754,0 7.484375,-3.355621 7.484375,-7.484375 V 8.9648438 c 0,-4.1287536 -3.355621,-7.4843751 -7.484375,-7.4843751 z m 0,2.0000001 H 41.035156 c 3.055348,0 5.484375,2.4290269 5.484375,5.484375 V 41.035156 c 0,3.055348 -2.429027,5.484375 -5.484375,5.484375 H 8.9648438 c -3.0553481,0 -5.484375,-2.429027 -5.484375,-5.484375 V 8.9648438 c 0,-3.0553481 2.4290269,-5.4843751 5.484375,-5.484375 z"
         id="path11"
         inkscape:label="pathTop" /><path
         style="baseline-shift:baseline;display:inline;overflow:visible;opacity:1;vector-effect:none;fill:url(#linearGradient7);fill-opacity:1;enable-background:accumulate;stop-color:#000000;stop-opacity:1"
         d="m 8.9648438,1.4804687 c -4.1287536,0 -7.4843751,3.3556215 -7.4843751,7.4843751 V 41.035156 c 0,4.128754 3.3556215,7.484375 7.4843751,7.484375 H 41.035156 c 4.128754,0 7.484375,-3.355621 7.484375,-7.484375 V 8.9648438 c 0,-4.1287536 -3.355621,-7.4843751 -7.484375,-7.4843751 z m 0,2.0000001 H 41.035156 c 3.055348,0 5.484375,2.4290269 5.484375,5.484375 V 41.035156 c 0,3.055348 -2.429027,5.484375 -5.484375,5.484375 H 8.9648438 c -3.0553481,0 -5.484375,-2.429027 -5.484375,-5.484375 V 8.9648438 c 0,-3.0553481 2.4290269,-5.4843751 5.484375,-5.484375 z"
         id="path12"
         inkscape:label="pathLeft" /><path
         style="baseline-shift:baseline;display:inline;overflow:visible;opacity:1;vector-effect:none;fill:url(#linearGradient14);enable-background:accumulate;stop-color:#000000;stop-opacity:1"
         d="m 8.9648438,1.4804687 c -4.1287536,0 -7.4843751,3.3556215 -7.4843751,7.4843751 V 41.035156 c 0,4.128754 3.3556215,7.484375 7.4843751,7.484375 H 41.035156 c 4.128754,0 7.484375,-3.355621 7.484375,-7.484375 V 8.9648438 c 0,-4.1287536 -3.355621,-7.4843751 -7.484375,-7.4843751 z m 0,2.0000001 H 41.035156 c 3.055348,0 5.484375,2.4290269 5.484375,5.484375 V 41.035156 c 0,3.055348 -2.429027,5.484375 -5.484375,5.484375 H 8.9648438 c -3.0553481,0 -5.484375,-2.429027 -5.484375,-5.484375 V 8.9648438 c 0,-3.0553481 2.4290269,-5.4843751 5.484375,-5.484375 z"
         id="path13"
         inkscape:label="pathRight" /></g><g
       style="fill:none"
       id="g3"
       transform="matrix(0.3125,0,0,0.3125,10,10.000016)"
       inkscape:label="Icon"><path
         id="path8"
         style="fill:#000000;fill-opacity:0.502825;filter:url(#filter21)"
         d="m 32.641016,3.9998186 c -5.7162,0 -10.997799,3.0499185 -13.855899,8.0003384 L 1.7327214,41.535925 c -1.13483004,1.965571 -1.73291662657,4.194437 -1.73302087917,6.464102 0,2.2694 0.59685118917,4.500255 1.73136717917,6.465755 L 18.78181,83.999897 c 2.8582,4.9504 8.139698,8.000338 13.855898,8.000338 h 30.890104 c 2.8566,0 5.603878,-0.761571 7.995378,-2.141471 l -0.09426,-0.163711 0.09591,0.163711 c 2.393,-1.3807 4.429067,-3.38036 5.858867,-5.85556 L 94.123568,55.011485 c 1.2304,-2.1317 1.878541,-4.548604 1.878541,-7.009804 0,-2.4618 -0.649295,-4.881212 -1.880195,-7.013112 L 77.385365,12.000157 C 75.955865,9.5241671 73.921451,7.5241936 71.528151,6.1429436 l -0.09591,0.1637109 0.09426,-0.1637109 c -2.3918,-1.38038 -5.141485,-2.143125 -7.998685,-2.143125 z" /><g
         clip-path="url(#clip1_4303_1230)"
         id="g10"><path
           d="m 96.0016,48.0011 c 0,-2.4618 -0.648,-4.8801 -1.8789,-7.012 L 77.3861,12.0003 C 75.9566,9.52431 73.9207,7.52383 71.5274,6.14258 L 48.1565,45.9295 c -0.3636,0.6297 -0.5549,1.3439 -0.5549,2.071 0,0.7269 0.1913,1.4411 0.5547,2.0706 l 23.3689,39.7877 c 2.393,-1.3807 4.4288,-3.3806 5.8586,-5.8558 L 94.1234,55.0119 c 1.2304,-2.1317 1.8782,-4.5496 1.8782,-7.0108 z"
           fill="url(#paint0_linear_4303_1230)"
           id="path1"
           style="fill:url(#paint0_linear_4303_1230)" /><path
           d="m 96.0016,48.0011 c 0,-2.4618 -0.648,-4.8801 -1.8789,-7.012 L 77.3861,12.0003 C 75.9566,9.52431 73.9207,7.52383 71.5274,6.14258 L 48.1565,45.9295 c -0.3636,0.6297 -0.5549,1.3439 -0.5549,2.071 0,0.7269 0.1913,1.4411 0.5547,2.0706 l 23.3689,39.7877 c 2.393,-1.3807 4.4288,-3.3806 5.8586,-5.8558 L 94.1234,55.0119 c 1.2304,-2.1317 1.8782,-4.5496 1.8782,-7.0108 z"
           fill="url(#paint1_linear_4303_1230)"
           id="path2"
           style="fill:url(#paint1_linear_4303_1230)" /><path
           d="m 64.6759,49.9994 -8.0821,14.0008 0.7011,8.1435 8.7012,8.1436 9.2384,-15.9988 0.0045,-6e-4 8.2085,-14.2176 c 0.3636,-0.6297 0.555,-1.3439 0.555,-2.071 0,-0.727 -0.1914,-1.4403 -0.555,-2.0699 l -8.2085,-14.2176 -0.0045,-6e-4 -9.2384,-15.9988 -8.7012,8.1435 -0.7011,8.1436 8.082,14.0003 c 0.7144,1.2375 0.7144,2.7621 1e-4,3.9996 z"
           fill="#d9d9d9"
           id="path3-5" /><path
           d="m 64.6759,49.9994 -8.0821,14.0008 0.7011,8.1435 8.7012,8.1436 9.2384,-15.9988 0.0045,-6e-4 8.2085,-14.2176 c 0.3636,-0.6297 0.555,-1.3439 0.555,-2.071 0,-0.727 -0.1914,-1.4403 -0.555,-2.0699 l -8.2085,-14.2176 -0.0045,-6e-4 -9.2384,-15.9988 -8.7012,8.1435 -0.7011,8.1436 8.082,14.0003 c 0.7144,1.2375 0.7144,2.7621 1e-4,3.9996 z"
           fill="url(#paint2_linear_4303_1230)"
           id="path4-2"
           style="fill:url(#paint2_linear_4303_1230)" /><path
           d="m 32.638,91.9999 h 30.8892 c 2.8566,0 5.6048,-0.7616 7.9963,-2.1415 L 48.5546,50.0707 C 48.1912,49.4411 47.9999,48.727 47.9999,48.0001 l -24,-0.4 -24.00002207,0.4005 c 0,2.2694 0.59726607,4.4989 1.73178207,6.4644 L 18.7816,83.9999 c 2.8582,4.9504 8.1402,8 13.8564,8 z"
           fill="url(#paint3_linear_4303_1230)"
           id="path5"
           style="display:inline;fill:url(#paint3_linear_4303_1230)" /><g
           id="g138"
           clip-path="url(#clipPath138)"><g
             inkscape:label="Clip"
             id="g137"><path
               d="m 96.0016,48.0011 c 0,-2.4618 -0.648,-4.8801 -1.8789,-7.012 L 77.3861,12.0003 C 75.9566,9.52431 73.9207,7.52383 71.5274,6.14258 L 48.1565,45.9295 c -0.3636,0.6297 -0.5549,1.3439 -0.5549,2.071 0,0.7269 0.1913,1.4411 0.5547,2.0706 l 23.3689,39.7877 c 2.393,-1.3807 4.4288,-3.3806 5.8586,-5.8558 L 94.1234,55.0119 c 1.2304,-2.1317 1.8782,-4.5496 1.8782,-7.0108 z"
               fill="url(#paint1_linear_4303_1230)"
               id="path136"
               style="fill:#000000;fill-opacity:0" /><path
               id="path9"
               style="display:inline;fill:url(#linearGradient107);fill-opacity:1;filter:url(#filter107)"
               d="m 32.641016,3.9998186 c -5.7162,0 -10.997799,3.0499185 -13.855899,8.0003384 L 1.7327214,41.535925 c -2.31697507,4.013093 -2.29707676,8.953136 -0.00165,12.929857 L 18.78181,83.999897 c 2.8582,4.9504 8.139698,8.000338 13.855898,8.000338 h 30.890104 c 2.8566,0 5.603878,-0.761571 7.995378,-2.141471 L 48.554049,50.070392 c -0.731591,-1.267503 -0.744097,-2.849053 0.0017,-4.14073 L 71.526497,6.1429436 c -2.3918,-1.38038 -5.141485,-2.143125 -7.998685,-2.143125 z"
               sodipodi:nodetypes="sccccssccccss"
               inkscape:label="pathDepthShadow" /></g></g><path
           d="m 32.638,91.9999 h 30.8892 c 2.8566,0 5.6048,-0.7616 7.9963,-2.1415 L 48.5546,50.0707 C 48.1912,49.4411 47.9999,48.727 47.9999,48.0001 l -24,-0.4 -24.00002207,0.4005 c 0,2.2694 0.59726607,4.4989 1.73178207,6.4644 L 18.7816,83.9999 c 2.8582,4.9504 8.1402,8 13.8564,8 z"
           fill="url(#paint4_linear_4303_1230)"
           id="path6"
           style="display:inline;fill:url(#paint4_linear_4303_1230)" /><path
           d="M 12.5547,50.0709 C 12.1913,49.4413 12,48.7268 12,47.9999 l 8.9889,-0.4 8.989,0.4 c -1e-4,0.6905 0.1785,1.381 0.5356,1.9998 L 47.8298,80.0001 H 32.1399 c -1.4292,0 -2.7497,-0.7625 -3.4642,-2.0002 z"
           fill="url(#paint5_linear_4303_1230)"
           id="path7"
           style="display:inline;fill:url(#paint5_linear_4303_1230)" /><path
           d="m 32.641,4 h 30.8871 c 2.8572,0 5.606,0.76192 7.9978,2.1423 l -22.971,39.787 C 48.1914,46.5589 48,47.2732 48,48.0002 l -48,5e-4 C 8.63496e-5,45.731 0.597573,43.5009 1.73242,41.5353 L 18.7846,12 C 21.6427,7.04958 26.9248,4 32.641,4 Z"
           fill="url(#paint6_linear_4303_1230)"
           id="path8-7"
           style="fill:url(#paint6_linear_4303_1230)" /><path
           d="m 32.641,4 h 30.8871 c 2.8572,0 5.606,0.76192 7.9978,2.1423 l -22.971,39.787 C 48.1914,46.5589 48,47.2732 48,48.0002 l -48,5e-4 C 8.63496e-5,45.731 0.597573,43.5009 1.73242,41.5353 L 18.7846,12 C 21.6427,7.04958 26.9248,4 32.641,4 Z"
           fill="url(#paint7_linear_4303_1230)"
           id="path9-6"
           style="fill:url(#paint7_linear_4303_1230)" /><path
           d="m 12,48 h 17.9779 c 0,-0.6904 0.1786,-1.381 0.5356,-1.9996 L 47.8298,16 H 32.1399 c -1.4292,0 -2.7497,0.7625 -3.4642,2.0002 l -16.121,27.929 C 12.1913,46.5587 12,47.2731 12,48 Z"
           fill="url(#paint8_linear_4303_1230)"
           id="path10-1"
           style="fill:url(#paint8_linear_4303_1230)" /></g></g></g></svg>
