<?xml version="1.0" encoding="UTF-8" standalone="no"?>
<!-- Created with Inkscape (http://www.inkscape.org/) -->

<svg
   width="50mm"
   height="50mm"
   viewBox="0 0 50 50"
   version="1.1"
   id="svg1"
   xml:space="preserve"
   xmlns:xlink="http://www.w3.org/1999/xlink"
   xmlns="http://www.w3.org/2000/svg"
   xmlns:svg="http://www.w3.org/2000/svg"><defs
     id="defs1"><linearGradient
       id="linearGradient15"><stop
         style="stop-color:#f7a41d;stop-opacity:0.24946696;"
         offset="0"
         id="stop15" /><stop
         style="stop-color:#f7a41d;stop-opacity:0.50106609;"
         offset="1"
         id="stop16" /></linearGradient><linearGradient
       id="linearGradient2"><stop
         style="stop-color:#f7a41d;stop-opacity:0.24946696;"
         offset="0"
         id="stop2" /><stop
         style="stop-color:#000000;stop-opacity:0;"
         offset="0.30000001"
         id="stop4" /><stop
         style="stop-color:#000000;stop-opacity:0;"
         offset="0.69999999"
         id="stop17" /><stop
         style="stop-color:#f7a41d;stop-opacity:0.50106609;"
         offset="1"
         id="stop3" /></linearGradient><linearGradient
       xlink:href="#linearGradient2"
       id="linearGradient9"
       x1="25.000004"
       y1="2.3639462"
       x2="25.000004"
       y2="47.63604"
       gradientUnits="userSpaceOnUse" /><radialGradient
       xlink:href="#linearGradient15"
       id="radialGradient16"
       cx="25"
       cy="25"
       fx="25"
       fy="25"
       r="25"
       gradientUnits="userSpaceOnUse"
       gradientTransform="translate(-2.4265137e-6)" /></defs><g
     id="layer1"><rect
       style="font-variation-settings:normal;opacity:1;vector-effect:none;fill:#000000;fill-opacity:1;stroke:none;stroke-width:0.260698;stroke-linecap:butt;stroke-linejoin:miter;stroke-miterlimit:4;stroke-dasharray:none;stroke-dashoffset:0;stroke-opacity:1;-inkscape-stroke:none;stop-color:#000000;stop-opacity:1"
       id="rect1"
       width="50"
       height="50"
       x="0"
       y="0"
       rx="7.1983109"
       ry="7.1983109" /><rect
       style="fill:none;fill-opacity:1;stroke:url(#linearGradient9);stroke-width:0.234823"
       id="rect1-1"
       width="45.037273"
       height="45.037273"
       x="2.4813633"
       y="2.4813633"
       rx="6.4838462"
       ry="6.4838462" /><rect
       style="font-variation-settings:normal;vector-effect:none;fill:url(#radialGradient16);stroke:none;stroke-width:0.260698;stroke-linecap:butt;stroke-linejoin:miter;stroke-miterlimit:4;stroke-dasharray:none;stroke-dashoffset:0;stroke-opacity:1;-inkscape-stroke:none;stop-color:#000000"
       id="rect1-18"
       width="50"
       height="50"
       x="0"
       y="-4.4408921e-16"
       rx="7.1983109"
       ry="7.1983109" /><g
       fill="#f7a41d"
       id="g12"
       transform="matrix(0.26458333,0,0,0.26458333,4.7593753,6.4791669)"><g
         id="g3"><polygon
           points="46,22 28,44 19,30 "
           id="polygon1" /><polygon
           points="0,22 46,22 33,33 28,44 22,44 22,95 31,95 20,100 12,117 0,117 "
           shape-rendering="crispEdges"
           id="polygon2" /><polygon
           points="31,95 12,117 4,106 "
           id="polygon3" /></g><g
         id="g8"><polygon
           points="56,22 62,36 37,44 "
           id="polygon4" /><polygon
           points="56,32 56,22 111,22 111,44 37,44 "
           shape-rendering="crispEdges"
           id="polygon5" /><polygon
           points="116,95 97,117 90,104 "
           id="polygon6" /><polygon
           points="42,95 116,95 100,104 97,117 42,117 "
           shape-rendering="crispEdges"
           id="polygon7" /><polygon
           points="52,117 3,140 101,22 150,0 "
           id="polygon8" /></g><g
         id="g11"><polygon
           points="141,22 140,40 122,45 "
           id="polygon9" /><polygon
           points="141,22 153,22 153,117 106,117 120,105 125,95 131,95 131,45 122,45 132,36 "
           shape-rendering="crispEdges"
           id="polygon10" /><polygon
           points="125,95 130,110 106,117 "
           id="polygon11" /></g></g></g></svg>
